<?xml version="1.0" encoding="UTF-8" standalone="no"?>
<!DOCTYPE svg PUBLIC "-//W3C//DTD SVG 1.1//EN"
 "http://www.w3.org/Graphics/SVG/1.1/DTD/svg11.dtd">
<!-- Generated by graphviz version 2.38.0 (20140413.2041)
 -->
<!-- Title: MissingReferencesFinder Pages: 1 -->
<svg width="179pt" height="248pt"
 viewBox="0.00 0.00 179.00 248.00" xmlns="http://www.w3.org/2000/svg" xmlns:xlink="http://www.w3.org/1999/xlink">
<g id="graph0" class="graph" transform="scale(1 1) rotate(0) translate(4 244)">
<title>MissingReferencesFinder</title>
<polygon fill="white" stroke="none" points="-4,4 -4,-244 175,-244 175,4 -4,4"/>
<!-- Node2 -->
<g id="node1" class="node"><title>Node2</title>
<polygon fill="#bfbfbf" stroke="black" points="0,-0.5 0,-145.5 171,-145.5 171,-0.5 0,-0.5"/>
<text text-anchor="middle" x="85.5" y="-133.5" font-family="Helvetica,sans-Serif" font-size="10.00">MissingReferencesFinder</text>
<polyline fill="none" stroke="black" points="0,-126.5 171,-126.5 "/>
<text text-anchor="start" x="8" y="-114.5" font-family="Helvetica,sans-Serif" font-size="10.00">&#45; MENU_ROOT</text>
<polyline fill="none" stroke="black" points="0,-107.5 171,-107.5 "/>
<text text-anchor="start" x="8" y="-95.5" font-family="Helvetica,sans-Serif" font-size="10.00">+ FindMissingReferencesInCurrent</text>
<text text-anchor="start" x="8" y="-84.5" font-family="Helvetica,sans-Serif" font-size="10.00">Scene()</text>
<text text-anchor="start" x="8" y="-73.5" font-family="Helvetica,sans-Serif" font-size="10.00">+ FindMissingReferencesInAll</text>
<text text-anchor="start" x="8" y="-62.5" font-family="Helvetica,sans-Serif" font-size="10.00">Scenes()</text>
<text text-anchor="start" x="8" y="-51.5" font-family="Helvetica,sans-Serif" font-size="10.00">+ FindMissingReferencesInAssets()</text>
<text text-anchor="start" x="8" y="-40.5" font-family="Helvetica,sans-Serif" font-size="10.00">&#45; FindMissingReferences()</text>
<text text-anchor="start" x="8" y="-29.5" font-family="Helvetica,sans-Serif" font-size="10.00">&#45; GetSceneObjects()</text>
<text text-anchor="start" x="8" y="-18.5" font-family="Helvetica,sans-Serif" font-size="10.00">&#45; ShowError()</text>
<text text-anchor="start" x="8" y="-7.5" font-family="Helvetica,sans-Serif" font-size="10.00">&#45; GetFullPath()</text>
</g>
<!-- Node3 -->
<g id="node2" class="node"><title>Node3</title>
<polygon fill="white" stroke="#bfbfbf" points="44,-182.5 44,-239.5 127,-239.5 127,-182.5 44,-182.5"/>
<text text-anchor="middle" x="85.5" y="-227.5" font-family="Helvetica,sans-Serif" font-size="10.00">MonoBehaviour</text>
<polyline fill="none" stroke="#bfbfbf" points="44,-220.5 127,-220.5 "/>
<text text-anchor="middle" x="85.5" y="-208.5" font-family="Helvetica,sans-Serif" font-size="10.00"> </text>
<polyline fill="none" stroke="#bfbfbf" points="44,-201.5 127,-201.5 "/>
<text text-anchor="middle" x="85.5" y="-189.5" font-family="Helvetica,sans-Serif" font-size="10.00"> </text>
</g>
<!-- Node3&#45;&gt;Node2 -->
<g id="edge1" class="edge"><title>Node3&#45;&gt;Node2</title>
<path fill="none" stroke="midnightblue" d="M85.5,-172.356C85.5,-163.999 85.5,-154.872 85.5,-145.656"/>
<polygon fill="none" stroke="midnightblue" points="82.0001,-172.478 85.5,-182.478 89.0001,-172.478 82.0001,-172.478"/>
</g>
</g>
</svg>
