<?xml version="1.0" encoding="UTF-8" standalone="no"?>
<!DOCTYPE svg PUBLIC "-//W3C//DTD SVG 1.1//EN"
 "http://www.w3.org/Graphics/SVG/1.1/DTD/svg11.dtd">
<!-- Generated by graphviz version 2.38.0 (20140413.2041)
 -->
<!-- Title: State Pages: 1 -->
<svg width="1117pt" height="590pt"
 viewBox="0.00 0.00 1117.00 590.00" xmlns="http://www.w3.org/2000/svg" xmlns:xlink="http://www.w3.org/1999/xlink">
<g id="graph0" class="graph" transform="scale(1 1) rotate(0) translate(4 586)">
<title>State</title>
<polygon fill="white" stroke="none" points="-4,4 -4,-586 1113,-586 1113,4 -4,4"/>
<!-- Node0 -->
<g id="node1" class="node"><title>Node0</title>
<polygon fill="#bfbfbf" stroke="black" points="328,-309.5 328,-487.5 432,-487.5 432,-309.5 328,-309.5"/>
<text text-anchor="middle" x="380" y="-475.5" font-family="Helvetica,sans-Serif" font-size="10.00">State</text>
<polyline fill="none" stroke="black" points="328,-468.5 432,-468.5 "/>
<text text-anchor="start" x="336" y="-456.5" font-family="Helvetica,sans-Serif" font-size="10.00">+ name</text>
<text text-anchor="start" x="336" y="-445.5" font-family="Helvetica,sans-Serif" font-size="10.00">+ triggers</text>
<text text-anchor="start" x="336" y="-434.5" font-family="Helvetica,sans-Serif" font-size="10.00"># sm</text>
<text text-anchor="start" x="336" y="-423.5" font-family="Helvetica,sans-Serif" font-size="10.00">&#45; listeners</text>
<polyline fill="none" stroke="black" points="328,-416.5 432,-416.5 "/>
<text text-anchor="start" x="336" y="-404.5" font-family="Helvetica,sans-Serif" font-size="10.00">+ IsActiveState()</text>
<text text-anchor="start" x="336" y="-393.5" font-family="Helvetica,sans-Serif" font-size="10.00">+ Init()</text>
<text text-anchor="start" x="336" y="-382.5" font-family="Helvetica,sans-Serif" font-size="10.00">+ OnStateEnter()</text>
<text text-anchor="start" x="336" y="-371.5" font-family="Helvetica,sans-Serif" font-size="10.00">+ OnStateExit()</text>
<text text-anchor="start" x="336" y="-360.5" font-family="Helvetica,sans-Serif" font-size="10.00"># AddAutoListener()</text>
<text text-anchor="start" x="336" y="-349.5" font-family="Helvetica,sans-Serif" font-size="10.00"># TriggerTransition()</text>
<text text-anchor="start" x="336" y="-338.5" font-family="Helvetica,sans-Serif" font-size="10.00"># OnMyStateEnter()</text>
<text text-anchor="start" x="336" y="-327.5" font-family="Helvetica,sans-Serif" font-size="10.00"># OnMyStateExit()</text>
<text text-anchor="start" x="336" y="-316.5" font-family="Helvetica,sans-Serif" font-size="10.00"># OnMyStateInit()</text>
</g>
<!-- Node2 -->
<g id="node3" class="node"><title>Node2</title>
<g id="a_node3"><a xlink:href="class_command_behaviour.html" target="_top" xlink:title="A generic behaviour to trigger an event when entered. ">
<polygon fill="white" stroke="black" points="0,-182.5 0,-239.5 104,-239.5 104,-182.5 0,-182.5"/>
<text text-anchor="middle" x="52" y="-227.5" font-family="Helvetica,sans-Serif" font-size="10.00">CommandBehaviour</text>
<polyline fill="none" stroke="black" points="0,-220.5 104,-220.5 "/>
<text text-anchor="start" x="8" y="-208.5" font-family="Helvetica,sans-Serif" font-size="10.00">+ command</text>
<polyline fill="none" stroke="black" points="0,-201.5 104,-201.5 "/>
<text text-anchor="start" x="8" y="-189.5" font-family="Helvetica,sans-Serif" font-size="10.00"># OnMyStateEnter()</text>
</a>
</g>
</g>
<!-- Node0&#45;&gt;Node2 -->
<g id="edge2" class="edge"><title>Node0&#45;&gt;Node2</title>
<path fill="none" stroke="midnightblue" d="M318.472,-375.9C262.155,-354.534 177.953,-318.48 113,-273 99.5047,-263.551 86.3444,-250.959 75.7229,-239.671"/>
<polygon fill="none" stroke="midnightblue" points="317.365,-379.223 327.957,-379.46 319.825,-372.669 317.365,-379.223"/>
</g>
<!-- Node3 -->
<g id="node4" class="node"><title>Node3</title>
<g id="a_node4"><a xlink:href="classmanagement_1_1_game_over_state.html" target="_top" xlink:title="Behaviour to trigger transition to main menu state upon receiving the corresponding event...">
<polygon fill="white" stroke="black" points="122.5,-171.5 122.5,-250.5 241.5,-250.5 241.5,-171.5 122.5,-171.5"/>
<text text-anchor="middle" x="182" y="-238.5" font-family="Helvetica,sans-Serif" font-size="10.00">GameOverState</text>
<polyline fill="none" stroke="black" points="122.5,-231.5 241.5,-231.5 "/>
<text text-anchor="middle" x="182" y="-219.5" font-family="Helvetica,sans-Serif" font-size="10.00"> </text>
<polyline fill="none" stroke="black" points="122.5,-212.5 241.5,-212.5 "/>
<text text-anchor="start" x="130.5" y="-200.5" font-family="Helvetica,sans-Serif" font-size="10.00"># OnMyStateEnter()</text>
<text text-anchor="start" x="130.5" y="-189.5" font-family="Helvetica,sans-Serif" font-size="10.00"># OnMyStateExit()</text>
<text text-anchor="start" x="130.5" y="-178.5" font-family="Helvetica,sans-Serif" font-size="10.00">&#45; OnBackToMainMenu()</text>
</a>
</g>
</g>
<!-- Node0&#45;&gt;Node3 -->
<g id="edge3" class="edge"><title>Node0&#45;&gt;Node3</title>
<path fill="none" stroke="midnightblue" d="M320.569,-341.821C289.219,-312.451 251.534,-277.145 223.383,-250.77"/>
<polygon fill="none" stroke="midnightblue" points="318.287,-344.479 327.978,-348.762 323.073,-339.371 318.287,-344.479"/>
</g>
<!-- Node4 -->
<g id="node5" class="node"><title>Node4</title>
<g id="a_node5"><a xlink:href="classmanagement_1_1_main_menu_state.html" target="_top" xlink:title="Triggers the Main Menu Scene and UI upon entering. ">
<polygon fill="white" stroke="black" points="260,-182.5 260,-239.5 364,-239.5 364,-182.5 260,-182.5"/>
<text text-anchor="middle" x="312" y="-227.5" font-family="Helvetica,sans-Serif" font-size="10.00">MainMenuState</text>
<polyline fill="none" stroke="black" points="260,-220.5 364,-220.5 "/>
<text text-anchor="middle" x="312" y="-208.5" font-family="Helvetica,sans-Serif" font-size="10.00"> </text>
<polyline fill="none" stroke="black" points="260,-201.5 364,-201.5 "/>
<text text-anchor="start" x="268" y="-189.5" font-family="Helvetica,sans-Serif" font-size="10.00"># OnMyStateEnter()</text>
</a>
</g>
</g>
<!-- Node0&#45;&gt;Node4 -->
<g id="edge4" class="edge"><title>Node0&#45;&gt;Node4</title>
<path fill="none" stroke="midnightblue" d="M344.221,-299.896C336.126,-277.814 328.166,-256.1 322.183,-239.778"/>
<polygon fill="none" stroke="midnightblue" points="340.965,-301.183 347.693,-309.368 347.537,-298.774 340.965,-301.183"/>
</g>
<!-- Node5 -->
<g id="node6" class="node"><title>Node5</title>
<g id="a_node6"><a xlink:href="classmanagement_1_1_match_init_state.html" target="_top" xlink:title="During Match Init every client is expected to load and player instances are created. ">
<polygon fill="white" stroke="black" points="382,-160.5 382,-261.5 516,-261.5 516,-160.5 382,-160.5"/>
<text text-anchor="middle" x="449" y="-249.5" font-family="Helvetica,sans-Serif" font-size="10.00">MatchInitState</text>
<polyline fill="none" stroke="black" points="382,-242.5 516,-242.5 "/>
<text text-anchor="start" x="390" y="-230.5" font-family="Helvetica,sans-Serif" font-size="10.00">+ initCountdown</text>
<text text-anchor="start" x="390" y="-219.5" font-family="Helvetica,sans-Serif" font-size="10.00">+ playerPrefab</text>
<polyline fill="none" stroke="black" points="382,-212.5 516,-212.5 "/>
<text text-anchor="start" x="390" y="-200.5" font-family="Helvetica,sans-Serif" font-size="10.00"># OnMyStateEnter()</text>
<text text-anchor="start" x="390" y="-189.5" font-family="Helvetica,sans-Serif" font-size="10.00"># OnMyStateExit()</text>
<text text-anchor="start" x="390" y="-178.5" font-family="Helvetica,sans-Serif" font-size="10.00">&#45; OnAllFinishedLoading()</text>
<text text-anchor="start" x="390" y="-167.5" font-family="Helvetica,sans-Serif" font-size="10.00">&#45; OnSpawnIndexAssigned()</text>
</a>
</g>
</g>
<!-- Node0&#45;&gt;Node5 -->
<g id="edge5" class="edge"><title>Node0&#45;&gt;Node5</title>
<path fill="none" stroke="midnightblue" d="M416.371,-299.721C421.294,-286.484 426.167,-273.385 430.586,-261.505"/>
<polygon fill="none" stroke="midnightblue" points="412.988,-298.775 412.782,-309.368 419.549,-301.215 412.988,-298.775"/>
</g>
<!-- Node6 -->
<g id="node7" class="node"><title>Node6</title>
<g id="a_node7"><a xlink:href="classmanagement_1_1_startup_state.html" target="_top" xlink:title="During the startup the managers can prepare a stable state. ">
<polygon fill="white" stroke="black" points="534,-171.5 534,-250.5 682,-250.5 682,-171.5 534,-171.5"/>
<text text-anchor="middle" x="608" y="-238.5" font-family="Helvetica,sans-Serif" font-size="10.00">StartupState</text>
<polyline fill="none" stroke="black" points="534,-231.5 682,-231.5 "/>
<text text-anchor="start" x="542" y="-219.5" font-family="Helvetica,sans-Serif" font-size="10.00">+ remainDurAfterStartupFinish</text>
<polyline fill="none" stroke="black" points="534,-212.5 682,-212.5 "/>
<text text-anchor="start" x="542" y="-200.5" font-family="Helvetica,sans-Serif" font-size="10.00"># OnMyStateEnter()</text>
<text text-anchor="start" x="542" y="-189.5" font-family="Helvetica,sans-Serif" font-size="10.00"># OnMyStateExit()</text>
<text text-anchor="start" x="542" y="-178.5" font-family="Helvetica,sans-Serif" font-size="10.00">&#45; OnNetSmStateEntered()</text>
</a>
</g>
</g>
<!-- Node0&#45;&gt;Node6 -->
<g id="edge6" class="edge"><title>Node0&#45;&gt;Node6</title>
<path fill="none" stroke="midnightblue" d="M439.892,-348.772C477.542,-318.14 525.443,-279.168 560.474,-250.667"/>
<polygon fill="none" stroke="midnightblue" points="437.57,-346.149 432.022,-355.175 441.988,-351.579 437.57,-346.149"/>
</g>
<!-- Node7 -->
<g id="node8" class="node"><title>Node7</title>
<g id="a_node8"><a xlink:href="classnet_1_1_net_overlay_state.html" target="_top" xlink:title="{NetOverlayState\n|# netOverlayRef\l# netSM\l&#45; minVisibleTime\l&#45; timestampOfStateEntered\l|# TriggerTransitionWithMin\lVisibleTime()\l# OnOverlayStateEnter()\l# OnMyStateEnter()\l}">
<polygon fill="white" stroke="black" points="700.5,-149.5 700.5,-272.5 835.5,-272.5 835.5,-149.5 700.5,-149.5"/>
<text text-anchor="middle" x="768" y="-260.5" font-family="Helvetica,sans-Serif" font-size="10.00">NetOverlayState</text>
<polyline fill="none" stroke="black" points="700.5,-253.5 835.5,-253.5 "/>
<text text-anchor="start" x="708.5" y="-241.5" font-family="Helvetica,sans-Serif" font-size="10.00"># netOverlayRef</text>
<text text-anchor="start" x="708.5" y="-230.5" font-family="Helvetica,sans-Serif" font-size="10.00"># netSM</text>
<text text-anchor="start" x="708.5" y="-219.5" font-family="Helvetica,sans-Serif" font-size="10.00">&#45; minVisibleTime</text>
<text text-anchor="start" x="708.5" y="-208.5" font-family="Helvetica,sans-Serif" font-size="10.00">&#45; timestampOfStateEntered</text>
<polyline fill="none" stroke="black" points="700.5,-201.5 835.5,-201.5 "/>
<text text-anchor="start" x="708.5" y="-189.5" font-family="Helvetica,sans-Serif" font-size="10.00"># TriggerTransitionWithMin</text>
<text text-anchor="start" x="708.5" y="-178.5" font-family="Helvetica,sans-Serif" font-size="10.00">VisibleTime()</text>
<text text-anchor="start" x="708.5" y="-167.5" font-family="Helvetica,sans-Serif" font-size="10.00"># OnOverlayStateEnter()</text>
<text text-anchor="start" x="708.5" y="-156.5" font-family="Helvetica,sans-Serif" font-size="10.00"># OnMyStateEnter()</text>
</a>
</g>
</g>
<!-- Node0&#45;&gt;Node7 -->
<g id="edge7" class="edge"><title>Node0&#45;&gt;Node7</title>
<path fill="none" stroke="midnightblue" d="M441.822,-378.651C506.378,-357.639 609.402,-320.305 691,-273 694.098,-271.204 697.207,-269.292 700.302,-267.295"/>
<polygon fill="none" stroke="midnightblue" points="440.635,-375.356 432.192,-381.757 442.784,-382.018 440.635,-375.356"/>
</g>
<!-- Node1 -->
<g id="node2" class="node"><title>Node1</title>
<polygon fill="white" stroke="#bfbfbf" points="320.5,-524.5 320.5,-581.5 439.5,-581.5 439.5,-524.5 320.5,-524.5"/>
<text text-anchor="middle" x="380" y="-569.5" font-family="Helvetica,sans-Serif" font-size="10.00">StateMachineBehaviour</text>
<polyline fill="none" stroke="#bfbfbf" points="320.5,-562.5 439.5,-562.5 "/>
<text text-anchor="middle" x="380" y="-550.5" font-family="Helvetica,sans-Serif" font-size="10.00"> </text>
<polyline fill="none" stroke="#bfbfbf" points="320.5,-543.5 439.5,-543.5 "/>
<text text-anchor="middle" x="380" y="-531.5" font-family="Helvetica,sans-Serif" font-size="10.00"> </text>
</g>
<!-- Node1&#45;&gt;Node0 -->
<g id="edge1" class="edge"><title>Node1&#45;&gt;Node0</title>
<path fill="none" stroke="midnightblue" d="M380,-514.374C380,-506.089 380,-496.977 380,-487.62"/>
<polygon fill="none" stroke="midnightblue" points="376.5,-514.383 380,-524.383 383.5,-514.383 376.5,-514.383"/>
</g>
<!-- Node8 -->
<g id="node9" class="node"><title>Node8</title>
<g id="a_node9"><a xlink:href="classnet_1_1_connect_to_master_state.html" target="_top" xlink:title="This state is responsible for doing the first step to hosting: connecting to the Photon Master Server...">
<polygon fill="white" stroke="black" points="421,-17 421,-96 549,-96 549,-17 421,-17"/>
<text text-anchor="middle" x="485" y="-84" font-family="Helvetica,sans-Serif" font-size="10.00">ConnectToMasterState</text>
<polyline fill="none" stroke="black" points="421,-77 549,-77 "/>
<text text-anchor="middle" x="485" y="-65" font-family="Helvetica,sans-Serif" font-size="10.00"> </text>
<polyline fill="none" stroke="black" points="421,-58 549,-58 "/>
<text text-anchor="start" x="429" y="-46" font-family="Helvetica,sans-Serif" font-size="10.00"># OnMyStateInit()</text>
<text text-anchor="start" x="429" y="-35" font-family="Helvetica,sans-Serif" font-size="10.00"># OnOverlayStateEnter()</text>
<text text-anchor="start" x="429" y="-24" font-family="Helvetica,sans-Serif" font-size="10.00">&#45; OnConnectedToMaster()</text>
</a>
</g>
</g>
<!-- Node7&#45;&gt;Node8 -->
<g id="edge8" class="edge"><title>Node7&#45;&gt;Node8</title>
<path fill="none" stroke="midnightblue" d="M691.285,-149.144C691.19,-149.096 691.095,-149.048 691,-149 636.323,-121.421 612.949,-140.032 558,-113 548.572,-108.362 539.153,-102.426 530.365,-96.1703"/>
<polygon fill="none" stroke="midnightblue" points="689.649,-152.239 700.101,-153.975 693.013,-146.1 689.649,-152.239"/>
</g>
<!-- Node9 -->
<g id="node10" class="node"><title>Node9</title>
<g id="a_node10"><a xlink:href="classnet_1_1_disconnected_state.html" target="_top" xlink:title="This network behaviour is reached during startup and whenever a disconnect occurs for whatever reason...">
<polygon fill="white" stroke="black" points="567,-22.5 567,-90.5 689,-90.5 689,-22.5 567,-22.5"/>
<text text-anchor="middle" x="628" y="-78.5" font-family="Helvetica,sans-Serif" font-size="10.00">DisconnectedState</text>
<polyline fill="none" stroke="black" points="567,-71.5 689,-71.5 "/>
<text text-anchor="middle" x="628" y="-59.5" font-family="Helvetica,sans-Serif" font-size="10.00"> </text>
<polyline fill="none" stroke="black" points="567,-52.5 689,-52.5 "/>
<text text-anchor="start" x="575" y="-40.5" font-family="Helvetica,sans-Serif" font-size="10.00"># OnMyStateInit()</text>
<text text-anchor="start" x="575" y="-29.5" font-family="Helvetica,sans-Serif" font-size="10.00"># OnOverlayStateEnter()</text>
</a>
</g>
</g>
<!-- Node7&#45;&gt;Node9 -->
<g id="edge9" class="edge"><title>Node7&#45;&gt;Node9</title>
<path fill="none" stroke="midnightblue" d="M705.35,-141.756C689.112,-124.068 672.341,-105.8 658.583,-90.8136"/>
<polygon fill="none" stroke="midnightblue" points="702.925,-144.29 712.266,-149.29 708.082,-139.556 702.925,-144.29"/>
</g>
<!-- Node10 -->
<g id="node11" class="node"><title>Node10</title>
<g id="a_node11"><a xlink:href="classnet_1_1_host_new_room_state.html" target="_top" xlink:title="Responsible for creating and hosting a new room once connected to Master. ">
<polygon fill="white" stroke="black" points="707,-0.5 707,-112.5 829,-112.5 829,-0.5 707,-0.5"/>
<text text-anchor="middle" x="768" y="-100.5" font-family="Helvetica,sans-Serif" font-size="10.00">HostNewRoomState</text>
<polyline fill="none" stroke="black" points="707,-93.5 829,-93.5 "/>
<text text-anchor="start" x="715" y="-81.5" font-family="Helvetica,sans-Serif" font-size="10.00">+ mainPlayer</text>
<text text-anchor="start" x="715" y="-70.5" font-family="Helvetica,sans-Serif" font-size="10.00">&#45; numTries</text>
<polyline fill="none" stroke="black" points="707,-63.5 829,-63.5 "/>
<text text-anchor="start" x="715" y="-51.5" font-family="Helvetica,sans-Serif" font-size="10.00"># OnMyStateInit()</text>
<text text-anchor="start" x="715" y="-40.5" font-family="Helvetica,sans-Serif" font-size="10.00"># OnOverlayStateEnter()</text>
<text text-anchor="start" x="715" y="-29.5" font-family="Helvetica,sans-Serif" font-size="10.00">&#45; GetRoomName()</text>
<text text-anchor="start" x="715" y="-18.5" font-family="Helvetica,sans-Serif" font-size="10.00">&#45; OnHosting()</text>
<text text-anchor="start" x="715" y="-7.5" font-family="Helvetica,sans-Serif" font-size="10.00">&#45; OnHostingFailed()</text>
</a>
</g>
</g>
<!-- Node7&#45;&gt;Node10 -->
<g id="edge10" class="edge"><title>Node7&#45;&gt;Node10</title>
<path fill="none" stroke="midnightblue" d="M768,-139.246C768,-130.288 768,-121.228 768,-112.564"/>
<polygon fill="none" stroke="midnightblue" points="764.5,-139.29 768,-149.29 771.5,-139.29 764.5,-139.29"/>
</g>
<!-- Node11 -->
<g id="node12" class="node"><title>Node11</title>
<g id="a_node12"><a xlink:href="classnet_1_1_join_room_state.html" target="_top" xlink:title="State for joining an existing room. Needs to be connected to the Master Server of course...">
<polygon fill="white" stroke="black" points="847,-6 847,-107 969,-107 969,-6 847,-6"/>
<text text-anchor="middle" x="908" y="-95" font-family="Helvetica,sans-Serif" font-size="10.00">JoinRoomState</text>
<polyline fill="none" stroke="black" points="847,-88 969,-88 "/>
<text text-anchor="middle" x="908" y="-76" font-family="Helvetica,sans-Serif" font-size="10.00"> </text>
<polyline fill="none" stroke="black" points="847,-69 969,-69 "/>
<text text-anchor="start" x="855" y="-57" font-family="Helvetica,sans-Serif" font-size="10.00"># OnMyStateInit()</text>
<text text-anchor="start" x="855" y="-46" font-family="Helvetica,sans-Serif" font-size="10.00"># OnOverlayStateEnter()</text>
<text text-anchor="start" x="855" y="-35" font-family="Helvetica,sans-Serif" font-size="10.00">&#45; OnJoinedRoom()</text>
<text text-anchor="start" x="855" y="-24" font-family="Helvetica,sans-Serif" font-size="10.00">&#45; OnJoinedRoomFailed()</text>
<text text-anchor="start" x="855" y="-13" font-family="Helvetica,sans-Serif" font-size="10.00">&#45; OnCancelBtnPressed()</text>
</a>
</g>
</g>
<!-- Node7&#45;&gt;Node11 -->
<g id="edge11" class="edge"><title>Node7&#45;&gt;Node11</title>
<path fill="none" stroke="midnightblue" d="M830.694,-141.709C841.35,-130.101 852.235,-118.244 862.346,-107.23"/>
<polygon fill="none" stroke="midnightblue" points="827.918,-139.556 823.734,-149.29 833.075,-144.29 827.918,-139.556"/>
</g>
<!-- Node12 -->
<g id="node13" class="node"><title>Node12</title>
<g id="a_node13"><a xlink:href="classnet_1_1_leave_room_state.html" target="_top" xlink:title="A base behaviour to initialize and return the state&#39;s name. ">
<polygon fill="white" stroke="black" points="987,-22.5 987,-90.5 1109,-90.5 1109,-22.5 987,-22.5"/>
<text text-anchor="middle" x="1048" y="-78.5" font-family="Helvetica,sans-Serif" font-size="10.00">LeaveRoomState</text>
<polyline fill="none" stroke="black" points="987,-71.5 1109,-71.5 "/>
<text text-anchor="middle" x="1048" y="-59.5" font-family="Helvetica,sans-Serif" font-size="10.00"> </text>
<polyline fill="none" stroke="black" points="987,-52.5 1109,-52.5 "/>
<text text-anchor="start" x="995" y="-40.5" font-family="Helvetica,sans-Serif" font-size="10.00"># OnMyStateInit()</text>
<text text-anchor="start" x="995" y="-29.5" font-family="Helvetica,sans-Serif" font-size="10.00"># OnOverlayStateEnter()</text>
</a>
</g>
</g>
<!-- Node7&#45;&gt;Node12 -->
<g id="edge12" class="edge"><title>Node7&#45;&gt;Node12</title>
<path fill="none" stroke="midnightblue" d="M845.157,-179.587C885.867,-162.259 935.954,-138.868 978,-113 988.7,-106.417 999.636,-98.444 1009.59,-90.619"/>
<polygon fill="none" stroke="midnightblue" points="843.676,-176.413 835.822,-183.524 846.396,-182.863 843.676,-176.413"/>
</g>
</g>
</svg>
