<?xml version="1.0" encoding="UTF-8" standalone="no"?>
<!DOCTYPE svg PUBLIC "-//W3C//DTD SVG 1.1//EN"
 "http://www.w3.org/Graphics/SVG/1.1/DTD/svg11.dtd">
<!-- Generated by graphviz version 2.38.0 (20140413.2041)
 -->
<!-- Title: HBMenu2 Pages: 1 -->
<svg width="599pt" height="952pt"
 viewBox="0.00 0.00 598.50 952.00" xmlns="http://www.w3.org/2000/svg" xmlns:xlink="http://www.w3.org/1999/xlink">
<g id="graph0" class="graph" transform="scale(1 1) rotate(0) translate(4 948)">
<title>HBMenu2</title>
<polygon fill="white" stroke="none" points="-4,4 -4,-948 594.5,-948 594.5,4 -4,4"/>
<!-- Node2 -->
<g id="node1" class="node"><title>Node2</title>
<polygon fill="#bfbfbf" stroke="black" points="0,-0.5 0,-68.5 95,-68.5 95,-0.5 0,-0.5"/>
<text text-anchor="middle" x="47.5" y="-56.5" font-family="Helvetica,sans-Serif" font-size="10.00">HBMenu2</text>
<polyline fill="none" stroke="black" points="0,-49.5 95,-49.5 "/>
<text text-anchor="start" x="8" y="-37.5" font-family="Helvetica,sans-Serif" font-size="10.00">+ hbMenuUI</text>
<polyline fill="none" stroke="black" points="0,-30.5 95,-30.5 "/>
<text text-anchor="start" x="8" y="-18.5" font-family="Helvetica,sans-Serif" font-size="10.00">+ OpenMenu()</text>
<text text-anchor="start" x="8" y="-7.5" font-family="Helvetica,sans-Serif" font-size="10.00">&#45; OnMouseDown()</text>
</g>
<!-- Node3 -->
<g id="node2" class="node"><title>Node3</title>
<polygon fill="white" stroke="#bfbfbf" points="43,-886.5 43,-943.5 126,-943.5 126,-886.5 43,-886.5"/>
<text text-anchor="middle" x="84.5" y="-931.5" font-family="Helvetica,sans-Serif" font-size="10.00">MonoBehaviour</text>
<polyline fill="none" stroke="#bfbfbf" points="43,-924.5 126,-924.5 "/>
<text text-anchor="middle" x="84.5" y="-912.5" font-family="Helvetica,sans-Serif" font-size="10.00"> </text>
<polyline fill="none" stroke="#bfbfbf" points="43,-905.5 126,-905.5 "/>
<text text-anchor="middle" x="84.5" y="-893.5" font-family="Helvetica,sans-Serif" font-size="10.00"> </text>
</g>
<!-- Node3&#45;&gt;Node2 -->
<g id="edge1" class="edge"><title>Node3&#45;&gt;Node2</title>
<path fill="none" stroke="midnightblue" d="M59.269,-877.857C37.1501,-842.59 8.5,-786.569 8.5,-733 8.5,-733 8.5,-733 8.5,-171.5 8.5,-135.27 21.447,-95.6409 32.4216,-68.5571"/>
<polygon fill="none" stroke="midnightblue" points="56.3819,-879.839 64.7303,-886.362 62.2721,-876.056 56.3819,-879.839"/>
</g>
<!-- Node4 -->
<g id="node3" class="node"><title>Node4</title>
<g id="a_node3"><a xlink:href="class_player_controller.html" target="_top" xlink:title="{PlayerController\n|+ rigidbodyToControl\l&#45; movement\l|&#45; Awake()\l&#45; Update()\l&#45; FixedUpdate()\l&#45; ReadMovement()\l&#45; ReadAttack()\l}">
<polygon fill="white" stroke="black" points="58.5,-116.5 58.5,-228.5 164.5,-228.5 164.5,-116.5 58.5,-116.5"/>
<text text-anchor="middle" x="111.5" y="-216.5" font-family="Helvetica,sans-Serif" font-size="10.00">PlayerController</text>
<polyline fill="none" stroke="black" points="58.5,-209.5 164.5,-209.5 "/>
<text text-anchor="start" x="66.5" y="-197.5" font-family="Helvetica,sans-Serif" font-size="10.00">+ rigidbodyToControl</text>
<text text-anchor="start" x="66.5" y="-186.5" font-family="Helvetica,sans-Serif" font-size="10.00">&#45; movement</text>
<polyline fill="none" stroke="black" points="58.5,-179.5 164.5,-179.5 "/>
<text text-anchor="start" x="66.5" y="-167.5" font-family="Helvetica,sans-Serif" font-size="10.00">&#45; Awake()</text>
<text text-anchor="start" x="66.5" y="-156.5" font-family="Helvetica,sans-Serif" font-size="10.00">&#45; Update()</text>
<text text-anchor="start" x="66.5" y="-145.5" font-family="Helvetica,sans-Serif" font-size="10.00">&#45; FixedUpdate()</text>
<text text-anchor="start" x="66.5" y="-134.5" font-family="Helvetica,sans-Serif" font-size="10.00">&#45; ReadMovement()</text>
<text text-anchor="start" x="66.5" y="-123.5" font-family="Helvetica,sans-Serif" font-size="10.00">&#45; ReadAttack()</text>
</a>
</g>
</g>
<!-- Node3&#45;&gt;Node4 -->
<g id="edge3" class="edge"><title>Node3&#45;&gt;Node4</title>
<path fill="none" stroke="midnightblue" d="M80.9519,-876.245C80.7712,-873.457 80.6165,-870.685 80.5,-868 69.0885,-605.04 71.209,-537.989 96.5,-276 97.9862,-260.605 100.167,-243.986 102.407,-228.702"/>
<polygon fill="none" stroke="midnightblue" points="77.4673,-876.582 81.6994,-886.295 84.448,-876.063 77.4673,-876.582"/>
</g>
<!-- Node5 -->
<g id="node4" class="node"><title>Node5</title>
<g id="a_node4"><a xlink:href="class_unit.html" target="_top" xlink:title="{Unit\n|+ controlActiveDebugOverride\l+ curMeleeAtkRangeSq\l+ curSpeed\l&#45; curMeleeAtkRange\l&#45; curMeleeAtkDelay\l&#45; curConewidth\l&#45; curMeleeAtkCooldown\l&#45; curAttackSpeed\l&#45; curAttackDamage\l&#45; pv\l&#45; attackAvailable\l|+ TryMeleeAttack()\l+ IsControlActive()\l&#45; Awake()\l&#45; EvalMeleeAttack()\l&#45; AnimateMeleeAttack()\l&#45; HitMeleeAttack()\l}">
<polygon fill="white" stroke="black" points="105.5,-276.5 105.5,-498.5 249.5,-498.5 249.5,-276.5 105.5,-276.5"/>
<text text-anchor="middle" x="177.5" y="-486.5" font-family="Helvetica,sans-Serif" font-size="10.00">Unit</text>
<polyline fill="none" stroke="black" points="105.5,-479.5 249.5,-479.5 "/>
<text text-anchor="start" x="113.5" y="-467.5" font-family="Helvetica,sans-Serif" font-size="10.00">+ controlActiveDebugOverride</text>
<text text-anchor="start" x="113.5" y="-456.5" font-family="Helvetica,sans-Serif" font-size="10.00">+ curMeleeAtkRangeSq</text>
<text text-anchor="start" x="113.5" y="-445.5" font-family="Helvetica,sans-Serif" font-size="10.00">+ curSpeed</text>
<text text-anchor="start" x="113.5" y="-434.5" font-family="Helvetica,sans-Serif" font-size="10.00">&#45; curMeleeAtkRange</text>
<text text-anchor="start" x="113.5" y="-423.5" font-family="Helvetica,sans-Serif" font-size="10.00">&#45; curMeleeAtkDelay</text>
<text text-anchor="start" x="113.5" y="-412.5" font-family="Helvetica,sans-Serif" font-size="10.00">&#45; curConewidth</text>
<text text-anchor="start" x="113.5" y="-401.5" font-family="Helvetica,sans-Serif" font-size="10.00">&#45; curMeleeAtkCooldown</text>
<text text-anchor="start" x="113.5" y="-390.5" font-family="Helvetica,sans-Serif" font-size="10.00">&#45; curAttackSpeed</text>
<text text-anchor="start" x="113.5" y="-379.5" font-family="Helvetica,sans-Serif" font-size="10.00">&#45; curAttackDamage</text>
<text text-anchor="start" x="113.5" y="-368.5" font-family="Helvetica,sans-Serif" font-size="10.00">&#45; pv</text>
<text text-anchor="start" x="113.5" y="-357.5" font-family="Helvetica,sans-Serif" font-size="10.00">&#45; attackAvailable</text>
<polyline fill="none" stroke="black" points="105.5,-350.5 249.5,-350.5 "/>
<text text-anchor="start" x="113.5" y="-338.5" font-family="Helvetica,sans-Serif" font-size="10.00">+ TryMeleeAttack()</text>
<text text-anchor="start" x="113.5" y="-327.5" font-family="Helvetica,sans-Serif" font-size="10.00">+ IsControlActive()</text>
<text text-anchor="start" x="113.5" y="-316.5" font-family="Helvetica,sans-Serif" font-size="10.00">&#45; Awake()</text>
<text text-anchor="start" x="113.5" y="-305.5" font-family="Helvetica,sans-Serif" font-size="10.00">&#45; EvalMeleeAttack()</text>
<text text-anchor="start" x="113.5" y="-294.5" font-family="Helvetica,sans-Serif" font-size="10.00">&#45; AnimateMeleeAttack()</text>
<text text-anchor="start" x="113.5" y="-283.5" font-family="Helvetica,sans-Serif" font-size="10.00">&#45; HitMeleeAttack()</text>
</a>
</g>
</g>
<!-- Node3&#45;&gt;Node5 -->
<g id="edge5" class="edge"><title>Node3&#45;&gt;Node5</title>
<path fill="none" stroke="midnightblue" d="M83.8686,-876.063C83.5993,-818.914 85.7332,-707.571 103.5,-615 110.907,-576.404 123.008,-535.263 135.298,-498.779"/>
<polygon fill="none" stroke="midnightblue" points="80.3687,-876.114 83.9436,-886.087 87.3685,-876.061 80.3687,-876.114"/>
</g>
<!-- Node6 -->
<g id="node5" class="node"><title>Node6</title>
<g id="a_node5"><a xlink:href="class_unit_sprite_animator.html" target="_top" xlink:title="Triggers the Sprite Animator depending on actual current movement. ">
<polygon fill="white" stroke="black" points="113,-670.5 113,-793.5 242,-793.5 242,-670.5 113,-670.5"/>
<text text-anchor="middle" x="177.5" y="-781.5" font-family="Helvetica,sans-Serif" font-size="10.00">UnitSpriteAnimator</text>
<polyline fill="none" stroke="black" points="113,-774.5 242,-774.5 "/>
<text text-anchor="start" x="121" y="-762.5" font-family="Helvetica,sans-Serif" font-size="10.00">&#45; v</text>
<text text-anchor="start" x="121" y="-751.5" font-family="Helvetica,sans-Serif" font-size="10.00">&#45; rb</text>
<text text-anchor="start" x="121" y="-740.5" font-family="Helvetica,sans-Serif" font-size="10.00">&#45; anim</text>
<text text-anchor="start" x="121" y="-729.5" font-family="Helvetica,sans-Serif" font-size="10.00">&#45; rbLastPos</text>
<polyline fill="none" stroke="black" points="113,-722.5 242,-722.5 "/>
<text text-anchor="start" x="121" y="-710.5" font-family="Helvetica,sans-Serif" font-size="10.00">+ AnimateAttack()</text>
<text text-anchor="start" x="121" y="-699.5" font-family="Helvetica,sans-Serif" font-size="10.00">&#45; Awake()</text>
<text text-anchor="start" x="121" y="-688.5" font-family="Helvetica,sans-Serif" font-size="10.00">&#45; FixedUpdate()</text>
<text text-anchor="start" x="121" y="-677.5" font-family="Helvetica,sans-Serif" font-size="10.00">&#45; UpdateTrackedVelocity()</text>
</a>
</g>
</g>
<!-- Node3&#45;&gt;Node6 -->
<g id="edge7" class="edge"><title>Node3&#45;&gt;Node6</title>
<path fill="none" stroke="midnightblue" d="M103.511,-876.999C115.844,-852.997 132.201,-821.162 146.399,-793.53"/>
<polygon fill="none" stroke="midnightblue" points="100.285,-875.621 98.8274,-886.115 106.511,-878.82 100.285,-875.621"/>
</g>
<!-- Node7 -->
<g id="node6" class="node"><title>Node7</title>
<g id="a_node6"><a xlink:href="classmechanics_1_1_destructible.html" target="_top" xlink:title="Destructibles have hit points and are affected by damage sources. ">
<polygon fill="white" stroke="black" points="260.5,-615.5 260.5,-848.5 394.5,-848.5 394.5,-615.5 260.5,-615.5"/>
<text text-anchor="middle" x="327.5" y="-836.5" font-family="Helvetica,sans-Serif" font-size="10.00">Destructible</text>
<polyline fill="none" stroke="black" points="260.5,-829.5 394.5,-829.5 "/>
<text text-anchor="start" x="268.5" y="-817.5" font-family="Helvetica,sans-Serif" font-size="10.00">+ isNeutral</text>
<text text-anchor="start" x="268.5" y="-806.5" font-family="Helvetica,sans-Serif" font-size="10.00">+ brokenObjectPrefab</text>
<text text-anchor="start" x="268.5" y="-795.5" font-family="Helvetica,sans-Serif" font-size="10.00">+ destroyedAfter</text>
<text text-anchor="start" x="268.5" y="-784.5" font-family="Helvetica,sans-Serif" font-size="10.00">+ hitpoints</text>
<text text-anchor="start" x="268.5" y="-773.5" font-family="Helvetica,sans-Serif" font-size="10.00">+ sync</text>
<text text-anchor="start" x="268.5" y="-762.5" font-family="Helvetica,sans-Serif" font-size="10.00">+ destroyedEvent</text>
<text text-anchor="start" x="268.5" y="-751.5" font-family="Helvetica,sans-Serif" font-size="10.00">+ dmgReceivedEvent</text>
<text text-anchor="start" x="268.5" y="-740.5" font-family="Helvetica,sans-Serif" font-size="10.00">&#45; potentialPhotonView</text>
<polyline fill="none" stroke="black" points="260.5,-733.5 394.5,-733.5 "/>
<text text-anchor="start" x="268.5" y="-721.5" font-family="Helvetica,sans-Serif" font-size="10.00">+ Hit()</text>
<text text-anchor="start" x="268.5" y="-710.5" font-family="Helvetica,sans-Serif" font-size="10.00">+ IsAlive()</text>
<text text-anchor="start" x="268.5" y="-699.5" font-family="Helvetica,sans-Serif" font-size="10.00">+ IsEnemy()</text>
<text text-anchor="start" x="268.5" y="-688.5" font-family="Helvetica,sans-Serif" font-size="10.00">+ IsMine()</text>
<text text-anchor="start" x="268.5" y="-677.5" font-family="Helvetica,sans-Serif" font-size="10.00">+ OnPhotonSerializeView()</text>
<text text-anchor="start" x="268.5" y="-666.5" font-family="Helvetica,sans-Serif" font-size="10.00">+ Kill()</text>
<text text-anchor="start" x="268.5" y="-655.5" font-family="Helvetica,sans-Serif" font-size="10.00">&#45; Awake()</text>
<text text-anchor="start" x="268.5" y="-644.5" font-family="Helvetica,sans-Serif" font-size="10.00">&#45; Break()</text>
<text text-anchor="start" x="268.5" y="-633.5" font-family="Helvetica,sans-Serif" font-size="10.00">&#45; Throw()</text>
<text text-anchor="start" x="268.5" y="-622.5" font-family="Helvetica,sans-Serif" font-size="10.00">&#45; SelfDestruct()</text>
</a>
</g>
</g>
<!-- Node3&#45;&gt;Node7 -->
<g id="edge9" class="edge"><title>Node3&#45;&gt;Node7</title>
<path fill="none" stroke="midnightblue" d="M136.346,-902.471C171.394,-892.699 217.179,-875.89 250.5,-849 253.886,-846.268 257.176,-843.346 260.368,-840.275"/>
<polygon fill="none" stroke="midnightblue" points="135.057,-899.193 126.304,-905.161 136.869,-905.954 135.057,-899.193"/>
</g>
<!-- Node4&#45;&gt;Node2 -->
<g id="edge2" class="edge"><title>Node4&#45;&gt;Node2</title>
<path fill="none" stroke="#404040" d="M85.4688,-116.184C79.7586,-104.05 73.7856,-91.3569 68.3121,-79.7258"/>
<polygon fill="none" stroke="#404040" points="68.1431,-79.3664 61.969,-75.6407 63.0335,-68.5086 69.2075,-72.2343 68.1431,-79.3664"/>
<text text-anchor="middle" x="93" y="-90" font-family="Helvetica,sans-Serif" font-size="10.00"> &#45;player</text>
</g>
<!-- Node5&#45;&gt;Node4 -->
<g id="edge4" class="edge"><title>Node5&#45;&gt;Node4</title>
<path fill="none" stroke="#404040" d="M143.34,-276.257C139.535,-263.976 135.75,-251.762 132.189,-240.269"/>
<polygon fill="none" stroke="#404040" points="132.119,-240.042 126.522,-235.495 128.567,-228.58 134.164,-233.127 132.119,-240.042"/>
<text text-anchor="middle" x="148.5" y="-250" font-family="Helvetica,sans-Serif" font-size="10.00"> &#45;unit</text>
</g>
<!-- Node6&#45;&gt;Node5 -->
<g id="edge6" class="edge"><title>Node6&#45;&gt;Node5</title>
<path fill="none" stroke="#404040" d="M177.5,-670.163C177.5,-626.021 177.5,-564.817 177.5,-510.735"/>
<polygon fill="none" stroke="#404040" points="177.5,-510.597 173.5,-504.597 177.5,-498.597 181.5,-504.597 177.5,-510.597"/>
<text text-anchor="middle" x="200" y="-554.5" font-family="Helvetica,sans-Serif" font-size="10.00"> &#45;unitAnim</text>
</g>
<!-- Node7&#45;&gt;Node5 -->
<g id="edge8" class="edge"><title>Node7&#45;&gt;Node5</title>
<path fill="none" stroke="#404040" d="M276.717,-615.045C261.839,-581.073 245.536,-543.848 230.522,-509.567"/>
<polygon fill="none" stroke="#404040" points="230.51,-509.54 224.439,-505.649 225.696,-498.548 231.767,-502.439 230.51,-509.54"/>
<text text-anchor="middle" x="295" y="-554.5" font-family="Helvetica,sans-Serif" font-size="10.00"> &#45;destructible</text>
</g>
<!-- Node8 -->
<g id="node7" class="node"><title>Node8</title>
<polygon fill="white" stroke="#bfbfbf" points="285.5,-886.5 285.5,-943.5 369.5,-943.5 369.5,-886.5 285.5,-886.5"/>
<text text-anchor="middle" x="327.5" y="-931.5" font-family="Helvetica,sans-Serif" font-size="10.00">IPunObservable</text>
<polyline fill="none" stroke="#bfbfbf" points="285.5,-924.5 369.5,-924.5 "/>
<text text-anchor="middle" x="327.5" y="-912.5" font-family="Helvetica,sans-Serif" font-size="10.00"> </text>
<polyline fill="none" stroke="#bfbfbf" points="285.5,-905.5 369.5,-905.5 "/>
<text text-anchor="middle" x="327.5" y="-893.5" font-family="Helvetica,sans-Serif" font-size="10.00"> </text>
</g>
<!-- Node8&#45;&gt;Node7 -->
<g id="edge10" class="edge"><title>Node8&#45;&gt;Node7</title>
<path fill="none" stroke="midnightblue" d="M327.5,-876.008C327.5,-867.609 327.5,-858.288 327.5,-848.547"/>
<polygon fill="none" stroke="midnightblue" points="324,-876.115 327.5,-886.115 331,-876.115 324,-876.115"/>
</g>
<!-- Node9 -->
<g id="node8" class="node"><title>Node9</title>
<g id="a_node8"><a xlink:href="class_unit_info.html" target="_top" xlink:title="{UnitInfo\n|+ buildtime\l+ prefab\l+ attackRange\l+ attackDamage\l+ hitpoints\l+ attackCooldown\l+ moveSpeed\l+ attackSpeed\l+ speedPenaltyOnAttack\l+ carryStrength\l|}">
<polygon fill="white" stroke="black" points="412.5,-654 412.5,-810 538.5,-810 538.5,-654 412.5,-654"/>
<text text-anchor="middle" x="475.5" y="-798" font-family="Helvetica,sans-Serif" font-size="10.00">UnitInfo</text>
<polyline fill="none" stroke="black" points="412.5,-791 538.5,-791 "/>
<text text-anchor="start" x="420.5" y="-779" font-family="Helvetica,sans-Serif" font-size="10.00">+ buildtime</text>
<text text-anchor="start" x="420.5" y="-768" font-family="Helvetica,sans-Serif" font-size="10.00">+ prefab</text>
<text text-anchor="start" x="420.5" y="-757" font-family="Helvetica,sans-Serif" font-size="10.00">+ attackRange</text>
<text text-anchor="start" x="420.5" y="-746" font-family="Helvetica,sans-Serif" font-size="10.00">+ attackDamage</text>
<text text-anchor="start" x="420.5" y="-735" font-family="Helvetica,sans-Serif" font-size="10.00">+ hitpoints</text>
<text text-anchor="start" x="420.5" y="-724" font-family="Helvetica,sans-Serif" font-size="10.00">+ attackCooldown</text>
<text text-anchor="start" x="420.5" y="-713" font-family="Helvetica,sans-Serif" font-size="10.00">+ moveSpeed</text>
<text text-anchor="start" x="420.5" y="-702" font-family="Helvetica,sans-Serif" font-size="10.00">+ attackSpeed</text>
<text text-anchor="start" x="420.5" y="-691" font-family="Helvetica,sans-Serif" font-size="10.00">+ speedPenaltyOnAttack</text>
<text text-anchor="start" x="420.5" y="-680" font-family="Helvetica,sans-Serif" font-size="10.00">+ carryStrength</text>
<polyline fill="none" stroke="black" points="412.5,-673 538.5,-673 "/>
<text text-anchor="middle" x="475.5" y="-661" font-family="Helvetica,sans-Serif" font-size="10.00"> </text>
</a>
</g>
</g>
<!-- Node9&#45;&gt;Node5 -->
<g id="edge11" class="edge"><title>Node9&#45;&gt;Node5</title>
<path fill="none" stroke="#404040" d="M429.167,-653.833C420.852,-640.722 412.092,-627.358 403.5,-615 372.035,-569.746 365.514,-556.912 327.5,-517 306.506,-494.958 282.036,-472.751 259.025,-453.145"/>
<polygon fill="none" stroke="#404040" points="258.779,-452.937 251.614,-452.123 249.609,-445.196 256.774,-446.01 258.779,-452.937"/>
<text text-anchor="middle" x="402" y="-554.5" font-family="Helvetica,sans-Serif" font-size="10.00"> +info</text>
</g>
<!-- Node10 -->
<g id="node9" class="node"><title>Node10</title>
<polygon fill="white" stroke="#bfbfbf" points="499,-886.5 499,-943.5 588,-943.5 588,-886.5 499,-886.5"/>
<text text-anchor="middle" x="543.5" y="-931.5" font-family="Helvetica,sans-Serif" font-size="10.00">ScriptableObject</text>
<polyline fill="none" stroke="#bfbfbf" points="499,-924.5 588,-924.5 "/>
<text text-anchor="middle" x="543.5" y="-912.5" font-family="Helvetica,sans-Serif" font-size="10.00"> </text>
<polyline fill="none" stroke="#bfbfbf" points="499,-905.5 588,-905.5 "/>
<text text-anchor="middle" x="543.5" y="-893.5" font-family="Helvetica,sans-Serif" font-size="10.00"> </text>
</g>
<!-- Node10&#45;&gt;Node9 -->
<g id="edge12" class="edge"><title>Node10&#45;&gt;Node9</title>
<path fill="none" stroke="midnightblue" d="M529.43,-876.549C522.211,-857.333 513.139,-833.185 504.506,-810.206"/>
<polygon fill="none" stroke="midnightblue" points="526.231,-877.985 533.024,-886.115 532.783,-875.523 526.231,-877.985"/>
</g>
<!-- Node11 -->
<g id="node10" class="node"><title>Node11</title>
<g id="a_node10"><a xlink:href="class_player.html" target="_top" xlink:title="{Player\n|+ nickName\l+ curPlayerReference\l+ homeBase\l|}">
<polygon fill="white" stroke="black" points="480.5,-517.5 480.5,-596.5 590.5,-596.5 590.5,-517.5 480.5,-517.5"/>
<text text-anchor="middle" x="535.5" y="-584.5" font-family="Helvetica,sans-Serif" font-size="10.00">Player</text>
<polyline fill="none" stroke="black" points="480.5,-577.5 590.5,-577.5 "/>
<text text-anchor="start" x="488.5" y="-565.5" font-family="Helvetica,sans-Serif" font-size="10.00">+ nickName</text>
<text text-anchor="start" x="488.5" y="-554.5" font-family="Helvetica,sans-Serif" font-size="10.00">+ curPlayerReference</text>
<text text-anchor="start" x="488.5" y="-543.5" font-family="Helvetica,sans-Serif" font-size="10.00">+ homeBase</text>
<polyline fill="none" stroke="black" points="480.5,-536.5 590.5,-536.5 "/>
<text text-anchor="middle" x="535.5" y="-524.5" font-family="Helvetica,sans-Serif" font-size="10.00"> </text>
</a>
</g>
</g>
<!-- Node10&#45;&gt;Node11 -->
<g id="edge14" class="edge"><title>Node10&#45;&gt;Node11</title>
<path fill="none" stroke="midnightblue" d="M546.227,-876.081C546.756,-867.201 547.23,-857.772 547.5,-849 550.695,-745.049 558.27,-718.441 547.5,-615 546.882,-609.066 545.912,-602.839 544.784,-596.77"/>
<polygon fill="none" stroke="midnightblue" points="542.726,-875.982 545.589,-886.182 549.712,-876.423 542.726,-875.982"/>
</g>
<!-- Node11&#45;&gt;Node4 -->
<g id="edge13" class="edge"><title>Node11&#45;&gt;Node4</title>
<path fill="none" stroke="#404040" d="M501.229,-517.112C450.799,-460.909 352.39,-355.057 258.5,-276 232.226,-253.877 201.276,-231.773 174.569,-213.786"/>
<polygon fill="none" stroke="#404040" points="174.539,-213.766 167.328,-213.761 164.559,-207.102 171.771,-207.108 174.539,-213.766"/>
<text text-anchor="middle" x="501.5" y="-385" font-family="Helvetica,sans-Serif" font-size="10.00"> +player</text>
</g>
</g>
</svg>
