<?xml version="1.0" encoding="UTF-8" standalone="no"?>
<!DOCTYPE svg PUBLIC "-//W3C//DTD SVG 1.1//EN"
 "http://www.w3.org/Graphics/SVG/1.1/DTD/svg11.dtd">
<!-- Generated by graphviz version 2.38.0 (20140413.2041)
 -->
<!-- Title: Readme Pages: 1 -->
<svg width="204pt" height="226pt"
 viewBox="0.00 0.00 204.00 226.00" xmlns="http://www.w3.org/2000/svg" xmlns:xlink="http://www.w3.org/1999/xlink">
<g id="graph0" class="graph" transform="scale(1 1) rotate(0) translate(4 222)">
<title>Readme</title>
<polygon fill="white" stroke="none" points="-4,4 -4,-222 200,-222 200,4 -4,4"/>
<!-- Node2 -->
<g id="node1" class="node"><title>Node2</title>
<g id="a_node1"><a xlink:title=" ">
<polygon fill="#bfbfbf" stroke="black" points="56,-0.5 56,-79.5 139,-79.5 139,-0.5 56,-0.5"/>
<text text-anchor="middle" x="97.5" y="-67.5" font-family="Helvetica,sans-Serif" font-size="10.00">Readme</text>
<polyline fill="none" stroke="black" points="56,-60.5 139,-60.5 "/>
<text text-anchor="start" x="64" y="-48.5" font-family="Helvetica,sans-Serif" font-size="10.00">+ icon</text>
<text text-anchor="start" x="64" y="-37.5" font-family="Helvetica,sans-Serif" font-size="10.00">+ title</text>
<text text-anchor="start" x="64" y="-26.5" font-family="Helvetica,sans-Serif" font-size="10.00">+ loadedLayout</text>
<polyline fill="none" stroke="black" points="56,-19.5 139,-19.5 "/>
<text text-anchor="middle" x="97.5" y="-7.5" font-family="Helvetica,sans-Serif" font-size="10.00"> </text>
</a>
</g>
</g>
<!-- Node3 -->
<g id="node2" class="node"><title>Node3</title>
<g id="a_node2"><a xlink:title=" ">
<polygon fill="white" stroke="#bfbfbf" points="0,-144 0,-201 89,-201 89,-144 0,-144"/>
<text text-anchor="middle" x="44.5" y="-189" font-family="Helvetica,sans-Serif" font-size="10.00">ScriptableObject</text>
<polyline fill="none" stroke="#bfbfbf" points="0,-182 89,-182 "/>
<text text-anchor="middle" x="44.5" y="-170" font-family="Helvetica,sans-Serif" font-size="10.00"> </text>
<polyline fill="none" stroke="#bfbfbf" points="0,-163 89,-163 "/>
<text text-anchor="middle" x="44.5" y="-151" font-family="Helvetica,sans-Serif" font-size="10.00"> </text>
</a>
</g>
</g>
<!-- Node3&#45;&gt;Node2 -->
<g id="edge1" class="edge"><title>Node3&#45;&gt;Node2</title>
<path fill="none" stroke="midnightblue" d="M59.6648,-134.16C66.6147,-117.048 74.8462,-96.7797 81.8536,-79.5255"/>
<polygon fill="none" stroke="midnightblue" points="56.26,-133.242 55.7399,-143.824 62.7456,-135.876 56.26,-133.242"/>
</g>
<!-- Node4 -->
<g id="node3" class="node"><title>Node4</title>
<g id="a_node3"><a xlink:href="class_readme_1_1_section.html" target="_top" xlink:title=" ">
<polygon fill="white" stroke="black" points="107,-127.5 107,-217.5 196,-217.5 196,-127.5 107,-127.5"/>
<text text-anchor="middle" x="151.5" y="-205.5" font-family="Helvetica,sans-Serif" font-size="10.00">Readme.Section</text>
<polyline fill="none" stroke="black" points="107,-198.5 196,-198.5 "/>
<text text-anchor="start" x="115" y="-186.5" font-family="Helvetica,sans-Serif" font-size="10.00">+ heading</text>
<text text-anchor="start" x="115" y="-175.5" font-family="Helvetica,sans-Serif" font-size="10.00">&#45; text</text>
<text text-anchor="start" x="115" y="-164.5" font-family="Helvetica,sans-Serif" font-size="10.00">&#45; linkText</text>
<text text-anchor="start" x="115" y="-153.5" font-family="Helvetica,sans-Serif" font-size="10.00">&#45; url</text>
<polyline fill="none" stroke="black" points="107,-146.5 196,-146.5 "/>
<text text-anchor="middle" x="151.5" y="-134.5" font-family="Helvetica,sans-Serif" font-size="10.00"> </text>
</a>
</g>
</g>
<!-- Node4&#45;&gt;Node2 -->
<g id="edge2" class="edge"><title>Node4&#45;&gt;Node2</title>
<path fill="none" stroke="#404040" d="M133.218,-127.319C128.395,-115.663 123.157,-103.003 118.215,-91.0618"/>
<polygon fill="none" stroke="#404040" points="118.18,-90.9774 112.19,-86.9628 113.592,-79.8892 119.582,-83.9039 118.18,-90.9774"/>
<text text-anchor="middle" x="147.5" y="-101" font-family="Helvetica,sans-Serif" font-size="10.00"> +sections</text>
</g>
</g>
</svg>
