<?xml version="1.0" encoding="UTF-8" standalone="no"?>
<!DOCTYPE svg PUBLIC "-//W3C//DTD SVG 1.1//EN"
 "http://www.w3.org/Graphics/SVG/1.1/DTD/svg11.dtd">
<!-- Generated by graphviz version 2.38.0 (20140413.2041)
 -->
<!-- Title: MatchInitState Pages: 1 -->
<svg width="148pt" height="452pt"
 viewBox="0.00 0.00 148.00 452.00" xmlns="http://www.w3.org/2000/svg" xmlns:xlink="http://www.w3.org/1999/xlink">
<g id="graph0" class="graph" transform="scale(1 1) rotate(0) translate(4 448)">
<title>MatchInitState</title>
<polygon fill="white" stroke="none" points="-4,4 -4,-448 144,-448 144,4 -4,4"/>
<!-- Node0 -->
<g id="node1" class="node"><title>Node0</title>
<polygon fill="#bfbfbf" stroke="black" points="3,-0.5 3,-112.5 137,-112.5 137,-0.5 3,-0.5"/>
<text text-anchor="middle" x="70" y="-100.5" font-family="Helvetica,sans-Serif" font-size="10.00">MatchInitState</text>
<polyline fill="none" stroke="black" points="3,-93.5 137,-93.5 "/>
<text text-anchor="start" x="11" y="-81.5" font-family="Helvetica,sans-Serif" font-size="10.00">+ initCountdown</text>
<text text-anchor="start" x="11" y="-70.5" font-family="Helvetica,sans-Serif" font-size="10.00">+ playerPrefab</text>
<text text-anchor="start" x="11" y="-59.5" font-family="Helvetica,sans-Serif" font-size="10.00">+ homeBasePrefab</text>
<polyline fill="none" stroke="black" points="3,-52.5 137,-52.5 "/>
<text text-anchor="start" x="11" y="-40.5" font-family="Helvetica,sans-Serif" font-size="10.00"># OnMyStateEnter()</text>
<text text-anchor="start" x="11" y="-29.5" font-family="Helvetica,sans-Serif" font-size="10.00"># OnMyStateExit()</text>
<text text-anchor="start" x="11" y="-18.5" font-family="Helvetica,sans-Serif" font-size="10.00">&#45; OnAllFinishedLoading()</text>
<text text-anchor="start" x="11" y="-7.5" font-family="Helvetica,sans-Serif" font-size="10.00">&#45; OnSpawnIndexAssigned()</text>
</g>
<!-- Node1 -->
<g id="node2" class="node"><title>Node1</title>
<g id="a_node2"><a xlink:href="class_state.html" target="_top" xlink:title="Non&#45;template variant of the BaseState, expecting to be owned by a standard StateMachine. ">
<polygon fill="white" stroke="black" points="50,-149.5 50,-206.5 90,-206.5 90,-149.5 50,-149.5"/>
<text text-anchor="middle" x="70" y="-194.5" font-family="Helvetica,sans-Serif" font-size="10.00">State</text>
<polyline fill="none" stroke="black" points="50,-187.5 90,-187.5 "/>
<text text-anchor="middle" x="70" y="-175.5" font-family="Helvetica,sans-Serif" font-size="10.00"> </text>
<polyline fill="none" stroke="black" points="50,-168.5 90,-168.5 "/>
<text text-anchor="middle" x="70" y="-156.5" font-family="Helvetica,sans-Serif" font-size="10.00"> </text>
</a>
</g>
</g>
<!-- Node1&#45;&gt;Node0 -->
<g id="edge1" class="edge"><title>Node1&#45;&gt;Node0</title>
<path fill="none" stroke="midnightblue" d="M70,-139.108C70,-130.748 70,-121.725 70,-112.834"/>
<polygon fill="none" stroke="midnightblue" points="66.5001,-139.284 70,-149.284 73.5001,-139.284 66.5001,-139.284"/>
</g>
<!-- Node2 -->
<g id="node3" class="node"><title>Node2</title>
<g id="a_node3"><a xlink:href="class_base_state.html" target="_top" xlink:title="{BaseState\&lt; StateMachine \&gt;\n|+ name\l+ triggers\l# sm\l&#45; listeners\l|+ IsActiveState()\l+ GetName()\l+ GetTriggers()\l+ Init()\l+ OnStateEnter()\l+ OnStateExit()\l# AddAutoListener()\l# TriggerTransition()\l# OnMyStateEnter()\l# OnMyStateExit()\l# OnMyStateInit()\l}">
<polygon fill="white" stroke="black" points="0,-243.5 0,-443.5 140,-443.5 140,-243.5 0,-243.5"/>
<text text-anchor="middle" x="70" y="-431.5" font-family="Helvetica,sans-Serif" font-size="10.00">BaseState&lt; StateMachine &gt;</text>
<polyline fill="none" stroke="black" points="0,-424.5 140,-424.5 "/>
<text text-anchor="start" x="8" y="-412.5" font-family="Helvetica,sans-Serif" font-size="10.00">+ name</text>
<text text-anchor="start" x="8" y="-401.5" font-family="Helvetica,sans-Serif" font-size="10.00">+ triggers</text>
<text text-anchor="start" x="8" y="-390.5" font-family="Helvetica,sans-Serif" font-size="10.00"># sm</text>
<text text-anchor="start" x="8" y="-379.5" font-family="Helvetica,sans-Serif" font-size="10.00">&#45; listeners</text>
<polyline fill="none" stroke="black" points="0,-372.5 140,-372.5 "/>
<text text-anchor="start" x="8" y="-360.5" font-family="Helvetica,sans-Serif" font-size="10.00">+ IsActiveState()</text>
<text text-anchor="start" x="8" y="-349.5" font-family="Helvetica,sans-Serif" font-size="10.00">+ GetName()</text>
<text text-anchor="start" x="8" y="-338.5" font-family="Helvetica,sans-Serif" font-size="10.00">+ GetTriggers()</text>
<text text-anchor="start" x="8" y="-327.5" font-family="Helvetica,sans-Serif" font-size="10.00">+ Init()</text>
<text text-anchor="start" x="8" y="-316.5" font-family="Helvetica,sans-Serif" font-size="10.00">+ OnStateEnter()</text>
<text text-anchor="start" x="8" y="-305.5" font-family="Helvetica,sans-Serif" font-size="10.00">+ OnStateExit()</text>
<text text-anchor="start" x="8" y="-294.5" font-family="Helvetica,sans-Serif" font-size="10.00"># AddAutoListener()</text>
<text text-anchor="start" x="8" y="-283.5" font-family="Helvetica,sans-Serif" font-size="10.00"># TriggerTransition()</text>
<text text-anchor="start" x="8" y="-272.5" font-family="Helvetica,sans-Serif" font-size="10.00"># OnMyStateEnter()</text>
<text text-anchor="start" x="8" y="-261.5" font-family="Helvetica,sans-Serif" font-size="10.00"># OnMyStateExit()</text>
<text text-anchor="start" x="8" y="-250.5" font-family="Helvetica,sans-Serif" font-size="10.00"># OnMyStateInit()</text>
</a>
</g>
</g>
<!-- Node2&#45;&gt;Node1 -->
<g id="edge2" class="edge"><title>Node2&#45;&gt;Node1</title>
<path fill="none" stroke="midnightblue" d="M70,-232.964C70,-223.366 70,-214.348 70,-206.533"/>
<polygon fill="none" stroke="midnightblue" points="66.5001,-233.15 70,-243.15 73.5001,-233.15 66.5001,-233.15"/>
</g>
</g>
</svg>
