<?xml version="1.0" encoding="UTF-8" standalone="no"?>
<!DOCTYPE svg PUBLIC "-//W3C//DTD SVG 1.1//EN"
 "http://www.w3.org/Graphics/SVG/1.1/DTD/svg11.dtd">
<!-- Generated by graphviz version 2.38.0 (20140413.2041)
 -->
<!-- Title: Destructible Pages: 1 -->
<svg width="194pt" height="336pt"
 viewBox="0.00 0.00 193.50 336.00" xmlns="http://www.w3.org/2000/svg" xmlns:xlink="http://www.w3.org/1999/xlink">
<g id="graph0" class="graph" transform="scale(1 1) rotate(0) translate(4 332)">
<title>Destructible</title>
<polygon fill="white" stroke="none" points="-4,4 -4,-332 189.5,-332 189.5,4 -4,4"/>
<!-- Node0 -->
<g id="node1" class="node"><title>Node0</title>
<polygon fill="#bfbfbf" stroke="black" points="25.5,-0.5 25.5,-233.5 159.5,-233.5 159.5,-0.5 25.5,-0.5"/>
<text text-anchor="middle" x="92.5" y="-221.5" font-family="Helvetica,sans-Serif" font-size="10.00">Destructible</text>
<polyline fill="none" stroke="black" points="25.5,-214.5 159.5,-214.5 "/>
<text text-anchor="start" x="33.5" y="-202.5" font-family="Helvetica,sans-Serif" font-size="10.00">+ isNeutral</text>
<text text-anchor="start" x="33.5" y="-191.5" font-family="Helvetica,sans-Serif" font-size="10.00">+ brokenObjectPrefab</text>
<text text-anchor="start" x="33.5" y="-180.5" font-family="Helvetica,sans-Serif" font-size="10.00">+ destroyedAfter</text>
<text text-anchor="start" x="33.5" y="-169.5" font-family="Helvetica,sans-Serif" font-size="10.00">+ hitpoints</text>
<text text-anchor="start" x="33.5" y="-158.5" font-family="Helvetica,sans-Serif" font-size="10.00">+ sync</text>
<text text-anchor="start" x="33.5" y="-147.5" font-family="Helvetica,sans-Serif" font-size="10.00">+ destroyedEvent</text>
<text text-anchor="start" x="33.5" y="-136.5" font-family="Helvetica,sans-Serif" font-size="10.00">+ dmgReceivedEvent</text>
<text text-anchor="start" x="33.5" y="-125.5" font-family="Helvetica,sans-Serif" font-size="10.00">&#45; potentialPhotonView</text>
<polyline fill="none" stroke="black" points="25.5,-118.5 159.5,-118.5 "/>
<text text-anchor="start" x="33.5" y="-106.5" font-family="Helvetica,sans-Serif" font-size="10.00">+ Hit()</text>
<text text-anchor="start" x="33.5" y="-95.5" font-family="Helvetica,sans-Serif" font-size="10.00">+ IsAlive()</text>
<text text-anchor="start" x="33.5" y="-84.5" font-family="Helvetica,sans-Serif" font-size="10.00">+ IsEnemy()</text>
<text text-anchor="start" x="33.5" y="-73.5" font-family="Helvetica,sans-Serif" font-size="10.00">+ IsMine()</text>
<text text-anchor="start" x="33.5" y="-62.5" font-family="Helvetica,sans-Serif" font-size="10.00">+ OnPhotonSerializeView()</text>
<text text-anchor="start" x="33.5" y="-51.5" font-family="Helvetica,sans-Serif" font-size="10.00">+ Kill()</text>
<text text-anchor="start" x="33.5" y="-40.5" font-family="Helvetica,sans-Serif" font-size="10.00">&#45; Awake()</text>
<text text-anchor="start" x="33.5" y="-29.5" font-family="Helvetica,sans-Serif" font-size="10.00">&#45; Break()</text>
<text text-anchor="start" x="33.5" y="-18.5" font-family="Helvetica,sans-Serif" font-size="10.00">&#45; Throw()</text>
<text text-anchor="start" x="33.5" y="-7.5" font-family="Helvetica,sans-Serif" font-size="10.00">&#45; SelfDestruct()</text>
</g>
<!-- Node1 -->
<g id="node2" class="node"><title>Node1</title>
<polygon fill="white" stroke="#bfbfbf" points="0,-270.5 0,-327.5 83,-327.5 83,-270.5 0,-270.5"/>
<text text-anchor="middle" x="41.5" y="-315.5" font-family="Helvetica,sans-Serif" font-size="10.00">MonoBehaviour</text>
<polyline fill="none" stroke="#bfbfbf" points="0,-308.5 83,-308.5 "/>
<text text-anchor="middle" x="41.5" y="-296.5" font-family="Helvetica,sans-Serif" font-size="10.00"> </text>
<polyline fill="none" stroke="#bfbfbf" points="0,-289.5 83,-289.5 "/>
<text text-anchor="middle" x="41.5" y="-277.5" font-family="Helvetica,sans-Serif" font-size="10.00"> </text>
</g>
<!-- Node1&#45;&gt;Node0 -->
<g id="edge1" class="edge"><title>Node1&#45;&gt;Node0</title>
<path fill="none" stroke="midnightblue" d="M52.1494,-260.414C54.4681,-252.23 57.0382,-243.159 59.726,-233.673"/>
<polygon fill="none" stroke="midnightblue" points="48.7156,-259.694 49.357,-270.269 55.4505,-261.602 48.7156,-259.694"/>
</g>
<!-- Node2 -->
<g id="node3" class="node"><title>Node2</title>
<polygon fill="white" stroke="#bfbfbf" points="101.5,-270.5 101.5,-327.5 185.5,-327.5 185.5,-270.5 101.5,-270.5"/>
<text text-anchor="middle" x="143.5" y="-315.5" font-family="Helvetica,sans-Serif" font-size="10.00">IPunObservable</text>
<polyline fill="none" stroke="#bfbfbf" points="101.5,-308.5 185.5,-308.5 "/>
<text text-anchor="middle" x="143.5" y="-296.5" font-family="Helvetica,sans-Serif" font-size="10.00"> </text>
<polyline fill="none" stroke="#bfbfbf" points="101.5,-289.5 185.5,-289.5 "/>
<text text-anchor="middle" x="143.5" y="-277.5" font-family="Helvetica,sans-Serif" font-size="10.00"> </text>
</g>
<!-- Node2&#45;&gt;Node0 -->
<g id="edge2" class="edge"><title>Node2&#45;&gt;Node0</title>
<path fill="none" stroke="midnightblue" d="M132.851,-260.414C130.532,-252.23 127.962,-243.159 125.274,-233.673"/>
<polygon fill="none" stroke="midnightblue" points="129.549,-261.602 135.643,-270.269 136.284,-259.694 129.549,-261.602"/>
</g>
</g>
</svg>
