<?xml version="1.0" encoding="UTF-8" standalone="no"?>
<!DOCTYPE svg PUBLIC "-//W3C//DTD SVG 1.1//EN"
 "http://www.w3.org/Graphics/SVG/1.1/DTD/svg11.dtd">
<!-- Generated by graphviz version 2.38.0 (20140413.2041)
 -->
<!-- Title: HomebaseController Pages: 1 -->
<svg width="364pt" height="541pt"
 viewBox="0.00 0.00 363.50 541.00" xmlns="http://www.w3.org/2000/svg" xmlns:xlink="http://www.w3.org/1999/xlink">
<g id="graph0" class="graph" transform="scale(1 1) rotate(0) translate(4 537)">
<title>HomebaseController</title>
<polygon fill="white" stroke="none" points="-4,4 -4,-537 359.5,-537 359.5,4 -4,4"/>
<!-- Node2 -->
<g id="node1" class="node"><title>Node2</title>
<polygon fill="#bfbfbf" stroke="black" points="103,-0.5 103,-233.5 226,-233.5 226,-0.5 103,-0.5"/>
<text text-anchor="middle" x="164.5" y="-221.5" font-family="Helvetica,sans-Serif" font-size="10.00">HomebaseController</text>
<polyline fill="none" stroke="black" points="103,-214.5 226,-214.5 "/>
<text text-anchor="start" x="111" y="-202.5" font-family="Helvetica,sans-Serif" font-size="10.00">+ circularMenu</text>
<text text-anchor="start" x="111" y="-191.5" font-family="Helvetica,sans-Serif" font-size="10.00">+ motherCellButton</text>
<text text-anchor="start" x="111" y="-180.5" font-family="Helvetica,sans-Serif" font-size="10.00">+ particles</text>
<text text-anchor="start" x="111" y="-169.5" font-family="Helvetica,sans-Serif" font-size="10.00">+ spawn</text>
<text text-anchor="start" x="111" y="-158.5" font-family="Helvetica,sans-Serif" font-size="10.00">&#45; basiccolor</text>
<text text-anchor="start" x="111" y="-147.5" font-family="Helvetica,sans-Serif" font-size="10.00">&#45; hovercolor</text>
<text text-anchor="start" x="111" y="-136.5" font-family="Helvetica,sans-Serif" font-size="10.00">&#45; coroutine</text>
<text text-anchor="start" x="111" y="-125.5" font-family="Helvetica,sans-Serif" font-size="10.00">&#45; coroutineQueue</text>
<text text-anchor="start" x="111" y="-114.5" font-family="Helvetica,sans-Serif" font-size="10.00">&#45; unitProcessingCounter</text>
<text text-anchor="start" x="111" y="-103.5" font-family="Helvetica,sans-Serif" font-size="10.00">&#45; pv</text>
<polyline fill="none" stroke="black" points="103,-96.5 226,-96.5 "/>
<text text-anchor="start" x="111" y="-84.5" font-family="Helvetica,sans-Serif" font-size="10.00">+ motherCellOnClick()</text>
<text text-anchor="start" x="111" y="-73.5" font-family="Helvetica,sans-Serif" font-size="10.00">+ createUnitOnClick()</text>
<text text-anchor="start" x="111" y="-62.5" font-family="Helvetica,sans-Serif" font-size="10.00">&#45; Awake()</text>
<text text-anchor="start" x="111" y="-51.5" font-family="Helvetica,sans-Serif" font-size="10.00">&#45; OnTriggerEnter2D()</text>
<text text-anchor="start" x="111" y="-40.5" font-family="Helvetica,sans-Serif" font-size="10.00">&#45; OnTriggerExit2D()</text>
<text text-anchor="start" x="111" y="-29.5" font-family="Helvetica,sans-Serif" font-size="10.00">&#45; progressCircularMenu()</text>
<text text-anchor="start" x="111" y="-18.5" font-family="Helvetica,sans-Serif" font-size="10.00">&#45; createUnit()</text>
<text text-anchor="start" x="111" y="-7.5" font-family="Helvetica,sans-Serif" font-size="10.00">&#45; setCreatingInfo()</text>
</g>
<!-- Node3 -->
<g id="node2" class="node"><title>Node3</title>
<polygon fill="white" stroke="#bfbfbf" points="0,-331 0,-388 83,-388 83,-331 0,-331"/>
<text text-anchor="middle" x="41.5" y="-376" font-family="Helvetica,sans-Serif" font-size="10.00">MonoBehaviour</text>
<polyline fill="none" stroke="#bfbfbf" points="0,-369 83,-369 "/>
<text text-anchor="middle" x="41.5" y="-357" font-family="Helvetica,sans-Serif" font-size="10.00"> </text>
<polyline fill="none" stroke="#bfbfbf" points="0,-350 83,-350 "/>
<text text-anchor="middle" x="41.5" y="-338" font-family="Helvetica,sans-Serif" font-size="10.00"> </text>
</g>
<!-- Node3&#45;&gt;Node2 -->
<g id="edge1" class="edge"><title>Node3&#45;&gt;Node2</title>
<path fill="none" stroke="midnightblue" d="M60.2142,-321.908C72.393,-298.095 89.0092,-265.606 105.398,-233.561"/>
<polygon fill="none" stroke="midnightblue" points="57.047,-320.415 55.6097,-330.912 63.2792,-323.602 57.047,-320.415"/>
</g>
<!-- Node4 -->
<g id="node3" class="node"><title>Node4</title>
<g id="a_node3"><a xlink:href="class_unit_info.html" target="_top" xlink:title="{UnitInfo\n|+ buildtime\l+ prefab\l+ attackRange\l+ attackDamage\l+ hitpoints\l+ attackCooldown\l+ moveSpeed\l+ attackSpeed\l+ speedPenaltyOnAttack\l+ carryStrength\l|}">
<polygon fill="white" stroke="black" points="101.5,-281.5 101.5,-437.5 227.5,-437.5 227.5,-281.5 101.5,-281.5"/>
<text text-anchor="middle" x="164.5" y="-425.5" font-family="Helvetica,sans-Serif" font-size="10.00">UnitInfo</text>
<polyline fill="none" stroke="black" points="101.5,-418.5 227.5,-418.5 "/>
<text text-anchor="start" x="109.5" y="-406.5" font-family="Helvetica,sans-Serif" font-size="10.00">+ buildtime</text>
<text text-anchor="start" x="109.5" y="-395.5" font-family="Helvetica,sans-Serif" font-size="10.00">+ prefab</text>
<text text-anchor="start" x="109.5" y="-384.5" font-family="Helvetica,sans-Serif" font-size="10.00">+ attackRange</text>
<text text-anchor="start" x="109.5" y="-373.5" font-family="Helvetica,sans-Serif" font-size="10.00">+ attackDamage</text>
<text text-anchor="start" x="109.5" y="-362.5" font-family="Helvetica,sans-Serif" font-size="10.00">+ hitpoints</text>
<text text-anchor="start" x="109.5" y="-351.5" font-family="Helvetica,sans-Serif" font-size="10.00">+ attackCooldown</text>
<text text-anchor="start" x="109.5" y="-340.5" font-family="Helvetica,sans-Serif" font-size="10.00">+ moveSpeed</text>
<text text-anchor="start" x="109.5" y="-329.5" font-family="Helvetica,sans-Serif" font-size="10.00">+ attackSpeed</text>
<text text-anchor="start" x="109.5" y="-318.5" font-family="Helvetica,sans-Serif" font-size="10.00">+ speedPenaltyOnAttack</text>
<text text-anchor="start" x="109.5" y="-307.5" font-family="Helvetica,sans-Serif" font-size="10.00">+ carryStrength</text>
<polyline fill="none" stroke="black" points="101.5,-300.5 227.5,-300.5 "/>
<text text-anchor="middle" x="164.5" y="-288.5" font-family="Helvetica,sans-Serif" font-size="10.00"> </text>
</a>
</g>
</g>
<!-- Node4&#45;&gt;Node2 -->
<g id="edge2" class="edge"><title>Node4&#45;&gt;Node2</title>
<path fill="none" stroke="#404040" d="M164.5,-281.412C164.5,-269.974 164.5,-257.935 164.5,-245.794"/>
<polygon fill="none" stroke="#404040" points="164.5,-245.636 160.5,-239.636 164.5,-233.636 168.5,-239.636 164.5,-245.636"/>
<text text-anchor="middle" x="177" y="-255" font-family="Helvetica,sans-Serif" font-size="10.00"> +unit</text>
</g>
<!-- Node5 -->
<g id="node4" class="node"><title>Node5</title>
<polygon fill="white" stroke="#bfbfbf" points="201,-475.5 201,-532.5 290,-532.5 290,-475.5 201,-475.5"/>
<text text-anchor="middle" x="245.5" y="-520.5" font-family="Helvetica,sans-Serif" font-size="10.00">ScriptableObject</text>
<polyline fill="none" stroke="#bfbfbf" points="201,-513.5 290,-513.5 "/>
<text text-anchor="middle" x="245.5" y="-501.5" font-family="Helvetica,sans-Serif" font-size="10.00"> </text>
<polyline fill="none" stroke="#bfbfbf" points="201,-494.5 290,-494.5 "/>
<text text-anchor="middle" x="245.5" y="-482.5" font-family="Helvetica,sans-Serif" font-size="10.00"> </text>
</g>
<!-- Node5&#45;&gt;Node4 -->
<g id="edge3" class="edge"><title>Node5&#45;&gt;Node4</title>
<path fill="none" stroke="midnightblue" d="M224.651,-466.322C219.612,-457.457 214.037,-447.649 208.374,-437.686"/>
<polygon fill="none" stroke="midnightblue" points="221.706,-468.222 229.69,-475.186 227.791,-464.763 221.706,-468.222"/>
</g>
<!-- Node6 -->
<g id="node5" class="node"><title>Node6</title>
<g id="a_node5"><a xlink:href="class_player.html" target="_top" xlink:title="{Player\n|+ nickName\l+ curPlayerReference\l+ homeBase\l|}">
<polygon fill="white" stroke="black" points="245.5,-320 245.5,-399 355.5,-399 355.5,-320 245.5,-320"/>
<text text-anchor="middle" x="300.5" y="-387" font-family="Helvetica,sans-Serif" font-size="10.00">Player</text>
<polyline fill="none" stroke="black" points="245.5,-380 355.5,-380 "/>
<text text-anchor="start" x="253.5" y="-368" font-family="Helvetica,sans-Serif" font-size="10.00">+ nickName</text>
<text text-anchor="start" x="253.5" y="-357" font-family="Helvetica,sans-Serif" font-size="10.00">+ curPlayerReference</text>
<text text-anchor="start" x="253.5" y="-346" font-family="Helvetica,sans-Serif" font-size="10.00">+ homeBase</text>
<polyline fill="none" stroke="black" points="245.5,-339 355.5,-339 "/>
<text text-anchor="middle" x="300.5" y="-327" font-family="Helvetica,sans-Serif" font-size="10.00"> </text>
</a>
</g>
</g>
<!-- Node5&#45;&gt;Node6 -->
<g id="edge5" class="edge"><title>Node5&#45;&gt;Node6</title>
<path fill="none" stroke="midnightblue" d="M259.845,-465.834C267.776,-445.284 277.618,-419.786 285.631,-399.024"/>
<polygon fill="none" stroke="midnightblue" points="256.571,-464.597 256.235,-475.186 263.101,-467.117 256.571,-464.597"/>
</g>
<!-- Node6&#45;&gt;Node2 -->
<g id="edge4" class="edge"><title>Node6&#45;&gt;Node2</title>
<path fill="none" stroke="#404040" d="M278.649,-319.86C265.854,-297.233 248.931,-267.306 232.046,-237.446"/>
<polygon fill="none" stroke="#404040" points="231.988,-237.345 225.553,-234.091 226.081,-226.899 232.517,-230.153 231.988,-237.345"/>
<text text-anchor="middle" x="263.5" y="-255" font-family="Helvetica,sans-Serif" font-size="10.00"> +player</text>
</g>
</g>
</svg>
