<?xml version="1.0" encoding="UTF-8" standalone="no"?>
<!DOCTYPE svg PUBLIC "-//W3C//DTD SVG 1.1//EN"
 "http://www.w3.org/Graphics/SVG/1.1/DTD/svg11.dtd">
<!-- Generated by graphviz version 2.38.0 (20140413.2041)
 -->
<!-- Title: HostNewRoomState Pages: 1 -->
<svg width="488pt" height="966pt"
 viewBox="0.00 0.00 487.50 966.00" xmlns="http://www.w3.org/2000/svg" xmlns:xlink="http://www.w3.org/1999/xlink">
<g id="graph0" class="graph" transform="scale(1 1) rotate(0) translate(4 962)">
<title>HostNewRoomState</title>
<polygon fill="white" stroke="none" points="-4,4 -4,-962 483.5,-962 483.5,4 -4,4"/>
<!-- Node4 -->
<g id="node1" class="node"><title>Node4</title>
<polygon fill="#bfbfbf" stroke="black" points="306.5,-0.5 306.5,-101.5 428.5,-101.5 428.5,-0.5 306.5,-0.5"/>
<text text-anchor="middle" x="367.5" y="-89.5" font-family="Helvetica,sans-Serif" font-size="10.00">HostNewRoomState</text>
<polyline fill="none" stroke="black" points="306.5,-82.5 428.5,-82.5 "/>
<text text-anchor="start" x="314.5" y="-70.5" font-family="Helvetica,sans-Serif" font-size="10.00">&#45; numTries</text>
<polyline fill="none" stroke="black" points="306.5,-63.5 428.5,-63.5 "/>
<text text-anchor="start" x="314.5" y="-51.5" font-family="Helvetica,sans-Serif" font-size="10.00"># OnMyStateInit()</text>
<text text-anchor="start" x="314.5" y="-40.5" font-family="Helvetica,sans-Serif" font-size="10.00"># OnOverlayStateEnter()</text>
<text text-anchor="start" x="314.5" y="-29.5" font-family="Helvetica,sans-Serif" font-size="10.00">&#45; GetRoomName()</text>
<text text-anchor="start" x="314.5" y="-18.5" font-family="Helvetica,sans-Serif" font-size="10.00">&#45; OnHosting()</text>
<text text-anchor="start" x="314.5" y="-7.5" font-family="Helvetica,sans-Serif" font-size="10.00">&#45; OnHostingFailed()</text>
</g>
<!-- Node5 -->
<g id="node2" class="node"><title>Node5</title>
<g id="a_node2"><a xlink:href="classnet_1_1_net_overlay_state.html" target="_top" xlink:title="{NetOverlayState\n|# netOverlayRef\l&#45; minVisibleTime\l&#45; timestampOfStateEntered\l|# TriggerTransitionWithMin\lVisibleTime()\l# OnOverlayStateEnter()\l# OnMyStateEnter()\l}">
<polygon fill="white" stroke="black" points="216,-149.5 216,-261.5 351,-261.5 351,-149.5 216,-149.5"/>
<text text-anchor="middle" x="283.5" y="-249.5" font-family="Helvetica,sans-Serif" font-size="10.00">NetOverlayState</text>
<polyline fill="none" stroke="black" points="216,-242.5 351,-242.5 "/>
<text text-anchor="start" x="224" y="-230.5" font-family="Helvetica,sans-Serif" font-size="10.00"># netOverlayRef</text>
<text text-anchor="start" x="224" y="-219.5" font-family="Helvetica,sans-Serif" font-size="10.00">&#45; minVisibleTime</text>
<text text-anchor="start" x="224" y="-208.5" font-family="Helvetica,sans-Serif" font-size="10.00">&#45; timestampOfStateEntered</text>
<polyline fill="none" stroke="black" points="216,-201.5 351,-201.5 "/>
<text text-anchor="start" x="224" y="-189.5" font-family="Helvetica,sans-Serif" font-size="10.00"># TriggerTransitionWithMin</text>
<text text-anchor="start" x="224" y="-178.5" font-family="Helvetica,sans-Serif" font-size="10.00">VisibleTime()</text>
<text text-anchor="start" x="224" y="-167.5" font-family="Helvetica,sans-Serif" font-size="10.00"># OnOverlayStateEnter()</text>
<text text-anchor="start" x="224" y="-156.5" font-family="Helvetica,sans-Serif" font-size="10.00"># OnMyStateEnter()</text>
</a>
</g>
</g>
<!-- Node5&#45;&gt;Node4 -->
<g id="edge1" class="edge"><title>Node5&#45;&gt;Node4</title>
<path fill="none" stroke="midnightblue" d="M318.728,-140.545C325.885,-127.551 333.312,-114.067 340.148,-101.657"/>
<polygon fill="none" stroke="midnightblue" points="315.585,-138.996 313.826,-149.444 321.716,-142.374 315.585,-138.996"/>
</g>
<!-- Node6 -->
<g id="node3" class="node"><title>Node6</title>
<g id="a_node3"><a xlink:href="class_state.html" target="_top" xlink:title="Extended functionality for Unity SM Behaviours and makes them complete &#39;States&#39;. ">
<polygon fill="white" stroke="black" points="254.5,-663.5 254.5,-819.5 358.5,-819.5 358.5,-663.5 254.5,-663.5"/>
<text text-anchor="middle" x="306.5" y="-807.5" font-family="Helvetica,sans-Serif" font-size="10.00">State</text>
<polyline fill="none" stroke="black" points="254.5,-800.5 358.5,-800.5 "/>
<text text-anchor="start" x="262.5" y="-788.5" font-family="Helvetica,sans-Serif" font-size="10.00">+ name</text>
<text text-anchor="start" x="262.5" y="-777.5" font-family="Helvetica,sans-Serif" font-size="10.00">+ triggers</text>
<polyline fill="none" stroke="black" points="254.5,-770.5 358.5,-770.5 "/>
<text text-anchor="start" x="262.5" y="-758.5" font-family="Helvetica,sans-Serif" font-size="10.00">+ IsActiveState()</text>
<text text-anchor="start" x="262.5" y="-747.5" font-family="Helvetica,sans-Serif" font-size="10.00">+ Init()</text>
<text text-anchor="start" x="262.5" y="-736.5" font-family="Helvetica,sans-Serif" font-size="10.00">+ OnStateEnter()</text>
<text text-anchor="start" x="262.5" y="-725.5" font-family="Helvetica,sans-Serif" font-size="10.00">+ OnStateExit()</text>
<text text-anchor="start" x="262.5" y="-714.5" font-family="Helvetica,sans-Serif" font-size="10.00"># AddAutoListener()</text>
<text text-anchor="start" x="262.5" y="-703.5" font-family="Helvetica,sans-Serif" font-size="10.00"># TriggerTransition()</text>
<text text-anchor="start" x="262.5" y="-692.5" font-family="Helvetica,sans-Serif" font-size="10.00"># OnMyStateEnter()</text>
<text text-anchor="start" x="262.5" y="-681.5" font-family="Helvetica,sans-Serif" font-size="10.00"># OnMyStateExit()</text>
<text text-anchor="start" x="262.5" y="-670.5" font-family="Helvetica,sans-Serif" font-size="10.00"># OnMyStateInit()</text>
</a>
</g>
</g>
<!-- Node6&#45;&gt;Node5 -->
<g id="edge2" class="edge"><title>Node6&#45;&gt;Node5</title>
<path fill="none" stroke="midnightblue" d="M314.109,-653.245C314.255,-650.466 314.387,-647.712 314.5,-645 320.738,-495.797 327.233,-457.79 314.5,-309 313.153,-293.255 309.282,-276.666 304.713,-261.528"/>
<polygon fill="none" stroke="midnightblue" points="310.605,-653.206 313.516,-663.393 317.593,-653.615 310.605,-653.206"/>
</g>
<!-- Node8 -->
<g id="node5" class="node"><title>Node8</title>
<g id="a_node5"><a xlink:href="class_state_machine.html" target="_top" xlink:title="Common Base class for all state machines. ">
<polygon fill="white" stroke="black" points="161.5,-470.5 161.5,-615.5 291.5,-615.5 291.5,-470.5 161.5,-470.5"/>
<text text-anchor="middle" x="226.5" y="-603.5" font-family="Helvetica,sans-Serif" font-size="10.00">StateMachine</text>
<polyline fill="none" stroke="black" points="161.5,-596.5 291.5,-596.5 "/>
<text text-anchor="start" x="169.5" y="-584.5" font-family="Helvetica,sans-Serif" font-size="10.00">+ logEnabled</text>
<text text-anchor="start" x="169.5" y="-573.5" font-family="Helvetica,sans-Serif" font-size="10.00"># controller</text>
<text text-anchor="start" x="169.5" y="-562.5" font-family="Helvetica,sans-Serif" font-size="10.00">&#45; states</text>
<polyline fill="none" stroke="black" points="161.5,-555.5 291.5,-555.5 "/>
<text text-anchor="start" x="169.5" y="-543.5" font-family="Helvetica,sans-Serif" font-size="10.00">+ GetActiveState()</text>
<text text-anchor="start" x="169.5" y="-532.5" font-family="Helvetica,sans-Serif" font-size="10.00">+ TriggerTransition()</text>
<text text-anchor="start" x="169.5" y="-521.5" font-family="Helvetica,sans-Serif" font-size="10.00">+ TriggerTransition()</text>
<text text-anchor="start" x="169.5" y="-510.5" font-family="Helvetica,sans-Serif" font-size="10.00">+ TriggerTransition()</text>
<text text-anchor="start" x="169.5" y="-499.5" font-family="Helvetica,sans-Serif" font-size="10.00">+ AnnounceCurrentState()</text>
<text text-anchor="start" x="169.5" y="-488.5" font-family="Helvetica,sans-Serif" font-size="10.00"># MyAwake()</text>
<text text-anchor="start" x="169.5" y="-477.5" font-family="Helvetica,sans-Serif" font-size="10.00">&#45; Awake()</text>
</a>
</g>
</g>
<!-- Node6&#45;&gt;Node8 -->
<g id="edge8" class="edge"><title>Node6&#45;&gt;Node8</title>
<path fill="none" stroke="#404040" d="M254.492,-693.996C241.921,-679.665 230.192,-662.901 223.5,-645 221.458,-639.536 219.996,-633.788 219,-627.922"/>
<polygon fill="none" stroke="#404040" points="218.972,-627.684 214.298,-622.193 217.569,-615.766 222.243,-621.258 218.972,-627.684"/>
<text text-anchor="middle" x="252" y="-637" font-family="Helvetica,sans-Serif" font-size="10.00"> #activeState</text>
</g>
<!-- Node7 -->
<g id="node4" class="node"><title>Node7</title>
<polygon fill="white" stroke="#bfbfbf" points="231,-884 231,-941 350,-941 350,-884 231,-884"/>
<text text-anchor="middle" x="290.5" y="-929" font-family="Helvetica,sans-Serif" font-size="10.00">StateMachineBehaviour</text>
<polyline fill="none" stroke="#bfbfbf" points="231,-922 350,-922 "/>
<text text-anchor="middle" x="290.5" y="-910" font-family="Helvetica,sans-Serif" font-size="10.00"> </text>
<polyline fill="none" stroke="#bfbfbf" points="231,-903 350,-903 "/>
<text text-anchor="middle" x="290.5" y="-891" font-family="Helvetica,sans-Serif" font-size="10.00"> </text>
</g>
<!-- Node7&#45;&gt;Node6 -->
<g id="edge3" class="edge"><title>Node7&#45;&gt;Node6</title>
<path fill="none" stroke="midnightblue" d="M294.056,-873.936C295.577,-857.878 297.411,-838.508 299.198,-819.632"/>
<polygon fill="none" stroke="midnightblue" points="290.564,-873.686 293.106,-883.971 297.533,-874.346 290.564,-873.686"/>
</g>
<!-- Node8&#45;&gt;Node6 -->
<g id="edge4" class="edge"><title>Node8&#45;&gt;Node6</title>
<path fill="none" stroke="#404040" d="M275.906,-615.693C279.083,-621.747 282.003,-627.892 284.5,-634 286.807,-639.644 288.883,-645.559 290.748,-651.587"/>
<polygon fill="none" stroke="#404040" points="290.791,-651.737 296.283,-656.41 294.081,-663.277 288.589,-658.604 290.791,-651.737"/>
<text text-anchor="middle" x="299.5" y="-637" font-family="Helvetica,sans-Serif" font-size="10.00"> #sm</text>
</g>
<!-- Node13 -->
<g id="node10" class="node"><title>Node13</title>
<g id="a_node10"><a xlink:href="classnet_1_1_net_state_machine.html" target="_top" xlink:title="{NetStateMachine\n|+ netOverlayPrefab\l&#45; netOverlayInstance\l|+ IsMaster()\l+ GetCurStateName()\l+ GetNetOverlay()\l+ HideNetOverlay()\l# MyAwake()\l&#45; OnDisconnect()\l}">
<polygon fill="white" stroke="black" points="195,-309.5 195,-432.5 306,-432.5 306,-309.5 195,-309.5"/>
<text text-anchor="middle" x="250.5" y="-420.5" font-family="Helvetica,sans-Serif" font-size="10.00">NetStateMachine</text>
<polyline fill="none" stroke="black" points="195,-413.5 306,-413.5 "/>
<text text-anchor="start" x="203" y="-401.5" font-family="Helvetica,sans-Serif" font-size="10.00">+ netOverlayPrefab</text>
<text text-anchor="start" x="203" y="-390.5" font-family="Helvetica,sans-Serif" font-size="10.00">&#45; netOverlayInstance</text>
<polyline fill="none" stroke="black" points="195,-383.5 306,-383.5 "/>
<text text-anchor="start" x="203" y="-371.5" font-family="Helvetica,sans-Serif" font-size="10.00">+ IsMaster()</text>
<text text-anchor="start" x="203" y="-360.5" font-family="Helvetica,sans-Serif" font-size="10.00">+ GetCurStateName()</text>
<text text-anchor="start" x="203" y="-349.5" font-family="Helvetica,sans-Serif" font-size="10.00">+ GetNetOverlay()</text>
<text text-anchor="start" x="203" y="-338.5" font-family="Helvetica,sans-Serif" font-size="10.00">+ HideNetOverlay()</text>
<text text-anchor="start" x="203" y="-327.5" font-family="Helvetica,sans-Serif" font-size="10.00"># MyAwake()</text>
<text text-anchor="start" x="203" y="-316.5" font-family="Helvetica,sans-Serif" font-size="10.00">&#45; OnDisconnect()</text>
</a>
</g>
</g>
<!-- Node8&#45;&gt;Node13 -->
<g id="edge11" class="edge"><title>Node8&#45;&gt;Node13</title>
<path fill="none" stroke="midnightblue" d="M238.026,-460.355C239.338,-451.062 240.658,-441.716 241.922,-432.761"/>
<polygon fill="none" stroke="midnightblue" points="234.541,-460.006 236.609,-470.397 241.472,-460.985 234.541,-460.006"/>
</g>
<!-- Node9 -->
<g id="node6" class="node"><title>Node9</title>
<polygon fill="white" stroke="#bfbfbf" points="0,-713 0,-770 83,-770 83,-713 0,-713"/>
<text text-anchor="middle" x="41.5" y="-758" font-family="Helvetica,sans-Serif" font-size="10.00">MonoBehaviour</text>
<polyline fill="none" stroke="#bfbfbf" points="0,-751 83,-751 "/>
<text text-anchor="middle" x="41.5" y="-739" font-family="Helvetica,sans-Serif" font-size="10.00"> </text>
<polyline fill="none" stroke="#bfbfbf" points="0,-732 83,-732 "/>
<text text-anchor="middle" x="41.5" y="-720" font-family="Helvetica,sans-Serif" font-size="10.00"> </text>
</g>
<!-- Node9&#45;&gt;Node8 -->
<g id="edge5" class="edge"><title>Node9&#45;&gt;Node8</title>
<path fill="none" stroke="midnightblue" d="M62.5419,-704.433C70.9522,-690.99 81.104,-675.877 91.5,-663 111.813,-637.839 137.767,-613.572 161.481,-593.589"/>
<polygon fill="none" stroke="midnightblue" points="59.5391,-702.635 57.2817,-712.986 65.5017,-706.302 59.5391,-702.635"/>
</g>
<!-- Node10 -->
<g id="node7" class="node"><title>Node10</title>
<g id="a_node7"><a xlink:href="class_unity_string_event.html" target="_top" xlink:title="{UnityStringEvent\n||}">
<polygon fill="white" stroke="black" points="101,-713 101,-770 190,-770 190,-713 101,-713"/>
<text text-anchor="middle" x="145.5" y="-758" font-family="Helvetica,sans-Serif" font-size="10.00">UnityStringEvent</text>
<polyline fill="none" stroke="black" points="101,-751 190,-751 "/>
<text text-anchor="middle" x="145.5" y="-739" font-family="Helvetica,sans-Serif" font-size="10.00"> </text>
<polyline fill="none" stroke="black" points="101,-732 190,-732 "/>
<text text-anchor="middle" x="145.5" y="-720" font-family="Helvetica,sans-Serif" font-size="10.00"> </text>
</a>
</g>
</g>
<!-- Node10&#45;&gt;Node8 -->
<g id="edge6" class="edge"><title>Node10&#45;&gt;Node8</title>
<path fill="none" stroke="#404040" d="M132.424,-712.73C123.939,-690.583 116.348,-659.209 127.5,-634 133.41,-620.64 142.391,-608.413 152.577,-597.568"/>
<polygon fill="none" stroke="#404040" points="152.882,-597.265 154.304,-590.195 161.377,-588.789 159.954,-595.858 152.882,-597.265"/>
<text text-anchor="middle" x="172" y="-637" font-family="Helvetica,sans-Serif" font-size="10.00"> +stateEnteredEvent</text>
</g>
<!-- Node11 -->
<g id="node8" class="node"><title>Node11</title>
<polygon fill="white" stroke="#bfbfbf" points="93,-884 93,-941 198,-941 198,-884 93,-884"/>
<text text-anchor="middle" x="145.5" y="-929" font-family="Helvetica,sans-Serif" font-size="10.00">UnityEvent&lt; string &gt;</text>
<polyline fill="none" stroke="#bfbfbf" points="93,-922 198,-922 "/>
<text text-anchor="middle" x="145.5" y="-910" font-family="Helvetica,sans-Serif" font-size="10.00"> </text>
<polyline fill="none" stroke="#bfbfbf" points="93,-903 198,-903 "/>
<text text-anchor="middle" x="145.5" y="-891" font-family="Helvetica,sans-Serif" font-size="10.00"> </text>
</g>
<!-- Node11&#45;&gt;Node10 -->
<g id="edge7" class="edge"><title>Node11&#45;&gt;Node10</title>
<path fill="none" stroke="midnightblue" d="M145.5,-873.828C145.5,-842.367 145.5,-798.248 145.5,-770.017"/>
<polygon fill="none" stroke="midnightblue" points="142,-873.971 145.5,-883.971 149,-873.971 142,-873.971"/>
</g>
<!-- Node12 -->
<g id="node9" class="node"><title>Node12</title>
<g id="a_node9"><a xlink:href="class_listener_group.html" target="_top" xlink:title="Helper class to execute adding and removing on all held Listeners (Events + Callbacks). ">
<polygon fill="white" stroke="black" points="368.5,-867.5 368.5,-957.5 456.5,-957.5 456.5,-867.5 368.5,-867.5"/>
<text text-anchor="middle" x="412.5" y="-945.5" font-family="Helvetica,sans-Serif" font-size="10.00">ListenerGroup</text>
<polyline fill="none" stroke="black" points="368.5,-938.5 456.5,-938.5 "/>
<text text-anchor="start" x="376.5" y="-926.5" font-family="Helvetica,sans-Serif" font-size="10.00">&#45; heldListeners</text>
<polyline fill="none" stroke="black" points="368.5,-919.5 456.5,-919.5 "/>
<text text-anchor="start" x="376.5" y="-907.5" font-family="Helvetica,sans-Serif" font-size="10.00">+ Add()</text>
<text text-anchor="start" x="376.5" y="-896.5" font-family="Helvetica,sans-Serif" font-size="10.00">+ Add()</text>
<text text-anchor="start" x="376.5" y="-885.5" font-family="Helvetica,sans-Serif" font-size="10.00">+ ActivateAll()</text>
<text text-anchor="start" x="376.5" y="-874.5" font-family="Helvetica,sans-Serif" font-size="10.00">+ DeactivateAll()</text>
</a>
</g>
</g>
<!-- Node12&#45;&gt;Node6 -->
<g id="edge9" class="edge"><title>Node12&#45;&gt;Node6</title>
<path fill="none" stroke="#404040" d="M384.65,-867.097C377.438,-855.599 369.418,-842.812 361.34,-829.934"/>
<polygon fill="none" stroke="#404040" points="361.24,-829.775 354.664,-826.817 354.864,-819.609 361.441,-822.566 361.24,-829.775"/>
<text text-anchor="middle" x="394" y="-841" font-family="Helvetica,sans-Serif" font-size="10.00"> &#45;listeners</text>
</g>
<!-- Node13&#45;&gt;Node5 -->
<g id="edge10" class="edge"><title>Node13&#45;&gt;Node5</title>
<path fill="none" stroke="#404040" d="M262.788,-309.119C265.114,-297.596 267.559,-285.48 269.922,-273.774"/>
<polygon fill="none" stroke="#404040" points="269.971,-273.527 267.238,-266.855 272.346,-261.765 275.08,-268.437 269.971,-273.527"/>
<text text-anchor="middle" x="287" y="-283" font-family="Helvetica,sans-Serif" font-size="10.00"> #netSM</text>
</g>
<!-- Node14 -->
<g id="node11" class="node"><title>Node14</title>
<g id="a_node11"><a xlink:href="class_player.html" target="_top" xlink:title="{Player\n|+ nickName\l+ curPlayerReference\l|}">
<polygon fill="white" stroke="black" points="369.5,-171.5 369.5,-239.5 479.5,-239.5 479.5,-171.5 369.5,-171.5"/>
<text text-anchor="middle" x="424.5" y="-227.5" font-family="Helvetica,sans-Serif" font-size="10.00">Player</text>
<polyline fill="none" stroke="black" points="369.5,-220.5 479.5,-220.5 "/>
<text text-anchor="start" x="377.5" y="-208.5" font-family="Helvetica,sans-Serif" font-size="10.00">+ nickName</text>
<text text-anchor="start" x="377.5" y="-197.5" font-family="Helvetica,sans-Serif" font-size="10.00">+ curPlayerReference</text>
<polyline fill="none" stroke="black" points="369.5,-190.5 479.5,-190.5 "/>
<text text-anchor="middle" x="424.5" y="-178.5" font-family="Helvetica,sans-Serif" font-size="10.00"> </text>
</a>
</g>
</g>
<!-- Node14&#45;&gt;Node4 -->
<g id="edge12" class="edge"><title>Node14&#45;&gt;Node4</title>
<path fill="none" stroke="#404040" d="M412.132,-171.41C405.754,-154.348 397.77,-132.986 390.325,-113.066"/>
<polygon fill="none" stroke="#404040" points="390.221,-112.787 384.373,-108.568 386.019,-101.547 391.867,-105.767 390.221,-112.787"/>
<text text-anchor="middle" x="425.5" y="-123" font-family="Helvetica,sans-Serif" font-size="10.00"> +mainPlayer</text>
</g>
<!-- Node15 -->
<g id="node12" class="node"><title>Node15</title>
<polygon fill="white" stroke="#bfbfbf" points="380,-342.5 380,-399.5 469,-399.5 469,-342.5 380,-342.5"/>
<text text-anchor="middle" x="424.5" y="-387.5" font-family="Helvetica,sans-Serif" font-size="10.00">ScriptableObject</text>
<polyline fill="none" stroke="#bfbfbf" points="380,-380.5 469,-380.5 "/>
<text text-anchor="middle" x="424.5" y="-368.5" font-family="Helvetica,sans-Serif" font-size="10.00"> </text>
<polyline fill="none" stroke="#bfbfbf" points="380,-361.5 469,-361.5 "/>
<text text-anchor="middle" x="424.5" y="-349.5" font-family="Helvetica,sans-Serif" font-size="10.00"> </text>
</g>
<!-- Node15&#45;&gt;Node14 -->
<g id="edge13" class="edge"><title>Node15&#45;&gt;Node14</title>
<path fill="none" stroke="midnightblue" d="M424.5,-332.075C424.5,-304.138 424.5,-266.506 424.5,-239.742"/>
<polygon fill="none" stroke="midnightblue" points="421,-332.264 424.5,-342.264 428,-332.264 421,-332.264"/>
</g>
</g>
</svg>
