<?xml version="1.0" encoding="UTF-8" standalone="no"?>
<!DOCTYPE svg PUBLIC "-//W3C//DTD SVG 1.1//EN"
 "http://www.w3.org/Graphics/SVG/1.1/DTD/svg11.dtd">
<!-- Generated by graphviz version 2.38.0 (20140413.2041)
 -->
<!-- Title: CameraController Pages: 1 -->
<svg width="220pt" height="365pt"
 viewBox="0.00 0.00 219.50 365.00" xmlns="http://www.w3.org/2000/svg" xmlns:xlink="http://www.w3.org/1999/xlink">
<g id="graph0" class="graph" transform="scale(1 1) rotate(0) translate(4 361)">
<title>CameraController</title>
<polygon fill="white" stroke="none" points="-4,4 -4,-361 215.5,-361 215.5,4 -4,4"/>
<!-- Node2 -->
<g id="node1" class="node"><title>Node2</title>
<polygon fill="#bfbfbf" stroke="black" points="26.5,-0.5 26.5,-134.5 130.5,-134.5 130.5,-0.5 26.5,-0.5"/>
<text text-anchor="middle" x="78.5" y="-122.5" font-family="Helvetica,sans-Serif" font-size="10.00">CameraController</text>
<polyline fill="none" stroke="black" points="26.5,-115.5 130.5,-115.5 "/>
<text text-anchor="start" x="34.5" y="-103.5" font-family="Helvetica,sans-Serif" font-size="10.00">+ maxClamp</text>
<text text-anchor="start" x="34.5" y="-92.5" font-family="Helvetica,sans-Serif" font-size="10.00">+ minClamp</text>
<text text-anchor="start" x="34.5" y="-81.5" font-family="Helvetica,sans-Serif" font-size="10.00">+ dampingFOV</text>
<text text-anchor="start" x="34.5" y="-70.5" font-family="Helvetica,sans-Serif" font-size="10.00">&#45; zoom</text>
<text text-anchor="start" x="34.5" y="-59.5" font-family="Helvetica,sans-Serif" font-size="10.00">&#45; sensitivityDistance</text>
<text text-anchor="start" x="34.5" y="-48.5" font-family="Helvetica,sans-Serif" font-size="10.00">&#45; distance</text>
<polyline fill="none" stroke="black" points="26.5,-41.5 130.5,-41.5 "/>
<text text-anchor="start" x="34.5" y="-29.5" font-family="Helvetica,sans-Serif" font-size="10.00">&#45; Start()</text>
<text text-anchor="start" x="34.5" y="-18.5" font-family="Helvetica,sans-Serif" font-size="10.00">&#45; Update()</text>
<text text-anchor="start" x="34.5" y="-7.5" font-family="Helvetica,sans-Serif" font-size="10.00">&#45; LateUpdate()</text>
</g>
<!-- Node3 -->
<g id="node2" class="node"><title>Node3</title>
<polygon fill="white" stroke="#bfbfbf" points="0,-193.5 0,-250.5 83,-250.5 83,-193.5 0,-193.5"/>
<text text-anchor="middle" x="41.5" y="-238.5" font-family="Helvetica,sans-Serif" font-size="10.00">MonoBehaviour</text>
<polyline fill="none" stroke="#bfbfbf" points="0,-231.5 83,-231.5 "/>
<text text-anchor="middle" x="41.5" y="-219.5" font-family="Helvetica,sans-Serif" font-size="10.00"> </text>
<polyline fill="none" stroke="#bfbfbf" points="0,-212.5 83,-212.5 "/>
<text text-anchor="middle" x="41.5" y="-200.5" font-family="Helvetica,sans-Serif" font-size="10.00"> </text>
</g>
<!-- Node3&#45;&gt;Node2 -->
<g id="edge1" class="edge"><title>Node3&#45;&gt;Node2</title>
<path fill="none" stroke="midnightblue" d="M50.5727,-183.606C54.1628,-168.809 58.3994,-151.347 62.473,-134.557"/>
<polygon fill="none" stroke="midnightblue" points="47.157,-182.84 48.2004,-193.383 53.9596,-184.491 47.157,-182.84"/>
</g>
<!-- Node4 -->
<g id="node3" class="node"><title>Node4</title>
<g id="a_node3"><a xlink:href="class_player.html" target="_top" xlink:title="{Player\n|+ nickName\l+ curPlayerReference\l+ homeBase\l|}">
<polygon fill="white" stroke="black" points="101.5,-182.5 101.5,-261.5 211.5,-261.5 211.5,-182.5 101.5,-182.5"/>
<text text-anchor="middle" x="156.5" y="-249.5" font-family="Helvetica,sans-Serif" font-size="10.00">Player</text>
<polyline fill="none" stroke="black" points="101.5,-242.5 211.5,-242.5 "/>
<text text-anchor="start" x="109.5" y="-230.5" font-family="Helvetica,sans-Serif" font-size="10.00">+ nickName</text>
<text text-anchor="start" x="109.5" y="-219.5" font-family="Helvetica,sans-Serif" font-size="10.00">+ curPlayerReference</text>
<text text-anchor="start" x="109.5" y="-208.5" font-family="Helvetica,sans-Serif" font-size="10.00">+ homeBase</text>
<polyline fill="none" stroke="black" points="101.5,-201.5 211.5,-201.5 "/>
<text text-anchor="middle" x="156.5" y="-189.5" font-family="Helvetica,sans-Serif" font-size="10.00"> </text>
</a>
</g>
</g>
<!-- Node4&#45;&gt;Node2 -->
<g id="edge2" class="edge"><title>Node4&#45;&gt;Node2</title>
<path fill="none" stroke="#404040" d="M136.615,-182.123C130.832,-170.817 124.304,-158.054 117.767,-145.271"/>
<polygon fill="none" stroke="#404040" points="117.753,-145.244 111.459,-141.724 112.288,-134.561 118.582,-138.081 117.753,-145.244"/>
<text text-anchor="middle" x="163" y="-156" font-family="Helvetica,sans-Serif" font-size="10.00"> +targetedPlayer</text>
</g>
<!-- Node5 -->
<g id="node4" class="node"><title>Node5</title>
<polygon fill="white" stroke="#bfbfbf" points="112,-299.5 112,-356.5 201,-356.5 201,-299.5 112,-299.5"/>
<text text-anchor="middle" x="156.5" y="-344.5" font-family="Helvetica,sans-Serif" font-size="10.00">ScriptableObject</text>
<polyline fill="none" stroke="#bfbfbf" points="112,-337.5 201,-337.5 "/>
<text text-anchor="middle" x="156.5" y="-325.5" font-family="Helvetica,sans-Serif" font-size="10.00"> </text>
<polyline fill="none" stroke="#bfbfbf" points="112,-318.5 201,-318.5 "/>
<text text-anchor="middle" x="156.5" y="-306.5" font-family="Helvetica,sans-Serif" font-size="10.00"> </text>
</g>
<!-- Node5&#45;&gt;Node4 -->
<g id="edge3" class="edge"><title>Node5&#45;&gt;Node4</title>
<path fill="none" stroke="midnightblue" d="M156.5,-289.232C156.5,-280.268 156.5,-270.693 156.5,-261.689"/>
<polygon fill="none" stroke="midnightblue" points="153,-289.403 156.5,-299.403 160,-289.403 153,-289.403"/>
</g>
</g>
</svg>
