<?xml version="1.0" encoding="UTF-8" standalone="no"?>
<!DOCTYPE svg PUBLIC "-//W3C//DTD SVG 1.1//EN"
 "http://www.w3.org/Graphics/SVG/1.1/DTD/svg11.dtd">
<!-- Generated by graphviz version 2.38.0 (20140413.2041)
 -->
<!-- Title: GameManager Pages: 1 -->
<svg width="539pt" height="762pt"
 viewBox="0.00 0.00 539.00 762.00" xmlns="http://www.w3.org/2000/svg" xmlns:xlink="http://www.w3.org/1999/xlink">
<g id="graph0" class="graph" transform="scale(1 1) rotate(0) translate(4 758)">
<title>GameManager</title>
<polygon fill="white" stroke="none" points="-4,4 -4,-758 535,-758 535,4 -4,4"/>
<!-- Node2 -->
<g id="node1" class="node"><title>Node2</title>
<polygon fill="#bfbfbf" stroke="black" points="126,-0.5 126,-90.5 233,-90.5 233,-0.5 126,-0.5"/>
<text text-anchor="middle" x="179.5" y="-78.5" font-family="Helvetica,sans-Serif" font-size="10.00">GameManager</text>
<polyline fill="none" stroke="black" points="126,-71.5 233,-71.5 "/>
<text text-anchor="start" x="134" y="-59.5" font-family="Helvetica,sans-Serif" font-size="10.00">&#45; gameVersion</text>
<polyline fill="none" stroke="black" points="126,-52.5 233,-52.5 "/>
<text text-anchor="start" x="134" y="-40.5" font-family="Helvetica,sans-Serif" font-size="10.00">+ QuitGame()</text>
<text text-anchor="start" x="134" y="-29.5" font-family="Helvetica,sans-Serif" font-size="10.00">+ GetStateMachine()</text>
<text text-anchor="start" x="134" y="-18.5" font-family="Helvetica,sans-Serif" font-size="10.00">+ GetVersion()</text>
<text text-anchor="start" x="134" y="-7.5" font-family="Helvetica,sans-Serif" font-size="10.00"># MyAwake()</text>
</g>
<!-- Node3 -->
<g id="node2" class="node"><title>Node3</title>
<g id="a_node2"><a xlink:href="class_mono_singleton.html" target="_top" xlink:title="{MonoSingleton\&lt; GameManager \&gt;\n|# instance\l&#45; logEnabled\l|+ Get()\l# LogIfEnabled()\l# MyAwake()\l&#45; Awake()\l}">
<polygon fill="white" stroke="black" points="16,-166 16,-267 179,-267 179,-166 16,-166"/>
<text text-anchor="middle" x="97.5" y="-255" font-family="Helvetica,sans-Serif" font-size="10.00">MonoSingleton&lt; GameManager &gt;</text>
<polyline fill="none" stroke="black" points="16,-248 179,-248 "/>
<text text-anchor="start" x="24" y="-236" font-family="Helvetica,sans-Serif" font-size="10.00"># instance</text>
<text text-anchor="start" x="24" y="-225" font-family="Helvetica,sans-Serif" font-size="10.00">&#45; logEnabled</text>
<polyline fill="none" stroke="black" points="16,-218 179,-218 "/>
<text text-anchor="start" x="24" y="-206" font-family="Helvetica,sans-Serif" font-size="10.00">+ Get()</text>
<text text-anchor="start" x="24" y="-195" font-family="Helvetica,sans-Serif" font-size="10.00"># LogIfEnabled()</text>
<text text-anchor="start" x="24" y="-184" font-family="Helvetica,sans-Serif" font-size="10.00"># MyAwake()</text>
<text text-anchor="start" x="24" y="-173" font-family="Helvetica,sans-Serif" font-size="10.00">&#45; Awake()</text>
</a>
</g>
</g>
<!-- Node3&#45;&gt;Node2 -->
<g id="edge1" class="edge"><title>Node3&#45;&gt;Node2</title>
<path fill="none" stroke="midnightblue" d="M126.073,-156.611C136.566,-134.986 148.258,-110.889 158.022,-90.7648"/>
<polygon fill="none" stroke="midnightblue" points="122.876,-155.184 121.659,-165.708 129.174,-158.239 122.876,-155.184"/>
</g>
<!-- Node4 -->
<g id="node3" class="node"><title>Node4</title>
<g id="a_node3"><a xlink:href="classmanagement_1_1_game_state_machine.html" target="_top" xlink:title="The GameStateMachine holds the overall program state, transitioning through menu, in&#45;game...">
<polygon fill="white" stroke="black" points="319.5,-171.5 319.5,-261.5 465.5,-261.5 465.5,-171.5 319.5,-171.5"/>
<text text-anchor="middle" x="392.5" y="-249.5" font-family="Helvetica,sans-Serif" font-size="10.00">GameStateMachine</text>
<polyline fill="none" stroke="black" points="319.5,-242.5 465.5,-242.5 "/>
<text text-anchor="middle" x="392.5" y="-230.5" font-family="Helvetica,sans-Serif" font-size="10.00"> </text>
<polyline fill="none" stroke="black" points="319.5,-223.5 465.5,-223.5 "/>
<text text-anchor="start" x="327.5" y="-211.5" font-family="Helvetica,sans-Serif" font-size="10.00">+ MatchStartup()</text>
<text text-anchor="start" x="327.5" y="-200.5" font-family="Helvetica,sans-Serif" font-size="10.00">+ GameOver()</text>
<text text-anchor="start" x="327.5" y="-189.5" font-family="Helvetica,sans-Serif" font-size="10.00"># MyAwake()</text>
<text text-anchor="start" x="327.5" y="-178.5" font-family="Helvetica,sans-Serif" font-size="10.00">&#45; TriggerNetworkedTransition()</text>
</a>
</g>
</g>
<!-- Node4&#45;&gt;Node2 -->
<g id="edge2" class="edge"><title>Node4&#45;&gt;Node2</title>
<path fill="none" stroke="#404040" d="M348.041,-171.223C336.158,-160.023 323.107,-148.267 310.5,-138 289.33,-120.76 265.077,-103.253 243.24,-88.2313"/>
<polygon fill="none" stroke="#404040" points="242.981,-88.055 235.771,-87.9781 233.068,-81.2925 240.279,-81.3694 242.981,-88.055"/>
<text text-anchor="middle" x="308.5" y="-112" font-family="Helvetica,sans-Serif" font-size="10.00"> &#45;gameSM</text>
</g>
<!-- Node5 -->
<g id="node4" class="node"><title>Node5</title>
<g id="a_node4"><a xlink:href="class_state_machine.html" target="_top" xlink:title="Common Base class for all state machines. ">
<polygon fill="white" stroke="black" points="243.5,-375.5 243.5,-520.5 373.5,-520.5 373.5,-375.5 243.5,-375.5"/>
<text text-anchor="middle" x="308.5" y="-508.5" font-family="Helvetica,sans-Serif" font-size="10.00">StateMachine</text>
<polyline fill="none" stroke="black" points="243.5,-501.5 373.5,-501.5 "/>
<text text-anchor="start" x="251.5" y="-489.5" font-family="Helvetica,sans-Serif" font-size="10.00">+ logEnabled</text>
<text text-anchor="start" x="251.5" y="-478.5" font-family="Helvetica,sans-Serif" font-size="10.00"># controller</text>
<text text-anchor="start" x="251.5" y="-467.5" font-family="Helvetica,sans-Serif" font-size="10.00">&#45; states</text>
<polyline fill="none" stroke="black" points="243.5,-460.5 373.5,-460.5 "/>
<text text-anchor="start" x="251.5" y="-448.5" font-family="Helvetica,sans-Serif" font-size="10.00">+ GetActiveState()</text>
<text text-anchor="start" x="251.5" y="-437.5" font-family="Helvetica,sans-Serif" font-size="10.00">+ TriggerTransition()</text>
<text text-anchor="start" x="251.5" y="-426.5" font-family="Helvetica,sans-Serif" font-size="10.00">+ TriggerTransition()</text>
<text text-anchor="start" x="251.5" y="-415.5" font-family="Helvetica,sans-Serif" font-size="10.00">+ TriggerTransition()</text>
<text text-anchor="start" x="251.5" y="-404.5" font-family="Helvetica,sans-Serif" font-size="10.00">+ AnnounceCurrentState()</text>
<text text-anchor="start" x="251.5" y="-393.5" font-family="Helvetica,sans-Serif" font-size="10.00"># MyAwake()</text>
<text text-anchor="start" x="251.5" y="-382.5" font-family="Helvetica,sans-Serif" font-size="10.00">&#45; Awake()</text>
</a>
</g>
</g>
<!-- Node5&#45;&gt;Node4 -->
<g id="edge3" class="edge"><title>Node5&#45;&gt;Node4</title>
<path fill="none" stroke="midnightblue" d="M338.298,-365.588C351.109,-330.585 365.58,-291.05 376.345,-261.639"/>
<polygon fill="none" stroke="midnightblue" points="334.883,-364.735 334.733,-375.329 341.457,-367.141 334.883,-364.735"/>
</g>
<!-- Node9 -->
<g id="node8" class="node"><title>Node9</title>
<g id="a_node8"><a xlink:href="class_state.html" target="_top" xlink:title="Extended functionality for Unity SM Behaviours and makes them complete &#39;States&#39;. ">
<polygon fill="white" stroke="black" points="197.5,-138.5 197.5,-294.5 301.5,-294.5 301.5,-138.5 197.5,-138.5"/>
<text text-anchor="middle" x="249.5" y="-282.5" font-family="Helvetica,sans-Serif" font-size="10.00">State</text>
<polyline fill="none" stroke="black" points="197.5,-275.5 301.5,-275.5 "/>
<text text-anchor="start" x="205.5" y="-263.5" font-family="Helvetica,sans-Serif" font-size="10.00">+ name</text>
<text text-anchor="start" x="205.5" y="-252.5" font-family="Helvetica,sans-Serif" font-size="10.00">+ triggers</text>
<polyline fill="none" stroke="black" points="197.5,-245.5 301.5,-245.5 "/>
<text text-anchor="start" x="205.5" y="-233.5" font-family="Helvetica,sans-Serif" font-size="10.00">+ IsActiveState()</text>
<text text-anchor="start" x="205.5" y="-222.5" font-family="Helvetica,sans-Serif" font-size="10.00">+ Init()</text>
<text text-anchor="start" x="205.5" y="-211.5" font-family="Helvetica,sans-Serif" font-size="10.00">+ OnStateEnter()</text>
<text text-anchor="start" x="205.5" y="-200.5" font-family="Helvetica,sans-Serif" font-size="10.00">+ OnStateExit()</text>
<text text-anchor="start" x="205.5" y="-189.5" font-family="Helvetica,sans-Serif" font-size="10.00"># AddAutoListener()</text>
<text text-anchor="start" x="205.5" y="-178.5" font-family="Helvetica,sans-Serif" font-size="10.00"># TriggerTransition()</text>
<text text-anchor="start" x="205.5" y="-167.5" font-family="Helvetica,sans-Serif" font-size="10.00"># OnMyStateEnter()</text>
<text text-anchor="start" x="205.5" y="-156.5" font-family="Helvetica,sans-Serif" font-size="10.00"># OnMyStateExit()</text>
<text text-anchor="start" x="205.5" y="-145.5" font-family="Helvetica,sans-Serif" font-size="10.00"># OnMyStateInit()</text>
</a>
</g>
</g>
<!-- Node5&#45;&gt;Node9 -->
<g id="edge9" class="edge"><title>Node5&#45;&gt;Node9</title>
<path fill="none" stroke="#404040" d="M270.061,-375.195C262.924,-358.799 256.472,-341.143 252.5,-324 251.211,-318.436 250.189,-312.666 249.389,-306.819"/>
<polygon fill="none" stroke="#404040" points="249.373,-306.678 244.733,-301.159 248.043,-294.752 252.683,-300.272 249.373,-306.678"/>
<text text-anchor="middle" x="263.5" y="-316" font-family="Helvetica,sans-Serif" font-size="10.00"> #sm</text>
</g>
<!-- Node6 -->
<g id="node5" class="node"><title>Node6</title>
<polygon fill="white" stroke="#bfbfbf" points="215,-601.5 215,-658.5 298,-658.5 298,-601.5 215,-601.5"/>
<text text-anchor="middle" x="256.5" y="-646.5" font-family="Helvetica,sans-Serif" font-size="10.00">MonoBehaviour</text>
<polyline fill="none" stroke="#bfbfbf" points="215,-639.5 298,-639.5 "/>
<text text-anchor="middle" x="256.5" y="-627.5" font-family="Helvetica,sans-Serif" font-size="10.00"> </text>
<polyline fill="none" stroke="#bfbfbf" points="215,-620.5 298,-620.5 "/>
<text text-anchor="middle" x="256.5" y="-608.5" font-family="Helvetica,sans-Serif" font-size="10.00"> </text>
</g>
<!-- Node6&#45;&gt;Node5 -->
<g id="edge4" class="edge"><title>Node6&#45;&gt;Node5</title>
<path fill="none" stroke="midnightblue" d="M267.362,-591.401C273.278,-570.922 280.799,-544.888 287.788,-520.696"/>
<polygon fill="none" stroke="midnightblue" points="263.924,-590.691 264.511,-601.269 270.649,-592.634 263.924,-590.691"/>
</g>
<!-- Node7 -->
<g id="node6" class="node"><title>Node7</title>
<g id="a_node6"><a xlink:href="class_unity_string_event.html" target="_top" xlink:title="{UnityStringEvent\n||}">
<polygon fill="white" stroke="black" points="316,-601.5 316,-658.5 405,-658.5 405,-601.5 316,-601.5"/>
<text text-anchor="middle" x="360.5" y="-646.5" font-family="Helvetica,sans-Serif" font-size="10.00">UnityStringEvent</text>
<polyline fill="none" stroke="black" points="316,-639.5 405,-639.5 "/>
<text text-anchor="middle" x="360.5" y="-627.5" font-family="Helvetica,sans-Serif" font-size="10.00"> </text>
<polyline fill="none" stroke="black" points="316,-620.5 405,-620.5 "/>
<text text-anchor="middle" x="360.5" y="-608.5" font-family="Helvetica,sans-Serif" font-size="10.00"> </text>
</a>
</g>
</g>
<!-- Node7&#45;&gt;Node5 -->
<g id="edge5" class="edge"><title>Node7&#45;&gt;Node5</title>
<path fill="none" stroke="#404040" d="M352.489,-601.269C347.127,-582.71 339.764,-557.222 332.595,-532.406"/>
<polygon fill="none" stroke="#404040" points="332.543,-532.225 327.035,-527.571 329.212,-520.696 334.72,-525.35 332.543,-532.225"/>
<text text-anchor="middle" x="391" y="-575" font-family="Helvetica,sans-Serif" font-size="10.00"> +stateEnteredEvent</text>
</g>
<!-- Node8 -->
<g id="node7" class="node"><title>Node8</title>
<polygon fill="white" stroke="#bfbfbf" points="308,-696.5 308,-753.5 413,-753.5 413,-696.5 308,-696.5"/>
<text text-anchor="middle" x="360.5" y="-741.5" font-family="Helvetica,sans-Serif" font-size="10.00">UnityEvent&lt; string &gt;</text>
<polyline fill="none" stroke="#bfbfbf" points="308,-734.5 413,-734.5 "/>
<text text-anchor="middle" x="360.5" y="-722.5" font-family="Helvetica,sans-Serif" font-size="10.00"> </text>
<polyline fill="none" stroke="#bfbfbf" points="308,-715.5 413,-715.5 "/>
<text text-anchor="middle" x="360.5" y="-703.5" font-family="Helvetica,sans-Serif" font-size="10.00"> </text>
</g>
<!-- Node8&#45;&gt;Node7 -->
<g id="edge6" class="edge"><title>Node8&#45;&gt;Node7</title>
<path fill="none" stroke="midnightblue" d="M360.5,-686.235C360.5,-677.028 360.5,-667.346 360.5,-658.705"/>
<polygon fill="none" stroke="midnightblue" points="357,-686.349 360.5,-696.349 364,-686.349 357,-686.349"/>
</g>
<!-- Node9&#45;&gt;Node5 -->
<g id="edge7" class="edge"><title>Node9&#45;&gt;Node5</title>
<path fill="none" stroke="#404040" d="M273.421,-294.501C275.196,-300.744 276.911,-306.968 278.5,-313 282.775,-329.232 286.968,-346.672 290.801,-363.427"/>
<polygon fill="none" stroke="#404040" points="290.879,-363.775 296.103,-368.746 293.524,-375.48 288.3,-370.509 290.879,-363.775"/>
<text text-anchor="middle" x="309" y="-316" font-family="Helvetica,sans-Serif" font-size="10.00"> #activeState</text>
</g>
<!-- Node10 -->
<g id="node9" class="node"><title>Node10</title>
<polygon fill="white" stroke="#bfbfbf" points="0,-419.5 0,-476.5 119,-476.5 119,-419.5 0,-419.5"/>
<text text-anchor="middle" x="59.5" y="-464.5" font-family="Helvetica,sans-Serif" font-size="10.00">StateMachineBehaviour</text>
<polyline fill="none" stroke="#bfbfbf" points="0,-457.5 119,-457.5 "/>
<text text-anchor="middle" x="59.5" y="-445.5" font-family="Helvetica,sans-Serif" font-size="10.00"> </text>
<polyline fill="none" stroke="#bfbfbf" points="0,-438.5 119,-438.5 "/>
<text text-anchor="middle" x="59.5" y="-426.5" font-family="Helvetica,sans-Serif" font-size="10.00"> </text>
</g>
<!-- Node10&#45;&gt;Node9 -->
<g id="edge8" class="edge"><title>Node10&#45;&gt;Node9</title>
<path fill="none" stroke="midnightblue" d="M79.4449,-410.707C92.0245,-389.489 109.458,-362.865 128.5,-342 151.1,-317.237 163.769,-318.681 187.5,-295 190.793,-291.714 194.081,-288.259 197.329,-284.707"/>
<polygon fill="none" stroke="midnightblue" points="76.3689,-409.034 74.3602,-419.436 82.4177,-412.557 76.3689,-409.034"/>
</g>
<!-- Node11 -->
<g id="node10" class="node"><title>Node11</title>
<g id="a_node10"><a xlink:href="class_listener_group.html" target="_top" xlink:title="Helper class to execute adding and removing on all held Listeners (Events + Callbacks). ">
<polygon fill="white" stroke="black" points="137.5,-403 137.5,-493 225.5,-493 225.5,-403 137.5,-403"/>
<text text-anchor="middle" x="181.5" y="-481" font-family="Helvetica,sans-Serif" font-size="10.00">ListenerGroup</text>
<polyline fill="none" stroke="black" points="137.5,-474 225.5,-474 "/>
<text text-anchor="start" x="145.5" y="-462" font-family="Helvetica,sans-Serif" font-size="10.00">&#45; heldListeners</text>
<polyline fill="none" stroke="black" points="137.5,-455 225.5,-455 "/>
<text text-anchor="start" x="145.5" y="-443" font-family="Helvetica,sans-Serif" font-size="10.00">+ Add()</text>
<text text-anchor="start" x="145.5" y="-432" font-family="Helvetica,sans-Serif" font-size="10.00">+ Add()</text>
<text text-anchor="start" x="145.5" y="-421" font-family="Helvetica,sans-Serif" font-size="10.00">+ ActivateAll()</text>
<text text-anchor="start" x="145.5" y="-410" font-family="Helvetica,sans-Serif" font-size="10.00">+ DeactivateAll()</text>
</a>
</g>
</g>
<!-- Node11&#45;&gt;Node9 -->
<g id="edge10" class="edge"><title>Node11&#45;&gt;Node9</title>
<path fill="none" stroke="#404040" d="M185.537,-402.81C188.744,-376.324 194.273,-342.226 203.5,-313 204.217,-310.73 204.979,-308.445 205.779,-306.153"/>
<polygon fill="none" stroke="#404040" points="205.871,-305.906 204.226,-298.885 210.074,-294.666 211.719,-301.687 205.871,-305.906"/>
<text text-anchor="middle" x="225" y="-316" font-family="Helvetica,sans-Serif" font-size="10.00"> &#45;listeners</text>
</g>
<!-- Node12 -->
<g id="node11" class="node"><title>Node12</title>
<g id="a_node11"><a xlink:href="classnet_1_1_net_event.html" target="_top" xlink:title="{NetEvent\&lt; StringNetData \&gt;\n|&#45; eventCode\l&#45; localEvent\l&#45; target\l&#45; defaultData\l&#45; reliable\l&#45; cachedForRoom\l&#45; hasDefaultData\l|+ NetEvent()\l+ NetEvent()\l+ AddListener()\l+ RemoveListener()\l+ Invoke()\l+ Invoke()\l+ OnEvent()\l&#45; ~NetEvent()\l&#45; GetSpecificTargetActorNr()\l}">
<polygon fill="white" stroke="black" points="392,-342.5 392,-553.5 531,-553.5 531,-342.5 392,-342.5"/>
<text text-anchor="middle" x="461.5" y="-541.5" font-family="Helvetica,sans-Serif" font-size="10.00">NetEvent&lt; StringNetData &gt;</text>
<polyline fill="none" stroke="black" points="392,-534.5 531,-534.5 "/>
<text text-anchor="start" x="400" y="-522.5" font-family="Helvetica,sans-Serif" font-size="10.00">&#45; eventCode</text>
<text text-anchor="start" x="400" y="-511.5" font-family="Helvetica,sans-Serif" font-size="10.00">&#45; localEvent</text>
<text text-anchor="start" x="400" y="-500.5" font-family="Helvetica,sans-Serif" font-size="10.00">&#45; target</text>
<text text-anchor="start" x="400" y="-489.5" font-family="Helvetica,sans-Serif" font-size="10.00">&#45; defaultData</text>
<text text-anchor="start" x="400" y="-478.5" font-family="Helvetica,sans-Serif" font-size="10.00">&#45; reliable</text>
<text text-anchor="start" x="400" y="-467.5" font-family="Helvetica,sans-Serif" font-size="10.00">&#45; cachedForRoom</text>
<text text-anchor="start" x="400" y="-456.5" font-family="Helvetica,sans-Serif" font-size="10.00">&#45; hasDefaultData</text>
<polyline fill="none" stroke="black" points="392,-449.5 531,-449.5 "/>
<text text-anchor="start" x="400" y="-437.5" font-family="Helvetica,sans-Serif" font-size="10.00">+ NetEvent()</text>
<text text-anchor="start" x="400" y="-426.5" font-family="Helvetica,sans-Serif" font-size="10.00">+ NetEvent()</text>
<text text-anchor="start" x="400" y="-415.5" font-family="Helvetica,sans-Serif" font-size="10.00">+ AddListener()</text>
<text text-anchor="start" x="400" y="-404.5" font-family="Helvetica,sans-Serif" font-size="10.00">+ RemoveListener()</text>
<text text-anchor="start" x="400" y="-393.5" font-family="Helvetica,sans-Serif" font-size="10.00">+ Invoke()</text>
<text text-anchor="start" x="400" y="-382.5" font-family="Helvetica,sans-Serif" font-size="10.00">+ Invoke()</text>
<text text-anchor="start" x="400" y="-371.5" font-family="Helvetica,sans-Serif" font-size="10.00">+ OnEvent()</text>
<text text-anchor="start" x="400" y="-360.5" font-family="Helvetica,sans-Serif" font-size="10.00">&#45; ~NetEvent()</text>
<text text-anchor="start" x="400" y="-349.5" font-family="Helvetica,sans-Serif" font-size="10.00">&#45; GetSpecificTargetActorNr()</text>
</a>
</g>
</g>
<!-- Node12&#45;&gt;Node4 -->
<g id="edge11" class="edge"><title>Node12&#45;&gt;Node4</title>
<path fill="none" stroke="#404040" d="M430.029,-342.324C422.865,-318.495 415.525,-294.083 409.258,-273.239"/>
<polygon fill="none" stroke="#404040" points="409.254,-273.225 403.696,-268.631 405.799,-261.733 411.357,-266.327 409.254,-273.225"/>
<text text-anchor="middle" x="459" y="-316" font-family="Helvetica,sans-Serif" font-size="10.00"> +transitionEvent</text>
</g>
</g>
</svg>
