<?xml version="1.0" encoding="UTF-8" standalone="no"?>
<!DOCTYPE svg PUBLIC "-//W3C//DTD SVG 1.1//EN"
 "http://www.w3.org/Graphics/SVG/1.1/DTD/svg11.dtd">
<!-- Generated by graphviz version 2.38.0 (20140413.2041)
 -->
<!-- Title: JoinRoomState Pages: 1 -->
<svg width="465pt" height="956pt"
 viewBox="0.00 0.00 464.50 956.00" xmlns="http://www.w3.org/2000/svg" xmlns:xlink="http://www.w3.org/1999/xlink">
<g id="graph0" class="graph" transform="scale(1 1) rotate(0) translate(4 952)">
<title>JoinRoomState</title>
<polygon fill="white" stroke="none" points="-4,4 -4,-952 460.5,-952 460.5,4 -4,4"/>
<!-- Node4 -->
<g id="node1" class="node"><title>Node4</title>
<polygon fill="#bfbfbf" stroke="black" points="246.5,-0.5 246.5,-101.5 368.5,-101.5 368.5,-0.5 246.5,-0.5"/>
<text text-anchor="middle" x="307.5" y="-89.5" font-family="Helvetica,sans-Serif" font-size="10.00">JoinRoomState</text>
<polyline fill="none" stroke="black" points="246.5,-82.5 368.5,-82.5 "/>
<text text-anchor="middle" x="307.5" y="-70.5" font-family="Helvetica,sans-Serif" font-size="10.00"> </text>
<polyline fill="none" stroke="black" points="246.5,-63.5 368.5,-63.5 "/>
<text text-anchor="start" x="254.5" y="-51.5" font-family="Helvetica,sans-Serif" font-size="10.00"># OnMyStateInit()</text>
<text text-anchor="start" x="254.5" y="-40.5" font-family="Helvetica,sans-Serif" font-size="10.00"># OnOverlayStateEnter()</text>
<text text-anchor="start" x="254.5" y="-29.5" font-family="Helvetica,sans-Serif" font-size="10.00">&#45; OnJoinedRoom()</text>
<text text-anchor="start" x="254.5" y="-18.5" font-family="Helvetica,sans-Serif" font-size="10.00">&#45; OnJoinedRoomFailed()</text>
<text text-anchor="start" x="254.5" y="-7.5" font-family="Helvetica,sans-Serif" font-size="10.00">&#45; OnCancelBtnPressed()</text>
</g>
<!-- Node5 -->
<g id="node2" class="node"><title>Node5</title>
<g id="a_node2"><a xlink:href="classnet_1_1_net_overlay_state.html" target="_top" xlink:title="{NetOverlayState\n|# netOverlayRef\l&#45; minVisibleTime\l&#45; timestampOfStateEntered\l|# TriggerTransitionWithMin\lVisibleTime()\l# OnOverlayStateEnter()\l# OnMyStateEnter()\l}">
<polygon fill="white" stroke="black" points="240,-139.5 240,-251.5 375,-251.5 375,-139.5 240,-139.5"/>
<text text-anchor="middle" x="307.5" y="-239.5" font-family="Helvetica,sans-Serif" font-size="10.00">NetOverlayState</text>
<polyline fill="none" stroke="black" points="240,-232.5 375,-232.5 "/>
<text text-anchor="start" x="248" y="-220.5" font-family="Helvetica,sans-Serif" font-size="10.00"># netOverlayRef</text>
<text text-anchor="start" x="248" y="-209.5" font-family="Helvetica,sans-Serif" font-size="10.00">&#45; minVisibleTime</text>
<text text-anchor="start" x="248" y="-198.5" font-family="Helvetica,sans-Serif" font-size="10.00">&#45; timestampOfStateEntered</text>
<polyline fill="none" stroke="black" points="240,-191.5 375,-191.5 "/>
<text text-anchor="start" x="248" y="-179.5" font-family="Helvetica,sans-Serif" font-size="10.00"># TriggerTransitionWithMin</text>
<text text-anchor="start" x="248" y="-168.5" font-family="Helvetica,sans-Serif" font-size="10.00">VisibleTime()</text>
<text text-anchor="start" x="248" y="-157.5" font-family="Helvetica,sans-Serif" font-size="10.00"># OnOverlayStateEnter()</text>
<text text-anchor="start" x="248" y="-146.5" font-family="Helvetica,sans-Serif" font-size="10.00"># OnMyStateEnter()</text>
</a>
</g>
</g>
<!-- Node5&#45;&gt;Node4 -->
<g id="edge1" class="edge"><title>Node5&#45;&gt;Node4</title>
<path fill="none" stroke="midnightblue" d="M307.5,-129.134C307.5,-119.957 307.5,-110.65 307.5,-101.826"/>
<polygon fill="none" stroke="midnightblue" points="304,-129.406 307.5,-139.406 311,-129.406 304,-129.406"/>
</g>
<!-- Node6 -->
<g id="node3" class="node"><title>Node6</title>
<g id="a_node3"><a xlink:href="class_state.html" target="_top" xlink:title="Extended functionality for Unity SM Behaviours and makes them complete &#39;States&#39;. ">
<polygon fill="white" stroke="black" points="254.5,-653.5 254.5,-809.5 358.5,-809.5 358.5,-653.5 254.5,-653.5"/>
<text text-anchor="middle" x="306.5" y="-797.5" font-family="Helvetica,sans-Serif" font-size="10.00">State</text>
<polyline fill="none" stroke="black" points="254.5,-790.5 358.5,-790.5 "/>
<text text-anchor="start" x="262.5" y="-778.5" font-family="Helvetica,sans-Serif" font-size="10.00">+ name</text>
<text text-anchor="start" x="262.5" y="-767.5" font-family="Helvetica,sans-Serif" font-size="10.00">+ triggers</text>
<polyline fill="none" stroke="black" points="254.5,-760.5 358.5,-760.5 "/>
<text text-anchor="start" x="262.5" y="-748.5" font-family="Helvetica,sans-Serif" font-size="10.00">+ IsActiveState()</text>
<text text-anchor="start" x="262.5" y="-737.5" font-family="Helvetica,sans-Serif" font-size="10.00">+ Init()</text>
<text text-anchor="start" x="262.5" y="-726.5" font-family="Helvetica,sans-Serif" font-size="10.00">+ OnStateEnter()</text>
<text text-anchor="start" x="262.5" y="-715.5" font-family="Helvetica,sans-Serif" font-size="10.00">+ OnStateExit()</text>
<text text-anchor="start" x="262.5" y="-704.5" font-family="Helvetica,sans-Serif" font-size="10.00"># AddAutoListener()</text>
<text text-anchor="start" x="262.5" y="-693.5" font-family="Helvetica,sans-Serif" font-size="10.00"># TriggerTransition()</text>
<text text-anchor="start" x="262.5" y="-682.5" font-family="Helvetica,sans-Serif" font-size="10.00"># OnMyStateEnter()</text>
<text text-anchor="start" x="262.5" y="-671.5" font-family="Helvetica,sans-Serif" font-size="10.00"># OnMyStateExit()</text>
<text text-anchor="start" x="262.5" y="-660.5" font-family="Helvetica,sans-Serif" font-size="10.00"># OnMyStateInit()</text>
</a>
</g>
</g>
<!-- Node6&#45;&gt;Node5 -->
<g id="edge2" class="edge"><title>Node6&#45;&gt;Node5</title>
<path fill="none" stroke="midnightblue" d="M314.028,-643.241C314.198,-640.463 314.356,-637.71 314.5,-635 322.85,-477.848 320.722,-438.363 322.5,-281 322.555,-276.111 322.991,-274.864 322.5,-270 321.898,-264.04 321.028,-257.848 320.006,-251.701"/>
<polygon fill="none" stroke="midnightblue" points="310.525,-643.18 313.366,-653.386 317.51,-643.636 310.525,-643.18"/>
</g>
<!-- Node8 -->
<g id="node5" class="node"><title>Node8</title>
<g id="a_node5"><a xlink:href="class_state_machine.html" target="_top" xlink:title="Common Base class for all state machines. ">
<polygon fill="white" stroke="black" points="161.5,-460.5 161.5,-605.5 291.5,-605.5 291.5,-460.5 161.5,-460.5"/>
<text text-anchor="middle" x="226.5" y="-593.5" font-family="Helvetica,sans-Serif" font-size="10.00">StateMachine</text>
<polyline fill="none" stroke="black" points="161.5,-586.5 291.5,-586.5 "/>
<text text-anchor="start" x="169.5" y="-574.5" font-family="Helvetica,sans-Serif" font-size="10.00">+ logEnabled</text>
<text text-anchor="start" x="169.5" y="-563.5" font-family="Helvetica,sans-Serif" font-size="10.00"># controller</text>
<text text-anchor="start" x="169.5" y="-552.5" font-family="Helvetica,sans-Serif" font-size="10.00">&#45; states</text>
<polyline fill="none" stroke="black" points="161.5,-545.5 291.5,-545.5 "/>
<text text-anchor="start" x="169.5" y="-533.5" font-family="Helvetica,sans-Serif" font-size="10.00">+ GetActiveState()</text>
<text text-anchor="start" x="169.5" y="-522.5" font-family="Helvetica,sans-Serif" font-size="10.00">+ TriggerTransition()</text>
<text text-anchor="start" x="169.5" y="-511.5" font-family="Helvetica,sans-Serif" font-size="10.00">+ TriggerTransition()</text>
<text text-anchor="start" x="169.5" y="-500.5" font-family="Helvetica,sans-Serif" font-size="10.00">+ TriggerTransition()</text>
<text text-anchor="start" x="169.5" y="-489.5" font-family="Helvetica,sans-Serif" font-size="10.00">+ AnnounceCurrentState()</text>
<text text-anchor="start" x="169.5" y="-478.5" font-family="Helvetica,sans-Serif" font-size="10.00"># MyAwake()</text>
<text text-anchor="start" x="169.5" y="-467.5" font-family="Helvetica,sans-Serif" font-size="10.00">&#45; Awake()</text>
</a>
</g>
</g>
<!-- Node6&#45;&gt;Node8 -->
<g id="edge8" class="edge"><title>Node6&#45;&gt;Node8</title>
<path fill="none" stroke="#404040" d="M254.492,-683.996C241.921,-669.665 230.192,-652.901 223.5,-635 221.458,-629.536 219.996,-623.788 219,-617.922"/>
<polygon fill="none" stroke="#404040" points="218.972,-617.684 214.298,-612.193 217.569,-605.766 222.243,-611.258 218.972,-617.684"/>
<text text-anchor="middle" x="252" y="-627" font-family="Helvetica,sans-Serif" font-size="10.00"> #activeState</text>
</g>
<!-- Node7 -->
<g id="node4" class="node"><title>Node7</title>
<polygon fill="white" stroke="#bfbfbf" points="231,-874 231,-931 350,-931 350,-874 231,-874"/>
<text text-anchor="middle" x="290.5" y="-919" font-family="Helvetica,sans-Serif" font-size="10.00">StateMachineBehaviour</text>
<polyline fill="none" stroke="#bfbfbf" points="231,-912 350,-912 "/>
<text text-anchor="middle" x="290.5" y="-900" font-family="Helvetica,sans-Serif" font-size="10.00"> </text>
<polyline fill="none" stroke="#bfbfbf" points="231,-893 350,-893 "/>
<text text-anchor="middle" x="290.5" y="-881" font-family="Helvetica,sans-Serif" font-size="10.00"> </text>
</g>
<!-- Node7&#45;&gt;Node6 -->
<g id="edge3" class="edge"><title>Node7&#45;&gt;Node6</title>
<path fill="none" stroke="midnightblue" d="M294.056,-863.936C295.577,-847.878 297.411,-828.508 299.198,-809.632"/>
<polygon fill="none" stroke="midnightblue" points="290.564,-863.686 293.106,-873.971 297.533,-864.346 290.564,-863.686"/>
</g>
<!-- Node8&#45;&gt;Node6 -->
<g id="edge4" class="edge"><title>Node8&#45;&gt;Node6</title>
<path fill="none" stroke="#404040" d="M275.906,-605.693C279.083,-611.747 282.003,-617.892 284.5,-624 286.807,-629.644 288.883,-635.559 290.748,-641.587"/>
<polygon fill="none" stroke="#404040" points="290.791,-641.737 296.283,-646.41 294.081,-653.277 288.589,-648.604 290.791,-641.737"/>
<text text-anchor="middle" x="299.5" y="-627" font-family="Helvetica,sans-Serif" font-size="10.00"> #sm</text>
</g>
<!-- Node13 -->
<g id="node10" class="node"><title>Node13</title>
<g id="a_node10"><a xlink:href="classnet_1_1_net_state_machine.html" target="_top" xlink:title="{NetStateMachine\n|+ netOverlayPrefab\l&#45; netOverlayInstance\l|+ IsMaster()\l+ GetCurStateName()\l+ GetNetOverlay()\l+ HideNetOverlay()\l# MyAwake()\l&#45; OnDisconnect()\l}">
<polygon fill="white" stroke="black" points="196,-299.5 196,-422.5 307,-422.5 307,-299.5 196,-299.5"/>
<text text-anchor="middle" x="251.5" y="-410.5" font-family="Helvetica,sans-Serif" font-size="10.00">NetStateMachine</text>
<polyline fill="none" stroke="black" points="196,-403.5 307,-403.5 "/>
<text text-anchor="start" x="204" y="-391.5" font-family="Helvetica,sans-Serif" font-size="10.00">+ netOverlayPrefab</text>
<text text-anchor="start" x="204" y="-380.5" font-family="Helvetica,sans-Serif" font-size="10.00">&#45; netOverlayInstance</text>
<polyline fill="none" stroke="black" points="196,-373.5 307,-373.5 "/>
<text text-anchor="start" x="204" y="-361.5" font-family="Helvetica,sans-Serif" font-size="10.00">+ IsMaster()</text>
<text text-anchor="start" x="204" y="-350.5" font-family="Helvetica,sans-Serif" font-size="10.00">+ GetCurStateName()</text>
<text text-anchor="start" x="204" y="-339.5" font-family="Helvetica,sans-Serif" font-size="10.00">+ GetNetOverlay()</text>
<text text-anchor="start" x="204" y="-328.5" font-family="Helvetica,sans-Serif" font-size="10.00">+ HideNetOverlay()</text>
<text text-anchor="start" x="204" y="-317.5" font-family="Helvetica,sans-Serif" font-size="10.00"># MyAwake()</text>
<text text-anchor="start" x="204" y="-306.5" font-family="Helvetica,sans-Serif" font-size="10.00">&#45; OnDisconnect()</text>
</a>
</g>
</g>
<!-- Node8&#45;&gt;Node13 -->
<g id="edge11" class="edge"><title>Node8&#45;&gt;Node13</title>
<path fill="none" stroke="midnightblue" d="M238.507,-450.355C239.873,-441.062 241.248,-431.716 242.565,-422.761"/>
<polygon fill="none" stroke="midnightblue" points="235.022,-449.995 237.03,-460.397 241.948,-451.013 235.022,-449.995"/>
</g>
<!-- Node9 -->
<g id="node6" class="node"><title>Node9</title>
<polygon fill="white" stroke="#bfbfbf" points="0,-703 0,-760 83,-760 83,-703 0,-703"/>
<text text-anchor="middle" x="41.5" y="-748" font-family="Helvetica,sans-Serif" font-size="10.00">MonoBehaviour</text>
<polyline fill="none" stroke="#bfbfbf" points="0,-741 83,-741 "/>
<text text-anchor="middle" x="41.5" y="-729" font-family="Helvetica,sans-Serif" font-size="10.00"> </text>
<polyline fill="none" stroke="#bfbfbf" points="0,-722 83,-722 "/>
<text text-anchor="middle" x="41.5" y="-710" font-family="Helvetica,sans-Serif" font-size="10.00"> </text>
</g>
<!-- Node9&#45;&gt;Node8 -->
<g id="edge5" class="edge"><title>Node9&#45;&gt;Node8</title>
<path fill="none" stroke="midnightblue" d="M62.5419,-694.433C70.9522,-680.99 81.104,-665.877 91.5,-653 111.813,-627.839 137.767,-603.572 161.481,-583.589"/>
<polygon fill="none" stroke="midnightblue" points="59.5391,-692.635 57.2817,-702.986 65.5017,-696.302 59.5391,-692.635"/>
</g>
<!-- Node10 -->
<g id="node7" class="node"><title>Node10</title>
<g id="a_node7"><a xlink:href="class_unity_string_event.html" target="_top" xlink:title="{UnityStringEvent\n||}">
<polygon fill="white" stroke="black" points="101,-703 101,-760 190,-760 190,-703 101,-703"/>
<text text-anchor="middle" x="145.5" y="-748" font-family="Helvetica,sans-Serif" font-size="10.00">UnityStringEvent</text>
<polyline fill="none" stroke="black" points="101,-741 190,-741 "/>
<text text-anchor="middle" x="145.5" y="-729" font-family="Helvetica,sans-Serif" font-size="10.00"> </text>
<polyline fill="none" stroke="black" points="101,-722 190,-722 "/>
<text text-anchor="middle" x="145.5" y="-710" font-family="Helvetica,sans-Serif" font-size="10.00"> </text>
</a>
</g>
</g>
<!-- Node10&#45;&gt;Node8 -->
<g id="edge6" class="edge"><title>Node10&#45;&gt;Node8</title>
<path fill="none" stroke="#404040" d="M132.424,-702.73C123.939,-680.583 116.348,-649.209 127.5,-624 133.41,-610.64 142.391,-598.413 152.577,-587.568"/>
<polygon fill="none" stroke="#404040" points="152.882,-587.265 154.304,-580.195 161.377,-578.789 159.954,-585.858 152.882,-587.265"/>
<text text-anchor="middle" x="172" y="-627" font-family="Helvetica,sans-Serif" font-size="10.00"> +stateEnteredEvent</text>
</g>
<!-- Node11 -->
<g id="node8" class="node"><title>Node11</title>
<polygon fill="white" stroke="#bfbfbf" points="93,-874 93,-931 198,-931 198,-874 93,-874"/>
<text text-anchor="middle" x="145.5" y="-919" font-family="Helvetica,sans-Serif" font-size="10.00">UnityEvent&lt; string &gt;</text>
<polyline fill="none" stroke="#bfbfbf" points="93,-912 198,-912 "/>
<text text-anchor="middle" x="145.5" y="-900" font-family="Helvetica,sans-Serif" font-size="10.00"> </text>
<polyline fill="none" stroke="#bfbfbf" points="93,-893 198,-893 "/>
<text text-anchor="middle" x="145.5" y="-881" font-family="Helvetica,sans-Serif" font-size="10.00"> </text>
</g>
<!-- Node11&#45;&gt;Node10 -->
<g id="edge7" class="edge"><title>Node11&#45;&gt;Node10</title>
<path fill="none" stroke="midnightblue" d="M145.5,-863.828C145.5,-832.367 145.5,-788.248 145.5,-760.017"/>
<polygon fill="none" stroke="midnightblue" points="142,-863.971 145.5,-873.971 149,-863.971 142,-863.971"/>
</g>
<!-- Node12 -->
<g id="node9" class="node"><title>Node12</title>
<g id="a_node9"><a xlink:href="class_listener_group.html" target="_top" xlink:title="Helper class to execute adding and removing on all held Listeners (Events + Callbacks). ">
<polygon fill="white" stroke="black" points="368.5,-857.5 368.5,-947.5 456.5,-947.5 456.5,-857.5 368.5,-857.5"/>
<text text-anchor="middle" x="412.5" y="-935.5" font-family="Helvetica,sans-Serif" font-size="10.00">ListenerGroup</text>
<polyline fill="none" stroke="black" points="368.5,-928.5 456.5,-928.5 "/>
<text text-anchor="start" x="376.5" y="-916.5" font-family="Helvetica,sans-Serif" font-size="10.00">&#45; heldListeners</text>
<polyline fill="none" stroke="black" points="368.5,-909.5 456.5,-909.5 "/>
<text text-anchor="start" x="376.5" y="-897.5" font-family="Helvetica,sans-Serif" font-size="10.00">+ Add()</text>
<text text-anchor="start" x="376.5" y="-886.5" font-family="Helvetica,sans-Serif" font-size="10.00">+ Add()</text>
<text text-anchor="start" x="376.5" y="-875.5" font-family="Helvetica,sans-Serif" font-size="10.00">+ ActivateAll()</text>
<text text-anchor="start" x="376.5" y="-864.5" font-family="Helvetica,sans-Serif" font-size="10.00">+ DeactivateAll()</text>
</a>
</g>
</g>
<!-- Node12&#45;&gt;Node6 -->
<g id="edge9" class="edge"><title>Node12&#45;&gt;Node6</title>
<path fill="none" stroke="#404040" d="M384.65,-857.097C377.438,-845.599 369.418,-832.812 361.34,-819.934"/>
<polygon fill="none" stroke="#404040" points="361.24,-819.775 354.664,-816.817 354.864,-809.609 361.441,-812.566 361.24,-819.775"/>
<text text-anchor="middle" x="394" y="-831" font-family="Helvetica,sans-Serif" font-size="10.00"> &#45;listeners</text>
</g>
<!-- Node13&#45;&gt;Node5 -->
<g id="edge10" class="edge"><title>Node13&#45;&gt;Node5</title>
<path fill="none" stroke="#404040" d="M272.352,-299.119C276.341,-287.475 280.536,-275.225 284.585,-263.404"/>
<polygon fill="none" stroke="#404040" points="284.683,-263.117 282.843,-256.145 288.571,-251.765 290.411,-258.737 284.683,-263.117"/>
<text text-anchor="middle" x="300" y="-273" font-family="Helvetica,sans-Serif" font-size="10.00"> #netSM</text>
</g>
</g>
</svg>
