<?xml version="1.0" encoding="UTF-8" standalone="no"?>
<!DOCTYPE svg PUBLIC "-//W3C//DTD SVG 1.1//EN"
 "http://www.w3.org/Graphics/SVG/1.1/DTD/svg11.dtd">
<!-- Generated by graphviz version 2.38.0 (20140413.2041)
 -->
<!-- Title: StartupState Pages: 1 -->
<svg width="465pt" height="496pt"
 viewBox="0.00 0.00 464.50 496.00" xmlns="http://www.w3.org/2000/svg" xmlns:xlink="http://www.w3.org/1999/xlink">
<g id="graph0" class="graph" transform="scale(1 1) rotate(0) translate(4 492)">
<title>StartupState</title>
<polygon fill="white" stroke="none" points="-4,4 -4,-492 460.5,-492 460.5,4 -4,4"/>
<!-- Node3 -->
<g id="node1" class="node"><title>Node3</title>
<polygon fill="#bfbfbf" stroke="black" points="269.5,-33.5 269.5,-112.5 417.5,-112.5 417.5,-33.5 269.5,-33.5"/>
<text text-anchor="middle" x="343.5" y="-100.5" font-family="Helvetica,sans-Serif" font-size="10.00">StartupState</text>
<polyline fill="none" stroke="black" points="269.5,-93.5 417.5,-93.5 "/>
<text text-anchor="start" x="277.5" y="-81.5" font-family="Helvetica,sans-Serif" font-size="10.00">+ remainDurAfterStartupFinish</text>
<polyline fill="none" stroke="black" points="269.5,-74.5 417.5,-74.5 "/>
<text text-anchor="start" x="277.5" y="-62.5" font-family="Helvetica,sans-Serif" font-size="10.00"># OnMyStateEnter()</text>
<text text-anchor="start" x="277.5" y="-51.5" font-family="Helvetica,sans-Serif" font-size="10.00"># OnMyStateExit()</text>
<text text-anchor="start" x="277.5" y="-40.5" font-family="Helvetica,sans-Serif" font-size="10.00">&#45; OnNetSmStateEntered()</text>
</g>
<!-- Node4 -->
<g id="node2" class="node"><title>Node4</title>
<g id="a_node2"><a xlink:href="class_state.html" target="_top" xlink:title="Extended functionality for Unity SM Behaviours and makes them complete &#39;States&#39;. ">
<polygon fill="white" stroke="black" points="254.5,-193.5 254.5,-349.5 358.5,-349.5 358.5,-193.5 254.5,-193.5"/>
<text text-anchor="middle" x="306.5" y="-337.5" font-family="Helvetica,sans-Serif" font-size="10.00">State</text>
<polyline fill="none" stroke="black" points="254.5,-330.5 358.5,-330.5 "/>
<text text-anchor="start" x="262.5" y="-318.5" font-family="Helvetica,sans-Serif" font-size="10.00">+ name</text>
<text text-anchor="start" x="262.5" y="-307.5" font-family="Helvetica,sans-Serif" font-size="10.00">+ triggers</text>
<polyline fill="none" stroke="black" points="254.5,-300.5 358.5,-300.5 "/>
<text text-anchor="start" x="262.5" y="-288.5" font-family="Helvetica,sans-Serif" font-size="10.00">+ IsActiveState()</text>
<text text-anchor="start" x="262.5" y="-277.5" font-family="Helvetica,sans-Serif" font-size="10.00">+ Init()</text>
<text text-anchor="start" x="262.5" y="-266.5" font-family="Helvetica,sans-Serif" font-size="10.00">+ OnStateEnter()</text>
<text text-anchor="start" x="262.5" y="-255.5" font-family="Helvetica,sans-Serif" font-size="10.00">+ OnStateExit()</text>
<text text-anchor="start" x="262.5" y="-244.5" font-family="Helvetica,sans-Serif" font-size="10.00"># AddAutoListener()</text>
<text text-anchor="start" x="262.5" y="-233.5" font-family="Helvetica,sans-Serif" font-size="10.00"># TriggerTransition()</text>
<text text-anchor="start" x="262.5" y="-222.5" font-family="Helvetica,sans-Serif" font-size="10.00"># OnMyStateEnter()</text>
<text text-anchor="start" x="262.5" y="-211.5" font-family="Helvetica,sans-Serif" font-size="10.00"># OnMyStateExit()</text>
<text text-anchor="start" x="262.5" y="-200.5" font-family="Helvetica,sans-Serif" font-size="10.00"># OnMyStateInit()</text>
</a>
</g>
</g>
<!-- Node4&#45;&gt;Node3 -->
<g id="edge1" class="edge"><title>Node4&#45;&gt;Node3</title>
<path fill="none" stroke="midnightblue" d="M327.813,-183.592C328.4,-180.697 328.965,-177.828 329.5,-175 333.384,-154.476 336.662,-131.413 339.067,-112.513"/>
<polygon fill="none" stroke="midnightblue" points="324.362,-182.994 325.734,-193.5 331.213,-184.431 324.362,-182.994"/>
</g>
<!-- Node6 -->
<g id="node4" class="node"><title>Node6</title>
<g id="a_node4"><a xlink:href="class_state_machine.html" target="_top" xlink:title="Common Base class for all state machines. ">
<polygon fill="white" stroke="black" points="85.5,-0.5 85.5,-145.5 215.5,-145.5 215.5,-0.5 85.5,-0.5"/>
<text text-anchor="middle" x="150.5" y="-133.5" font-family="Helvetica,sans-Serif" font-size="10.00">StateMachine</text>
<polyline fill="none" stroke="black" points="85.5,-126.5 215.5,-126.5 "/>
<text text-anchor="start" x="93.5" y="-114.5" font-family="Helvetica,sans-Serif" font-size="10.00">+ logEnabled</text>
<text text-anchor="start" x="93.5" y="-103.5" font-family="Helvetica,sans-Serif" font-size="10.00"># controller</text>
<text text-anchor="start" x="93.5" y="-92.5" font-family="Helvetica,sans-Serif" font-size="10.00">&#45; states</text>
<polyline fill="none" stroke="black" points="85.5,-85.5 215.5,-85.5 "/>
<text text-anchor="start" x="93.5" y="-73.5" font-family="Helvetica,sans-Serif" font-size="10.00">+ GetActiveState()</text>
<text text-anchor="start" x="93.5" y="-62.5" font-family="Helvetica,sans-Serif" font-size="10.00">+ TriggerTransition()</text>
<text text-anchor="start" x="93.5" y="-51.5" font-family="Helvetica,sans-Serif" font-size="10.00">+ TriggerTransition()</text>
<text text-anchor="start" x="93.5" y="-40.5" font-family="Helvetica,sans-Serif" font-size="10.00">+ TriggerTransition()</text>
<text text-anchor="start" x="93.5" y="-29.5" font-family="Helvetica,sans-Serif" font-size="10.00">+ AnnounceCurrentState()</text>
<text text-anchor="start" x="93.5" y="-18.5" font-family="Helvetica,sans-Serif" font-size="10.00"># MyAwake()</text>
<text text-anchor="start" x="93.5" y="-7.5" font-family="Helvetica,sans-Serif" font-size="10.00">&#45; Awake()</text>
</a>
</g>
</g>
<!-- Node4&#45;&gt;Node6 -->
<g id="edge7" class="edge"><title>Node4&#45;&gt;Node6</title>
<path fill="none" stroke="#404040" d="M254.298,-212.105C243.894,-200.005 233.193,-187.218 223.5,-175 218.486,-168.68 213.384,-162.058 208.325,-155.356"/>
<polygon fill="none" stroke="#404040" points="208.147,-155.117 201.35,-152.707 200.961,-145.506 207.758,-147.917 208.147,-155.117"/>
<text text-anchor="middle" x="252" y="-167" font-family="Helvetica,sans-Serif" font-size="10.00"> #activeState</text>
</g>
<!-- Node5 -->
<g id="node3" class="node"><title>Node5</title>
<polygon fill="white" stroke="#bfbfbf" points="231,-414 231,-471 350,-471 350,-414 231,-414"/>
<text text-anchor="middle" x="290.5" y="-459" font-family="Helvetica,sans-Serif" font-size="10.00">StateMachineBehaviour</text>
<polyline fill="none" stroke="#bfbfbf" points="231,-452 350,-452 "/>
<text text-anchor="middle" x="290.5" y="-440" font-family="Helvetica,sans-Serif" font-size="10.00"> </text>
<polyline fill="none" stroke="#bfbfbf" points="231,-433 350,-433 "/>
<text text-anchor="middle" x="290.5" y="-421" font-family="Helvetica,sans-Serif" font-size="10.00"> </text>
</g>
<!-- Node5&#45;&gt;Node4 -->
<g id="edge2" class="edge"><title>Node5&#45;&gt;Node4</title>
<path fill="none" stroke="midnightblue" d="M294.056,-403.936C295.577,-387.878 297.411,-368.508 299.198,-349.632"/>
<polygon fill="none" stroke="midnightblue" points="290.564,-403.686 293.106,-413.971 297.533,-404.346 290.564,-403.686"/>
</g>
<!-- Node6&#45;&gt;Node4 -->
<g id="edge3" class="edge"><title>Node6&#45;&gt;Node4</title>
<path fill="none" stroke="#404040" d="M215.625,-116.209C248.5,-137.778 282,-160.278 284.5,-164 288.218,-169.534 291.328,-175.568 293.929,-181.858"/>
<polygon fill="none" stroke="#404040" points="294.02,-182.113 299.814,-186.406 298.079,-193.405 292.285,-189.112 294.02,-182.113"/>
<text text-anchor="middle" x="301.5" y="-167" font-family="Helvetica,sans-Serif" font-size="10.00"> #sm</text>
</g>
<!-- Node7 -->
<g id="node5" class="node"><title>Node7</title>
<polygon fill="white" stroke="#bfbfbf" points="0,-243 0,-300 83,-300 83,-243 0,-243"/>
<text text-anchor="middle" x="41.5" y="-288" font-family="Helvetica,sans-Serif" font-size="10.00">MonoBehaviour</text>
<polyline fill="none" stroke="#bfbfbf" points="0,-281 83,-281 "/>
<text text-anchor="middle" x="41.5" y="-269" font-family="Helvetica,sans-Serif" font-size="10.00"> </text>
<polyline fill="none" stroke="#bfbfbf" points="0,-262 83,-262 "/>
<text text-anchor="middle" x="41.5" y="-250" font-family="Helvetica,sans-Serif" font-size="10.00"> </text>
</g>
<!-- Node7&#45;&gt;Node6 -->
<g id="edge4" class="edge"><title>Node7&#45;&gt;Node6</title>
<path fill="none" stroke="midnightblue" d="M61.897,-233.729C75.6257,-208.98 94.1812,-175.529 110.764,-145.634"/>
<polygon fill="none" stroke="midnightblue" points="58.676,-232.321 56.8859,-242.763 64.7973,-235.716 58.676,-232.321"/>
</g>
<!-- Node8 -->
<g id="node6" class="node"><title>Node8</title>
<g id="a_node6"><a xlink:href="class_unity_string_event.html" target="_top" xlink:title="{UnityStringEvent\n||}">
<polygon fill="white" stroke="black" points="101,-243 101,-300 190,-300 190,-243 101,-243"/>
<text text-anchor="middle" x="145.5" y="-288" font-family="Helvetica,sans-Serif" font-size="10.00">UnityStringEvent</text>
<polyline fill="none" stroke="black" points="101,-281 190,-281 "/>
<text text-anchor="middle" x="145.5" y="-269" font-family="Helvetica,sans-Serif" font-size="10.00"> </text>
<polyline fill="none" stroke="black" points="101,-262 190,-262 "/>
<text text-anchor="middle" x="145.5" y="-250" font-family="Helvetica,sans-Serif" font-size="10.00"> </text>
</a>
</g>
</g>
<!-- Node8&#45;&gt;Node6 -->
<g id="edge5" class="edge"><title>Node8&#45;&gt;Node6</title>
<path fill="none" stroke="#404040" d="M130.369,-242.794C120.529,-221.486 110.4,-191.187 115.5,-164 115.911,-161.809 116.374,-159.603 116.882,-157.389"/>
<polygon fill="none" stroke="#404040" points="116.951,-157.126 114.603,-150.308 119.993,-145.518 122.341,-152.336 116.951,-157.126"/>
<text text-anchor="middle" x="160" y="-167" font-family="Helvetica,sans-Serif" font-size="10.00"> +stateEnteredEvent</text>
</g>
<!-- Node9 -->
<g id="node7" class="node"><title>Node9</title>
<polygon fill="white" stroke="#bfbfbf" points="93,-414 93,-471 198,-471 198,-414 93,-414"/>
<text text-anchor="middle" x="145.5" y="-459" font-family="Helvetica,sans-Serif" font-size="10.00">UnityEvent&lt; string &gt;</text>
<polyline fill="none" stroke="#bfbfbf" points="93,-452 198,-452 "/>
<text text-anchor="middle" x="145.5" y="-440" font-family="Helvetica,sans-Serif" font-size="10.00"> </text>
<polyline fill="none" stroke="#bfbfbf" points="93,-433 198,-433 "/>
<text text-anchor="middle" x="145.5" y="-421" font-family="Helvetica,sans-Serif" font-size="10.00"> </text>
</g>
<!-- Node9&#45;&gt;Node8 -->
<g id="edge6" class="edge"><title>Node9&#45;&gt;Node8</title>
<path fill="none" stroke="midnightblue" d="M145.5,-403.828C145.5,-372.367 145.5,-328.248 145.5,-300.017"/>
<polygon fill="none" stroke="midnightblue" points="142,-403.971 145.5,-413.971 149,-403.971 142,-403.971"/>
</g>
<!-- Node10 -->
<g id="node8" class="node"><title>Node10</title>
<g id="a_node8"><a xlink:href="class_listener_group.html" target="_top" xlink:title="Helper class to execute adding and removing on all held Listeners (Events + Callbacks). ">
<polygon fill="white" stroke="black" points="368.5,-397.5 368.5,-487.5 456.5,-487.5 456.5,-397.5 368.5,-397.5"/>
<text text-anchor="middle" x="412.5" y="-475.5" font-family="Helvetica,sans-Serif" font-size="10.00">ListenerGroup</text>
<polyline fill="none" stroke="black" points="368.5,-468.5 456.5,-468.5 "/>
<text text-anchor="start" x="376.5" y="-456.5" font-family="Helvetica,sans-Serif" font-size="10.00">&#45; heldListeners</text>
<polyline fill="none" stroke="black" points="368.5,-449.5 456.5,-449.5 "/>
<text text-anchor="start" x="376.5" y="-437.5" font-family="Helvetica,sans-Serif" font-size="10.00">+ Add()</text>
<text text-anchor="start" x="376.5" y="-426.5" font-family="Helvetica,sans-Serif" font-size="10.00">+ Add()</text>
<text text-anchor="start" x="376.5" y="-415.5" font-family="Helvetica,sans-Serif" font-size="10.00">+ ActivateAll()</text>
<text text-anchor="start" x="376.5" y="-404.5" font-family="Helvetica,sans-Serif" font-size="10.00">+ DeactivateAll()</text>
</a>
</g>
</g>
<!-- Node10&#45;&gt;Node4 -->
<g id="edge8" class="edge"><title>Node10&#45;&gt;Node4</title>
<path fill="none" stroke="#404040" d="M384.65,-397.097C377.438,-385.599 369.418,-372.812 361.34,-359.934"/>
<polygon fill="none" stroke="#404040" points="361.24,-359.775 354.664,-356.817 354.864,-349.609 361.441,-352.566 361.24,-359.775"/>
<text text-anchor="middle" x="394" y="-371" font-family="Helvetica,sans-Serif" font-size="10.00"> &#45;listeners</text>
</g>
</g>
</svg>
