<?xml version="1.0" encoding="UTF-8" standalone="no"?>
<!DOCTYPE svg PUBLIC "-//W3C//DTD SVG 1.1//EN"
 "http://www.w3.org/Graphics/SVG/1.1/DTD/svg11.dtd">
<!-- Generated by graphviz version 2.38.0 (20140413.2041)
 -->
<!-- Title: DisconnectedState Pages: 1 -->
<svg width="391pt" height="1019pt"
 viewBox="0.00 0.00 391.00 1019.00" xmlns="http://www.w3.org/2000/svg" xmlns:xlink="http://www.w3.org/1999/xlink">
<g id="graph0" class="graph" transform="scale(1 1) rotate(0) translate(4 1015)">
<title>DisconnectedState</title>
<polygon fill="white" stroke="none" points="-4,4 -4,-1015 387,-1015 387,4 -4,4"/>
<!-- Node4 -->
<g id="node1" class="node"><title>Node4</title>
<polygon fill="#bfbfbf" stroke="black" points="83,-0.5 83,-68.5 205,-68.5 205,-0.5 83,-0.5"/>
<text text-anchor="middle" x="144" y="-56.5" font-family="Helvetica,sans-Serif" font-size="10.00">DisconnectedState</text>
<polyline fill="none" stroke="black" points="83,-49.5 205,-49.5 "/>
<text text-anchor="middle" x="144" y="-37.5" font-family="Helvetica,sans-Serif" font-size="10.00"> </text>
<polyline fill="none" stroke="black" points="83,-30.5 205,-30.5 "/>
<text text-anchor="start" x="91" y="-18.5" font-family="Helvetica,sans-Serif" font-size="10.00"># OnMyStateInit()</text>
<text text-anchor="start" x="91" y="-7.5" font-family="Helvetica,sans-Serif" font-size="10.00"># OnOverlayStateEnter()</text>
</g>
<!-- Node5 -->
<g id="node2" class="node"><title>Node5</title>
<g id="a_node2"><a xlink:href="classnet_1_1_net_overlay_state.html" target="_top" xlink:title="{NetOverlayState\n|# netOverlayRef\l&#45; minVisibleTime\l&#45; timestampOfStateEntered\l|# TriggerTransitionWithMin\lVisibleTime()\l# OnOverlayStateEnter()\l# OnMyStateEnter()\l}">
<polygon fill="white" stroke="black" points="76.5,-106.5 76.5,-218.5 211.5,-218.5 211.5,-106.5 76.5,-106.5"/>
<text text-anchor="middle" x="144" y="-206.5" font-family="Helvetica,sans-Serif" font-size="10.00">NetOverlayState</text>
<polyline fill="none" stroke="black" points="76.5,-199.5 211.5,-199.5 "/>
<text text-anchor="start" x="84.5" y="-187.5" font-family="Helvetica,sans-Serif" font-size="10.00"># netOverlayRef</text>
<text text-anchor="start" x="84.5" y="-176.5" font-family="Helvetica,sans-Serif" font-size="10.00">&#45; minVisibleTime</text>
<text text-anchor="start" x="84.5" y="-165.5" font-family="Helvetica,sans-Serif" font-size="10.00">&#45; timestampOfStateEntered</text>
<polyline fill="none" stroke="black" points="76.5,-158.5 211.5,-158.5 "/>
<text text-anchor="start" x="84.5" y="-146.5" font-family="Helvetica,sans-Serif" font-size="10.00"># TriggerTransitionWithMin</text>
<text text-anchor="start" x="84.5" y="-135.5" font-family="Helvetica,sans-Serif" font-size="10.00">VisibleTime()</text>
<text text-anchor="start" x="84.5" y="-124.5" font-family="Helvetica,sans-Serif" font-size="10.00"># OnOverlayStateEnter()</text>
<text text-anchor="start" x="84.5" y="-113.5" font-family="Helvetica,sans-Serif" font-size="10.00"># OnMyStateEnter()</text>
</a>
</g>
</g>
<!-- Node5&#45;&gt;Node4 -->
<g id="edge1" class="edge"><title>Node5&#45;&gt;Node4</title>
<path fill="none" stroke="midnightblue" d="M144,-95.9612C144,-86.4839 144,-77.0833 144,-68.6192"/>
<polygon fill="none" stroke="midnightblue" points="140.5,-96.2345 144,-106.235 147.5,-96.2346 140.5,-96.2345"/>
</g>
<!-- Node6 -->
<g id="node3" class="node"><title>Node6</title>
<g id="a_node3"><a xlink:href="class_state.html" target="_top" xlink:title="Non&#45;template variant of the BaseState, expecting to be owned by a standard StateMachine. ">
<polygon fill="white" stroke="black" points="65,-299.5 65,-356.5 105,-356.5 105,-299.5 65,-299.5"/>
<text text-anchor="middle" x="85" y="-344.5" font-family="Helvetica,sans-Serif" font-size="10.00">State</text>
<polyline fill="none" stroke="black" points="65,-337.5 105,-337.5 "/>
<text text-anchor="middle" x="85" y="-325.5" font-family="Helvetica,sans-Serif" font-size="10.00"> </text>
<polyline fill="none" stroke="black" points="65,-318.5 105,-318.5 "/>
<text text-anchor="middle" x="85" y="-306.5" font-family="Helvetica,sans-Serif" font-size="10.00"> </text>
</a>
</g>
</g>
<!-- Node6&#45;&gt;Node5 -->
<g id="edge2" class="edge"><title>Node6&#45;&gt;Node5</title>
<path fill="none" stroke="midnightblue" d="M98.451,-289.725C106.047,-268.676 115.683,-241.971 124.135,-218.551"/>
<polygon fill="none" stroke="midnightblue" points="95.1107,-288.67 95.0085,-299.264 101.695,-291.046 95.1107,-288.67"/>
</g>
<!-- Node7 -->
<g id="node4" class="node"><title>Node7</title>
<g id="a_node4"><a xlink:href="class_base_state.html" target="_top" xlink:title="{BaseState\&lt; StateMachine \&gt;\n|+ name\l+ triggers\l# sm\l&#45; listeners\l|+ IsActiveState()\l+ GetName()\l+ GetTriggers()\l+ Init()\l+ OnStateEnter()\l+ OnStateExit()\l# AddAutoListener()\l# TriggerTransition()\l# OnMyStateEnter()\l# OnMyStateExit()\l# OnMyStateInit()\l}">
<polygon fill="white" stroke="black" points="0,-427.5 0,-627.5 140,-627.5 140,-427.5 0,-427.5"/>
<text text-anchor="middle" x="70" y="-615.5" font-family="Helvetica,sans-Serif" font-size="10.00">BaseState&lt; StateMachine &gt;</text>
<polyline fill="none" stroke="black" points="0,-608.5 140,-608.5 "/>
<text text-anchor="start" x="8" y="-596.5" font-family="Helvetica,sans-Serif" font-size="10.00">+ name</text>
<text text-anchor="start" x="8" y="-585.5" font-family="Helvetica,sans-Serif" font-size="10.00">+ triggers</text>
<text text-anchor="start" x="8" y="-574.5" font-family="Helvetica,sans-Serif" font-size="10.00"># sm</text>
<text text-anchor="start" x="8" y="-563.5" font-family="Helvetica,sans-Serif" font-size="10.00">&#45; listeners</text>
<polyline fill="none" stroke="black" points="0,-556.5 140,-556.5 "/>
<text text-anchor="start" x="8" y="-544.5" font-family="Helvetica,sans-Serif" font-size="10.00">+ IsActiveState()</text>
<text text-anchor="start" x="8" y="-533.5" font-family="Helvetica,sans-Serif" font-size="10.00">+ GetName()</text>
<text text-anchor="start" x="8" y="-522.5" font-family="Helvetica,sans-Serif" font-size="10.00">+ GetTriggers()</text>
<text text-anchor="start" x="8" y="-511.5" font-family="Helvetica,sans-Serif" font-size="10.00">+ Init()</text>
<text text-anchor="start" x="8" y="-500.5" font-family="Helvetica,sans-Serif" font-size="10.00">+ OnStateEnter()</text>
<text text-anchor="start" x="8" y="-489.5" font-family="Helvetica,sans-Serif" font-size="10.00">+ OnStateExit()</text>
<text text-anchor="start" x="8" y="-478.5" font-family="Helvetica,sans-Serif" font-size="10.00"># AddAutoListener()</text>
<text text-anchor="start" x="8" y="-467.5" font-family="Helvetica,sans-Serif" font-size="10.00"># TriggerTransition()</text>
<text text-anchor="start" x="8" y="-456.5" font-family="Helvetica,sans-Serif" font-size="10.00"># OnMyStateEnter()</text>
<text text-anchor="start" x="8" y="-445.5" font-family="Helvetica,sans-Serif" font-size="10.00"># OnMyStateExit()</text>
<text text-anchor="start" x="8" y="-434.5" font-family="Helvetica,sans-Serif" font-size="10.00"># OnMyStateInit()</text>
</a>
</g>
</g>
<!-- Node7&#45;&gt;Node6 -->
<g id="edge3" class="edge"><title>Node7&#45;&gt;Node6</title>
<path fill="none" stroke="midnightblue" d="M78.284,-417.428C79.9948,-394.901 81.6507,-373.099 82.8902,-356.779"/>
<polygon fill="none" stroke="midnightblue" points="74.7894,-417.224 77.522,-427.461 81.7693,-417.755 74.7894,-417.224"/>
</g>
<!-- Node8 -->
<g id="node5" class="node"><title>Node8</title>
<g id="a_node5"><a xlink:href="classnet_1_1_net_state_machine.html" target="_top" xlink:title="{NetStateMachine\n|+ netOverlayPrefab\l&#45; netOverlayInstance\l|+ IsMaster()\l+ GetCurStateName()\l+ GetNetOverlay()\l+ HideNetOverlay()\l# MyAwake()\l&#45; OnDisconnect()\l}">
<polygon fill="white" stroke="black" points="130.5,-266.5 130.5,-389.5 241.5,-389.5 241.5,-266.5 130.5,-266.5"/>
<text text-anchor="middle" x="186" y="-377.5" font-family="Helvetica,sans-Serif" font-size="10.00">NetStateMachine</text>
<polyline fill="none" stroke="black" points="130.5,-370.5 241.5,-370.5 "/>
<text text-anchor="start" x="138.5" y="-358.5" font-family="Helvetica,sans-Serif" font-size="10.00">+ netOverlayPrefab</text>
<text text-anchor="start" x="138.5" y="-347.5" font-family="Helvetica,sans-Serif" font-size="10.00">&#45; netOverlayInstance</text>
<polyline fill="none" stroke="black" points="130.5,-340.5 241.5,-340.5 "/>
<text text-anchor="start" x="138.5" y="-328.5" font-family="Helvetica,sans-Serif" font-size="10.00">+ IsMaster()</text>
<text text-anchor="start" x="138.5" y="-317.5" font-family="Helvetica,sans-Serif" font-size="10.00">+ GetCurStateName()</text>
<text text-anchor="start" x="138.5" y="-306.5" font-family="Helvetica,sans-Serif" font-size="10.00">+ GetNetOverlay()</text>
<text text-anchor="start" x="138.5" y="-295.5" font-family="Helvetica,sans-Serif" font-size="10.00">+ HideNetOverlay()</text>
<text text-anchor="start" x="138.5" y="-284.5" font-family="Helvetica,sans-Serif" font-size="10.00"># MyAwake()</text>
<text text-anchor="start" x="138.5" y="-273.5" font-family="Helvetica,sans-Serif" font-size="10.00">&#45; OnDisconnect()</text>
</a>
</g>
</g>
<!-- Node8&#45;&gt;Node5 -->
<g id="edge4" class="edge"><title>Node8&#45;&gt;Node5</title>
<path fill="none" stroke="#404040" d="M170.361,-266.119C167.37,-254.475 164.223,-242.225 161.186,-230.404"/>
<polygon fill="none" stroke="#404040" points="161.182,-230.387 155.815,-225.571 158.196,-218.765 163.563,-223.581 161.182,-230.387"/>
<text text-anchor="middle" x="183.5" y="-240" font-family="Helvetica,sans-Serif" font-size="10.00"> #netSM</text>
</g>
<!-- Node9 -->
<g id="node6" class="node"><title>Node9</title>
<g id="a_node6"><a xlink:href="class_state_machine.html" target="_top" xlink:title="Common Base class for all state machines. ">
<polygon fill="white" stroke="black" points="158,-449.5 158,-605.5 288,-605.5 288,-449.5 158,-449.5"/>
<text text-anchor="middle" x="223" y="-593.5" font-family="Helvetica,sans-Serif" font-size="10.00">StateMachine</text>
<polyline fill="none" stroke="black" points="158,-586.5 288,-586.5 "/>
<text text-anchor="start" x="166" y="-574.5" font-family="Helvetica,sans-Serif" font-size="10.00">+ logEnabled</text>
<text text-anchor="start" x="166" y="-563.5" font-family="Helvetica,sans-Serif" font-size="10.00">+ globalValidTriggers</text>
<text text-anchor="start" x="166" y="-552.5" font-family="Helvetica,sans-Serif" font-size="10.00"># controller</text>
<text text-anchor="start" x="166" y="-541.5" font-family="Helvetica,sans-Serif" font-size="10.00">&#45; states</text>
<polyline fill="none" stroke="black" points="158,-534.5 288,-534.5 "/>
<text text-anchor="start" x="166" y="-522.5" font-family="Helvetica,sans-Serif" font-size="10.00">+ GetActiveState()</text>
<text text-anchor="start" x="166" y="-511.5" font-family="Helvetica,sans-Serif" font-size="10.00">+ TriggerTransition()</text>
<text text-anchor="start" x="166" y="-500.5" font-family="Helvetica,sans-Serif" font-size="10.00">+ TriggerTransition()</text>
<text text-anchor="start" x="166" y="-489.5" font-family="Helvetica,sans-Serif" font-size="10.00">+ TriggerTransition()</text>
<text text-anchor="start" x="166" y="-478.5" font-family="Helvetica,sans-Serif" font-size="10.00">+ AnnounceCurrentState()</text>
<text text-anchor="start" x="166" y="-467.5" font-family="Helvetica,sans-Serif" font-size="10.00"># MyAwake()</text>
<text text-anchor="start" x="166" y="-456.5" font-family="Helvetica,sans-Serif" font-size="10.00">&#45; Awake()</text>
</a>
</g>
</g>
<!-- Node9&#45;&gt;Node8 -->
<g id="edge5" class="edge"><title>Node9&#45;&gt;Node8</title>
<path fill="none" stroke="midnightblue" d="M206.606,-438.994C203.486,-422.335 200.284,-405.245 197.362,-389.651"/>
<polygon fill="none" stroke="midnightblue" points="203.254,-440.108 208.536,-449.293 210.135,-438.819 203.254,-440.108"/>
</g>
<!-- Node10 -->
<g id="node7" class="node"><title>Node10</title>
<polygon fill="white" stroke="#bfbfbf" points="80.5,-686.5 80.5,-743.5 163.5,-743.5 163.5,-686.5 80.5,-686.5"/>
<text text-anchor="middle" x="122" y="-731.5" font-family="Helvetica,sans-Serif" font-size="10.00">MonoBehaviour</text>
<polyline fill="none" stroke="#bfbfbf" points="80.5,-724.5 163.5,-724.5 "/>
<text text-anchor="middle" x="122" y="-712.5" font-family="Helvetica,sans-Serif" font-size="10.00"> </text>
<polyline fill="none" stroke="#bfbfbf" points="80.5,-705.5 163.5,-705.5 "/>
<text text-anchor="middle" x="122" y="-693.5" font-family="Helvetica,sans-Serif" font-size="10.00"> </text>
</g>
<!-- Node10&#45;&gt;Node9 -->
<g id="edge6" class="edge"><title>Node10&#45;&gt;Node9</title>
<path fill="none" stroke="midnightblue" d="M141.998,-677.271C153.129,-656.827 167.422,-630.577 180.894,-605.833"/>
<polygon fill="none" stroke="midnightblue" points="138.829,-675.773 137.121,-686.229 144.977,-679.12 138.829,-675.773"/>
</g>
<!-- Node11 -->
<g id="node8" class="node"><title>Node11</title>
<g id="a_node8"><a xlink:href="interface_i_state.html" target="_top" xlink:title="{IState\n||+ GetName()\l+ GetTriggers()\l+ Init()\l}">
<polygon fill="white" stroke="black" points="182,-675.5 182,-754.5 264,-754.5 264,-675.5 182,-675.5"/>
<text text-anchor="middle" x="223" y="-742.5" font-family="Helvetica,sans-Serif" font-size="10.00">IState</text>
<polyline fill="none" stroke="black" points="182,-735.5 264,-735.5 "/>
<text text-anchor="middle" x="223" y="-723.5" font-family="Helvetica,sans-Serif" font-size="10.00"> </text>
<polyline fill="none" stroke="black" points="182,-716.5 264,-716.5 "/>
<text text-anchor="start" x="190" y="-704.5" font-family="Helvetica,sans-Serif" font-size="10.00">+ GetName()</text>
<text text-anchor="start" x="190" y="-693.5" font-family="Helvetica,sans-Serif" font-size="10.00">+ GetTriggers()</text>
<text text-anchor="start" x="190" y="-682.5" font-family="Helvetica,sans-Serif" font-size="10.00">+ Init()</text>
</a>
</g>
</g>
<!-- Node11&#45;&gt;Node9 -->
<g id="edge7" class="edge"><title>Node11&#45;&gt;Node9</title>
<path fill="none" stroke="#404040" d="M223,-675.113C223,-658.318 223,-637.917 223,-617.738"/>
<polygon fill="none" stroke="#404040" points="223,-617.576 219,-611.576 223,-605.576 227,-611.576 223,-617.576"/>
<text text-anchor="middle" x="251.5" y="-649" font-family="Helvetica,sans-Serif" font-size="10.00"> #activeState</text>
</g>
<!-- Node12 -->
<g id="node9" class="node"><title>Node12</title>
<g id="a_node9"><a xlink:href="class_game_string_event.html" target="_top" xlink:title="{GameStringEvent\n||}">
<polygon fill="white" stroke="black" points="282,-686.5 282,-743.5 374,-743.5 374,-686.5 282,-686.5"/>
<text text-anchor="middle" x="328" y="-731.5" font-family="Helvetica,sans-Serif" font-size="10.00">GameStringEvent</text>
<polyline fill="none" stroke="black" points="282,-724.5 374,-724.5 "/>
<text text-anchor="middle" x="328" y="-712.5" font-family="Helvetica,sans-Serif" font-size="10.00"> </text>
<polyline fill="none" stroke="black" points="282,-705.5 374,-705.5 "/>
<text text-anchor="middle" x="328" y="-693.5" font-family="Helvetica,sans-Serif" font-size="10.00"> </text>
</a>
</g>
</g>
<!-- Node12&#45;&gt;Node9 -->
<g id="edge8" class="edge"><title>Node12&#45;&gt;Node9</title>
<path fill="none" stroke="#404040" d="M312.28,-686.229C301.718,-667.569 287.164,-641.857 272.871,-616.605"/>
<polygon fill="none" stroke="#404040" points="272.685,-616.276 266.248,-613.025 266.773,-605.833 273.21,-609.084 272.685,-616.276"/>
<text text-anchor="middle" x="338.5" y="-649" font-family="Helvetica,sans-Serif" font-size="10.00"> +stateEnteredEvent</text>
</g>
<!-- Node13 -->
<g id="node10" class="node"><title>Node13</title>
<g id="a_node10"><a xlink:href="class_game_event.html" target="_top" xlink:title="{GameEvent\&lt; string \&gt;\n|+ Event\l+ Event\l|+ Invoke()\l+ Invoke()\l+ AddListener()\l+ AddListener()\l+ RemovedListener()\l+ RemoveListener()\l}">
<polygon fill="white" stroke="black" points="273.5,-792.5 273.5,-915.5 382.5,-915.5 382.5,-792.5 273.5,-792.5"/>
<text text-anchor="middle" x="328" y="-903.5" font-family="Helvetica,sans-Serif" font-size="10.00">GameEvent&lt; string &gt;</text>
<polyline fill="none" stroke="black" points="273.5,-896.5 382.5,-896.5 "/>
<text text-anchor="start" x="281.5" y="-884.5" font-family="Helvetica,sans-Serif" font-size="10.00">+ Event</text>
<text text-anchor="start" x="281.5" y="-873.5" font-family="Helvetica,sans-Serif" font-size="10.00">+ Event</text>
<polyline fill="none" stroke="black" points="273.5,-866.5 382.5,-866.5 "/>
<text text-anchor="start" x="281.5" y="-854.5" font-family="Helvetica,sans-Serif" font-size="10.00">+ Invoke()</text>
<text text-anchor="start" x="281.5" y="-843.5" font-family="Helvetica,sans-Serif" font-size="10.00">+ Invoke()</text>
<text text-anchor="start" x="281.5" y="-832.5" font-family="Helvetica,sans-Serif" font-size="10.00">+ AddListener()</text>
<text text-anchor="start" x="281.5" y="-821.5" font-family="Helvetica,sans-Serif" font-size="10.00">+ AddListener()</text>
<text text-anchor="start" x="281.5" y="-810.5" font-family="Helvetica,sans-Serif" font-size="10.00">+ RemovedListener()</text>
<text text-anchor="start" x="281.5" y="-799.5" font-family="Helvetica,sans-Serif" font-size="10.00">+ RemoveListener()</text>
</a>
</g>
</g>
<!-- Node13&#45;&gt;Node12 -->
<g id="edge9" class="edge"><title>Node13&#45;&gt;Node12</title>
<path fill="none" stroke="midnightblue" d="M328,-781.792C328,-768.288 328,-754.924 328,-743.804"/>
<polygon fill="none" stroke="midnightblue" points="324.5,-782.112 328,-792.112 331.5,-782.112 324.5,-782.112"/>
</g>
<!-- Node14 -->
<g id="node11" class="node"><title>Node14</title>
<polygon fill="white" stroke="#bfbfbf" points="283.5,-953.5 283.5,-1010.5 372.5,-1010.5 372.5,-953.5 283.5,-953.5"/>
<text text-anchor="middle" x="328" y="-998.5" font-family="Helvetica,sans-Serif" font-size="10.00">ScriptableObject</text>
<polyline fill="none" stroke="#bfbfbf" points="283.5,-991.5 372.5,-991.5 "/>
<text text-anchor="middle" x="328" y="-979.5" font-family="Helvetica,sans-Serif" font-size="10.00"> </text>
<polyline fill="none" stroke="#bfbfbf" points="283.5,-972.5 372.5,-972.5 "/>
<text text-anchor="middle" x="328" y="-960.5" font-family="Helvetica,sans-Serif" font-size="10.00"> </text>
</g>
<!-- Node14&#45;&gt;Node13 -->
<g id="edge10" class="edge"><title>Node14&#45;&gt;Node13</title>
<path fill="none" stroke="midnightblue" d="M328,-943.182C328,-934.491 328,-925.033 328,-915.646"/>
<polygon fill="none" stroke="midnightblue" points="324.5,-943.349 328,-953.349 331.5,-943.349 324.5,-943.349"/>
</g>
</g>
</svg>
