<?xml version="1.0" encoding="UTF-8" standalone="no"?>
<!DOCTYPE svg PUBLIC "-//W3C//DTD SVG 1.1//EN"
 "http://www.w3.org/Graphics/SVG/1.1/DTD/svg11.dtd">
<!-- Generated by graphviz version 2.38.0 (20140413.2041)
 -->
<!-- Title: EventOnEnterBehaviour Pages: 1 -->
<svg width="214pt" height="171pt"
 viewBox="0.00 0.00 214.00 171.00" xmlns="http://www.w3.org/2000/svg" xmlns:xlink="http://www.w3.org/1999/xlink">
<g id="graph0" class="graph" transform="scale(1 1) rotate(0) translate(4 167)">
<title>EventOnEnterBehaviour</title>
<polygon fill="white" stroke="none" points="-4,4 -4,-167 210,-167 210,4 -4,4"/>
<!-- Node2 -->
<g id="node1" class="node"><title>Node2</title>
<polygon fill="#bfbfbf" stroke="black" points="56,-0.5 56,-57.5 175,-57.5 175,-0.5 56,-0.5"/>
<text text-anchor="middle" x="115.5" y="-45.5" font-family="Helvetica,sans-Serif" font-size="10.00">EventOnEnterBehaviour</text>
<polyline fill="none" stroke="black" points="56,-38.5 175,-38.5 "/>
<text text-anchor="middle" x="115.5" y="-26.5" font-family="Helvetica,sans-Serif" font-size="10.00"> </text>
<polyline fill="none" stroke="black" points="56,-19.5 175,-19.5 "/>
<text text-anchor="start" x="64" y="-7.5" font-family="Helvetica,sans-Serif" font-size="10.00">+ OnStateEnter()</text>
</g>
<!-- Node3 -->
<g id="node2" class="node"><title>Node3</title>
<polygon fill="white" stroke="#bfbfbf" points="0,-105.5 0,-162.5 119,-162.5 119,-105.5 0,-105.5"/>
<text text-anchor="middle" x="59.5" y="-150.5" font-family="Helvetica,sans-Serif" font-size="10.00">StateMachineBehaviour</text>
<polyline fill="none" stroke="#bfbfbf" points="0,-143.5 119,-143.5 "/>
<text text-anchor="middle" x="59.5" y="-131.5" font-family="Helvetica,sans-Serif" font-size="10.00"> </text>
<polyline fill="none" stroke="#bfbfbf" points="0,-124.5 119,-124.5 "/>
<text text-anchor="middle" x="59.5" y="-112.5" font-family="Helvetica,sans-Serif" font-size="10.00"> </text>
</g>
<!-- Node3&#45;&gt;Node2 -->
<g id="edge1" class="edge"><title>Node3&#45;&gt;Node2</title>
<path fill="none" stroke="midnightblue" d="M79.3974,-96.4029C86.327,-83.6575 93.9811,-69.5794 100.452,-57.6783"/>
<polygon fill="none" stroke="midnightblue" points="76.2087,-94.9406 74.507,-105.398 82.3585,-98.2842 76.2087,-94.9406"/>
</g>
<!-- Node4 -->
<g id="node3" class="node"><title>Node4</title>
<polygon fill="white" stroke="#bfbfbf" points="137,-105.5 137,-162.5 206,-162.5 206,-105.5 137,-105.5"/>
<text text-anchor="middle" x="171.5" y="-150.5" font-family="Helvetica,sans-Serif" font-size="10.00">UnityEngine</text>
<polyline fill="none" stroke="#bfbfbf" points="137,-143.5 206,-143.5 "/>
<text text-anchor="middle" x="171.5" y="-131.5" font-family="Helvetica,sans-Serif" font-size="10.00"> </text>
<polyline fill="none" stroke="#bfbfbf" points="137,-124.5 206,-124.5 "/>
<text text-anchor="middle" x="171.5" y="-112.5" font-family="Helvetica,sans-Serif" font-size="10.00"> </text>
</g>
<!-- Node4&#45;&gt;Node2 -->
<g id="edge2" class="edge"><title>Node4&#45;&gt;Node2</title>
<path fill="none" stroke="#404040" d="M156.493,-105.398C150.341,-94.0833 143.115,-80.7913 136.456,-68.5447"/>
<polygon fill="none" stroke="#404040" points="136.28,-68.2209 129.9,-64.8602 130.548,-57.6783 136.929,-61.0389 136.28,-68.2209"/>
<text text-anchor="middle" x="166" y="-79" font-family="Helvetica,sans-Serif" font-size="10.00"> +onEnter</text>
</g>
</g>
</svg>
