<?xml version="1.0" encoding="UTF-8" standalone="no"?>
<!DOCTYPE svg PUBLIC "-//W3C//DTD SVG 1.1//EN"
 "http://www.w3.org/Graphics/SVG/1.1/DTD/svg11.dtd">
<!-- Generated by graphviz version 2.38.0 (20140413.2041)
 -->
<!-- Title: GameManager Pages: 1 -->
<svg width="171pt" height="248pt"
 viewBox="0.00 0.00 171.00 248.00" xmlns="http://www.w3.org/2000/svg" xmlns:xlink="http://www.w3.org/1999/xlink">
<g id="graph0" class="graph" transform="scale(1 1) rotate(0) translate(4 244)">
<title>GameManager</title>
<polygon fill="white" stroke="none" points="-4,4 -4,-244 167,-244 167,4 -4,4"/>
<!-- Node0 -->
<g id="node1" class="node"><title>Node0</title>
<polygon fill="#bfbfbf" stroke="black" points="28,-0.5 28,-101.5 135,-101.5 135,-0.5 28,-0.5"/>
<text text-anchor="middle" x="81.5" y="-89.5" font-family="Helvetica,sans-Serif" font-size="10.00">GameManager</text>
<polyline fill="none" stroke="black" points="28,-82.5 135,-82.5 "/>
<text text-anchor="start" x="36" y="-70.5" font-family="Helvetica,sans-Serif" font-size="10.00">&#45; gameSM</text>
<text text-anchor="start" x="36" y="-59.5" font-family="Helvetica,sans-Serif" font-size="10.00">&#45; gameVersion</text>
<polyline fill="none" stroke="black" points="28,-52.5 135,-52.5 "/>
<text text-anchor="start" x="36" y="-40.5" font-family="Helvetica,sans-Serif" font-size="10.00">+ QuitGame()</text>
<text text-anchor="start" x="36" y="-29.5" font-family="Helvetica,sans-Serif" font-size="10.00">+ GetStateMachine()</text>
<text text-anchor="start" x="36" y="-18.5" font-family="Helvetica,sans-Serif" font-size="10.00">+ GetVersion()</text>
<text text-anchor="start" x="36" y="-7.5" font-family="Helvetica,sans-Serif" font-size="10.00"># MyAwake()</text>
</g>
<!-- Node1 -->
<g id="node2" class="node"><title>Node1</title>
<g id="a_node2"><a xlink:href="class_mono_singleton.html" target="_top" xlink:title="{MonoSingleton\&lt; GameManager \&gt;\n|# instance\l&#45; logEnabled\l|+ Get()\l# LogIfEnabled()\l# MyAwake()\l&#45; Awake()\l}">
<polygon fill="white" stroke="black" points="0,-138.5 0,-239.5 163,-239.5 163,-138.5 0,-138.5"/>
<text text-anchor="middle" x="81.5" y="-227.5" font-family="Helvetica,sans-Serif" font-size="10.00">MonoSingleton&lt; GameManager &gt;</text>
<polyline fill="none" stroke="black" points="0,-220.5 163,-220.5 "/>
<text text-anchor="start" x="8" y="-208.5" font-family="Helvetica,sans-Serif" font-size="10.00"># instance</text>
<text text-anchor="start" x="8" y="-197.5" font-family="Helvetica,sans-Serif" font-size="10.00">&#45; logEnabled</text>
<polyline fill="none" stroke="black" points="0,-190.5 163,-190.5 "/>
<text text-anchor="start" x="8" y="-178.5" font-family="Helvetica,sans-Serif" font-size="10.00">+ Get()</text>
<text text-anchor="start" x="8" y="-167.5" font-family="Helvetica,sans-Serif" font-size="10.00"># LogIfEnabled()</text>
<text text-anchor="start" x="8" y="-156.5" font-family="Helvetica,sans-Serif" font-size="10.00"># MyAwake()</text>
<text text-anchor="start" x="8" y="-145.5" font-family="Helvetica,sans-Serif" font-size="10.00">&#45; Awake()</text>
</a>
</g>
</g>
<!-- Node1&#45;&gt;Node0 -->
<g id="edge1" class="edge"><title>Node1&#45;&gt;Node0</title>
<path fill="none" stroke="midnightblue" d="M81.5,-128C81.5,-119.271 81.5,-110.363 81.5,-101.863"/>
<polygon fill="none" stroke="midnightblue" points="78.0001,-128.131 81.5,-138.131 85.0001,-128.131 78.0001,-128.131"/>
</g>
</g>
</svg>
