<?xml version="1.0" encoding="UTF-8" standalone="no"?>
<!DOCTYPE svg PUBLIC "-//W3C//DTD SVG 1.1//EN"
 "http://www.w3.org/Graphics/SVG/1.1/DTD/svg11.dtd">
<!-- Generated by graphviz version 2.38.0 (20140413.2041)
 -->
<!-- Title: Unit Pages: 1 -->
<svg width="474pt" height="607pt"
 viewBox="0.00 0.00 473.59 607.00" xmlns="http://www.w3.org/2000/svg" xmlns:xlink="http://www.w3.org/1999/xlink">
<g id="graph0" class="graph" transform="scale(1 1) rotate(0) translate(4 603)">
<title>Unit</title>
<polygon fill="white" stroke="none" points="-4,4 -4,-603 469.588,-603 469.588,4 -4,4"/>
<!-- Node2 -->
<g id="node1" class="node"><title>Node2</title>
<polygon fill="#bfbfbf" stroke="black" points="106.588,-0.5 106.588,-222.5 250.588,-222.5 250.588,-0.5 106.588,-0.5"/>
<text text-anchor="middle" x="178.588" y="-210.5" font-family="Helvetica,sans-Serif" font-size="10.00">Unit</text>
<polyline fill="none" stroke="black" points="106.588,-203.5 250.588,-203.5 "/>
<text text-anchor="start" x="114.588" y="-191.5" font-family="Helvetica,sans-Serif" font-size="10.00">+ controlActiveDebugOverride</text>
<text text-anchor="start" x="114.588" y="-180.5" font-family="Helvetica,sans-Serif" font-size="10.00">+ curMeleeAtkRangeSq</text>
<text text-anchor="start" x="114.588" y="-169.5" font-family="Helvetica,sans-Serif" font-size="10.00">+ curSpeed</text>
<text text-anchor="start" x="114.588" y="-158.5" font-family="Helvetica,sans-Serif" font-size="10.00">&#45; curMeleeAtkRange</text>
<text text-anchor="start" x="114.588" y="-147.5" font-family="Helvetica,sans-Serif" font-size="10.00">&#45; curMeleeAtkDelay</text>
<text text-anchor="start" x="114.588" y="-136.5" font-family="Helvetica,sans-Serif" font-size="10.00">&#45; curConewidth</text>
<text text-anchor="start" x="114.588" y="-125.5" font-family="Helvetica,sans-Serif" font-size="10.00">&#45; curMeleeAtkCooldown</text>
<text text-anchor="start" x="114.588" y="-114.5" font-family="Helvetica,sans-Serif" font-size="10.00">&#45; curAttackSpeed</text>
<text text-anchor="start" x="114.588" y="-103.5" font-family="Helvetica,sans-Serif" font-size="10.00">&#45; curAttackDamage</text>
<text text-anchor="start" x="114.588" y="-92.5" font-family="Helvetica,sans-Serif" font-size="10.00">&#45; pv</text>
<text text-anchor="start" x="114.588" y="-81.5" font-family="Helvetica,sans-Serif" font-size="10.00">&#45; attackAvailable</text>
<polyline fill="none" stroke="black" points="106.588,-74.5 250.588,-74.5 "/>
<text text-anchor="start" x="114.588" y="-62.5" font-family="Helvetica,sans-Serif" font-size="10.00">+ TryMeleeAttack()</text>
<text text-anchor="start" x="114.588" y="-51.5" font-family="Helvetica,sans-Serif" font-size="10.00">+ IsControlActive()</text>
<text text-anchor="start" x="114.588" y="-40.5" font-family="Helvetica,sans-Serif" font-size="10.00">&#45; Awake()</text>
<text text-anchor="start" x="114.588" y="-29.5" font-family="Helvetica,sans-Serif" font-size="10.00">&#45; EvalMeleeAttack()</text>
<text text-anchor="start" x="114.588" y="-18.5" font-family="Helvetica,sans-Serif" font-size="10.00">&#45; AnimateMeleeAttack()</text>
<text text-anchor="start" x="114.588" y="-7.5" font-family="Helvetica,sans-Serif" font-size="10.00">&#45; HitMeleeAttack()</text>
</g>
<!-- Node3 -->
<g id="node2" class="node"><title>Node3</title>
<polygon fill="white" stroke="#bfbfbf" points="63.0876,-541.5 63.0876,-598.5 146.088,-598.5 146.088,-541.5 63.0876,-541.5"/>
<text text-anchor="middle" x="104.588" y="-586.5" font-family="Helvetica,sans-Serif" font-size="10.00">MonoBehaviour</text>
<polyline fill="none" stroke="#bfbfbf" points="63.0876,-579.5 146.088,-579.5 "/>
<text text-anchor="middle" x="104.588" y="-567.5" font-family="Helvetica,sans-Serif" font-size="10.00"> </text>
<polyline fill="none" stroke="#bfbfbf" points="63.0876,-560.5 146.088,-560.5 "/>
<text text-anchor="middle" x="104.588" y="-548.5" font-family="Helvetica,sans-Serif" font-size="10.00"> </text>
</g>
<!-- Node3&#45;&gt;Node2 -->
<g id="edge1" class="edge"><title>Node3&#45;&gt;Node2</title>
<path fill="none" stroke="midnightblue" d="M55.0229,-536.082C45.1271,-526.958 36.0939,-516.166 30.5876,-504 -12.2965,-409.253 -7.71332,-366.69 30.5876,-270 46.2024,-230.58 76.8685,-195.274 106.256,-168.129"/>
<polygon fill="none" stroke="midnightblue" points="52.8598,-538.839 62.7143,-542.73 57.4371,-533.542 52.8598,-538.839"/>
</g>
<!-- Node4 -->
<g id="node3" class="node"><title>Node4</title>
<g id="a_node3"><a xlink:href="class_unit_sprite_animator.html" target="_top" xlink:title="Triggers the Sprite Animator depending on actual current movement. ">
<polygon fill="white" stroke="black" points="40.0876,-325.5 40.0876,-448.5 169.088,-448.5 169.088,-325.5 40.0876,-325.5"/>
<text text-anchor="middle" x="104.588" y="-436.5" font-family="Helvetica,sans-Serif" font-size="10.00">UnitSpriteAnimator</text>
<polyline fill="none" stroke="black" points="40.0876,-429.5 169.088,-429.5 "/>
<text text-anchor="start" x="48.0876" y="-417.5" font-family="Helvetica,sans-Serif" font-size="10.00">&#45; v</text>
<text text-anchor="start" x="48.0876" y="-406.5" font-family="Helvetica,sans-Serif" font-size="10.00">&#45; rb</text>
<text text-anchor="start" x="48.0876" y="-395.5" font-family="Helvetica,sans-Serif" font-size="10.00">&#45; anim</text>
<text text-anchor="start" x="48.0876" y="-384.5" font-family="Helvetica,sans-Serif" font-size="10.00">&#45; rbLastPos</text>
<polyline fill="none" stroke="black" points="40.0876,-377.5 169.088,-377.5 "/>
<text text-anchor="start" x="48.0876" y="-365.5" font-family="Helvetica,sans-Serif" font-size="10.00">+ AnimateAttack()</text>
<text text-anchor="start" x="48.0876" y="-354.5" font-family="Helvetica,sans-Serif" font-size="10.00">&#45; Awake()</text>
<text text-anchor="start" x="48.0876" y="-343.5" font-family="Helvetica,sans-Serif" font-size="10.00">&#45; FixedUpdate()</text>
<text text-anchor="start" x="48.0876" y="-332.5" font-family="Helvetica,sans-Serif" font-size="10.00">&#45; UpdateTrackedVelocity()</text>
</a>
</g>
</g>
<!-- Node3&#45;&gt;Node4 -->
<g id="edge3" class="edge"><title>Node3&#45;&gt;Node4</title>
<path fill="none" stroke="midnightblue" d="M104.588,-531.039C104.588,-507.153 104.588,-475.796 104.588,-448.53"/>
<polygon fill="none" stroke="midnightblue" points="101.088,-531.115 104.588,-541.115 108.088,-531.115 101.088,-531.115"/>
</g>
<!-- Node5 -->
<g id="node4" class="node"><title>Node5</title>
<g id="a_node4"><a xlink:href="classmechanics_1_1_destructible.html" target="_top" xlink:title="Destructibles have hit points and are affected by damage sources. ">
<polygon fill="white" stroke="black" points="187.588,-270.5 187.588,-503.5 321.588,-503.5 321.588,-270.5 187.588,-270.5"/>
<text text-anchor="middle" x="254.588" y="-491.5" font-family="Helvetica,sans-Serif" font-size="10.00">Destructible</text>
<polyline fill="none" stroke="black" points="187.588,-484.5 321.588,-484.5 "/>
<text text-anchor="start" x="195.588" y="-472.5" font-family="Helvetica,sans-Serif" font-size="10.00">+ isNeutral</text>
<text text-anchor="start" x="195.588" y="-461.5" font-family="Helvetica,sans-Serif" font-size="10.00">+ brokenObjectPrefab</text>
<text text-anchor="start" x="195.588" y="-450.5" font-family="Helvetica,sans-Serif" font-size="10.00">+ destroyedAfter</text>
<text text-anchor="start" x="195.588" y="-439.5" font-family="Helvetica,sans-Serif" font-size="10.00">+ hitpoints</text>
<text text-anchor="start" x="195.588" y="-428.5" font-family="Helvetica,sans-Serif" font-size="10.00">+ sync</text>
<text text-anchor="start" x="195.588" y="-417.5" font-family="Helvetica,sans-Serif" font-size="10.00">+ destroyedEvent</text>
<text text-anchor="start" x="195.588" y="-406.5" font-family="Helvetica,sans-Serif" font-size="10.00">+ dmgReceivedEvent</text>
<text text-anchor="start" x="195.588" y="-395.5" font-family="Helvetica,sans-Serif" font-size="10.00">&#45; potentialPhotonView</text>
<polyline fill="none" stroke="black" points="187.588,-388.5 321.588,-388.5 "/>
<text text-anchor="start" x="195.588" y="-376.5" font-family="Helvetica,sans-Serif" font-size="10.00">+ Hit()</text>
<text text-anchor="start" x="195.588" y="-365.5" font-family="Helvetica,sans-Serif" font-size="10.00">+ IsAlive()</text>
<text text-anchor="start" x="195.588" y="-354.5" font-family="Helvetica,sans-Serif" font-size="10.00">+ IsEnemy()</text>
<text text-anchor="start" x="195.588" y="-343.5" font-family="Helvetica,sans-Serif" font-size="10.00">+ IsMine()</text>
<text text-anchor="start" x="195.588" y="-332.5" font-family="Helvetica,sans-Serif" font-size="10.00">+ OnPhotonSerializeView()</text>
<text text-anchor="start" x="195.588" y="-321.5" font-family="Helvetica,sans-Serif" font-size="10.00">+ Kill()</text>
<text text-anchor="start" x="195.588" y="-310.5" font-family="Helvetica,sans-Serif" font-size="10.00">&#45; Awake()</text>
<text text-anchor="start" x="195.588" y="-299.5" font-family="Helvetica,sans-Serif" font-size="10.00">&#45; Break()</text>
<text text-anchor="start" x="195.588" y="-288.5" font-family="Helvetica,sans-Serif" font-size="10.00">&#45; Throw()</text>
<text text-anchor="start" x="195.588" y="-277.5" font-family="Helvetica,sans-Serif" font-size="10.00">&#45; SelfDestruct()</text>
</a>
</g>
</g>
<!-- Node3&#45;&gt;Node5 -->
<g id="edge5" class="edge"><title>Node3&#45;&gt;Node5</title>
<path fill="none" stroke="midnightblue" d="M146.941,-534.603C157.469,-525.181 168.37,-514.623 177.588,-504 180.914,-500.166 184.213,-496.18 187.467,-492.094"/>
<polygon fill="none" stroke="midnightblue" points="144.578,-532.02 139.37,-541.246 149.195,-537.281 144.578,-532.02"/>
</g>
<!-- Node4&#45;&gt;Node2 -->
<g id="edge2" class="edge"><title>Node4&#45;&gt;Node2</title>
<path fill="none" stroke="#404040" d="M121.011,-325.301C128.26,-298.509 137.054,-266.005 145.565,-234.55"/>
<polygon fill="none" stroke="#404040" points="145.675,-234.144 143.381,-227.308 148.809,-222.561 151.103,-229.397 145.675,-234.144"/>
<text text-anchor="middle" x="167.088" y="-244" font-family="Helvetica,sans-Serif" font-size="10.00"> &#45;unitAnim</text>
</g>
<!-- Node5&#45;&gt;Node2 -->
<g id="edge4" class="edge"><title>Node5&#45;&gt;Node2</title>
<path fill="none" stroke="#404040" d="M222.467,-270.408C219.185,-258.599 215.844,-246.574 212.544,-234.698"/>
<polygon fill="none" stroke="#404040" points="212.474,-234.446 207.013,-229.736 209.261,-222.884 214.721,-227.594 212.474,-234.446"/>
<text text-anchor="middle" x="245.088" y="-244" font-family="Helvetica,sans-Serif" font-size="10.00"> &#45;destructible</text>
</g>
<!-- Node6 -->
<g id="node5" class="node"><title>Node6</title>
<polygon fill="white" stroke="#bfbfbf" points="212.588,-541.5 212.588,-598.5 296.588,-598.5 296.588,-541.5 212.588,-541.5"/>
<text text-anchor="middle" x="254.588" y="-586.5" font-family="Helvetica,sans-Serif" font-size="10.00">IPunObservable</text>
<polyline fill="none" stroke="#bfbfbf" points="212.588,-579.5 296.588,-579.5 "/>
<text text-anchor="middle" x="254.588" y="-567.5" font-family="Helvetica,sans-Serif" font-size="10.00"> </text>
<polyline fill="none" stroke="#bfbfbf" points="212.588,-560.5 296.588,-560.5 "/>
<text text-anchor="middle" x="254.588" y="-548.5" font-family="Helvetica,sans-Serif" font-size="10.00"> </text>
</g>
<!-- Node6&#45;&gt;Node5 -->
<g id="edge6" class="edge"><title>Node6&#45;&gt;Node5</title>
<path fill="none" stroke="midnightblue" d="M254.588,-531.008C254.588,-522.609 254.588,-513.288 254.588,-503.547"/>
<polygon fill="none" stroke="midnightblue" points="251.088,-531.115 254.588,-541.115 258.088,-531.115 251.088,-531.115"/>
</g>
<!-- Node7 -->
<g id="node6" class="node"><title>Node7</title>
<g id="a_node6"><a xlink:href="class_unit_info.html" target="_top" xlink:title="{UnitInfo\n|+ buildtime\l+ prefab\l+ attackRange\l+ attackDamage\l+ hitpoints\l+ attackCooldown\l+ moveSpeed\l+ attackSpeed\l+ speedPenaltyOnAttack\l+ carryStrength\l|}">
<polygon fill="white" stroke="black" points="339.588,-309 339.588,-465 465.588,-465 465.588,-309 339.588,-309"/>
<text text-anchor="middle" x="402.588" y="-453" font-family="Helvetica,sans-Serif" font-size="10.00">UnitInfo</text>
<polyline fill="none" stroke="black" points="339.588,-446 465.588,-446 "/>
<text text-anchor="start" x="347.588" y="-434" font-family="Helvetica,sans-Serif" font-size="10.00">+ buildtime</text>
<text text-anchor="start" x="347.588" y="-423" font-family="Helvetica,sans-Serif" font-size="10.00">+ prefab</text>
<text text-anchor="start" x="347.588" y="-412" font-family="Helvetica,sans-Serif" font-size="10.00">+ attackRange</text>
<text text-anchor="start" x="347.588" y="-401" font-family="Helvetica,sans-Serif" font-size="10.00">+ attackDamage</text>
<text text-anchor="start" x="347.588" y="-390" font-family="Helvetica,sans-Serif" font-size="10.00">+ hitpoints</text>
<text text-anchor="start" x="347.588" y="-379" font-family="Helvetica,sans-Serif" font-size="10.00">+ attackCooldown</text>
<text text-anchor="start" x="347.588" y="-368" font-family="Helvetica,sans-Serif" font-size="10.00">+ moveSpeed</text>
<text text-anchor="start" x="347.588" y="-357" font-family="Helvetica,sans-Serif" font-size="10.00">+ attackSpeed</text>
<text text-anchor="start" x="347.588" y="-346" font-family="Helvetica,sans-Serif" font-size="10.00">+ speedPenaltyOnAttack</text>
<text text-anchor="start" x="347.588" y="-335" font-family="Helvetica,sans-Serif" font-size="10.00">+ carryStrength</text>
<polyline fill="none" stroke="black" points="339.588,-328 465.588,-328 "/>
<text text-anchor="middle" x="402.588" y="-316" font-family="Helvetica,sans-Serif" font-size="10.00"> </text>
</a>
</g>
</g>
<!-- Node7&#45;&gt;Node2 -->
<g id="edge7" class="edge"><title>Node7&#45;&gt;Node2</title>
<path fill="none" stroke="#404040" d="M357.962,-308.938C349.353,-295.618 340.053,-282.157 330.588,-270 309.078,-242.374 283.362,-214.232 259.254,-189.524"/>
<polygon fill="none" stroke="#404040" points="259.219,-189.488 252.159,-188.016 250.803,-180.934 257.862,-182.406 259.219,-189.488"/>
<text text-anchor="middle" x="329.088" y="-244" font-family="Helvetica,sans-Serif" font-size="10.00"> +info</text>
</g>
<!-- Node8 -->
<g id="node7" class="node"><title>Node8</title>
<polygon fill="white" stroke="#bfbfbf" points="358.088,-541.5 358.088,-598.5 447.088,-598.5 447.088,-541.5 358.088,-541.5"/>
<text text-anchor="middle" x="402.588" y="-586.5" font-family="Helvetica,sans-Serif" font-size="10.00">ScriptableObject</text>
<polyline fill="none" stroke="#bfbfbf" points="358.088,-579.5 447.088,-579.5 "/>
<text text-anchor="middle" x="402.588" y="-567.5" font-family="Helvetica,sans-Serif" font-size="10.00"> </text>
<polyline fill="none" stroke="#bfbfbf" points="358.088,-560.5 447.088,-560.5 "/>
<text text-anchor="middle" x="402.588" y="-548.5" font-family="Helvetica,sans-Serif" font-size="10.00"> </text>
</g>
<!-- Node8&#45;&gt;Node7 -->
<g id="edge8" class="edge"><title>Node8&#45;&gt;Node7</title>
<path fill="none" stroke="midnightblue" d="M402.588,-531.019C402.588,-511.89 402.588,-487.974 402.588,-465.206"/>
<polygon fill="none" stroke="midnightblue" points="399.088,-531.115 402.588,-541.115 406.088,-531.115 399.088,-531.115"/>
</g>
</g>
</svg>
