<?xml version="1.0" encoding="UTF-8" standalone="no"?>
<!DOCTYPE svg PUBLIC "-//W3C//DTD SVG 1.1//EN"
 "http://www.w3.org/Graphics/SVG/1.1/DTD/svg11.dtd">
<!-- Generated by graphviz version 2.38.0 (20140413.2041)
 -->
<!-- Title: GameManager Pages: 1 -->
<svg width="171pt" height="270pt"
 viewBox="0.00 0.00 171.00 270.00" xmlns="http://www.w3.org/2000/svg" xmlns:xlink="http://www.w3.org/1999/xlink">
<g id="graph0" class="graph" transform="scale(1 1) rotate(0) translate(4 266)">
<title>GameManager</title>
<polygon fill="white" stroke="none" points="-4,4 -4,-266 167,-266 167,4 -4,4"/>
<!-- Node0 -->
<g id="node1" class="node"><title>Node0</title>
<polygon fill="#bfbfbf" stroke="black" points="5.5,-0.5 5.5,-123.5 157.5,-123.5 157.5,-0.5 5.5,-0.5"/>
<text text-anchor="middle" x="81.5" y="-111.5" font-family="Helvetica,sans-Serif" font-size="10.00">GameManager</text>
<polyline fill="none" stroke="black" points="5.5,-104.5 157.5,-104.5 "/>
<text text-anchor="start" x="13.5" y="-92.5" font-family="Helvetica,sans-Serif" font-size="10.00">+ mainMenuStateEnteredEvent</text>
<text text-anchor="start" x="13.5" y="-81.5" font-family="Helvetica,sans-Serif" font-size="10.00">&#45; gameSM</text>
<text text-anchor="start" x="13.5" y="-70.5" font-family="Helvetica,sans-Serif" font-size="10.00">&#45; gameVersion</text>
<polyline fill="none" stroke="black" points="5.5,-63.5 157.5,-63.5 "/>
<text text-anchor="start" x="13.5" y="-51.5" font-family="Helvetica,sans-Serif" font-size="10.00">+ QuitGame()</text>
<text text-anchor="start" x="13.5" y="-40.5" font-family="Helvetica,sans-Serif" font-size="10.00">+ GetStateMachine()</text>
<text text-anchor="start" x="13.5" y="-29.5" font-family="Helvetica,sans-Serif" font-size="10.00">+ GetVersion()</text>
<text text-anchor="start" x="13.5" y="-18.5" font-family="Helvetica,sans-Serif" font-size="10.00"># MyAwake()</text>
<text text-anchor="start" x="13.5" y="-7.5" font-family="Helvetica,sans-Serif" font-size="10.00">&#45; OnMainMenuStateEntered()</text>
</g>
<!-- Node1 -->
<g id="node2" class="node"><title>Node1</title>
<g id="a_node2"><a xlink:href="class_mono_singleton.html" target="_top" xlink:title="{MonoSingleton\&lt; GameManager \&gt;\n|# instance\l&#45; logEnabled\l|+ Get()\l# LogIfEnabled()\l# MyAwake()\l&#45; Awake()\l}">
<polygon fill="white" stroke="black" points="0,-160.5 0,-261.5 163,-261.5 163,-160.5 0,-160.5"/>
<text text-anchor="middle" x="81.5" y="-249.5" font-family="Helvetica,sans-Serif" font-size="10.00">MonoSingleton&lt; GameManager &gt;</text>
<polyline fill="none" stroke="black" points="0,-242.5 163,-242.5 "/>
<text text-anchor="start" x="8" y="-230.5" font-family="Helvetica,sans-Serif" font-size="10.00"># instance</text>
<text text-anchor="start" x="8" y="-219.5" font-family="Helvetica,sans-Serif" font-size="10.00">&#45; logEnabled</text>
<polyline fill="none" stroke="black" points="0,-212.5 163,-212.5 "/>
<text text-anchor="start" x="8" y="-200.5" font-family="Helvetica,sans-Serif" font-size="10.00">+ Get()</text>
<text text-anchor="start" x="8" y="-189.5" font-family="Helvetica,sans-Serif" font-size="10.00"># LogIfEnabled()</text>
<text text-anchor="start" x="8" y="-178.5" font-family="Helvetica,sans-Serif" font-size="10.00"># MyAwake()</text>
<text text-anchor="start" x="8" y="-167.5" font-family="Helvetica,sans-Serif" font-size="10.00">&#45; Awake()</text>
</a>
</g>
</g>
<!-- Node1&#45;&gt;Node0 -->
<g id="edge1" class="edge"><title>Node1&#45;&gt;Node0</title>
<path fill="none" stroke="midnightblue" d="M81.5,-150.139C81.5,-141.411 81.5,-132.417 81.5,-123.672"/>
<polygon fill="none" stroke="midnightblue" points="78.0001,-150.232 81.5,-160.233 85.0001,-150.233 78.0001,-150.232"/>
</g>
</g>
</svg>
