<?xml version="1.0" encoding="UTF-8" standalone="no"?>
<!DOCTYPE svg PUBLIC "-//W3C//DTD SVG 1.1//EN"
 "http://www.w3.org/Graphics/SVG/1.1/DTD/svg11.dtd">
<!-- Generated by graphviz version 2.38.0 (20140413.2041)
 -->
<!-- Title: BaseState&lt; SMType &gt; Pages: 1 -->
<svg width="228pt" height="325pt"
 viewBox="0.00 0.00 227.50 325.00" xmlns="http://www.w3.org/2000/svg" xmlns:xlink="http://www.w3.org/1999/xlink">
<g id="graph0" class="graph" transform="scale(1 1) rotate(0) translate(4 321)">
<title>BaseState&lt; SMType &gt;</title>
<polygon fill="white" stroke="none" points="-4,4 -4,-321 223.5,-321 223.5,4 -4,4"/>
<!-- Node0 -->
<g id="node1" class="node"><title>Node0</title>
<polygon fill="#bfbfbf" stroke="black" points="60.5,-0.5 60.5,-200.5 176.5,-200.5 176.5,-0.5 60.5,-0.5"/>
<text text-anchor="middle" x="118.5" y="-188.5" font-family="Helvetica,sans-Serif" font-size="10.00">BaseState&lt; SMType &gt;</text>
<polyline fill="none" stroke="black" points="60.5,-181.5 176.5,-181.5 "/>
<text text-anchor="start" x="68.5" y="-169.5" font-family="Helvetica,sans-Serif" font-size="10.00">+ name</text>
<text text-anchor="start" x="68.5" y="-158.5" font-family="Helvetica,sans-Serif" font-size="10.00">+ triggers</text>
<text text-anchor="start" x="68.5" y="-147.5" font-family="Helvetica,sans-Serif" font-size="10.00"># sm</text>
<text text-anchor="start" x="68.5" y="-136.5" font-family="Helvetica,sans-Serif" font-size="10.00">&#45; listeners</text>
<polyline fill="none" stroke="black" points="60.5,-129.5 176.5,-129.5 "/>
<text text-anchor="start" x="68.5" y="-117.5" font-family="Helvetica,sans-Serif" font-size="10.00">+ IsActiveState()</text>
<text text-anchor="start" x="68.5" y="-106.5" font-family="Helvetica,sans-Serif" font-size="10.00">+ GetName()</text>
<text text-anchor="start" x="68.5" y="-95.5" font-family="Helvetica,sans-Serif" font-size="10.00">+ GetTriggers()</text>
<text text-anchor="start" x="68.5" y="-84.5" font-family="Helvetica,sans-Serif" font-size="10.00">+ Init()</text>
<text text-anchor="start" x="68.5" y="-73.5" font-family="Helvetica,sans-Serif" font-size="10.00">+ OnStateEnter()</text>
<text text-anchor="start" x="68.5" y="-62.5" font-family="Helvetica,sans-Serif" font-size="10.00">+ OnStateExit()</text>
<text text-anchor="start" x="68.5" y="-51.5" font-family="Helvetica,sans-Serif" font-size="10.00"># AddAutoListener()</text>
<text text-anchor="start" x="68.5" y="-40.5" font-family="Helvetica,sans-Serif" font-size="10.00"># TriggerTransition()</text>
<text text-anchor="start" x="68.5" y="-29.5" font-family="Helvetica,sans-Serif" font-size="10.00"># OnMyStateEnter()</text>
<text text-anchor="start" x="68.5" y="-18.5" font-family="Helvetica,sans-Serif" font-size="10.00"># OnMyStateExit()</text>
<text text-anchor="start" x="68.5" y="-7.5" font-family="Helvetica,sans-Serif" font-size="10.00"># OnMyStateInit()</text>
</g>
<!-- Node1 -->
<g id="node2" class="node"><title>Node1</title>
<polygon fill="white" stroke="#bfbfbf" points="0,-248.5 0,-305.5 119,-305.5 119,-248.5 0,-248.5"/>
<text text-anchor="middle" x="59.5" y="-293.5" font-family="Helvetica,sans-Serif" font-size="10.00">StateMachineBehaviour</text>
<polyline fill="none" stroke="#bfbfbf" points="0,-286.5 119,-286.5 "/>
<text text-anchor="middle" x="59.5" y="-274.5" font-family="Helvetica,sans-Serif" font-size="10.00"> </text>
<polyline fill="none" stroke="#bfbfbf" points="0,-267.5 119,-267.5 "/>
<text text-anchor="middle" x="59.5" y="-255.5" font-family="Helvetica,sans-Serif" font-size="10.00"> </text>
</g>
<!-- Node1&#45;&gt;Node0 -->
<g id="edge1" class="edge"><title>Node1&#45;&gt;Node0</title>
<path fill="none" stroke="midnightblue" d="M72.0684,-238.827C75.9152,-227.45 80.3426,-214.355 84.9032,-200.867"/>
<polygon fill="none" stroke="midnightblue" points="68.7361,-237.756 68.8487,-248.35 75.3674,-239.998 68.7361,-237.756"/>
</g>
<!-- Node2 -->
<g id="node3" class="node"><title>Node2</title>
<g id="a_node3"><a xlink:href="interface_i_state.html" target="_top" xlink:title="{IState\n||+ GetName()\l+ GetTriggers()\l+ Init()\l}">
<polygon fill="white" stroke="black" points="137.5,-237.5 137.5,-316.5 219.5,-316.5 219.5,-237.5 137.5,-237.5"/>
<text text-anchor="middle" x="178.5" y="-304.5" font-family="Helvetica,sans-Serif" font-size="10.00">IState</text>
<polyline fill="none" stroke="black" points="137.5,-297.5 219.5,-297.5 "/>
<text text-anchor="middle" x="178.5" y="-285.5" font-family="Helvetica,sans-Serif" font-size="10.00"> </text>
<polyline fill="none" stroke="black" points="137.5,-278.5 219.5,-278.5 "/>
<text text-anchor="start" x="145.5" y="-266.5" font-family="Helvetica,sans-Serif" font-size="10.00">+ GetName()</text>
<text text-anchor="start" x="145.5" y="-255.5" font-family="Helvetica,sans-Serif" font-size="10.00">+ GetTriggers()</text>
<text text-anchor="start" x="145.5" y="-244.5" font-family="Helvetica,sans-Serif" font-size="10.00">+ Init()</text>
</a>
</g>
</g>
<!-- Node2&#45;&gt;Node0 -->
<g id="edge2" class="edge"><title>Node2&#45;&gt;Node0</title>
<path fill="none" stroke="midnightblue" d="M161.865,-227.619C158.946,-219.131 155.816,-210.027 152.622,-200.738"/>
<polygon fill="none" stroke="midnightblue" points="158.623,-228.954 165.184,-237.273 165.242,-226.678 158.623,-228.954"/>
</g>
</g>
</svg>
