<?xml version="1.0" encoding="UTF-8" standalone="no"?>
<!DOCTYPE svg PUBLIC "-//W3C//DTD SVG 1.1//EN"
 "http://www.w3.org/Graphics/SVG/1.1/DTD/svg11.dtd">
<!-- Generated by graphviz version 2.38.0 (20140413.2041)
 -->
<!-- Title: UnitAiBaseState Pages: 1 -->
<svg width="636pt" height="529pt"
 viewBox="0.00 0.00 636.00 529.00" xmlns="http://www.w3.org/2000/svg" xmlns:xlink="http://www.w3.org/1999/xlink">
<g id="graph0" class="graph" transform="scale(1 1) rotate(0) translate(4 525)">
<title>UnitAiBaseState</title>
<polygon fill="white" stroke="none" points="-4,4 -4,-525 632,-525 632,4 -4,4"/>
<!-- Node0 -->
<g id="node1" class="node"><title>Node0</title>
<polygon fill="#bfbfbf" stroke="black" points="236.5,-204.5 236.5,-283.5 361.5,-283.5 361.5,-204.5 236.5,-204.5"/>
<text text-anchor="middle" x="299" y="-271.5" font-family="Helvetica,sans-Serif" font-size="10.00">UnitAiBaseState</text>
<polyline fill="none" stroke="black" points="236.5,-264.5 361.5,-264.5 "/>
<text text-anchor="start" x="244.5" y="-252.5" font-family="Helvetica,sans-Serif" font-size="10.00">+ triggerOnBattleStart</text>
<text text-anchor="start" x="244.5" y="-241.5" font-family="Helvetica,sans-Serif" font-size="10.00">+ triggerOnBattleEnd</text>
<text text-anchor="start" x="244.5" y="-230.5" font-family="Helvetica,sans-Serif" font-size="10.00">+ triggerOnDmgReceived</text>
<polyline fill="none" stroke="black" points="236.5,-223.5 361.5,-223.5 "/>
<text text-anchor="start" x="244.5" y="-211.5" font-family="Helvetica,sans-Serif" font-size="10.00"># OnMyStateInit()</text>
</g>
<!-- Node2 -->
<g id="node3" class="node"><title>Node2</title>
<g id="a_node3"><a xlink:href="classmechanics_1_1_auto_attack_state.html" target="_top" xlink:title="Realizes an &quot;auto attack&quot; behaviour, needed to realize guarding and attack move behaviours described ...">
<polygon fill="white" stroke="black" points="0,-44.5 0,-123.5 104,-123.5 104,-44.5 0,-44.5"/>
<text text-anchor="middle" x="52" y="-111.5" font-family="Helvetica,sans-Serif" font-size="10.00">AutoAttackState</text>
<polyline fill="none" stroke="black" points="0,-104.5 104,-104.5 "/>
<text text-anchor="start" x="8" y="-92.5" font-family="Helvetica,sans-Serif" font-size="10.00">&#45; pathfindingAI</text>
<polyline fill="none" stroke="black" points="0,-85.5 104,-85.5 "/>
<text text-anchor="start" x="8" y="-73.5" font-family="Helvetica,sans-Serif" font-size="10.00">+ OnStateUpdate()</text>
<text text-anchor="start" x="8" y="-62.5" font-family="Helvetica,sans-Serif" font-size="10.00"># OnMyStateEnter()</text>
<text text-anchor="start" x="8" y="-51.5" font-family="Helvetica,sans-Serif" font-size="10.00"># OnMyStateExit()</text>
</a>
</g>
</g>
<!-- Node0&#45;&gt;Node2 -->
<g id="edge2" class="edge"><title>Node0&#45;&gt;Node2</title>
<path fill="none" stroke="midnightblue" d="M226.712,-224.167C190.104,-212.193 146.452,-193.97 113,-168 97.603,-156.047 84.2588,-139.225 74.0107,-123.848"/>
<polygon fill="none" stroke="midnightblue" points="225.755,-227.536 236.345,-227.229 227.875,-220.864 225.755,-227.536"/>
</g>
<!-- Node3 -->
<g id="node4" class="node"><title>Node3</title>
<g id="a_node4"><a xlink:href="classmechanics_1_1_auto_gather_state.html" target="_top" xlink:title="Transitionary state for decision whether and what to gather. ">
<polygon fill="white" stroke="black" points="122,-55.5 122,-112.5 226,-112.5 226,-55.5 122,-55.5"/>
<text text-anchor="middle" x="174" y="-100.5" font-family="Helvetica,sans-Serif" font-size="10.00">AutoGatherState</text>
<polyline fill="none" stroke="black" points="122,-93.5 226,-93.5 "/>
<text text-anchor="middle" x="174" y="-81.5" font-family="Helvetica,sans-Serif" font-size="10.00"> </text>
<polyline fill="none" stroke="black" points="122,-74.5 226,-74.5 "/>
<text text-anchor="start" x="130" y="-62.5" font-family="Helvetica,sans-Serif" font-size="10.00"># OnMyStateEnter()</text>
</a>
</g>
</g>
<!-- Node0&#45;&gt;Node3 -->
<g id="edge3" class="edge"><title>Node0&#45;&gt;Node3</title>
<path fill="none" stroke="midnightblue" d="M258.365,-196.44C250.49,-187.122 242.392,-177.328 235,-168 220.673,-149.92 205.295,-128.986 193.564,-112.665"/>
<polygon fill="none" stroke="midnightblue" points="255.763,-198.783 264.907,-204.135 261.096,-194.249 255.763,-198.783"/>
</g>
<!-- Node4 -->
<g id="node5" class="node"><title>Node4</title>
<g id="a_node5"><a xlink:href="classmechanics_1_1_deliver_state.html" target="_top" xlink:title="Implements parts of the Gather behaviour, where the food is picked up, transported and then dropped...">
<polygon fill="white" stroke="black" points="244,-0.5 244,-167.5 354,-167.5 354,-0.5 244,-0.5"/>
<text text-anchor="middle" x="299" y="-155.5" font-family="Helvetica,sans-Serif" font-size="10.00">DeliverState</text>
<polyline fill="none" stroke="black" points="244,-148.5 354,-148.5 "/>
<text text-anchor="start" x="252" y="-136.5" font-family="Helvetica,sans-Serif" font-size="10.00">+ playerInfo</text>
<text text-anchor="start" x="252" y="-125.5" font-family="Helvetica,sans-Serif" font-size="10.00">+ destReachedDist</text>
<text text-anchor="start" x="252" y="-114.5" font-family="Helvetica,sans-Serif" font-size="10.00">&#45; pathfindingAI</text>
<text text-anchor="start" x="252" y="-103.5" font-family="Helvetica,sans-Serif" font-size="10.00">&#45; destReachedDistSq</text>
<text text-anchor="start" x="252" y="-92.5" font-family="Helvetica,sans-Serif" font-size="10.00">&#45; food</text>
<text text-anchor="start" x="252" y="-81.5" font-family="Helvetica,sans-Serif" font-size="10.00">&#45; isFirstCarrier</text>
<polyline fill="none" stroke="black" points="244,-74.5 354,-74.5 "/>
<text text-anchor="start" x="252" y="-62.5" font-family="Helvetica,sans-Serif" font-size="10.00">+ OnStateUpdate()</text>
<text text-anchor="start" x="252" y="-51.5" font-family="Helvetica,sans-Serif" font-size="10.00"># OnMyStateEnter()</text>
<text text-anchor="start" x="252" y="-40.5" font-family="Helvetica,sans-Serif" font-size="10.00"># OnMyStateExit()</text>
<text text-anchor="start" x="252" y="-29.5" font-family="Helvetica,sans-Serif" font-size="10.00">&#45; UpdateCarrySpeed()</text>
<text text-anchor="start" x="252" y="-18.5" font-family="Helvetica,sans-Serif" font-size="10.00">&#45; PickUp()</text>
<text text-anchor="start" x="252" y="-7.5" font-family="Helvetica,sans-Serif" font-size="10.00">&#45; DropOff()</text>
</a>
</g>
</g>
<!-- Node0&#45;&gt;Node4 -->
<g id="edge4" class="edge"><title>Node0&#45;&gt;Node4</title>
<path fill="none" stroke="midnightblue" d="M299,-194.264C299,-185.744 299,-176.671 299,-167.535"/>
<polygon fill="none" stroke="midnightblue" points="295.5,-194.349 299,-204.349 302.5,-194.349 295.5,-194.349"/>
</g>
<!-- Node5 -->
<g id="node6" class="node"><title>Node5</title>
<g id="a_node6"><a xlink:href="classmechanics_1_1_idle_state.html" target="_top" xlink:title="Realizes the &quot;Idle&quot; behaviour of units, for requirements, see Idle concept. ">
<polygon fill="white" stroke="black" points="372,-55.5 372,-112.5 476,-112.5 476,-55.5 372,-55.5"/>
<text text-anchor="middle" x="424" y="-100.5" font-family="Helvetica,sans-Serif" font-size="10.00">IdleState</text>
<polyline fill="none" stroke="black" points="372,-93.5 476,-93.5 "/>
<text text-anchor="middle" x="424" y="-81.5" font-family="Helvetica,sans-Serif" font-size="10.00"> </text>
<polyline fill="none" stroke="black" points="372,-74.5 476,-74.5 "/>
<text text-anchor="start" x="380" y="-62.5" font-family="Helvetica,sans-Serif" font-size="10.00"># OnMyStateEnter()</text>
</a>
</g>
</g>
<!-- Node0&#45;&gt;Node5 -->
<g id="edge5" class="edge"><title>Node0&#45;&gt;Node5</title>
<path fill="none" stroke="midnightblue" d="M339.635,-196.44C347.51,-187.122 355.608,-177.328 363,-168 377.327,-149.92 392.705,-128.986 404.436,-112.665"/>
<polygon fill="none" stroke="midnightblue" points="336.904,-194.249 333.093,-204.135 342.237,-198.783 336.904,-194.249"/>
</g>
<!-- Node6 -->
<g id="node7" class="node"><title>Node6</title>
<g id="a_node7"><a xlink:href="classmechanics_1_1_move_state.html" target="_top" xlink:title="Can be used for all kinds of movement. ">
<polygon fill="white" stroke="black" points="494,-17 494,-151 628,-151 628,-17 494,-17"/>
<text text-anchor="middle" x="561" y="-139" font-family="Helvetica,sans-Serif" font-size="10.00">MoveState</text>
<polyline fill="none" stroke="black" points="494,-132 628,-132 "/>
<text text-anchor="start" x="502" y="-120" font-family="Helvetica,sans-Serif" font-size="10.00">+ triggerOnDestReached</text>
<text text-anchor="start" x="502" y="-109" font-family="Helvetica,sans-Serif" font-size="10.00">+ destReachedDist</text>
<text text-anchor="start" x="502" y="-98" font-family="Helvetica,sans-Serif" font-size="10.00">&#45; pathfindingAI</text>
<text text-anchor="start" x="502" y="-87" font-family="Helvetica,sans-Serif" font-size="10.00">&#45; destReachedDistSq</text>
<text text-anchor="start" x="502" y="-76" font-family="Helvetica,sans-Serif" font-size="10.00">&#45; destInterruptActive</text>
<polyline fill="none" stroke="black" points="494,-69 628,-69 "/>
<text text-anchor="start" x="502" y="-57" font-family="Helvetica,sans-Serif" font-size="10.00">+ OnStateUpdate()</text>
<text text-anchor="start" x="502" y="-46" font-family="Helvetica,sans-Serif" font-size="10.00"># OnMyStateEnter()</text>
<text text-anchor="start" x="502" y="-35" font-family="Helvetica,sans-Serif" font-size="10.00">&#45; UpdatePathfindingTarget()</text>
<text text-anchor="start" x="502" y="-24" font-family="Helvetica,sans-Serif" font-size="10.00">&#45; CheckTargetReached()</text>
</a>
</g>
</g>
<!-- Node0&#45;&gt;Node6 -->
<g id="edge6" class="edge"><title>Node0&#45;&gt;Node6</title>
<path fill="none" stroke="midnightblue" d="M371.409,-222.227C407.469,-209.853 450.594,-191.86 485,-168 492.064,-163.101 498.945,-157.434 505.497,-151.408"/>
<polygon fill="none" stroke="midnightblue" points="370.29,-218.91 361.923,-225.409 372.517,-225.547 370.29,-218.91"/>
</g>
<!-- Node1 -->
<g id="node2" class="node"><title>Node1</title>
<g id="a_node2"><a xlink:href="class_base_state.html" target="_top" xlink:title="{BaseState\&lt; UnitAiStateMachine \&gt;\n|+ name\l+ triggers\l# sm\l&#45; listeners\l|+ IsActiveState()\l+ GetName()\l+ GetTriggers()\l+ Init()\l+ OnStateEnter()\l+ OnStateExit()\l# AddAutoListener()\l# TriggerTransition()\l# OnMyStateEnter()\l# OnMyStateExit()\l# OnMyStateInit()\l}">
<polygon fill="white" stroke="black" points="215.5,-320.5 215.5,-520.5 382.5,-520.5 382.5,-320.5 215.5,-320.5"/>
<text text-anchor="middle" x="299" y="-508.5" font-family="Helvetica,sans-Serif" font-size="10.00">BaseState&lt; UnitAiStateMachine &gt;</text>
<polyline fill="none" stroke="black" points="215.5,-501.5 382.5,-501.5 "/>
<text text-anchor="start" x="223.5" y="-489.5" font-family="Helvetica,sans-Serif" font-size="10.00">+ name</text>
<text text-anchor="start" x="223.5" y="-478.5" font-family="Helvetica,sans-Serif" font-size="10.00">+ triggers</text>
<text text-anchor="start" x="223.5" y="-467.5" font-family="Helvetica,sans-Serif" font-size="10.00"># sm</text>
<text text-anchor="start" x="223.5" y="-456.5" font-family="Helvetica,sans-Serif" font-size="10.00">&#45; listeners</text>
<polyline fill="none" stroke="black" points="215.5,-449.5 382.5,-449.5 "/>
<text text-anchor="start" x="223.5" y="-437.5" font-family="Helvetica,sans-Serif" font-size="10.00">+ IsActiveState()</text>
<text text-anchor="start" x="223.5" y="-426.5" font-family="Helvetica,sans-Serif" font-size="10.00">+ GetName()</text>
<text text-anchor="start" x="223.5" y="-415.5" font-family="Helvetica,sans-Serif" font-size="10.00">+ GetTriggers()</text>
<text text-anchor="start" x="223.5" y="-404.5" font-family="Helvetica,sans-Serif" font-size="10.00">+ Init()</text>
<text text-anchor="start" x="223.5" y="-393.5" font-family="Helvetica,sans-Serif" font-size="10.00">+ OnStateEnter()</text>
<text text-anchor="start" x="223.5" y="-382.5" font-family="Helvetica,sans-Serif" font-size="10.00">+ OnStateExit()</text>
<text text-anchor="start" x="223.5" y="-371.5" font-family="Helvetica,sans-Serif" font-size="10.00"># AddAutoListener()</text>
<text text-anchor="start" x="223.5" y="-360.5" font-family="Helvetica,sans-Serif" font-size="10.00"># TriggerTransition()</text>
<text text-anchor="start" x="223.5" y="-349.5" font-family="Helvetica,sans-Serif" font-size="10.00"># OnMyStateEnter()</text>
<text text-anchor="start" x="223.5" y="-338.5" font-family="Helvetica,sans-Serif" font-size="10.00"># OnMyStateExit()</text>
<text text-anchor="start" x="223.5" y="-327.5" font-family="Helvetica,sans-Serif" font-size="10.00"># OnMyStateInit()</text>
</a>
</g>
</g>
<!-- Node1&#45;&gt;Node0 -->
<g id="edge1" class="edge"><title>Node1&#45;&gt;Node0</title>
<path fill="none" stroke="midnightblue" d="M299,-310.094C299,-300.826 299,-291.915 299,-283.819"/>
<polygon fill="none" stroke="midnightblue" points="295.5,-310.27 299,-320.27 302.5,-310.27 295.5,-310.27"/>
</g>
</g>
</svg>
