<?xml version="1.0" encoding="UTF-8" standalone="no"?>
<!DOCTYPE svg PUBLIC "-//W3C//DTD SVG 1.1//EN"
 "http://www.w3.org/Graphics/SVG/1.1/DTD/svg11.dtd">
<!-- Generated by graphviz version 2.38.0 (20140413.2041)
 -->
<!-- Title: SimpleCameraController Pages: 1 -->
<svg width="281pt" height="347pt"
 viewBox="0.00 0.00 280.50 347.00" xmlns="http://www.w3.org/2000/svg" xmlns:xlink="http://www.w3.org/1999/xlink">
<g id="graph0" class="graph" transform="scale(1 1) rotate(0) translate(4 343)">
<title>SimpleCameraController</title>
<polygon fill="white" stroke="none" points="-4,4 -4,-343 276.5,-343 276.5,4 -4,4"/>
<!-- Node2 -->
<g id="node1" class="node"><title>Node2</title>
<g id="a_node1"><a xlink:title=" ">
<polygon fill="#bfbfbf" stroke="black" points="35,-0.5 35,-123.5 186,-123.5 186,-0.5 35,-0.5"/>
<text text-anchor="middle" x="110.5" y="-111.5" font-family="Helvetica,sans-Serif" font-size="10.00">SimpleCameraController</text>
<polyline fill="none" stroke="black" points="35,-104.5 186,-104.5 "/>
<text text-anchor="start" x="43" y="-92.5" font-family="Helvetica,sans-Serif" font-size="10.00">+ boost</text>
<text text-anchor="start" x="43" y="-81.5" font-family="Helvetica,sans-Serif" font-size="10.00">+ positionLerpTime</text>
<text text-anchor="start" x="43" y="-70.5" font-family="Helvetica,sans-Serif" font-size="10.00">+ mouseSensitivityCurve</text>
<text text-anchor="start" x="43" y="-59.5" font-family="Helvetica,sans-Serif" font-size="10.00">+ rotationLerpTime</text>
<text text-anchor="start" x="43" y="-48.5" font-family="Helvetica,sans-Serif" font-size="10.00">+ invertY</text>
<polyline fill="none" stroke="black" points="35,-41.5 186,-41.5 "/>
<text text-anchor="start" x="43" y="-29.5" font-family="Helvetica,sans-Serif" font-size="10.00">&#45; OnEnable()</text>
<text text-anchor="start" x="43" y="-18.5" font-family="Helvetica,sans-Serif" font-size="10.00">&#45; GetInputTranslationDirection()</text>
<text text-anchor="start" x="43" y="-7.5" font-family="Helvetica,sans-Serif" font-size="10.00">&#45; Update()</text>
</a>
</g>
</g>
<!-- Node3 -->
<g id="node2" class="node"><title>Node3</title>
<g id="a_node2"><a xlink:title=" ">
<polygon fill="white" stroke="#bfbfbf" points="0,-232 0,-289 83,-289 83,-232 0,-232"/>
<text text-anchor="middle" x="41.5" y="-277" font-family="Helvetica,sans-Serif" font-size="10.00">MonoBehaviour</text>
<polyline fill="none" stroke="#bfbfbf" points="0,-270 83,-270 "/>
<text text-anchor="middle" x="41.5" y="-258" font-family="Helvetica,sans-Serif" font-size="10.00"> </text>
<polyline fill="none" stroke="#bfbfbf" points="0,-251 83,-251 "/>
<text text-anchor="middle" x="41.5" y="-239" font-family="Helvetica,sans-Serif" font-size="10.00"> </text>
</a>
</g>
</g>
<!-- Node3&#45;&gt;Node2 -->
<g id="edge1" class="edge"><title>Node3&#45;&gt;Node2</title>
<path fill="none" stroke="midnightblue" d="M54.6491,-222.054C64.393,-194.305 77.8811,-155.893 89.1611,-123.769"/>
<polygon fill="none" stroke="midnightblue" points="51.2505,-221.168 51.2397,-231.763 57.8552,-223.488 51.2505,-221.168"/>
</g>
<!-- Node4 -->
<g id="node3" class="node"><title>Node4</title>
<g id="a_node3"><a xlink:href="class_unity_template_projects_1_1_simple_camera_controller_1_1_camera_state.html" target="_top" xlink:title=" ">
<polygon fill="white" stroke="black" points="101.5,-182.5 101.5,-338.5 259.5,-338.5 259.5,-182.5 101.5,-182.5"/>
<text text-anchor="start" x="109.5" y="-326.5" font-family="Helvetica,sans-Serif" font-size="10.00">SimpleCameraController.Camera</text>
<text text-anchor="middle" x="180.5" y="-315.5" font-family="Helvetica,sans-Serif" font-size="10.00">State</text>
<polyline fill="none" stroke="black" points="101.5,-308.5 259.5,-308.5 "/>
<text text-anchor="start" x="109.5" y="-296.5" font-family="Helvetica,sans-Serif" font-size="10.00">+ yaw</text>
<text text-anchor="start" x="109.5" y="-285.5" font-family="Helvetica,sans-Serif" font-size="10.00">+ pitch</text>
<text text-anchor="start" x="109.5" y="-274.5" font-family="Helvetica,sans-Serif" font-size="10.00">+ roll</text>
<text text-anchor="start" x="109.5" y="-263.5" font-family="Helvetica,sans-Serif" font-size="10.00">+ x</text>
<text text-anchor="start" x="109.5" y="-252.5" font-family="Helvetica,sans-Serif" font-size="10.00">+ y</text>
<text text-anchor="start" x="109.5" y="-241.5" font-family="Helvetica,sans-Serif" font-size="10.00">+ z</text>
<polyline fill="none" stroke="black" points="101.5,-234.5 259.5,-234.5 "/>
<text text-anchor="start" x="109.5" y="-222.5" font-family="Helvetica,sans-Serif" font-size="10.00">+ SetFromTransform()</text>
<text text-anchor="start" x="109.5" y="-211.5" font-family="Helvetica,sans-Serif" font-size="10.00">+ Translate()</text>
<text text-anchor="start" x="109.5" y="-200.5" font-family="Helvetica,sans-Serif" font-size="10.00">+ LerpTowards()</text>
<text text-anchor="start" x="109.5" y="-189.5" font-family="Helvetica,sans-Serif" font-size="10.00">+ UpdateTransform()</text>
</a>
</g>
</g>
<!-- Node4&#45;&gt;Node2 -->
<g id="edge2" class="edge"><title>Node4&#45;&gt;Node2</title>
<path fill="none" stroke="#404040" d="M153.035,-182.402C147.511,-166.894 141.723,-150.648 136.259,-135.31"/>
<polygon fill="none" stroke="#404040" points="136.181,-135.089 130.399,-130.78 132.154,-123.785 137.935,-128.095 136.181,-135.089"/>
<text text-anchor="middle" x="209" y="-156" font-family="Helvetica,sans-Serif" font-size="10.00"> &#45;m_TargetCameraState</text>
<text text-anchor="middle" x="209" y="-145" font-family="Helvetica,sans-Serif" font-size="10.00">&#45;m_InterpolatingCameraState</text>
</g>
</g>
</svg>
