<?xml version="1.0" encoding="UTF-8" standalone="no"?>
<!DOCTYPE svg PUBLIC "-//W3C//DTD SVG 1.1//EN"
 "http://www.w3.org/Graphics/SVG/1.1/DTD/svg11.dtd">
<!-- Generated by graphviz version 2.38.0 (20140413.2041)
 -->
<!-- Title: NetStateMachine Pages: 1 -->
<svg width="453pt" height="558pt"
 viewBox="0.00 0.00 452.50 558.00" xmlns="http://www.w3.org/2000/svg" xmlns:xlink="http://www.w3.org/1999/xlink">
<g id="graph0" class="graph" transform="scale(1 1) rotate(0) translate(4 554)">
<title>NetStateMachine</title>
<polygon fill="white" stroke="none" points="-4,4 -4,-554 448.5,-554 448.5,4 -4,4"/>
<!-- Node3 -->
<g id="node1" class="node"><title>Node3</title>
<polygon fill="#bfbfbf" stroke="black" points="309,-17 309,-140 420,-140 420,-17 309,-17"/>
<text text-anchor="middle" x="364.5" y="-128" font-family="Helvetica,sans-Serif" font-size="10.00">NetStateMachine</text>
<polyline fill="none" stroke="black" points="309,-121 420,-121 "/>
<text text-anchor="start" x="317" y="-109" font-family="Helvetica,sans-Serif" font-size="10.00">+ netOverlayPrefab</text>
<text text-anchor="start" x="317" y="-98" font-family="Helvetica,sans-Serif" font-size="10.00">&#45; netOverlayInstance</text>
<polyline fill="none" stroke="black" points="309,-91 420,-91 "/>
<text text-anchor="start" x="317" y="-79" font-family="Helvetica,sans-Serif" font-size="10.00">+ IsMaster()</text>
<text text-anchor="start" x="317" y="-68" font-family="Helvetica,sans-Serif" font-size="10.00">+ GetCurStateName()</text>
<text text-anchor="start" x="317" y="-57" font-family="Helvetica,sans-Serif" font-size="10.00">+ GetNetOverlay()</text>
<text text-anchor="start" x="317" y="-46" font-family="Helvetica,sans-Serif" font-size="10.00">+ HideNetOverlay()</text>
<text text-anchor="start" x="317" y="-35" font-family="Helvetica,sans-Serif" font-size="10.00"># MyAwake()</text>
<text text-anchor="start" x="317" y="-24" font-family="Helvetica,sans-Serif" font-size="10.00">&#45; OnDisconnect()</text>
</g>
<!-- Node4 -->
<g id="node2" class="node"><title>Node4</title>
<g id="a_node2"><a xlink:href="class_state_machine.html" target="_top" xlink:title="Common Base class for all state machines. ">
<polygon fill="white" stroke="black" points="243.5,-204.5 243.5,-349.5 373.5,-349.5 373.5,-204.5 243.5,-204.5"/>
<text text-anchor="middle" x="308.5" y="-337.5" font-family="Helvetica,sans-Serif" font-size="10.00">StateMachine</text>
<polyline fill="none" stroke="black" points="243.5,-330.5 373.5,-330.5 "/>
<text text-anchor="start" x="251.5" y="-318.5" font-family="Helvetica,sans-Serif" font-size="10.00">+ logEnabled</text>
<text text-anchor="start" x="251.5" y="-307.5" font-family="Helvetica,sans-Serif" font-size="10.00"># controller</text>
<text text-anchor="start" x="251.5" y="-296.5" font-family="Helvetica,sans-Serif" font-size="10.00">&#45; states</text>
<polyline fill="none" stroke="black" points="243.5,-289.5 373.5,-289.5 "/>
<text text-anchor="start" x="251.5" y="-277.5" font-family="Helvetica,sans-Serif" font-size="10.00">+ GetActiveState()</text>
<text text-anchor="start" x="251.5" y="-266.5" font-family="Helvetica,sans-Serif" font-size="10.00">+ TriggerTransition()</text>
<text text-anchor="start" x="251.5" y="-255.5" font-family="Helvetica,sans-Serif" font-size="10.00">+ TriggerTransition()</text>
<text text-anchor="start" x="251.5" y="-244.5" font-family="Helvetica,sans-Serif" font-size="10.00">+ TriggerTransition()</text>
<text text-anchor="start" x="251.5" y="-233.5" font-family="Helvetica,sans-Serif" font-size="10.00">+ AnnounceCurrentState()</text>
<text text-anchor="start" x="251.5" y="-222.5" font-family="Helvetica,sans-Serif" font-size="10.00"># MyAwake()</text>
<text text-anchor="start" x="251.5" y="-211.5" font-family="Helvetica,sans-Serif" font-size="10.00">&#45; Awake()</text>
</a>
</g>
</g>
<!-- Node4&#45;&gt;Node3 -->
<g id="edge1" class="edge"><title>Node4&#45;&gt;Node3</title>
<path fill="none" stroke="midnightblue" d="M347.708,-194.837C348.711,-191.878 349.647,-188.927 350.5,-186 354.754,-171.409 357.718,-155.314 359.783,-140.152"/>
<polygon fill="none" stroke="midnightblue" points="344.399,-193.698 344.297,-204.293 350.983,-196.074 344.399,-193.698"/>
</g>
<!-- Node8 -->
<g id="node6" class="node"><title>Node8</title>
<g id="a_node6"><a xlink:href="class_state.html" target="_top" xlink:title="Extended functionality for Unity SM Behaviours and makes them complete &#39;States&#39;. ">
<polygon fill="white" stroke="black" points="157.5,-0.5 157.5,-156.5 261.5,-156.5 261.5,-0.5 157.5,-0.5"/>
<text text-anchor="middle" x="209.5" y="-144.5" font-family="Helvetica,sans-Serif" font-size="10.00">State</text>
<polyline fill="none" stroke="black" points="157.5,-137.5 261.5,-137.5 "/>
<text text-anchor="start" x="165.5" y="-125.5" font-family="Helvetica,sans-Serif" font-size="10.00">+ name</text>
<text text-anchor="start" x="165.5" y="-114.5" font-family="Helvetica,sans-Serif" font-size="10.00">+ triggers</text>
<polyline fill="none" stroke="black" points="157.5,-107.5 261.5,-107.5 "/>
<text text-anchor="start" x="165.5" y="-95.5" font-family="Helvetica,sans-Serif" font-size="10.00">+ IsActiveState()</text>
<text text-anchor="start" x="165.5" y="-84.5" font-family="Helvetica,sans-Serif" font-size="10.00">+ Init()</text>
<text text-anchor="start" x="165.5" y="-73.5" font-family="Helvetica,sans-Serif" font-size="10.00">+ OnStateEnter()</text>
<text text-anchor="start" x="165.5" y="-62.5" font-family="Helvetica,sans-Serif" font-size="10.00">+ OnStateExit()</text>
<text text-anchor="start" x="165.5" y="-51.5" font-family="Helvetica,sans-Serif" font-size="10.00"># AddAutoListener()</text>
<text text-anchor="start" x="165.5" y="-40.5" font-family="Helvetica,sans-Serif" font-size="10.00"># TriggerTransition()</text>
<text text-anchor="start" x="165.5" y="-29.5" font-family="Helvetica,sans-Serif" font-size="10.00"># OnMyStateEnter()</text>
<text text-anchor="start" x="165.5" y="-18.5" font-family="Helvetica,sans-Serif" font-size="10.00"># OnMyStateExit()</text>
<text text-anchor="start" x="165.5" y="-7.5" font-family="Helvetica,sans-Serif" font-size="10.00"># OnMyStateInit()</text>
</a>
</g>
</g>
<!-- Node4&#45;&gt;Node8 -->
<g id="edge7" class="edge"><title>Node4&#45;&gt;Node8</title>
<path fill="none" stroke="#404040" d="M254.837,-204.488C251.115,-198.368 247.613,-192.161 244.5,-186 241.565,-180.192 238.8,-174.083 236.21,-167.853"/>
<polygon fill="none" stroke="#404040" points="236.151,-167.704 230.225,-163.595 231.739,-156.545 237.665,-160.654 236.151,-167.704"/>
<text text-anchor="middle" x="255.5" y="-178" font-family="Helvetica,sans-Serif" font-size="10.00"> #sm</text>
</g>
<!-- Node5 -->
<g id="node3" class="node"><title>Node5</title>
<polygon fill="white" stroke="#bfbfbf" points="233,-397.5 233,-454.5 316,-454.5 316,-397.5 233,-397.5"/>
<text text-anchor="middle" x="274.5" y="-442.5" font-family="Helvetica,sans-Serif" font-size="10.00">MonoBehaviour</text>
<polyline fill="none" stroke="#bfbfbf" points="233,-435.5 316,-435.5 "/>
<text text-anchor="middle" x="274.5" y="-423.5" font-family="Helvetica,sans-Serif" font-size="10.00"> </text>
<polyline fill="none" stroke="#bfbfbf" points="233,-416.5 316,-416.5 "/>
<text text-anchor="middle" x="274.5" y="-404.5" font-family="Helvetica,sans-Serif" font-size="10.00"> </text>
</g>
<!-- Node5&#45;&gt;Node4 -->
<g id="edge2" class="edge"><title>Node5&#45;&gt;Node4</title>
<path fill="none" stroke="midnightblue" d="M283.155,-387.582C285.845,-375.948 288.907,-362.71 291.95,-349.555"/>
<polygon fill="none" stroke="midnightblue" points="279.739,-386.819 280.895,-397.35 286.559,-388.396 279.739,-386.819"/>
</g>
<!-- Node6 -->
<g id="node4" class="node"><title>Node6</title>
<g id="a_node4"><a xlink:href="class_unity_string_event.html" target="_top" xlink:title="{UnityStringEvent\n||}">
<polygon fill="white" stroke="black" points="334,-397.5 334,-454.5 423,-454.5 423,-397.5 334,-397.5"/>
<text text-anchor="middle" x="378.5" y="-442.5" font-family="Helvetica,sans-Serif" font-size="10.00">UnityStringEvent</text>
<polyline fill="none" stroke="black" points="334,-435.5 423,-435.5 "/>
<text text-anchor="middle" x="378.5" y="-423.5" font-family="Helvetica,sans-Serif" font-size="10.00"> </text>
<polyline fill="none" stroke="black" points="334,-416.5 423,-416.5 "/>
<text text-anchor="middle" x="378.5" y="-404.5" font-family="Helvetica,sans-Serif" font-size="10.00"> </text>
</a>
</g>
</g>
<!-- Node6&#45;&gt;Node4 -->
<g id="edge3" class="edge"><title>Node6&#45;&gt;Node4</title>
<path fill="none" stroke="#404040" d="M365.334,-397.35C360.259,-386.694 354.166,-373.898 347.88,-360.699"/>
<polygon fill="none" stroke="#404040" points="347.733,-360.39 341.542,-356.692 342.574,-349.555 348.765,-353.253 347.733,-360.39"/>
<text text-anchor="middle" x="400" y="-371" font-family="Helvetica,sans-Serif" font-size="10.00"> +stateEnteredEvent</text>
</g>
<!-- Node7 -->
<g id="node5" class="node"><title>Node7</title>
<polygon fill="white" stroke="#bfbfbf" points="326,-492.5 326,-549.5 431,-549.5 431,-492.5 326,-492.5"/>
<text text-anchor="middle" x="378.5" y="-537.5" font-family="Helvetica,sans-Serif" font-size="10.00">UnityEvent&lt; string &gt;</text>
<polyline fill="none" stroke="#bfbfbf" points="326,-530.5 431,-530.5 "/>
<text text-anchor="middle" x="378.5" y="-518.5" font-family="Helvetica,sans-Serif" font-size="10.00"> </text>
<polyline fill="none" stroke="#bfbfbf" points="326,-511.5 431,-511.5 "/>
<text text-anchor="middle" x="378.5" y="-499.5" font-family="Helvetica,sans-Serif" font-size="10.00"> </text>
</g>
<!-- Node7&#45;&gt;Node6 -->
<g id="edge4" class="edge"><title>Node7&#45;&gt;Node6</title>
<path fill="none" stroke="midnightblue" d="M378.5,-482.235C378.5,-473.028 378.5,-463.346 378.5,-454.705"/>
<polygon fill="none" stroke="midnightblue" points="375,-482.349 378.5,-492.349 382,-482.349 375,-482.349"/>
</g>
<!-- Node8&#45;&gt;Node4 -->
<g id="edge5" class="edge"><title>Node8&#45;&gt;Node4</title>
<path fill="none" stroke="#404040" d="M260.651,-156.633C264.134,-162.763 267.462,-168.931 270.5,-175 273.409,-180.811 276.228,-186.902 278.926,-193.09"/>
<polygon fill="none" stroke="#404040" points="278.988,-193.235 285.004,-197.21 283.649,-204.293 277.633,-200.318 278.988,-193.235"/>
<text text-anchor="middle" x="304" y="-178" font-family="Helvetica,sans-Serif" font-size="10.00"> #activeState</text>
</g>
<!-- Node9 -->
<g id="node7" class="node"><title>Node9</title>
<polygon fill="white" stroke="#bfbfbf" points="0,-248.5 0,-305.5 119,-305.5 119,-248.5 0,-248.5"/>
<text text-anchor="middle" x="59.5" y="-293.5" font-family="Helvetica,sans-Serif" font-size="10.00">StateMachineBehaviour</text>
<polyline fill="none" stroke="#bfbfbf" points="0,-286.5 119,-286.5 "/>
<text text-anchor="middle" x="59.5" y="-274.5" font-family="Helvetica,sans-Serif" font-size="10.00"> </text>
<polyline fill="none" stroke="#bfbfbf" points="0,-267.5 119,-267.5 "/>
<text text-anchor="middle" x="59.5" y="-255.5" font-family="Helvetica,sans-Serif" font-size="10.00"> </text>
</g>
<!-- Node9&#45;&gt;Node8 -->
<g id="edge6" class="edge"><title>Node9&#45;&gt;Node8</title>
<path fill="none" stroke="midnightblue" d="M86.7843,-240.258C106.46,-214.483 133.628,-178.892 157.401,-147.75"/>
<polygon fill="none" stroke="midnightblue" points="83.9589,-238.191 80.6732,-248.263 89.523,-242.438 83.9589,-238.191"/>
</g>
<!-- Node10 -->
<g id="node8" class="node"><title>Node10</title>
<g id="a_node8"><a xlink:href="class_listener_group.html" target="_top" xlink:title="Helper class to execute adding and removing on all held Listeners (Events + Callbacks). ">
<polygon fill="white" stroke="black" points="137.5,-232 137.5,-322 225.5,-322 225.5,-232 137.5,-232"/>
<text text-anchor="middle" x="181.5" y="-310" font-family="Helvetica,sans-Serif" font-size="10.00">ListenerGroup</text>
<polyline fill="none" stroke="black" points="137.5,-303 225.5,-303 "/>
<text text-anchor="start" x="145.5" y="-291" font-family="Helvetica,sans-Serif" font-size="10.00">&#45; heldListeners</text>
<polyline fill="none" stroke="black" points="137.5,-284 225.5,-284 "/>
<text text-anchor="start" x="145.5" y="-272" font-family="Helvetica,sans-Serif" font-size="10.00">+ Add()</text>
<text text-anchor="start" x="145.5" y="-261" font-family="Helvetica,sans-Serif" font-size="10.00">+ Add()</text>
<text text-anchor="start" x="145.5" y="-250" font-family="Helvetica,sans-Serif" font-size="10.00">+ ActivateAll()</text>
<text text-anchor="start" x="145.5" y="-239" font-family="Helvetica,sans-Serif" font-size="10.00">+ DeactivateAll()</text>
</a>
</g>
</g>
<!-- Node10&#45;&gt;Node8 -->
<g id="edge8" class="edge"><title>Node10&#45;&gt;Node8</title>
<path fill="none" stroke="#404040" d="M179.405,-231.559C179.23,-213.877 179.856,-193.399 182.5,-175 182.813,-172.824 183.161,-170.628 183.541,-168.419"/>
<polygon fill="none" stroke="#404040" points="183.563,-168.305 180.78,-161.653 185.85,-156.525 188.633,-163.177 183.563,-168.305"/>
<text text-anchor="middle" x="204" y="-178" font-family="Helvetica,sans-Serif" font-size="10.00"> &#45;listeners</text>
</g>
</g>
</svg>
