<?xml version="1.0" encoding="UTF-8" standalone="no"?>
<!DOCTYPE svg PUBLIC "-//W3C//DTD SVG 1.1//EN"
 "http://www.w3.org/Graphics/SVG/1.1/DTD/svg11.dtd">
<!-- Generated by graphviz version 2.38.0 (20140413.2041)
 -->
<!-- Title: NetOverlayState Pages: 1 -->
<svg width="465pt" height="817pt"
 viewBox="0.00 0.00 464.50 817.00" xmlns="http://www.w3.org/2000/svg" xmlns:xlink="http://www.w3.org/1999/xlink">
<g id="graph0" class="graph" transform="scale(1 1) rotate(0) translate(4 813)">
<title>NetOverlayState</title>
<polygon fill="white" stroke="none" points="-4,4 -4,-813 460.5,-813 460.5,4 -4,4"/>
<!-- Node8 -->
<g id="node1" class="node"><title>Node8</title>
<polygon fill="#bfbfbf" stroke="black" points="240,-0.5 240,-112.5 375,-112.5 375,-0.5 240,-0.5"/>
<text text-anchor="middle" x="307.5" y="-100.5" font-family="Helvetica,sans-Serif" font-size="10.00">NetOverlayState</text>
<polyline fill="none" stroke="black" points="240,-93.5 375,-93.5 "/>
<text text-anchor="start" x="248" y="-81.5" font-family="Helvetica,sans-Serif" font-size="10.00"># netOverlayRef</text>
<text text-anchor="start" x="248" y="-70.5" font-family="Helvetica,sans-Serif" font-size="10.00">&#45; minVisibleTime</text>
<text text-anchor="start" x="248" y="-59.5" font-family="Helvetica,sans-Serif" font-size="10.00">&#45; timestampOfStateEntered</text>
<polyline fill="none" stroke="black" points="240,-52.5 375,-52.5 "/>
<text text-anchor="start" x="248" y="-40.5" font-family="Helvetica,sans-Serif" font-size="10.00"># TriggerTransitionWithMin</text>
<text text-anchor="start" x="248" y="-29.5" font-family="Helvetica,sans-Serif" font-size="10.00">VisibleTime()</text>
<text text-anchor="start" x="248" y="-18.5" font-family="Helvetica,sans-Serif" font-size="10.00"># OnOverlayStateEnter()</text>
<text text-anchor="start" x="248" y="-7.5" font-family="Helvetica,sans-Serif" font-size="10.00"># OnMyStateEnter()</text>
</g>
<!-- Node9 -->
<g id="node2" class="node"><title>Node9</title>
<g id="a_node2"><a xlink:href="class_state.html" target="_top" xlink:title="Extended functionality for Unity SM Behaviours and makes them complete &#39;States&#39;. ">
<polygon fill="white" stroke="black" points="254.5,-514.5 254.5,-670.5 358.5,-670.5 358.5,-514.5 254.5,-514.5"/>
<text text-anchor="middle" x="306.5" y="-658.5" font-family="Helvetica,sans-Serif" font-size="10.00">State</text>
<polyline fill="none" stroke="black" points="254.5,-651.5 358.5,-651.5 "/>
<text text-anchor="start" x="262.5" y="-639.5" font-family="Helvetica,sans-Serif" font-size="10.00">+ name</text>
<text text-anchor="start" x="262.5" y="-628.5" font-family="Helvetica,sans-Serif" font-size="10.00">+ triggers</text>
<polyline fill="none" stroke="black" points="254.5,-621.5 358.5,-621.5 "/>
<text text-anchor="start" x="262.5" y="-609.5" font-family="Helvetica,sans-Serif" font-size="10.00">+ IsActiveState()</text>
<text text-anchor="start" x="262.5" y="-598.5" font-family="Helvetica,sans-Serif" font-size="10.00">+ Init()</text>
<text text-anchor="start" x="262.5" y="-587.5" font-family="Helvetica,sans-Serif" font-size="10.00">+ OnStateEnter()</text>
<text text-anchor="start" x="262.5" y="-576.5" font-family="Helvetica,sans-Serif" font-size="10.00">+ OnStateExit()</text>
<text text-anchor="start" x="262.5" y="-565.5" font-family="Helvetica,sans-Serif" font-size="10.00"># AddAutoListener()</text>
<text text-anchor="start" x="262.5" y="-554.5" font-family="Helvetica,sans-Serif" font-size="10.00"># TriggerTransition()</text>
<text text-anchor="start" x="262.5" y="-543.5" font-family="Helvetica,sans-Serif" font-size="10.00"># OnMyStateEnter()</text>
<text text-anchor="start" x="262.5" y="-532.5" font-family="Helvetica,sans-Serif" font-size="10.00"># OnMyStateExit()</text>
<text text-anchor="start" x="262.5" y="-521.5" font-family="Helvetica,sans-Serif" font-size="10.00"># OnMyStateInit()</text>
</a>
</g>
</g>
<!-- Node9&#45;&gt;Node8 -->
<g id="edge1" class="edge"><title>Node9&#45;&gt;Node8</title>
<path fill="none" stroke="midnightblue" d="M314.028,-504.241C314.198,-501.463 314.356,-498.71 314.5,-496 322.85,-338.848 320.722,-299.363 322.5,-142 322.555,-137.111 322.991,-135.864 322.5,-131 321.898,-125.04 321.028,-118.848 320.006,-112.701"/>
<polygon fill="none" stroke="midnightblue" points="310.525,-504.18 313.366,-514.386 317.51,-504.636 310.525,-504.18"/>
</g>
<!-- Node11 -->
<g id="node4" class="node"><title>Node11</title>
<g id="a_node4"><a xlink:href="class_state_machine.html" target="_top" xlink:title="Common Base class for all state machines. ">
<polygon fill="white" stroke="black" points="161.5,-321.5 161.5,-466.5 291.5,-466.5 291.5,-321.5 161.5,-321.5"/>
<text text-anchor="middle" x="226.5" y="-454.5" font-family="Helvetica,sans-Serif" font-size="10.00">StateMachine</text>
<polyline fill="none" stroke="black" points="161.5,-447.5 291.5,-447.5 "/>
<text text-anchor="start" x="169.5" y="-435.5" font-family="Helvetica,sans-Serif" font-size="10.00">+ logEnabled</text>
<text text-anchor="start" x="169.5" y="-424.5" font-family="Helvetica,sans-Serif" font-size="10.00"># controller</text>
<text text-anchor="start" x="169.5" y="-413.5" font-family="Helvetica,sans-Serif" font-size="10.00">&#45; states</text>
<polyline fill="none" stroke="black" points="161.5,-406.5 291.5,-406.5 "/>
<text text-anchor="start" x="169.5" y="-394.5" font-family="Helvetica,sans-Serif" font-size="10.00">+ GetActiveState()</text>
<text text-anchor="start" x="169.5" y="-383.5" font-family="Helvetica,sans-Serif" font-size="10.00">+ TriggerTransition()</text>
<text text-anchor="start" x="169.5" y="-372.5" font-family="Helvetica,sans-Serif" font-size="10.00">+ TriggerTransition()</text>
<text text-anchor="start" x="169.5" y="-361.5" font-family="Helvetica,sans-Serif" font-size="10.00">+ TriggerTransition()</text>
<text text-anchor="start" x="169.5" y="-350.5" font-family="Helvetica,sans-Serif" font-size="10.00">+ AnnounceCurrentState()</text>
<text text-anchor="start" x="169.5" y="-339.5" font-family="Helvetica,sans-Serif" font-size="10.00"># MyAwake()</text>
<text text-anchor="start" x="169.5" y="-328.5" font-family="Helvetica,sans-Serif" font-size="10.00">&#45; Awake()</text>
</a>
</g>
</g>
<!-- Node9&#45;&gt;Node11 -->
<g id="edge7" class="edge"><title>Node9&#45;&gt;Node11</title>
<path fill="none" stroke="#404040" d="M254.492,-544.996C241.921,-530.665 230.192,-513.901 223.5,-496 221.458,-490.536 219.996,-484.788 219,-478.922"/>
<polygon fill="none" stroke="#404040" points="218.972,-478.684 214.298,-473.193 217.569,-466.766 222.243,-472.258 218.972,-478.684"/>
<text text-anchor="middle" x="252" y="-488" font-family="Helvetica,sans-Serif" font-size="10.00"> #activeState</text>
</g>
<!-- Node10 -->
<g id="node3" class="node"><title>Node10</title>
<polygon fill="white" stroke="#bfbfbf" points="231,-735 231,-792 350,-792 350,-735 231,-735"/>
<text text-anchor="middle" x="290.5" y="-780" font-family="Helvetica,sans-Serif" font-size="10.00">StateMachineBehaviour</text>
<polyline fill="none" stroke="#bfbfbf" points="231,-773 350,-773 "/>
<text text-anchor="middle" x="290.5" y="-761" font-family="Helvetica,sans-Serif" font-size="10.00"> </text>
<polyline fill="none" stroke="#bfbfbf" points="231,-754 350,-754 "/>
<text text-anchor="middle" x="290.5" y="-742" font-family="Helvetica,sans-Serif" font-size="10.00"> </text>
</g>
<!-- Node10&#45;&gt;Node9 -->
<g id="edge2" class="edge"><title>Node10&#45;&gt;Node9</title>
<path fill="none" stroke="midnightblue" d="M294.056,-724.936C295.577,-708.878 297.411,-689.508 299.198,-670.632"/>
<polygon fill="none" stroke="midnightblue" points="290.564,-724.686 293.106,-734.971 297.533,-725.346 290.564,-724.686"/>
</g>
<!-- Node11&#45;&gt;Node9 -->
<g id="edge3" class="edge"><title>Node11&#45;&gt;Node9</title>
<path fill="none" stroke="#404040" d="M275.906,-466.693C279.083,-472.747 282.003,-478.892 284.5,-485 286.807,-490.644 288.883,-496.559 290.748,-502.587"/>
<polygon fill="none" stroke="#404040" points="290.791,-502.737 296.283,-507.41 294.081,-514.277 288.589,-509.604 290.791,-502.737"/>
<text text-anchor="middle" x="299.5" y="-488" font-family="Helvetica,sans-Serif" font-size="10.00"> #sm</text>
</g>
<!-- Node16 -->
<g id="node9" class="node"><title>Node16</title>
<g id="a_node9"><a xlink:href="classnet_1_1_net_state_machine.html" target="_top" xlink:title="{NetStateMachine\n|+ netOverlayPrefab\l&#45; netOverlayInstance\l|+ IsMaster()\l+ GetCurStateName()\l+ GetNetOverlay()\l+ HideNetOverlay()\l# MyAwake()\l&#45; OnDisconnect()\l}">
<polygon fill="white" stroke="black" points="196,-160.5 196,-283.5 307,-283.5 307,-160.5 196,-160.5"/>
<text text-anchor="middle" x="251.5" y="-271.5" font-family="Helvetica,sans-Serif" font-size="10.00">NetStateMachine</text>
<polyline fill="none" stroke="black" points="196,-264.5 307,-264.5 "/>
<text text-anchor="start" x="204" y="-252.5" font-family="Helvetica,sans-Serif" font-size="10.00">+ netOverlayPrefab</text>
<text text-anchor="start" x="204" y="-241.5" font-family="Helvetica,sans-Serif" font-size="10.00">&#45; netOverlayInstance</text>
<polyline fill="none" stroke="black" points="196,-234.5 307,-234.5 "/>
<text text-anchor="start" x="204" y="-222.5" font-family="Helvetica,sans-Serif" font-size="10.00">+ IsMaster()</text>
<text text-anchor="start" x="204" y="-211.5" font-family="Helvetica,sans-Serif" font-size="10.00">+ GetCurStateName()</text>
<text text-anchor="start" x="204" y="-200.5" font-family="Helvetica,sans-Serif" font-size="10.00">+ GetNetOverlay()</text>
<text text-anchor="start" x="204" y="-189.5" font-family="Helvetica,sans-Serif" font-size="10.00">+ HideNetOverlay()</text>
<text text-anchor="start" x="204" y="-178.5" font-family="Helvetica,sans-Serif" font-size="10.00"># MyAwake()</text>
<text text-anchor="start" x="204" y="-167.5" font-family="Helvetica,sans-Serif" font-size="10.00">&#45; OnDisconnect()</text>
</a>
</g>
</g>
<!-- Node11&#45;&gt;Node16 -->
<g id="edge10" class="edge"><title>Node11&#45;&gt;Node16</title>
<path fill="none" stroke="midnightblue" d="M238.507,-311.355C239.873,-302.062 241.248,-292.716 242.565,-283.761"/>
<polygon fill="none" stroke="midnightblue" points="235.022,-310.995 237.03,-321.397 241.948,-312.013 235.022,-310.995"/>
</g>
<!-- Node12 -->
<g id="node5" class="node"><title>Node12</title>
<polygon fill="white" stroke="#bfbfbf" points="0,-564 0,-621 83,-621 83,-564 0,-564"/>
<text text-anchor="middle" x="41.5" y="-609" font-family="Helvetica,sans-Serif" font-size="10.00">MonoBehaviour</text>
<polyline fill="none" stroke="#bfbfbf" points="0,-602 83,-602 "/>
<text text-anchor="middle" x="41.5" y="-590" font-family="Helvetica,sans-Serif" font-size="10.00"> </text>
<polyline fill="none" stroke="#bfbfbf" points="0,-583 83,-583 "/>
<text text-anchor="middle" x="41.5" y="-571" font-family="Helvetica,sans-Serif" font-size="10.00"> </text>
</g>
<!-- Node12&#45;&gt;Node11 -->
<g id="edge4" class="edge"><title>Node12&#45;&gt;Node11</title>
<path fill="none" stroke="midnightblue" d="M62.5419,-555.433C70.9522,-541.99 81.104,-526.877 91.5,-514 111.813,-488.839 137.767,-464.572 161.481,-444.589"/>
<polygon fill="none" stroke="midnightblue" points="59.5391,-553.635 57.2817,-563.986 65.5017,-557.302 59.5391,-553.635"/>
</g>
<!-- Node13 -->
<g id="node6" class="node"><title>Node13</title>
<g id="a_node6"><a xlink:href="class_unity_string_event.html" target="_top" xlink:title="{UnityStringEvent\n||}">
<polygon fill="white" stroke="black" points="101,-564 101,-621 190,-621 190,-564 101,-564"/>
<text text-anchor="middle" x="145.5" y="-609" font-family="Helvetica,sans-Serif" font-size="10.00">UnityStringEvent</text>
<polyline fill="none" stroke="black" points="101,-602 190,-602 "/>
<text text-anchor="middle" x="145.5" y="-590" font-family="Helvetica,sans-Serif" font-size="10.00"> </text>
<polyline fill="none" stroke="black" points="101,-583 190,-583 "/>
<text text-anchor="middle" x="145.5" y="-571" font-family="Helvetica,sans-Serif" font-size="10.00"> </text>
</a>
</g>
</g>
<!-- Node13&#45;&gt;Node11 -->
<g id="edge5" class="edge"><title>Node13&#45;&gt;Node11</title>
<path fill="none" stroke="#404040" d="M132.424,-563.73C123.939,-541.583 116.348,-510.209 127.5,-485 133.41,-471.64 142.391,-459.413 152.577,-448.568"/>
<polygon fill="none" stroke="#404040" points="152.882,-448.265 154.304,-441.195 161.377,-439.789 159.954,-446.858 152.882,-448.265"/>
<text text-anchor="middle" x="172" y="-488" font-family="Helvetica,sans-Serif" font-size="10.00"> +stateEnteredEvent</text>
</g>
<!-- Node14 -->
<g id="node7" class="node"><title>Node14</title>
<polygon fill="white" stroke="#bfbfbf" points="93,-735 93,-792 198,-792 198,-735 93,-735"/>
<text text-anchor="middle" x="145.5" y="-780" font-family="Helvetica,sans-Serif" font-size="10.00">UnityEvent&lt; string &gt;</text>
<polyline fill="none" stroke="#bfbfbf" points="93,-773 198,-773 "/>
<text text-anchor="middle" x="145.5" y="-761" font-family="Helvetica,sans-Serif" font-size="10.00"> </text>
<polyline fill="none" stroke="#bfbfbf" points="93,-754 198,-754 "/>
<text text-anchor="middle" x="145.5" y="-742" font-family="Helvetica,sans-Serif" font-size="10.00"> </text>
</g>
<!-- Node14&#45;&gt;Node13 -->
<g id="edge6" class="edge"><title>Node14&#45;&gt;Node13</title>
<path fill="none" stroke="midnightblue" d="M145.5,-724.828C145.5,-693.367 145.5,-649.248 145.5,-621.017"/>
<polygon fill="none" stroke="midnightblue" points="142,-724.971 145.5,-734.971 149,-724.971 142,-724.971"/>
</g>
<!-- Node15 -->
<g id="node8" class="node"><title>Node15</title>
<g id="a_node8"><a xlink:href="class_listener_group.html" target="_top" xlink:title="Helper class to execute adding and removing on all held Listeners (Events + Callbacks). ">
<polygon fill="white" stroke="black" points="368.5,-718.5 368.5,-808.5 456.5,-808.5 456.5,-718.5 368.5,-718.5"/>
<text text-anchor="middle" x="412.5" y="-796.5" font-family="Helvetica,sans-Serif" font-size="10.00">ListenerGroup</text>
<polyline fill="none" stroke="black" points="368.5,-789.5 456.5,-789.5 "/>
<text text-anchor="start" x="376.5" y="-777.5" font-family="Helvetica,sans-Serif" font-size="10.00">&#45; heldListeners</text>
<polyline fill="none" stroke="black" points="368.5,-770.5 456.5,-770.5 "/>
<text text-anchor="start" x="376.5" y="-758.5" font-family="Helvetica,sans-Serif" font-size="10.00">+ Add()</text>
<text text-anchor="start" x="376.5" y="-747.5" font-family="Helvetica,sans-Serif" font-size="10.00">+ Add()</text>
<text text-anchor="start" x="376.5" y="-736.5" font-family="Helvetica,sans-Serif" font-size="10.00">+ ActivateAll()</text>
<text text-anchor="start" x="376.5" y="-725.5" font-family="Helvetica,sans-Serif" font-size="10.00">+ DeactivateAll()</text>
</a>
</g>
</g>
<!-- Node15&#45;&gt;Node9 -->
<g id="edge8" class="edge"><title>Node15&#45;&gt;Node9</title>
<path fill="none" stroke="#404040" d="M384.65,-718.097C377.438,-706.599 369.418,-693.812 361.34,-680.934"/>
<polygon fill="none" stroke="#404040" points="361.24,-680.775 354.664,-677.817 354.864,-670.609 361.441,-673.566 361.24,-680.775"/>
<text text-anchor="middle" x="394" y="-692" font-family="Helvetica,sans-Serif" font-size="10.00"> &#45;listeners</text>
</g>
<!-- Node16&#45;&gt;Node8 -->
<g id="edge9" class="edge"><title>Node16&#45;&gt;Node8</title>
<path fill="none" stroke="#404040" d="M272.352,-160.119C276.341,-148.475 280.536,-136.225 284.585,-124.404"/>
<polygon fill="none" stroke="#404040" points="284.683,-124.117 282.843,-117.145 288.571,-112.765 290.411,-119.737 284.683,-124.117"/>
<text text-anchor="middle" x="300" y="-134" font-family="Helvetica,sans-Serif" font-size="10.00"> #netSM</text>
</g>
</g>
</svg>
