<?xml version="1.0" encoding="UTF-8" standalone="no"?>
<!DOCTYPE svg PUBLIC "-//W3C//DTD SVG 1.1//EN"
 "http://www.w3.org/Graphics/SVG/1.1/DTD/svg11.dtd">
<!-- Generated by graphviz version 2.38.0 (20140413.2041)
 -->
<!-- Title: AttackTargetTracker Pages: 1 -->
<svg width="553pt" height="1045pt"
 viewBox="0.00 0.00 553.41 1045.00" xmlns="http://www.w3.org/2000/svg" xmlns:xlink="http://www.w3.org/1999/xlink">
<g id="graph0" class="graph" transform="scale(1 1) rotate(0) translate(4 1041)">
<title>AttackTargetTracker</title>
<polygon fill="white" stroke="none" points="-4,4 -4,-1041 549.408,-1041 549.408,4 -4,4"/>
<!-- Node2 -->
<g id="node1" class="node"><title>Node2</title>
<polygon fill="#bfbfbf" stroke="black" points="146.908,-0.5 146.908,-321.5 318.908,-321.5 318.908,-0.5 146.908,-0.5"/>
<text text-anchor="middle" x="232.908" y="-309.5" font-family="Helvetica,sans-Serif" font-size="10.00">AttackTargetTracker</text>
<polyline fill="none" stroke="black" points="146.908,-302.5 318.908,-302.5 "/>
<text text-anchor="start" x="154.908" y="-290.5" font-family="Helvetica,sans-Serif" font-size="10.00">+ debugLog</text>
<text text-anchor="start" x="154.908" y="-279.5" font-family="Helvetica,sans-Serif" font-size="10.00">+ battleStartEvent</text>
<text text-anchor="start" x="154.908" y="-268.5" font-family="Helvetica,sans-Serif" font-size="10.00">+ battleEndEvent</text>
<text text-anchor="start" x="154.908" y="-257.5" font-family="Helvetica,sans-Serif" font-size="10.00">+ targetsInRange</text>
<text text-anchor="start" x="154.908" y="-246.5" font-family="Helvetica,sans-Serif" font-size="10.00">+ inBattle</text>
<text text-anchor="start" x="154.908" y="-235.5" font-family="Helvetica,sans-Serif" font-size="10.00">&#45; guardRangeDebounceToleranceSq</text>
<text text-anchor="start" x="154.908" y="-224.5" font-family="Helvetica,sans-Serif" font-size="10.00">&#45; guardRangeSq</text>
<text text-anchor="start" x="154.908" y="-213.5" font-family="Helvetica,sans-Serif" font-size="10.00">&#45; targetLostRangeSq</text>
<text text-anchor="start" x="154.908" y="-202.5" font-family="Helvetica,sans-Serif" font-size="10.00">&#45; updateCoroutineReference</text>
<polyline fill="none" stroke="black" points="146.908,-195.5 318.908,-195.5 "/>
<text text-anchor="start" x="154.908" y="-183.5" font-family="Helvetica,sans-Serif" font-size="10.00">+ ScanForTargetsAndUpdate()</text>
<text text-anchor="start" x="154.908" y="-172.5" font-family="Helvetica,sans-Serif" font-size="10.00">&#45; Awake()</text>
<text text-anchor="start" x="154.908" y="-161.5" font-family="Helvetica,sans-Serif" font-size="10.00">&#45; Start()</text>
<text text-anchor="start" x="154.908" y="-150.5" font-family="Helvetica,sans-Serif" font-size="10.00">&#45; UpdateTargetCoroutine()</text>
<text text-anchor="start" x="154.908" y="-139.5" font-family="Helvetica,sans-Serif" font-size="10.00">&#45; OnTriggerEnter2D()</text>
<text text-anchor="start" x="154.908" y="-128.5" font-family="Helvetica,sans-Serif" font-size="10.00">&#45; StartRegularTargetUpdates()</text>
<text text-anchor="start" x="154.908" y="-117.5" font-family="Helvetica,sans-Serif" font-size="10.00">&#45; PauseRegularTargetUpdates()</text>
<text text-anchor="start" x="154.908" y="-106.5" font-family="Helvetica,sans-Serif" font-size="10.00">&#45; AddTargetAndRegisterRemoval</text>
<text text-anchor="start" x="154.908" y="-95.5" font-family="Helvetica,sans-Serif" font-size="10.00">UponDeath()</text>
<text text-anchor="start" x="154.908" y="-84.5" font-family="Helvetica,sans-Serif" font-size="10.00">&#45; UpdateCurrentTarget()</text>
<text text-anchor="start" x="154.908" y="-73.5" font-family="Helvetica,sans-Serif" font-size="10.00">&#45; GetClosestTargetAndNullToo</text>
<text text-anchor="start" x="154.908" y="-62.5" font-family="Helvetica,sans-Serif" font-size="10.00">Distant()</text>
<text text-anchor="start" x="154.908" y="-51.5" font-family="Helvetica,sans-Serif" font-size="10.00">&#45; CheckWhetherCurAttackTarget</text>
<text text-anchor="start" x="154.908" y="-40.5" font-family="Helvetica,sans-Serif" font-size="10.00">IsLost()</text>
<text text-anchor="start" x="154.908" y="-29.5" font-family="Helvetica,sans-Serif" font-size="10.00">&#45; RemoveTargetDueToDeath()</text>
<text text-anchor="start" x="154.908" y="-18.5" font-family="Helvetica,sans-Serif" font-size="10.00">&#45; CleanTargetListFromNullEntries()</text>
<text text-anchor="start" x="154.908" y="-7.5" font-family="Helvetica,sans-Serif" font-size="10.00">&#45; DebugLog()</text>
</g>
<!-- Node3 -->
<g id="node2" class="node"><title>Node3</title>
<polygon fill="white" stroke="#bfbfbf" points="14.4083,-979.5 14.4083,-1036.5 97.4083,-1036.5 97.4083,-979.5 14.4083,-979.5"/>
<text text-anchor="middle" x="55.9083" y="-1024.5" font-family="Helvetica,sans-Serif" font-size="10.00">MonoBehaviour</text>
<polyline fill="none" stroke="#bfbfbf" points="14.4083,-1017.5 97.4083,-1017.5 "/>
<text text-anchor="middle" x="55.9083" y="-1005.5" font-family="Helvetica,sans-Serif" font-size="10.00"> </text>
<polyline fill="none" stroke="#bfbfbf" points="14.4083,-998.5 97.4083,-998.5 "/>
<text text-anchor="middle" x="55.9083" y="-986.5" font-family="Helvetica,sans-Serif" font-size="10.00"> </text>
</g>
<!-- Node3&#45;&gt;Node2 -->
<g id="edge1" class="edge"><title>Node3&#45;&gt;Node2</title>
<path fill="none" stroke="midnightblue" d="M38.9336,-969.82C35.6113,-960.89 32.6265,-951.254 30.9083,-942 -15.7597,-690.662 -16.2589,-605.448 80.9083,-369 96.9233,-330.029 121.827,-291.623 146.875,-258.675"/>
<polygon fill="none" stroke="midnightblue" points="35.7013,-971.164 42.6271,-979.182 42.2128,-968.595 35.7013,-971.164"/>
</g>
<!-- Node6 -->
<g id="node5" class="node"><title>Node6</title>
<g id="a_node5"><a xlink:href="class_unit.html" target="_top" xlink:title="{Unit\n|+ controlActiveDebugOverride\l+ curMeleeAtkRangeSq\l+ curSpeed\l&#45; curMeleeAtkRange\l&#45; curMeleeAtkDelay\l&#45; curConewidth\l&#45; curMeleeAtkCooldown\l&#45; curAttackSpeed\l&#45; curAttackDamage\l&#45; pv\l&#45; attackAvailable\l|+ TryMeleeAttack()\l+ IsControlActive()\l&#45; Awake()\l&#45; EvalMeleeAttack()\l&#45; AnimateMeleeAttack()\l&#45; HitMeleeAttack()\l}">
<polygon fill="white" stroke="black" points="89.9083,-369.5 89.9083,-591.5 233.908,-591.5 233.908,-369.5 89.9083,-369.5"/>
<text text-anchor="middle" x="161.908" y="-579.5" font-family="Helvetica,sans-Serif" font-size="10.00">Unit</text>
<polyline fill="none" stroke="black" points="89.9083,-572.5 233.908,-572.5 "/>
<text text-anchor="start" x="97.9083" y="-560.5" font-family="Helvetica,sans-Serif" font-size="10.00">+ controlActiveDebugOverride</text>
<text text-anchor="start" x="97.9083" y="-549.5" font-family="Helvetica,sans-Serif" font-size="10.00">+ curMeleeAtkRangeSq</text>
<text text-anchor="start" x="97.9083" y="-538.5" font-family="Helvetica,sans-Serif" font-size="10.00">+ curSpeed</text>
<text text-anchor="start" x="97.9083" y="-527.5" font-family="Helvetica,sans-Serif" font-size="10.00">&#45; curMeleeAtkRange</text>
<text text-anchor="start" x="97.9083" y="-516.5" font-family="Helvetica,sans-Serif" font-size="10.00">&#45; curMeleeAtkDelay</text>
<text text-anchor="start" x="97.9083" y="-505.5" font-family="Helvetica,sans-Serif" font-size="10.00">&#45; curConewidth</text>
<text text-anchor="start" x="97.9083" y="-494.5" font-family="Helvetica,sans-Serif" font-size="10.00">&#45; curMeleeAtkCooldown</text>
<text text-anchor="start" x="97.9083" y="-483.5" font-family="Helvetica,sans-Serif" font-size="10.00">&#45; curAttackSpeed</text>
<text text-anchor="start" x="97.9083" y="-472.5" font-family="Helvetica,sans-Serif" font-size="10.00">&#45; curAttackDamage</text>
<text text-anchor="start" x="97.9083" y="-461.5" font-family="Helvetica,sans-Serif" font-size="10.00">&#45; pv</text>
<text text-anchor="start" x="97.9083" y="-450.5" font-family="Helvetica,sans-Serif" font-size="10.00">&#45; attackAvailable</text>
<polyline fill="none" stroke="black" points="89.9083,-443.5 233.908,-443.5 "/>
<text text-anchor="start" x="97.9083" y="-431.5" font-family="Helvetica,sans-Serif" font-size="10.00">+ TryMeleeAttack()</text>
<text text-anchor="start" x="97.9083" y="-420.5" font-family="Helvetica,sans-Serif" font-size="10.00">+ IsControlActive()</text>
<text text-anchor="start" x="97.9083" y="-409.5" font-family="Helvetica,sans-Serif" font-size="10.00">&#45; Awake()</text>
<text text-anchor="start" x="97.9083" y="-398.5" font-family="Helvetica,sans-Serif" font-size="10.00">&#45; EvalMeleeAttack()</text>
<text text-anchor="start" x="97.9083" y="-387.5" font-family="Helvetica,sans-Serif" font-size="10.00">&#45; AnimateMeleeAttack()</text>
<text text-anchor="start" x="97.9083" y="-376.5" font-family="Helvetica,sans-Serif" font-size="10.00">&#45; HitMeleeAttack()</text>
</a>
</g>
</g>
<!-- Node3&#45;&gt;Node6 -->
<g id="edge5" class="edge"><title>Node3&#45;&gt;Node6</title>
<path fill="none" stroke="midnightblue" d="M48.2773,-969.236C38.1011,-911.869 23.7833,-799.738 45.9083,-708 55.5155,-668.165 73.3879,-627.464 92.2754,-591.752"/>
<polygon fill="none" stroke="midnightblue" points="44.8749,-970.088 50.1195,-979.293 51.7604,-968.826 44.8749,-970.088"/>
</g>
<!-- Node7 -->
<g id="node6" class="node"><title>Node7</title>
<g id="a_node6"><a xlink:href="class_unit_sprite_animator.html" target="_top" xlink:title="Triggers the Sprite Animator depending on actual current movement. ">
<polygon fill="white" stroke="black" points="55.4083,-763.5 55.4083,-886.5 184.408,-886.5 184.408,-763.5 55.4083,-763.5"/>
<text text-anchor="middle" x="119.908" y="-874.5" font-family="Helvetica,sans-Serif" font-size="10.00">UnitSpriteAnimator</text>
<polyline fill="none" stroke="black" points="55.4083,-867.5 184.408,-867.5 "/>
<text text-anchor="start" x="63.4083" y="-855.5" font-family="Helvetica,sans-Serif" font-size="10.00">&#45; v</text>
<text text-anchor="start" x="63.4083" y="-844.5" font-family="Helvetica,sans-Serif" font-size="10.00">&#45; rb</text>
<text text-anchor="start" x="63.4083" y="-833.5" font-family="Helvetica,sans-Serif" font-size="10.00">&#45; anim</text>
<text text-anchor="start" x="63.4083" y="-822.5" font-family="Helvetica,sans-Serif" font-size="10.00">&#45; rbLastPos</text>
<polyline fill="none" stroke="black" points="55.4083,-815.5 184.408,-815.5 "/>
<text text-anchor="start" x="63.4083" y="-803.5" font-family="Helvetica,sans-Serif" font-size="10.00">+ AnimateAttack()</text>
<text text-anchor="start" x="63.4083" y="-792.5" font-family="Helvetica,sans-Serif" font-size="10.00">&#45; Awake()</text>
<text text-anchor="start" x="63.4083" y="-781.5" font-family="Helvetica,sans-Serif" font-size="10.00">&#45; FixedUpdate()</text>
<text text-anchor="start" x="63.4083" y="-770.5" font-family="Helvetica,sans-Serif" font-size="10.00">&#45; UpdateTrackedVelocity()</text>
</a>
</g>
</g>
<!-- Node3&#45;&gt;Node7 -->
<g id="edge7" class="edge"><title>Node3&#45;&gt;Node7</title>
<path fill="none" stroke="midnightblue" d="M69.1042,-969.68C77.578,-945.715 88.7781,-914.04 98.5054,-886.53"/>
<polygon fill="none" stroke="midnightblue" points="65.8019,-968.521 65.768,-979.115 72.4015,-970.854 65.8019,-968.521"/>
</g>
<!-- Node8 -->
<g id="node7" class="node"><title>Node8</title>
<g id="a_node7"><a xlink:href="classmechanics_1_1_destructible.html" target="_top" xlink:title="Destructibles have hit points and are affected by damage sources. ">
<polygon fill="white" stroke="black" points="202.908,-708.5 202.908,-941.5 336.908,-941.5 336.908,-708.5 202.908,-708.5"/>
<text text-anchor="middle" x="269.908" y="-929.5" font-family="Helvetica,sans-Serif" font-size="10.00">Destructible</text>
<polyline fill="none" stroke="black" points="202.908,-922.5 336.908,-922.5 "/>
<text text-anchor="start" x="210.908" y="-910.5" font-family="Helvetica,sans-Serif" font-size="10.00">+ isNeutral</text>
<text text-anchor="start" x="210.908" y="-899.5" font-family="Helvetica,sans-Serif" font-size="10.00">+ brokenObjectPrefab</text>
<text text-anchor="start" x="210.908" y="-888.5" font-family="Helvetica,sans-Serif" font-size="10.00">+ destroyedAfter</text>
<text text-anchor="start" x="210.908" y="-877.5" font-family="Helvetica,sans-Serif" font-size="10.00">+ hitpoints</text>
<text text-anchor="start" x="210.908" y="-866.5" font-family="Helvetica,sans-Serif" font-size="10.00">+ sync</text>
<text text-anchor="start" x="210.908" y="-855.5" font-family="Helvetica,sans-Serif" font-size="10.00">+ destroyedEvent</text>
<text text-anchor="start" x="210.908" y="-844.5" font-family="Helvetica,sans-Serif" font-size="10.00">+ dmgReceivedEvent</text>
<text text-anchor="start" x="210.908" y="-833.5" font-family="Helvetica,sans-Serif" font-size="10.00">&#45; potentialPhotonView</text>
<polyline fill="none" stroke="black" points="202.908,-826.5 336.908,-826.5 "/>
<text text-anchor="start" x="210.908" y="-814.5" font-family="Helvetica,sans-Serif" font-size="10.00">+ Hit()</text>
<text text-anchor="start" x="210.908" y="-803.5" font-family="Helvetica,sans-Serif" font-size="10.00">+ IsAlive()</text>
<text text-anchor="start" x="210.908" y="-792.5" font-family="Helvetica,sans-Serif" font-size="10.00">+ IsEnemy()</text>
<text text-anchor="start" x="210.908" y="-781.5" font-family="Helvetica,sans-Serif" font-size="10.00">+ IsMine()</text>
<text text-anchor="start" x="210.908" y="-770.5" font-family="Helvetica,sans-Serif" font-size="10.00">+ OnPhotonSerializeView()</text>
<text text-anchor="start" x="210.908" y="-759.5" font-family="Helvetica,sans-Serif" font-size="10.00">+ Kill()</text>
<text text-anchor="start" x="210.908" y="-748.5" font-family="Helvetica,sans-Serif" font-size="10.00">&#45; Awake()</text>
<text text-anchor="start" x="210.908" y="-737.5" font-family="Helvetica,sans-Serif" font-size="10.00">&#45; Break()</text>
<text text-anchor="start" x="210.908" y="-726.5" font-family="Helvetica,sans-Serif" font-size="10.00">&#45; Throw()</text>
<text text-anchor="start" x="210.908" y="-715.5" font-family="Helvetica,sans-Serif" font-size="10.00">&#45; SelfDestruct()</text>
</a>
</g>
</g>
<!-- Node3&#45;&gt;Node8 -->
<g id="edge9" class="edge"><title>Node3&#45;&gt;Node8</title>
<path fill="none" stroke="midnightblue" d="M107.123,-990.345C134.665,-979.609 167.99,-963.588 192.908,-942 196.288,-939.072 199.582,-935.961 202.784,-932.71"/>
<polygon fill="none" stroke="midnightblue" points="105.765,-987.116 97.6449,-993.922 108.237,-993.665 105.765,-987.116"/>
</g>
<!-- Node4 -->
<g id="node3" class="node"><title>Node4</title>
<g id="a_node3"><a xlink:href="class_game_settings.html" target="_top" xlink:title="Wraps game&#45;wide settings into one asset, modifyable from the editor. ">
<polygon fill="white" stroke="black" points="416.408,-610.5 416.408,-689.5 545.408,-689.5 545.408,-610.5 416.408,-610.5"/>
<text text-anchor="middle" x="480.908" y="-677.5" font-family="Helvetica,sans-Serif" font-size="10.00">GameSettings</text>
<polyline fill="none" stroke="black" points="416.408,-670.5 545.408,-670.5 "/>
<text text-anchor="start" x="424.408" y="-658.5" font-family="Helvetica,sans-Serif" font-size="10.00">+ unitGuardRange</text>
<text text-anchor="start" x="424.408" y="-647.5" font-family="Helvetica,sans-Serif" font-size="10.00">+ unitTargetLostRange</text>
<text text-anchor="start" x="424.408" y="-636.5" font-family="Helvetica,sans-Serif" font-size="10.00">+ unitTargetUpdateInterval</text>
<polyline fill="none" stroke="black" points="416.408,-629.5 545.408,-629.5 "/>
<text text-anchor="middle" x="480.908" y="-617.5" font-family="Helvetica,sans-Serif" font-size="10.00"> </text>
</a>
</g>
</g>
<!-- Node4&#45;&gt;Node2 -->
<g id="edge2" class="edge"><title>Node4&#45;&gt;Node2</title>
<path fill="none" stroke="#404040" d="M463.823,-610.047C439.658,-555.536 393.562,-453.67 349.908,-369 341.993,-353.647 333.539,-337.783 324.934,-321.984"/>
<polygon fill="none" stroke="#404040" points="324.719,-321.591 318.33,-318.248 318.958,-311.065 325.347,-314.407 324.719,-321.591"/>
<text text-anchor="middle" x="476.908" y="-478" font-family="Helvetica,sans-Serif" font-size="10.00"> +settings</text>
</g>
<!-- Node5 -->
<g id="node4" class="node"><title>Node5</title>
<polygon fill="white" stroke="#bfbfbf" points="441.408,-979.5 441.408,-1036.5 530.408,-1036.5 530.408,-979.5 441.408,-979.5"/>
<text text-anchor="middle" x="485.908" y="-1024.5" font-family="Helvetica,sans-Serif" font-size="10.00">ScriptableObject</text>
<polyline fill="none" stroke="#bfbfbf" points="441.408,-1017.5 530.408,-1017.5 "/>
<text text-anchor="middle" x="485.908" y="-1005.5" font-family="Helvetica,sans-Serif" font-size="10.00"> </text>
<polyline fill="none" stroke="#bfbfbf" points="441.408,-998.5 530.408,-998.5 "/>
<text text-anchor="middle" x="485.908" y="-986.5" font-family="Helvetica,sans-Serif" font-size="10.00"> </text>
</g>
<!-- Node5&#45;&gt;Node4 -->
<g id="edge3" class="edge"><title>Node5&#45;&gt;Node4</title>
<path fill="none" stroke="midnightblue" d="M488.635,-969.081C489.165,-960.201 489.639,-950.772 489.908,-942 493.104,-838.049 498.043,-811.681 489.908,-708 489.438,-702.007 488.694,-695.693 487.83,-689.536"/>
<polygon fill="none" stroke="midnightblue" points="485.135,-968.982 487.997,-979.182 492.121,-969.423 485.135,-968.982"/>
</g>
<!-- Node10 -->
<g id="node9" class="node"><title>Node10</title>
<g id="a_node9"><a xlink:href="class_unit_info.html" target="_top" xlink:title="{UnitInfo\n|+ buildtime\l+ prefab\l+ attackRange\l+ attackDamage\l+ hitpoints\l+ attackCooldown\l+ moveSpeed\l+ attackSpeed\l+ speedPenaltyOnAttack\l+ carryStrength\l|}">
<polygon fill="white" stroke="black" points="354.908,-747 354.908,-903 480.908,-903 480.908,-747 354.908,-747"/>
<text text-anchor="middle" x="417.908" y="-891" font-family="Helvetica,sans-Serif" font-size="10.00">UnitInfo</text>
<polyline fill="none" stroke="black" points="354.908,-884 480.908,-884 "/>
<text text-anchor="start" x="362.908" y="-872" font-family="Helvetica,sans-Serif" font-size="10.00">+ buildtime</text>
<text text-anchor="start" x="362.908" y="-861" font-family="Helvetica,sans-Serif" font-size="10.00">+ prefab</text>
<text text-anchor="start" x="362.908" y="-850" font-family="Helvetica,sans-Serif" font-size="10.00">+ attackRange</text>
<text text-anchor="start" x="362.908" y="-839" font-family="Helvetica,sans-Serif" font-size="10.00">+ attackDamage</text>
<text text-anchor="start" x="362.908" y="-828" font-family="Helvetica,sans-Serif" font-size="10.00">+ hitpoints</text>
<text text-anchor="start" x="362.908" y="-817" font-family="Helvetica,sans-Serif" font-size="10.00">+ attackCooldown</text>
<text text-anchor="start" x="362.908" y="-806" font-family="Helvetica,sans-Serif" font-size="10.00">+ moveSpeed</text>
<text text-anchor="start" x="362.908" y="-795" font-family="Helvetica,sans-Serif" font-size="10.00">+ attackSpeed</text>
<text text-anchor="start" x="362.908" y="-784" font-family="Helvetica,sans-Serif" font-size="10.00">+ speedPenaltyOnAttack</text>
<text text-anchor="start" x="362.908" y="-773" font-family="Helvetica,sans-Serif" font-size="10.00">+ carryStrength</text>
<polyline fill="none" stroke="black" points="354.908,-766 480.908,-766 "/>
<text text-anchor="middle" x="417.908" y="-754" font-family="Helvetica,sans-Serif" font-size="10.00"> </text>
</a>
</g>
</g>
<!-- Node5&#45;&gt;Node10 -->
<g id="edge12" class="edge"><title>Node5&#45;&gt;Node10</title>
<path fill="none" stroke="midnightblue" d="M471.838,-969.549C464.619,-950.333 455.547,-926.185 446.914,-903.206"/>
<polygon fill="none" stroke="midnightblue" points="468.639,-970.985 475.432,-979.115 475.192,-968.523 468.639,-970.985"/>
</g>
<!-- Node6&#45;&gt;Node2 -->
<g id="edge4" class="edge"><title>Node6&#45;&gt;Node2</title>
<path fill="none" stroke="#404040" d="M186.541,-369.345C189.125,-357.793 191.793,-345.861 194.484,-333.827"/>
<polygon fill="none" stroke="#404040" points="194.561,-333.482 191.967,-326.753 197.18,-321.771 199.774,-328.499 194.561,-333.482"/>
<text text-anchor="middle" x="202.908" y="-343" font-family="Helvetica,sans-Serif" font-size="10.00"> &#45;unit</text>
</g>
<!-- Node7&#45;&gt;Node6 -->
<g id="edge6" class="edge"><title>Node7&#45;&gt;Node6</title>
<path fill="none" stroke="#404040" d="M117.672,-763.229C117.047,-720.201 118.13,-661.262 125.908,-610 126.239,-607.819 126.595,-605.622 126.975,-603.413"/>
<polygon fill="none" stroke="#404040" points="126.993,-603.313 124.168,-596.678 129.206,-591.519 132.031,-598.154 126.993,-603.313"/>
<text text-anchor="middle" x="148.408" y="-647.5" font-family="Helvetica,sans-Serif" font-size="10.00"> &#45;unitAnim</text>
</g>
<!-- Node8&#45;&gt;Node2 -->
<g id="edge13" class="edge"><title>Node8&#45;&gt;Node2</title>
<path fill="none" stroke="#404040" d="M263.442,-708.31C257.654,-604.754 249.09,-451.53 242.504,-333.685"/>
<polygon fill="none" stroke="#404040" points="242.502,-333.654 238.174,-327.886 241.833,-321.672 246.161,-327.44 242.502,-333.654"/>
<text text-anchor="middle" x="294.908" y="-483.5" font-family="Helvetica,sans-Serif" font-size="10.00"> &#45;thisDestructible</text>
<text text-anchor="middle" x="294.908" y="-472.5" font-family="Helvetica,sans-Serif" font-size="10.00">+curAttackTarget</text>
</g>
<!-- Node8&#45;&gt;Node6 -->
<g id="edge8" class="edge"><title>Node8&#45;&gt;Node6</title>
<path fill="none" stroke="#404040" d="M205.884,-708.41C203.355,-702.258 201.007,-696.099 198.908,-690 189.472,-662.579 182.338,-632.26 176.983,-603.433"/>
<polygon fill="none" stroke="#404040" points="176.982,-603.427 171.988,-598.225 174.87,-591.614 179.863,-596.816 176.982,-603.427"/>
<text text-anchor="middle" x="227.408" y="-647.5" font-family="Helvetica,sans-Serif" font-size="10.00"> &#45;destructible</text>
</g>
<!-- Node9 -->
<g id="node8" class="node"><title>Node9</title>
<polygon fill="white" stroke="#bfbfbf" points="227.908,-979.5 227.908,-1036.5 311.908,-1036.5 311.908,-979.5 227.908,-979.5"/>
<text text-anchor="middle" x="269.908" y="-1024.5" font-family="Helvetica,sans-Serif" font-size="10.00">IPunObservable</text>
<polyline fill="none" stroke="#bfbfbf" points="227.908,-1017.5 311.908,-1017.5 "/>
<text text-anchor="middle" x="269.908" y="-1005.5" font-family="Helvetica,sans-Serif" font-size="10.00"> </text>
<polyline fill="none" stroke="#bfbfbf" points="227.908,-998.5 311.908,-998.5 "/>
<text text-anchor="middle" x="269.908" y="-986.5" font-family="Helvetica,sans-Serif" font-size="10.00"> </text>
</g>
<!-- Node9&#45;&gt;Node8 -->
<g id="edge10" class="edge"><title>Node9&#45;&gt;Node8</title>
<path fill="none" stroke="midnightblue" d="M269.908,-969.008C269.908,-960.609 269.908,-951.288 269.908,-941.547"/>
<polygon fill="none" stroke="midnightblue" points="266.408,-969.115 269.908,-979.115 273.408,-969.115 266.408,-969.115"/>
</g>
<!-- Node10&#45;&gt;Node6 -->
<g id="edge11" class="edge"><title>Node10&#45;&gt;Node6</title>
<path fill="none" stroke="#404040" d="M372.209,-746.833C363.786,-733.657 354.827,-720.271 345.908,-708 306.229,-653.405 290.421,-644.419 247.908,-592 245.861,-589.476 243.794,-586.915 241.713,-584.326"/>
<polygon fill="none" stroke="#404040" points="241.634,-584.226 234.762,-582.04 234.137,-574.856 241.009,-577.042 241.634,-584.226"/>
<text text-anchor="middle" x="343.408" y="-647.5" font-family="Helvetica,sans-Serif" font-size="10.00"> +info</text>
</g>
</g>
</svg>
