<?xml version="1.0" encoding="UTF-8" standalone="no"?>
<!DOCTYPE svg PUBLIC "-//W3C//DTD SVG 1.1//EN"
 "http://www.w3.org/Graphics/SVG/1.1/DTD/svg11.dtd">
<!-- Generated by graphviz version 2.38.0 (20140413.2041)
 -->
<!-- Title: GameStringEvent Pages: 1 -->
<svg width="117pt" height="320pt"
 viewBox="0.00 0.00 117.00 320.00" xmlns="http://www.w3.org/2000/svg" xmlns:xlink="http://www.w3.org/1999/xlink">
<g id="graph0" class="graph" transform="scale(1 1) rotate(0) translate(4 316)">
<title>GameStringEvent</title>
<polygon fill="white" stroke="none" points="-4,4 -4,-316 113,-316 113,4 -4,4"/>
<!-- Node0 -->
<g id="node1" class="node"><title>Node0</title>
<polygon fill="#bfbfbf" stroke="black" points="8.5,-0.5 8.5,-57.5 100.5,-57.5 100.5,-0.5 8.5,-0.5"/>
<text text-anchor="middle" x="54.5" y="-45.5" font-family="Helvetica,sans-Serif" font-size="10.00">GameStringEvent</text>
<polyline fill="none" stroke="black" points="8.5,-38.5 100.5,-38.5 "/>
<text text-anchor="middle" x="54.5" y="-26.5" font-family="Helvetica,sans-Serif" font-size="10.00"> </text>
<polyline fill="none" stroke="black" points="8.5,-19.5 100.5,-19.5 "/>
<text text-anchor="middle" x="54.5" y="-7.5" font-family="Helvetica,sans-Serif" font-size="10.00"> </text>
</g>
<!-- Node1 -->
<g id="node2" class="node"><title>Node1</title>
<g id="a_node2"><a xlink:href="class_game_event.html" target="_top" xlink:title="{GameEvent\&lt; string \&gt;\n|+ Event\l+ Event\l|+ Invoke()\l+ Invoke()\l+ AddListener()\l+ AddListener()\l+ RemovedListener()\l+ RemoveListener()\l}">
<polygon fill="white" stroke="black" points="0,-94.5 0,-217.5 109,-217.5 109,-94.5 0,-94.5"/>
<text text-anchor="middle" x="54.5" y="-205.5" font-family="Helvetica,sans-Serif" font-size="10.00">GameEvent&lt; string &gt;</text>
<polyline fill="none" stroke="black" points="0,-198.5 109,-198.5 "/>
<text text-anchor="start" x="8" y="-186.5" font-family="Helvetica,sans-Serif" font-size="10.00">+ Event</text>
<text text-anchor="start" x="8" y="-175.5" font-family="Helvetica,sans-Serif" font-size="10.00">+ Event</text>
<polyline fill="none" stroke="black" points="0,-168.5 109,-168.5 "/>
<text text-anchor="start" x="8" y="-156.5" font-family="Helvetica,sans-Serif" font-size="10.00">+ Invoke()</text>
<text text-anchor="start" x="8" y="-145.5" font-family="Helvetica,sans-Serif" font-size="10.00">+ Invoke()</text>
<text text-anchor="start" x="8" y="-134.5" font-family="Helvetica,sans-Serif" font-size="10.00">+ AddListener()</text>
<text text-anchor="start" x="8" y="-123.5" font-family="Helvetica,sans-Serif" font-size="10.00">+ AddListener()</text>
<text text-anchor="start" x="8" y="-112.5" font-family="Helvetica,sans-Serif" font-size="10.00">+ RemovedListener()</text>
<text text-anchor="start" x="8" y="-101.5" font-family="Helvetica,sans-Serif" font-size="10.00">+ RemoveListener()</text>
</a>
</g>
</g>
<!-- Node1&#45;&gt;Node0 -->
<g id="edge1" class="edge"><title>Node1&#45;&gt;Node0</title>
<path fill="none" stroke="midnightblue" d="M54.5,-84.1384C54.5,-74.7999 54.5,-65.715 54.5,-57.7379"/>
<polygon fill="none" stroke="midnightblue" points="51.0001,-84.3308 54.5,-94.3308 58.0001,-84.3309 51.0001,-84.3308"/>
</g>
<!-- Node2 -->
<g id="node3" class="node"><title>Node2</title>
<polygon fill="white" stroke="#bfbfbf" points="10,-254.5 10,-311.5 99,-311.5 99,-254.5 10,-254.5"/>
<text text-anchor="middle" x="54.5" y="-299.5" font-family="Helvetica,sans-Serif" font-size="10.00">ScriptableObject</text>
<polyline fill="none" stroke="#bfbfbf" points="10,-292.5 99,-292.5 "/>
<text text-anchor="middle" x="54.5" y="-280.5" font-family="Helvetica,sans-Serif" font-size="10.00"> </text>
<polyline fill="none" stroke="#bfbfbf" points="10,-273.5 99,-273.5 "/>
<text text-anchor="middle" x="54.5" y="-261.5" font-family="Helvetica,sans-Serif" font-size="10.00"> </text>
</g>
<!-- Node2&#45;&gt;Node1 -->
<g id="edge2" class="edge"><title>Node2&#45;&gt;Node1</title>
<path fill="none" stroke="midnightblue" d="M54.5,-244.099C54.5,-235.739 54.5,-226.68 54.5,-217.672"/>
<polygon fill="none" stroke="midnightblue" points="51.0001,-244.258 54.5,-254.258 58.0001,-244.258 51.0001,-244.258"/>
</g>
</g>
</svg>
