<?xml version="1.0" encoding="UTF-8" standalone="no"?>
<!DOCTYPE svg PUBLIC "-//W3C//DTD SVG 1.1//EN"
 "http://www.w3.org/Graphics/SVG/1.1/DTD/svg11.dtd">
<!-- Generated by graphviz version 2.38.0 (20140413.2041)
 -->
<!-- Title: HostNewRoomState Pages: 1 -->
<svg width="143pt" height="590pt"
 viewBox="0.00 0.00 143.00 590.00" xmlns="http://www.w3.org/2000/svg" xmlns:xlink="http://www.w3.org/1999/xlink">
<g id="graph0" class="graph" transform="scale(1 1) rotate(0) translate(4 586)">
<title>HostNewRoomState</title>
<polygon fill="white" stroke="none" points="-4,4 -4,-586 139,-586 139,4 -4,4"/>
<!-- Node0 -->
<g id="node1" class="node"><title>Node0</title>
<polygon fill="#bfbfbf" stroke="black" points="6.5,-0.5 6.5,-112.5 128.5,-112.5 128.5,-0.5 6.5,-0.5"/>
<text text-anchor="middle" x="67.5" y="-100.5" font-family="Helvetica,sans-Serif" font-size="10.00">HostNewRoomState</text>
<polyline fill="none" stroke="black" points="6.5,-93.5 128.5,-93.5 "/>
<text text-anchor="start" x="14.5" y="-81.5" font-family="Helvetica,sans-Serif" font-size="10.00">+ mainPlayer</text>
<text text-anchor="start" x="14.5" y="-70.5" font-family="Helvetica,sans-Serif" font-size="10.00">&#45; numTries</text>
<polyline fill="none" stroke="black" points="6.5,-63.5 128.5,-63.5 "/>
<text text-anchor="start" x="14.5" y="-51.5" font-family="Helvetica,sans-Serif" font-size="10.00"># OnMyStateInit()</text>
<text text-anchor="start" x="14.5" y="-40.5" font-family="Helvetica,sans-Serif" font-size="10.00"># OnOverlayStateEnter()</text>
<text text-anchor="start" x="14.5" y="-29.5" font-family="Helvetica,sans-Serif" font-size="10.00">&#45; GetRoomName()</text>
<text text-anchor="start" x="14.5" y="-18.5" font-family="Helvetica,sans-Serif" font-size="10.00">&#45; OnHosting()</text>
<text text-anchor="start" x="14.5" y="-7.5" font-family="Helvetica,sans-Serif" font-size="10.00">&#45; OnHostingFailed()</text>
</g>
<!-- Node1 -->
<g id="node2" class="node"><title>Node1</title>
<g id="a_node2"><a xlink:href="classnet_1_1_net_overlay_state.html" target="_top" xlink:title="{NetOverlayState\n|# netOverlayRef\l# netSM\l&#45; minVisibleTime\l&#45; timestampOfStateEntered\l|# TriggerTransitionWithMin\lVisibleTime()\l# OnOverlayStateEnter()\l# OnMyStateEnter()\l}">
<polygon fill="white" stroke="black" points="0,-149.5 0,-272.5 135,-272.5 135,-149.5 0,-149.5"/>
<text text-anchor="middle" x="67.5" y="-260.5" font-family="Helvetica,sans-Serif" font-size="10.00">NetOverlayState</text>
<polyline fill="none" stroke="black" points="0,-253.5 135,-253.5 "/>
<text text-anchor="start" x="8" y="-241.5" font-family="Helvetica,sans-Serif" font-size="10.00"># netOverlayRef</text>
<text text-anchor="start" x="8" y="-230.5" font-family="Helvetica,sans-Serif" font-size="10.00"># netSM</text>
<text text-anchor="start" x="8" y="-219.5" font-family="Helvetica,sans-Serif" font-size="10.00">&#45; minVisibleTime</text>
<text text-anchor="start" x="8" y="-208.5" font-family="Helvetica,sans-Serif" font-size="10.00">&#45; timestampOfStateEntered</text>
<polyline fill="none" stroke="black" points="0,-201.5 135,-201.5 "/>
<text text-anchor="start" x="8" y="-189.5" font-family="Helvetica,sans-Serif" font-size="10.00"># TriggerTransitionWithMin</text>
<text text-anchor="start" x="8" y="-178.5" font-family="Helvetica,sans-Serif" font-size="10.00">VisibleTime()</text>
<text text-anchor="start" x="8" y="-167.5" font-family="Helvetica,sans-Serif" font-size="10.00"># OnOverlayStateEnter()</text>
<text text-anchor="start" x="8" y="-156.5" font-family="Helvetica,sans-Serif" font-size="10.00"># OnMyStateEnter()</text>
</a>
</g>
</g>
<!-- Node1&#45;&gt;Node0 -->
<g id="edge1" class="edge"><title>Node1&#45;&gt;Node0</title>
<path fill="none" stroke="midnightblue" d="M67.5,-139.246C67.5,-130.288 67.5,-121.228 67.5,-112.564"/>
<polygon fill="none" stroke="midnightblue" points="64.0001,-139.29 67.5,-149.29 71.0001,-139.29 64.0001,-139.29"/>
</g>
<!-- Node2 -->
<g id="node3" class="node"><title>Node2</title>
<g id="a_node3"><a xlink:href="class_state.html" target="_top" xlink:title="Extended functionality for Unity SM Behaviours and makes them complete &#39;States&#39;. ">
<polygon fill="white" stroke="black" points="15.5,-309.5 15.5,-487.5 119.5,-487.5 119.5,-309.5 15.5,-309.5"/>
<text text-anchor="middle" x="67.5" y="-475.5" font-family="Helvetica,sans-Serif" font-size="10.00">State</text>
<polyline fill="none" stroke="black" points="15.5,-468.5 119.5,-468.5 "/>
<text text-anchor="start" x="23.5" y="-456.5" font-family="Helvetica,sans-Serif" font-size="10.00">+ name</text>
<text text-anchor="start" x="23.5" y="-445.5" font-family="Helvetica,sans-Serif" font-size="10.00">+ triggers</text>
<text text-anchor="start" x="23.5" y="-434.5" font-family="Helvetica,sans-Serif" font-size="10.00"># sm</text>
<text text-anchor="start" x="23.5" y="-423.5" font-family="Helvetica,sans-Serif" font-size="10.00">&#45; listeners</text>
<polyline fill="none" stroke="black" points="15.5,-416.5 119.5,-416.5 "/>
<text text-anchor="start" x="23.5" y="-404.5" font-family="Helvetica,sans-Serif" font-size="10.00">+ IsActiveState()</text>
<text text-anchor="start" x="23.5" y="-393.5" font-family="Helvetica,sans-Serif" font-size="10.00">+ Init()</text>
<text text-anchor="start" x="23.5" y="-382.5" font-family="Helvetica,sans-Serif" font-size="10.00">+ OnStateEnter()</text>
<text text-anchor="start" x="23.5" y="-371.5" font-family="Helvetica,sans-Serif" font-size="10.00">+ OnStateExit()</text>
<text text-anchor="start" x="23.5" y="-360.5" font-family="Helvetica,sans-Serif" font-size="10.00"># AddAutoListener()</text>
<text text-anchor="start" x="23.5" y="-349.5" font-family="Helvetica,sans-Serif" font-size="10.00"># TriggerTransition()</text>
<text text-anchor="start" x="23.5" y="-338.5" font-family="Helvetica,sans-Serif" font-size="10.00"># OnMyStateEnter()</text>
<text text-anchor="start" x="23.5" y="-327.5" font-family="Helvetica,sans-Serif" font-size="10.00"># OnMyStateExit()</text>
<text text-anchor="start" x="23.5" y="-316.5" font-family="Helvetica,sans-Serif" font-size="10.00"># OnMyStateInit()</text>
</a>
</g>
</g>
<!-- Node2&#45;&gt;Node1 -->
<g id="edge2" class="edge"><title>Node2&#45;&gt;Node1</title>
<path fill="none" stroke="midnightblue" d="M67.5,-299.162C67.5,-290.134 67.5,-281.176 67.5,-272.633"/>
<polygon fill="none" stroke="midnightblue" points="64.0001,-299.368 67.5,-309.368 71.0001,-299.368 64.0001,-299.368"/>
</g>
<!-- Node3 -->
<g id="node4" class="node"><title>Node3</title>
<polygon fill="white" stroke="#bfbfbf" points="8,-524.5 8,-581.5 127,-581.5 127,-524.5 8,-524.5"/>
<text text-anchor="middle" x="67.5" y="-569.5" font-family="Helvetica,sans-Serif" font-size="10.00">StateMachineBehaviour</text>
<polyline fill="none" stroke="#bfbfbf" points="8,-562.5 127,-562.5 "/>
<text text-anchor="middle" x="67.5" y="-550.5" font-family="Helvetica,sans-Serif" font-size="10.00"> </text>
<polyline fill="none" stroke="#bfbfbf" points="8,-543.5 127,-543.5 "/>
<text text-anchor="middle" x="67.5" y="-531.5" font-family="Helvetica,sans-Serif" font-size="10.00"> </text>
</g>
<!-- Node3&#45;&gt;Node2 -->
<g id="edge3" class="edge"><title>Node3&#45;&gt;Node2</title>
<path fill="none" stroke="midnightblue" d="M67.5,-514.374C67.5,-506.089 67.5,-496.977 67.5,-487.62"/>
<polygon fill="none" stroke="midnightblue" points="64.0001,-514.383 67.5,-524.383 71.0001,-514.383 64.0001,-514.383"/>
</g>
</g>
</svg>
