<?xml version="1.0" encoding="UTF-8" standalone="no"?>
<!DOCTYPE svg PUBLIC "-//W3C//DTD SVG 1.1//EN"
 "http://www.w3.org/Graphics/SVG/1.1/DTD/svg11.dtd">
<!-- Generated by graphviz version 2.38.0 (20140413.2041)
 -->
<!-- Title: LeaveRoomState Pages: 1 -->
<svg width="465pt" height="923pt"
 viewBox="0.00 0.00 464.50 923.00" xmlns="http://www.w3.org/2000/svg" xmlns:xlink="http://www.w3.org/1999/xlink">
<g id="graph0" class="graph" transform="scale(1 1) rotate(0) translate(4 919)">
<title>LeaveRoomState</title>
<polygon fill="white" stroke="none" points="-4,4 -4,-919 460.5,-919 460.5,4 -4,4"/>
<!-- Node4 -->
<g id="node1" class="node"><title>Node4</title>
<polygon fill="#bfbfbf" stroke="black" points="246.5,-0.5 246.5,-68.5 368.5,-68.5 368.5,-0.5 246.5,-0.5"/>
<text text-anchor="middle" x="307.5" y="-56.5" font-family="Helvetica,sans-Serif" font-size="10.00">LeaveRoomState</text>
<polyline fill="none" stroke="black" points="246.5,-49.5 368.5,-49.5 "/>
<text text-anchor="middle" x="307.5" y="-37.5" font-family="Helvetica,sans-Serif" font-size="10.00"> </text>
<polyline fill="none" stroke="black" points="246.5,-30.5 368.5,-30.5 "/>
<text text-anchor="start" x="254.5" y="-18.5" font-family="Helvetica,sans-Serif" font-size="10.00"># OnMyStateInit()</text>
<text text-anchor="start" x="254.5" y="-7.5" font-family="Helvetica,sans-Serif" font-size="10.00"># OnOverlayStateEnter()</text>
</g>
<!-- Node5 -->
<g id="node2" class="node"><title>Node5</title>
<g id="a_node2"><a xlink:href="classnet_1_1_net_overlay_state.html" target="_top" xlink:title="{NetOverlayState\n|# netOverlayRef\l&#45; minVisibleTime\l&#45; timestampOfStateEntered\l|# TriggerTransitionWithMin\lVisibleTime()\l# OnOverlayStateEnter()\l# OnMyStateEnter()\l}">
<polygon fill="white" stroke="black" points="240,-106.5 240,-218.5 375,-218.5 375,-106.5 240,-106.5"/>
<text text-anchor="middle" x="307.5" y="-206.5" font-family="Helvetica,sans-Serif" font-size="10.00">NetOverlayState</text>
<polyline fill="none" stroke="black" points="240,-199.5 375,-199.5 "/>
<text text-anchor="start" x="248" y="-187.5" font-family="Helvetica,sans-Serif" font-size="10.00"># netOverlayRef</text>
<text text-anchor="start" x="248" y="-176.5" font-family="Helvetica,sans-Serif" font-size="10.00">&#45; minVisibleTime</text>
<text text-anchor="start" x="248" y="-165.5" font-family="Helvetica,sans-Serif" font-size="10.00">&#45; timestampOfStateEntered</text>
<polyline fill="none" stroke="black" points="240,-158.5 375,-158.5 "/>
<text text-anchor="start" x="248" y="-146.5" font-family="Helvetica,sans-Serif" font-size="10.00"># TriggerTransitionWithMin</text>
<text text-anchor="start" x="248" y="-135.5" font-family="Helvetica,sans-Serif" font-size="10.00">VisibleTime()</text>
<text text-anchor="start" x="248" y="-124.5" font-family="Helvetica,sans-Serif" font-size="10.00"># OnOverlayStateEnter()</text>
<text text-anchor="start" x="248" y="-113.5" font-family="Helvetica,sans-Serif" font-size="10.00"># OnMyStateEnter()</text>
</a>
</g>
</g>
<!-- Node5&#45;&gt;Node4 -->
<g id="edge1" class="edge"><title>Node5&#45;&gt;Node4</title>
<path fill="none" stroke="midnightblue" d="M307.5,-95.9612C307.5,-86.4839 307.5,-77.0833 307.5,-68.6192"/>
<polygon fill="none" stroke="midnightblue" points="304,-96.2345 307.5,-106.235 311,-96.2346 304,-96.2345"/>
</g>
<!-- Node6 -->
<g id="node3" class="node"><title>Node6</title>
<g id="a_node3"><a xlink:href="class_state.html" target="_top" xlink:title="Extended functionality for Unity SM Behaviours and makes them complete &#39;States&#39;. ">
<polygon fill="white" stroke="black" points="254.5,-620.5 254.5,-776.5 358.5,-776.5 358.5,-620.5 254.5,-620.5"/>
<text text-anchor="middle" x="306.5" y="-764.5" font-family="Helvetica,sans-Serif" font-size="10.00">State</text>
<polyline fill="none" stroke="black" points="254.5,-757.5 358.5,-757.5 "/>
<text text-anchor="start" x="262.5" y="-745.5" font-family="Helvetica,sans-Serif" font-size="10.00">+ name</text>
<text text-anchor="start" x="262.5" y="-734.5" font-family="Helvetica,sans-Serif" font-size="10.00">+ triggers</text>
<polyline fill="none" stroke="black" points="254.5,-727.5 358.5,-727.5 "/>
<text text-anchor="start" x="262.5" y="-715.5" font-family="Helvetica,sans-Serif" font-size="10.00">+ IsActiveState()</text>
<text text-anchor="start" x="262.5" y="-704.5" font-family="Helvetica,sans-Serif" font-size="10.00">+ Init()</text>
<text text-anchor="start" x="262.5" y="-693.5" font-family="Helvetica,sans-Serif" font-size="10.00">+ OnStateEnter()</text>
<text text-anchor="start" x="262.5" y="-682.5" font-family="Helvetica,sans-Serif" font-size="10.00">+ OnStateExit()</text>
<text text-anchor="start" x="262.5" y="-671.5" font-family="Helvetica,sans-Serif" font-size="10.00"># AddAutoListener()</text>
<text text-anchor="start" x="262.5" y="-660.5" font-family="Helvetica,sans-Serif" font-size="10.00"># TriggerTransition()</text>
<text text-anchor="start" x="262.5" y="-649.5" font-family="Helvetica,sans-Serif" font-size="10.00"># OnMyStateEnter()</text>
<text text-anchor="start" x="262.5" y="-638.5" font-family="Helvetica,sans-Serif" font-size="10.00"># OnMyStateExit()</text>
<text text-anchor="start" x="262.5" y="-627.5" font-family="Helvetica,sans-Serif" font-size="10.00"># OnMyStateInit()</text>
</a>
</g>
</g>
<!-- Node6&#45;&gt;Node5 -->
<g id="edge2" class="edge"><title>Node6&#45;&gt;Node5</title>
<path fill="none" stroke="midnightblue" d="M314.028,-610.241C314.198,-607.463 314.356,-604.71 314.5,-602 322.85,-444.848 320.722,-405.363 322.5,-248 322.555,-243.111 322.991,-241.864 322.5,-237 321.898,-231.04 321.028,-224.848 320.006,-218.701"/>
<polygon fill="none" stroke="midnightblue" points="310.525,-610.18 313.366,-620.386 317.51,-610.636 310.525,-610.18"/>
</g>
<!-- Node8 -->
<g id="node5" class="node"><title>Node8</title>
<g id="a_node5"><a xlink:href="class_state_machine.html" target="_top" xlink:title="Common Base class for all state machines. ">
<polygon fill="white" stroke="black" points="161.5,-427.5 161.5,-572.5 291.5,-572.5 291.5,-427.5 161.5,-427.5"/>
<text text-anchor="middle" x="226.5" y="-560.5" font-family="Helvetica,sans-Serif" font-size="10.00">StateMachine</text>
<polyline fill="none" stroke="black" points="161.5,-553.5 291.5,-553.5 "/>
<text text-anchor="start" x="169.5" y="-541.5" font-family="Helvetica,sans-Serif" font-size="10.00">+ logEnabled</text>
<text text-anchor="start" x="169.5" y="-530.5" font-family="Helvetica,sans-Serif" font-size="10.00"># controller</text>
<text text-anchor="start" x="169.5" y="-519.5" font-family="Helvetica,sans-Serif" font-size="10.00">&#45; states</text>
<polyline fill="none" stroke="black" points="161.5,-512.5 291.5,-512.5 "/>
<text text-anchor="start" x="169.5" y="-500.5" font-family="Helvetica,sans-Serif" font-size="10.00">+ GetActiveState()</text>
<text text-anchor="start" x="169.5" y="-489.5" font-family="Helvetica,sans-Serif" font-size="10.00">+ TriggerTransition()</text>
<text text-anchor="start" x="169.5" y="-478.5" font-family="Helvetica,sans-Serif" font-size="10.00">+ TriggerTransition()</text>
<text text-anchor="start" x="169.5" y="-467.5" font-family="Helvetica,sans-Serif" font-size="10.00">+ TriggerTransition()</text>
<text text-anchor="start" x="169.5" y="-456.5" font-family="Helvetica,sans-Serif" font-size="10.00">+ AnnounceCurrentState()</text>
<text text-anchor="start" x="169.5" y="-445.5" font-family="Helvetica,sans-Serif" font-size="10.00"># MyAwake()</text>
<text text-anchor="start" x="169.5" y="-434.5" font-family="Helvetica,sans-Serif" font-size="10.00">&#45; Awake()</text>
</a>
</g>
</g>
<!-- Node6&#45;&gt;Node8 -->
<g id="edge8" class="edge"><title>Node6&#45;&gt;Node8</title>
<path fill="none" stroke="#404040" d="M254.492,-650.996C241.921,-636.665 230.192,-619.901 223.5,-602 221.458,-596.536 219.996,-590.788 219,-584.922"/>
<polygon fill="none" stroke="#404040" points="218.972,-584.684 214.298,-579.193 217.569,-572.766 222.243,-578.258 218.972,-584.684"/>
<text text-anchor="middle" x="252" y="-594" font-family="Helvetica,sans-Serif" font-size="10.00"> #activeState</text>
</g>
<!-- Node7 -->
<g id="node4" class="node"><title>Node7</title>
<polygon fill="white" stroke="#bfbfbf" points="231,-841 231,-898 350,-898 350,-841 231,-841"/>
<text text-anchor="middle" x="290.5" y="-886" font-family="Helvetica,sans-Serif" font-size="10.00">StateMachineBehaviour</text>
<polyline fill="none" stroke="#bfbfbf" points="231,-879 350,-879 "/>
<text text-anchor="middle" x="290.5" y="-867" font-family="Helvetica,sans-Serif" font-size="10.00"> </text>
<polyline fill="none" stroke="#bfbfbf" points="231,-860 350,-860 "/>
<text text-anchor="middle" x="290.5" y="-848" font-family="Helvetica,sans-Serif" font-size="10.00"> </text>
</g>
<!-- Node7&#45;&gt;Node6 -->
<g id="edge3" class="edge"><title>Node7&#45;&gt;Node6</title>
<path fill="none" stroke="midnightblue" d="M294.056,-830.936C295.577,-814.878 297.411,-795.508 299.198,-776.632"/>
<polygon fill="none" stroke="midnightblue" points="290.564,-830.686 293.106,-840.971 297.533,-831.346 290.564,-830.686"/>
</g>
<!-- Node8&#45;&gt;Node6 -->
<g id="edge4" class="edge"><title>Node8&#45;&gt;Node6</title>
<path fill="none" stroke="#404040" d="M275.906,-572.693C279.083,-578.747 282.003,-584.892 284.5,-591 286.807,-596.644 288.883,-602.559 290.748,-608.587"/>
<polygon fill="none" stroke="#404040" points="290.791,-608.737 296.283,-613.41 294.081,-620.277 288.589,-615.604 290.791,-608.737"/>
<text text-anchor="middle" x="299.5" y="-594" font-family="Helvetica,sans-Serif" font-size="10.00"> #sm</text>
</g>
<!-- Node13 -->
<g id="node10" class="node"><title>Node13</title>
<g id="a_node10"><a xlink:href="classnet_1_1_net_state_machine.html" target="_top" xlink:title="{NetStateMachine\n|+ netOverlayPrefab\l&#45; netOverlayInstance\l|+ IsMaster()\l+ GetCurStateName()\l+ GetNetOverlay()\l+ HideNetOverlay()\l# MyAwake()\l&#45; OnDisconnect()\l}">
<polygon fill="white" stroke="black" points="196,-266.5 196,-389.5 307,-389.5 307,-266.5 196,-266.5"/>
<text text-anchor="middle" x="251.5" y="-377.5" font-family="Helvetica,sans-Serif" font-size="10.00">NetStateMachine</text>
<polyline fill="none" stroke="black" points="196,-370.5 307,-370.5 "/>
<text text-anchor="start" x="204" y="-358.5" font-family="Helvetica,sans-Serif" font-size="10.00">+ netOverlayPrefab</text>
<text text-anchor="start" x="204" y="-347.5" font-family="Helvetica,sans-Serif" font-size="10.00">&#45; netOverlayInstance</text>
<polyline fill="none" stroke="black" points="196,-340.5 307,-340.5 "/>
<text text-anchor="start" x="204" y="-328.5" font-family="Helvetica,sans-Serif" font-size="10.00">+ IsMaster()</text>
<text text-anchor="start" x="204" y="-317.5" font-family="Helvetica,sans-Serif" font-size="10.00">+ GetCurStateName()</text>
<text text-anchor="start" x="204" y="-306.5" font-family="Helvetica,sans-Serif" font-size="10.00">+ GetNetOverlay()</text>
<text text-anchor="start" x="204" y="-295.5" font-family="Helvetica,sans-Serif" font-size="10.00">+ HideNetOverlay()</text>
<text text-anchor="start" x="204" y="-284.5" font-family="Helvetica,sans-Serif" font-size="10.00"># MyAwake()</text>
<text text-anchor="start" x="204" y="-273.5" font-family="Helvetica,sans-Serif" font-size="10.00">&#45; OnDisconnect()</text>
</a>
</g>
</g>
<!-- Node8&#45;&gt;Node13 -->
<g id="edge11" class="edge"><title>Node8&#45;&gt;Node13</title>
<path fill="none" stroke="midnightblue" d="M238.507,-417.355C239.873,-408.062 241.248,-398.716 242.565,-389.761"/>
<polygon fill="none" stroke="midnightblue" points="235.022,-416.995 237.03,-427.397 241.948,-418.013 235.022,-416.995"/>
</g>
<!-- Node9 -->
<g id="node6" class="node"><title>Node9</title>
<polygon fill="white" stroke="#bfbfbf" points="0,-670 0,-727 83,-727 83,-670 0,-670"/>
<text text-anchor="middle" x="41.5" y="-715" font-family="Helvetica,sans-Serif" font-size="10.00">MonoBehaviour</text>
<polyline fill="none" stroke="#bfbfbf" points="0,-708 83,-708 "/>
<text text-anchor="middle" x="41.5" y="-696" font-family="Helvetica,sans-Serif" font-size="10.00"> </text>
<polyline fill="none" stroke="#bfbfbf" points="0,-689 83,-689 "/>
<text text-anchor="middle" x="41.5" y="-677" font-family="Helvetica,sans-Serif" font-size="10.00"> </text>
</g>
<!-- Node9&#45;&gt;Node8 -->
<g id="edge5" class="edge"><title>Node9&#45;&gt;Node8</title>
<path fill="none" stroke="midnightblue" d="M62.5419,-661.433C70.9522,-647.99 81.104,-632.877 91.5,-620 111.813,-594.839 137.767,-570.572 161.481,-550.589"/>
<polygon fill="none" stroke="midnightblue" points="59.5391,-659.635 57.2817,-669.986 65.5017,-663.302 59.5391,-659.635"/>
</g>
<!-- Node10 -->
<g id="node7" class="node"><title>Node10</title>
<g id="a_node7"><a xlink:href="class_unity_string_event.html" target="_top" xlink:title="{UnityStringEvent\n||}">
<polygon fill="white" stroke="black" points="101,-670 101,-727 190,-727 190,-670 101,-670"/>
<text text-anchor="middle" x="145.5" y="-715" font-family="Helvetica,sans-Serif" font-size="10.00">UnityStringEvent</text>
<polyline fill="none" stroke="black" points="101,-708 190,-708 "/>
<text text-anchor="middle" x="145.5" y="-696" font-family="Helvetica,sans-Serif" font-size="10.00"> </text>
<polyline fill="none" stroke="black" points="101,-689 190,-689 "/>
<text text-anchor="middle" x="145.5" y="-677" font-family="Helvetica,sans-Serif" font-size="10.00"> </text>
</a>
</g>
</g>
<!-- Node10&#45;&gt;Node8 -->
<g id="edge6" class="edge"><title>Node10&#45;&gt;Node8</title>
<path fill="none" stroke="#404040" d="M132.424,-669.73C123.939,-647.583 116.348,-616.209 127.5,-591 133.41,-577.64 142.391,-565.413 152.577,-554.568"/>
<polygon fill="none" stroke="#404040" points="152.882,-554.265 154.304,-547.195 161.377,-545.789 159.954,-552.858 152.882,-554.265"/>
<text text-anchor="middle" x="172" y="-594" font-family="Helvetica,sans-Serif" font-size="10.00"> +stateEnteredEvent</text>
</g>
<!-- Node11 -->
<g id="node8" class="node"><title>Node11</title>
<polygon fill="white" stroke="#bfbfbf" points="93,-841 93,-898 198,-898 198,-841 93,-841"/>
<text text-anchor="middle" x="145.5" y="-886" font-family="Helvetica,sans-Serif" font-size="10.00">UnityEvent&lt; string &gt;</text>
<polyline fill="none" stroke="#bfbfbf" points="93,-879 198,-879 "/>
<text text-anchor="middle" x="145.5" y="-867" font-family="Helvetica,sans-Serif" font-size="10.00"> </text>
<polyline fill="none" stroke="#bfbfbf" points="93,-860 198,-860 "/>
<text text-anchor="middle" x="145.5" y="-848" font-family="Helvetica,sans-Serif" font-size="10.00"> </text>
</g>
<!-- Node11&#45;&gt;Node10 -->
<g id="edge7" class="edge"><title>Node11&#45;&gt;Node10</title>
<path fill="none" stroke="midnightblue" d="M145.5,-830.828C145.5,-799.367 145.5,-755.248 145.5,-727.017"/>
<polygon fill="none" stroke="midnightblue" points="142,-830.971 145.5,-840.971 149,-830.971 142,-830.971"/>
</g>
<!-- Node12 -->
<g id="node9" class="node"><title>Node12</title>
<g id="a_node9"><a xlink:href="class_listener_group.html" target="_top" xlink:title="Helper class to execute adding and removing on all held Listeners (Events + Callbacks). ">
<polygon fill="white" stroke="black" points="368.5,-824.5 368.5,-914.5 456.5,-914.5 456.5,-824.5 368.5,-824.5"/>
<text text-anchor="middle" x="412.5" y="-902.5" font-family="Helvetica,sans-Serif" font-size="10.00">ListenerGroup</text>
<polyline fill="none" stroke="black" points="368.5,-895.5 456.5,-895.5 "/>
<text text-anchor="start" x="376.5" y="-883.5" font-family="Helvetica,sans-Serif" font-size="10.00">&#45; heldListeners</text>
<polyline fill="none" stroke="black" points="368.5,-876.5 456.5,-876.5 "/>
<text text-anchor="start" x="376.5" y="-864.5" font-family="Helvetica,sans-Serif" font-size="10.00">+ Add()</text>
<text text-anchor="start" x="376.5" y="-853.5" font-family="Helvetica,sans-Serif" font-size="10.00">+ Add()</text>
<text text-anchor="start" x="376.5" y="-842.5" font-family="Helvetica,sans-Serif" font-size="10.00">+ ActivateAll()</text>
<text text-anchor="start" x="376.5" y="-831.5" font-family="Helvetica,sans-Serif" font-size="10.00">+ DeactivateAll()</text>
</a>
</g>
</g>
<!-- Node12&#45;&gt;Node6 -->
<g id="edge9" class="edge"><title>Node12&#45;&gt;Node6</title>
<path fill="none" stroke="#404040" d="M384.65,-824.097C377.438,-812.599 369.418,-799.812 361.34,-786.934"/>
<polygon fill="none" stroke="#404040" points="361.24,-786.775 354.664,-783.817 354.864,-776.609 361.441,-779.566 361.24,-786.775"/>
<text text-anchor="middle" x="394" y="-798" font-family="Helvetica,sans-Serif" font-size="10.00"> &#45;listeners</text>
</g>
<!-- Node13&#45;&gt;Node5 -->
<g id="edge10" class="edge"><title>Node13&#45;&gt;Node5</title>
<path fill="none" stroke="#404040" d="M272.352,-266.119C276.341,-254.475 280.536,-242.225 284.585,-230.404"/>
<polygon fill="none" stroke="#404040" points="284.683,-230.117 282.843,-223.145 288.571,-218.765 290.411,-225.737 284.683,-230.117"/>
<text text-anchor="middle" x="300" y="-240" font-family="Helvetica,sans-Serif" font-size="10.00"> #netSM</text>
</g>
</g>
</svg>
