<?xml version="1.0" encoding="UTF-8" standalone="no"?>
<!DOCTYPE svg PUBLIC "-//W3C//DTD SVG 1.1//EN"
 "http://www.w3.org/Graphics/SVG/1.1/DTD/svg11.dtd">
<!-- Generated by graphviz version 2.38.0 (20140413.2041)
 -->
<!-- Title: MainMenuState Pages: 1 -->
<svg width="148pt" height="397pt"
 viewBox="0.00 0.00 148.00 397.00" xmlns="http://www.w3.org/2000/svg" xmlns:xlink="http://www.w3.org/1999/xlink">
<g id="graph0" class="graph" transform="scale(1 1) rotate(0) translate(4 393)">
<title>MainMenuState</title>
<polygon fill="white" stroke="none" points="-4,4 -4,-393 144,-393 144,4 -4,4"/>
<!-- Node3 -->
<g id="node1" class="node"><title>Node3</title>
<polygon fill="#bfbfbf" stroke="black" points="18,-0.5 18,-57.5 122,-57.5 122,-0.5 18,-0.5"/>
<text text-anchor="middle" x="70" y="-45.5" font-family="Helvetica,sans-Serif" font-size="10.00">MainMenuState</text>
<polyline fill="none" stroke="black" points="18,-38.5 122,-38.5 "/>
<text text-anchor="middle" x="70" y="-26.5" font-family="Helvetica,sans-Serif" font-size="10.00"> </text>
<polyline fill="none" stroke="black" points="18,-19.5 122,-19.5 "/>
<text text-anchor="start" x="26" y="-7.5" font-family="Helvetica,sans-Serif" font-size="10.00"># OnMyStateEnter()</text>
</g>
<!-- Node4 -->
<g id="node2" class="node"><title>Node4</title>
<g id="a_node2"><a xlink:href="class_state.html" target="_top" xlink:title="Non&#45;template variant of the BaseState, expecting to be owned by a standard StateMachine. ">
<polygon fill="white" stroke="black" points="50,-94.5 50,-151.5 90,-151.5 90,-94.5 50,-94.5"/>
<text text-anchor="middle" x="70" y="-139.5" font-family="Helvetica,sans-Serif" font-size="10.00">State</text>
<polyline fill="none" stroke="black" points="50,-132.5 90,-132.5 "/>
<text text-anchor="middle" x="70" y="-120.5" font-family="Helvetica,sans-Serif" font-size="10.00"> </text>
<polyline fill="none" stroke="black" points="50,-113.5 90,-113.5 "/>
<text text-anchor="middle" x="70" y="-101.5" font-family="Helvetica,sans-Serif" font-size="10.00"> </text>
</a>
</g>
</g>
<!-- Node4&#45;&gt;Node3 -->
<g id="edge1" class="edge"><title>Node4&#45;&gt;Node3</title>
<path fill="none" stroke="midnightblue" d="M70,-84.2092C70,-75.2929 70,-65.9513 70,-57.5836"/>
<polygon fill="none" stroke="midnightblue" points="66.5001,-84.3969 70,-94.397 73.5001,-84.397 66.5001,-84.3969"/>
</g>
<!-- Node5 -->
<g id="node3" class="node"><title>Node5</title>
<g id="a_node3"><a xlink:href="class_base_state.html" target="_top" xlink:title="{BaseState\&lt; StateMachine \&gt;\n|+ name\l+ triggers\l# sm\l&#45; listeners\l|+ IsActiveState()\l+ GetName()\l+ GetTriggers()\l+ Init()\l+ OnStateEnter()\l+ OnStateExit()\l# AddAutoListener()\l# TriggerTransition()\l# OnMyStateEnter()\l# OnMyStateExit()\l# OnMyStateInit()\l}">
<polygon fill="white" stroke="black" points="0,-188.5 0,-388.5 140,-388.5 140,-188.5 0,-188.5"/>
<text text-anchor="middle" x="70" y="-376.5" font-family="Helvetica,sans-Serif" font-size="10.00">BaseState&lt; StateMachine &gt;</text>
<polyline fill="none" stroke="black" points="0,-369.5 140,-369.5 "/>
<text text-anchor="start" x="8" y="-357.5" font-family="Helvetica,sans-Serif" font-size="10.00">+ name</text>
<text text-anchor="start" x="8" y="-346.5" font-family="Helvetica,sans-Serif" font-size="10.00">+ triggers</text>
<text text-anchor="start" x="8" y="-335.5" font-family="Helvetica,sans-Serif" font-size="10.00"># sm</text>
<text text-anchor="start" x="8" y="-324.5" font-family="Helvetica,sans-Serif" font-size="10.00">&#45; listeners</text>
<polyline fill="none" stroke="black" points="0,-317.5 140,-317.5 "/>
<text text-anchor="start" x="8" y="-305.5" font-family="Helvetica,sans-Serif" font-size="10.00">+ IsActiveState()</text>
<text text-anchor="start" x="8" y="-294.5" font-family="Helvetica,sans-Serif" font-size="10.00">+ GetName()</text>
<text text-anchor="start" x="8" y="-283.5" font-family="Helvetica,sans-Serif" font-size="10.00">+ GetTriggers()</text>
<text text-anchor="start" x="8" y="-272.5" font-family="Helvetica,sans-Serif" font-size="10.00">+ Init()</text>
<text text-anchor="start" x="8" y="-261.5" font-family="Helvetica,sans-Serif" font-size="10.00">+ OnStateEnter()</text>
<text text-anchor="start" x="8" y="-250.5" font-family="Helvetica,sans-Serif" font-size="10.00">+ OnStateExit()</text>
<text text-anchor="start" x="8" y="-239.5" font-family="Helvetica,sans-Serif" font-size="10.00"># AddAutoListener()</text>
<text text-anchor="start" x="8" y="-228.5" font-family="Helvetica,sans-Serif" font-size="10.00"># TriggerTransition()</text>
<text text-anchor="start" x="8" y="-217.5" font-family="Helvetica,sans-Serif" font-size="10.00"># OnMyStateEnter()</text>
<text text-anchor="start" x="8" y="-206.5" font-family="Helvetica,sans-Serif" font-size="10.00"># OnMyStateExit()</text>
<text text-anchor="start" x="8" y="-195.5" font-family="Helvetica,sans-Serif" font-size="10.00"># OnMyStateInit()</text>
</a>
</g>
</g>
<!-- Node5&#45;&gt;Node4 -->
<g id="edge2" class="edge"><title>Node5&#45;&gt;Node4</title>
<path fill="none" stroke="midnightblue" d="M70,-177.964C70,-168.366 70,-159.348 70,-151.533"/>
<polygon fill="none" stroke="midnightblue" points="66.5001,-178.15 70,-188.15 73.5001,-178.15 66.5001,-178.15"/>
</g>
</g>
</svg>
