<?xml version="1.0" encoding="UTF-8" standalone="no"?>
<!DOCTYPE svg PUBLIC "-//W3C//DTD SVG 1.1//EN"
 "http://www.w3.org/Graphics/SVG/1.1/DTD/svg11.dtd">
<!-- Generated by graphviz version 2.38.0 (20140413.2041)
 -->
<!-- Title: MainMenuSM Pages: 1 -->
<svg width="310pt" height="698pt"
 viewBox="0.00 0.00 310.00 698.00" xmlns="http://www.w3.org/2000/svg" xmlns:xlink="http://www.w3.org/1999/xlink">
<g id="graph0" class="graph" transform="scale(1 1) rotate(0) translate(4 694)">
<title>MainMenuSM</title>
<polygon fill="white" stroke="none" points="-4,4 -4,-694 306,-694 306,4 -4,4"/>
<!-- Node3 -->
<g id="node1" class="node"><title>Node3</title>
<polygon fill="#bfbfbf" stroke="black" points="92,-0.5 92,-112.5 193,-112.5 193,-0.5 92,-0.5"/>
<text text-anchor="middle" x="142.5" y="-100.5" font-family="Helvetica,sans-Serif" font-size="10.00">MainMenuSM</text>
<polyline fill="none" stroke="black" points="92,-93.5 193,-93.5 "/>
<text text-anchor="start" x="100" y="-81.5" font-family="Helvetica,sans-Serif" font-size="10.00">+ mainPage</text>
<text text-anchor="start" x="100" y="-70.5" font-family="Helvetica,sans-Serif" font-size="10.00">+ settingsPage</text>
<text text-anchor="start" x="100" y="-59.5" font-family="Helvetica,sans-Serif" font-size="10.00">+ PlayButton</text>
<text text-anchor="start" x="100" y="-48.5" font-family="Helvetica,sans-Serif" font-size="10.00">+ JoinButton</text>
<text text-anchor="start" x="100" y="-37.5" font-family="Helvetica,sans-Serif" font-size="10.00">+ disconnectButton</text>
<polyline fill="none" stroke="black" points="92,-30.5 193,-30.5 "/>
<text text-anchor="start" x="100" y="-18.5" font-family="Helvetica,sans-Serif" font-size="10.00">+ InterpretInput()</text>
<text text-anchor="start" x="100" y="-7.5" font-family="Helvetica,sans-Serif" font-size="10.00"># MyAwake()</text>
</g>
<!-- Node4 -->
<g id="node2" class="node"><title>Node4</title>
<g id="a_node2"><a xlink:href="class_state_machine.html" target="_top" xlink:title="Common Base class for all state machines. ">
<polygon fill="white" stroke="black" points="77.5,-150.5 77.5,-306.5 207.5,-306.5 207.5,-150.5 77.5,-150.5"/>
<text text-anchor="middle" x="142.5" y="-294.5" font-family="Helvetica,sans-Serif" font-size="10.00">StateMachine</text>
<polyline fill="none" stroke="black" points="77.5,-287.5 207.5,-287.5 "/>
<text text-anchor="start" x="85.5" y="-275.5" font-family="Helvetica,sans-Serif" font-size="10.00">+ logEnabled</text>
<text text-anchor="start" x="85.5" y="-264.5" font-family="Helvetica,sans-Serif" font-size="10.00">+ globalValidTriggers</text>
<text text-anchor="start" x="85.5" y="-253.5" font-family="Helvetica,sans-Serif" font-size="10.00"># controller</text>
<text text-anchor="start" x="85.5" y="-242.5" font-family="Helvetica,sans-Serif" font-size="10.00">&#45; states</text>
<polyline fill="none" stroke="black" points="77.5,-235.5 207.5,-235.5 "/>
<text text-anchor="start" x="85.5" y="-223.5" font-family="Helvetica,sans-Serif" font-size="10.00">+ GetActiveState()</text>
<text text-anchor="start" x="85.5" y="-212.5" font-family="Helvetica,sans-Serif" font-size="10.00">+ TriggerTransition()</text>
<text text-anchor="start" x="85.5" y="-201.5" font-family="Helvetica,sans-Serif" font-size="10.00">+ TriggerTransition()</text>
<text text-anchor="start" x="85.5" y="-190.5" font-family="Helvetica,sans-Serif" font-size="10.00">+ TriggerTransition()</text>
<text text-anchor="start" x="85.5" y="-179.5" font-family="Helvetica,sans-Serif" font-size="10.00">+ AnnounceCurrentState()</text>
<text text-anchor="start" x="85.5" y="-168.5" font-family="Helvetica,sans-Serif" font-size="10.00"># MyAwake()</text>
<text text-anchor="start" x="85.5" y="-157.5" font-family="Helvetica,sans-Serif" font-size="10.00">&#45; Awake()</text>
</a>
</g>
</g>
<!-- Node4&#45;&gt;Node3 -->
<g id="edge1" class="edge"><title>Node4&#45;&gt;Node3</title>
<path fill="none" stroke="midnightblue" d="M142.5,-140.348C142.5,-131.024 142.5,-121.735 142.5,-112.929"/>
<polygon fill="none" stroke="midnightblue" points="139,-140.458 142.5,-150.458 146,-140.458 139,-140.458"/>
</g>
<!-- Node5 -->
<g id="node3" class="node"><title>Node5</title>
<polygon fill="white" stroke="#bfbfbf" points="0,-365.5 0,-422.5 83,-422.5 83,-365.5 0,-365.5"/>
<text text-anchor="middle" x="41.5" y="-410.5" font-family="Helvetica,sans-Serif" font-size="10.00">MonoBehaviour</text>
<polyline fill="none" stroke="#bfbfbf" points="0,-403.5 83,-403.5 "/>
<text text-anchor="middle" x="41.5" y="-391.5" font-family="Helvetica,sans-Serif" font-size="10.00"> </text>
<polyline fill="none" stroke="#bfbfbf" points="0,-384.5 83,-384.5 "/>
<text text-anchor="middle" x="41.5" y="-372.5" font-family="Helvetica,sans-Serif" font-size="10.00"> </text>
</g>
<!-- Node5&#45;&gt;Node4 -->
<g id="edge2" class="edge"><title>Node5&#45;&gt;Node4</title>
<path fill="none" stroke="midnightblue" d="M64.0625,-356.476C73.1777,-341.72 84.0649,-324.095 94.7844,-306.743"/>
<polygon fill="none" stroke="midnightblue" points="60.9111,-354.917 58.6333,-365.264 66.8665,-358.596 60.9111,-354.917"/>
</g>
<!-- Node6 -->
<g id="node4" class="node"><title>Node6</title>
<g id="a_node4"><a xlink:href="interface_i_state.html" target="_top" xlink:title="{IState\n||+ GetName()\l+ GetTriggers()\l+ Init()\l}">
<polygon fill="white" stroke="black" points="101.5,-354.5 101.5,-433.5 183.5,-433.5 183.5,-354.5 101.5,-354.5"/>
<text text-anchor="middle" x="142.5" y="-421.5" font-family="Helvetica,sans-Serif" font-size="10.00">IState</text>
<polyline fill="none" stroke="black" points="101.5,-414.5 183.5,-414.5 "/>
<text text-anchor="middle" x="142.5" y="-402.5" font-family="Helvetica,sans-Serif" font-size="10.00"> </text>
<polyline fill="none" stroke="black" points="101.5,-395.5 183.5,-395.5 "/>
<text text-anchor="start" x="109.5" y="-383.5" font-family="Helvetica,sans-Serif" font-size="10.00">+ GetName()</text>
<text text-anchor="start" x="109.5" y="-372.5" font-family="Helvetica,sans-Serif" font-size="10.00">+ GetTriggers()</text>
<text text-anchor="start" x="109.5" y="-361.5" font-family="Helvetica,sans-Serif" font-size="10.00">+ Init()</text>
</a>
</g>
</g>
<!-- Node6&#45;&gt;Node4 -->
<g id="edge3" class="edge"><title>Node6&#45;&gt;Node4</title>
<path fill="none" stroke="#404040" d="M142.5,-354.253C142.5,-343.375 142.5,-331.078 142.5,-318.55"/>
<polygon fill="none" stroke="#404040" points="142.5,-318.507 138.5,-312.507 142.5,-306.507 146.5,-312.507 142.5,-318.507"/>
<text text-anchor="middle" x="171" y="-328" font-family="Helvetica,sans-Serif" font-size="10.00"> #activeState</text>
</g>
<!-- Node7 -->
<g id="node5" class="node"><title>Node7</title>
<g id="a_node5"><a xlink:href="class_game_string_event.html" target="_top" xlink:title="{GameStringEvent\n||}">
<polygon fill="white" stroke="black" points="201.5,-365.5 201.5,-422.5 293.5,-422.5 293.5,-365.5 201.5,-365.5"/>
<text text-anchor="middle" x="247.5" y="-410.5" font-family="Helvetica,sans-Serif" font-size="10.00">GameStringEvent</text>
<polyline fill="none" stroke="black" points="201.5,-403.5 293.5,-403.5 "/>
<text text-anchor="middle" x="247.5" y="-391.5" font-family="Helvetica,sans-Serif" font-size="10.00"> </text>
<polyline fill="none" stroke="black" points="201.5,-384.5 293.5,-384.5 "/>
<text text-anchor="middle" x="247.5" y="-372.5" font-family="Helvetica,sans-Serif" font-size="10.00"> </text>
</a>
</g>
</g>
<!-- Node7&#45;&gt;Node4 -->
<g id="edge4" class="edge"><title>Node7&#45;&gt;Node4</title>
<path fill="none" stroke="#404040" d="M229.688,-365.264C220.982,-351.708 209.972,-334.564 198.734,-317.064"/>
<polygon fill="none" stroke="#404040" points="198.59,-316.84 191.982,-313.953 192.105,-306.743 198.713,-309.63 198.59,-316.84"/>
<text text-anchor="middle" x="255" y="-328" font-family="Helvetica,sans-Serif" font-size="10.00"> +stateEnteredEvent</text>
</g>
<!-- Node8 -->
<g id="node6" class="node"><title>Node8</title>
<g id="a_node6"><a xlink:href="class_game_event.html" target="_top" xlink:title="{GameEvent\&lt; string \&gt;\n|+ Event\l+ Event\l|+ Invoke()\l+ Invoke()\l+ AddListener()\l+ AddListener()\l+ RemovedListener()\l+ RemoveListener()\l}">
<polygon fill="white" stroke="black" points="193,-471.5 193,-594.5 302,-594.5 302,-471.5 193,-471.5"/>
<text text-anchor="middle" x="247.5" y="-582.5" font-family="Helvetica,sans-Serif" font-size="10.00">GameEvent&lt; string &gt;</text>
<polyline fill="none" stroke="black" points="193,-575.5 302,-575.5 "/>
<text text-anchor="start" x="201" y="-563.5" font-family="Helvetica,sans-Serif" font-size="10.00">+ Event</text>
<text text-anchor="start" x="201" y="-552.5" font-family="Helvetica,sans-Serif" font-size="10.00">+ Event</text>
<polyline fill="none" stroke="black" points="193,-545.5 302,-545.5 "/>
<text text-anchor="start" x="201" y="-533.5" font-family="Helvetica,sans-Serif" font-size="10.00">+ Invoke()</text>
<text text-anchor="start" x="201" y="-522.5" font-family="Helvetica,sans-Serif" font-size="10.00">+ Invoke()</text>
<text text-anchor="start" x="201" y="-511.5" font-family="Helvetica,sans-Serif" font-size="10.00">+ AddListener()</text>
<text text-anchor="start" x="201" y="-500.5" font-family="Helvetica,sans-Serif" font-size="10.00">+ AddListener()</text>
<text text-anchor="start" x="201" y="-489.5" font-family="Helvetica,sans-Serif" font-size="10.00">+ RemovedListener()</text>
<text text-anchor="start" x="201" y="-478.5" font-family="Helvetica,sans-Serif" font-size="10.00">+ RemoveListener()</text>
</a>
</g>
</g>
<!-- Node8&#45;&gt;Node7 -->
<g id="edge5" class="edge"><title>Node8&#45;&gt;Node7</title>
<path fill="none" stroke="midnightblue" d="M247.5,-460.792C247.5,-447.288 247.5,-433.924 247.5,-422.804"/>
<polygon fill="none" stroke="midnightblue" points="244,-461.112 247.5,-471.112 251,-461.112 244,-461.112"/>
</g>
<!-- Node9 -->
<g id="node7" class="node"><title>Node9</title>
<polygon fill="white" stroke="#bfbfbf" points="203,-632.5 203,-689.5 292,-689.5 292,-632.5 203,-632.5"/>
<text text-anchor="middle" x="247.5" y="-677.5" font-family="Helvetica,sans-Serif" font-size="10.00">ScriptableObject</text>
<polyline fill="none" stroke="#bfbfbf" points="203,-670.5 292,-670.5 "/>
<text text-anchor="middle" x="247.5" y="-658.5" font-family="Helvetica,sans-Serif" font-size="10.00"> </text>
<polyline fill="none" stroke="#bfbfbf" points="203,-651.5 292,-651.5 "/>
<text text-anchor="middle" x="247.5" y="-639.5" font-family="Helvetica,sans-Serif" font-size="10.00"> </text>
</g>
<!-- Node9&#45;&gt;Node8 -->
<g id="edge6" class="edge"><title>Node9&#45;&gt;Node8</title>
<path fill="none" stroke="midnightblue" d="M247.5,-622.182C247.5,-613.491 247.5,-604.033 247.5,-594.646"/>
<polygon fill="none" stroke="midnightblue" points="244,-622.349 247.5,-632.349 251,-622.349 244,-622.349"/>
</g>
</g>
</svg>
