<?xml version="1.0" encoding="UTF-8" standalone="no"?>
<!DOCTYPE svg PUBLIC "-//W3C//DTD SVG 1.1//EN"
 "http://www.w3.org/Graphics/SVG/1.1/DTD/svg11.dtd">
<!-- Generated by graphviz version 2.38.0 (20140413.2041)
 -->
<!-- Title: CollisionEffector Pages: 1 -->
<svg width="251pt" height="419pt"
 viewBox="0.00 0.00 251.00 419.00" xmlns="http://www.w3.org/2000/svg" xmlns:xlink="http://www.w3.org/1999/xlink">
<g id="graph0" class="graph" transform="scale(1 1) rotate(0) translate(4 415)">
<title>CollisionEffector</title>
<polygon fill="white" stroke="none" points="-4,4 -4,-415 247,-415 247,4 -4,4"/>
<!-- Node2 -->
<g id="node1" class="node"><title>Node2</title>
<polygon fill="#bfbfbf" stroke="black" points="6,-0.5 6,-68.5 143,-68.5 143,-0.5 6,-0.5"/>
<text text-anchor="middle" x="74.5" y="-56.5" font-family="Helvetica,sans-Serif" font-size="10.00">CollisionEffector</text>
<polyline fill="none" stroke="black" points="6,-49.5 143,-49.5 "/>
<text text-anchor="start" x="14" y="-37.5" font-family="Helvetica,sans-Serif" font-size="10.00">+ destroyAfterEffect</text>
<polyline fill="none" stroke="black" points="6,-30.5 143,-30.5 "/>
<text text-anchor="start" x="14" y="-18.5" font-family="Helvetica,sans-Serif" font-size="10.00">+ OnTriggerEnter2D()</text>
<text text-anchor="start" x="14" y="-7.5" font-family="Helvetica,sans-Serif" font-size="10.00">&#45; SelfDestructNetworkSafe()</text>
</g>
<!-- Node3 -->
<g id="node2" class="node"><title>Node3</title>
<polygon fill="white" stroke="#bfbfbf" points="0,-127.5 0,-184.5 83,-184.5 83,-127.5 0,-127.5"/>
<text text-anchor="middle" x="41.5" y="-172.5" font-family="Helvetica,sans-Serif" font-size="10.00">MonoBehaviour</text>
<polyline fill="none" stroke="#bfbfbf" points="0,-165.5 83,-165.5 "/>
<text text-anchor="middle" x="41.5" y="-153.5" font-family="Helvetica,sans-Serif" font-size="10.00"> </text>
<polyline fill="none" stroke="#bfbfbf" points="0,-146.5 83,-146.5 "/>
<text text-anchor="middle" x="41.5" y="-134.5" font-family="Helvetica,sans-Serif" font-size="10.00"> </text>
</g>
<!-- Node3&#45;&gt;Node2 -->
<g id="edge1" class="edge"><title>Node3&#45;&gt;Node2</title>
<path fill="none" stroke="midnightblue" d="M51.8851,-117.393C56.2073,-101.742 61.1815,-83.729 65.3624,-68.5891"/>
<polygon fill="none" stroke="midnightblue" points="48.442,-116.713 49.1538,-127.284 55.1895,-118.576 48.442,-116.713"/>
</g>
<!-- Node4 -->
<g id="node3" class="node"><title>Node4</title>
<g id="a_node3"><a xlink:href="class_status_effect.html" target="_top" xlink:title="A general Status Effect which is applied to a Attribute of a Character. ">
<polygon fill="white" stroke="black" points="101,-116.5 101,-195.5 186,-195.5 186,-116.5 101,-116.5"/>
<text text-anchor="middle" x="143.5" y="-183.5" font-family="Helvetica,sans-Serif" font-size="10.00">StatusEffect</text>
<polyline fill="none" stroke="black" points="101,-176.5 186,-176.5 "/>
<text text-anchor="start" x="109" y="-164.5" font-family="Helvetica,sans-Serif" font-size="10.00">+ offset</text>
<text text-anchor="start" x="109" y="-153.5" font-family="Helvetica,sans-Serif" font-size="10.00">+ multiplier</text>
<text text-anchor="start" x="109" y="-142.5" font-family="Helvetica,sans-Serif" font-size="10.00">+ duration</text>
<polyline fill="none" stroke="black" points="101,-135.5 186,-135.5 "/>
<text text-anchor="start" x="109" y="-123.5" font-family="Helvetica,sans-Serif" font-size="10.00">+ IsTemporary()</text>
</a>
</g>
</g>
<!-- Node4&#45;&gt;Node2 -->
<g id="edge2" class="edge"><title>Node4&#45;&gt;Node2</title>
<path fill="none" stroke="#404040" d="M121.098,-116.202C114.349,-104.514 106.893,-91.6014 99.9612,-79.5959"/>
<polygon fill="none" stroke="#404040" points="99.7782,-79.2788 93.3139,-76.0829 93.7777,-68.8867 100.242,-72.0826 99.7782,-79.2788"/>
<text text-anchor="middle" x="127.5" y="-90" font-family="Helvetica,sans-Serif" font-size="10.00"> +effects</text>
</g>
<!-- Node5 -->
<g id="node4" class="node"><title>Node5</title>
<polygon fill="white" stroke="#bfbfbf" points="45,-298.5 45,-355.5 134,-355.5 134,-298.5 45,-298.5"/>
<text text-anchor="middle" x="89.5" y="-343.5" font-family="Helvetica,sans-Serif" font-size="10.00">ScriptableObject</text>
<polyline fill="none" stroke="#bfbfbf" points="45,-336.5 134,-336.5 "/>
<text text-anchor="middle" x="89.5" y="-324.5" font-family="Helvetica,sans-Serif" font-size="10.00"> </text>
<polyline fill="none" stroke="#bfbfbf" points="45,-317.5 134,-317.5 "/>
<text text-anchor="middle" x="89.5" y="-305.5" font-family="Helvetica,sans-Serif" font-size="10.00"> </text>
</g>
<!-- Node5&#45;&gt;Node4 -->
<g id="edge3" class="edge"><title>Node5&#45;&gt;Node4</title>
<path fill="none" stroke="midnightblue" d="M101.395,-288.772C110.23,-261.124 122.245,-223.522 131.179,-195.561"/>
<polygon fill="none" stroke="midnightblue" points="98.006,-287.88 98.2962,-298.471 104.674,-290.011 98.006,-287.88"/>
</g>
<!-- Node6 -->
<g id="node5" class="node"><title>Node6</title>
<g id="a_node5"><a xlink:href="class_attribute.html" target="_top" xlink:title="{Attribute\n|+ name\l+ baseValue\l+ baseMultiplier\l+ value\l+ isSynced\l&#45; type\l&#45; initBaseValue\l&#45; tempEffects\l|+ AddEffect()\l+ RemoveEffect()\l# Attribute()\l&#45; Recalculate()\l}">
<polygon fill="white" stroke="black" points="152,-243.5 152,-410.5 243,-410.5 243,-243.5 152,-243.5"/>
<text text-anchor="middle" x="197.5" y="-398.5" font-family="Helvetica,sans-Serif" font-size="10.00">Attribute</text>
<polyline fill="none" stroke="black" points="152,-391.5 243,-391.5 "/>
<text text-anchor="start" x="160" y="-379.5" font-family="Helvetica,sans-Serif" font-size="10.00">+ name</text>
<text text-anchor="start" x="160" y="-368.5" font-family="Helvetica,sans-Serif" font-size="10.00">+ baseValue</text>
<text text-anchor="start" x="160" y="-357.5" font-family="Helvetica,sans-Serif" font-size="10.00">+ baseMultiplier</text>
<text text-anchor="start" x="160" y="-346.5" font-family="Helvetica,sans-Serif" font-size="10.00">+ value</text>
<text text-anchor="start" x="160" y="-335.5" font-family="Helvetica,sans-Serif" font-size="10.00">+ isSynced</text>
<text text-anchor="start" x="160" y="-324.5" font-family="Helvetica,sans-Serif" font-size="10.00">&#45; type</text>
<text text-anchor="start" x="160" y="-313.5" font-family="Helvetica,sans-Serif" font-size="10.00">&#45; initBaseValue</text>
<text text-anchor="start" x="160" y="-302.5" font-family="Helvetica,sans-Serif" font-size="10.00">&#45; tempEffects</text>
<polyline fill="none" stroke="black" points="152,-295.5 243,-295.5 "/>
<text text-anchor="start" x="160" y="-283.5" font-family="Helvetica,sans-Serif" font-size="10.00">+ AddEffect()</text>
<text text-anchor="start" x="160" y="-272.5" font-family="Helvetica,sans-Serif" font-size="10.00">+ RemoveEffect()</text>
<text text-anchor="start" x="160" y="-261.5" font-family="Helvetica,sans-Serif" font-size="10.00"># Attribute()</text>
<text text-anchor="start" x="160" y="-250.5" font-family="Helvetica,sans-Serif" font-size="10.00">&#45; Recalculate()</text>
</a>
</g>
</g>
<!-- Node6&#45;&gt;Node4 -->
<g id="edge4" class="edge"><title>Node6&#45;&gt;Node4</title>
<path fill="none" stroke="#404040" d="M171.133,-243.48C167.159,-231.043 163.166,-218.548 159.5,-207.075"/>
<polygon fill="none" stroke="#404040" points="159.465,-206.964 153.829,-202.467 155.813,-195.534 161.449,-200.032 159.465,-206.964"/>
<text text-anchor="middle" x="196.5" y="-217" font-family="Helvetica,sans-Serif" font-size="10.00"> +attributeType</text>
</g>
</g>
</svg>
