<?xml version="1.0" encoding="UTF-8" standalone="no"?>
<!DOCTYPE svg PUBLIC "-//W3C//DTD SVG 1.1//EN"
 "http://www.w3.org/Graphics/SVG/1.1/DTD/svg11.dtd">
<!-- Generated by graphviz version 2.38.0 (20140413.2041)
 -->
<!-- Title: Attribute Pages: 1 -->
<svg width="196pt" height="270pt"
 viewBox="0.00 0.00 195.50 270.00" xmlns="http://www.w3.org/2000/svg" xmlns:xlink="http://www.w3.org/1999/xlink">
<g id="graph0" class="graph" transform="scale(1 1) rotate(0) translate(4 266)">
<title>Attribute</title>
<polygon fill="white" stroke="none" points="-4,4 -4,-266 191.5,-266 191.5,4 -4,4"/>
<!-- Node0 -->
<g id="node1" class="node"><title>Node0</title>
<polygon fill="#bfbfbf" stroke="black" points="50.5,-94.5 50.5,-261.5 141.5,-261.5 141.5,-94.5 50.5,-94.5"/>
<text text-anchor="middle" x="96" y="-249.5" font-family="Helvetica,sans-Serif" font-size="10.00">Attribute</text>
<polyline fill="none" stroke="black" points="50.5,-242.5 141.5,-242.5 "/>
<text text-anchor="start" x="58.5" y="-230.5" font-family="Helvetica,sans-Serif" font-size="10.00">+ name</text>
<text text-anchor="start" x="58.5" y="-219.5" font-family="Helvetica,sans-Serif" font-size="10.00">+ baseValue</text>
<text text-anchor="start" x="58.5" y="-208.5" font-family="Helvetica,sans-Serif" font-size="10.00">+ baseMultiplier</text>
<text text-anchor="start" x="58.5" y="-197.5" font-family="Helvetica,sans-Serif" font-size="10.00">+ value</text>
<text text-anchor="start" x="58.5" y="-186.5" font-family="Helvetica,sans-Serif" font-size="10.00">+ isSynced</text>
<text text-anchor="start" x="58.5" y="-175.5" font-family="Helvetica,sans-Serif" font-size="10.00">&#45; type</text>
<text text-anchor="start" x="58.5" y="-164.5" font-family="Helvetica,sans-Serif" font-size="10.00">&#45; initBaseValue</text>
<text text-anchor="start" x="58.5" y="-153.5" font-family="Helvetica,sans-Serif" font-size="10.00">&#45; tempEffects</text>
<polyline fill="none" stroke="black" points="50.5,-146.5 141.5,-146.5 "/>
<text text-anchor="start" x="58.5" y="-134.5" font-family="Helvetica,sans-Serif" font-size="10.00">+ AddEffect()</text>
<text text-anchor="start" x="58.5" y="-123.5" font-family="Helvetica,sans-Serif" font-size="10.00">+ RemoveEffect()</text>
<text text-anchor="start" x="58.5" y="-112.5" font-family="Helvetica,sans-Serif" font-size="10.00"># Attribute()</text>
<text text-anchor="start" x="58.5" y="-101.5" font-family="Helvetica,sans-Serif" font-size="10.00">&#45; Recalculate()</text>
</g>
<!-- Node1 -->
<g id="node2" class="node"><title>Node1</title>
<g id="a_node2"><a xlink:href="class_float_attribute.html" target="_top" xlink:title="Variant of an Attribute expecting and returning float values. ">
<polygon fill="white" stroke="black" points="0,-0.5 0,-57.5 90,-57.5 90,-0.5 0,-0.5"/>
<text text-anchor="middle" x="45" y="-45.5" font-family="Helvetica,sans-Serif" font-size="10.00">FloatAttribute</text>
<polyline fill="none" stroke="black" points="0,-38.5 90,-38.5 "/>
<text text-anchor="middle" x="45" y="-26.5" font-family="Helvetica,sans-Serif" font-size="10.00"> </text>
<polyline fill="none" stroke="black" points="0,-19.5 90,-19.5 "/>
<text text-anchor="start" x="8" y="-7.5" font-family="Helvetica,sans-Serif" font-size="10.00">+ FloatAttribute()</text>
</a>
</g>
</g>
<!-- Node0&#45;&gt;Node1 -->
<g id="edge1" class="edge"><title>Node0&#45;&gt;Node1</title>
<path fill="none" stroke="midnightblue" d="M64.0697,-84.9655C60.6712,-75.1699 57.4357,-65.8442 54.6269,-57.7481"/>
<polygon fill="none" stroke="midnightblue" points="60.7849,-86.176 67.3693,-94.4763 67.3982,-83.8815 60.7849,-86.176"/>
</g>
<!-- Node2 -->
<g id="node3" class="node"><title>Node2</title>
<g id="a_node3"><a xlink:href="class_int_attribute.html" target="_top" xlink:title="Variant of an Attribute expecting and returning int values. ">
<polygon fill="white" stroke="black" points="108.5,-0.5 108.5,-57.5 187.5,-57.5 187.5,-0.5 108.5,-0.5"/>
<text text-anchor="middle" x="148" y="-45.5" font-family="Helvetica,sans-Serif" font-size="10.00">IntAttribute</text>
<polyline fill="none" stroke="black" points="108.5,-38.5 187.5,-38.5 "/>
<text text-anchor="middle" x="148" y="-26.5" font-family="Helvetica,sans-Serif" font-size="10.00"> </text>
<polyline fill="none" stroke="black" points="108.5,-19.5 187.5,-19.5 "/>
<text text-anchor="start" x="116.5" y="-7.5" font-family="Helvetica,sans-Serif" font-size="10.00">+ IntAttribute()</text>
</a>
</g>
</g>
<!-- Node0&#45;&gt;Node2 -->
<g id="edge2" class="edge"><title>Node0&#45;&gt;Node2</title>
<path fill="none" stroke="midnightblue" d="M128.556,-84.9655C132.022,-75.1699 135.32,-65.8442 138.184,-57.7481"/>
<polygon fill="none" stroke="midnightblue" points="125.227,-83.8816 125.192,-94.4763 131.827,-86.216 125.227,-83.8816"/>
</g>
</g>
</svg>
