<?xml version="1.0" encoding="UTF-8" standalone="no"?>
<!DOCTYPE svg PUBLIC "-//W3C//DTD SVG 1.1//EN"
 "http://www.w3.org/Graphics/SVG/1.1/DTD/svg11.dtd">
<!-- Generated by graphviz version 2.38.0 (20140413.2041)
 -->
<!-- Title: HomebaseController Pages: 1 -->
<svg width="303pt" height="464pt"
 viewBox="0.00 0.00 302.50 464.00" xmlns="http://www.w3.org/2000/svg" xmlns:xlink="http://www.w3.org/1999/xlink">
<g id="graph0" class="graph" transform="scale(1 1) rotate(0) translate(4 460)">
<title>HomebaseController</title>
<polygon fill="white" stroke="none" points="-4,4 -4,-460 298.5,-460 298.5,4 -4,4"/>
<!-- Node2 -->
<g id="node1" class="node"><title>Node2</title>
<polygon fill="#bfbfbf" stroke="black" points="72,-0.5 72,-244.5 195,-244.5 195,-0.5 72,-0.5"/>
<text text-anchor="middle" x="133.5" y="-232.5" font-family="Helvetica,sans-Serif" font-size="10.00">HomebaseController</text>
<polyline fill="none" stroke="black" points="72,-225.5 195,-225.5 "/>
<text text-anchor="start" x="80" y="-213.5" font-family="Helvetica,sans-Serif" font-size="10.00">+ circularMenu</text>
<text text-anchor="start" x="80" y="-202.5" font-family="Helvetica,sans-Serif" font-size="10.00">+ motherCellButton</text>
<text text-anchor="start" x="80" y="-191.5" font-family="Helvetica,sans-Serif" font-size="10.00">+ particles</text>
<text text-anchor="start" x="80" y="-180.5" font-family="Helvetica,sans-Serif" font-size="10.00">+ spawn</text>
<text text-anchor="start" x="80" y="-169.5" font-family="Helvetica,sans-Serif" font-size="10.00">&#45; basiccolor</text>
<text text-anchor="start" x="80" y="-158.5" font-family="Helvetica,sans-Serif" font-size="10.00">&#45; hovercolor</text>
<text text-anchor="start" x="80" y="-147.5" font-family="Helvetica,sans-Serif" font-size="10.00">&#45; coroutine</text>
<text text-anchor="start" x="80" y="-136.5" font-family="Helvetica,sans-Serif" font-size="10.00">&#45; coroutineQueue</text>
<text text-anchor="start" x="80" y="-125.5" font-family="Helvetica,sans-Serif" font-size="10.00">&#45; unitProcessingCounter</text>
<polyline fill="none" stroke="black" points="72,-118.5 195,-118.5 "/>
<text text-anchor="start" x="80" y="-106.5" font-family="Helvetica,sans-Serif" font-size="10.00">+ motherCellOnClick()</text>
<text text-anchor="start" x="80" y="-95.5" font-family="Helvetica,sans-Serif" font-size="10.00">+ createUnitOnClick()</text>
<text text-anchor="start" x="80" y="-84.5" font-family="Helvetica,sans-Serif" font-size="10.00">&#45; Awake()</text>
<text text-anchor="start" x="80" y="-73.5" font-family="Helvetica,sans-Serif" font-size="10.00">&#45; Update()</text>
<text text-anchor="start" x="80" y="-62.5" font-family="Helvetica,sans-Serif" font-size="10.00">&#45; OnTriggerEnter2D()</text>
<text text-anchor="start" x="80" y="-51.5" font-family="Helvetica,sans-Serif" font-size="10.00">&#45; OnTriggerExit2D()</text>
<text text-anchor="start" x="80" y="-40.5" font-family="Helvetica,sans-Serif" font-size="10.00">&#45; cancelButtonListener()</text>
<text text-anchor="start" x="80" y="-29.5" font-family="Helvetica,sans-Serif" font-size="10.00">&#45; progressCircularMenu()</text>
<text text-anchor="start" x="80" y="-18.5" font-family="Helvetica,sans-Serif" font-size="10.00">&#45; createUnit()</text>
<text text-anchor="start" x="80" y="-7.5" font-family="Helvetica,sans-Serif" font-size="10.00">&#45; setCreatingInfo()</text>
</g>
<!-- Node3 -->
<g id="node2" class="node"><title>Node3</title>
<polygon fill="white" stroke="#bfbfbf" points="0,-298 0,-355 83,-355 83,-298 0,-298"/>
<text text-anchor="middle" x="41.5" y="-343" font-family="Helvetica,sans-Serif" font-size="10.00">MonoBehaviour</text>
<polyline fill="none" stroke="#bfbfbf" points="0,-336 83,-336 "/>
<text text-anchor="middle" x="41.5" y="-324" font-family="Helvetica,sans-Serif" font-size="10.00"> </text>
<polyline fill="none" stroke="#bfbfbf" points="0,-317 83,-317 "/>
<text text-anchor="middle" x="41.5" y="-305" font-family="Helvetica,sans-Serif" font-size="10.00"> </text>
</g>
<!-- Node3&#45;&gt;Node2 -->
<g id="edge1" class="edge"><title>Node3&#45;&gt;Node2</title>
<path fill="none" stroke="midnightblue" d="M58.3512,-288.501C64.2003,-275.658 71.1187,-260.468 78.3516,-244.587"/>
<polygon fill="none" stroke="midnightblue" points="55.059,-287.285 54.0993,-297.836 61.4294,-290.186 55.059,-287.285"/>
</g>
<!-- Node4 -->
<g id="node3" class="node"><title>Node4</title>
<g id="a_node3"><a xlink:href="class_unit.html" target="_top" xlink:title="{Unit\n|+ buildtime\l+ prefab\l|}">
<polygon fill="white" stroke="black" points="101,-292.5 101,-360.5 166,-360.5 166,-292.5 101,-292.5"/>
<text text-anchor="middle" x="133.5" y="-348.5" font-family="Helvetica,sans-Serif" font-size="10.00">Unit</text>
<polyline fill="none" stroke="black" points="101,-341.5 166,-341.5 "/>
<text text-anchor="start" x="109" y="-329.5" font-family="Helvetica,sans-Serif" font-size="10.00">+ buildtime</text>
<text text-anchor="start" x="109" y="-318.5" font-family="Helvetica,sans-Serif" font-size="10.00">+ prefab</text>
<polyline fill="none" stroke="black" points="101,-311.5 166,-311.5 "/>
<text text-anchor="middle" x="133.5" y="-299.5" font-family="Helvetica,sans-Serif" font-size="10.00"> </text>
</a>
</g>
</g>
<!-- Node4&#45;&gt;Node2 -->
<g id="edge2" class="edge"><title>Node4&#45;&gt;Node2</title>
<path fill="none" stroke="#404040" d="M133.5,-292.144C133.5,-281.763 133.5,-269.617 133.5,-256.685"/>
<polygon fill="none" stroke="#404040" points="133.5,-256.616 129.5,-250.616 133.5,-244.616 137.5,-250.616 133.5,-256.616"/>
<text text-anchor="middle" x="146" y="-266" font-family="Helvetica,sans-Serif" font-size="10.00"> +unit</text>
</g>
<!-- Node5 -->
<g id="node4" class="node"><title>Node5</title>
<polygon fill="white" stroke="#bfbfbf" points="151,-398.5 151,-455.5 240,-455.5 240,-398.5 151,-398.5"/>
<text text-anchor="middle" x="195.5" y="-443.5" font-family="Helvetica,sans-Serif" font-size="10.00">ScriptableObject</text>
<polyline fill="none" stroke="#bfbfbf" points="151,-436.5 240,-436.5 "/>
<text text-anchor="middle" x="195.5" y="-424.5" font-family="Helvetica,sans-Serif" font-size="10.00"> </text>
<polyline fill="none" stroke="#bfbfbf" points="151,-417.5 240,-417.5 "/>
<text text-anchor="middle" x="195.5" y="-405.5" font-family="Helvetica,sans-Serif" font-size="10.00"> </text>
</g>
<!-- Node5&#45;&gt;Node4 -->
<g id="edge3" class="edge"><title>Node5&#45;&gt;Node4</title>
<path fill="none" stroke="midnightblue" d="M172.695,-389.769C166.681,-380.215 160.224,-369.957 154.321,-360.578"/>
<polygon fill="none" stroke="midnightblue" points="169.775,-391.702 178.065,-398.3 175.7,-387.973 169.775,-391.702"/>
</g>
<!-- Node6 -->
<g id="node5" class="node"><title>Node6</title>
<g id="a_node5"><a xlink:href="class_player.html" target="_top" xlink:title="{Player\n|+ nickName\l+ curPlayerReference\l|}">
<polygon fill="white" stroke="black" points="184.5,-292.5 184.5,-360.5 294.5,-360.5 294.5,-292.5 184.5,-292.5"/>
<text text-anchor="middle" x="239.5" y="-348.5" font-family="Helvetica,sans-Serif" font-size="10.00">Player</text>
<polyline fill="none" stroke="black" points="184.5,-341.5 294.5,-341.5 "/>
<text text-anchor="start" x="192.5" y="-329.5" font-family="Helvetica,sans-Serif" font-size="10.00">+ nickName</text>
<text text-anchor="start" x="192.5" y="-318.5" font-family="Helvetica,sans-Serif" font-size="10.00">+ curPlayerReference</text>
<polyline fill="none" stroke="black" points="184.5,-311.5 294.5,-311.5 "/>
<text text-anchor="middle" x="239.5" y="-299.5" font-family="Helvetica,sans-Serif" font-size="10.00"> </text>
</a>
</g>
</g>
<!-- Node5&#45;&gt;Node6 -->
<g id="edge5" class="edge"><title>Node5&#45;&gt;Node6</title>
<path fill="none" stroke="midnightblue" d="M212.077,-388.89C216.232,-379.588 220.663,-369.67 224.724,-360.578"/>
<polygon fill="none" stroke="midnightblue" points="208.757,-387.742 207.874,-398.3 215.148,-390.597 208.757,-387.742"/>
</g>
<!-- Node6&#45;&gt;Node2 -->
<g id="edge4" class="edge"><title>Node6&#45;&gt;Node2</title>
<path fill="none" stroke="#404040" d="M221.996,-292.144C215.845,-280.421 208.513,-266.449 200.74,-251.636"/>
<polygon fill="none" stroke="#404040" points="200.588,-251.347 194.258,-247.893 195.012,-240.721 201.342,-244.175 200.588,-251.347"/>
<text text-anchor="middle" x="229.5" y="-266" font-family="Helvetica,sans-Serif" font-size="10.00"> +player</text>
</g>
</g>
</svg>
