<?xml version="1.0" encoding="UTF-8" standalone="no"?>
<!DOCTYPE svg PUBLIC "-//W3C//DTD SVG 1.1//EN"
 "http://www.w3.org/Graphics/SVG/1.1/DTD/svg11.dtd">
<!-- Generated by graphviz version 2.38.0 (20140413.2041)
 -->
<!-- Title: PlayerController Pages: 1 -->
<svg width="558pt" height="836pt"
 viewBox="0.00 0.00 557.58 836.00" xmlns="http://www.w3.org/2000/svg" xmlns:xlink="http://www.w3.org/1999/xlink">
<g id="graph0" class="graph" transform="scale(1 1) rotate(0) translate(4 832)">
<title>PlayerController</title>
<polygon fill="white" stroke="none" points="-4,4 -4,-832 553.578,-832 553.578,4 -4,4"/>
<!-- Node2 -->
<g id="node1" class="node"><title>Node2</title>
<polygon fill="#bfbfbf" stroke="black" points="114.578,-0.5 114.578,-112.5 220.578,-112.5 220.578,-0.5 114.578,-0.5"/>
<text text-anchor="middle" x="167.578" y="-100.5" font-family="Helvetica,sans-Serif" font-size="10.00">PlayerController</text>
<polyline fill="none" stroke="black" points="114.578,-93.5 220.578,-93.5 "/>
<text text-anchor="start" x="122.578" y="-81.5" font-family="Helvetica,sans-Serif" font-size="10.00">+ rigidbodyToControl</text>
<text text-anchor="start" x="122.578" y="-70.5" font-family="Helvetica,sans-Serif" font-size="10.00">&#45; movement</text>
<polyline fill="none" stroke="black" points="114.578,-63.5 220.578,-63.5 "/>
<text text-anchor="start" x="122.578" y="-51.5" font-family="Helvetica,sans-Serif" font-size="10.00">&#45; Awake()</text>
<text text-anchor="start" x="122.578" y="-40.5" font-family="Helvetica,sans-Serif" font-size="10.00">&#45; Update()</text>
<text text-anchor="start" x="122.578" y="-29.5" font-family="Helvetica,sans-Serif" font-size="10.00">&#45; FixedUpdate()</text>
<text text-anchor="start" x="122.578" y="-18.5" font-family="Helvetica,sans-Serif" font-size="10.00">&#45; ReadMovement()</text>
<text text-anchor="start" x="122.578" y="-7.5" font-family="Helvetica,sans-Serif" font-size="10.00">&#45; ReadAttack()</text>
</g>
<!-- Node3 -->
<g id="node2" class="node"><title>Node3</title>
<polygon fill="white" stroke="#bfbfbf" points="16.0783,-770.5 16.0783,-827.5 99.0783,-827.5 99.0783,-770.5 16.0783,-770.5"/>
<text text-anchor="middle" x="57.5783" y="-815.5" font-family="Helvetica,sans-Serif" font-size="10.00">MonoBehaviour</text>
<polyline fill="none" stroke="#bfbfbf" points="16.0783,-808.5 99.0783,-808.5 "/>
<text text-anchor="middle" x="57.5783" y="-796.5" font-family="Helvetica,sans-Serif" font-size="10.00"> </text>
<polyline fill="none" stroke="#bfbfbf" points="16.0783,-789.5 99.0783,-789.5 "/>
<text text-anchor="middle" x="57.5783" y="-777.5" font-family="Helvetica,sans-Serif" font-size="10.00"> </text>
</g>
<!-- Node3&#45;&gt;Node2 -->
<g id="edge1" class="edge"><title>Node3&#45;&gt;Node2</title>
<path fill="none" stroke="midnightblue" d="M39.9279,-760.874C36.4726,-751.941 33.3675,-742.29 31.5783,-733 -16.8024,-481.779 -16.5263,-394.141 86.5783,-160 93.8907,-143.394 104.543,-127.157 115.734,-112.68"/>
<polygon fill="none" stroke="midnightblue" points="36.7345,-762.311 43.7691,-770.234 43.2104,-759.653 36.7345,-762.311"/>
</g>
<!-- Node4 -->
<g id="node3" class="node"><title>Node4</title>
<g id="a_node3"><a xlink:href="class_unit.html" target="_top" xlink:title="{Unit\n|+ controlActiveDebugOverride\l+ curMeleeAtkRangeSq\l+ curSpeed\l&#45; curMeleeAtkRange\l&#45; curMeleeAtkDelay\l&#45; curConewidth\l&#45; curMeleeAtkCooldown\l&#45; curAttackSpeed\l&#45; curAttackDamage\l&#45; pv\l&#45; attackAvailable\l|+ TryMeleeAttack()\l+ IsControlActive()\l&#45; Awake()\l&#45; EvalMeleeAttack()\l&#45; AnimateMeleeAttack()\l&#45; HitMeleeAttack()\l}">
<polygon fill="white" stroke="black" points="95.5783,-160.5 95.5783,-382.5 239.578,-382.5 239.578,-160.5 95.5783,-160.5"/>
<text text-anchor="middle" x="167.578" y="-370.5" font-family="Helvetica,sans-Serif" font-size="10.00">Unit</text>
<polyline fill="none" stroke="black" points="95.5783,-363.5 239.578,-363.5 "/>
<text text-anchor="start" x="103.578" y="-351.5" font-family="Helvetica,sans-Serif" font-size="10.00">+ controlActiveDebugOverride</text>
<text text-anchor="start" x="103.578" y="-340.5" font-family="Helvetica,sans-Serif" font-size="10.00">+ curMeleeAtkRangeSq</text>
<text text-anchor="start" x="103.578" y="-329.5" font-family="Helvetica,sans-Serif" font-size="10.00">+ curSpeed</text>
<text text-anchor="start" x="103.578" y="-318.5" font-family="Helvetica,sans-Serif" font-size="10.00">&#45; curMeleeAtkRange</text>
<text text-anchor="start" x="103.578" y="-307.5" font-family="Helvetica,sans-Serif" font-size="10.00">&#45; curMeleeAtkDelay</text>
<text text-anchor="start" x="103.578" y="-296.5" font-family="Helvetica,sans-Serif" font-size="10.00">&#45; curConewidth</text>
<text text-anchor="start" x="103.578" y="-285.5" font-family="Helvetica,sans-Serif" font-size="10.00">&#45; curMeleeAtkCooldown</text>
<text text-anchor="start" x="103.578" y="-274.5" font-family="Helvetica,sans-Serif" font-size="10.00">&#45; curAttackSpeed</text>
<text text-anchor="start" x="103.578" y="-263.5" font-family="Helvetica,sans-Serif" font-size="10.00">&#45; curAttackDamage</text>
<text text-anchor="start" x="103.578" y="-252.5" font-family="Helvetica,sans-Serif" font-size="10.00">&#45; pv</text>
<text text-anchor="start" x="103.578" y="-241.5" font-family="Helvetica,sans-Serif" font-size="10.00">&#45; attackAvailable</text>
<polyline fill="none" stroke="black" points="95.5783,-234.5 239.578,-234.5 "/>
<text text-anchor="start" x="103.578" y="-222.5" font-family="Helvetica,sans-Serif" font-size="10.00">+ TryMeleeAttack()</text>
<text text-anchor="start" x="103.578" y="-211.5" font-family="Helvetica,sans-Serif" font-size="10.00">+ IsControlActive()</text>
<text text-anchor="start" x="103.578" y="-200.5" font-family="Helvetica,sans-Serif" font-size="10.00">&#45; Awake()</text>
<text text-anchor="start" x="103.578" y="-189.5" font-family="Helvetica,sans-Serif" font-size="10.00">&#45; EvalMeleeAttack()</text>
<text text-anchor="start" x="103.578" y="-178.5" font-family="Helvetica,sans-Serif" font-size="10.00">&#45; AnimateMeleeAttack()</text>
<text text-anchor="start" x="103.578" y="-167.5" font-family="Helvetica,sans-Serif" font-size="10.00">&#45; HitMeleeAttack()</text>
</a>
</g>
</g>
<!-- Node3&#45;&gt;Node4 -->
<g id="edge3" class="edge"><title>Node3&#45;&gt;Node4</title>
<path fill="none" stroke="midnightblue" d="M49.7864,-760.197C39.4016,-702.779 24.8167,-590.582 47.5783,-499 57.5337,-458.944 76.0271,-418.182 95.5649,-382.483"/>
<polygon fill="none" stroke="midnightblue" points="46.39,-761.076 51.6666,-770.263 53.271,-759.791 46.39,-761.076"/>
</g>
<!-- Node5 -->
<g id="node4" class="node"><title>Node5</title>
<g id="a_node4"><a xlink:href="class_unit_sprite_animator.html" target="_top" xlink:title="Triggers the Sprite Animator depending on actual current movement. ">
<polygon fill="white" stroke="black" points="57.0783,-554.5 57.0783,-677.5 186.078,-677.5 186.078,-554.5 57.0783,-554.5"/>
<text text-anchor="middle" x="121.578" y="-665.5" font-family="Helvetica,sans-Serif" font-size="10.00">UnitSpriteAnimator</text>
<polyline fill="none" stroke="black" points="57.0783,-658.5 186.078,-658.5 "/>
<text text-anchor="start" x="65.0783" y="-646.5" font-family="Helvetica,sans-Serif" font-size="10.00">&#45; v</text>
<text text-anchor="start" x="65.0783" y="-635.5" font-family="Helvetica,sans-Serif" font-size="10.00">&#45; rb</text>
<text text-anchor="start" x="65.0783" y="-624.5" font-family="Helvetica,sans-Serif" font-size="10.00">&#45; anim</text>
<text text-anchor="start" x="65.0783" y="-613.5" font-family="Helvetica,sans-Serif" font-size="10.00">&#45; rbLastPos</text>
<polyline fill="none" stroke="black" points="57.0783,-606.5 186.078,-606.5 "/>
<text text-anchor="start" x="65.0783" y="-594.5" font-family="Helvetica,sans-Serif" font-size="10.00">+ AnimateAttack()</text>
<text text-anchor="start" x="65.0783" y="-583.5" font-family="Helvetica,sans-Serif" font-size="10.00">&#45; Awake()</text>
<text text-anchor="start" x="65.0783" y="-572.5" font-family="Helvetica,sans-Serif" font-size="10.00">&#45; FixedUpdate()</text>
<text text-anchor="start" x="65.0783" y="-561.5" font-family="Helvetica,sans-Serif" font-size="10.00">&#45; UpdateTrackedVelocity()</text>
</a>
</g>
</g>
<!-- Node3&#45;&gt;Node5 -->
<g id="edge5" class="edge"><title>Node3&#45;&gt;Node5</title>
<path fill="none" stroke="midnightblue" d="M70.7743,-760.68C79.248,-736.715 90.4481,-705.04 100.175,-677.53"/>
<polygon fill="none" stroke="midnightblue" points="67.4719,-759.521 67.438,-770.115 74.0715,-761.854 67.4719,-759.521"/>
</g>
<!-- Node6 -->
<g id="node5" class="node"><title>Node6</title>
<g id="a_node5"><a xlink:href="classmechanics_1_1_destructible.html" target="_top" xlink:title="Destructibles have hit points and are affected by damage sources. ">
<polygon fill="white" stroke="black" points="204.578,-499.5 204.578,-732.5 338.578,-732.5 338.578,-499.5 204.578,-499.5"/>
<text text-anchor="middle" x="271.578" y="-720.5" font-family="Helvetica,sans-Serif" font-size="10.00">Destructible</text>
<polyline fill="none" stroke="black" points="204.578,-713.5 338.578,-713.5 "/>
<text text-anchor="start" x="212.578" y="-701.5" font-family="Helvetica,sans-Serif" font-size="10.00">+ isNeutral</text>
<text text-anchor="start" x="212.578" y="-690.5" font-family="Helvetica,sans-Serif" font-size="10.00">+ brokenObjectPrefab</text>
<text text-anchor="start" x="212.578" y="-679.5" font-family="Helvetica,sans-Serif" font-size="10.00">+ destroyedAfter</text>
<text text-anchor="start" x="212.578" y="-668.5" font-family="Helvetica,sans-Serif" font-size="10.00">+ hitpoints</text>
<text text-anchor="start" x="212.578" y="-657.5" font-family="Helvetica,sans-Serif" font-size="10.00">+ sync</text>
<text text-anchor="start" x="212.578" y="-646.5" font-family="Helvetica,sans-Serif" font-size="10.00">+ destroyedEvent</text>
<text text-anchor="start" x="212.578" y="-635.5" font-family="Helvetica,sans-Serif" font-size="10.00">+ dmgReceivedEvent</text>
<text text-anchor="start" x="212.578" y="-624.5" font-family="Helvetica,sans-Serif" font-size="10.00">&#45; potentialPhotonView</text>
<polyline fill="none" stroke="black" points="204.578,-617.5 338.578,-617.5 "/>
<text text-anchor="start" x="212.578" y="-605.5" font-family="Helvetica,sans-Serif" font-size="10.00">+ Hit()</text>
<text text-anchor="start" x="212.578" y="-594.5" font-family="Helvetica,sans-Serif" font-size="10.00">+ IsAlive()</text>
<text text-anchor="start" x="212.578" y="-583.5" font-family="Helvetica,sans-Serif" font-size="10.00">+ IsEnemy()</text>
<text text-anchor="start" x="212.578" y="-572.5" font-family="Helvetica,sans-Serif" font-size="10.00">+ IsMine()</text>
<text text-anchor="start" x="212.578" y="-561.5" font-family="Helvetica,sans-Serif" font-size="10.00">+ OnPhotonSerializeView()</text>
<text text-anchor="start" x="212.578" y="-550.5" font-family="Helvetica,sans-Serif" font-size="10.00">+ Kill()</text>
<text text-anchor="start" x="212.578" y="-539.5" font-family="Helvetica,sans-Serif" font-size="10.00">&#45; Awake()</text>
<text text-anchor="start" x="212.578" y="-528.5" font-family="Helvetica,sans-Serif" font-size="10.00">&#45; Break()</text>
<text text-anchor="start" x="212.578" y="-517.5" font-family="Helvetica,sans-Serif" font-size="10.00">&#45; Throw()</text>
<text text-anchor="start" x="212.578" y="-506.5" font-family="Helvetica,sans-Serif" font-size="10.00">&#45; SelfDestruct()</text>
</a>
</g>
</g>
<!-- Node3&#45;&gt;Node6 -->
<g id="edge7" class="edge"><title>Node3&#45;&gt;Node6</title>
<path fill="none" stroke="midnightblue" d="M108.793,-781.345C136.335,-770.609 169.66,-754.588 194.578,-733 197.958,-730.072 201.252,-726.961 204.454,-723.71"/>
<polygon fill="none" stroke="midnightblue" points="107.435,-778.116 99.3149,-784.922 109.907,-784.665 107.435,-778.116"/>
</g>
<!-- Node4&#45;&gt;Node2 -->
<g id="edge2" class="edge"><title>Node4&#45;&gt;Node2</title>
<path fill="none" stroke="#404040" d="M167.578,-160.257C167.578,-148.105 167.578,-136.019 167.578,-124.632"/>
<polygon fill="none" stroke="#404040" points="167.578,-124.58 163.578,-118.58 167.578,-112.58 171.578,-118.58 167.578,-124.58"/>
<text text-anchor="middle" x="178.578" y="-134" font-family="Helvetica,sans-Serif" font-size="10.00"> &#45;unit</text>
</g>
<!-- Node5&#45;&gt;Node4 -->
<g id="edge4" class="edge"><title>Node5&#45;&gt;Node4</title>
<path fill="none" stroke="#404040" d="M129.749,-554.163C135.678,-510.021 143.898,-448.817 151.161,-394.735"/>
<polygon fill="none" stroke="#404040" points="151.194,-394.49 148.028,-388.011 152.792,-382.597 155.957,-389.076 151.194,-394.49"/>
<text text-anchor="middle" x="173.078" y="-438.5" font-family="Helvetica,sans-Serif" font-size="10.00"> &#45;unitAnim</text>
</g>
<!-- Node6&#45;&gt;Node4 -->
<g id="edge6" class="edge"><title>Node6&#45;&gt;Node4</title>
<path fill="none" stroke="#404040" d="M236.369,-499.045C226.142,-465.367 214.945,-428.493 204.611,-394.458"/>
<polygon fill="none" stroke="#404040" points="204.481,-394.03 198.91,-389.451 200.994,-382.548 206.565,-387.127 204.481,-394.03"/>
<text text-anchor="middle" x="258.078" y="-438.5" font-family="Helvetica,sans-Serif" font-size="10.00"> &#45;destructible</text>
</g>
<!-- Node7 -->
<g id="node6" class="node"><title>Node7</title>
<polygon fill="white" stroke="#bfbfbf" points="229.578,-770.5 229.578,-827.5 313.578,-827.5 313.578,-770.5 229.578,-770.5"/>
<text text-anchor="middle" x="271.578" y="-815.5" font-family="Helvetica,sans-Serif" font-size="10.00">IPunObservable</text>
<polyline fill="none" stroke="#bfbfbf" points="229.578,-808.5 313.578,-808.5 "/>
<text text-anchor="middle" x="271.578" y="-796.5" font-family="Helvetica,sans-Serif" font-size="10.00"> </text>
<polyline fill="none" stroke="#bfbfbf" points="229.578,-789.5 313.578,-789.5 "/>
<text text-anchor="middle" x="271.578" y="-777.5" font-family="Helvetica,sans-Serif" font-size="10.00"> </text>
</g>
<!-- Node7&#45;&gt;Node6 -->
<g id="edge8" class="edge"><title>Node7&#45;&gt;Node6</title>
<path fill="none" stroke="midnightblue" d="M271.578,-760.008C271.578,-751.609 271.578,-742.288 271.578,-732.547"/>
<polygon fill="none" stroke="midnightblue" points="268.078,-760.115 271.578,-770.115 275.078,-760.115 268.078,-760.115"/>
</g>
<!-- Node8 -->
<g id="node7" class="node"><title>Node8</title>
<g id="a_node7"><a xlink:href="class_unit_info.html" target="_top" xlink:title="{UnitInfo\n|+ buildtime\l+ prefab\l+ attackRange\l+ attackDamage\l+ hitpoints\l+ attackCooldown\l+ moveSpeed\l+ attackSpeed\l+ speedPenaltyOnAttack\l+ carryStrength\l|}">
<polygon fill="white" stroke="black" points="356.578,-538 356.578,-694 482.578,-694 482.578,-538 356.578,-538"/>
<text text-anchor="middle" x="419.578" y="-682" font-family="Helvetica,sans-Serif" font-size="10.00">UnitInfo</text>
<polyline fill="none" stroke="black" points="356.578,-675 482.578,-675 "/>
<text text-anchor="start" x="364.578" y="-663" font-family="Helvetica,sans-Serif" font-size="10.00">+ buildtime</text>
<text text-anchor="start" x="364.578" y="-652" font-family="Helvetica,sans-Serif" font-size="10.00">+ prefab</text>
<text text-anchor="start" x="364.578" y="-641" font-family="Helvetica,sans-Serif" font-size="10.00">+ attackRange</text>
<text text-anchor="start" x="364.578" y="-630" font-family="Helvetica,sans-Serif" font-size="10.00">+ attackDamage</text>
<text text-anchor="start" x="364.578" y="-619" font-family="Helvetica,sans-Serif" font-size="10.00">+ hitpoints</text>
<text text-anchor="start" x="364.578" y="-608" font-family="Helvetica,sans-Serif" font-size="10.00">+ attackCooldown</text>
<text text-anchor="start" x="364.578" y="-597" font-family="Helvetica,sans-Serif" font-size="10.00">+ moveSpeed</text>
<text text-anchor="start" x="364.578" y="-586" font-family="Helvetica,sans-Serif" font-size="10.00">+ attackSpeed</text>
<text text-anchor="start" x="364.578" y="-575" font-family="Helvetica,sans-Serif" font-size="10.00">+ speedPenaltyOnAttack</text>
<text text-anchor="start" x="364.578" y="-564" font-family="Helvetica,sans-Serif" font-size="10.00">+ carryStrength</text>
<polyline fill="none" stroke="black" points="356.578,-557 482.578,-557 "/>
<text text-anchor="middle" x="419.578" y="-545" font-family="Helvetica,sans-Serif" font-size="10.00"> </text>
</a>
</g>
</g>
<!-- Node8&#45;&gt;Node4 -->
<g id="edge9" class="edge"><title>Node8&#45;&gt;Node4</title>
<path fill="none" stroke="#404040" d="M378.551,-537.821C354.927,-495.893 323.459,-443.984 290.578,-401 277.795,-384.289 263.105,-367.372 248.427,-351.541"/>
<polygon fill="none" stroke="#404040" points="248.016,-351.104 240.993,-349.468 239.801,-342.356 246.824,-343.992 248.016,-351.104"/>
<text text-anchor="middle" x="358.078" y="-438.5" font-family="Helvetica,sans-Serif" font-size="10.00"> +info</text>
</g>
<!-- Node9 -->
<g id="node8" class="node"><title>Node9</title>
<polygon fill="white" stroke="#bfbfbf" points="443.078,-770.5 443.078,-827.5 532.078,-827.5 532.078,-770.5 443.078,-770.5"/>
<text text-anchor="middle" x="487.578" y="-815.5" font-family="Helvetica,sans-Serif" font-size="10.00">ScriptableObject</text>
<polyline fill="none" stroke="#bfbfbf" points="443.078,-808.5 532.078,-808.5 "/>
<text text-anchor="middle" x="487.578" y="-796.5" font-family="Helvetica,sans-Serif" font-size="10.00"> </text>
<polyline fill="none" stroke="#bfbfbf" points="443.078,-789.5 532.078,-789.5 "/>
<text text-anchor="middle" x="487.578" y="-777.5" font-family="Helvetica,sans-Serif" font-size="10.00"> </text>
</g>
<!-- Node9&#45;&gt;Node8 -->
<g id="edge10" class="edge"><title>Node9&#45;&gt;Node8</title>
<path fill="none" stroke="midnightblue" d="M473.508,-760.549C466.289,-741.333 457.217,-717.185 448.584,-694.206"/>
<polygon fill="none" stroke="midnightblue" points="470.309,-761.985 477.102,-770.115 476.862,-759.523 470.309,-761.985"/>
</g>
<!-- Node10 -->
<g id="node9" class="node"><title>Node10</title>
<g id="a_node9"><a xlink:href="class_player.html" target="_top" xlink:title="{Player\n|+ nickName\l+ curPlayerReference\l+ homeBase\l|}">
<polygon fill="white" stroke="black" points="439.578,-401.5 439.578,-480.5 549.578,-480.5 549.578,-401.5 439.578,-401.5"/>
<text text-anchor="middle" x="494.578" y="-468.5" font-family="Helvetica,sans-Serif" font-size="10.00">Player</text>
<polyline fill="none" stroke="black" points="439.578,-461.5 549.578,-461.5 "/>
<text text-anchor="start" x="447.578" y="-449.5" font-family="Helvetica,sans-Serif" font-size="10.00">+ nickName</text>
<text text-anchor="start" x="447.578" y="-438.5" font-family="Helvetica,sans-Serif" font-size="10.00">+ curPlayerReference</text>
<text text-anchor="start" x="447.578" y="-427.5" font-family="Helvetica,sans-Serif" font-size="10.00">+ homeBase</text>
<polyline fill="none" stroke="black" points="439.578,-420.5 549.578,-420.5 "/>
<text text-anchor="middle" x="494.578" y="-408.5" font-family="Helvetica,sans-Serif" font-size="10.00"> </text>
</a>
</g>
</g>
<!-- Node9&#45;&gt;Node10 -->
<g id="edge12" class="edge"><title>Node9&#45;&gt;Node10</title>
<path fill="none" stroke="midnightblue" d="M490.225,-760.326C490.763,-751.373 491.26,-741.852 491.578,-733 494.823,-642.621 494.997,-536.36 494.808,-480.613"/>
<polygon fill="none" stroke="midnightblue" points="486.719,-760.299 489.583,-770.499 493.706,-760.739 486.719,-760.299"/>
</g>
<!-- Node10&#45;&gt;Node2 -->
<g id="edge11" class="edge"><title>Node10&#45;&gt;Node2</title>
<path fill="none" stroke="#404040" d="M461.424,-401.219C405.333,-335.607 291.161,-202.057 222.82,-122.117"/>
<polygon fill="none" stroke="#404040" points="222.518,-121.764 215.578,-119.802 214.72,-112.643 221.659,-114.604 222.518,-121.764"/>
<text text-anchor="middle" x="459.578" y="-269" font-family="Helvetica,sans-Serif" font-size="10.00"> +player</text>
</g>
</g>
</svg>
