<?xml version="1.0" encoding="UTF-8" standalone="no"?>
<!DOCTYPE svg PUBLIC "-//W3C//DTD SVG 1.1//EN"
 "http://www.w3.org/Graphics/SVG/1.1/DTD/svg11.dtd">
<!-- Generated by graphviz version 2.38.0 (20140413.2041)
 -->
<!-- Title: PlayerController Pages: 1 -->
<svg width="220pt" height="343pt"
 viewBox="0.00 0.00 219.50 343.00" xmlns="http://www.w3.org/2000/svg" xmlns:xlink="http://www.w3.org/1999/xlink">
<g id="graph0" class="graph" transform="scale(1 1) rotate(0) translate(4 339)">
<title>PlayerController</title>
<polygon fill="white" stroke="none" points="-4,4 -4,-339 215.5,-339 215.5,4 -4,4"/>
<!-- Node2 -->
<g id="node1" class="node"><title>Node2</title>
<polygon fill="#bfbfbf" stroke="black" points="35.5,-0.5 35.5,-123.5 121.5,-123.5 121.5,-0.5 35.5,-0.5"/>
<text text-anchor="middle" x="78.5" y="-111.5" font-family="Helvetica,sans-Serif" font-size="10.00">PlayerController</text>
<polyline fill="none" stroke="black" points="35.5,-104.5 121.5,-104.5 "/>
<text text-anchor="start" x="43.5" y="-92.5" font-family="Helvetica,sans-Serif" font-size="10.00">+ speed</text>
<text text-anchor="start" x="43.5" y="-81.5" font-family="Helvetica,sans-Serif" font-size="10.00">&#45; animator</text>
<text text-anchor="start" x="43.5" y="-70.5" font-family="Helvetica,sans-Serif" font-size="10.00">&#45; rb</text>
<text text-anchor="start" x="43.5" y="-59.5" font-family="Helvetica,sans-Serif" font-size="10.00">&#45; movement</text>
<text text-anchor="start" x="43.5" y="-48.5" font-family="Helvetica,sans-Serif" font-size="10.00">&#45; pv</text>
<polyline fill="none" stroke="black" points="35.5,-41.5 121.5,-41.5 "/>
<text text-anchor="start" x="43.5" y="-29.5" font-family="Helvetica,sans-Serif" font-size="10.00">&#45; Awake()</text>
<text text-anchor="start" x="43.5" y="-18.5" font-family="Helvetica,sans-Serif" font-size="10.00">&#45; Update()</text>
<text text-anchor="start" x="43.5" y="-7.5" font-family="Helvetica,sans-Serif" font-size="10.00">&#45; FixedUpdate()</text>
</g>
<!-- Node3 -->
<g id="node2" class="node"><title>Node3</title>
<polygon fill="white" stroke="#bfbfbf" points="0,-177 0,-234 83,-234 83,-177 0,-177"/>
<text text-anchor="middle" x="41.5" y="-222" font-family="Helvetica,sans-Serif" font-size="10.00">MonoBehaviour</text>
<polyline fill="none" stroke="#bfbfbf" points="0,-215 83,-215 "/>
<text text-anchor="middle" x="41.5" y="-203" font-family="Helvetica,sans-Serif" font-size="10.00"> </text>
<polyline fill="none" stroke="#bfbfbf" points="0,-196 83,-196 "/>
<text text-anchor="middle" x="41.5" y="-184" font-family="Helvetica,sans-Serif" font-size="10.00"> </text>
</g>
<!-- Node3&#45;&gt;Node2 -->
<g id="edge1" class="edge"><title>Node3&#45;&gt;Node2</title>
<path fill="none" stroke="midnightblue" d="M51.2715,-167.131C54.7574,-153.799 58.7798,-138.416 62.6449,-123.635"/>
<polygon fill="none" stroke="midnightblue" points="47.8655,-166.321 48.7218,-176.881 54.6378,-168.092 47.8655,-166.321"/>
</g>
<!-- Node4 -->
<g id="node3" class="node"><title>Node4</title>
<g id="a_node3"><a xlink:href="class_player.html" target="_top" xlink:title="{Player\n|+ nickName\l+ curPlayerReference\l|}">
<polygon fill="white" stroke="black" points="101.5,-171.5 101.5,-239.5 211.5,-239.5 211.5,-171.5 101.5,-171.5"/>
<text text-anchor="middle" x="156.5" y="-227.5" font-family="Helvetica,sans-Serif" font-size="10.00">Player</text>
<polyline fill="none" stroke="black" points="101.5,-220.5 211.5,-220.5 "/>
<text text-anchor="start" x="109.5" y="-208.5" font-family="Helvetica,sans-Serif" font-size="10.00">+ nickName</text>
<text text-anchor="start" x="109.5" y="-197.5" font-family="Helvetica,sans-Serif" font-size="10.00">+ curPlayerReference</text>
<polyline fill="none" stroke="black" points="101.5,-190.5 211.5,-190.5 "/>
<text text-anchor="middle" x="156.5" y="-178.5" font-family="Helvetica,sans-Serif" font-size="10.00"> </text>
</a>
</g>
</g>
<!-- Node4&#45;&gt;Node2 -->
<g id="edge2" class="edge"><title>Node4&#45;&gt;Node2</title>
<path fill="none" stroke="#404040" d="M138.212,-171.325C132.091,-160.22 125.011,-147.377 117.913,-134.5"/>
<polygon fill="none" stroke="#404040" points="117.76,-134.222 111.361,-130.898 111.967,-123.713 118.367,-127.036 117.76,-134.222"/>
<text text-anchor="middle" x="144.5" y="-145" font-family="Helvetica,sans-Serif" font-size="10.00"> +player</text>
</g>
<!-- Node5 -->
<g id="node4" class="node"><title>Node5</title>
<polygon fill="white" stroke="#bfbfbf" points="112,-277.5 112,-334.5 201,-334.5 201,-277.5 112,-277.5"/>
<text text-anchor="middle" x="156.5" y="-322.5" font-family="Helvetica,sans-Serif" font-size="10.00">ScriptableObject</text>
<polyline fill="none" stroke="#bfbfbf" points="112,-315.5 201,-315.5 "/>
<text text-anchor="middle" x="156.5" y="-303.5" font-family="Helvetica,sans-Serif" font-size="10.00"> </text>
<polyline fill="none" stroke="#bfbfbf" points="112,-296.5 201,-296.5 "/>
<text text-anchor="middle" x="156.5" y="-284.5" font-family="Helvetica,sans-Serif" font-size="10.00"> </text>
</g>
<!-- Node5&#45;&gt;Node4 -->
<g id="edge3" class="edge"><title>Node5&#45;&gt;Node4</title>
<path fill="none" stroke="midnightblue" d="M156.5,-267.007C156.5,-257.962 156.5,-248.383 156.5,-239.578"/>
<polygon fill="none" stroke="midnightblue" points="153,-267.3 156.5,-277.3 160,-267.3 153,-267.3"/>
</g>
</g>
</svg>
