<?xml version="1.0" encoding="UTF-8" standalone="no"?>
<!DOCTYPE svg PUBLIC "-//W3C//DTD SVG 1.1//EN"
 "http://www.w3.org/Graphics/SVG/1.1/DTD/svg11.dtd">
<!-- Generated by graphviz version 2.38.0 (20140413.2041)
 -->
<!-- Title: Unit Pages: 1 -->
<svg width="97pt" height="171pt"
 viewBox="0.00 0.00 97.00 171.00" xmlns="http://www.w3.org/2000/svg" xmlns:xlink="http://www.w3.org/1999/xlink">
<g id="graph0" class="graph" transform="scale(1 1) rotate(0) translate(4 167)">
<title>Unit</title>
<polygon fill="white" stroke="none" points="-4,4 -4,-167 93,-167 93,4 -4,4"/>
<!-- Node2 -->
<g id="node1" class="node"><title>Node2</title>
<polygon fill="#bfbfbf" stroke="black" points="12,-0.5 12,-68.5 77,-68.5 77,-0.5 12,-0.5"/>
<text text-anchor="middle" x="44.5" y="-56.5" font-family="Helvetica,sans-Serif" font-size="10.00">Unit</text>
<polyline fill="none" stroke="black" points="12,-49.5 77,-49.5 "/>
<text text-anchor="start" x="20" y="-37.5" font-family="Helvetica,sans-Serif" font-size="10.00">+ buildtime</text>
<text text-anchor="start" x="20" y="-26.5" font-family="Helvetica,sans-Serif" font-size="10.00">+ prefab</text>
<polyline fill="none" stroke="black" points="12,-19.5 77,-19.5 "/>
<text text-anchor="middle" x="44.5" y="-7.5" font-family="Helvetica,sans-Serif" font-size="10.00"> </text>
</g>
<!-- Node3 -->
<g id="node2" class="node"><title>Node3</title>
<polygon fill="white" stroke="#bfbfbf" points="0,-105.5 0,-162.5 89,-162.5 89,-105.5 0,-105.5"/>
<text text-anchor="middle" x="44.5" y="-150.5" font-family="Helvetica,sans-Serif" font-size="10.00">ScriptableObject</text>
<polyline fill="none" stroke="#bfbfbf" points="0,-143.5 89,-143.5 "/>
<text text-anchor="middle" x="44.5" y="-131.5" font-family="Helvetica,sans-Serif" font-size="10.00"> </text>
<polyline fill="none" stroke="#bfbfbf" points="0,-124.5 89,-124.5 "/>
<text text-anchor="middle" x="44.5" y="-112.5" font-family="Helvetica,sans-Serif" font-size="10.00"> </text>
</g>
<!-- Node3&#45;&gt;Node2 -->
<g id="edge1" class="edge"><title>Node3&#45;&gt;Node2</title>
<path fill="none" stroke="midnightblue" d="M44.5,-95.0631C44.5,-86.3933 44.5,-77.2431 44.5,-68.7855"/>
<polygon fill="none" stroke="midnightblue" points="41.0001,-95.3212 44.5,-105.321 48.0001,-95.3212 41.0001,-95.3212"/>
</g>
</g>
</svg>
