<?xml version="1.0" encoding="UTF-8" standalone="no"?>
<!DOCTYPE svg PUBLIC "-//W3C//DTD SVG 1.1//EN"
 "http://www.w3.org/Graphics/SVG/1.1/DTD/svg11.dtd">
<!-- Generated by graphviz version 2.38.0 (20140413.2041)
 -->
<!-- Title: SettingsMenu Pages: 1 -->
<svg width="91pt" height="160pt"
 viewBox="0.00 0.00 91.00 160.00" xmlns="http://www.w3.org/2000/svg" xmlns:xlink="http://www.w3.org/1999/xlink">
<g id="graph0" class="graph" transform="scale(1 1) rotate(0) translate(4 156)">
<title>SettingsMenu</title>
<polygon fill="white" stroke="none" points="-4,4 -4,-156 87,-156 87,4 -4,4"/>
<!-- Node2 -->
<g id="node1" class="node"><title>Node2</title>
<polygon fill="#bfbfbf" stroke="black" points="1.5,-0.5 1.5,-57.5 81.5,-57.5 81.5,-0.5 1.5,-0.5"/>
<text text-anchor="middle" x="41.5" y="-45.5" font-family="Helvetica,sans-Serif" font-size="10.00">SettingsMenu</text>
<polyline fill="none" stroke="black" points="1.5,-38.5 81.5,-38.5 "/>
<text text-anchor="start" x="9.5" y="-26.5" font-family="Helvetica,sans-Serif" font-size="10.00">+ audioMixer</text>
<polyline fill="none" stroke="black" points="1.5,-19.5 81.5,-19.5 "/>
<text text-anchor="start" x="9.5" y="-7.5" font-family="Helvetica,sans-Serif" font-size="10.00">+ SetVolume()</text>
</g>
<!-- Node3 -->
<g id="node2" class="node"><title>Node3</title>
<polygon fill="white" stroke="#bfbfbf" points="0,-94.5 0,-151.5 83,-151.5 83,-94.5 0,-94.5"/>
<text text-anchor="middle" x="41.5" y="-139.5" font-family="Helvetica,sans-Serif" font-size="10.00">MonoBehaviour</text>
<polyline fill="none" stroke="#bfbfbf" points="0,-132.5 83,-132.5 "/>
<text text-anchor="middle" x="41.5" y="-120.5" font-family="Helvetica,sans-Serif" font-size="10.00"> </text>
<polyline fill="none" stroke="#bfbfbf" points="0,-113.5 83,-113.5 "/>
<text text-anchor="middle" x="41.5" y="-101.5" font-family="Helvetica,sans-Serif" font-size="10.00"> </text>
</g>
<!-- Node3&#45;&gt;Node2 -->
<g id="edge1" class="edge"><title>Node3&#45;&gt;Node2</title>
<path fill="none" stroke="midnightblue" d="M41.5,-84.2092C41.5,-75.2929 41.5,-65.9513 41.5,-57.5836"/>
<polygon fill="none" stroke="midnightblue" points="38.0001,-84.3969 41.5,-94.397 45.0001,-84.397 38.0001,-84.3969"/>
</g>
</g>
</svg>
