<?xml version="1.0" encoding="UTF-8" standalone="no"?>
<!DOCTYPE svg PUBLIC "-//W3C//DTD SVG 1.1//EN"
 "http://www.w3.org/Graphics/SVG/1.1/DTD/svg11.dtd">
<!-- Generated by graphviz version 2.38.0 (20140413.2041)
 -->
<!-- Title: HomebaseMenu Pages: 1 -->
<svg width="196pt" height="420pt"
 viewBox="0.00 0.00 195.50 420.00" xmlns="http://www.w3.org/2000/svg" xmlns:xlink="http://www.w3.org/1999/xlink">
<g id="graph0" class="graph" transform="scale(1 1) rotate(0) translate(4 416)">
<title>HomebaseMenu</title>
<polygon fill="white" stroke="none" points="-4,4 -4,-416 191.5,-416 191.5,4 -4,4"/>
<!-- Node2 -->
<g id="node1" class="node"><title>Node2</title>
<polygon fill="#bfbfbf" stroke="black" points="0,-0.5 0,-200.5 101,-200.5 101,-0.5 0,-0.5"/>
<text text-anchor="middle" x="50.5" y="-188.5" font-family="Helvetica,sans-Serif" font-size="10.00">HomebaseMenu</text>
<polyline fill="none" stroke="black" points="0,-181.5 101,-181.5 "/>
<text text-anchor="start" x="8" y="-169.5" font-family="Helvetica,sans-Serif" font-size="10.00">+ progressSlider</text>
<text text-anchor="start" x="8" y="-158.5" font-family="Helvetica,sans-Serif" font-size="10.00">+ timeWait</text>
<text text-anchor="start" x="8" y="-147.5" font-family="Helvetica,sans-Serif" font-size="10.00">+ priceItem</text>
<text text-anchor="start" x="8" y="-136.5" font-family="Helvetica,sans-Serif" font-size="10.00">+ countTextTMPUI</text>
<text text-anchor="start" x="8" y="-125.5" font-family="Helvetica,sans-Serif" font-size="10.00">+ priceTextTMPUI</text>
<text text-anchor="start" x="8" y="-114.5" font-family="Helvetica,sans-Serif" font-size="10.00">&#45; validPurchase</text>
<text text-anchor="start" x="8" y="-103.5" font-family="Helvetica,sans-Serif" font-size="10.00">&#45; count</text>
<text text-anchor="start" x="8" y="-92.5" font-family="Helvetica,sans-Serif" font-size="10.00">&#45; fixedTimeWait</text>
<text text-anchor="start" x="8" y="-81.5" font-family="Helvetica,sans-Serif" font-size="10.00">&#45; coins</text>
<polyline fill="none" stroke="black" points="0,-74.5 101,-74.5 "/>
<text text-anchor="start" x="8" y="-62.5" font-family="Helvetica,sans-Serif" font-size="10.00">+ countOnClick()</text>
<text text-anchor="start" x="8" y="-51.5" font-family="Helvetica,sans-Serif" font-size="10.00">&#45; Start()</text>
<text text-anchor="start" x="8" y="-40.5" font-family="Helvetica,sans-Serif" font-size="10.00">&#45; setVariablesItem()</text>
<text text-anchor="start" x="8" y="-29.5" font-family="Helvetica,sans-Serif" font-size="10.00">&#45; Update()</text>
<text text-anchor="start" x="8" y="-18.5" font-family="Helvetica,sans-Serif" font-size="10.00">&#45; runUpdateItem()</text>
<text text-anchor="start" x="8" y="-7.5" font-family="Helvetica,sans-Serif" font-size="10.00">&#45; spawnItem()</text>
</g>
<!-- Node3 -->
<g id="node2" class="node"><title>Node3</title>
<polygon fill="white" stroke="#bfbfbf" points="21,-354.5 21,-411.5 104,-411.5 104,-354.5 21,-354.5"/>
<text text-anchor="middle" x="62.5" y="-399.5" font-family="Helvetica,sans-Serif" font-size="10.00">MonoBehaviour</text>
<polyline fill="none" stroke="#bfbfbf" points="21,-392.5 104,-392.5 "/>
<text text-anchor="middle" x="62.5" y="-380.5" font-family="Helvetica,sans-Serif" font-size="10.00"> </text>
<polyline fill="none" stroke="#bfbfbf" points="21,-373.5 104,-373.5 "/>
<text text-anchor="middle" x="62.5" y="-361.5" font-family="Helvetica,sans-Serif" font-size="10.00"> </text>
</g>
<!-- Node3&#45;&gt;Node2 -->
<g id="edge1" class="edge"><title>Node3&#45;&gt;Node2</title>
<path fill="none" stroke="midnightblue" d="M56.4554,-344.148C55.2602,-335.265 54.1693,-325.818 53.5,-317 50.6187,-279.038 49.5539,-237.209 49.3168,-200.584"/>
<polygon fill="none" stroke="midnightblue" points="53.018,-344.837 57.8876,-354.246 59.9487,-343.854 53.018,-344.837"/>
</g>
<!-- Node4 -->
<g id="node3" class="node"><title>Node4</title>
<g id="a_node3"><a xlink:href="class_main_game_overlay.html" target="_top" xlink:title="{MainGameOverlay\n|+ coins\l+ coinsValueTextTMPUI\l|&#45; Update()\l}">
<polygon fill="white" stroke="black" points="62.5,-248.5 62.5,-316.5 184.5,-316.5 184.5,-248.5 62.5,-248.5"/>
<text text-anchor="middle" x="123.5" y="-304.5" font-family="Helvetica,sans-Serif" font-size="10.00">MainGameOverlay</text>
<polyline fill="none" stroke="black" points="62.5,-297.5 184.5,-297.5 "/>
<text text-anchor="start" x="70.5" y="-285.5" font-family="Helvetica,sans-Serif" font-size="10.00">+ coins</text>
<text text-anchor="start" x="70.5" y="-274.5" font-family="Helvetica,sans-Serif" font-size="10.00">+ coinsValueTextTMPUI</text>
<polyline fill="none" stroke="black" points="62.5,-267.5 184.5,-267.5 "/>
<text text-anchor="start" x="70.5" y="-255.5" font-family="Helvetica,sans-Serif" font-size="10.00">&#45; Update()</text>
</a>
</g>
</g>
<!-- Node3&#45;&gt;Node4 -->
<g id="edge3" class="edge"><title>Node3&#45;&gt;Node4</title>
<path fill="none" stroke="midnightblue" d="M84.9373,-345.769C90.854,-336.215 97.207,-325.957 103.015,-316.578"/>
<polygon fill="none" stroke="midnightblue" points="81.9437,-343.956 79.6542,-354.3 87.8949,-347.641 81.9437,-343.956"/>
</g>
<!-- Node4&#45;&gt;Node2 -->
<g id="edge2" class="edge"><title>Node4&#45;&gt;Node2</title>
<path fill="none" stroke="#404040" d="M110.111,-248.485C105.737,-237.702 100.612,-225.064 95.2351,-211.806"/>
<polygon fill="none" stroke="#404040" points="95.1803,-211.67 89.2185,-207.614 90.6703,-200.55 96.6321,-204.607 95.1803,-211.67"/>
<text text-anchor="middle" x="144.5" y="-222" font-family="Helvetica,sans-Serif" font-size="10.00"> &#45;mainGameOverlay</text>
</g>
</g>
</svg>
