<?xml version="1.0" encoding="UTF-8" standalone="no"?>
<!DOCTYPE svg PUBLIC "-//W3C//DTD SVG 1.1//EN"
 "http://www.w3.org/Graphics/SVG/1.1/DTD/svg11.dtd">
<!-- Generated by graphviz version 2.38.0 (20140413.2041)
 -->
<!-- Title: GatherTargetSelector Pages: 1 -->
<svg width="400pt" height="569pt"
 viewBox="0.00 0.00 399.50 569.00" xmlns="http://www.w3.org/2000/svg" xmlns:xlink="http://www.w3.org/1999/xlink">
<g id="graph0" class="graph" transform="scale(1 1) rotate(0) translate(4 565)">
<title>GatherTargetSelector</title>
<polygon fill="white" stroke="none" points="-4,4 -4,-565 395.5,-565 395.5,4 -4,4"/>
<!-- Node1 -->
<g id="node1" class="node"><title>Node1</title>
<polygon fill="#bfbfbf" stroke="black" points="61,-0.5 61,-123.5 234,-123.5 234,-0.5 61,-0.5"/>
<text text-anchor="middle" x="147.5" y="-111.5" font-family="Helvetica,sans-Serif" font-size="10.00">GatherTargetSelector</text>
<polyline fill="none" stroke="black" points="61,-104.5 234,-104.5 "/>
<text text-anchor="middle" x="147.5" y="-92.5" font-family="Helvetica,sans-Serif" font-size="10.00"> </text>
<polyline fill="none" stroke="black" points="61,-85.5 234,-85.5 "/>
<text text-anchor="start" x="69" y="-73.5" font-family="Helvetica,sans-Serif" font-size="10.00">+ Search()</text>
<text text-anchor="start" x="69" y="-62.5" font-family="Helvetica,sans-Serif" font-size="10.00">&#45; GetFoodInRangeAndCarryable()</text>
<text text-anchor="start" x="69" y="-51.5" font-family="Helvetica,sans-Serif" font-size="10.00">&#45; SelectOnlyFoodWithLeastStrength</text>
<text text-anchor="start" x="69" y="-40.5" font-family="Helvetica,sans-Serif" font-size="10.00">Missing()</text>
<text text-anchor="start" x="69" y="-29.5" font-family="Helvetica,sans-Serif" font-size="10.00">&#45; SelectOnlyFoodWithHighest</text>
<text text-anchor="start" x="69" y="-18.5" font-family="Helvetica,sans-Serif" font-size="10.00">Value()</text>
<text text-anchor="start" x="69" y="-7.5" font-family="Helvetica,sans-Serif" font-size="10.00">&#45; GetClosestFood()</text>
</g>
<!-- Node2 -->
<g id="node2" class="node"><title>Node2</title>
<g id="a_node2"><a xlink:href="class_game_settings.html" target="_top" xlink:title="Wraps game&#45;wide settings into one asset, modifyable from the editor. ">
<polygon fill="white" stroke="black" points="0,-226.5 0,-305.5 129,-305.5 129,-226.5 0,-226.5"/>
<text text-anchor="middle" x="64.5" y="-293.5" font-family="Helvetica,sans-Serif" font-size="10.00">GameSettings</text>
<polyline fill="none" stroke="black" points="0,-286.5 129,-286.5 "/>
<text text-anchor="start" x="8" y="-274.5" font-family="Helvetica,sans-Serif" font-size="10.00">+ unitGuardRange</text>
<text text-anchor="start" x="8" y="-263.5" font-family="Helvetica,sans-Serif" font-size="10.00">+ unitTargetLostRange</text>
<text text-anchor="start" x="8" y="-252.5" font-family="Helvetica,sans-Serif" font-size="10.00">+ unitTargetUpdateInterval</text>
<polyline fill="none" stroke="black" points="0,-245.5 129,-245.5 "/>
<text text-anchor="middle" x="64.5" y="-233.5" font-family="Helvetica,sans-Serif" font-size="10.00"> </text>
</a>
</g>
</g>
<!-- Node2&#45;&gt;Node1 -->
<g id="edge1" class="edge"><title>Node2&#45;&gt;Node1</title>
<path fill="none" stroke="#404040" d="M80.5032,-226.052C91.1178,-200.219 105.366,-165.544 117.993,-134.812"/>
<polygon fill="none" stroke="#404040" points="118.001,-134.792 116.582,-127.722 122.562,-123.692 123.982,-130.762 118.001,-134.792"/>
<text text-anchor="middle" x="134.5" y="-145" font-family="Helvetica,sans-Serif" font-size="10.00"> +settings</text>
</g>
<!-- Node3 -->
<g id="node3" class="node"><title>Node3</title>
<polygon fill="white" stroke="#bfbfbf" points="20,-408.5 20,-465.5 109,-465.5 109,-408.5 20,-408.5"/>
<text text-anchor="middle" x="64.5" y="-453.5" font-family="Helvetica,sans-Serif" font-size="10.00">ScriptableObject</text>
<polyline fill="none" stroke="#bfbfbf" points="20,-446.5 109,-446.5 "/>
<text text-anchor="middle" x="64.5" y="-434.5" font-family="Helvetica,sans-Serif" font-size="10.00"> </text>
<polyline fill="none" stroke="#bfbfbf" points="20,-427.5 109,-427.5 "/>
<text text-anchor="middle" x="64.5" y="-415.5" font-family="Helvetica,sans-Serif" font-size="10.00"> </text>
</g>
<!-- Node3&#45;&gt;Node2 -->
<g id="edge2" class="edge"><title>Node3&#45;&gt;Node2</title>
<path fill="none" stroke="midnightblue" d="M64.5,-398.407C64.5,-370.794 64.5,-333.399 64.5,-305.561"/>
<polygon fill="none" stroke="midnightblue" points="61.0001,-398.471 64.5,-408.471 68.0001,-398.471 61.0001,-398.471"/>
</g>
<!-- Node4 -->
<g id="node4" class="node"><title>Node4</title>
<g id="a_node4"><a xlink:href="classmechanics_1_1_food.html" target="_top" xlink:title="{Food\n|+ value\l+ weight\l+ totalStrengthNeeded\l+ curCarryStrength\l+ carrySlots\l+ destReachedEvent\l&#45; carriers\l|+ ReserveCarry()\l+ PickUp()\l+ Drop()\l+ HasFreeCarrySlot()\l+ IsFirstCarrier()\l+ GetCarrySpeedFactor()\l&#45; UpdateCarryStrengthBy()\l}">
<polygon fill="white" stroke="black" points="147,-171.5 147,-360.5 278,-360.5 278,-171.5 147,-171.5"/>
<text text-anchor="middle" x="212.5" y="-348.5" font-family="Helvetica,sans-Serif" font-size="10.00">Food</text>
<polyline fill="none" stroke="black" points="147,-341.5 278,-341.5 "/>
<text text-anchor="start" x="155" y="-329.5" font-family="Helvetica,sans-Serif" font-size="10.00">+ value</text>
<text text-anchor="start" x="155" y="-318.5" font-family="Helvetica,sans-Serif" font-size="10.00">+ weight</text>
<text text-anchor="start" x="155" y="-307.5" font-family="Helvetica,sans-Serif" font-size="10.00">+ totalStrengthNeeded</text>
<text text-anchor="start" x="155" y="-296.5" font-family="Helvetica,sans-Serif" font-size="10.00">+ curCarryStrength</text>
<text text-anchor="start" x="155" y="-285.5" font-family="Helvetica,sans-Serif" font-size="10.00">+ carrySlots</text>
<text text-anchor="start" x="155" y="-274.5" font-family="Helvetica,sans-Serif" font-size="10.00">+ destReachedEvent</text>
<text text-anchor="start" x="155" y="-263.5" font-family="Helvetica,sans-Serif" font-size="10.00">&#45; carriers</text>
<polyline fill="none" stroke="black" points="147,-256.5 278,-256.5 "/>
<text text-anchor="start" x="155" y="-244.5" font-family="Helvetica,sans-Serif" font-size="10.00">+ ReserveCarry()</text>
<text text-anchor="start" x="155" y="-233.5" font-family="Helvetica,sans-Serif" font-size="10.00">+ PickUp()</text>
<text text-anchor="start" x="155" y="-222.5" font-family="Helvetica,sans-Serif" font-size="10.00">+ Drop()</text>
<text text-anchor="start" x="155" y="-211.5" font-family="Helvetica,sans-Serif" font-size="10.00">+ HasFreeCarrySlot()</text>
<text text-anchor="start" x="155" y="-200.5" font-family="Helvetica,sans-Serif" font-size="10.00">+ IsFirstCarrier()</text>
<text text-anchor="start" x="155" y="-189.5" font-family="Helvetica,sans-Serif" font-size="10.00">+ GetCarrySpeedFactor()</text>
<text text-anchor="start" x="155" y="-178.5" font-family="Helvetica,sans-Serif" font-size="10.00">&#45; UpdateCarryStrengthBy()</text>
</a>
</g>
</g>
<!-- Node4&#45;&gt;Node1 -->
<g id="edge3" class="edge"><title>Node4&#45;&gt;Node1</title>
<path fill="none" stroke="#404040" d="M182.378,-171.392C178.468,-159.24 174.512,-146.944 170.737,-135.214"/>
<polygon fill="none" stroke="#404040" points="170.707,-135.121 165.062,-130.635 167.032,-123.698 172.677,-128.184 170.707,-135.121"/>
<text text-anchor="middle" x="216.5" y="-145" font-family="Helvetica,sans-Serif" font-size="10.00"> +curTargetedFood</text>
</g>
<!-- Node5 -->
<g id="node5" class="node"><title>Node5</title>
<polygon fill="white" stroke="#bfbfbf" points="152,-408.5 152,-465.5 235,-465.5 235,-408.5 152,-408.5"/>
<text text-anchor="middle" x="193.5" y="-453.5" font-family="Helvetica,sans-Serif" font-size="10.00">MonoBehaviour</text>
<polyline fill="none" stroke="#bfbfbf" points="152,-446.5 235,-446.5 "/>
<text text-anchor="middle" x="193.5" y="-434.5" font-family="Helvetica,sans-Serif" font-size="10.00"> </text>
<polyline fill="none" stroke="#bfbfbf" points="152,-427.5 235,-427.5 "/>
<text text-anchor="middle" x="193.5" y="-415.5" font-family="Helvetica,sans-Serif" font-size="10.00"> </text>
</g>
<!-- Node5&#45;&gt;Node4 -->
<g id="edge4" class="edge"><title>Node5&#45;&gt;Node4</title>
<path fill="none" stroke="midnightblue" d="M197.714,-398.518C198.995,-387.127 200.463,-374.062 201.967,-360.687"/>
<polygon fill="none" stroke="midnightblue" points="194.234,-398.143 196.595,-408.471 201.19,-398.925 194.234,-398.143"/>
</g>
<!-- Node6 -->
<g id="node6" class="node"><title>Node6</title>
<g id="a_node6"><a xlink:href="class_unity_float_event.html" target="_top" xlink:title="{UnityFloatEvent\n||}">
<polygon fill="white" stroke="black" points="253,-408.5 253,-465.5 338,-465.5 338,-408.5 253,-408.5"/>
<text text-anchor="middle" x="295.5" y="-453.5" font-family="Helvetica,sans-Serif" font-size="10.00">UnityFloatEvent</text>
<polyline fill="none" stroke="black" points="253,-446.5 338,-446.5 "/>
<text text-anchor="middle" x="295.5" y="-434.5" font-family="Helvetica,sans-Serif" font-size="10.00"> </text>
<polyline fill="none" stroke="black" points="253,-427.5 338,-427.5 "/>
<text text-anchor="middle" x="295.5" y="-415.5" font-family="Helvetica,sans-Serif" font-size="10.00"> </text>
</a>
</g>
</g>
<!-- Node6&#45;&gt;Node4 -->
<g id="edge5" class="edge"><title>Node6&#45;&gt;Node4</title>
<path fill="none" stroke="#404040" d="M281.98,-408.471C276.797,-397.917 270.524,-385.144 263.893,-371.643"/>
<polygon fill="none" stroke="#404040" points="263.802,-371.458 257.567,-367.836 258.512,-360.687 264.747,-364.309 263.802,-371.458"/>
<text text-anchor="middle" x="331" y="-382" font-family="Helvetica,sans-Serif" font-size="10.00"> +speedFactorChangeEvent</text>
</g>
<!-- Node7 -->
<g id="node7" class="node"><title>Node7</title>
<polygon fill="white" stroke="#bfbfbf" points="246,-503.5 246,-560.5 345,-560.5 345,-503.5 246,-503.5"/>
<text text-anchor="middle" x="295.5" y="-548.5" font-family="Helvetica,sans-Serif" font-size="10.00">UnityEvent&lt; float &gt;</text>
<polyline fill="none" stroke="#bfbfbf" points="246,-541.5 345,-541.5 "/>
<text text-anchor="middle" x="295.5" y="-529.5" font-family="Helvetica,sans-Serif" font-size="10.00"> </text>
<polyline fill="none" stroke="#bfbfbf" points="246,-522.5 345,-522.5 "/>
<text text-anchor="middle" x="295.5" y="-510.5" font-family="Helvetica,sans-Serif" font-size="10.00"> </text>
</g>
<!-- Node7&#45;&gt;Node6 -->
<g id="edge6" class="edge"><title>Node7&#45;&gt;Node6</title>
<path fill="none" stroke="midnightblue" d="M295.5,-493.235C295.5,-484.028 295.5,-474.346 295.5,-465.705"/>
<polygon fill="none" stroke="midnightblue" points="292,-493.349 295.5,-503.349 299,-493.349 292,-493.349"/>
</g>
</g>
</svg>
