<?xml version="1.0" encoding="UTF-8" standalone="no"?>
<!DOCTYPE svg PUBLIC "-//W3C//DTD SVG 1.1//EN"
 "http://www.w3.org/Graphics/SVG/1.1/DTD/svg11.dtd">
<!-- Generated by graphviz version 2.38.0 (20140413.2041)
 -->
<!-- Title: UnitAiStateMachine Pages: 1 -->
<svg width="922pt" height="1191pt"
 viewBox="0.00 0.00 922.01 1191.00" xmlns="http://www.w3.org/2000/svg" xmlns:xlink="http://www.w3.org/1999/xlink">
<g id="graph0" class="graph" transform="scale(1 1) rotate(0) translate(4 1187)">
<title>UnitAiStateMachine</title>
<polygon fill="white" stroke="none" points="-4,4 -4,-1187 918.014,-1187 918.014,4 -4,4"/>
<!-- Node3 -->
<g id="node1" class="node"><title>Node3</title>
<polygon fill="#bfbfbf" stroke="black" points="329.514,-0.5 329.514,-167.5 470.514,-167.5 470.514,-0.5 329.514,-0.5"/>
<text text-anchor="middle" x="400.014" y="-155.5" font-family="Helvetica,sans-Serif" font-size="10.00">UnitAiStateMachine</text>
<polyline fill="none" stroke="black" points="329.514,-148.5 470.514,-148.5 "/>
<text text-anchor="start" x="337.514" y="-136.5" font-family="Helvetica,sans-Serif" font-size="10.00">+ dynamicMoveTarget</text>
<text text-anchor="start" x="337.514" y="-125.5" font-family="Helvetica,sans-Serif" font-size="10.00">+ staticMoveTarget</text>
<polyline fill="none" stroke="black" points="329.514,-118.5 470.514,-118.5 "/>
<text text-anchor="start" x="337.514" y="-106.5" font-family="Helvetica,sans-Serif" font-size="10.00">+ AttackOrderOn()</text>
<text text-anchor="start" x="337.514" y="-95.5" font-family="Helvetica,sans-Serif" font-size="10.00">+ AssistOrderOn()</text>
<text text-anchor="start" x="337.514" y="-84.5" font-family="Helvetica,sans-Serif" font-size="10.00">+ MoveOrderTo()</text>
<text text-anchor="start" x="337.514" y="-73.5" font-family="Helvetica,sans-Serif" font-size="10.00">+ AttackMoveOrderTo()</text>
<text text-anchor="start" x="337.514" y="-62.5" font-family="Helvetica,sans-Serif" font-size="10.00">+ GatherOrderOn()</text>
<text text-anchor="start" x="337.514" y="-51.5" font-family="Helvetica,sans-Serif" font-size="10.00">+ SetFollowTarget()</text>
<text text-anchor="start" x="337.514" y="-40.5" font-family="Helvetica,sans-Serif" font-size="10.00">+ SetTargetPosition()</text>
<text text-anchor="start" x="337.514" y="-29.5" font-family="Helvetica,sans-Serif" font-size="10.00">+ SetTargetPosition()</text>
<text text-anchor="start" x="337.514" y="-18.5" font-family="Helvetica,sans-Serif" font-size="10.00">+ TryToSetAsPickUpTarget()</text>
<text text-anchor="start" x="337.514" y="-7.5" font-family="Helvetica,sans-Serif" font-size="10.00"># MyAwake()</text>
</g>
<!-- Node4 -->
<g id="node2" class="node"><title>Node4</title>
<g id="a_node2"><a xlink:href="class_state_machine.html" target="_top" xlink:title="Common Base class for all state machines. ">
<polygon fill="white" stroke="black" points="659.014,-298 659.014,-454 789.014,-454 789.014,-298 659.014,-298"/>
<text text-anchor="middle" x="724.014" y="-442" font-family="Helvetica,sans-Serif" font-size="10.00">StateMachine</text>
<polyline fill="none" stroke="black" points="659.014,-435 789.014,-435 "/>
<text text-anchor="start" x="667.014" y="-423" font-family="Helvetica,sans-Serif" font-size="10.00">+ logEnabled</text>
<text text-anchor="start" x="667.014" y="-412" font-family="Helvetica,sans-Serif" font-size="10.00">+ globalValidTriggers</text>
<text text-anchor="start" x="667.014" y="-401" font-family="Helvetica,sans-Serif" font-size="10.00"># controller</text>
<text text-anchor="start" x="667.014" y="-390" font-family="Helvetica,sans-Serif" font-size="10.00">&#45; states</text>
<polyline fill="none" stroke="black" points="659.014,-383 789.014,-383 "/>
<text text-anchor="start" x="667.014" y="-371" font-family="Helvetica,sans-Serif" font-size="10.00">+ GetActiveState()</text>
<text text-anchor="start" x="667.014" y="-360" font-family="Helvetica,sans-Serif" font-size="10.00">+ TriggerTransition()</text>
<text text-anchor="start" x="667.014" y="-349" font-family="Helvetica,sans-Serif" font-size="10.00">+ TriggerTransition()</text>
<text text-anchor="start" x="667.014" y="-338" font-family="Helvetica,sans-Serif" font-size="10.00">+ TriggerTransition()</text>
<text text-anchor="start" x="667.014" y="-327" font-family="Helvetica,sans-Serif" font-size="10.00">+ AnnounceCurrentState()</text>
<text text-anchor="start" x="667.014" y="-316" font-family="Helvetica,sans-Serif" font-size="10.00"># MyAwake()</text>
<text text-anchor="start" x="667.014" y="-305" font-family="Helvetica,sans-Serif" font-size="10.00">&#45; Awake()</text>
</a>
</g>
</g>
<!-- Node4&#45;&gt;Node3 -->
<g id="edge1" class="edge"><title>Node4&#45;&gt;Node3</title>
<path fill="none" stroke="midnightblue" d="M660.78,-290.013C639.936,-264.55 615.728,-237.451 591.014,-215 554.198,-181.556 508.235,-150.01 470.624,-126.371"/>
<polygon fill="none" stroke="midnightblue" points="658.121,-292.291 667.137,-297.856 663.559,-287.883 658.121,-292.291"/>
</g>
<!-- Node5 -->
<g id="node3" class="node"><title>Node5</title>
<polygon fill="white" stroke="#bfbfbf" points="268.514,-1125.5 268.514,-1182.5 351.514,-1182.5 351.514,-1125.5 268.514,-1125.5"/>
<text text-anchor="middle" x="310.014" y="-1170.5" font-family="Helvetica,sans-Serif" font-size="10.00">MonoBehaviour</text>
<polyline fill="none" stroke="#bfbfbf" points="268.514,-1163.5 351.514,-1163.5 "/>
<text text-anchor="middle" x="310.014" y="-1151.5" font-family="Helvetica,sans-Serif" font-size="10.00"> </text>
<polyline fill="none" stroke="#bfbfbf" points="268.514,-1144.5 351.514,-1144.5 "/>
<text text-anchor="middle" x="310.014" y="-1132.5" font-family="Helvetica,sans-Serif" font-size="10.00"> </text>
</g>
<!-- Node5&#45;&gt;Node4 -->
<g id="edge2" class="edge"><title>Node5&#45;&gt;Node4</title>
<path fill="none" stroke="midnightblue" d="M361.663,-1152.29C410.344,-1148.6 481.289,-1134.83 519.014,-1088 589.547,-1000.45 497.918,-675.663 563.014,-584 574.301,-568.105 588.256,-578.738 603.014,-566 638.553,-535.323 667.444,-491.651 688.072,-454.013"/>
<polygon fill="none" stroke="midnightblue" points="361.389,-1148.8 351.633,-1152.93 361.836,-1155.78 361.389,-1148.8"/>
</g>
<!-- Node10 -->
<g id="node8" class="node"><title>Node10</title>
<g id="a_node8"><a xlink:href="class_unit.html" target="_top" xlink:title="{Unit\n|+ controlActiveDebugOverride\l+ curMeleeAtkRangeSq\l+ curSpeed\l&#45; curMeleeAtkRange\l&#45; curMeleeAtkDelay\l&#45; curConewidth\l&#45; curMeleeAtkCooldown\l&#45; curAttackSpeed\l&#45; curAttackDamage\l&#45; pv\l&#45; attackAvailable\l|+ TryMeleeAttack()\l+ IsControlActive()\l&#45; Awake()\l&#45; EvalMeleeAttack()\l&#45; AnimateMeleeAttack()\l&#45; HitMeleeAttack()\l}">
<polygon fill="white" stroke="black" points="72.0136,-584.5 72.0136,-806.5 216.014,-806.5 216.014,-584.5 72.0136,-584.5"/>
<text text-anchor="middle" x="144.014" y="-794.5" font-family="Helvetica,sans-Serif" font-size="10.00">Unit</text>
<polyline fill="none" stroke="black" points="72.0136,-787.5 216.014,-787.5 "/>
<text text-anchor="start" x="80.0136" y="-775.5" font-family="Helvetica,sans-Serif" font-size="10.00">+ controlActiveDebugOverride</text>
<text text-anchor="start" x="80.0136" y="-764.5" font-family="Helvetica,sans-Serif" font-size="10.00">+ curMeleeAtkRangeSq</text>
<text text-anchor="start" x="80.0136" y="-753.5" font-family="Helvetica,sans-Serif" font-size="10.00">+ curSpeed</text>
<text text-anchor="start" x="80.0136" y="-742.5" font-family="Helvetica,sans-Serif" font-size="10.00">&#45; curMeleeAtkRange</text>
<text text-anchor="start" x="80.0136" y="-731.5" font-family="Helvetica,sans-Serif" font-size="10.00">&#45; curMeleeAtkDelay</text>
<text text-anchor="start" x="80.0136" y="-720.5" font-family="Helvetica,sans-Serif" font-size="10.00">&#45; curConewidth</text>
<text text-anchor="start" x="80.0136" y="-709.5" font-family="Helvetica,sans-Serif" font-size="10.00">&#45; curMeleeAtkCooldown</text>
<text text-anchor="start" x="80.0136" y="-698.5" font-family="Helvetica,sans-Serif" font-size="10.00">&#45; curAttackSpeed</text>
<text text-anchor="start" x="80.0136" y="-687.5" font-family="Helvetica,sans-Serif" font-size="10.00">&#45; curAttackDamage</text>
<text text-anchor="start" x="80.0136" y="-676.5" font-family="Helvetica,sans-Serif" font-size="10.00">&#45; pv</text>
<text text-anchor="start" x="80.0136" y="-665.5" font-family="Helvetica,sans-Serif" font-size="10.00">&#45; attackAvailable</text>
<polyline fill="none" stroke="black" points="72.0136,-658.5 216.014,-658.5 "/>
<text text-anchor="start" x="80.0136" y="-646.5" font-family="Helvetica,sans-Serif" font-size="10.00">+ TryMeleeAttack()</text>
<text text-anchor="start" x="80.0136" y="-635.5" font-family="Helvetica,sans-Serif" font-size="10.00">+ IsControlActive()</text>
<text text-anchor="start" x="80.0136" y="-624.5" font-family="Helvetica,sans-Serif" font-size="10.00">&#45; Awake()</text>
<text text-anchor="start" x="80.0136" y="-613.5" font-family="Helvetica,sans-Serif" font-size="10.00">&#45; EvalMeleeAttack()</text>
<text text-anchor="start" x="80.0136" y="-602.5" font-family="Helvetica,sans-Serif" font-size="10.00">&#45; AnimateMeleeAttack()</text>
<text text-anchor="start" x="80.0136" y="-591.5" font-family="Helvetica,sans-Serif" font-size="10.00">&#45; HitMeleeAttack()</text>
</a>
</g>
</g>
<!-- Node5&#45;&gt;Node10 -->
<g id="edge8" class="edge"><title>Node5&#45;&gt;Node10</title>
<path fill="none" stroke="midnightblue" d="M258.409,-1142.43C181.22,-1126.37 43.9409,-1096.77 37.0136,-1088 -27.4487,-1006.39 6.44142,-953.405 37.0136,-854 44.5933,-829.355 57.4874,-805.106 71.7538,-783.301"/>
<polygon fill="none" stroke="midnightblue" points="257.922,-1145.9 268.425,-1144.5 259.344,-1139.05 257.922,-1145.9"/>
</g>
<!-- Node11 -->
<g id="node9" class="node"><title>Node11</title>
<g id="a_node9"><a xlink:href="class_unit_sprite_animator.html" target="_top" xlink:title="Triggers the Sprite Animator depending on actual current movement. ">
<polygon fill="white" stroke="black" points="198.514,-909.5 198.514,-1032.5 327.514,-1032.5 327.514,-909.5 198.514,-909.5"/>
<text text-anchor="middle" x="263.014" y="-1020.5" font-family="Helvetica,sans-Serif" font-size="10.00">UnitSpriteAnimator</text>
<polyline fill="none" stroke="black" points="198.514,-1013.5 327.514,-1013.5 "/>
<text text-anchor="start" x="206.514" y="-1001.5" font-family="Helvetica,sans-Serif" font-size="10.00">&#45; v</text>
<text text-anchor="start" x="206.514" y="-990.5" font-family="Helvetica,sans-Serif" font-size="10.00">&#45; rb</text>
<text text-anchor="start" x="206.514" y="-979.5" font-family="Helvetica,sans-Serif" font-size="10.00">&#45; anim</text>
<text text-anchor="start" x="206.514" y="-968.5" font-family="Helvetica,sans-Serif" font-size="10.00">&#45; rbLastPos</text>
<polyline fill="none" stroke="black" points="198.514,-961.5 327.514,-961.5 "/>
<text text-anchor="start" x="206.514" y="-949.5" font-family="Helvetica,sans-Serif" font-size="10.00">+ AnimateAttack()</text>
<text text-anchor="start" x="206.514" y="-938.5" font-family="Helvetica,sans-Serif" font-size="10.00">&#45; Awake()</text>
<text text-anchor="start" x="206.514" y="-927.5" font-family="Helvetica,sans-Serif" font-size="10.00">&#45; FixedUpdate()</text>
<text text-anchor="start" x="206.514" y="-916.5" font-family="Helvetica,sans-Serif" font-size="10.00">&#45; UpdateTrackedVelocity()</text>
</a>
</g>
</g>
<!-- Node5&#45;&gt;Node11 -->
<g id="edge10" class="edge"><title>Node5&#45;&gt;Node11</title>
<path fill="none" stroke="midnightblue" d="M300.24,-1115.36C294.027,-1091.43 285.843,-1059.92 278.731,-1032.53"/>
<polygon fill="none" stroke="midnightblue" points="296.872,-1116.32 302.773,-1125.12 303.647,-1114.56 296.872,-1116.32"/>
</g>
<!-- Node12 -->
<g id="node10" class="node"><title>Node12</title>
<g id="a_node10"><a xlink:href="classmechanics_1_1_destructible.html" target="_top" xlink:title="Destructibles have hit points and are affected by damage sources. ">
<polygon fill="white" stroke="black" points="46.0136,-854.5 46.0136,-1087.5 180.014,-1087.5 180.014,-854.5 46.0136,-854.5"/>
<text text-anchor="middle" x="113.014" y="-1075.5" font-family="Helvetica,sans-Serif" font-size="10.00">Destructible</text>
<polyline fill="none" stroke="black" points="46.0136,-1068.5 180.014,-1068.5 "/>
<text text-anchor="start" x="54.0136" y="-1056.5" font-family="Helvetica,sans-Serif" font-size="10.00">+ isNeutral</text>
<text text-anchor="start" x="54.0136" y="-1045.5" font-family="Helvetica,sans-Serif" font-size="10.00">+ brokenObjectPrefab</text>
<text text-anchor="start" x="54.0136" y="-1034.5" font-family="Helvetica,sans-Serif" font-size="10.00">+ destroyedAfter</text>
<text text-anchor="start" x="54.0136" y="-1023.5" font-family="Helvetica,sans-Serif" font-size="10.00">+ hitpoints</text>
<text text-anchor="start" x="54.0136" y="-1012.5" font-family="Helvetica,sans-Serif" font-size="10.00">+ sync</text>
<text text-anchor="start" x="54.0136" y="-1001.5" font-family="Helvetica,sans-Serif" font-size="10.00">+ destroyedEvent</text>
<text text-anchor="start" x="54.0136" y="-990.5" font-family="Helvetica,sans-Serif" font-size="10.00">+ dmgReceivedEvent</text>
<text text-anchor="start" x="54.0136" y="-979.5" font-family="Helvetica,sans-Serif" font-size="10.00">&#45; potentialPhotonView</text>
<polyline fill="none" stroke="black" points="46.0136,-972.5 180.014,-972.5 "/>
<text text-anchor="start" x="54.0136" y="-960.5" font-family="Helvetica,sans-Serif" font-size="10.00">+ Hit()</text>
<text text-anchor="start" x="54.0136" y="-949.5" font-family="Helvetica,sans-Serif" font-size="10.00">+ IsAlive()</text>
<text text-anchor="start" x="54.0136" y="-938.5" font-family="Helvetica,sans-Serif" font-size="10.00">+ IsEnemy()</text>
<text text-anchor="start" x="54.0136" y="-927.5" font-family="Helvetica,sans-Serif" font-size="10.00">+ IsMine()</text>
<text text-anchor="start" x="54.0136" y="-916.5" font-family="Helvetica,sans-Serif" font-size="10.00">+ OnPhotonSerializeView()</text>
<text text-anchor="start" x="54.0136" y="-905.5" font-family="Helvetica,sans-Serif" font-size="10.00">+ Kill()</text>
<text text-anchor="start" x="54.0136" y="-894.5" font-family="Helvetica,sans-Serif" font-size="10.00">&#45; Awake()</text>
<text text-anchor="start" x="54.0136" y="-883.5" font-family="Helvetica,sans-Serif" font-size="10.00">&#45; Break()</text>
<text text-anchor="start" x="54.0136" y="-872.5" font-family="Helvetica,sans-Serif" font-size="10.00">&#45; Throw()</text>
<text text-anchor="start" x="54.0136" y="-861.5" font-family="Helvetica,sans-Serif" font-size="10.00">&#45; SelfDestruct()</text>
</a>
</g>
</g>
<!-- Node5&#45;&gt;Node12 -->
<g id="edge12" class="edge"><title>Node5&#45;&gt;Node12</title>
<path fill="none" stroke="midnightblue" d="M259.073,-1132.59C235.966,-1121.68 209.331,-1106.62 189.014,-1088 185.996,-1085.23 183.045,-1082.32 180.163,-1079.3"/>
<polygon fill="none" stroke="midnightblue" points="257.848,-1135.88 268.397,-1136.87 260.765,-1129.52 257.848,-1135.88"/>
</g>
<!-- Node15 -->
<g id="node13" class="node"><title>Node15</title>
<g id="a_node13"><a xlink:href="classmechanics_1_1_attack_target_tracker.html" target="_top" xlink:title="This is to implement the target selection, as described here: Target Selection. ">
<polygon fill="white" stroke="black" points="219.014,-215.5 219.014,-536.5 391.014,-536.5 391.014,-215.5 219.014,-215.5"/>
<text text-anchor="middle" x="305.014" y="-524.5" font-family="Helvetica,sans-Serif" font-size="10.00">AttackTargetTracker</text>
<polyline fill="none" stroke="black" points="219.014,-517.5 391.014,-517.5 "/>
<text text-anchor="start" x="227.014" y="-505.5" font-family="Helvetica,sans-Serif" font-size="10.00">+ debugLog</text>
<text text-anchor="start" x="227.014" y="-494.5" font-family="Helvetica,sans-Serif" font-size="10.00">+ battleStartEvent</text>
<text text-anchor="start" x="227.014" y="-483.5" font-family="Helvetica,sans-Serif" font-size="10.00">+ battleEndEvent</text>
<text text-anchor="start" x="227.014" y="-472.5" font-family="Helvetica,sans-Serif" font-size="10.00">+ targetsInRange</text>
<text text-anchor="start" x="227.014" y="-461.5" font-family="Helvetica,sans-Serif" font-size="10.00">+ inBattle</text>
<text text-anchor="start" x="227.014" y="-450.5" font-family="Helvetica,sans-Serif" font-size="10.00">&#45; guardRangeDebounceToleranceSq</text>
<text text-anchor="start" x="227.014" y="-439.5" font-family="Helvetica,sans-Serif" font-size="10.00">&#45; guardRangeSq</text>
<text text-anchor="start" x="227.014" y="-428.5" font-family="Helvetica,sans-Serif" font-size="10.00">&#45; targetLostRangeSq</text>
<text text-anchor="start" x="227.014" y="-417.5" font-family="Helvetica,sans-Serif" font-size="10.00">&#45; updateCoroutineReference</text>
<polyline fill="none" stroke="black" points="219.014,-410.5 391.014,-410.5 "/>
<text text-anchor="start" x="227.014" y="-398.5" font-family="Helvetica,sans-Serif" font-size="10.00">+ ScanForTargetsAndUpdate()</text>
<text text-anchor="start" x="227.014" y="-387.5" font-family="Helvetica,sans-Serif" font-size="10.00">&#45; Awake()</text>
<text text-anchor="start" x="227.014" y="-376.5" font-family="Helvetica,sans-Serif" font-size="10.00">&#45; Start()</text>
<text text-anchor="start" x="227.014" y="-365.5" font-family="Helvetica,sans-Serif" font-size="10.00">&#45; UpdateTargetCoroutine()</text>
<text text-anchor="start" x="227.014" y="-354.5" font-family="Helvetica,sans-Serif" font-size="10.00">&#45; OnTriggerEnter2D()</text>
<text text-anchor="start" x="227.014" y="-343.5" font-family="Helvetica,sans-Serif" font-size="10.00">&#45; StartRegularTargetUpdates()</text>
<text text-anchor="start" x="227.014" y="-332.5" font-family="Helvetica,sans-Serif" font-size="10.00">&#45; PauseRegularTargetUpdates()</text>
<text text-anchor="start" x="227.014" y="-321.5" font-family="Helvetica,sans-Serif" font-size="10.00">&#45; AddTargetAndRegisterRemoval</text>
<text text-anchor="start" x="227.014" y="-310.5" font-family="Helvetica,sans-Serif" font-size="10.00">UponDeath()</text>
<text text-anchor="start" x="227.014" y="-299.5" font-family="Helvetica,sans-Serif" font-size="10.00">&#45; UpdateCurrentTarget()</text>
<text text-anchor="start" x="227.014" y="-288.5" font-family="Helvetica,sans-Serif" font-size="10.00">&#45; GetClosestTargetAndNullToo</text>
<text text-anchor="start" x="227.014" y="-277.5" font-family="Helvetica,sans-Serif" font-size="10.00">Distant()</text>
<text text-anchor="start" x="227.014" y="-266.5" font-family="Helvetica,sans-Serif" font-size="10.00">&#45; CheckWhetherCurAttackTarget</text>
<text text-anchor="start" x="227.014" y="-255.5" font-family="Helvetica,sans-Serif" font-size="10.00">IsLost()</text>
<text text-anchor="start" x="227.014" y="-244.5" font-family="Helvetica,sans-Serif" font-size="10.00">&#45; RemoveTargetDueToDeath()</text>
<text text-anchor="start" x="227.014" y="-233.5" font-family="Helvetica,sans-Serif" font-size="10.00">&#45; CleanTargetListFromNullEntries()</text>
<text text-anchor="start" x="227.014" y="-222.5" font-family="Helvetica,sans-Serif" font-size="10.00">&#45; DebugLog()</text>
</a>
</g>
</g>
<!-- Node5&#45;&gt;Node15 -->
<g id="edge17" class="edge"><title>Node5&#45;&gt;Node15</title>
<path fill="none" stroke="midnightblue" d="M327.52,-1115.84C330.981,-1106.91 334.125,-1097.27 336.014,-1088 380.722,-868.491 361.799,-807.14 342.014,-584 340.643,-568.545 338.708,-552.517 336.434,-536.531"/>
<polygon fill="none" stroke="midnightblue" points="324.237,-1114.63 323.684,-1125.21 330.715,-1117.28 324.237,-1114.63"/>
</g>
<!-- Node18 -->
<g id="node16" class="node"><title>Node18</title>
<g id="a_node16"><a xlink:href="classmechanics_1_1_food.html" target="_top" xlink:title="{Food\n|+ value\l+ weight\l+ totalStrengthNeeded\l+ curCarryStrength\l+ carrySlots\l+ destReachedEvent\l&#45; carriers\l|+ ReserveCarry()\l+ PickUp()\l+ Drop()\l+ HasFreeCarrySlot()\l+ IsFirstCarrier()\l+ GetCarrySpeedFactor()\l&#45; UpdateCarryStrengthBy()\l}">
<polygon fill="white" stroke="black" points="572.514,-601 572.514,-790 703.514,-790 703.514,-601 572.514,-601"/>
<text text-anchor="middle" x="638.014" y="-778" font-family="Helvetica,sans-Serif" font-size="10.00">Food</text>
<polyline fill="none" stroke="black" points="572.514,-771 703.514,-771 "/>
<text text-anchor="start" x="580.514" y="-759" font-family="Helvetica,sans-Serif" font-size="10.00">+ value</text>
<text text-anchor="start" x="580.514" y="-748" font-family="Helvetica,sans-Serif" font-size="10.00">+ weight</text>
<text text-anchor="start" x="580.514" y="-737" font-family="Helvetica,sans-Serif" font-size="10.00">+ totalStrengthNeeded</text>
<text text-anchor="start" x="580.514" y="-726" font-family="Helvetica,sans-Serif" font-size="10.00">+ curCarryStrength</text>
<text text-anchor="start" x="580.514" y="-715" font-family="Helvetica,sans-Serif" font-size="10.00">+ carrySlots</text>
<text text-anchor="start" x="580.514" y="-704" font-family="Helvetica,sans-Serif" font-size="10.00">+ destReachedEvent</text>
<text text-anchor="start" x="580.514" y="-693" font-family="Helvetica,sans-Serif" font-size="10.00">&#45; carriers</text>
<polyline fill="none" stroke="black" points="572.514,-686 703.514,-686 "/>
<text text-anchor="start" x="580.514" y="-674" font-family="Helvetica,sans-Serif" font-size="10.00">+ ReserveCarry()</text>
<text text-anchor="start" x="580.514" y="-663" font-family="Helvetica,sans-Serif" font-size="10.00">+ PickUp()</text>
<text text-anchor="start" x="580.514" y="-652" font-family="Helvetica,sans-Serif" font-size="10.00">+ Drop()</text>
<text text-anchor="start" x="580.514" y="-641" font-family="Helvetica,sans-Serif" font-size="10.00">+ HasFreeCarrySlot()</text>
<text text-anchor="start" x="580.514" y="-630" font-family="Helvetica,sans-Serif" font-size="10.00">+ IsFirstCarrier()</text>
<text text-anchor="start" x="580.514" y="-619" font-family="Helvetica,sans-Serif" font-size="10.00">+ GetCarrySpeedFactor()</text>
<text text-anchor="start" x="580.514" y="-608" font-family="Helvetica,sans-Serif" font-size="10.00">&#45; UpdateCarryStrengthBy()</text>
</a>
</g>
</g>
<!-- Node5&#45;&gt;Node18 -->
<g id="edge25" class="edge"><title>Node5&#45;&gt;Node18</title>
<path fill="none" stroke="midnightblue" d="M361.971,-1147.41C420.657,-1140.28 511.685,-1126.48 540.014,-1107 591.631,-1071.5 618.017,-900.269 629.848,-790.473"/>
<polygon fill="none" stroke="midnightblue" points="361.287,-1143.97 351.77,-1148.62 362.113,-1150.92 361.287,-1143.97"/>
</g>
<!-- Node6 -->
<g id="node4" class="node"><title>Node6</title>
<g id="a_node4"><a xlink:href="interface_i_state.html" target="_top" xlink:title="{IState\n||+ GetName()\l+ GetTriggers()\l+ Init()\l}">
<polygon fill="white" stroke="black" points="722.014,-656 722.014,-735 804.014,-735 804.014,-656 722.014,-656"/>
<text text-anchor="middle" x="763.014" y="-723" font-family="Helvetica,sans-Serif" font-size="10.00">IState</text>
<polyline fill="none" stroke="black" points="722.014,-716 804.014,-716 "/>
<text text-anchor="middle" x="763.014" y="-704" font-family="Helvetica,sans-Serif" font-size="10.00"> </text>
<polyline fill="none" stroke="black" points="722.014,-697 804.014,-697 "/>
<text text-anchor="start" x="730.014" y="-685" font-family="Helvetica,sans-Serif" font-size="10.00">+ GetName()</text>
<text text-anchor="start" x="730.014" y="-674" font-family="Helvetica,sans-Serif" font-size="10.00">+ GetTriggers()</text>
<text text-anchor="start" x="730.014" y="-663" font-family="Helvetica,sans-Serif" font-size="10.00">+ Init()</text>
</a>
</g>
</g>
<!-- Node6&#45;&gt;Node4 -->
<g id="edge3" class="edge"><title>Node6&#45;&gt;Node4</title>
<path fill="none" stroke="#404040" d="M758.27,-655.886C752.523,-609.096 742.657,-528.774 734.984,-466.314"/>
<polygon fill="none" stroke="#404040" points="734.944,-465.985 730.242,-460.518 733.481,-454.075 738.183,-459.542 734.944,-465.985"/>
<text text-anchor="middle" x="775.514" y="-558" font-family="Helvetica,sans-Serif" font-size="10.00"> #activeState</text>
</g>
<!-- Node7 -->
<g id="node5" class="node"><title>Node7</title>
<g id="a_node5"><a xlink:href="class_game_string_event.html" target="_top" xlink:title="{GameStringEvent\n||}">
<polygon fill="white" stroke="black" points="822.014,-667 822.014,-724 914.014,-724 914.014,-667 822.014,-667"/>
<text text-anchor="middle" x="868.014" y="-712" font-family="Helvetica,sans-Serif" font-size="10.00">GameStringEvent</text>
<polyline fill="none" stroke="black" points="822.014,-705 914.014,-705 "/>
<text text-anchor="middle" x="868.014" y="-693" font-family="Helvetica,sans-Serif" font-size="10.00"> </text>
<polyline fill="none" stroke="black" points="822.014,-686 914.014,-686 "/>
<text text-anchor="middle" x="868.014" y="-674" font-family="Helvetica,sans-Serif" font-size="10.00"> </text>
</a>
</g>
</g>
<!-- Node7&#45;&gt;Node4 -->
<g id="edge4" class="edge"><title>Node7&#45;&gt;Node4</title>
<path fill="none" stroke="#404040" d="M856.455,-666.849C844.573,-638.614 825.405,-593.575 808.014,-555 794.809,-525.712 779.974,-493.927 766.486,-465.431"/>
<polygon fill="none" stroke="#404040" points="766.335,-465.112 760.15,-461.405 761.193,-454.27 767.378,-457.977 766.335,-465.112"/>
<text text-anchor="middle" x="856.514" y="-558" font-family="Helvetica,sans-Serif" font-size="10.00"> +stateEnteredEvent</text>
</g>
<!-- Node8 -->
<g id="node6" class="node"><title>Node8</title>
<g id="a_node6"><a xlink:href="class_game_event.html" target="_top" xlink:title="{GameEvent\&lt; string \&gt;\n|+ Event\l+ Event\l|+ Invoke()\l+ Invoke()\l+ AddListener()\l+ AddListener()\l+ RemovedListener()\l+ RemoveListener()\l}">
<polygon fill="white" stroke="black" points="762.514,-909.5 762.514,-1032.5 871.514,-1032.5 871.514,-909.5 762.514,-909.5"/>
<text text-anchor="middle" x="817.014" y="-1020.5" font-family="Helvetica,sans-Serif" font-size="10.00">GameEvent&lt; string &gt;</text>
<polyline fill="none" stroke="black" points="762.514,-1013.5 871.514,-1013.5 "/>
<text text-anchor="start" x="770.514" y="-1001.5" font-family="Helvetica,sans-Serif" font-size="10.00">+ Event</text>
<text text-anchor="start" x="770.514" y="-990.5" font-family="Helvetica,sans-Serif" font-size="10.00">+ Event</text>
<polyline fill="none" stroke="black" points="762.514,-983.5 871.514,-983.5 "/>
<text text-anchor="start" x="770.514" y="-971.5" font-family="Helvetica,sans-Serif" font-size="10.00">+ Invoke()</text>
<text text-anchor="start" x="770.514" y="-960.5" font-family="Helvetica,sans-Serif" font-size="10.00">+ Invoke()</text>
<text text-anchor="start" x="770.514" y="-949.5" font-family="Helvetica,sans-Serif" font-size="10.00">+ AddListener()</text>
<text text-anchor="start" x="770.514" y="-938.5" font-family="Helvetica,sans-Serif" font-size="10.00">+ AddListener()</text>
<text text-anchor="start" x="770.514" y="-927.5" font-family="Helvetica,sans-Serif" font-size="10.00">+ RemovedListener()</text>
<text text-anchor="start" x="770.514" y="-916.5" font-family="Helvetica,sans-Serif" font-size="10.00">+ RemoveListener()</text>
</a>
</g>
</g>
<!-- Node8&#45;&gt;Node7 -->
<g id="edge5" class="edge"><title>Node8&#45;&gt;Node7</title>
<path fill="none" stroke="midnightblue" d="M830.208,-899.244C840.858,-842.129 855.276,-764.809 862.86,-724.139"/>
<polygon fill="none" stroke="midnightblue" points="826.725,-898.829 828.332,-909.301 833.606,-900.113 826.725,-898.829"/>
</g>
<!-- Node9 -->
<g id="node7" class="node"><title>Node9</title>
<polygon fill="white" stroke="#bfbfbf" points="530.514,-1125.5 530.514,-1182.5 619.514,-1182.5 619.514,-1125.5 530.514,-1125.5"/>
<text text-anchor="middle" x="575.014" y="-1170.5" font-family="Helvetica,sans-Serif" font-size="10.00">ScriptableObject</text>
<polyline fill="none" stroke="#bfbfbf" points="530.514,-1163.5 619.514,-1163.5 "/>
<text text-anchor="middle" x="575.014" y="-1151.5" font-family="Helvetica,sans-Serif" font-size="10.00"> </text>
<polyline fill="none" stroke="#bfbfbf" points="530.514,-1144.5 619.514,-1144.5 "/>
<text text-anchor="middle" x="575.014" y="-1132.5" font-family="Helvetica,sans-Serif" font-size="10.00"> </text>
</g>
<!-- Node9&#45;&gt;Node8 -->
<g id="edge6" class="edge"><title>Node9&#45;&gt;Node8</title>
<path fill="none" stroke="midnightblue" d="M629.057,-1124.94C678.002,-1106.21 699.319,-1117.34 738.014,-1088 757.333,-1073.35 773.569,-1052.57 786.199,-1032.63"/>
<polygon fill="none" stroke="midnightblue" points="627.523,-1121.79 619.585,-1128.8 630.167,-1128.27 627.523,-1121.79"/>
</g>
<!-- Node14 -->
<g id="node12" class="node"><title>Node14</title>
<g id="a_node12"><a xlink:href="class_unit_info.html" target="_top" xlink:title="{UnitInfo\n|+ buildtime\l+ prefab\l+ attackRange\l+ attackDamage\l+ hitpoints\l+ attackCooldown\l+ moveSpeed\l+ attackSpeed\l+ speedPenaltyOnAttack\l+ carryStrength\l|}">
<polygon fill="white" stroke="black" points="384.014,-893 384.014,-1049 510.014,-1049 510.014,-893 384.014,-893"/>
<text text-anchor="middle" x="447.014" y="-1037" font-family="Helvetica,sans-Serif" font-size="10.00">UnitInfo</text>
<polyline fill="none" stroke="black" points="384.014,-1030 510.014,-1030 "/>
<text text-anchor="start" x="392.014" y="-1018" font-family="Helvetica,sans-Serif" font-size="10.00">+ buildtime</text>
<text text-anchor="start" x="392.014" y="-1007" font-family="Helvetica,sans-Serif" font-size="10.00">+ prefab</text>
<text text-anchor="start" x="392.014" y="-996" font-family="Helvetica,sans-Serif" font-size="10.00">+ attackRange</text>
<text text-anchor="start" x="392.014" y="-985" font-family="Helvetica,sans-Serif" font-size="10.00">+ attackDamage</text>
<text text-anchor="start" x="392.014" y="-974" font-family="Helvetica,sans-Serif" font-size="10.00">+ hitpoints</text>
<text text-anchor="start" x="392.014" y="-963" font-family="Helvetica,sans-Serif" font-size="10.00">+ attackCooldown</text>
<text text-anchor="start" x="392.014" y="-952" font-family="Helvetica,sans-Serif" font-size="10.00">+ moveSpeed</text>
<text text-anchor="start" x="392.014" y="-941" font-family="Helvetica,sans-Serif" font-size="10.00">+ attackSpeed</text>
<text text-anchor="start" x="392.014" y="-930" font-family="Helvetica,sans-Serif" font-size="10.00">+ speedPenaltyOnAttack</text>
<text text-anchor="start" x="392.014" y="-919" font-family="Helvetica,sans-Serif" font-size="10.00">+ carryStrength</text>
<polyline fill="none" stroke="black" points="384.014,-912 510.014,-912 "/>
<text text-anchor="middle" x="447.014" y="-900" font-family="Helvetica,sans-Serif" font-size="10.00"> </text>
</a>
</g>
</g>
<!-- Node9&#45;&gt;Node14 -->
<g id="edge15" class="edge"><title>Node9&#45;&gt;Node14</title>
<path fill="none" stroke="midnightblue" d="M549.458,-1116.86C535.723,-1097.44 518.236,-1072.71 501.613,-1049.21"/>
<polygon fill="none" stroke="midnightblue" points="546.663,-1118.97 555.294,-1125.12 552.378,-1114.93 546.663,-1118.97"/>
</g>
<!-- Node16 -->
<g id="node14" class="node"><title>Node16</title>
<g id="a_node14"><a xlink:href="class_game_settings.html" target="_top" xlink:title="Wraps game&#45;wide settings into one asset, modifyable from the editor. ">
<polygon fill="white" stroke="black" points="386.514,-656 386.514,-735 515.514,-735 515.514,-656 386.514,-656"/>
<text text-anchor="middle" x="451.014" y="-723" font-family="Helvetica,sans-Serif" font-size="10.00">GameSettings</text>
<polyline fill="none" stroke="black" points="386.514,-716 515.514,-716 "/>
<text text-anchor="start" x="394.514" y="-704" font-family="Helvetica,sans-Serif" font-size="10.00">+ unitGuardRange</text>
<text text-anchor="start" x="394.514" y="-693" font-family="Helvetica,sans-Serif" font-size="10.00">+ unitTargetLostRange</text>
<text text-anchor="start" x="394.514" y="-682" font-family="Helvetica,sans-Serif" font-size="10.00">+ unitTargetUpdateInterval</text>
<polyline fill="none" stroke="black" points="386.514,-675 515.514,-675 "/>
<text text-anchor="middle" x="451.014" y="-663" font-family="Helvetica,sans-Serif" font-size="10.00"> </text>
</a>
</g>
</g>
<!-- Node9&#45;&gt;Node16 -->
<g id="edge19" class="edge"><title>Node9&#45;&gt;Node16</title>
<path fill="none" stroke="midnightblue" d="M570.681,-1115.24C563.49,-1057.89 547.036,-945.772 519.014,-854 506.228,-812.127 485.704,-766.41 470.545,-735.071"/>
<polygon fill="none" stroke="midnightblue" points="567.223,-1115.8 571.917,-1125.3 574.171,-1114.95 567.223,-1115.8"/>
</g>
<!-- Node10&#45;&gt;Node3 -->
<g id="edge7" class="edge"><title>Node10&#45;&gt;Node3</title>
<path fill="none" stroke="#404040" d="M126.548,-584.323C116.034,-481.019 115.877,-326.229 185.014,-215 215.232,-166.385 270.966,-133.451 318.115,-112.896"/>
<polygon fill="none" stroke="#404040" points="318.216,-112.854 322.189,-106.836 329.272,-108.189 325.299,-114.207 318.216,-112.854"/>
<text text-anchor="middle" x="197.514" y="-373.5" font-family="Helvetica,sans-Serif" font-size="10.00"> +unit</text>
</g>
<!-- Node10&#45;&gt;Node15 -->
<g id="edge20" class="edge"><title>Node10&#45;&gt;Node15</title>
<path fill="none" stroke="#404040" d="M199.872,-584.345C205.913,-572.432 212.159,-560.114 218.454,-547.699"/>
<polygon fill="none" stroke="#404040" points="218.569,-547.474 217.715,-540.313 223.996,-536.771 224.85,-543.931 218.569,-547.474"/>
<text text-anchor="middle" x="222.014" y="-558" font-family="Helvetica,sans-Serif" font-size="10.00"> &#45;unit</text>
</g>
<!-- Node11&#45;&gt;Node10 -->
<g id="edge9" class="edge"><title>Node11&#45;&gt;Node10</title>
<path fill="none" stroke="#404040" d="M236.604,-909.301C224.843,-882.273 210.554,-849.432 196.756,-817.719"/>
<polygon fill="none" stroke="#404040" points="196.689,-817.564 190.627,-813.658 191.901,-806.561 197.963,-810.467 196.689,-817.564"/>
<text text-anchor="middle" x="226.514" y="-828" font-family="Helvetica,sans-Serif" font-size="10.00"> &#45;unitAnim</text>
</g>
<!-- Node12&#45;&gt;Node10 -->
<g id="edge11" class="edge"><title>Node12&#45;&gt;Node10</title>
<path fill="none" stroke="#404040" d="M110.556,-854.301C111.09,-844.373 111.884,-834.499 113.014,-825 113.261,-822.924 113.529,-820.833 113.817,-818.731"/>
<polygon fill="none" stroke="#404040" points="113.859,-818.456 110.812,-811.921 115.673,-806.594 118.72,-813.13 113.859,-818.456"/>
<text text-anchor="middle" x="141.514" y="-828" font-family="Helvetica,sans-Serif" font-size="10.00"> &#45;destructible</text>
</g>
<!-- Node12&#45;&gt;Node15 -->
<g id="edge21" class="edge"><title>Node12&#45;&gt;Node15</title>
<path fill="none" stroke="#404040" d="M180.208,-861.621C183.062,-858.946 185.998,-856.396 189.014,-854 207.178,-839.567 223.703,-854.261 238.014,-836 272.769,-791.651 257.681,-639.725 266.014,-584 267.738,-572.472 269.637,-560.605 271.641,-548.663"/>
<polygon fill="none" stroke="#404040" points="271.663,-548.535 268.727,-541.949 273.678,-536.705 276.613,-543.292 271.663,-548.535"/>
<text text-anchor="middle" x="304.014" y="-698.5" font-family="Helvetica,sans-Serif" font-size="10.00"> &#45;thisDestructible</text>
<text text-anchor="middle" x="304.014" y="-687.5" font-family="Helvetica,sans-Serif" font-size="10.00">+curAttackTarget</text>
</g>
<!-- Node13 -->
<g id="node11" class="node"><title>Node13</title>
<polygon fill="white" stroke="#bfbfbf" points="71.0136,-1125.5 71.0136,-1182.5 155.014,-1182.5 155.014,-1125.5 71.0136,-1125.5"/>
<text text-anchor="middle" x="113.014" y="-1170.5" font-family="Helvetica,sans-Serif" font-size="10.00">IPunObservable</text>
<polyline fill="none" stroke="#bfbfbf" points="71.0136,-1163.5 155.014,-1163.5 "/>
<text text-anchor="middle" x="113.014" y="-1151.5" font-family="Helvetica,sans-Serif" font-size="10.00"> </text>
<polyline fill="none" stroke="#bfbfbf" points="71.0136,-1144.5 155.014,-1144.5 "/>
<text text-anchor="middle" x="113.014" y="-1132.5" font-family="Helvetica,sans-Serif" font-size="10.00"> </text>
</g>
<!-- Node13&#45;&gt;Node12 -->
<g id="edge13" class="edge"><title>Node13&#45;&gt;Node12</title>
<path fill="none" stroke="midnightblue" d="M113.014,-1115.01C113.014,-1106.61 113.014,-1097.29 113.014,-1087.55"/>
<polygon fill="none" stroke="midnightblue" points="109.514,-1115.12 113.014,-1125.12 116.514,-1115.12 109.514,-1115.12"/>
</g>
<!-- Node14&#45;&gt;Node10 -->
<g id="edge14" class="edge"><title>Node14&#45;&gt;Node10</title>
<path fill="none" stroke="#404040" d="M383.769,-895.15C369.066,-880.353 352.778,-865.776 336.014,-854 293.844,-824.377 270.618,-838.735 230.014,-807 228.368,-805.714 226.735,-804.389 225.117,-803.03"/>
<polygon fill="none" stroke="#404040" points="224.967,-802.896 217.828,-801.883 216.017,-794.903 223.156,-795.916 224.967,-802.896"/>
<text text-anchor="middle" x="311.514" y="-828" font-family="Helvetica,sans-Serif" font-size="10.00"> +info</text>
</g>
<!-- Node15&#45;&gt;Node3 -->
<g id="edge16" class="edge"><title>Node15&#45;&gt;Node3</title>
<path fill="none" stroke="#404040" d="M357.377,-215.155C361.409,-202.845 365.395,-190.679 369.215,-179.018"/>
<polygon fill="none" stroke="#404040" points="369.24,-178.942 367.306,-171.994 372.975,-167.538 374.909,-174.485 369.24,-178.942"/>
<text text-anchor="middle" x="400.514" y="-189" font-family="Helvetica,sans-Serif" font-size="10.00"> +targetTracker</text>
</g>
<!-- Node16&#45;&gt;Node15 -->
<g id="edge18" class="edge"><title>Node16&#45;&gt;Node15</title>
<path fill="none" stroke="#404040" d="M433.257,-655.886C420.456,-628.048 402.197,-588.34 383.457,-547.587"/>
<polygon fill="none" stroke="#404040" points="383.438,-547.547 377.297,-543.767 378.425,-536.644 384.566,-540.424 383.438,-547.547"/>
<text text-anchor="middle" x="414.014" y="-558" font-family="Helvetica,sans-Serif" font-size="10.00"> +settings</text>
</g>
<!-- Node17 -->
<g id="node15" class="node"><title>Node17</title>
<g id="a_node15"><a xlink:href="classmechanics_1_1_gather_target_selector.html" target="_top" xlink:title="Implements search and selection of a gather target (food). ">
<polygon fill="white" stroke="black" points="409.514,-314.5 409.514,-437.5 582.514,-437.5 582.514,-314.5 409.514,-314.5"/>
<text text-anchor="middle" x="496.014" y="-425.5" font-family="Helvetica,sans-Serif" font-size="10.00">GatherTargetSelector</text>
<polyline fill="none" stroke="black" points="409.514,-418.5 582.514,-418.5 "/>
<text text-anchor="middle" x="496.014" y="-406.5" font-family="Helvetica,sans-Serif" font-size="10.00"> </text>
<polyline fill="none" stroke="black" points="409.514,-399.5 582.514,-399.5 "/>
<text text-anchor="start" x="417.514" y="-387.5" font-family="Helvetica,sans-Serif" font-size="10.00">+ Search()</text>
<text text-anchor="start" x="417.514" y="-376.5" font-family="Helvetica,sans-Serif" font-size="10.00">&#45; GetFoodInRangeAndCarryable()</text>
<text text-anchor="start" x="417.514" y="-365.5" font-family="Helvetica,sans-Serif" font-size="10.00">&#45; SelectOnlyFoodWithLeastStrength</text>
<text text-anchor="start" x="417.514" y="-354.5" font-family="Helvetica,sans-Serif" font-size="10.00">Missing()</text>
<text text-anchor="start" x="417.514" y="-343.5" font-family="Helvetica,sans-Serif" font-size="10.00">&#45; SelectOnlyFoodWithHighest</text>
<text text-anchor="start" x="417.514" y="-332.5" font-family="Helvetica,sans-Serif" font-size="10.00">Value()</text>
<text text-anchor="start" x="417.514" y="-321.5" font-family="Helvetica,sans-Serif" font-size="10.00">&#45; GetClosestFood()</text>
</a>
</g>
</g>
<!-- Node16&#45;&gt;Node17 -->
<g id="edge23" class="edge"><title>Node16&#45;&gt;Node17</title>
<path fill="none" stroke="#404040" d="M449.675,-655.852C449.229,-627.76 449.701,-588.883 454.014,-555 458.475,-519.949 466.995,-481.736 475.201,-449.733"/>
<polygon fill="none" stroke="#404040" points="475.287,-449.401 472.934,-442.585 478.321,-437.791 480.674,-444.607 475.287,-449.401"/>
<text text-anchor="middle" x="476.014" y="-558" font-family="Helvetica,sans-Serif" font-size="10.00"> +settings</text>
</g>
<!-- Node17&#45;&gt;Node3 -->
<g id="edge22" class="edge"><title>Node17&#45;&gt;Node3</title>
<path fill="none" stroke="#404040" d="M478.418,-314.259C467.38,-277.048 452.533,-228.554 438.014,-186 437.21,-183.645 436.388,-181.263 435.551,-178.862"/>
<polygon fill="none" stroke="#404040" points="435.543,-178.841 429.771,-174.518 431.54,-167.528 437.313,-171.85 435.543,-178.841"/>
<text text-anchor="middle" x="492.014" y="-189" font-family="Helvetica,sans-Serif" font-size="10.00"> +gatherTargetSelector</text>
</g>
<!-- Node18&#45;&gt;Node17 -->
<g id="edge24" class="edge"><title>Node18&#45;&gt;Node17</title>
<path fill="none" stroke="#404040" d="M596.177,-600.957C574.457,-552.392 548.329,-493.972 528.205,-448.977"/>
<polygon fill="none" stroke="#404040" points="528.124,-448.796 522.023,-444.952 523.225,-437.842 529.326,-441.686 528.124,-448.796"/>
<text text-anchor="middle" x="621.014" y="-558" font-family="Helvetica,sans-Serif" font-size="10.00"> +curTargetedFood</text>
</g>
<!-- Node19 -->
<g id="node17" class="node"><title>Node19</title>
<g id="a_node17"><a xlink:href="class_unity_float_event.html" target="_top" xlink:title="{UnityFloatEvent\n||}">
<polygon fill="white" stroke="black" points="644.514,-942.5 644.514,-999.5 729.514,-999.5 729.514,-942.5 644.514,-942.5"/>
<text text-anchor="middle" x="687.014" y="-987.5" font-family="Helvetica,sans-Serif" font-size="10.00">UnityFloatEvent</text>
<polyline fill="none" stroke="black" points="644.514,-980.5 729.514,-980.5 "/>
<text text-anchor="middle" x="687.014" y="-968.5" font-family="Helvetica,sans-Serif" font-size="10.00"> </text>
<polyline fill="none" stroke="black" points="644.514,-961.5 729.514,-961.5 "/>
<text text-anchor="middle" x="687.014" y="-949.5" font-family="Helvetica,sans-Serif" font-size="10.00"> </text>
</a>
</g>
</g>
<!-- Node19&#45;&gt;Node18 -->
<g id="edge26" class="edge"><title>Node19&#45;&gt;Node18</title>
<path fill="none" stroke="#404040" d="M682.046,-942.27C676.167,-909.456 666.03,-852.876 656.963,-802.271"/>
<polygon fill="none" stroke="#404040" points="656.923,-802.042 651.927,-796.841 654.806,-790.23 659.802,-795.431 656.923,-802.042"/>
<text text-anchor="middle" x="723.514" y="-828" font-family="Helvetica,sans-Serif" font-size="10.00"> +speedFactorChangeEvent</text>
</g>
<!-- Node20 -->
<g id="node18" class="node"><title>Node20</title>
<polygon fill="white" stroke="#bfbfbf" points="637.514,-1125.5 637.514,-1182.5 736.514,-1182.5 736.514,-1125.5 637.514,-1125.5"/>
<text text-anchor="middle" x="687.014" y="-1170.5" font-family="Helvetica,sans-Serif" font-size="10.00">UnityEvent&lt; float &gt;</text>
<polyline fill="none" stroke="#bfbfbf" points="637.514,-1163.5 736.514,-1163.5 "/>
<text text-anchor="middle" x="687.014" y="-1151.5" font-family="Helvetica,sans-Serif" font-size="10.00"> </text>
<polyline fill="none" stroke="#bfbfbf" points="637.514,-1144.5 736.514,-1144.5 "/>
<text text-anchor="middle" x="687.014" y="-1132.5" font-family="Helvetica,sans-Serif" font-size="10.00"> </text>
</g>
<!-- Node20&#45;&gt;Node19 -->
<g id="edge27" class="edge"><title>Node20&#45;&gt;Node19</title>
<path fill="none" stroke="midnightblue" d="M687.014,-1114.95C687.014,-1080.45 687.014,-1030.42 687.014,-999.619"/>
<polygon fill="none" stroke="midnightblue" points="683.514,-1115.12 687.014,-1125.12 690.514,-1115.12 683.514,-1115.12"/>
</g>
</g>
</svg>
