<?xml version="1.0" encoding="UTF-8" standalone="no"?>
<!DOCTYPE svg PUBLIC "-//W3C//DTD SVG 1.1//EN"
 "http://www.w3.org/Graphics/SVG/1.1/DTD/svg11.dtd">
<!-- Generated by graphviz version 2.38.0 (20140413.2041)
 -->
<!-- Title: GameStateMachine Pages: 1 -->
<svg width="373pt" height="741pt"
 viewBox="0.00 0.00 373.00 741.00" xmlns="http://www.w3.org/2000/svg" xmlns:xlink="http://www.w3.org/1999/xlink">
<g id="graph0" class="graph" transform="scale(1 1) rotate(0) translate(4 737)">
<title>GameStateMachine</title>
<polygon fill="white" stroke="none" points="-4,4 -4,-737 369,-737 369,4 -4,4"/>
<!-- Node3 -->
<g id="node1" class="node"><title>Node3</title>
<polygon fill="#bfbfbf" stroke="black" points="183.5,-0.5 183.5,-90.5 329.5,-90.5 329.5,-0.5 183.5,-0.5"/>
<text text-anchor="middle" x="256.5" y="-78.5" font-family="Helvetica,sans-Serif" font-size="10.00">GameStateMachine</text>
<polyline fill="none" stroke="black" points="183.5,-71.5 329.5,-71.5 "/>
<text text-anchor="middle" x="256.5" y="-59.5" font-family="Helvetica,sans-Serif" font-size="10.00"> </text>
<polyline fill="none" stroke="black" points="183.5,-52.5 329.5,-52.5 "/>
<text text-anchor="start" x="191.5" y="-40.5" font-family="Helvetica,sans-Serif" font-size="10.00">+ MatchStartup()</text>
<text text-anchor="start" x="191.5" y="-29.5" font-family="Helvetica,sans-Serif" font-size="10.00">+ GameOver()</text>
<text text-anchor="start" x="191.5" y="-18.5" font-family="Helvetica,sans-Serif" font-size="10.00"># MyAwake()</text>
<text text-anchor="start" x="191.5" y="-7.5" font-family="Helvetica,sans-Serif" font-size="10.00">&#45; TriggerNetworkedTransition()</text>
</g>
<!-- Node4 -->
<g id="node2" class="node"><title>Node4</title>
<g id="a_node2"><a xlink:href="class_state_machine.html" target="_top" xlink:title="Common Base class for all state machines. ">
<polygon fill="white" stroke="black" points="77.5,-166 77.5,-322 207.5,-322 207.5,-166 77.5,-166"/>
<text text-anchor="middle" x="142.5" y="-310" font-family="Helvetica,sans-Serif" font-size="10.00">StateMachine</text>
<polyline fill="none" stroke="black" points="77.5,-303 207.5,-303 "/>
<text text-anchor="start" x="85.5" y="-291" font-family="Helvetica,sans-Serif" font-size="10.00">+ logEnabled</text>
<text text-anchor="start" x="85.5" y="-280" font-family="Helvetica,sans-Serif" font-size="10.00">+ globalValidTriggers</text>
<text text-anchor="start" x="85.5" y="-269" font-family="Helvetica,sans-Serif" font-size="10.00"># controller</text>
<text text-anchor="start" x="85.5" y="-258" font-family="Helvetica,sans-Serif" font-size="10.00">&#45; states</text>
<polyline fill="none" stroke="black" points="77.5,-251 207.5,-251 "/>
<text text-anchor="start" x="85.5" y="-239" font-family="Helvetica,sans-Serif" font-size="10.00">+ GetActiveState()</text>
<text text-anchor="start" x="85.5" y="-228" font-family="Helvetica,sans-Serif" font-size="10.00">+ TriggerTransition()</text>
<text text-anchor="start" x="85.5" y="-217" font-family="Helvetica,sans-Serif" font-size="10.00">+ TriggerTransition()</text>
<text text-anchor="start" x="85.5" y="-206" font-family="Helvetica,sans-Serif" font-size="10.00">+ TriggerTransition()</text>
<text text-anchor="start" x="85.5" y="-195" font-family="Helvetica,sans-Serif" font-size="10.00">+ AnnounceCurrentState()</text>
<text text-anchor="start" x="85.5" y="-184" font-family="Helvetica,sans-Serif" font-size="10.00"># MyAwake()</text>
<text text-anchor="start" x="85.5" y="-173" font-family="Helvetica,sans-Serif" font-size="10.00">&#45; Awake()</text>
</a>
</g>
</g>
<!-- Node4&#45;&gt;Node3 -->
<g id="edge1" class="edge"><title>Node4&#45;&gt;Node3</title>
<path fill="none" stroke="midnightblue" d="M192.313,-157.139C205.662,-134.128 219.546,-110.196 230.973,-90.5009"/>
<polygon fill="none" stroke="midnightblue" points="189.219,-155.496 187.229,-165.902 195.274,-159.009 189.219,-155.496"/>
</g>
<!-- Node5 -->
<g id="node3" class="node"><title>Node5</title>
<polygon fill="white" stroke="#bfbfbf" points="0,-408.5 0,-465.5 83,-465.5 83,-408.5 0,-408.5"/>
<text text-anchor="middle" x="41.5" y="-453.5" font-family="Helvetica,sans-Serif" font-size="10.00">MonoBehaviour</text>
<polyline fill="none" stroke="#bfbfbf" points="0,-446.5 83,-446.5 "/>
<text text-anchor="middle" x="41.5" y="-434.5" font-family="Helvetica,sans-Serif" font-size="10.00"> </text>
<polyline fill="none" stroke="#bfbfbf" points="0,-427.5 83,-427.5 "/>
<text text-anchor="middle" x="41.5" y="-415.5" font-family="Helvetica,sans-Serif" font-size="10.00"> </text>
</g>
<!-- Node5&#45;&gt;Node4 -->
<g id="edge2" class="edge"><title>Node5&#45;&gt;Node4</title>
<path fill="none" stroke="midnightblue" d="M60.9029,-399.307C72.4468,-377.477 87.5404,-348.934 101.603,-322.341"/>
<polygon fill="none" stroke="midnightblue" points="57.7669,-397.751 56.1863,-408.227 63.955,-401.023 57.7669,-397.751"/>
</g>
<!-- Node6 -->
<g id="node4" class="node"><title>Node6</title>
<g id="a_node4"><a xlink:href="interface_i_state.html" target="_top" xlink:title="{IState\n||+ GetName()\l+ GetTriggers()\l+ Init()\l}">
<polygon fill="white" stroke="black" points="101.5,-397.5 101.5,-476.5 183.5,-476.5 183.5,-397.5 101.5,-397.5"/>
<text text-anchor="middle" x="142.5" y="-464.5" font-family="Helvetica,sans-Serif" font-size="10.00">IState</text>
<polyline fill="none" stroke="black" points="101.5,-457.5 183.5,-457.5 "/>
<text text-anchor="middle" x="142.5" y="-445.5" font-family="Helvetica,sans-Serif" font-size="10.00"> </text>
<polyline fill="none" stroke="black" points="101.5,-438.5 183.5,-438.5 "/>
<text text-anchor="start" x="109.5" y="-426.5" font-family="Helvetica,sans-Serif" font-size="10.00">+ GetName()</text>
<text text-anchor="start" x="109.5" y="-415.5" font-family="Helvetica,sans-Serif" font-size="10.00">+ GetTriggers()</text>
<text text-anchor="start" x="109.5" y="-404.5" font-family="Helvetica,sans-Serif" font-size="10.00">+ Init()</text>
</a>
</g>
</g>
<!-- Node6&#45;&gt;Node4 -->
<g id="edge3" class="edge"><title>Node6&#45;&gt;Node4</title>
<path fill="none" stroke="#404040" d="M142.5,-397.348C142.5,-379.138 142.5,-356.591 142.5,-334.476"/>
<polygon fill="none" stroke="#404040" points="142.5,-334.265 138.5,-328.265 142.5,-322.265 146.5,-328.265 142.5,-334.265"/>
<text text-anchor="middle" x="171" y="-371" font-family="Helvetica,sans-Serif" font-size="10.00"> #activeState</text>
</g>
<!-- Node7 -->
<g id="node5" class="node"><title>Node7</title>
<g id="a_node5"><a xlink:href="class_game_string_event.html" target="_top" xlink:title="{GameStringEvent\n||}">
<polygon fill="white" stroke="black" points="201.5,-408.5 201.5,-465.5 293.5,-465.5 293.5,-408.5 201.5,-408.5"/>
<text text-anchor="middle" x="247.5" y="-453.5" font-family="Helvetica,sans-Serif" font-size="10.00">GameStringEvent</text>
<polyline fill="none" stroke="black" points="201.5,-446.5 293.5,-446.5 "/>
<text text-anchor="middle" x="247.5" y="-434.5" font-family="Helvetica,sans-Serif" font-size="10.00"> </text>
<polyline fill="none" stroke="black" points="201.5,-427.5 293.5,-427.5 "/>
<text text-anchor="middle" x="247.5" y="-415.5" font-family="Helvetica,sans-Serif" font-size="10.00"> </text>
</a>
</g>
</g>
<!-- Node7&#45;&gt;Node4 -->
<g id="edge4" class="edge"><title>Node7&#45;&gt;Node4</title>
<path fill="none" stroke="#404040" d="M232.232,-408.227C221.286,-388.315 205.89,-360.31 190.937,-333.109"/>
<polygon fill="none" stroke="#404040" points="190.798,-332.856 184.402,-329.526 185.017,-322.341 191.413,-325.672 190.798,-332.856"/>
<text text-anchor="middle" x="259" y="-371" font-family="Helvetica,sans-Serif" font-size="10.00"> +stateEnteredEvent</text>
</g>
<!-- Node8 -->
<g id="node6" class="node"><title>Node8</title>
<g id="a_node6"><a xlink:href="class_game_event.html" target="_top" xlink:title="{GameEvent\&lt; string \&gt;\n|+ Event\l+ Event\l|+ Invoke()\l+ Invoke()\l+ AddListener()\l+ AddListener()\l+ RemovedListener()\l+ RemoveListener()\l}">
<polygon fill="white" stroke="black" points="193,-514.5 193,-637.5 302,-637.5 302,-514.5 193,-514.5"/>
<text text-anchor="middle" x="247.5" y="-625.5" font-family="Helvetica,sans-Serif" font-size="10.00">GameEvent&lt; string &gt;</text>
<polyline fill="none" stroke="black" points="193,-618.5 302,-618.5 "/>
<text text-anchor="start" x="201" y="-606.5" font-family="Helvetica,sans-Serif" font-size="10.00">+ Event</text>
<text text-anchor="start" x="201" y="-595.5" font-family="Helvetica,sans-Serif" font-size="10.00">+ Event</text>
<polyline fill="none" stroke="black" points="193,-588.5 302,-588.5 "/>
<text text-anchor="start" x="201" y="-576.5" font-family="Helvetica,sans-Serif" font-size="10.00">+ Invoke()</text>
<text text-anchor="start" x="201" y="-565.5" font-family="Helvetica,sans-Serif" font-size="10.00">+ Invoke()</text>
<text text-anchor="start" x="201" y="-554.5" font-family="Helvetica,sans-Serif" font-size="10.00">+ AddListener()</text>
<text text-anchor="start" x="201" y="-543.5" font-family="Helvetica,sans-Serif" font-size="10.00">+ AddListener()</text>
<text text-anchor="start" x="201" y="-532.5" font-family="Helvetica,sans-Serif" font-size="10.00">+ RemovedListener()</text>
<text text-anchor="start" x="201" y="-521.5" font-family="Helvetica,sans-Serif" font-size="10.00">+ RemoveListener()</text>
</a>
</g>
</g>
<!-- Node8&#45;&gt;Node7 -->
<g id="edge5" class="edge"><title>Node8&#45;&gt;Node7</title>
<path fill="none" stroke="midnightblue" d="M247.5,-503.792C247.5,-490.288 247.5,-476.924 247.5,-465.804"/>
<polygon fill="none" stroke="midnightblue" points="244,-504.112 247.5,-514.112 251,-504.112 244,-504.112"/>
</g>
<!-- Node9 -->
<g id="node7" class="node"><title>Node9</title>
<polygon fill="white" stroke="#bfbfbf" points="203,-675.5 203,-732.5 292,-732.5 292,-675.5 203,-675.5"/>
<text text-anchor="middle" x="247.5" y="-720.5" font-family="Helvetica,sans-Serif" font-size="10.00">ScriptableObject</text>
<polyline fill="none" stroke="#bfbfbf" points="203,-713.5 292,-713.5 "/>
<text text-anchor="middle" x="247.5" y="-701.5" font-family="Helvetica,sans-Serif" font-size="10.00"> </text>
<polyline fill="none" stroke="#bfbfbf" points="203,-694.5 292,-694.5 "/>
<text text-anchor="middle" x="247.5" y="-682.5" font-family="Helvetica,sans-Serif" font-size="10.00"> </text>
</g>
<!-- Node9&#45;&gt;Node8 -->
<g id="edge6" class="edge"><title>Node9&#45;&gt;Node8</title>
<path fill="none" stroke="midnightblue" d="M247.5,-665.182C247.5,-656.491 247.5,-647.033 247.5,-637.646"/>
<polygon fill="none" stroke="midnightblue" points="244,-665.349 247.5,-675.349 251,-665.349 244,-665.349"/>
</g>
<!-- Node10 -->
<g id="node8" class="node"><title>Node10</title>
<g id="a_node8"><a xlink:href="classnet_1_1_net_event.html" target="_top" xlink:title="{NetEvent\&lt; StringNetData \&gt;\n|&#45; eventCode\l&#45; localEvent\l&#45; target\l&#45; defaultData\l&#45; reliable\l&#45; cachedForRoom\l&#45; hasDefaultData\l|+ NetEvent()\l+ NetEvent()\l+ AddListener()\l+ RemoveListener()\l+ Invoke()\l+ Invoke()\l+ OnEvent()\l&#45; ~NetEvent()\l&#45; GetSpecificTargetActorNr()\l}">
<polygon fill="white" stroke="black" points="226,-138.5 226,-349.5 365,-349.5 365,-138.5 226,-138.5"/>
<text text-anchor="middle" x="295.5" y="-337.5" font-family="Helvetica,sans-Serif" font-size="10.00">NetEvent&lt; StringNetData &gt;</text>
<polyline fill="none" stroke="black" points="226,-330.5 365,-330.5 "/>
<text text-anchor="start" x="234" y="-318.5" font-family="Helvetica,sans-Serif" font-size="10.00">&#45; eventCode</text>
<text text-anchor="start" x="234" y="-307.5" font-family="Helvetica,sans-Serif" font-size="10.00">&#45; localEvent</text>
<text text-anchor="start" x="234" y="-296.5" font-family="Helvetica,sans-Serif" font-size="10.00">&#45; target</text>
<text text-anchor="start" x="234" y="-285.5" font-family="Helvetica,sans-Serif" font-size="10.00">&#45; defaultData</text>
<text text-anchor="start" x="234" y="-274.5" font-family="Helvetica,sans-Serif" font-size="10.00">&#45; reliable</text>
<text text-anchor="start" x="234" y="-263.5" font-family="Helvetica,sans-Serif" font-size="10.00">&#45; cachedForRoom</text>
<text text-anchor="start" x="234" y="-252.5" font-family="Helvetica,sans-Serif" font-size="10.00">&#45; hasDefaultData</text>
<polyline fill="none" stroke="black" points="226,-245.5 365,-245.5 "/>
<text text-anchor="start" x="234" y="-233.5" font-family="Helvetica,sans-Serif" font-size="10.00">+ NetEvent()</text>
<text text-anchor="start" x="234" y="-222.5" font-family="Helvetica,sans-Serif" font-size="10.00">+ NetEvent()</text>
<text text-anchor="start" x="234" y="-211.5" font-family="Helvetica,sans-Serif" font-size="10.00">+ AddListener()</text>
<text text-anchor="start" x="234" y="-200.5" font-family="Helvetica,sans-Serif" font-size="10.00">+ RemoveListener()</text>
<text text-anchor="start" x="234" y="-189.5" font-family="Helvetica,sans-Serif" font-size="10.00">+ Invoke()</text>
<text text-anchor="start" x="234" y="-178.5" font-family="Helvetica,sans-Serif" font-size="10.00">+ Invoke()</text>
<text text-anchor="start" x="234" y="-167.5" font-family="Helvetica,sans-Serif" font-size="10.00">+ OnEvent()</text>
<text text-anchor="start" x="234" y="-156.5" font-family="Helvetica,sans-Serif" font-size="10.00">&#45; ~NetEvent()</text>
<text text-anchor="start" x="234" y="-145.5" font-family="Helvetica,sans-Serif" font-size="10.00">&#45; GetSpecificTargetActorNr()</text>
</a>
</g>
</g>
<!-- Node10&#45;&gt;Node3 -->
<g id="edge7" class="edge"><title>Node10&#45;&gt;Node3</title>
<path fill="none" stroke="#404040" d="M274.744,-138.421C272.286,-126.036 269.855,-113.786 267.607,-102.462"/>
<polygon fill="none" stroke="#404040" points="267.584,-102.346 262.492,-97.2394 265.248,-90.5755 270.339,-95.682 267.584,-102.346"/>
<text text-anchor="middle" x="307" y="-112" font-family="Helvetica,sans-Serif" font-size="10.00"> +transitionEvent</text>
</g>
</g>
</svg>
