<?xml version="1.0" encoding="UTF-8" standalone="no"?>
<!DOCTYPE svg PUBLIC "-//W3C//DTD SVG 1.1//EN"
 "http://www.w3.org/Graphics/SVG/1.1/DTD/svg11.dtd">
<!-- Generated by graphviz version 2.38.0 (20140413.2041)
 -->
<!-- Title: NetEvent&lt; NetDataType &gt; Pages: 1 -->
<svg width="256pt" height="420pt"
 viewBox="0.00 0.00 256.00 420.00" xmlns="http://www.w3.org/2000/svg" xmlns:xlink="http://www.w3.org/1999/xlink">
<g id="graph0" class="graph" transform="scale(1 1) rotate(0) translate(4 416)">
<title>NetEvent&lt; NetDataType &gt;</title>
<polygon fill="white" stroke="none" points="-4,4 -4,-416 252,-416 252,4 -4,4"/>
<!-- Node2 -->
<g id="node1" class="node"><title>Node2</title>
<polygon fill="#bfbfbf" stroke="black" points="18,-0.5 18,-200.5 157,-200.5 157,-0.5 18,-0.5"/>
<text text-anchor="middle" x="87.5" y="-188.5" font-family="Helvetica,sans-Serif" font-size="10.00">NetEvent&lt; NetDataType &gt;</text>
<polyline fill="none" stroke="black" points="18,-181.5 157,-181.5 "/>
<text text-anchor="start" x="26" y="-169.5" font-family="Helvetica,sans-Serif" font-size="10.00">&#45; eventCode</text>
<text text-anchor="start" x="26" y="-158.5" font-family="Helvetica,sans-Serif" font-size="10.00">&#45; target</text>
<text text-anchor="start" x="26" y="-147.5" font-family="Helvetica,sans-Serif" font-size="10.00">&#45; defaultData</text>
<text text-anchor="start" x="26" y="-136.5" font-family="Helvetica,sans-Serif" font-size="10.00">&#45; reliable</text>
<text text-anchor="start" x="26" y="-125.5" font-family="Helvetica,sans-Serif" font-size="10.00">&#45; cachedForRoom</text>
<text text-anchor="start" x="26" y="-114.5" font-family="Helvetica,sans-Serif" font-size="10.00">&#45; hasDefaultData</text>
<polyline fill="none" stroke="black" points="18,-107.5 157,-107.5 "/>
<text text-anchor="start" x="26" y="-95.5" font-family="Helvetica,sans-Serif" font-size="10.00">+ NetEvent()</text>
<text text-anchor="start" x="26" y="-84.5" font-family="Helvetica,sans-Serif" font-size="10.00">+ NetEvent()</text>
<text text-anchor="start" x="26" y="-73.5" font-family="Helvetica,sans-Serif" font-size="10.00">+ AddListener()</text>
<text text-anchor="start" x="26" y="-62.5" font-family="Helvetica,sans-Serif" font-size="10.00">+ RemoveListener()</text>
<text text-anchor="start" x="26" y="-51.5" font-family="Helvetica,sans-Serif" font-size="10.00">+ Invoke()</text>
<text text-anchor="start" x="26" y="-40.5" font-family="Helvetica,sans-Serif" font-size="10.00">+ Invoke()</text>
<text text-anchor="start" x="26" y="-29.5" font-family="Helvetica,sans-Serif" font-size="10.00">+ OnEvent()</text>
<text text-anchor="start" x="26" y="-18.5" font-family="Helvetica,sans-Serif" font-size="10.00">&#45; ~NetEvent()</text>
<text text-anchor="start" x="26" y="-7.5" font-family="Helvetica,sans-Serif" font-size="10.00">&#45; GetSpecificTargetActorNr()</text>
</g>
<!-- Node3 -->
<g id="node2" class="node"><title>Node3</title>
<polygon fill="white" stroke="#bfbfbf" points="0,-254 0,-311 93,-311 93,-254 0,-254"/>
<text text-anchor="middle" x="46.5" y="-299" font-family="Helvetica,sans-Serif" font-size="10.00">IOnEventCallback</text>
<polyline fill="none" stroke="#bfbfbf" points="0,-292 93,-292 "/>
<text text-anchor="middle" x="46.5" y="-280" font-family="Helvetica,sans-Serif" font-size="10.00"> </text>
<polyline fill="none" stroke="#bfbfbf" points="0,-273 93,-273 "/>
<text text-anchor="middle" x="46.5" y="-261" font-family="Helvetica,sans-Serif" font-size="10.00"> </text>
</g>
<!-- Node3&#45;&gt;Node2 -->
<g id="edge1" class="edge"><title>Node3&#45;&gt;Node2</title>
<path fill="none" stroke="midnightblue" d="M55.0425,-243.996C57.9611,-231.183 61.3768,-216.187 64.876,-200.825"/>
<polygon fill="none" stroke="midnightblue" points="51.6248,-243.242 52.8164,-253.769 58.45,-244.797 51.6248,-243.242"/>
</g>
<!-- Node4 -->
<g id="node3" class="node"><title>Node4</title>
<g id="a_node3"><a xlink:href="classnet_1_1_net_event_1_1_unity_event_with_cust_type.html" target="_top" xlink:title="It is somehow necessary to create this and get rid of the template parameter. ">
<polygon fill="white" stroke="black" points="111,-248.5 111,-316.5 248,-316.5 248,-248.5 111,-248.5"/>
<text text-anchor="start" x="119" y="-304.5" font-family="Helvetica,sans-Serif" font-size="10.00">NetEvent&lt; NetDataType</text>
<text text-anchor="middle" x="179.5" y="-293.5" font-family="Helvetica,sans-Serif" font-size="10.00"> &gt;.UnityEventWithCustType</text>
<polyline fill="none" stroke="black" points="111,-286.5 248,-286.5 "/>
<text text-anchor="middle" x="179.5" y="-274.5" font-family="Helvetica,sans-Serif" font-size="10.00"> </text>
<polyline fill="none" stroke="black" points="111,-267.5 248,-267.5 "/>
<text text-anchor="middle" x="179.5" y="-255.5" font-family="Helvetica,sans-Serif" font-size="10.00"> </text>
</a>
</g>
</g>
<!-- Node4&#45;&gt;Node2 -->
<g id="edge2" class="edge"><title>Node4&#45;&gt;Node2</title>
<path fill="none" stroke="#404040" d="M162.626,-248.485C157.059,-237.594 150.526,-224.811 143.675,-211.408"/>
<polygon fill="none" stroke="#404040" points="143.587,-211.235 137.295,-207.713 138.126,-200.55 144.418,-204.072 143.587,-211.235"/>
<text text-anchor="middle" x="177" y="-222" font-family="Helvetica,sans-Serif" font-size="10.00"> &#45;localEvent</text>
</g>
<!-- Node5 -->
<g id="node4" class="node"><title>Node5</title>
<polygon fill="white" stroke="#bfbfbf" points="111,-354.5 111,-411.5 248,-411.5 248,-354.5 111,-354.5"/>
<text text-anchor="middle" x="179.5" y="-399.5" font-family="Helvetica,sans-Serif" font-size="10.00">UnityEvent&lt; NetDataType &gt;</text>
<polyline fill="none" stroke="#bfbfbf" points="111,-392.5 248,-392.5 "/>
<text text-anchor="middle" x="179.5" y="-380.5" font-family="Helvetica,sans-Serif" font-size="10.00"> </text>
<polyline fill="none" stroke="#bfbfbf" points="111,-373.5 248,-373.5 "/>
<text text-anchor="middle" x="179.5" y="-361.5" font-family="Helvetica,sans-Serif" font-size="10.00"> </text>
</g>
<!-- Node5&#45;&gt;Node4 -->
<g id="edge3" class="edge"><title>Node5&#45;&gt;Node4</title>
<path fill="none" stroke="midnightblue" d="M179.5,-344.007C179.5,-334.962 179.5,-325.383 179.5,-316.578"/>
<polygon fill="none" stroke="midnightblue" points="176,-344.3 179.5,-354.3 183,-344.3 176,-344.3"/>
</g>
</g>
</svg>
