<?xml version="1.0" encoding="UTF-8" standalone="no"?>
<!DOCTYPE svg PUBLIC "-//W3C//DTD SVG 1.1//EN"
 "http://www.w3.org/Graphics/SVG/1.1/DTD/svg11.dtd">
<!-- Generated by graphviz version 2.38.0 (20140413.2041)
 -->
<!-- Title: HelpAttribute Pages: 1 -->
<svg width="98pt" height="171pt"
 viewBox="0.00 0.00 98.00 171.00" xmlns="http://www.w3.org/2000/svg" xmlns:xlink="http://www.w3.org/1999/xlink">
<g id="graph0" class="graph" transform="scale(1 1) rotate(0) translate(4 167)">
<title>HelpAttribute</title>
<polygon fill="white" stroke="none" points="-4,4 -4,-167 94,-167 94,4 -4,4"/>
<!-- Node0 -->
<g id="node1" class="node"><title>Node0</title>
<polygon fill="#bfbfbf" stroke="black" points="1,-0.5 1,-68.5 89,-68.5 89,-0.5 1,-0.5"/>
<text text-anchor="middle" x="45" y="-56.5" font-family="Helvetica,sans-Serif" font-size="10.00">HelpAttribute</text>
<polyline fill="none" stroke="black" points="1,-49.5 89,-49.5 "/>
<text text-anchor="start" x="9" y="-37.5" font-family="Helvetica,sans-Serif" font-size="10.00">+ text</text>
<text text-anchor="start" x="9" y="-26.5" font-family="Helvetica,sans-Serif" font-size="10.00">+ type</text>
<polyline fill="none" stroke="black" points="1,-19.5 89,-19.5 "/>
<text text-anchor="start" x="9" y="-7.5" font-family="Helvetica,sans-Serif" font-size="10.00">+ HelpAttribute()</text>
</g>
<!-- Node1 -->
<g id="node2" class="node"><title>Node1</title>
<polygon fill="white" stroke="#bfbfbf" points="0,-105.5 0,-162.5 90,-162.5 90,-105.5 0,-105.5"/>
<text text-anchor="middle" x="45" y="-150.5" font-family="Helvetica,sans-Serif" font-size="10.00">PropertyAttribute</text>
<polyline fill="none" stroke="#bfbfbf" points="0,-143.5 90,-143.5 "/>
<text text-anchor="middle" x="45" y="-131.5" font-family="Helvetica,sans-Serif" font-size="10.00"> </text>
<polyline fill="none" stroke="#bfbfbf" points="0,-124.5 90,-124.5 "/>
<text text-anchor="middle" x="45" y="-112.5" font-family="Helvetica,sans-Serif" font-size="10.00"> </text>
</g>
<!-- Node1&#45;&gt;Node0 -->
<g id="edge1" class="edge"><title>Node1&#45;&gt;Node0</title>
<path fill="none" stroke="midnightblue" d="M45,-95.0631C45,-86.3933 45,-77.2431 45,-68.7855"/>
<polygon fill="none" stroke="midnightblue" points="41.5001,-95.3212 45,-105.321 48.5001,-95.3212 41.5001,-95.3212"/>
</g>
</g>
</svg>
