<?xml version="1.0" encoding="UTF-8" standalone="no"?>
<!DOCTYPE svg PUBLIC "-//W3C//DTD SVG 1.1//EN"
 "http://www.w3.org/Graphics/SVG/1.1/DTD/svg11.dtd">
<!-- Generated by graphviz version 2.38.0 (20140413.2041)
 -->
<!-- Title: UnitSpriteAnimator Pages: 1 -->
<svg width="137pt" height="226pt"
 viewBox="0.00 0.00 137.00 226.00" xmlns="http://www.w3.org/2000/svg" xmlns:xlink="http://www.w3.org/1999/xlink">
<g id="graph0" class="graph" transform="scale(1 1) rotate(0) translate(4 222)">
<title>UnitSpriteAnimator</title>
<polygon fill="white" stroke="none" points="-4,4 -4,-222 133,-222 133,4 -4,4"/>
<!-- Node0 -->
<g id="node1" class="node"><title>Node0</title>
<polygon fill="#bfbfbf" stroke="black" points="0,-0.5 0,-123.5 129,-123.5 129,-0.5 0,-0.5"/>
<text text-anchor="middle" x="64.5" y="-111.5" font-family="Helvetica,sans-Serif" font-size="10.00">UnitSpriteAnimator</text>
<polyline fill="none" stroke="black" points="0,-104.5 129,-104.5 "/>
<text text-anchor="start" x="8" y="-92.5" font-family="Helvetica,sans-Serif" font-size="10.00">&#45; v</text>
<text text-anchor="start" x="8" y="-81.5" font-family="Helvetica,sans-Serif" font-size="10.00">&#45; rb</text>
<text text-anchor="start" x="8" y="-70.5" font-family="Helvetica,sans-Serif" font-size="10.00">&#45; anim</text>
<text text-anchor="start" x="8" y="-59.5" font-family="Helvetica,sans-Serif" font-size="10.00">&#45; rbLastPos</text>
<polyline fill="none" stroke="black" points="0,-52.5 129,-52.5 "/>
<text text-anchor="start" x="8" y="-40.5" font-family="Helvetica,sans-Serif" font-size="10.00">+ AnimateAttack()</text>
<text text-anchor="start" x="8" y="-29.5" font-family="Helvetica,sans-Serif" font-size="10.00">&#45; Awake()</text>
<text text-anchor="start" x="8" y="-18.5" font-family="Helvetica,sans-Serif" font-size="10.00">&#45; FixedUpdate()</text>
<text text-anchor="start" x="8" y="-7.5" font-family="Helvetica,sans-Serif" font-size="10.00">&#45; UpdateTrackedVelocity()</text>
</g>
<!-- Node1 -->
<g id="node2" class="node"><title>Node1</title>
<polygon fill="white" stroke="#bfbfbf" points="23,-160.5 23,-217.5 106,-217.5 106,-160.5 23,-160.5"/>
<text text-anchor="middle" x="64.5" y="-205.5" font-family="Helvetica,sans-Serif" font-size="10.00">MonoBehaviour</text>
<polyline fill="none" stroke="#bfbfbf" points="23,-198.5 106,-198.5 "/>
<text text-anchor="middle" x="64.5" y="-186.5" font-family="Helvetica,sans-Serif" font-size="10.00"> </text>
<polyline fill="none" stroke="#bfbfbf" points="23,-179.5 106,-179.5 "/>
<text text-anchor="middle" x="64.5" y="-167.5" font-family="Helvetica,sans-Serif" font-size="10.00"> </text>
</g>
<!-- Node1&#45;&gt;Node0 -->
<g id="edge1" class="edge"><title>Node1&#45;&gt;Node0</title>
<path fill="none" stroke="midnightblue" d="M64.5,-150.099C64.5,-141.739 64.5,-132.68 64.5,-123.672"/>
<polygon fill="none" stroke="midnightblue" points="61.0001,-150.258 64.5,-160.258 68.0001,-150.258 61.0001,-150.258"/>
</g>
</g>
</svg>
