<?xml version="1.0" encoding="UTF-8" standalone="no"?>
<!DOCTYPE svg PUBLIC "-//W3C//DTD SVG 1.1//EN"
 "http://www.w3.org/Graphics/SVG/1.1/DTD/svg11.dtd">
<!-- Generated by graphviz version 2.38.0 (20140413.2041)
 -->
<!-- Title: NetManager Pages: 1 -->
<svg width="1039pt" height="1177pt"
 viewBox="0.00 0.00 1038.50 1177.00" xmlns="http://www.w3.org/2000/svg" xmlns:xlink="http://www.w3.org/1999/xlink">
<g id="graph0" class="graph" transform="scale(1 1) rotate(0) translate(4 1173)">
<title>NetManager</title>
<polygon fill="white" stroke="none" points="-4,4 -4,-1173 1034.5,-1173 1034.5,4 -4,4"/>
<!-- Node2 -->
<g id="node1" class="node"><title>Node2</title>
<polygon fill="#bfbfbf" stroke="black" points="469,-0.5 469,-321.5 604,-321.5 604,-0.5 469,-0.5"/>
<text text-anchor="middle" x="536.5" y="-309.5" font-family="Helvetica,sans-Serif" font-size="10.00">NetManager</text>
<polyline fill="none" stroke="black" points="469,-302.5 604,-302.5 "/>
<text text-anchor="start" x="477" y="-290.5" font-family="Helvetica,sans-Serif" font-size="10.00">+ logEnabled</text>
<text text-anchor="start" x="477" y="-279.5" font-family="Helvetica,sans-Serif" font-size="10.00">+ connectedToMasterEvent</text>
<text text-anchor="start" x="477" y="-268.5" font-family="Helvetica,sans-Serif" font-size="10.00">+ hostingEvent</text>
<text text-anchor="start" x="477" y="-257.5" font-family="Helvetica,sans-Serif" font-size="10.00">+ hostingFailedEvent</text>
<text text-anchor="start" x="477" y="-246.5" font-family="Helvetica,sans-Serif" font-size="10.00">+ joinedRoomEvent</text>
<text text-anchor="start" x="477" y="-235.5" font-family="Helvetica,sans-Serif" font-size="10.00">+ joinRoomFailedEvent</text>
<text text-anchor="start" x="477" y="-224.5" font-family="Helvetica,sans-Serif" font-size="10.00">+ leftRoomEvent</text>
<text text-anchor="start" x="477" y="-213.5" font-family="Helvetica,sans-Serif" font-size="10.00">+ disconnectEvent</text>
<text text-anchor="start" x="477" y="-202.5" font-family="Helvetica,sans-Serif" font-size="10.00">&#45; curRoomName</text>
<text text-anchor="start" x="477" y="-191.5" font-family="Helvetica,sans-Serif" font-size="10.00">&#45; offlineMode</text>
<text text-anchor="start" x="477" y="-180.5" font-family="Helvetica,sans-Serif" font-size="10.00">&#45; lastReturnCode</text>
<polyline fill="none" stroke="black" points="469,-173.5 604,-173.5 "/>
<text text-anchor="start" x="477" y="-161.5" font-family="Helvetica,sans-Serif" font-size="10.00">+ Awake()</text>
<text text-anchor="start" x="477" y="-150.5" font-family="Helvetica,sans-Serif" font-size="10.00">+ Start()</text>
<text text-anchor="start" x="477" y="-139.5" font-family="Helvetica,sans-Serif" font-size="10.00">+ IsMaster()</text>
<text text-anchor="start" x="477" y="-128.5" font-family="Helvetica,sans-Serif" font-size="10.00">+ Connect()</text>
<text text-anchor="start" x="477" y="-117.5" font-family="Helvetica,sans-Serif" font-size="10.00">+ Join()</text>
<text text-anchor="start" x="477" y="-106.5" font-family="Helvetica,sans-Serif" font-size="10.00">+ Destroy()</text>
<text text-anchor="start" x="477" y="-95.5" font-family="Helvetica,sans-Serif" font-size="10.00">+ GetLastReturnCode()</text>
<text text-anchor="start" x="477" y="-84.5" font-family="Helvetica,sans-Serif" font-size="10.00">+ OnConnectedToMaster()</text>
<text text-anchor="start" x="477" y="-73.5" font-family="Helvetica,sans-Serif" font-size="10.00">+ OnJoinedRoom()</text>
<text text-anchor="start" x="477" y="-62.5" font-family="Helvetica,sans-Serif" font-size="10.00">+ OnCreateRoomFailed()</text>
<text text-anchor="start" x="477" y="-51.5" font-family="Helvetica,sans-Serif" font-size="10.00">and 9 more...</text>
<text text-anchor="start" x="477" y="-40.5" font-family="Helvetica,sans-Serif" font-size="10.00">+ Get()</text>
<text text-anchor="start" x="477" y="-29.5" font-family="Helvetica,sans-Serif" font-size="10.00">+ GetStateMachine()</text>
<text text-anchor="start" x="477" y="-18.5" font-family="Helvetica,sans-Serif" font-size="10.00">+ GetCurState()</text>
<text text-anchor="start" x="477" y="-7.5" font-family="Helvetica,sans-Serif" font-size="10.00">&#45; Init()</text>
</g>
<!-- Node2&#45;&gt;Node2 -->
<g id="edge15" class="edge"><title>Node2&#45;&gt;Node2</title>
<path fill="none" stroke="#404040" d="M604.233,-193.648C614.798,-188.768 622,-177.885 622,-161 622,-150.183 619.044,-141.83 614.142,-135.939"/>
<polygon fill="none" stroke="#404040" points="613.761,-135.647 606.565,-135.175 604.233,-128.352 611.429,-128.824 613.761,-135.647"/>
<text text-anchor="middle" x="643.5" y="-158.5" font-family="Helvetica,sans-Serif" font-size="10.00"> &#45;instance</text>
</g>
<!-- Node3 -->
<g id="node2" class="node"><title>Node3</title>
<polygon fill="white" stroke="#bfbfbf" points="0,-457.5 0,-514.5 143,-514.5 143,-457.5 0,-457.5"/>
<text text-anchor="middle" x="71.5" y="-502.5" font-family="Helvetica,sans-Serif" font-size="10.00">MonoBehaviourPunCallbacks</text>
<polyline fill="none" stroke="#bfbfbf" points="0,-495.5 143,-495.5 "/>
<text text-anchor="middle" x="71.5" y="-483.5" font-family="Helvetica,sans-Serif" font-size="10.00"> </text>
<polyline fill="none" stroke="#bfbfbf" points="0,-476.5 143,-476.5 "/>
<text text-anchor="middle" x="71.5" y="-464.5" font-family="Helvetica,sans-Serif" font-size="10.00"> </text>
</g>
<!-- Node3&#45;&gt;Node2 -->
<g id="edge1" class="edge"><title>Node3&#45;&gt;Node2</title>
<path fill="none" stroke="midnightblue" d="M93.9289,-448.442C108.475,-426.753 128.887,-399.732 151.5,-380 249.888,-294.146 387.381,-226.184 468.656,-190.21"/>
<polygon fill="none" stroke="midnightblue" points="90.8261,-446.791 88.2604,-457.07 96.6764,-450.634 90.8261,-446.791"/>
</g>
<!-- Node4 -->
<g id="node3" class="node"><title>Node4</title>
<g id="a_node3"><a xlink:href="classnet_1_1_unity_client_properties_update_event.html" target="_top" xlink:title="{UnityClientPropertiesUpdate\lEvent\n||}">
<polygon fill="white" stroke="black" points="161,-452 161,-520 300,-520 300,-452 161,-452"/>
<text text-anchor="start" x="169" y="-508" font-family="Helvetica,sans-Serif" font-size="10.00">UnityClientPropertiesUpdate</text>
<text text-anchor="middle" x="230.5" y="-497" font-family="Helvetica,sans-Serif" font-size="10.00">Event</text>
<polyline fill="none" stroke="black" points="161,-490 300,-490 "/>
<text text-anchor="middle" x="230.5" y="-478" font-family="Helvetica,sans-Serif" font-size="10.00"> </text>
<polyline fill="none" stroke="black" points="161,-471 300,-471 "/>
<text text-anchor="middle" x="230.5" y="-459" font-family="Helvetica,sans-Serif" font-size="10.00"> </text>
</a>
</g>
</g>
<!-- Node4&#45;&gt;Node2 -->
<g id="edge2" class="edge"><title>Node4&#45;&gt;Node2</title>
<path fill="none" stroke="#404040" d="M230.796,-451.942C232.592,-420.567 239.375,-373.374 262.5,-340 310.578,-270.612 395.35,-221.746 457.908,-192.991"/>
<polygon fill="none" stroke="#404040" points="457.982,-192.957 461.81,-186.846 468.923,-188.028 465.096,-194.14 457.982,-192.957"/>
<text text-anchor="middle" x="328.5" y="-348.5" font-family="Helvetica,sans-Serif" font-size="10.00"> +clientPropertiesUpdateEvent</text>
</g>
<!-- Node5 -->
<g id="node4" class="node"><title>Node5</title>
<polygon fill="white" stroke="#bfbfbf" points="138,-673.5 138,-741.5 323,-741.5 323,-673.5 138,-673.5"/>
<text text-anchor="start" x="146" y="-729.5" font-family="Helvetica,sans-Serif" font-size="10.00">UnityEvent&lt; string,</text>
<text text-anchor="middle" x="230.5" y="-718.5" font-family="Helvetica,sans-Serif" font-size="10.00"> ExitGames.Client.Photon.Hashtable &gt;</text>
<polyline fill="none" stroke="#bfbfbf" points="138,-711.5 323,-711.5 "/>
<text text-anchor="middle" x="230.5" y="-699.5" font-family="Helvetica,sans-Serif" font-size="10.00"> </text>
<polyline fill="none" stroke="#bfbfbf" points="138,-692.5 323,-692.5 "/>
<text text-anchor="middle" x="230.5" y="-680.5" font-family="Helvetica,sans-Serif" font-size="10.00"> </text>
</g>
<!-- Node5&#45;&gt;Node4 -->
<g id="edge3" class="edge"><title>Node5&#45;&gt;Node4</title>
<path fill="none" stroke="midnightblue" d="M230.5,-662.966C230.5,-621.003 230.5,-558.414 230.5,-520.291"/>
<polygon fill="none" stroke="midnightblue" points="227,-663.163 230.5,-673.163 234,-663.163 227,-663.163"/>
</g>
<!-- Node6 -->
<g id="node5" class="node"><title>Node6</title>
<g id="a_node5"><a xlink:href="classnet_1_1_net_event.html" target="_top" xlink:title="{NetEvent\&lt; net.VoidNetData \&gt;\n|&#45; eventCode\l&#45; localEvent\l&#45; target\l&#45; defaultData\l&#45; reliable\l&#45; cachedForRoom\l&#45; hasDefaultData\l|+ NetEvent()\l+ NetEvent()\l+ AddListener()\l+ RemoveListener()\l+ Invoke()\l+ Invoke()\l+ OnEvent()\l&#45; ~NetEvent()\l&#45; GetSpecificTargetActorNr()\l}">
<polygon fill="white" stroke="black" points="318,-380.5 318,-591.5 463,-591.5 463,-380.5 318,-380.5"/>
<text text-anchor="middle" x="390.5" y="-579.5" font-family="Helvetica,sans-Serif" font-size="10.00">NetEvent&lt; net.VoidNetData &gt;</text>
<polyline fill="none" stroke="black" points="318,-572.5 463,-572.5 "/>
<text text-anchor="start" x="326" y="-560.5" font-family="Helvetica,sans-Serif" font-size="10.00">&#45; eventCode</text>
<text text-anchor="start" x="326" y="-549.5" font-family="Helvetica,sans-Serif" font-size="10.00">&#45; localEvent</text>
<text text-anchor="start" x="326" y="-538.5" font-family="Helvetica,sans-Serif" font-size="10.00">&#45; target</text>
<text text-anchor="start" x="326" y="-527.5" font-family="Helvetica,sans-Serif" font-size="10.00">&#45; defaultData</text>
<text text-anchor="start" x="326" y="-516.5" font-family="Helvetica,sans-Serif" font-size="10.00">&#45; reliable</text>
<text text-anchor="start" x="326" y="-505.5" font-family="Helvetica,sans-Serif" font-size="10.00">&#45; cachedForRoom</text>
<text text-anchor="start" x="326" y="-494.5" font-family="Helvetica,sans-Serif" font-size="10.00">&#45; hasDefaultData</text>
<polyline fill="none" stroke="black" points="318,-487.5 463,-487.5 "/>
<text text-anchor="start" x="326" y="-475.5" font-family="Helvetica,sans-Serif" font-size="10.00">+ NetEvent()</text>
<text text-anchor="start" x="326" y="-464.5" font-family="Helvetica,sans-Serif" font-size="10.00">+ NetEvent()</text>
<text text-anchor="start" x="326" y="-453.5" font-family="Helvetica,sans-Serif" font-size="10.00">+ AddListener()</text>
<text text-anchor="start" x="326" y="-442.5" font-family="Helvetica,sans-Serif" font-size="10.00">+ RemoveListener()</text>
<text text-anchor="start" x="326" y="-431.5" font-family="Helvetica,sans-Serif" font-size="10.00">+ Invoke()</text>
<text text-anchor="start" x="326" y="-420.5" font-family="Helvetica,sans-Serif" font-size="10.00">+ Invoke()</text>
<text text-anchor="start" x="326" y="-409.5" font-family="Helvetica,sans-Serif" font-size="10.00">+ OnEvent()</text>
<text text-anchor="start" x="326" y="-398.5" font-family="Helvetica,sans-Serif" font-size="10.00">&#45; ~NetEvent()</text>
<text text-anchor="start" x="326" y="-387.5" font-family="Helvetica,sans-Serif" font-size="10.00">&#45; GetSpecificTargetActorNr()</text>
</a>
</g>
</g>
<!-- Node6&#45;&gt;Node2 -->
<g id="edge4" class="edge"><title>Node6&#45;&gt;Node2</title>
<path fill="none" stroke="#404040" d="M393.737,-380.442C396.14,-366.568 399.597,-352.747 404.5,-340 417.653,-305.803 439.287,-272.415 461.272,-243.968"/>
<polygon fill="none" stroke="#404040" points="461.297,-243.937 461.873,-236.748 468.73,-234.516 468.154,-241.704 461.297,-243.937"/>
<text text-anchor="middle" x="467" y="-348.5" font-family="Helvetica,sans-Serif" font-size="10.00"> +backToMainMenuNetEvent</text>
</g>
<!-- Node7 -->
<g id="node6" class="node"><title>Node7</title>
<g id="a_node6"><a xlink:href="classnet_1_1_unity_string_event.html" target="_top" xlink:title="{UnityStringEvent\n||}">
<polygon fill="white" stroke="black" points="487,-457.5 487,-514.5 576,-514.5 576,-457.5 487,-457.5"/>
<text text-anchor="middle" x="531.5" y="-502.5" font-family="Helvetica,sans-Serif" font-size="10.00">UnityStringEvent</text>
<polyline fill="none" stroke="black" points="487,-495.5 576,-495.5 "/>
<text text-anchor="middle" x="531.5" y="-483.5" font-family="Helvetica,sans-Serif" font-size="10.00"> </text>
<polyline fill="none" stroke="black" points="487,-476.5 576,-476.5 "/>
<text text-anchor="middle" x="531.5" y="-464.5" font-family="Helvetica,sans-Serif" font-size="10.00"> </text>
</a>
</g>
</g>
<!-- Node7&#45;&gt;Node2 -->
<g id="edge5" class="edge"><title>Node7&#45;&gt;Node2</title>
<path fill="none" stroke="#404040" d="M531.926,-457.461C532.367,-428.981 533.095,-381.991 533.841,-333.775"/>
<polygon fill="none" stroke="#404040" points="533.845,-333.499 529.939,-327.438 534.031,-321.5 537.938,-327.561 533.845,-333.499"/>
<text text-anchor="middle" x="592.5" y="-354" font-family="Helvetica,sans-Serif" font-size="10.00"> +clientEnteredRoomEvent</text>
<text text-anchor="middle" x="592.5" y="-343" font-family="Helvetica,sans-Serif" font-size="10.00">+clientLeftRoomEvent</text>
</g>
<!-- Node8 -->
<g id="node7" class="node"><title>Node8</title>
<polygon fill="white" stroke="#bfbfbf" points="470,-679 470,-736 575,-736 575,-679 470,-679"/>
<text text-anchor="middle" x="522.5" y="-724" font-family="Helvetica,sans-Serif" font-size="10.00">UnityEvent&lt; string &gt;</text>
<polyline fill="none" stroke="#bfbfbf" points="470,-717 575,-717 "/>
<text text-anchor="middle" x="522.5" y="-705" font-family="Helvetica,sans-Serif" font-size="10.00"> </text>
<polyline fill="none" stroke="#bfbfbf" points="470,-698 575,-698 "/>
<text text-anchor="middle" x="522.5" y="-686" font-family="Helvetica,sans-Serif" font-size="10.00"> </text>
</g>
<!-- Node8&#45;&gt;Node7 -->
<g id="edge6" class="edge"><title>Node8&#45;&gt;Node7</title>
<path fill="none" stroke="midnightblue" d="M524.061,-668.431C525.861,-624.538 528.775,-553.456 530.369,-514.574"/>
<polygon fill="none" stroke="midnightblue" points="520.553,-668.565 523.64,-678.7 527.547,-668.852 520.553,-668.565"/>
</g>
<!-- Node9 -->
<g id="node8" class="node"><title>Node9</title>
<g id="a_node8"><a xlink:href="classnet_1_1_net_state_machine.html" target="_top" xlink:title="{NetStateMachine\n|+ netOverlayPrefab\l&#45; netOverlayInstance\l|+ IsMaster()\l+ GetCurStateName()\l+ GetNetOverlay()\l+ HideNetOverlay()\l# MyAwake()\l&#45; OnDisconnect()\l}">
<polygon fill="white" stroke="black" points="598,-424.5 598,-547.5 709,-547.5 709,-424.5 598,-424.5"/>
<text text-anchor="middle" x="653.5" y="-535.5" font-family="Helvetica,sans-Serif" font-size="10.00">NetStateMachine</text>
<polyline fill="none" stroke="black" points="598,-528.5 709,-528.5 "/>
<text text-anchor="start" x="606" y="-516.5" font-family="Helvetica,sans-Serif" font-size="10.00">+ netOverlayPrefab</text>
<text text-anchor="start" x="606" y="-505.5" font-family="Helvetica,sans-Serif" font-size="10.00">&#45; netOverlayInstance</text>
<polyline fill="none" stroke="black" points="598,-498.5 709,-498.5 "/>
<text text-anchor="start" x="606" y="-486.5" font-family="Helvetica,sans-Serif" font-size="10.00">+ IsMaster()</text>
<text text-anchor="start" x="606" y="-475.5" font-family="Helvetica,sans-Serif" font-size="10.00">+ GetCurStateName()</text>
<text text-anchor="start" x="606" y="-464.5" font-family="Helvetica,sans-Serif" font-size="10.00">+ GetNetOverlay()</text>
<text text-anchor="start" x="606" y="-453.5" font-family="Helvetica,sans-Serif" font-size="10.00">+ HideNetOverlay()</text>
<text text-anchor="start" x="606" y="-442.5" font-family="Helvetica,sans-Serif" font-size="10.00"># MyAwake()</text>
<text text-anchor="start" x="606" y="-431.5" font-family="Helvetica,sans-Serif" font-size="10.00">&#45; OnDisconnect()</text>
</a>
</g>
</g>
<!-- Node9&#45;&gt;Node2 -->
<g id="edge7" class="edge"><title>Node9&#45;&gt;Node2</title>
<path fill="none" stroke="#404040" d="M661.191,-424.262C662.584,-397.864 661.546,-366.891 653.5,-340 644.429,-309.684 628.35,-279.748 610.962,-253.324"/>
<polygon fill="none" stroke="#404040" points="610.96,-253.321 604.287,-250.586 604.245,-243.375 610.918,-246.11 610.96,-253.321"/>
<text text-anchor="middle" x="676" y="-348.5" font-family="Helvetica,sans-Serif" font-size="10.00"> &#45;netSM</text>
</g>
<!-- Node10 -->
<g id="node9" class="node"><title>Node10</title>
<g id="a_node9"><a xlink:href="class_state_machine.html" target="_top" xlink:title="Common Base class for all state machines. ">
<polygon fill="white" stroke="black" points="593.5,-629.5 593.5,-785.5 723.5,-785.5 723.5,-629.5 593.5,-629.5"/>
<text text-anchor="middle" x="658.5" y="-773.5" font-family="Helvetica,sans-Serif" font-size="10.00">StateMachine</text>
<polyline fill="none" stroke="black" points="593.5,-766.5 723.5,-766.5 "/>
<text text-anchor="start" x="601.5" y="-754.5" font-family="Helvetica,sans-Serif" font-size="10.00">+ logEnabled</text>
<text text-anchor="start" x="601.5" y="-743.5" font-family="Helvetica,sans-Serif" font-size="10.00">+ globalValidTriggers</text>
<text text-anchor="start" x="601.5" y="-732.5" font-family="Helvetica,sans-Serif" font-size="10.00"># controller</text>
<text text-anchor="start" x="601.5" y="-721.5" font-family="Helvetica,sans-Serif" font-size="10.00">&#45; states</text>
<polyline fill="none" stroke="black" points="593.5,-714.5 723.5,-714.5 "/>
<text text-anchor="start" x="601.5" y="-702.5" font-family="Helvetica,sans-Serif" font-size="10.00">+ GetActiveState()</text>
<text text-anchor="start" x="601.5" y="-691.5" font-family="Helvetica,sans-Serif" font-size="10.00">+ TriggerTransition()</text>
<text text-anchor="start" x="601.5" y="-680.5" font-family="Helvetica,sans-Serif" font-size="10.00">+ TriggerTransition()</text>
<text text-anchor="start" x="601.5" y="-669.5" font-family="Helvetica,sans-Serif" font-size="10.00">+ TriggerTransition()</text>
<text text-anchor="start" x="601.5" y="-658.5" font-family="Helvetica,sans-Serif" font-size="10.00">+ AnnounceCurrentState()</text>
<text text-anchor="start" x="601.5" y="-647.5" font-family="Helvetica,sans-Serif" font-size="10.00"># MyAwake()</text>
<text text-anchor="start" x="601.5" y="-636.5" font-family="Helvetica,sans-Serif" font-size="10.00">&#45; Awake()</text>
</a>
</g>
</g>
<!-- Node10&#45;&gt;Node9 -->
<g id="edge8" class="edge"><title>Node10&#45;&gt;Node9</title>
<path fill="none" stroke="midnightblue" d="M656.513,-619.249C655.966,-595.267 655.386,-569.788 654.882,-547.661"/>
<polygon fill="none" stroke="midnightblue" points="653.017,-619.503 656.744,-629.421 660.015,-619.344 653.017,-619.503"/>
</g>
<!-- Node11 -->
<g id="node10" class="node"><title>Node11</title>
<polygon fill="white" stroke="#bfbfbf" points="516,-844.5 516,-901.5 599,-901.5 599,-844.5 516,-844.5"/>
<text text-anchor="middle" x="557.5" y="-889.5" font-family="Helvetica,sans-Serif" font-size="10.00">MonoBehaviour</text>
<polyline fill="none" stroke="#bfbfbf" points="516,-882.5 599,-882.5 "/>
<text text-anchor="middle" x="557.5" y="-870.5" font-family="Helvetica,sans-Serif" font-size="10.00"> </text>
<polyline fill="none" stroke="#bfbfbf" points="516,-863.5 599,-863.5 "/>
<text text-anchor="middle" x="557.5" y="-851.5" font-family="Helvetica,sans-Serif" font-size="10.00"> </text>
</g>
<!-- Node11&#45;&gt;Node10 -->
<g id="edge9" class="edge"><title>Node11&#45;&gt;Node10</title>
<path fill="none" stroke="midnightblue" d="M580.062,-835.476C589.178,-820.72 600.065,-803.095 610.784,-785.743"/>
<polygon fill="none" stroke="midnightblue" points="576.911,-833.917 574.633,-844.264 582.866,-837.596 576.911,-833.917"/>
</g>
<!-- Node12 -->
<g id="node11" class="node"><title>Node12</title>
<g id="a_node11"><a xlink:href="interface_i_state.html" target="_top" xlink:title="{IState\n||+ GetName()\l+ GetTriggers()\l+ Init()\l}">
<polygon fill="white" stroke="black" points="617.5,-833.5 617.5,-912.5 699.5,-912.5 699.5,-833.5 617.5,-833.5"/>
<text text-anchor="middle" x="658.5" y="-900.5" font-family="Helvetica,sans-Serif" font-size="10.00">IState</text>
<polyline fill="none" stroke="black" points="617.5,-893.5 699.5,-893.5 "/>
<text text-anchor="middle" x="658.5" y="-881.5" font-family="Helvetica,sans-Serif" font-size="10.00"> </text>
<polyline fill="none" stroke="black" points="617.5,-874.5 699.5,-874.5 "/>
<text text-anchor="start" x="625.5" y="-862.5" font-family="Helvetica,sans-Serif" font-size="10.00">+ GetName()</text>
<text text-anchor="start" x="625.5" y="-851.5" font-family="Helvetica,sans-Serif" font-size="10.00">+ GetTriggers()</text>
<text text-anchor="start" x="625.5" y="-840.5" font-family="Helvetica,sans-Serif" font-size="10.00">+ Init()</text>
</a>
</g>
</g>
<!-- Node12&#45;&gt;Node10 -->
<g id="edge10" class="edge"><title>Node12&#45;&gt;Node10</title>
<path fill="none" stroke="#404040" d="M658.5,-833.253C658.5,-822.375 658.5,-810.078 658.5,-797.55"/>
<polygon fill="none" stroke="#404040" points="658.5,-797.507 654.5,-791.507 658.5,-785.507 662.5,-791.507 658.5,-797.507"/>
<text text-anchor="middle" x="687" y="-807" font-family="Helvetica,sans-Serif" font-size="10.00"> #activeState</text>
</g>
<!-- Node13 -->
<g id="node12" class="node"><title>Node13</title>
<g id="a_node12"><a xlink:href="class_game_string_event.html" target="_top" xlink:title="{GameStringEvent\n||}">
<polygon fill="white" stroke="black" points="717.5,-844.5 717.5,-901.5 809.5,-901.5 809.5,-844.5 717.5,-844.5"/>
<text text-anchor="middle" x="763.5" y="-889.5" font-family="Helvetica,sans-Serif" font-size="10.00">GameStringEvent</text>
<polyline fill="none" stroke="black" points="717.5,-882.5 809.5,-882.5 "/>
<text text-anchor="middle" x="763.5" y="-870.5" font-family="Helvetica,sans-Serif" font-size="10.00"> </text>
<polyline fill="none" stroke="black" points="717.5,-863.5 809.5,-863.5 "/>
<text text-anchor="middle" x="763.5" y="-851.5" font-family="Helvetica,sans-Serif" font-size="10.00"> </text>
</a>
</g>
</g>
<!-- Node13&#45;&gt;Node10 -->
<g id="edge11" class="edge"><title>Node13&#45;&gt;Node10</title>
<path fill="none" stroke="#404040" d="M745.688,-844.264C736.982,-830.708 725.972,-813.564 714.734,-796.064"/>
<polygon fill="none" stroke="#404040" points="714.59,-795.84 707.982,-792.953 708.105,-785.743 714.713,-788.63 714.59,-795.84"/>
<text text-anchor="middle" x="772" y="-807" font-family="Helvetica,sans-Serif" font-size="10.00"> +stateEnteredEvent</text>
</g>
<!-- Node14 -->
<g id="node13" class="node"><title>Node14</title>
<g id="a_node13"><a xlink:href="class_game_event.html" target="_top" xlink:title="{GameEvent\&lt; string \&gt;\n|+ Event\l+ Event\l|+ Invoke()\l+ Invoke()\l+ AddListener()\l+ AddListener()\l+ RemovedListener()\l+ RemoveListener()\l}">
<polygon fill="white" stroke="black" points="709,-950.5 709,-1073.5 818,-1073.5 818,-950.5 709,-950.5"/>
<text text-anchor="middle" x="763.5" y="-1061.5" font-family="Helvetica,sans-Serif" font-size="10.00">GameEvent&lt; string &gt;</text>
<polyline fill="none" stroke="black" points="709,-1054.5 818,-1054.5 "/>
<text text-anchor="start" x="717" y="-1042.5" font-family="Helvetica,sans-Serif" font-size="10.00">+ Event</text>
<text text-anchor="start" x="717" y="-1031.5" font-family="Helvetica,sans-Serif" font-size="10.00">+ Event</text>
<polyline fill="none" stroke="black" points="709,-1024.5 818,-1024.5 "/>
<text text-anchor="start" x="717" y="-1012.5" font-family="Helvetica,sans-Serif" font-size="10.00">+ Invoke()</text>
<text text-anchor="start" x="717" y="-1001.5" font-family="Helvetica,sans-Serif" font-size="10.00">+ Invoke()</text>
<text text-anchor="start" x="717" y="-990.5" font-family="Helvetica,sans-Serif" font-size="10.00">+ AddListener()</text>
<text text-anchor="start" x="717" y="-979.5" font-family="Helvetica,sans-Serif" font-size="10.00">+ AddListener()</text>
<text text-anchor="start" x="717" y="-968.5" font-family="Helvetica,sans-Serif" font-size="10.00">+ RemovedListener()</text>
<text text-anchor="start" x="717" y="-957.5" font-family="Helvetica,sans-Serif" font-size="10.00">+ RemoveListener()</text>
</a>
</g>
</g>
<!-- Node14&#45;&gt;Node13 -->
<g id="edge12" class="edge"><title>Node14&#45;&gt;Node13</title>
<path fill="none" stroke="midnightblue" d="M763.5,-939.792C763.5,-926.288 763.5,-912.924 763.5,-901.804"/>
<polygon fill="none" stroke="midnightblue" points="760,-940.112 763.5,-950.112 767,-940.112 760,-940.112"/>
</g>
<!-- Node15 -->
<g id="node14" class="node"><title>Node15</title>
<polygon fill="white" stroke="#bfbfbf" points="719,-1111.5 719,-1168.5 808,-1168.5 808,-1111.5 719,-1111.5"/>
<text text-anchor="middle" x="763.5" y="-1156.5" font-family="Helvetica,sans-Serif" font-size="10.00">ScriptableObject</text>
<polyline fill="none" stroke="#bfbfbf" points="719,-1149.5 808,-1149.5 "/>
<text text-anchor="middle" x="763.5" y="-1137.5" font-family="Helvetica,sans-Serif" font-size="10.00"> </text>
<polyline fill="none" stroke="#bfbfbf" points="719,-1130.5 808,-1130.5 "/>
<text text-anchor="middle" x="763.5" y="-1118.5" font-family="Helvetica,sans-Serif" font-size="10.00"> </text>
</g>
<!-- Node15&#45;&gt;Node14 -->
<g id="edge13" class="edge"><title>Node15&#45;&gt;Node14</title>
<path fill="none" stroke="midnightblue" d="M763.5,-1101.18C763.5,-1092.49 763.5,-1083.03 763.5,-1073.65"/>
<polygon fill="none" stroke="midnightblue" points="760,-1101.35 763.5,-1111.35 767,-1101.35 760,-1101.35"/>
</g>
<!-- Node16 -->
<g id="node15" class="node"><title>Node16</title>
<g id="a_node15"><a xlink:href="classnet_1_1_net_event.html" target="_top" xlink:title="{NetEvent\&lt; net.IntNetData \&gt;\n|&#45; eventCode\l&#45; localEvent\l&#45; target\l&#45; defaultData\l&#45; reliable\l&#45; cachedForRoom\l&#45; hasDefaultData\l|+ NetEvent()\l+ NetEvent()\l+ AddListener()\l+ RemoveListener()\l+ Invoke()\l+ Invoke()\l+ OnEvent()\l&#45; ~NetEvent()\l&#45; GetSpecificTargetActorNr()\l}">
<polygon fill="white" stroke="black" points="727,-380.5 727,-591.5 866,-591.5 866,-380.5 727,-380.5"/>
<text text-anchor="middle" x="796.5" y="-579.5" font-family="Helvetica,sans-Serif" font-size="10.00">NetEvent&lt; net.IntNetData &gt;</text>
<polyline fill="none" stroke="black" points="727,-572.5 866,-572.5 "/>
<text text-anchor="start" x="735" y="-560.5" font-family="Helvetica,sans-Serif" font-size="10.00">&#45; eventCode</text>
<text text-anchor="start" x="735" y="-549.5" font-family="Helvetica,sans-Serif" font-size="10.00">&#45; localEvent</text>
<text text-anchor="start" x="735" y="-538.5" font-family="Helvetica,sans-Serif" font-size="10.00">&#45; target</text>
<text text-anchor="start" x="735" y="-527.5" font-family="Helvetica,sans-Serif" font-size="10.00">&#45; defaultData</text>
<text text-anchor="start" x="735" y="-516.5" font-family="Helvetica,sans-Serif" font-size="10.00">&#45; reliable</text>
<text text-anchor="start" x="735" y="-505.5" font-family="Helvetica,sans-Serif" font-size="10.00">&#45; cachedForRoom</text>
<text text-anchor="start" x="735" y="-494.5" font-family="Helvetica,sans-Serif" font-size="10.00">&#45; hasDefaultData</text>
<polyline fill="none" stroke="black" points="727,-487.5 866,-487.5 "/>
<text text-anchor="start" x="735" y="-475.5" font-family="Helvetica,sans-Serif" font-size="10.00">+ NetEvent()</text>
<text text-anchor="start" x="735" y="-464.5" font-family="Helvetica,sans-Serif" font-size="10.00">+ NetEvent()</text>
<text text-anchor="start" x="735" y="-453.5" font-family="Helvetica,sans-Serif" font-size="10.00">+ AddListener()</text>
<text text-anchor="start" x="735" y="-442.5" font-family="Helvetica,sans-Serif" font-size="10.00">+ RemoveListener()</text>
<text text-anchor="start" x="735" y="-431.5" font-family="Helvetica,sans-Serif" font-size="10.00">+ Invoke()</text>
<text text-anchor="start" x="735" y="-420.5" font-family="Helvetica,sans-Serif" font-size="10.00">+ Invoke()</text>
<text text-anchor="start" x="735" y="-409.5" font-family="Helvetica,sans-Serif" font-size="10.00">+ OnEvent()</text>
<text text-anchor="start" x="735" y="-398.5" font-family="Helvetica,sans-Serif" font-size="10.00">&#45; ~NetEvent()</text>
<text text-anchor="start" x="735" y="-387.5" font-family="Helvetica,sans-Serif" font-size="10.00">&#45; GetSpecificTargetActorNr()</text>
</a>
</g>
</g>
<!-- Node16&#45;&gt;Node2 -->
<g id="edge14" class="edge"><title>Node16&#45;&gt;Node2</title>
<path fill="none" stroke="#404040" d="M727.605,-380.399C717.788,-366.6 707.591,-352.811 697.5,-340 671.213,-306.627 640.328,-271.604 612.677,-241.538"/>
<polygon fill="none" stroke="#404040" points="612.353,-241.187 605.343,-239.495 604.208,-232.374 611.218,-234.066 612.353,-241.187"/>
<text text-anchor="start" x="712.5" y="-354" font-family="Helvetica,sans-Serif" font-size="10.00"> +spawnIndexAssignmentNet</text>
<text text-anchor="middle" x="776" y="-343" font-family="Helvetica,sans-Serif" font-size="10.00">Event</text>
</g>
<!-- Node17 -->
<g id="node16" class="node"><title>Node17</title>
<g id="a_node16"><a xlink:href="classnet_1_1_unity_room_properties_update_event.html" target="_top" xlink:title="{UnityRoomPropertiesUpdate\lEvent\n||}">
<polygon fill="white" stroke="black" points="884.5,-452 884.5,-520 1024.5,-520 1024.5,-452 884.5,-452"/>
<text text-anchor="start" x="892.5" y="-508" font-family="Helvetica,sans-Serif" font-size="10.00">UnityRoomPropertiesUpdate</text>
<text text-anchor="middle" x="954.5" y="-497" font-family="Helvetica,sans-Serif" font-size="10.00">Event</text>
<polyline fill="none" stroke="black" points="884.5,-490 1024.5,-490 "/>
<text text-anchor="middle" x="954.5" y="-478" font-family="Helvetica,sans-Serif" font-size="10.00"> </text>
<polyline fill="none" stroke="black" points="884.5,-471 1024.5,-471 "/>
<text text-anchor="middle" x="954.5" y="-459" font-family="Helvetica,sans-Serif" font-size="10.00"> </text>
</a>
</g>
</g>
<!-- Node17&#45;&gt;Node2 -->
<g id="edge16" class="edge"><title>Node17&#45;&gt;Node2</title>
<path fill="none" stroke="#404040" d="M929.348,-451.843C913.626,-431.153 892.932,-403.987 874.5,-380 860.796,-362.166 860.432,-354.805 843.5,-340 774.007,-279.239 680.696,-228.628 615.252,-197.099"/>
<polygon fill="none" stroke="#404040" points="615.015,-196.986 607.878,-198.014 604.184,-191.821 611.321,-190.793 615.015,-196.986"/>
<text text-anchor="middle" x="927.5" y="-348.5" font-family="Helvetica,sans-Serif" font-size="10.00"> +roomPropertiesUpdateEvent</text>
</g>
<!-- Node18 -->
<g id="node17" class="node"><title>Node18</title>
<polygon fill="white" stroke="#bfbfbf" points="878.5,-673.5 878.5,-741.5 1030.5,-741.5 1030.5,-673.5 878.5,-673.5"/>
<text text-anchor="start" x="886.5" y="-729.5" font-family="Helvetica,sans-Serif" font-size="10.00">UnityEvent&lt; ExitGames.Client.</text>
<text text-anchor="middle" x="954.5" y="-718.5" font-family="Helvetica,sans-Serif" font-size="10.00">Photon.Hashtable &gt;</text>
<polyline fill="none" stroke="#bfbfbf" points="878.5,-711.5 1030.5,-711.5 "/>
<text text-anchor="middle" x="954.5" y="-699.5" font-family="Helvetica,sans-Serif" font-size="10.00"> </text>
<polyline fill="none" stroke="#bfbfbf" points="878.5,-692.5 1030.5,-692.5 "/>
<text text-anchor="middle" x="954.5" y="-680.5" font-family="Helvetica,sans-Serif" font-size="10.00"> </text>
</g>
<!-- Node18&#45;&gt;Node17 -->
<g id="edge17" class="edge"><title>Node18&#45;&gt;Node17</title>
<path fill="none" stroke="midnightblue" d="M954.5,-662.966C954.5,-621.003 954.5,-558.414 954.5,-520.291"/>
<polygon fill="none" stroke="midnightblue" points="951,-663.163 954.5,-673.163 958,-663.163 951,-663.163"/>
</g>
</g>
</svg>
