<?xml version="1.0" encoding="UTF-8" standalone="no"?>
<!DOCTYPE svg PUBLIC "-//W3C//DTD SVG 1.1//EN"
 "http://www.w3.org/Graphics/SVG/1.1/DTD/svg11.dtd">
<!-- Generated by graphviz version 2.38.0 (20140413.2041)
 -->
<!-- Title: ConnectToMasterState Pages: 1 -->
<svg width="143pt" height="557pt"
 viewBox="0.00 0.00 143.00 557.00" xmlns="http://www.w3.org/2000/svg" xmlns:xlink="http://www.w3.org/1999/xlink">
<g id="graph0" class="graph" transform="scale(1 1) rotate(0) translate(4 553)">
<title>ConnectToMasterState</title>
<polygon fill="white" stroke="none" points="-4,4 -4,-553 139,-553 139,4 -4,4"/>
<!-- Node0 -->
<g id="node1" class="node"><title>Node0</title>
<polygon fill="#bfbfbf" stroke="black" points="3.5,-0.5 3.5,-79.5 131.5,-79.5 131.5,-0.5 3.5,-0.5"/>
<text text-anchor="middle" x="67.5" y="-67.5" font-family="Helvetica,sans-Serif" font-size="10.00">ConnectToMasterState</text>
<polyline fill="none" stroke="black" points="3.5,-60.5 131.5,-60.5 "/>
<text text-anchor="middle" x="67.5" y="-48.5" font-family="Helvetica,sans-Serif" font-size="10.00"> </text>
<polyline fill="none" stroke="black" points="3.5,-41.5 131.5,-41.5 "/>
<text text-anchor="start" x="11.5" y="-29.5" font-family="Helvetica,sans-Serif" font-size="10.00"># OnMyStateInit()</text>
<text text-anchor="start" x="11.5" y="-18.5" font-family="Helvetica,sans-Serif" font-size="10.00"># OnOverlayStateEnter()</text>
<text text-anchor="start" x="11.5" y="-7.5" font-family="Helvetica,sans-Serif" font-size="10.00">&#45; OnConnectedToMaster()</text>
</g>
<!-- Node1 -->
<g id="node2" class="node"><title>Node1</title>
<g id="a_node2"><a xlink:href="classnet_1_1_net_overlay_state.html" target="_top" xlink:title="{NetOverlayState\n|# netOverlayRef\l# netSM\l&#45; minVisibleTime\l&#45; timestampOfStateEntered\l|# TriggerTransitionWithMin\lVisibleTime()\l# OnOverlayStateEnter()\l# OnMyStateEnter()\l}">
<polygon fill="white" stroke="black" points="0,-116.5 0,-239.5 135,-239.5 135,-116.5 0,-116.5"/>
<text text-anchor="middle" x="67.5" y="-227.5" font-family="Helvetica,sans-Serif" font-size="10.00">NetOverlayState</text>
<polyline fill="none" stroke="black" points="0,-220.5 135,-220.5 "/>
<text text-anchor="start" x="8" y="-208.5" font-family="Helvetica,sans-Serif" font-size="10.00"># netOverlayRef</text>
<text text-anchor="start" x="8" y="-197.5" font-family="Helvetica,sans-Serif" font-size="10.00"># netSM</text>
<text text-anchor="start" x="8" y="-186.5" font-family="Helvetica,sans-Serif" font-size="10.00">&#45; minVisibleTime</text>
<text text-anchor="start" x="8" y="-175.5" font-family="Helvetica,sans-Serif" font-size="10.00">&#45; timestampOfStateEntered</text>
<polyline fill="none" stroke="black" points="0,-168.5 135,-168.5 "/>
<text text-anchor="start" x="8" y="-156.5" font-family="Helvetica,sans-Serif" font-size="10.00"># TriggerTransitionWithMin</text>
<text text-anchor="start" x="8" y="-145.5" font-family="Helvetica,sans-Serif" font-size="10.00">VisibleTime()</text>
<text text-anchor="start" x="8" y="-134.5" font-family="Helvetica,sans-Serif" font-size="10.00"># OnOverlayStateEnter()</text>
<text text-anchor="start" x="8" y="-123.5" font-family="Helvetica,sans-Serif" font-size="10.00"># OnMyStateEnter()</text>
</a>
</g>
</g>
<!-- Node1&#45;&gt;Node0 -->
<g id="edge1" class="edge"><title>Node1&#45;&gt;Node0</title>
<path fill="none" stroke="midnightblue" d="M67.5,-105.911C67.5,-96.8309 67.5,-87.824 67.5,-79.5403"/>
<polygon fill="none" stroke="midnightblue" points="64.0001,-106.16 67.5,-116.16 71.0001,-106.16 64.0001,-106.16"/>
</g>
<!-- Node2 -->
<g id="node3" class="node"><title>Node2</title>
<g id="a_node3"><a xlink:href="class_state.html" target="_top" xlink:title="Extended functionality for Unity SM Behaviours and makes them complete &#39;States&#39;. ">
<polygon fill="white" stroke="black" points="15.5,-276.5 15.5,-454.5 119.5,-454.5 119.5,-276.5 15.5,-276.5"/>
<text text-anchor="middle" x="67.5" y="-442.5" font-family="Helvetica,sans-Serif" font-size="10.00">State</text>
<polyline fill="none" stroke="black" points="15.5,-435.5 119.5,-435.5 "/>
<text text-anchor="start" x="23.5" y="-423.5" font-family="Helvetica,sans-Serif" font-size="10.00">+ name</text>
<text text-anchor="start" x="23.5" y="-412.5" font-family="Helvetica,sans-Serif" font-size="10.00">+ triggers</text>
<text text-anchor="start" x="23.5" y="-401.5" font-family="Helvetica,sans-Serif" font-size="10.00"># sm</text>
<text text-anchor="start" x="23.5" y="-390.5" font-family="Helvetica,sans-Serif" font-size="10.00">&#45; listeners</text>
<polyline fill="none" stroke="black" points="15.5,-383.5 119.5,-383.5 "/>
<text text-anchor="start" x="23.5" y="-371.5" font-family="Helvetica,sans-Serif" font-size="10.00">+ IsActiveState()</text>
<text text-anchor="start" x="23.5" y="-360.5" font-family="Helvetica,sans-Serif" font-size="10.00">+ Init()</text>
<text text-anchor="start" x="23.5" y="-349.5" font-family="Helvetica,sans-Serif" font-size="10.00">+ OnStateEnter()</text>
<text text-anchor="start" x="23.5" y="-338.5" font-family="Helvetica,sans-Serif" font-size="10.00">+ OnStateExit()</text>
<text text-anchor="start" x="23.5" y="-327.5" font-family="Helvetica,sans-Serif" font-size="10.00"># AddAutoListener()</text>
<text text-anchor="start" x="23.5" y="-316.5" font-family="Helvetica,sans-Serif" font-size="10.00"># TriggerTransition()</text>
<text text-anchor="start" x="23.5" y="-305.5" font-family="Helvetica,sans-Serif" font-size="10.00"># OnMyStateEnter()</text>
<text text-anchor="start" x="23.5" y="-294.5" font-family="Helvetica,sans-Serif" font-size="10.00"># OnMyStateExit()</text>
<text text-anchor="start" x="23.5" y="-283.5" font-family="Helvetica,sans-Serif" font-size="10.00"># OnMyStateInit()</text>
</a>
</g>
</g>
<!-- Node2&#45;&gt;Node1 -->
<g id="edge2" class="edge"><title>Node2&#45;&gt;Node1</title>
<path fill="none" stroke="midnightblue" d="M67.5,-266.162C67.5,-257.134 67.5,-248.176 67.5,-239.633"/>
<polygon fill="none" stroke="midnightblue" points="64.0001,-266.368 67.5,-276.368 71.0001,-266.368 64.0001,-266.368"/>
</g>
<!-- Node3 -->
<g id="node4" class="node"><title>Node3</title>
<polygon fill="white" stroke="#bfbfbf" points="8,-491.5 8,-548.5 127,-548.5 127,-491.5 8,-491.5"/>
<text text-anchor="middle" x="67.5" y="-536.5" font-family="Helvetica,sans-Serif" font-size="10.00">StateMachineBehaviour</text>
<polyline fill="none" stroke="#bfbfbf" points="8,-529.5 127,-529.5 "/>
<text text-anchor="middle" x="67.5" y="-517.5" font-family="Helvetica,sans-Serif" font-size="10.00"> </text>
<polyline fill="none" stroke="#bfbfbf" points="8,-510.5 127,-510.5 "/>
<text text-anchor="middle" x="67.5" y="-498.5" font-family="Helvetica,sans-Serif" font-size="10.00"> </text>
</g>
<!-- Node3&#45;&gt;Node2 -->
<g id="edge3" class="edge"><title>Node3&#45;&gt;Node2</title>
<path fill="none" stroke="midnightblue" d="M67.5,-481.374C67.5,-473.089 67.5,-463.977 67.5,-454.62"/>
<polygon fill="none" stroke="midnightblue" points="64.0001,-481.383 67.5,-491.383 71.0001,-481.383 64.0001,-481.383"/>
</g>
</g>
</svg>
