<?xml version="1.0" encoding="UTF-8" standalone="no"?>
<!DOCTYPE svg PUBLIC "-//W3C//DTD SVG 1.1//EN"
 "http://www.w3.org/Graphics/SVG/1.1/DTD/svg11.dtd">
<!-- Generated by graphviz version 2.38.0 (20140413.2041)
 -->
<!-- Title: DeliverState Pages: 1 -->
<svg width="489pt" height="734pt"
 viewBox="0.00 0.00 488.50 734.00" xmlns="http://www.w3.org/2000/svg" xmlns:xlink="http://www.w3.org/1999/xlink">
<g id="graph0" class="graph" transform="scale(1 1) rotate(0) translate(4 730)">
<title>DeliverState</title>
<polygon fill="white" stroke="none" points="-4,4 -4,-730 484.5,-730 484.5,4 -4,4"/>
<!-- Node3 -->
<g id="node1" class="node"><title>Node3</title>
<polygon fill="#bfbfbf" stroke="black" points="215.5,-0.5 215.5,-145.5 325.5,-145.5 325.5,-0.5 215.5,-0.5"/>
<text text-anchor="middle" x="270.5" y="-133.5" font-family="Helvetica,sans-Serif" font-size="10.00">DeliverState</text>
<polyline fill="none" stroke="black" points="215.5,-126.5 325.5,-126.5 "/>
<text text-anchor="start" x="223.5" y="-114.5" font-family="Helvetica,sans-Serif" font-size="10.00">+ destReachedDist</text>
<text text-anchor="start" x="223.5" y="-103.5" font-family="Helvetica,sans-Serif" font-size="10.00">&#45; pathfindingAI</text>
<text text-anchor="start" x="223.5" y="-92.5" font-family="Helvetica,sans-Serif" font-size="10.00">&#45; destReachedDistSq</text>
<text text-anchor="start" x="223.5" y="-81.5" font-family="Helvetica,sans-Serif" font-size="10.00">&#45; isFirstCarrier</text>
<polyline fill="none" stroke="black" points="215.5,-74.5 325.5,-74.5 "/>
<text text-anchor="start" x="223.5" y="-62.5" font-family="Helvetica,sans-Serif" font-size="10.00">+ OnStateUpdate()</text>
<text text-anchor="start" x="223.5" y="-51.5" font-family="Helvetica,sans-Serif" font-size="10.00"># OnMyStateEnter()</text>
<text text-anchor="start" x="223.5" y="-40.5" font-family="Helvetica,sans-Serif" font-size="10.00"># OnMyStateExit()</text>
<text text-anchor="start" x="223.5" y="-29.5" font-family="Helvetica,sans-Serif" font-size="10.00">&#45; UpdateCarrySpeed()</text>
<text text-anchor="start" x="223.5" y="-18.5" font-family="Helvetica,sans-Serif" font-size="10.00">&#45; PickUp()</text>
<text text-anchor="start" x="223.5" y="-7.5" font-family="Helvetica,sans-Serif" font-size="10.00">&#45; DropOff()</text>
</g>
<!-- Node4 -->
<g id="node2" class="node"><title>Node4</title>
<g id="a_node2"><a xlink:href="classmechanics_1_1_unit_ai_base_state.html" target="_top" xlink:title="Offers a base state for Unit AI which can be interrupted by multiple conditions: ">
<polygon fill="white" stroke="black" points="30,-248.5 30,-327.5 155,-327.5 155,-248.5 30,-248.5"/>
<text text-anchor="middle" x="92.5" y="-315.5" font-family="Helvetica,sans-Serif" font-size="10.00">UnitAiBaseState</text>
<polyline fill="none" stroke="black" points="30,-308.5 155,-308.5 "/>
<text text-anchor="start" x="38" y="-296.5" font-family="Helvetica,sans-Serif" font-size="10.00">+ triggerOnBattleStart</text>
<text text-anchor="start" x="38" y="-285.5" font-family="Helvetica,sans-Serif" font-size="10.00">+ triggerOnBattleEnd</text>
<text text-anchor="start" x="38" y="-274.5" font-family="Helvetica,sans-Serif" font-size="10.00">+ triggerOnDmgReceived</text>
<polyline fill="none" stroke="black" points="30,-267.5 155,-267.5 "/>
<text text-anchor="start" x="38" y="-255.5" font-family="Helvetica,sans-Serif" font-size="10.00"># OnMyStateInit()</text>
</a>
</g>
</g>
<!-- Node4&#45;&gt;Node3 -->
<g id="edge1" class="edge"><title>Node4&#45;&gt;Node3</title>
<path fill="none" stroke="midnightblue" d="M131.15,-240.751C155.799,-211.255 188.128,-172.569 215.44,-139.886"/>
<polygon fill="none" stroke="midnightblue" points="128.461,-238.51 124.734,-248.427 133.833,-242.998 128.461,-238.51"/>
</g>
<!-- Node5 -->
<g id="node3" class="node"><title>Node5</title>
<g id="a_node3"><a xlink:href="class_base_state.html" target="_top" xlink:title="{BaseState\&lt; UnitAiStateMachine \&gt;\n|+ name\l+ triggers\l# sm\l&#45; listeners\l|+ IsActiveState()\l+ GetName()\l+ GetTriggers()\l+ Init()\l+ OnStateEnter()\l+ OnStateExit()\l# AddAutoListener()\l# TriggerTransition()\l# OnMyStateEnter()\l# OnMyStateExit()\l# OnMyStateInit()\l}">
<polygon fill="white" stroke="black" points="0,-430.5 0,-630.5 167,-630.5 167,-430.5 0,-430.5"/>
<text text-anchor="middle" x="83.5" y="-618.5" font-family="Helvetica,sans-Serif" font-size="10.00">BaseState&lt; UnitAiStateMachine &gt;</text>
<polyline fill="none" stroke="black" points="0,-611.5 167,-611.5 "/>
<text text-anchor="start" x="8" y="-599.5" font-family="Helvetica,sans-Serif" font-size="10.00">+ name</text>
<text text-anchor="start" x="8" y="-588.5" font-family="Helvetica,sans-Serif" font-size="10.00">+ triggers</text>
<text text-anchor="start" x="8" y="-577.5" font-family="Helvetica,sans-Serif" font-size="10.00"># sm</text>
<text text-anchor="start" x="8" y="-566.5" font-family="Helvetica,sans-Serif" font-size="10.00">&#45; listeners</text>
<polyline fill="none" stroke="black" points="0,-559.5 167,-559.5 "/>
<text text-anchor="start" x="8" y="-547.5" font-family="Helvetica,sans-Serif" font-size="10.00">+ IsActiveState()</text>
<text text-anchor="start" x="8" y="-536.5" font-family="Helvetica,sans-Serif" font-size="10.00">+ GetName()</text>
<text text-anchor="start" x="8" y="-525.5" font-family="Helvetica,sans-Serif" font-size="10.00">+ GetTriggers()</text>
<text text-anchor="start" x="8" y="-514.5" font-family="Helvetica,sans-Serif" font-size="10.00">+ Init()</text>
<text text-anchor="start" x="8" y="-503.5" font-family="Helvetica,sans-Serif" font-size="10.00">+ OnStateEnter()</text>
<text text-anchor="start" x="8" y="-492.5" font-family="Helvetica,sans-Serif" font-size="10.00">+ OnStateExit()</text>
<text text-anchor="start" x="8" y="-481.5" font-family="Helvetica,sans-Serif" font-size="10.00"># AddAutoListener()</text>
<text text-anchor="start" x="8" y="-470.5" font-family="Helvetica,sans-Serif" font-size="10.00"># TriggerTransition()</text>
<text text-anchor="start" x="8" y="-459.5" font-family="Helvetica,sans-Serif" font-size="10.00"># OnMyStateEnter()</text>
<text text-anchor="start" x="8" y="-448.5" font-family="Helvetica,sans-Serif" font-size="10.00"># OnMyStateExit()</text>
<text text-anchor="start" x="8" y="-437.5" font-family="Helvetica,sans-Serif" font-size="10.00"># OnMyStateInit()</text>
</a>
</g>
</g>
<!-- Node5&#45;&gt;Node4 -->
<g id="edge2" class="edge"><title>Node5&#45;&gt;Node4</title>
<path fill="none" stroke="midnightblue" d="M87.5947,-420.08C88.8316,-387.029 90.1096,-352.877 91.0509,-327.722"/>
<polygon fill="none" stroke="midnightblue" points="84.0891,-420.167 87.2126,-430.291 91.0842,-420.429 84.0891,-420.167"/>
</g>
<!-- Node6 -->
<g id="node4" class="node"><title>Node6</title>
<g id="a_node4"><a xlink:href="classmechanics_1_1_food.html" target="_top" xlink:title="{Food\n|+ value\l+ weight\l+ totalStrengthNeeded\l+ curCarryStrength\l+ carrySlots\l+ destReachedEvent\l&#45; carriers\l|+ ReserveCarry()\l+ PickUp()\l+ Drop()\l+ HasFreeCarrySlot()\l+ IsFirstCarrier()\l+ GetCarrySpeedFactor()\l&#45; UpdateCarryStrengthBy()\l}">
<polygon fill="white" stroke="black" points="205,-193.5 205,-382.5 336,-382.5 336,-193.5 205,-193.5"/>
<text text-anchor="middle" x="270.5" y="-370.5" font-family="Helvetica,sans-Serif" font-size="10.00">Food</text>
<polyline fill="none" stroke="black" points="205,-363.5 336,-363.5 "/>
<text text-anchor="start" x="213" y="-351.5" font-family="Helvetica,sans-Serif" font-size="10.00">+ value</text>
<text text-anchor="start" x="213" y="-340.5" font-family="Helvetica,sans-Serif" font-size="10.00">+ weight</text>
<text text-anchor="start" x="213" y="-329.5" font-family="Helvetica,sans-Serif" font-size="10.00">+ totalStrengthNeeded</text>
<text text-anchor="start" x="213" y="-318.5" font-family="Helvetica,sans-Serif" font-size="10.00">+ curCarryStrength</text>
<text text-anchor="start" x="213" y="-307.5" font-family="Helvetica,sans-Serif" font-size="10.00">+ carrySlots</text>
<text text-anchor="start" x="213" y="-296.5" font-family="Helvetica,sans-Serif" font-size="10.00">+ destReachedEvent</text>
<text text-anchor="start" x="213" y="-285.5" font-family="Helvetica,sans-Serif" font-size="10.00">&#45; carriers</text>
<polyline fill="none" stroke="black" points="205,-278.5 336,-278.5 "/>
<text text-anchor="start" x="213" y="-266.5" font-family="Helvetica,sans-Serif" font-size="10.00">+ ReserveCarry()</text>
<text text-anchor="start" x="213" y="-255.5" font-family="Helvetica,sans-Serif" font-size="10.00">+ PickUp()</text>
<text text-anchor="start" x="213" y="-244.5" font-family="Helvetica,sans-Serif" font-size="10.00">+ Drop()</text>
<text text-anchor="start" x="213" y="-233.5" font-family="Helvetica,sans-Serif" font-size="10.00">+ HasFreeCarrySlot()</text>
<text text-anchor="start" x="213" y="-222.5" font-family="Helvetica,sans-Serif" font-size="10.00">+ IsFirstCarrier()</text>
<text text-anchor="start" x="213" y="-211.5" font-family="Helvetica,sans-Serif" font-size="10.00">+ GetCarrySpeedFactor()</text>
<text text-anchor="start" x="213" y="-200.5" font-family="Helvetica,sans-Serif" font-size="10.00">&#45; UpdateCarryStrengthBy()</text>
</a>
</g>
</g>
<!-- Node6&#45;&gt;Node3 -->
<g id="edge3" class="edge"><title>Node6&#45;&gt;Node3</title>
<path fill="none" stroke="#404040" d="M270.5,-193.265C270.5,-181.419 270.5,-169.36 270.5,-157.684"/>
<polygon fill="none" stroke="#404040" points="270.5,-157.681 266.5,-151.681 270.5,-145.681 274.5,-151.681 270.5,-157.681"/>
<text text-anchor="middle" x="283" y="-167" font-family="Helvetica,sans-Serif" font-size="10.00"> &#45;food</text>
</g>
<!-- Node7 -->
<g id="node5" class="node"><title>Node7</title>
<polygon fill="white" stroke="#bfbfbf" points="185,-502 185,-559 268,-559 268,-502 185,-502"/>
<text text-anchor="middle" x="226.5" y="-547" font-family="Helvetica,sans-Serif" font-size="10.00">MonoBehaviour</text>
<polyline fill="none" stroke="#bfbfbf" points="185,-540 268,-540 "/>
<text text-anchor="middle" x="226.5" y="-528" font-family="Helvetica,sans-Serif" font-size="10.00"> </text>
<polyline fill="none" stroke="#bfbfbf" points="185,-521 268,-521 "/>
<text text-anchor="middle" x="226.5" y="-509" font-family="Helvetica,sans-Serif" font-size="10.00"> </text>
</g>
<!-- Node7&#45;&gt;Node6 -->
<g id="edge4" class="edge"><title>Node7&#45;&gt;Node6</title>
<path fill="none" stroke="midnightblue" d="M233.15,-491.874C237.7,-466.25 243.899,-431.565 249.5,-401 250.588,-395.065 251.714,-388.954 252.855,-382.794"/>
<polygon fill="none" stroke="midnightblue" points="229.67,-491.457 231.37,-501.915 236.562,-492.68 229.67,-491.457"/>
</g>
<!-- Node8 -->
<g id="node6" class="node"><title>Node8</title>
<g id="a_node6"><a xlink:href="class_unity_float_event.html" target="_top" xlink:title="{UnityFloatEvent\n||}">
<polygon fill="white" stroke="black" points="286,-502 286,-559 371,-559 371,-502 286,-502"/>
<text text-anchor="middle" x="328.5" y="-547" font-family="Helvetica,sans-Serif" font-size="10.00">UnityFloatEvent</text>
<polyline fill="none" stroke="black" points="286,-540 371,-540 "/>
<text text-anchor="middle" x="328.5" y="-528" font-family="Helvetica,sans-Serif" font-size="10.00"> </text>
<polyline fill="none" stroke="black" points="286,-521 371,-521 "/>
<text text-anchor="middle" x="328.5" y="-509" font-family="Helvetica,sans-Serif" font-size="10.00"> </text>
</a>
</g>
</g>
<!-- Node8&#45;&gt;Node6 -->
<g id="edge5" class="edge"><title>Node8&#45;&gt;Node6</title>
<path fill="none" stroke="#404040" d="M321.847,-501.912C315.469,-475.466 305.433,-433.85 295.919,-394.4"/>
<polygon fill="none" stroke="#404040" points="295.867,-394.187 290.572,-389.292 293.054,-382.522 298.349,-387.417 295.867,-394.187"/>
<text text-anchor="middle" x="360" y="-404" font-family="Helvetica,sans-Serif" font-size="10.00"> +speedFactorChangeEvent</text>
</g>
<!-- Node9 -->
<g id="node7" class="node"><title>Node9</title>
<polygon fill="white" stroke="#bfbfbf" points="279,-668.5 279,-725.5 378,-725.5 378,-668.5 279,-668.5"/>
<text text-anchor="middle" x="328.5" y="-713.5" font-family="Helvetica,sans-Serif" font-size="10.00">UnityEvent&lt; float &gt;</text>
<polyline fill="none" stroke="#bfbfbf" points="279,-706.5 378,-706.5 "/>
<text text-anchor="middle" x="328.5" y="-694.5" font-family="Helvetica,sans-Serif" font-size="10.00"> </text>
<polyline fill="none" stroke="#bfbfbf" points="279,-687.5 378,-687.5 "/>
<text text-anchor="middle" x="328.5" y="-675.5" font-family="Helvetica,sans-Serif" font-size="10.00"> </text>
</g>
<!-- Node9&#45;&gt;Node8 -->
<g id="edge6" class="edge"><title>Node9&#45;&gt;Node8</title>
<path fill="none" stroke="midnightblue" d="M328.5,-658.293C328.5,-628.056 328.5,-586.319 328.5,-559.123"/>
<polygon fill="none" stroke="midnightblue" points="325,-658.466 328.5,-668.466 332,-658.466 325,-658.466"/>
</g>
<!-- Node10 -->
<g id="node8" class="node"><title>Node10</title>
<g id="a_node8"><a xlink:href="class_player.html" target="_top" xlink:title="{Player\n|+ nickName\l+ curPlayerReference\l+ homeBase\l|}">
<polygon fill="white" stroke="black" points="370.5,-248.5 370.5,-327.5 480.5,-327.5 480.5,-248.5 370.5,-248.5"/>
<text text-anchor="middle" x="425.5" y="-315.5" font-family="Helvetica,sans-Serif" font-size="10.00">Player</text>
<polyline fill="none" stroke="black" points="370.5,-308.5 480.5,-308.5 "/>
<text text-anchor="start" x="378.5" y="-296.5" font-family="Helvetica,sans-Serif" font-size="10.00">+ nickName</text>
<text text-anchor="start" x="378.5" y="-285.5" font-family="Helvetica,sans-Serif" font-size="10.00">+ curPlayerReference</text>
<text text-anchor="start" x="378.5" y="-274.5" font-family="Helvetica,sans-Serif" font-size="10.00">+ homeBase</text>
<polyline fill="none" stroke="black" points="370.5,-267.5 480.5,-267.5 "/>
<text text-anchor="middle" x="425.5" y="-255.5" font-family="Helvetica,sans-Serif" font-size="10.00"> </text>
</a>
</g>
</g>
<!-- Node10&#45;&gt;Node3 -->
<g id="edge7" class="edge"><title>Node10&#45;&gt;Node3</title>
<path fill="none" stroke="#404040" d="M397.431,-248.427C378.614,-222.57 353.125,-187.543 329.925,-155.662"/>
<polygon fill="none" stroke="#404040" points="329.87,-155.585 323.105,-153.087 322.809,-145.882 329.573,-148.38 329.87,-155.585"/>
<text text-anchor="middle" x="369" y="-167" font-family="Helvetica,sans-Serif" font-size="10.00"> +playerInfo</text>
</g>
<!-- Node11 -->
<g id="node9" class="node"><title>Node11</title>
<polygon fill="white" stroke="#bfbfbf" points="389,-502 389,-559 478,-559 478,-502 389,-502"/>
<text text-anchor="middle" x="433.5" y="-547" font-family="Helvetica,sans-Serif" font-size="10.00">ScriptableObject</text>
<polyline fill="none" stroke="#bfbfbf" points="389,-540 478,-540 "/>
<text text-anchor="middle" x="433.5" y="-528" font-family="Helvetica,sans-Serif" font-size="10.00"> </text>
<polyline fill="none" stroke="#bfbfbf" points="389,-521 478,-521 "/>
<text text-anchor="middle" x="433.5" y="-509" font-family="Helvetica,sans-Serif" font-size="10.00"> </text>
</g>
<!-- Node11&#45;&gt;Node10 -->
<g id="edge8" class="edge"><title>Node11&#45;&gt;Node10</title>
<path fill="none" stroke="midnightblue" d="M432.244,-491.752C430.757,-447.027 428.291,-372.901 426.789,-327.745"/>
<polygon fill="none" stroke="midnightblue" points="428.752,-492.034 432.582,-501.912 435.748,-491.801 428.752,-492.034"/>
</g>
</g>
</svg>
