<?xml version="1.0" encoding="UTF-8" standalone="no"?>
<!DOCTYPE svg PUBLIC "-//W3C//DTD SVG 1.1//EN"
 "http://www.w3.org/Graphics/SVG/1.1/DTD/svg11.dtd">
<!-- Generated by graphviz version 2.38.0 (20140413.2041)
 -->
<!-- Title: ConnectToMasterState Pages: 1 -->
<svg width="465pt" height="934pt"
 viewBox="0.00 0.00 464.50 934.00" xmlns="http://www.w3.org/2000/svg" xmlns:xlink="http://www.w3.org/1999/xlink">
<g id="graph0" class="graph" transform="scale(1 1) rotate(0) translate(4 930)">
<title>ConnectToMasterState</title>
<polygon fill="white" stroke="none" points="-4,4 -4,-930 460.5,-930 460.5,4 -4,4"/>
<!-- Node4 -->
<g id="node1" class="node"><title>Node4</title>
<polygon fill="#bfbfbf" stroke="black" points="243.5,-0.5 243.5,-79.5 371.5,-79.5 371.5,-0.5 243.5,-0.5"/>
<text text-anchor="middle" x="307.5" y="-67.5" font-family="Helvetica,sans-Serif" font-size="10.00">ConnectToMasterState</text>
<polyline fill="none" stroke="black" points="243.5,-60.5 371.5,-60.5 "/>
<text text-anchor="middle" x="307.5" y="-48.5" font-family="Helvetica,sans-Serif" font-size="10.00"> </text>
<polyline fill="none" stroke="black" points="243.5,-41.5 371.5,-41.5 "/>
<text text-anchor="start" x="251.5" y="-29.5" font-family="Helvetica,sans-Serif" font-size="10.00"># OnMyStateInit()</text>
<text text-anchor="start" x="251.5" y="-18.5" font-family="Helvetica,sans-Serif" font-size="10.00"># OnOverlayStateEnter()</text>
<text text-anchor="start" x="251.5" y="-7.5" font-family="Helvetica,sans-Serif" font-size="10.00">&#45; OnConnectedToMaster()</text>
</g>
<!-- Node5 -->
<g id="node2" class="node"><title>Node5</title>
<g id="a_node2"><a xlink:href="classnet_1_1_net_overlay_state.html" target="_top" xlink:title="{NetOverlayState\n|# netOverlayRef\l&#45; minVisibleTime\l&#45; timestampOfStateEntered\l|# TriggerTransitionWithMin\lVisibleTime()\l# OnOverlayStateEnter()\l# OnMyStateEnter()\l}">
<polygon fill="white" stroke="black" points="240,-117.5 240,-229.5 375,-229.5 375,-117.5 240,-117.5"/>
<text text-anchor="middle" x="307.5" y="-217.5" font-family="Helvetica,sans-Serif" font-size="10.00">NetOverlayState</text>
<polyline fill="none" stroke="black" points="240,-210.5 375,-210.5 "/>
<text text-anchor="start" x="248" y="-198.5" font-family="Helvetica,sans-Serif" font-size="10.00"># netOverlayRef</text>
<text text-anchor="start" x="248" y="-187.5" font-family="Helvetica,sans-Serif" font-size="10.00">&#45; minVisibleTime</text>
<text text-anchor="start" x="248" y="-176.5" font-family="Helvetica,sans-Serif" font-size="10.00">&#45; timestampOfStateEntered</text>
<polyline fill="none" stroke="black" points="240,-169.5 375,-169.5 "/>
<text text-anchor="start" x="248" y="-157.5" font-family="Helvetica,sans-Serif" font-size="10.00"># TriggerTransitionWithMin</text>
<text text-anchor="start" x="248" y="-146.5" font-family="Helvetica,sans-Serif" font-size="10.00">VisibleTime()</text>
<text text-anchor="start" x="248" y="-135.5" font-family="Helvetica,sans-Serif" font-size="10.00"># OnOverlayStateEnter()</text>
<text text-anchor="start" x="248" y="-124.5" font-family="Helvetica,sans-Serif" font-size="10.00"># OnMyStateEnter()</text>
</a>
</g>
</g>
<!-- Node5&#45;&gt;Node4 -->
<g id="edge1" class="edge"><title>Node5&#45;&gt;Node4</title>
<path fill="none" stroke="midnightblue" d="M307.5,-107.32C307.5,-97.9041 307.5,-88.4729 307.5,-79.7985"/>
<polygon fill="none" stroke="midnightblue" points="304,-107.494 307.5,-117.494 311,-107.494 304,-107.494"/>
</g>
<!-- Node6 -->
<g id="node3" class="node"><title>Node6</title>
<g id="a_node3"><a xlink:href="class_state.html" target="_top" xlink:title="Extended functionality for Unity SM Behaviours and makes them complete &#39;States&#39;. ">
<polygon fill="white" stroke="black" points="254.5,-631.5 254.5,-787.5 358.5,-787.5 358.5,-631.5 254.5,-631.5"/>
<text text-anchor="middle" x="306.5" y="-775.5" font-family="Helvetica,sans-Serif" font-size="10.00">State</text>
<polyline fill="none" stroke="black" points="254.5,-768.5 358.5,-768.5 "/>
<text text-anchor="start" x="262.5" y="-756.5" font-family="Helvetica,sans-Serif" font-size="10.00">+ name</text>
<text text-anchor="start" x="262.5" y="-745.5" font-family="Helvetica,sans-Serif" font-size="10.00">+ triggers</text>
<polyline fill="none" stroke="black" points="254.5,-738.5 358.5,-738.5 "/>
<text text-anchor="start" x="262.5" y="-726.5" font-family="Helvetica,sans-Serif" font-size="10.00">+ IsActiveState()</text>
<text text-anchor="start" x="262.5" y="-715.5" font-family="Helvetica,sans-Serif" font-size="10.00">+ Init()</text>
<text text-anchor="start" x="262.5" y="-704.5" font-family="Helvetica,sans-Serif" font-size="10.00">+ OnStateEnter()</text>
<text text-anchor="start" x="262.5" y="-693.5" font-family="Helvetica,sans-Serif" font-size="10.00">+ OnStateExit()</text>
<text text-anchor="start" x="262.5" y="-682.5" font-family="Helvetica,sans-Serif" font-size="10.00"># AddAutoListener()</text>
<text text-anchor="start" x="262.5" y="-671.5" font-family="Helvetica,sans-Serif" font-size="10.00"># TriggerTransition()</text>
<text text-anchor="start" x="262.5" y="-660.5" font-family="Helvetica,sans-Serif" font-size="10.00"># OnMyStateEnter()</text>
<text text-anchor="start" x="262.5" y="-649.5" font-family="Helvetica,sans-Serif" font-size="10.00"># OnMyStateExit()</text>
<text text-anchor="start" x="262.5" y="-638.5" font-family="Helvetica,sans-Serif" font-size="10.00"># OnMyStateInit()</text>
</a>
</g>
</g>
<!-- Node6&#45;&gt;Node5 -->
<g id="edge2" class="edge"><title>Node6&#45;&gt;Node5</title>
<path fill="none" stroke="midnightblue" d="M314.028,-621.241C314.198,-618.463 314.356,-615.71 314.5,-613 322.85,-455.848 320.722,-416.363 322.5,-259 322.555,-254.111 322.991,-252.864 322.5,-248 321.898,-242.04 321.028,-235.848 320.006,-229.701"/>
<polygon fill="none" stroke="midnightblue" points="310.525,-621.18 313.366,-631.386 317.51,-621.636 310.525,-621.18"/>
</g>
<!-- Node8 -->
<g id="node5" class="node"><title>Node8</title>
<g id="a_node5"><a xlink:href="class_state_machine.html" target="_top" xlink:title="Common Base class for all state machines. ">
<polygon fill="white" stroke="black" points="161.5,-438.5 161.5,-583.5 291.5,-583.5 291.5,-438.5 161.5,-438.5"/>
<text text-anchor="middle" x="226.5" y="-571.5" font-family="Helvetica,sans-Serif" font-size="10.00">StateMachine</text>
<polyline fill="none" stroke="black" points="161.5,-564.5 291.5,-564.5 "/>
<text text-anchor="start" x="169.5" y="-552.5" font-family="Helvetica,sans-Serif" font-size="10.00">+ logEnabled</text>
<text text-anchor="start" x="169.5" y="-541.5" font-family="Helvetica,sans-Serif" font-size="10.00"># controller</text>
<text text-anchor="start" x="169.5" y="-530.5" font-family="Helvetica,sans-Serif" font-size="10.00">&#45; states</text>
<polyline fill="none" stroke="black" points="161.5,-523.5 291.5,-523.5 "/>
<text text-anchor="start" x="169.5" y="-511.5" font-family="Helvetica,sans-Serif" font-size="10.00">+ GetActiveState()</text>
<text text-anchor="start" x="169.5" y="-500.5" font-family="Helvetica,sans-Serif" font-size="10.00">+ TriggerTransition()</text>
<text text-anchor="start" x="169.5" y="-489.5" font-family="Helvetica,sans-Serif" font-size="10.00">+ TriggerTransition()</text>
<text text-anchor="start" x="169.5" y="-478.5" font-family="Helvetica,sans-Serif" font-size="10.00">+ TriggerTransition()</text>
<text text-anchor="start" x="169.5" y="-467.5" font-family="Helvetica,sans-Serif" font-size="10.00">+ AnnounceCurrentState()</text>
<text text-anchor="start" x="169.5" y="-456.5" font-family="Helvetica,sans-Serif" font-size="10.00"># MyAwake()</text>
<text text-anchor="start" x="169.5" y="-445.5" font-family="Helvetica,sans-Serif" font-size="10.00">&#45; Awake()</text>
</a>
</g>
</g>
<!-- Node6&#45;&gt;Node8 -->
<g id="edge8" class="edge"><title>Node6&#45;&gt;Node8</title>
<path fill="none" stroke="#404040" d="M254.492,-661.996C241.921,-647.665 230.192,-630.901 223.5,-613 221.458,-607.536 219.996,-601.788 219,-595.922"/>
<polygon fill="none" stroke="#404040" points="218.972,-595.684 214.298,-590.193 217.569,-583.766 222.243,-589.258 218.972,-595.684"/>
<text text-anchor="middle" x="252" y="-605" font-family="Helvetica,sans-Serif" font-size="10.00"> #activeState</text>
</g>
<!-- Node7 -->
<g id="node4" class="node"><title>Node7</title>
<polygon fill="white" stroke="#bfbfbf" points="231,-852 231,-909 350,-909 350,-852 231,-852"/>
<text text-anchor="middle" x="290.5" y="-897" font-family="Helvetica,sans-Serif" font-size="10.00">StateMachineBehaviour</text>
<polyline fill="none" stroke="#bfbfbf" points="231,-890 350,-890 "/>
<text text-anchor="middle" x="290.5" y="-878" font-family="Helvetica,sans-Serif" font-size="10.00"> </text>
<polyline fill="none" stroke="#bfbfbf" points="231,-871 350,-871 "/>
<text text-anchor="middle" x="290.5" y="-859" font-family="Helvetica,sans-Serif" font-size="10.00"> </text>
</g>
<!-- Node7&#45;&gt;Node6 -->
<g id="edge3" class="edge"><title>Node7&#45;&gt;Node6</title>
<path fill="none" stroke="midnightblue" d="M294.056,-841.936C295.577,-825.878 297.411,-806.508 299.198,-787.632"/>
<polygon fill="none" stroke="midnightblue" points="290.564,-841.686 293.106,-851.971 297.533,-842.346 290.564,-841.686"/>
</g>
<!-- Node8&#45;&gt;Node6 -->
<g id="edge4" class="edge"><title>Node8&#45;&gt;Node6</title>
<path fill="none" stroke="#404040" d="M275.906,-583.693C279.083,-589.747 282.003,-595.892 284.5,-602 286.807,-607.644 288.883,-613.559 290.748,-619.587"/>
<polygon fill="none" stroke="#404040" points="290.791,-619.737 296.283,-624.41 294.081,-631.277 288.589,-626.604 290.791,-619.737"/>
<text text-anchor="middle" x="299.5" y="-605" font-family="Helvetica,sans-Serif" font-size="10.00"> #sm</text>
</g>
<!-- Node13 -->
<g id="node10" class="node"><title>Node13</title>
<g id="a_node10"><a xlink:href="classnet_1_1_net_state_machine.html" target="_top" xlink:title="{NetStateMachine\n|+ netOverlayPrefab\l&#45; netOverlayInstance\l|+ IsMaster()\l+ GetCurStateName()\l+ GetNetOverlay()\l+ HideNetOverlay()\l# MyAwake()\l&#45; OnDisconnect()\l}">
<polygon fill="white" stroke="black" points="196,-277.5 196,-400.5 307,-400.5 307,-277.5 196,-277.5"/>
<text text-anchor="middle" x="251.5" y="-388.5" font-family="Helvetica,sans-Serif" font-size="10.00">NetStateMachine</text>
<polyline fill="none" stroke="black" points="196,-381.5 307,-381.5 "/>
<text text-anchor="start" x="204" y="-369.5" font-family="Helvetica,sans-Serif" font-size="10.00">+ netOverlayPrefab</text>
<text text-anchor="start" x="204" y="-358.5" font-family="Helvetica,sans-Serif" font-size="10.00">&#45; netOverlayInstance</text>
<polyline fill="none" stroke="black" points="196,-351.5 307,-351.5 "/>
<text text-anchor="start" x="204" y="-339.5" font-family="Helvetica,sans-Serif" font-size="10.00">+ IsMaster()</text>
<text text-anchor="start" x="204" y="-328.5" font-family="Helvetica,sans-Serif" font-size="10.00">+ GetCurStateName()</text>
<text text-anchor="start" x="204" y="-317.5" font-family="Helvetica,sans-Serif" font-size="10.00">+ GetNetOverlay()</text>
<text text-anchor="start" x="204" y="-306.5" font-family="Helvetica,sans-Serif" font-size="10.00">+ HideNetOverlay()</text>
<text text-anchor="start" x="204" y="-295.5" font-family="Helvetica,sans-Serif" font-size="10.00"># MyAwake()</text>
<text text-anchor="start" x="204" y="-284.5" font-family="Helvetica,sans-Serif" font-size="10.00">&#45; OnDisconnect()</text>
</a>
</g>
</g>
<!-- Node8&#45;&gt;Node13 -->
<g id="edge11" class="edge"><title>Node8&#45;&gt;Node13</title>
<path fill="none" stroke="midnightblue" d="M238.507,-428.355C239.873,-419.062 241.248,-409.716 242.565,-400.761"/>
<polygon fill="none" stroke="midnightblue" points="235.022,-427.995 237.03,-438.397 241.948,-429.013 235.022,-427.995"/>
</g>
<!-- Node9 -->
<g id="node6" class="node"><title>Node9</title>
<polygon fill="white" stroke="#bfbfbf" points="0,-681 0,-738 83,-738 83,-681 0,-681"/>
<text text-anchor="middle" x="41.5" y="-726" font-family="Helvetica,sans-Serif" font-size="10.00">MonoBehaviour</text>
<polyline fill="none" stroke="#bfbfbf" points="0,-719 83,-719 "/>
<text text-anchor="middle" x="41.5" y="-707" font-family="Helvetica,sans-Serif" font-size="10.00"> </text>
<polyline fill="none" stroke="#bfbfbf" points="0,-700 83,-700 "/>
<text text-anchor="middle" x="41.5" y="-688" font-family="Helvetica,sans-Serif" font-size="10.00"> </text>
</g>
<!-- Node9&#45;&gt;Node8 -->
<g id="edge5" class="edge"><title>Node9&#45;&gt;Node8</title>
<path fill="none" stroke="midnightblue" d="M62.5419,-672.433C70.9522,-658.99 81.104,-643.877 91.5,-631 111.813,-605.839 137.767,-581.572 161.481,-561.589"/>
<polygon fill="none" stroke="midnightblue" points="59.5391,-670.635 57.2817,-680.986 65.5017,-674.302 59.5391,-670.635"/>
</g>
<!-- Node10 -->
<g id="node7" class="node"><title>Node10</title>
<g id="a_node7"><a xlink:href="class_unity_string_event.html" target="_top" xlink:title="{UnityStringEvent\n||}">
<polygon fill="white" stroke="black" points="101,-681 101,-738 190,-738 190,-681 101,-681"/>
<text text-anchor="middle" x="145.5" y="-726" font-family="Helvetica,sans-Serif" font-size="10.00">UnityStringEvent</text>
<polyline fill="none" stroke="black" points="101,-719 190,-719 "/>
<text text-anchor="middle" x="145.5" y="-707" font-family="Helvetica,sans-Serif" font-size="10.00"> </text>
<polyline fill="none" stroke="black" points="101,-700 190,-700 "/>
<text text-anchor="middle" x="145.5" y="-688" font-family="Helvetica,sans-Serif" font-size="10.00"> </text>
</a>
</g>
</g>
<!-- Node10&#45;&gt;Node8 -->
<g id="edge6" class="edge"><title>Node10&#45;&gt;Node8</title>
<path fill="none" stroke="#404040" d="M132.424,-680.73C123.939,-658.583 116.348,-627.209 127.5,-602 133.41,-588.64 142.391,-576.413 152.577,-565.568"/>
<polygon fill="none" stroke="#404040" points="152.882,-565.265 154.304,-558.195 161.377,-556.789 159.954,-563.858 152.882,-565.265"/>
<text text-anchor="middle" x="172" y="-605" font-family="Helvetica,sans-Serif" font-size="10.00"> +stateEnteredEvent</text>
</g>
<!-- Node11 -->
<g id="node8" class="node"><title>Node11</title>
<polygon fill="white" stroke="#bfbfbf" points="93,-852 93,-909 198,-909 198,-852 93,-852"/>
<text text-anchor="middle" x="145.5" y="-897" font-family="Helvetica,sans-Serif" font-size="10.00">UnityEvent&lt; string &gt;</text>
<polyline fill="none" stroke="#bfbfbf" points="93,-890 198,-890 "/>
<text text-anchor="middle" x="145.5" y="-878" font-family="Helvetica,sans-Serif" font-size="10.00"> </text>
<polyline fill="none" stroke="#bfbfbf" points="93,-871 198,-871 "/>
<text text-anchor="middle" x="145.5" y="-859" font-family="Helvetica,sans-Serif" font-size="10.00"> </text>
</g>
<!-- Node11&#45;&gt;Node10 -->
<g id="edge7" class="edge"><title>Node11&#45;&gt;Node10</title>
<path fill="none" stroke="midnightblue" d="M145.5,-841.828C145.5,-810.367 145.5,-766.248 145.5,-738.017"/>
<polygon fill="none" stroke="midnightblue" points="142,-841.971 145.5,-851.971 149,-841.971 142,-841.971"/>
</g>
<!-- Node12 -->
<g id="node9" class="node"><title>Node12</title>
<g id="a_node9"><a xlink:href="class_listener_group.html" target="_top" xlink:title="Helper class to execute adding and removing on all held Listeners (Events + Callbacks). ">
<polygon fill="white" stroke="black" points="368.5,-835.5 368.5,-925.5 456.5,-925.5 456.5,-835.5 368.5,-835.5"/>
<text text-anchor="middle" x="412.5" y="-913.5" font-family="Helvetica,sans-Serif" font-size="10.00">ListenerGroup</text>
<polyline fill="none" stroke="black" points="368.5,-906.5 456.5,-906.5 "/>
<text text-anchor="start" x="376.5" y="-894.5" font-family="Helvetica,sans-Serif" font-size="10.00">&#45; heldListeners</text>
<polyline fill="none" stroke="black" points="368.5,-887.5 456.5,-887.5 "/>
<text text-anchor="start" x="376.5" y="-875.5" font-family="Helvetica,sans-Serif" font-size="10.00">+ Add()</text>
<text text-anchor="start" x="376.5" y="-864.5" font-family="Helvetica,sans-Serif" font-size="10.00">+ Add()</text>
<text text-anchor="start" x="376.5" y="-853.5" font-family="Helvetica,sans-Serif" font-size="10.00">+ ActivateAll()</text>
<text text-anchor="start" x="376.5" y="-842.5" font-family="Helvetica,sans-Serif" font-size="10.00">+ DeactivateAll()</text>
</a>
</g>
</g>
<!-- Node12&#45;&gt;Node6 -->
<g id="edge9" class="edge"><title>Node12&#45;&gt;Node6</title>
<path fill="none" stroke="#404040" d="M384.65,-835.097C377.438,-823.599 369.418,-810.812 361.34,-797.934"/>
<polygon fill="none" stroke="#404040" points="361.24,-797.775 354.664,-794.817 354.864,-787.609 361.441,-790.566 361.24,-797.775"/>
<text text-anchor="middle" x="394" y="-809" font-family="Helvetica,sans-Serif" font-size="10.00"> &#45;listeners</text>
</g>
<!-- Node13&#45;&gt;Node5 -->
<g id="edge10" class="edge"><title>Node13&#45;&gt;Node5</title>
<path fill="none" stroke="#404040" d="M272.352,-277.119C276.341,-265.475 280.536,-253.225 284.585,-241.404"/>
<polygon fill="none" stroke="#404040" points="284.683,-241.117 282.843,-234.145 288.571,-229.765 290.411,-236.737 284.683,-241.117"/>
<text text-anchor="middle" x="300" y="-251" font-family="Helvetica,sans-Serif" font-size="10.00"> #netSM</text>
</g>
</g>
</svg>
