<?xml version="1.0" encoding="UTF-8" standalone="no"?>
<!DOCTYPE svg PUBLIC "-//W3C//DTD SVG 1.1//EN"
 "http://www.w3.org/Graphics/SVG/1.1/DTD/svg11.dtd">
<!-- Generated by graphviz version 2.38.0 (20140413.2041)
 -->
<!-- Title: JoinRoomState Pages: 1 -->
<svg width="143pt" height="579pt"
 viewBox="0.00 0.00 143.00 579.00" xmlns="http://www.w3.org/2000/svg" xmlns:xlink="http://www.w3.org/1999/xlink">
<g id="graph0" class="graph" transform="scale(1 1) rotate(0) translate(4 575)">
<title>JoinRoomState</title>
<polygon fill="white" stroke="none" points="-4,4 -4,-575 139,-575 139,4 -4,4"/>
<!-- Node0 -->
<g id="node1" class="node"><title>Node0</title>
<polygon fill="#bfbfbf" stroke="black" points="6.5,-0.5 6.5,-101.5 128.5,-101.5 128.5,-0.5 6.5,-0.5"/>
<text text-anchor="middle" x="67.5" y="-89.5" font-family="Helvetica,sans-Serif" font-size="10.00">JoinRoomState</text>
<polyline fill="none" stroke="black" points="6.5,-82.5 128.5,-82.5 "/>
<text text-anchor="middle" x="67.5" y="-70.5" font-family="Helvetica,sans-Serif" font-size="10.00"> </text>
<polyline fill="none" stroke="black" points="6.5,-63.5 128.5,-63.5 "/>
<text text-anchor="start" x="14.5" y="-51.5" font-family="Helvetica,sans-Serif" font-size="10.00"># OnMyStateInit()</text>
<text text-anchor="start" x="14.5" y="-40.5" font-family="Helvetica,sans-Serif" font-size="10.00"># OnOverlayStateEnter()</text>
<text text-anchor="start" x="14.5" y="-29.5" font-family="Helvetica,sans-Serif" font-size="10.00">&#45; OnJoinedRoom()</text>
<text text-anchor="start" x="14.5" y="-18.5" font-family="Helvetica,sans-Serif" font-size="10.00">&#45; OnJoinedRoomFailed()</text>
<text text-anchor="start" x="14.5" y="-7.5" font-family="Helvetica,sans-Serif" font-size="10.00">&#45; OnCancelBtnPressed()</text>
</g>
<!-- Node1 -->
<g id="node2" class="node"><title>Node1</title>
<g id="a_node2"><a xlink:href="classnet_1_1_net_overlay_state.html" target="_top" xlink:title="{NetOverlayState\n|# netOverlayRef\l# netSM\l&#45; minVisibleTime\l&#45; timestampOfStateEntered\l|# TriggerTransitionWithMin\lVisibleTime()\l# OnOverlayStateEnter()\l# OnMyStateEnter()\l}">
<polygon fill="white" stroke="black" points="0,-138.5 0,-261.5 135,-261.5 135,-138.5 0,-138.5"/>
<text text-anchor="middle" x="67.5" y="-249.5" font-family="Helvetica,sans-Serif" font-size="10.00">NetOverlayState</text>
<polyline fill="none" stroke="black" points="0,-242.5 135,-242.5 "/>
<text text-anchor="start" x="8" y="-230.5" font-family="Helvetica,sans-Serif" font-size="10.00"># netOverlayRef</text>
<text text-anchor="start" x="8" y="-219.5" font-family="Helvetica,sans-Serif" font-size="10.00"># netSM</text>
<text text-anchor="start" x="8" y="-208.5" font-family="Helvetica,sans-Serif" font-size="10.00">&#45; minVisibleTime</text>
<text text-anchor="start" x="8" y="-197.5" font-family="Helvetica,sans-Serif" font-size="10.00">&#45; timestampOfStateEntered</text>
<polyline fill="none" stroke="black" points="0,-190.5 135,-190.5 "/>
<text text-anchor="start" x="8" y="-178.5" font-family="Helvetica,sans-Serif" font-size="10.00"># TriggerTransitionWithMin</text>
<text text-anchor="start" x="8" y="-167.5" font-family="Helvetica,sans-Serif" font-size="10.00">VisibleTime()</text>
<text text-anchor="start" x="8" y="-156.5" font-family="Helvetica,sans-Serif" font-size="10.00"># OnOverlayStateEnter()</text>
<text text-anchor="start" x="8" y="-145.5" font-family="Helvetica,sans-Serif" font-size="10.00"># OnMyStateEnter()</text>
</a>
</g>
</g>
<!-- Node1&#45;&gt;Node0 -->
<g id="edge1" class="edge"><title>Node1&#45;&gt;Node0</title>
<path fill="none" stroke="midnightblue" d="M67.5,-128.289C67.5,-119.323 67.5,-110.301 67.5,-101.758"/>
<polygon fill="none" stroke="midnightblue" points="64.0001,-128.361 67.5,-138.361 71.0001,-128.361 64.0001,-128.361"/>
</g>
<!-- Node2 -->
<g id="node3" class="node"><title>Node2</title>
<g id="a_node3"><a xlink:href="class_state.html" target="_top" xlink:title="Extended functionality for Unity SM Behaviours and makes them complete &#39;States&#39;. ">
<polygon fill="white" stroke="black" points="15.5,-298.5 15.5,-476.5 119.5,-476.5 119.5,-298.5 15.5,-298.5"/>
<text text-anchor="middle" x="67.5" y="-464.5" font-family="Helvetica,sans-Serif" font-size="10.00">State</text>
<polyline fill="none" stroke="black" points="15.5,-457.5 119.5,-457.5 "/>
<text text-anchor="start" x="23.5" y="-445.5" font-family="Helvetica,sans-Serif" font-size="10.00">+ name</text>
<text text-anchor="start" x="23.5" y="-434.5" font-family="Helvetica,sans-Serif" font-size="10.00">+ triggers</text>
<text text-anchor="start" x="23.5" y="-423.5" font-family="Helvetica,sans-Serif" font-size="10.00"># sm</text>
<text text-anchor="start" x="23.5" y="-412.5" font-family="Helvetica,sans-Serif" font-size="10.00">&#45; listeners</text>
<polyline fill="none" stroke="black" points="15.5,-405.5 119.5,-405.5 "/>
<text text-anchor="start" x="23.5" y="-393.5" font-family="Helvetica,sans-Serif" font-size="10.00">+ IsActiveState()</text>
<text text-anchor="start" x="23.5" y="-382.5" font-family="Helvetica,sans-Serif" font-size="10.00">+ Init()</text>
<text text-anchor="start" x="23.5" y="-371.5" font-family="Helvetica,sans-Serif" font-size="10.00">+ OnStateEnter()</text>
<text text-anchor="start" x="23.5" y="-360.5" font-family="Helvetica,sans-Serif" font-size="10.00">+ OnStateExit()</text>
<text text-anchor="start" x="23.5" y="-349.5" font-family="Helvetica,sans-Serif" font-size="10.00"># AddAutoListener()</text>
<text text-anchor="start" x="23.5" y="-338.5" font-family="Helvetica,sans-Serif" font-size="10.00"># TriggerTransition()</text>
<text text-anchor="start" x="23.5" y="-327.5" font-family="Helvetica,sans-Serif" font-size="10.00"># OnMyStateEnter()</text>
<text text-anchor="start" x="23.5" y="-316.5" font-family="Helvetica,sans-Serif" font-size="10.00"># OnMyStateExit()</text>
<text text-anchor="start" x="23.5" y="-305.5" font-family="Helvetica,sans-Serif" font-size="10.00"># OnMyStateInit()</text>
</a>
</g>
</g>
<!-- Node2&#45;&gt;Node1 -->
<g id="edge2" class="edge"><title>Node2&#45;&gt;Node1</title>
<path fill="none" stroke="midnightblue" d="M67.5,-288.162C67.5,-279.134 67.5,-270.176 67.5,-261.633"/>
<polygon fill="none" stroke="midnightblue" points="64.0001,-288.368 67.5,-298.368 71.0001,-288.368 64.0001,-288.368"/>
</g>
<!-- Node3 -->
<g id="node4" class="node"><title>Node3</title>
<polygon fill="white" stroke="#bfbfbf" points="8,-513.5 8,-570.5 127,-570.5 127,-513.5 8,-513.5"/>
<text text-anchor="middle" x="67.5" y="-558.5" font-family="Helvetica,sans-Serif" font-size="10.00">StateMachineBehaviour</text>
<polyline fill="none" stroke="#bfbfbf" points="8,-551.5 127,-551.5 "/>
<text text-anchor="middle" x="67.5" y="-539.5" font-family="Helvetica,sans-Serif" font-size="10.00"> </text>
<polyline fill="none" stroke="#bfbfbf" points="8,-532.5 127,-532.5 "/>
<text text-anchor="middle" x="67.5" y="-520.5" font-family="Helvetica,sans-Serif" font-size="10.00"> </text>
</g>
<!-- Node3&#45;&gt;Node2 -->
<g id="edge3" class="edge"><title>Node3&#45;&gt;Node2</title>
<path fill="none" stroke="midnightblue" d="M67.5,-503.374C67.5,-495.089 67.5,-485.977 67.5,-476.62"/>
<polygon fill="none" stroke="midnightblue" points="64.0001,-503.383 67.5,-513.383 71.0001,-503.383 64.0001,-503.383"/>
</g>
</g>
</svg>
