<?xml version="1.0" encoding="UTF-8" standalone="no"?>
<!DOCTYPE svg PUBLIC "-//W3C//DTD SVG 1.1//EN"
 "http://www.w3.org/Graphics/SVG/1.1/DTD/svg11.dtd">
<!-- Generated by graphviz version 2.38.0 (20140413.2041)
 -->
<!-- Title: NetStateMachine Pages: 1 -->
<svg width="310pt" height="709pt"
 viewBox="0.00 0.00 310.00 709.00" xmlns="http://www.w3.org/2000/svg" xmlns:xlink="http://www.w3.org/1999/xlink">
<g id="graph0" class="graph" transform="scale(1 1) rotate(0) translate(4 705)">
<title>NetStateMachine</title>
<polygon fill="white" stroke="none" points="-4,4 -4,-705 306,-705 306,4 -4,4"/>
<!-- Node3 -->
<g id="node1" class="node"><title>Node3</title>
<polygon fill="#bfbfbf" stroke="black" points="87,-0.5 87,-123.5 198,-123.5 198,-0.5 87,-0.5"/>
<text text-anchor="middle" x="142.5" y="-111.5" font-family="Helvetica,sans-Serif" font-size="10.00">NetStateMachine</text>
<polyline fill="none" stroke="black" points="87,-104.5 198,-104.5 "/>
<text text-anchor="start" x="95" y="-92.5" font-family="Helvetica,sans-Serif" font-size="10.00">+ netOverlayPrefab</text>
<text text-anchor="start" x="95" y="-81.5" font-family="Helvetica,sans-Serif" font-size="10.00">&#45; netOverlayInstance</text>
<polyline fill="none" stroke="black" points="87,-74.5 198,-74.5 "/>
<text text-anchor="start" x="95" y="-62.5" font-family="Helvetica,sans-Serif" font-size="10.00">+ IsMaster()</text>
<text text-anchor="start" x="95" y="-51.5" font-family="Helvetica,sans-Serif" font-size="10.00">+ GetCurStateName()</text>
<text text-anchor="start" x="95" y="-40.5" font-family="Helvetica,sans-Serif" font-size="10.00">+ GetNetOverlay()</text>
<text text-anchor="start" x="95" y="-29.5" font-family="Helvetica,sans-Serif" font-size="10.00">+ HideNetOverlay()</text>
<text text-anchor="start" x="95" y="-18.5" font-family="Helvetica,sans-Serif" font-size="10.00"># MyAwake()</text>
<text text-anchor="start" x="95" y="-7.5" font-family="Helvetica,sans-Serif" font-size="10.00">&#45; OnDisconnect()</text>
</g>
<!-- Node4 -->
<g id="node2" class="node"><title>Node4</title>
<g id="a_node2"><a xlink:href="class_state_machine.html" target="_top" xlink:title="Common Base class for all state machines. ">
<polygon fill="white" stroke="black" points="77.5,-161.5 77.5,-317.5 207.5,-317.5 207.5,-161.5 77.5,-161.5"/>
<text text-anchor="middle" x="142.5" y="-305.5" font-family="Helvetica,sans-Serif" font-size="10.00">StateMachine</text>
<polyline fill="none" stroke="black" points="77.5,-298.5 207.5,-298.5 "/>
<text text-anchor="start" x="85.5" y="-286.5" font-family="Helvetica,sans-Serif" font-size="10.00">+ logEnabled</text>
<text text-anchor="start" x="85.5" y="-275.5" font-family="Helvetica,sans-Serif" font-size="10.00">+ globalValidTriggers</text>
<text text-anchor="start" x="85.5" y="-264.5" font-family="Helvetica,sans-Serif" font-size="10.00"># controller</text>
<text text-anchor="start" x="85.5" y="-253.5" font-family="Helvetica,sans-Serif" font-size="10.00">&#45; states</text>
<polyline fill="none" stroke="black" points="77.5,-246.5 207.5,-246.5 "/>
<text text-anchor="start" x="85.5" y="-234.5" font-family="Helvetica,sans-Serif" font-size="10.00">+ GetActiveState()</text>
<text text-anchor="start" x="85.5" y="-223.5" font-family="Helvetica,sans-Serif" font-size="10.00">+ TriggerTransition()</text>
<text text-anchor="start" x="85.5" y="-212.5" font-family="Helvetica,sans-Serif" font-size="10.00">+ TriggerTransition()</text>
<text text-anchor="start" x="85.5" y="-201.5" font-family="Helvetica,sans-Serif" font-size="10.00">+ TriggerTransition()</text>
<text text-anchor="start" x="85.5" y="-190.5" font-family="Helvetica,sans-Serif" font-size="10.00">+ AnnounceCurrentState()</text>
<text text-anchor="start" x="85.5" y="-179.5" font-family="Helvetica,sans-Serif" font-size="10.00"># MyAwake()</text>
<text text-anchor="start" x="85.5" y="-168.5" font-family="Helvetica,sans-Serif" font-size="10.00">&#45; Awake()</text>
</a>
</g>
</g>
<!-- Node4&#45;&gt;Node3 -->
<g id="edge1" class="edge"><title>Node4&#45;&gt;Node3</title>
<path fill="none" stroke="midnightblue" d="M142.5,-151.186C142.5,-141.874 142.5,-132.556 142.5,-123.65"/>
<polygon fill="none" stroke="midnightblue" points="139,-151.268 142.5,-161.268 146,-151.268 139,-151.268"/>
</g>
<!-- Node5 -->
<g id="node3" class="node"><title>Node5</title>
<polygon fill="white" stroke="#bfbfbf" points="0,-376.5 0,-433.5 83,-433.5 83,-376.5 0,-376.5"/>
<text text-anchor="middle" x="41.5" y="-421.5" font-family="Helvetica,sans-Serif" font-size="10.00">MonoBehaviour</text>
<polyline fill="none" stroke="#bfbfbf" points="0,-414.5 83,-414.5 "/>
<text text-anchor="middle" x="41.5" y="-402.5" font-family="Helvetica,sans-Serif" font-size="10.00"> </text>
<polyline fill="none" stroke="#bfbfbf" points="0,-395.5 83,-395.5 "/>
<text text-anchor="middle" x="41.5" y="-383.5" font-family="Helvetica,sans-Serif" font-size="10.00"> </text>
</g>
<!-- Node5&#45;&gt;Node4 -->
<g id="edge2" class="edge"><title>Node5&#45;&gt;Node4</title>
<path fill="none" stroke="midnightblue" d="M64.0625,-367.476C73.1777,-352.72 84.0649,-335.095 94.7844,-317.743"/>
<polygon fill="none" stroke="midnightblue" points="60.9111,-365.917 58.6333,-376.264 66.8665,-369.596 60.9111,-365.917"/>
</g>
<!-- Node6 -->
<g id="node4" class="node"><title>Node6</title>
<g id="a_node4"><a xlink:href="interface_i_state.html" target="_top" xlink:title="{IState\n||+ GetName()\l+ GetTriggers()\l+ Init()\l}">
<polygon fill="white" stroke="black" points="101.5,-365.5 101.5,-444.5 183.5,-444.5 183.5,-365.5 101.5,-365.5"/>
<text text-anchor="middle" x="142.5" y="-432.5" font-family="Helvetica,sans-Serif" font-size="10.00">IState</text>
<polyline fill="none" stroke="black" points="101.5,-425.5 183.5,-425.5 "/>
<text text-anchor="middle" x="142.5" y="-413.5" font-family="Helvetica,sans-Serif" font-size="10.00"> </text>
<polyline fill="none" stroke="black" points="101.5,-406.5 183.5,-406.5 "/>
<text text-anchor="start" x="109.5" y="-394.5" font-family="Helvetica,sans-Serif" font-size="10.00">+ GetName()</text>
<text text-anchor="start" x="109.5" y="-383.5" font-family="Helvetica,sans-Serif" font-size="10.00">+ GetTriggers()</text>
<text text-anchor="start" x="109.5" y="-372.5" font-family="Helvetica,sans-Serif" font-size="10.00">+ Init()</text>
</a>
</g>
</g>
<!-- Node6&#45;&gt;Node4 -->
<g id="edge3" class="edge"><title>Node6&#45;&gt;Node4</title>
<path fill="none" stroke="#404040" d="M142.5,-365.253C142.5,-354.375 142.5,-342.078 142.5,-329.55"/>
<polygon fill="none" stroke="#404040" points="142.5,-329.507 138.5,-323.507 142.5,-317.507 146.5,-323.507 142.5,-329.507"/>
<text text-anchor="middle" x="171" y="-339" font-family="Helvetica,sans-Serif" font-size="10.00"> #activeState</text>
</g>
<!-- Node7 -->
<g id="node5" class="node"><title>Node7</title>
<g id="a_node5"><a xlink:href="class_game_string_event.html" target="_top" xlink:title="{GameStringEvent\n||}">
<polygon fill="white" stroke="black" points="201.5,-376.5 201.5,-433.5 293.5,-433.5 293.5,-376.5 201.5,-376.5"/>
<text text-anchor="middle" x="247.5" y="-421.5" font-family="Helvetica,sans-Serif" font-size="10.00">GameStringEvent</text>
<polyline fill="none" stroke="black" points="201.5,-414.5 293.5,-414.5 "/>
<text text-anchor="middle" x="247.5" y="-402.5" font-family="Helvetica,sans-Serif" font-size="10.00"> </text>
<polyline fill="none" stroke="black" points="201.5,-395.5 293.5,-395.5 "/>
<text text-anchor="middle" x="247.5" y="-383.5" font-family="Helvetica,sans-Serif" font-size="10.00"> </text>
</a>
</g>
</g>
<!-- Node7&#45;&gt;Node4 -->
<g id="edge4" class="edge"><title>Node7&#45;&gt;Node4</title>
<path fill="none" stroke="#404040" d="M229.688,-376.264C220.982,-362.708 209.972,-345.564 198.734,-328.064"/>
<polygon fill="none" stroke="#404040" points="198.59,-327.84 191.982,-324.953 192.105,-317.743 198.713,-320.63 198.59,-327.84"/>
<text text-anchor="middle" x="255" y="-339" font-family="Helvetica,sans-Serif" font-size="10.00"> +stateEnteredEvent</text>
</g>
<!-- Node8 -->
<g id="node6" class="node"><title>Node8</title>
<g id="a_node6"><a xlink:href="class_game_event.html" target="_top" xlink:title="{GameEvent\&lt; string \&gt;\n|+ Event\l+ Event\l|+ Invoke()\l+ Invoke()\l+ AddListener()\l+ AddListener()\l+ RemovedListener()\l+ RemoveListener()\l}">
<polygon fill="white" stroke="black" points="193,-482.5 193,-605.5 302,-605.5 302,-482.5 193,-482.5"/>
<text text-anchor="middle" x="247.5" y="-593.5" font-family="Helvetica,sans-Serif" font-size="10.00">GameEvent&lt; string &gt;</text>
<polyline fill="none" stroke="black" points="193,-586.5 302,-586.5 "/>
<text text-anchor="start" x="201" y="-574.5" font-family="Helvetica,sans-Serif" font-size="10.00">+ Event</text>
<text text-anchor="start" x="201" y="-563.5" font-family="Helvetica,sans-Serif" font-size="10.00">+ Event</text>
<polyline fill="none" stroke="black" points="193,-556.5 302,-556.5 "/>
<text text-anchor="start" x="201" y="-544.5" font-family="Helvetica,sans-Serif" font-size="10.00">+ Invoke()</text>
<text text-anchor="start" x="201" y="-533.5" font-family="Helvetica,sans-Serif" font-size="10.00">+ Invoke()</text>
<text text-anchor="start" x="201" y="-522.5" font-family="Helvetica,sans-Serif" font-size="10.00">+ AddListener()</text>
<text text-anchor="start" x="201" y="-511.5" font-family="Helvetica,sans-Serif" font-size="10.00">+ AddListener()</text>
<text text-anchor="start" x="201" y="-500.5" font-family="Helvetica,sans-Serif" font-size="10.00">+ RemovedListener()</text>
<text text-anchor="start" x="201" y="-489.5" font-family="Helvetica,sans-Serif" font-size="10.00">+ RemoveListener()</text>
</a>
</g>
</g>
<!-- Node8&#45;&gt;Node7 -->
<g id="edge5" class="edge"><title>Node8&#45;&gt;Node7</title>
<path fill="none" stroke="midnightblue" d="M247.5,-471.792C247.5,-458.288 247.5,-444.924 247.5,-433.804"/>
<polygon fill="none" stroke="midnightblue" points="244,-472.112 247.5,-482.112 251,-472.112 244,-472.112"/>
</g>
<!-- Node9 -->
<g id="node7" class="node"><title>Node9</title>
<polygon fill="white" stroke="#bfbfbf" points="203,-643.5 203,-700.5 292,-700.5 292,-643.5 203,-643.5"/>
<text text-anchor="middle" x="247.5" y="-688.5" font-family="Helvetica,sans-Serif" font-size="10.00">ScriptableObject</text>
<polyline fill="none" stroke="#bfbfbf" points="203,-681.5 292,-681.5 "/>
<text text-anchor="middle" x="247.5" y="-669.5" font-family="Helvetica,sans-Serif" font-size="10.00"> </text>
<polyline fill="none" stroke="#bfbfbf" points="203,-662.5 292,-662.5 "/>
<text text-anchor="middle" x="247.5" y="-650.5" font-family="Helvetica,sans-Serif" font-size="10.00"> </text>
</g>
<!-- Node9&#45;&gt;Node8 -->
<g id="edge6" class="edge"><title>Node9&#45;&gt;Node8</title>
<path fill="none" stroke="midnightblue" d="M247.5,-633.182C247.5,-624.491 247.5,-615.033 247.5,-605.646"/>
<polygon fill="none" stroke="midnightblue" points="244,-633.349 247.5,-643.349 251,-633.349 244,-633.349"/>
</g>
</g>
</svg>
