<?xml version="1.0" encoding="UTF-8" standalone="no"?>
<!DOCTYPE svg PUBLIC "-//W3C//DTD SVG 1.1//EN"
 "http://www.w3.org/Graphics/SVG/1.1/DTD/svg11.dtd">
<!-- Generated by graphviz version 2.38.0 (20140413.2041)
 -->
<!-- Title: StateMachine Pages: 1 -->
<svg width="310pt" height="548pt"
 viewBox="0.00 0.00 310.00 548.00" xmlns="http://www.w3.org/2000/svg" xmlns:xlink="http://www.w3.org/1999/xlink">
<g id="graph0" class="graph" transform="scale(1 1) rotate(0) translate(4 544)">
<title>StateMachine</title>
<polygon fill="white" stroke="none" points="-4,4 -4,-544 306,-544 306,4 -4,4"/>
<!-- Node6 -->
<g id="node1" class="node"><title>Node6</title>
<polygon fill="#bfbfbf" stroke="black" points="77.5,-0.5 77.5,-156.5 207.5,-156.5 207.5,-0.5 77.5,-0.5"/>
<text text-anchor="middle" x="142.5" y="-144.5" font-family="Helvetica,sans-Serif" font-size="10.00">StateMachine</text>
<polyline fill="none" stroke="black" points="77.5,-137.5 207.5,-137.5 "/>
<text text-anchor="start" x="85.5" y="-125.5" font-family="Helvetica,sans-Serif" font-size="10.00">+ logEnabled</text>
<text text-anchor="start" x="85.5" y="-114.5" font-family="Helvetica,sans-Serif" font-size="10.00">+ globalValidTriggers</text>
<text text-anchor="start" x="85.5" y="-103.5" font-family="Helvetica,sans-Serif" font-size="10.00"># controller</text>
<text text-anchor="start" x="85.5" y="-92.5" font-family="Helvetica,sans-Serif" font-size="10.00">&#45; states</text>
<polyline fill="none" stroke="black" points="77.5,-85.5 207.5,-85.5 "/>
<text text-anchor="start" x="85.5" y="-73.5" font-family="Helvetica,sans-Serif" font-size="10.00">+ GetActiveState()</text>
<text text-anchor="start" x="85.5" y="-62.5" font-family="Helvetica,sans-Serif" font-size="10.00">+ TriggerTransition()</text>
<text text-anchor="start" x="85.5" y="-51.5" font-family="Helvetica,sans-Serif" font-size="10.00">+ TriggerTransition()</text>
<text text-anchor="start" x="85.5" y="-40.5" font-family="Helvetica,sans-Serif" font-size="10.00">+ TriggerTransition()</text>
<text text-anchor="start" x="85.5" y="-29.5" font-family="Helvetica,sans-Serif" font-size="10.00">+ AnnounceCurrentState()</text>
<text text-anchor="start" x="85.5" y="-18.5" font-family="Helvetica,sans-Serif" font-size="10.00"># MyAwake()</text>
<text text-anchor="start" x="85.5" y="-7.5" font-family="Helvetica,sans-Serif" font-size="10.00">&#45; Awake()</text>
</g>
<!-- Node7 -->
<g id="node2" class="node"><title>Node7</title>
<polygon fill="white" stroke="#bfbfbf" points="0,-215.5 0,-272.5 83,-272.5 83,-215.5 0,-215.5"/>
<text text-anchor="middle" x="41.5" y="-260.5" font-family="Helvetica,sans-Serif" font-size="10.00">MonoBehaviour</text>
<polyline fill="none" stroke="#bfbfbf" points="0,-253.5 83,-253.5 "/>
<text text-anchor="middle" x="41.5" y="-241.5" font-family="Helvetica,sans-Serif" font-size="10.00"> </text>
<polyline fill="none" stroke="#bfbfbf" points="0,-234.5 83,-234.5 "/>
<text text-anchor="middle" x="41.5" y="-222.5" font-family="Helvetica,sans-Serif" font-size="10.00"> </text>
</g>
<!-- Node7&#45;&gt;Node6 -->
<g id="edge1" class="edge"><title>Node7&#45;&gt;Node6</title>
<path fill="none" stroke="midnightblue" d="M64.0625,-206.476C73.1777,-191.72 84.0649,-174.095 94.7844,-156.743"/>
<polygon fill="none" stroke="midnightblue" points="60.9111,-204.917 58.6333,-215.264 66.8665,-208.596 60.9111,-204.917"/>
</g>
<!-- Node8 -->
<g id="node3" class="node"><title>Node8</title>
<g id="a_node3"><a xlink:href="interface_i_state.html" target="_top" xlink:title="{IState\n||+ GetName()\l+ GetTriggers()\l+ Init()\l}">
<polygon fill="white" stroke="black" points="101.5,-204.5 101.5,-283.5 183.5,-283.5 183.5,-204.5 101.5,-204.5"/>
<text text-anchor="middle" x="142.5" y="-271.5" font-family="Helvetica,sans-Serif" font-size="10.00">IState</text>
<polyline fill="none" stroke="black" points="101.5,-264.5 183.5,-264.5 "/>
<text text-anchor="middle" x="142.5" y="-252.5" font-family="Helvetica,sans-Serif" font-size="10.00"> </text>
<polyline fill="none" stroke="black" points="101.5,-245.5 183.5,-245.5 "/>
<text text-anchor="start" x="109.5" y="-233.5" font-family="Helvetica,sans-Serif" font-size="10.00">+ GetName()</text>
<text text-anchor="start" x="109.5" y="-222.5" font-family="Helvetica,sans-Serif" font-size="10.00">+ GetTriggers()</text>
<text text-anchor="start" x="109.5" y="-211.5" font-family="Helvetica,sans-Serif" font-size="10.00">+ Init()</text>
</a>
</g>
</g>
<!-- Node8&#45;&gt;Node6 -->
<g id="edge2" class="edge"><title>Node8&#45;&gt;Node6</title>
<path fill="none" stroke="#404040" d="M142.5,-204.253C142.5,-193.375 142.5,-181.078 142.5,-168.55"/>
<polygon fill="none" stroke="#404040" points="142.5,-168.507 138.5,-162.507 142.5,-156.507 146.5,-162.507 142.5,-168.507"/>
<text text-anchor="middle" x="171" y="-178" font-family="Helvetica,sans-Serif" font-size="10.00"> #activeState</text>
</g>
<!-- Node9 -->
<g id="node4" class="node"><title>Node9</title>
<g id="a_node4"><a xlink:href="class_game_string_event.html" target="_top" xlink:title="{GameStringEvent\n||}">
<polygon fill="white" stroke="black" points="201.5,-215.5 201.5,-272.5 293.5,-272.5 293.5,-215.5 201.5,-215.5"/>
<text text-anchor="middle" x="247.5" y="-260.5" font-family="Helvetica,sans-Serif" font-size="10.00">GameStringEvent</text>
<polyline fill="none" stroke="black" points="201.5,-253.5 293.5,-253.5 "/>
<text text-anchor="middle" x="247.5" y="-241.5" font-family="Helvetica,sans-Serif" font-size="10.00"> </text>
<polyline fill="none" stroke="black" points="201.5,-234.5 293.5,-234.5 "/>
<text text-anchor="middle" x="247.5" y="-222.5" font-family="Helvetica,sans-Serif" font-size="10.00"> </text>
</a>
</g>
</g>
<!-- Node9&#45;&gt;Node6 -->
<g id="edge3" class="edge"><title>Node9&#45;&gt;Node6</title>
<path fill="none" stroke="#404040" d="M229.688,-215.264C220.982,-201.708 209.972,-184.564 198.734,-167.064"/>
<polygon fill="none" stroke="#404040" points="198.59,-166.84 191.982,-163.953 192.105,-156.743 198.713,-159.63 198.59,-166.84"/>
<text text-anchor="middle" x="255" y="-178" font-family="Helvetica,sans-Serif" font-size="10.00"> +stateEnteredEvent</text>
</g>
<!-- Node10 -->
<g id="node5" class="node"><title>Node10</title>
<g id="a_node5"><a xlink:href="class_game_event.html" target="_top" xlink:title="{GameEvent\&lt; string \&gt;\n|+ Event\l+ Event\l|+ Invoke()\l+ Invoke()\l+ AddListener()\l+ AddListener()\l+ RemovedListener()\l+ RemoveListener()\l}">
<polygon fill="white" stroke="black" points="193,-321.5 193,-444.5 302,-444.5 302,-321.5 193,-321.5"/>
<text text-anchor="middle" x="247.5" y="-432.5" font-family="Helvetica,sans-Serif" font-size="10.00">GameEvent&lt; string &gt;</text>
<polyline fill="none" stroke="black" points="193,-425.5 302,-425.5 "/>
<text text-anchor="start" x="201" y="-413.5" font-family="Helvetica,sans-Serif" font-size="10.00">+ Event</text>
<text text-anchor="start" x="201" y="-402.5" font-family="Helvetica,sans-Serif" font-size="10.00">+ Event</text>
<polyline fill="none" stroke="black" points="193,-395.5 302,-395.5 "/>
<text text-anchor="start" x="201" y="-383.5" font-family="Helvetica,sans-Serif" font-size="10.00">+ Invoke()</text>
<text text-anchor="start" x="201" y="-372.5" font-family="Helvetica,sans-Serif" font-size="10.00">+ Invoke()</text>
<text text-anchor="start" x="201" y="-361.5" font-family="Helvetica,sans-Serif" font-size="10.00">+ AddListener()</text>
<text text-anchor="start" x="201" y="-350.5" font-family="Helvetica,sans-Serif" font-size="10.00">+ AddListener()</text>
<text text-anchor="start" x="201" y="-339.5" font-family="Helvetica,sans-Serif" font-size="10.00">+ RemovedListener()</text>
<text text-anchor="start" x="201" y="-328.5" font-family="Helvetica,sans-Serif" font-size="10.00">+ RemoveListener()</text>
</a>
</g>
</g>
<!-- Node10&#45;&gt;Node9 -->
<g id="edge4" class="edge"><title>Node10&#45;&gt;Node9</title>
<path fill="none" stroke="midnightblue" d="M247.5,-310.792C247.5,-297.288 247.5,-283.924 247.5,-272.804"/>
<polygon fill="none" stroke="midnightblue" points="244,-311.112 247.5,-321.112 251,-311.112 244,-311.112"/>
</g>
<!-- Node11 -->
<g id="node6" class="node"><title>Node11</title>
<polygon fill="white" stroke="#bfbfbf" points="203,-482.5 203,-539.5 292,-539.5 292,-482.5 203,-482.5"/>
<text text-anchor="middle" x="247.5" y="-527.5" font-family="Helvetica,sans-Serif" font-size="10.00">ScriptableObject</text>
<polyline fill="none" stroke="#bfbfbf" points="203,-520.5 292,-520.5 "/>
<text text-anchor="middle" x="247.5" y="-508.5" font-family="Helvetica,sans-Serif" font-size="10.00"> </text>
<polyline fill="none" stroke="#bfbfbf" points="203,-501.5 292,-501.5 "/>
<text text-anchor="middle" x="247.5" y="-489.5" font-family="Helvetica,sans-Serif" font-size="10.00"> </text>
</g>
<!-- Node11&#45;&gt;Node10 -->
<g id="edge5" class="edge"><title>Node11&#45;&gt;Node10</title>
<path fill="none" stroke="midnightblue" d="M247.5,-472.182C247.5,-463.491 247.5,-454.033 247.5,-444.646"/>
<polygon fill="none" stroke="midnightblue" points="244,-472.349 247.5,-482.349 251,-472.349 244,-472.349"/>
</g>
</g>
</svg>
