<?xml version="1.0" encoding="UTF-8" standalone="no"?>
<!DOCTYPE svg PUBLIC "-//W3C//DTD SVG 1.1//EN"
 "http://www.w3.org/Graphics/SVG/1.1/DTD/svg11.dtd">
<!-- Generated by graphviz version 2.38.0 (20140413.2041)
 -->
<!-- Title: HostNewRoomState Pages: 1 -->
<svg width="452pt" height="1141pt"
 viewBox="0.00 0.00 452.00 1141.00" xmlns="http://www.w3.org/2000/svg" xmlns:xlink="http://www.w3.org/1999/xlink">
<g id="graph0" class="graph" transform="scale(1 1) rotate(0) translate(4 1137)">
<title>HostNewRoomState</title>
<polygon fill="white" stroke="none" points="-4,4 -4,-1137 448,-1137 448,4 -4,4"/>
<!-- Node4 -->
<g id="node1" class="node"><title>Node4</title>
<polygon fill="#bfbfbf" stroke="black" points="300,-0.5 300,-101.5 422,-101.5 422,-0.5 300,-0.5"/>
<text text-anchor="middle" x="361" y="-89.5" font-family="Helvetica,sans-Serif" font-size="10.00">HostNewRoomState</text>
<polyline fill="none" stroke="black" points="300,-82.5 422,-82.5 "/>
<text text-anchor="start" x="308" y="-70.5" font-family="Helvetica,sans-Serif" font-size="10.00">&#45; numTries</text>
<polyline fill="none" stroke="black" points="300,-63.5 422,-63.5 "/>
<text text-anchor="start" x="308" y="-51.5" font-family="Helvetica,sans-Serif" font-size="10.00"># OnMyStateInit()</text>
<text text-anchor="start" x="308" y="-40.5" font-family="Helvetica,sans-Serif" font-size="10.00"># OnOverlayStateEnter()</text>
<text text-anchor="start" x="308" y="-29.5" font-family="Helvetica,sans-Serif" font-size="10.00">&#45; GetRoomName()</text>
<text text-anchor="start" x="308" y="-18.5" font-family="Helvetica,sans-Serif" font-size="10.00">&#45; OnHosting()</text>
<text text-anchor="start" x="308" y="-7.5" font-family="Helvetica,sans-Serif" font-size="10.00">&#45; OnHostingFailed()</text>
</g>
<!-- Node5 -->
<g id="node2" class="node"><title>Node5</title>
<g id="a_node2"><a xlink:href="classnet_1_1_net_overlay_state.html" target="_top" xlink:title="{NetOverlayState\n|# netOverlayRef\l&#45; minVisibleTime\l&#45; timestampOfStateEntered\l|# TriggerTransitionWithMin\lVisibleTime()\l# OnOverlayStateEnter()\l# OnMyStateEnter()\l}">
<polygon fill="white" stroke="black" points="155.5,-139.5 155.5,-251.5 290.5,-251.5 290.5,-139.5 155.5,-139.5"/>
<text text-anchor="middle" x="223" y="-239.5" font-family="Helvetica,sans-Serif" font-size="10.00">NetOverlayState</text>
<polyline fill="none" stroke="black" points="155.5,-232.5 290.5,-232.5 "/>
<text text-anchor="start" x="163.5" y="-220.5" font-family="Helvetica,sans-Serif" font-size="10.00"># netOverlayRef</text>
<text text-anchor="start" x="163.5" y="-209.5" font-family="Helvetica,sans-Serif" font-size="10.00">&#45; minVisibleTime</text>
<text text-anchor="start" x="163.5" y="-198.5" font-family="Helvetica,sans-Serif" font-size="10.00">&#45; timestampOfStateEntered</text>
<polyline fill="none" stroke="black" points="155.5,-191.5 290.5,-191.5 "/>
<text text-anchor="start" x="163.5" y="-179.5" font-family="Helvetica,sans-Serif" font-size="10.00"># TriggerTransitionWithMin</text>
<text text-anchor="start" x="163.5" y="-168.5" font-family="Helvetica,sans-Serif" font-size="10.00">VisibleTime()</text>
<text text-anchor="start" x="163.5" y="-157.5" font-family="Helvetica,sans-Serif" font-size="10.00"># OnOverlayStateEnter()</text>
<text text-anchor="start" x="163.5" y="-146.5" font-family="Helvetica,sans-Serif" font-size="10.00"># OnMyStateEnter()</text>
</a>
</g>
</g>
<!-- Node5&#45;&gt;Node4 -->
<g id="edge1" class="edge"><title>Node5&#45;&gt;Node4</title>
<path fill="none" stroke="midnightblue" d="M283.441,-132.089C293.245,-121.964 303.284,-111.598 312.748,-101.826"/>
<polygon fill="none" stroke="midnightblue" points="280.797,-129.787 276.354,-139.406 285.825,-134.657 280.797,-129.787"/>
</g>
<!-- Node6 -->
<g id="node3" class="node"><title>Node6</title>
<g id="a_node3"><a xlink:href="class_state.html" target="_top" xlink:title="Non&#45;template variant of the BaseState, expecting to be owned by a standard StateMachine. ">
<polygon fill="white" stroke="black" points="79,-332.5 79,-389.5 119,-389.5 119,-332.5 79,-332.5"/>
<text text-anchor="middle" x="99" y="-377.5" font-family="Helvetica,sans-Serif" font-size="10.00">State</text>
<polyline fill="none" stroke="black" points="79,-370.5 119,-370.5 "/>
<text text-anchor="middle" x="99" y="-358.5" font-family="Helvetica,sans-Serif" font-size="10.00"> </text>
<polyline fill="none" stroke="black" points="79,-351.5 119,-351.5 "/>
<text text-anchor="middle" x="99" y="-339.5" font-family="Helvetica,sans-Serif" font-size="10.00"> </text>
</a>
</g>
</g>
<!-- Node6&#45;&gt;Node5 -->
<g id="edge2" class="edge"><title>Node6&#45;&gt;Node5</title>
<path fill="none" stroke="midnightblue" d="M125.382,-325.215C141.606,-303.823 162.754,-275.937 181.216,-251.594"/>
<polygon fill="none" stroke="midnightblue" points="122.453,-323.284 119.199,-333.367 128.03,-327.514 122.453,-323.284"/>
</g>
<!-- Node7 -->
<g id="node4" class="node"><title>Node7</title>
<g id="a_node4"><a xlink:href="class_base_state.html" target="_top" xlink:title="{BaseState\&lt; StateMachine \&gt;\n|+ name\l+ triggers\l# sm\l&#45; listeners\l|+ IsActiveState()\l+ GetName()\l+ GetTriggers()\l+ Init()\l+ OnStateEnter()\l+ OnStateExit()\l# AddAutoListener()\l# TriggerTransition()\l# OnMyStateEnter()\l# OnMyStateExit()\l# OnMyStateInit()\l}">
<polygon fill="white" stroke="black" points="0,-470.5 0,-670.5 140,-670.5 140,-470.5 0,-470.5"/>
<text text-anchor="middle" x="70" y="-658.5" font-family="Helvetica,sans-Serif" font-size="10.00">BaseState&lt; StateMachine &gt;</text>
<polyline fill="none" stroke="black" points="0,-651.5 140,-651.5 "/>
<text text-anchor="start" x="8" y="-639.5" font-family="Helvetica,sans-Serif" font-size="10.00">+ name</text>
<text text-anchor="start" x="8" y="-628.5" font-family="Helvetica,sans-Serif" font-size="10.00">+ triggers</text>
<text text-anchor="start" x="8" y="-617.5" font-family="Helvetica,sans-Serif" font-size="10.00"># sm</text>
<text text-anchor="start" x="8" y="-606.5" font-family="Helvetica,sans-Serif" font-size="10.00">&#45; listeners</text>
<polyline fill="none" stroke="black" points="0,-599.5 140,-599.5 "/>
<text text-anchor="start" x="8" y="-587.5" font-family="Helvetica,sans-Serif" font-size="10.00">+ IsActiveState()</text>
<text text-anchor="start" x="8" y="-576.5" font-family="Helvetica,sans-Serif" font-size="10.00">+ GetName()</text>
<text text-anchor="start" x="8" y="-565.5" font-family="Helvetica,sans-Serif" font-size="10.00">+ GetTriggers()</text>
<text text-anchor="start" x="8" y="-554.5" font-family="Helvetica,sans-Serif" font-size="10.00">+ Init()</text>
<text text-anchor="start" x="8" y="-543.5" font-family="Helvetica,sans-Serif" font-size="10.00">+ OnStateEnter()</text>
<text text-anchor="start" x="8" y="-532.5" font-family="Helvetica,sans-Serif" font-size="10.00">+ OnStateExit()</text>
<text text-anchor="start" x="8" y="-521.5" font-family="Helvetica,sans-Serif" font-size="10.00"># AddAutoListener()</text>
<text text-anchor="start" x="8" y="-510.5" font-family="Helvetica,sans-Serif" font-size="10.00"># TriggerTransition()</text>
<text text-anchor="start" x="8" y="-499.5" font-family="Helvetica,sans-Serif" font-size="10.00"># OnMyStateEnter()</text>
<text text-anchor="start" x="8" y="-488.5" font-family="Helvetica,sans-Serif" font-size="10.00"># OnMyStateExit()</text>
<text text-anchor="start" x="8" y="-477.5" font-family="Helvetica,sans-Serif" font-size="10.00"># OnMyStateInit()</text>
</a>
</g>
</g>
<!-- Node7&#45;&gt;Node6 -->
<g id="edge3" class="edge"><title>Node7&#45;&gt;Node6</title>
<path fill="none" stroke="midnightblue" d="M85.2692,-460.246C88.935,-434.017 92.535,-408.258 95.1286,-389.7"/>
<polygon fill="none" stroke="midnightblue" points="81.7809,-459.92 83.863,-470.308 88.7135,-460.889 81.7809,-459.92"/>
</g>
<!-- Node8 -->
<g id="node5" class="node"><title>Node8</title>
<g id="a_node5"><a xlink:href="classnet_1_1_net_state_machine.html" target="_top" xlink:title="{NetStateMachine\n|+ netOverlayPrefab\l&#45; netOverlayInstance\l|+ IsMaster()\l+ GetCurStateName()\l+ GetNetOverlay()\l+ HideNetOverlay()\l# MyAwake()\l&#45; OnDisconnect()\l}">
<polygon fill="white" stroke="black" points="167.5,-299.5 167.5,-422.5 278.5,-422.5 278.5,-299.5 167.5,-299.5"/>
<text text-anchor="middle" x="223" y="-410.5" font-family="Helvetica,sans-Serif" font-size="10.00">NetStateMachine</text>
<polyline fill="none" stroke="black" points="167.5,-403.5 278.5,-403.5 "/>
<text text-anchor="start" x="175.5" y="-391.5" font-family="Helvetica,sans-Serif" font-size="10.00">+ netOverlayPrefab</text>
<text text-anchor="start" x="175.5" y="-380.5" font-family="Helvetica,sans-Serif" font-size="10.00">&#45; netOverlayInstance</text>
<polyline fill="none" stroke="black" points="167.5,-373.5 278.5,-373.5 "/>
<text text-anchor="start" x="175.5" y="-361.5" font-family="Helvetica,sans-Serif" font-size="10.00">+ IsMaster()</text>
<text text-anchor="start" x="175.5" y="-350.5" font-family="Helvetica,sans-Serif" font-size="10.00">+ GetCurStateName()</text>
<text text-anchor="start" x="175.5" y="-339.5" font-family="Helvetica,sans-Serif" font-size="10.00">+ GetNetOverlay()</text>
<text text-anchor="start" x="175.5" y="-328.5" font-family="Helvetica,sans-Serif" font-size="10.00">+ HideNetOverlay()</text>
<text text-anchor="start" x="175.5" y="-317.5" font-family="Helvetica,sans-Serif" font-size="10.00"># MyAwake()</text>
<text text-anchor="start" x="175.5" y="-306.5" font-family="Helvetica,sans-Serif" font-size="10.00">&#45; OnDisconnect()</text>
</a>
</g>
</g>
<!-- Node8&#45;&gt;Node5 -->
<g id="edge4" class="edge"><title>Node8&#45;&gt;Node5</title>
<path fill="none" stroke="#404040" d="M223,-299.119C223,-287.596 223,-275.48 223,-263.774"/>
<polygon fill="none" stroke="#404040" points="223,-263.765 219,-257.765 223,-251.765 227,-257.765 223,-263.765"/>
<text text-anchor="middle" x="241.5" y="-273" font-family="Helvetica,sans-Serif" font-size="10.00"> #netSM</text>
</g>
<!-- Node9 -->
<g id="node6" class="node"><title>Node9</title>
<g id="a_node6"><a xlink:href="class_state_machine.html" target="_top" xlink:title="Common Base class for all state machines. ">
<polygon fill="white" stroke="black" points="158,-492.5 158,-648.5 288,-648.5 288,-492.5 158,-492.5"/>
<text text-anchor="middle" x="223" y="-636.5" font-family="Helvetica,sans-Serif" font-size="10.00">StateMachine</text>
<polyline fill="none" stroke="black" points="158,-629.5 288,-629.5 "/>
<text text-anchor="start" x="166" y="-617.5" font-family="Helvetica,sans-Serif" font-size="10.00">+ logEnabled</text>
<text text-anchor="start" x="166" y="-606.5" font-family="Helvetica,sans-Serif" font-size="10.00">+ globalValidTriggers</text>
<text text-anchor="start" x="166" y="-595.5" font-family="Helvetica,sans-Serif" font-size="10.00"># controller</text>
<text text-anchor="start" x="166" y="-584.5" font-family="Helvetica,sans-Serif" font-size="10.00">&#45; states</text>
<polyline fill="none" stroke="black" points="158,-577.5 288,-577.5 "/>
<text text-anchor="start" x="166" y="-565.5" font-family="Helvetica,sans-Serif" font-size="10.00">+ GetActiveState()</text>
<text text-anchor="start" x="166" y="-554.5" font-family="Helvetica,sans-Serif" font-size="10.00">+ TriggerTransition()</text>
<text text-anchor="start" x="166" y="-543.5" font-family="Helvetica,sans-Serif" font-size="10.00">+ TriggerTransition()</text>
<text text-anchor="start" x="166" y="-532.5" font-family="Helvetica,sans-Serif" font-size="10.00">+ TriggerTransition()</text>
<text text-anchor="start" x="166" y="-521.5" font-family="Helvetica,sans-Serif" font-size="10.00">+ AnnounceCurrentState()</text>
<text text-anchor="start" x="166" y="-510.5" font-family="Helvetica,sans-Serif" font-size="10.00"># MyAwake()</text>
<text text-anchor="start" x="166" y="-499.5" font-family="Helvetica,sans-Serif" font-size="10.00">&#45; Awake()</text>
</a>
</g>
</g>
<!-- Node9&#45;&gt;Node8 -->
<g id="edge5" class="edge"><title>Node9&#45;&gt;Node8</title>
<path fill="none" stroke="midnightblue" d="M223,-482.191C223,-462.206 223,-441.385 223,-422.798"/>
<polygon fill="none" stroke="midnightblue" points="219.5,-482.235 223,-492.235 226.5,-482.235 219.5,-482.235"/>
</g>
<!-- Node10 -->
<g id="node7" class="node"><title>Node10</title>
<polygon fill="white" stroke="#bfbfbf" points="56.5,-729.5 56.5,-786.5 139.5,-786.5 139.5,-729.5 56.5,-729.5"/>
<text text-anchor="middle" x="98" y="-774.5" font-family="Helvetica,sans-Serif" font-size="10.00">MonoBehaviour</text>
<polyline fill="none" stroke="#bfbfbf" points="56.5,-767.5 139.5,-767.5 "/>
<text text-anchor="middle" x="98" y="-755.5" font-family="Helvetica,sans-Serif" font-size="10.00"> </text>
<polyline fill="none" stroke="#bfbfbf" points="56.5,-748.5 139.5,-748.5 "/>
<text text-anchor="middle" x="98" y="-736.5" font-family="Helvetica,sans-Serif" font-size="10.00"> </text>
</g>
<!-- Node10&#45;&gt;Node9 -->
<g id="edge6" class="edge"><title>Node10&#45;&gt;Node9</title>
<path fill="none" stroke="midnightblue" d="M122.379,-720.822C136.208,-700.3 154.065,-673.8 170.889,-648.833"/>
<polygon fill="none" stroke="midnightblue" points="119.399,-718.98 116.714,-729.229 125.205,-722.892 119.399,-718.98"/>
</g>
<!-- Node11 -->
<g id="node8" class="node"><title>Node11</title>
<g id="a_node8"><a xlink:href="interface_i_state.html" target="_top" xlink:title="{IState\n||+ GetName()\l+ GetTriggers()\l+ Init()\l}">
<polygon fill="white" stroke="black" points="158,-718.5 158,-797.5 240,-797.5 240,-718.5 158,-718.5"/>
<text text-anchor="middle" x="199" y="-785.5" font-family="Helvetica,sans-Serif" font-size="10.00">IState</text>
<polyline fill="none" stroke="black" points="158,-778.5 240,-778.5 "/>
<text text-anchor="middle" x="199" y="-766.5" font-family="Helvetica,sans-Serif" font-size="10.00"> </text>
<polyline fill="none" stroke="black" points="158,-759.5 240,-759.5 "/>
<text text-anchor="start" x="166" y="-747.5" font-family="Helvetica,sans-Serif" font-size="10.00">+ GetName()</text>
<text text-anchor="start" x="166" y="-736.5" font-family="Helvetica,sans-Serif" font-size="10.00">+ GetTriggers()</text>
<text text-anchor="start" x="166" y="-725.5" font-family="Helvetica,sans-Serif" font-size="10.00">+ Init()</text>
</a>
</g>
</g>
<!-- Node11&#45;&gt;Node9 -->
<g id="edge7" class="edge"><title>Node11&#45;&gt;Node9</title>
<path fill="none" stroke="#404040" d="M199.81,-718.452C200.257,-708.814 200.945,-698.513 202,-689 203.02,-679.804 204.323,-670.242 205.779,-660.721"/>
<polygon fill="none" stroke="#404040" points="205.804,-660.563 202.8,-654.007 207.696,-648.713 210.7,-655.268 205.804,-660.563"/>
<text text-anchor="middle" x="230.5" y="-692" font-family="Helvetica,sans-Serif" font-size="10.00"> #activeState</text>
</g>
<!-- Node12 -->
<g id="node9" class="node"><title>Node12</title>
<g id="a_node9"><a xlink:href="class_game_string_event.html" target="_top" xlink:title="{GameStringEvent\n||}">
<polygon fill="white" stroke="black" points="258,-729.5 258,-786.5 350,-786.5 350,-729.5 258,-729.5"/>
<text text-anchor="middle" x="304" y="-774.5" font-family="Helvetica,sans-Serif" font-size="10.00">GameStringEvent</text>
<polyline fill="none" stroke="black" points="258,-767.5 350,-767.5 "/>
<text text-anchor="middle" x="304" y="-755.5" font-family="Helvetica,sans-Serif" font-size="10.00"> </text>
<polyline fill="none" stroke="black" points="258,-748.5 350,-748.5 "/>
<text text-anchor="middle" x="304" y="-736.5" font-family="Helvetica,sans-Serif" font-size="10.00"> </text>
</a>
</g>
</g>
<!-- Node12&#45;&gt;Node9 -->
<g id="edge8" class="edge"><title>Node12&#45;&gt;Node9</title>
<path fill="none" stroke="#404040" d="M291.873,-729.229C283.762,-710.652 272.598,-685.086 261.619,-659.943"/>
<polygon fill="none" stroke="#404040" points="261.57,-659.83 255.503,-655.932 256.768,-648.833 262.835,-652.731 261.57,-659.83"/>
<text text-anchor="middle" x="322.5" y="-692" font-family="Helvetica,sans-Serif" font-size="10.00"> +stateEnteredEvent</text>
</g>
<!-- Node13 -->
<g id="node10" class="node"><title>Node13</title>
<g id="a_node10"><a xlink:href="class_game_event.html" target="_top" xlink:title="{GameEvent\&lt; string \&gt;\n|+ Event\l+ Event\l|+ Invoke()\l+ Invoke()\l+ AddListener()\l+ AddListener()\l+ RemovedListener()\l+ RemoveListener()\l}">
<polygon fill="white" stroke="black" points="249.5,-914.5 249.5,-1037.5 358.5,-1037.5 358.5,-914.5 249.5,-914.5"/>
<text text-anchor="middle" x="304" y="-1025.5" font-family="Helvetica,sans-Serif" font-size="10.00">GameEvent&lt; string &gt;</text>
<polyline fill="none" stroke="black" points="249.5,-1018.5 358.5,-1018.5 "/>
<text text-anchor="start" x="257.5" y="-1006.5" font-family="Helvetica,sans-Serif" font-size="10.00">+ Event</text>
<text text-anchor="start" x="257.5" y="-995.5" font-family="Helvetica,sans-Serif" font-size="10.00">+ Event</text>
<polyline fill="none" stroke="black" points="249.5,-988.5 358.5,-988.5 "/>
<text text-anchor="start" x="257.5" y="-976.5" font-family="Helvetica,sans-Serif" font-size="10.00">+ Invoke()</text>
<text text-anchor="start" x="257.5" y="-965.5" font-family="Helvetica,sans-Serif" font-size="10.00">+ Invoke()</text>
<text text-anchor="start" x="257.5" y="-954.5" font-family="Helvetica,sans-Serif" font-size="10.00">+ AddListener()</text>
<text text-anchor="start" x="257.5" y="-943.5" font-family="Helvetica,sans-Serif" font-size="10.00">+ AddListener()</text>
<text text-anchor="start" x="257.5" y="-932.5" font-family="Helvetica,sans-Serif" font-size="10.00">+ RemovedListener()</text>
<text text-anchor="start" x="257.5" y="-921.5" font-family="Helvetica,sans-Serif" font-size="10.00">+ RemoveListener()</text>
</a>
</g>
</g>
<!-- Node13&#45;&gt;Node12 -->
<g id="edge9" class="edge"><title>Node13&#45;&gt;Node12</title>
<path fill="none" stroke="midnightblue" d="M304,-904.23C304,-864.064 304,-816.069 304,-786.562"/>
<polygon fill="none" stroke="midnightblue" points="300.5,-904.257 304,-914.257 307.5,-904.257 300.5,-904.257"/>
</g>
<!-- Node14 -->
<g id="node11" class="node"><title>Node14</title>
<polygon fill="white" stroke="#bfbfbf" points="315.5,-1075.5 315.5,-1132.5 404.5,-1132.5 404.5,-1075.5 315.5,-1075.5"/>
<text text-anchor="middle" x="360" y="-1120.5" font-family="Helvetica,sans-Serif" font-size="10.00">ScriptableObject</text>
<polyline fill="none" stroke="#bfbfbf" points="315.5,-1113.5 404.5,-1113.5 "/>
<text text-anchor="middle" x="360" y="-1101.5" font-family="Helvetica,sans-Serif" font-size="10.00"> </text>
<polyline fill="none" stroke="#bfbfbf" points="315.5,-1094.5 404.5,-1094.5 "/>
<text text-anchor="middle" x="360" y="-1082.5" font-family="Helvetica,sans-Serif" font-size="10.00"> </text>
</g>
<!-- Node14&#45;&gt;Node13 -->
<g id="edge10" class="edge"><title>Node14&#45;&gt;Node13</title>
<path fill="none" stroke="midnightblue" d="M343.573,-1066.04C339.606,-1057.11 335.263,-1047.34 330.954,-1037.65"/>
<polygon fill="none" stroke="midnightblue" points="340.451,-1067.63 347.711,-1075.35 346.847,-1064.79 340.451,-1067.63"/>
</g>
<!-- Node15 -->
<g id="node12" class="node"><title>Node15</title>
<g id="a_node12"><a xlink:href="class_player.html" target="_top" xlink:title="{Player\n|+ nickName\l+ curPlayerReference\l+ homeBase\l|}">
<polygon fill="white" stroke="black" points="331,-816.5 331,-895.5 441,-895.5 441,-816.5 331,-816.5"/>
<text text-anchor="middle" x="386" y="-883.5" font-family="Helvetica,sans-Serif" font-size="10.00">Player</text>
<polyline fill="none" stroke="black" points="331,-876.5 441,-876.5 "/>
<text text-anchor="start" x="339" y="-864.5" font-family="Helvetica,sans-Serif" font-size="10.00">+ nickName</text>
<text text-anchor="start" x="339" y="-853.5" font-family="Helvetica,sans-Serif" font-size="10.00">+ curPlayerReference</text>
<text text-anchor="start" x="339" y="-842.5" font-family="Helvetica,sans-Serif" font-size="10.00">+ homeBase</text>
<polyline fill="none" stroke="black" points="331,-835.5 441,-835.5 "/>
<text text-anchor="middle" x="386" y="-823.5" font-family="Helvetica,sans-Serif" font-size="10.00"> </text>
</a>
</g>
</g>
<!-- Node14&#45;&gt;Node15 -->
<g id="edge12" class="edge"><title>Node14&#45;&gt;Node15</title>
<path fill="none" stroke="midnightblue" d="M364.076,-1065.31C365.039,-1056.36 366.06,-1046.84 367,-1038 372.212,-988.986 378.127,-932.496 381.953,-895.842"/>
<polygon fill="none" stroke="midnightblue" points="360.571,-1065.17 362.98,-1075.49 367.531,-1065.92 360.571,-1065.17"/>
</g>
<!-- Node15&#45;&gt;Node4 -->
<g id="edge11" class="edge"><title>Node15&#45;&gt;Node4</title>
<path fill="none" stroke="#404040" d="M386,-816.324C386,-784.023 386,-736.76 386,-695.5 386,-695.5 386,-695.5 386,-194.5 386,-167.734 381.668,-138.56 376.611,-113.621"/>
<polygon fill="none" stroke="#404040" points="376.582,-113.484 371.421,-108.448 374.086,-101.747 379.246,-106.783 376.582,-113.484"/>
<text text-anchor="middle" x="415" y="-444" font-family="Helvetica,sans-Serif" font-size="10.00"> +mainPlayer</text>
</g>
</g>
</svg>
