<?xml version="1.0" encoding="UTF-8" standalone="no"?>
<!DOCTYPE svg PUBLIC "-//W3C//DTD SVG 1.1//EN"
 "http://www.w3.org/Graphics/SVG/1.1/DTD/svg11.dtd">
<!-- Generated by graphviz version 2.38.0 (20140413.2041)
 -->
<!-- Title: PausedMenu Pages: 1 -->
<svg width="102pt" height="215pt"
 viewBox="0.00 0.00 102.00 215.00" xmlns="http://www.w3.org/2000/svg" xmlns:xlink="http://www.w3.org/1999/xlink">
<g id="graph0" class="graph" transform="scale(1 1) rotate(0) translate(4 211)">
<title>PausedMenu</title>
<polygon fill="white" stroke="none" points="-4,4 -4,-211 98,-211 98,4 -4,4"/>
<!-- Node0 -->
<g id="node1" class="node"><title>Node0</title>
<polygon fill="#bfbfbf" stroke="black" points="0,-0.5 0,-112.5 94,-112.5 94,-0.5 0,-0.5"/>
<text text-anchor="middle" x="47" y="-100.5" font-family="Helvetica,sans-Serif" font-size="10.00">PausedMenu</text>
<polyline fill="none" stroke="black" points="0,-93.5 94,-93.5 "/>
<text text-anchor="start" x="8" y="-81.5" font-family="Helvetica,sans-Serif" font-size="10.00">+ pauseMenuUI</text>
<text text-anchor="start" x="8" y="-70.5" font-family="Helvetica,sans-Serif" font-size="10.00">+ GameIsPaused</text>
<polyline fill="none" stroke="black" points="0,-63.5 94,-63.5 "/>
<text text-anchor="start" x="8" y="-51.5" font-family="Helvetica,sans-Serif" font-size="10.00">+ ResumeGame()</text>
<text text-anchor="start" x="8" y="-40.5" font-family="Helvetica,sans-Serif" font-size="10.00">+ LoadMenu()</text>
<text text-anchor="start" x="8" y="-29.5" font-family="Helvetica,sans-Serif" font-size="10.00">+ QuitGame()</text>
<text text-anchor="start" x="8" y="-18.5" font-family="Helvetica,sans-Serif" font-size="10.00">&#45; Update()</text>
<text text-anchor="start" x="8" y="-7.5" font-family="Helvetica,sans-Serif" font-size="10.00">&#45; PauseGame()</text>
</g>
<!-- Node1 -->
<g id="node2" class="node"><title>Node1</title>
<polygon fill="white" stroke="#bfbfbf" points="5.5,-149.5 5.5,-206.5 88.5,-206.5 88.5,-149.5 5.5,-149.5"/>
<text text-anchor="middle" x="47" y="-194.5" font-family="Helvetica,sans-Serif" font-size="10.00">MonoBehaviour</text>
<polyline fill="none" stroke="#bfbfbf" points="5.5,-187.5 88.5,-187.5 "/>
<text text-anchor="middle" x="47" y="-175.5" font-family="Helvetica,sans-Serif" font-size="10.00"> </text>
<polyline fill="none" stroke="#bfbfbf" points="5.5,-168.5 88.5,-168.5 "/>
<text text-anchor="middle" x="47" y="-156.5" font-family="Helvetica,sans-Serif" font-size="10.00"> </text>
</g>
<!-- Node1&#45;&gt;Node0 -->
<g id="edge1" class="edge"><title>Node1&#45;&gt;Node0</title>
<path fill="none" stroke="midnightblue" d="M47,-139.108C47,-130.748 47,-121.725 47,-112.834"/>
<polygon fill="none" stroke="midnightblue" points="43.5001,-139.284 47,-149.284 50.5001,-139.284 43.5001,-139.284"/>
</g>
</g>
</svg>
