<?xml version="1.0" encoding="UTF-8" standalone="no"?>
<!DOCTYPE svg PUBLIC "-//W3C//DTD SVG 1.1//EN"
 "http://www.w3.org/Graphics/SVG/1.1/DTD/svg11.dtd">
<!-- Generated by graphviz version 2.38.0 (20140413.2041)
 -->
<!-- Title: MultiTargetCamera Pages: 1 -->
<svg width="220pt" height="530pt"
 viewBox="0.00 0.00 219.50 530.00" xmlns="http://www.w3.org/2000/svg" xmlns:xlink="http://www.w3.org/1999/xlink">
<g id="graph0" class="graph" transform="scale(1 1) rotate(0) translate(4 526)">
<title>MultiTargetCamera</title>
<polygon fill="white" stroke="none" points="-4,4 -4,-526 215.5,-526 215.5,4 -4,4"/>
<!-- Node2 -->
<g id="node1" class="node"><title>Node2</title>
<polygon fill="#bfbfbf" stroke="black" points="0,-0.5 0,-222.5 104,-222.5 104,-0.5 0,-0.5"/>
<text text-anchor="middle" x="52" y="-210.5" font-family="Helvetica,sans-Serif" font-size="10.00">MultiTargetCamera</text>
<polyline fill="none" stroke="black" points="0,-203.5 104,-203.5 "/>
<text text-anchor="start" x="8" y="-191.5" font-family="Helvetica,sans-Serif" font-size="10.00">+ targetSize</text>
<text text-anchor="start" x="8" y="-180.5" font-family="Helvetica,sans-Serif" font-size="10.00">+ camOffset</text>
<text text-anchor="start" x="8" y="-169.5" font-family="Helvetica,sans-Serif" font-size="10.00">+ minZoom</text>
<text text-anchor="start" x="8" y="-158.5" font-family="Helvetica,sans-Serif" font-size="10.00">+ maxZoom</text>
<text text-anchor="start" x="8" y="-147.5" font-family="Helvetica,sans-Serif" font-size="10.00">+ zoomLimiter</text>
<text text-anchor="start" x="8" y="-136.5" font-family="Helvetica,sans-Serif" font-size="10.00">&#45; targets</text>
<text text-anchor="start" x="8" y="-125.5" font-family="Helvetica,sans-Serif" font-size="10.00">&#45; referenceZoom</text>
<text text-anchor="start" x="8" y="-114.5" font-family="Helvetica,sans-Serif" font-size="10.00">&#45; referenceTarget</text>
<text text-anchor="start" x="8" y="-103.5" font-family="Helvetica,sans-Serif" font-size="10.00">&#45; cam</text>
<polyline fill="none" stroke="black" points="0,-96.5 104,-96.5 "/>
<text text-anchor="start" x="8" y="-84.5" font-family="Helvetica,sans-Serif" font-size="10.00">+ AddTarget()</text>
<text text-anchor="start" x="8" y="-73.5" font-family="Helvetica,sans-Serif" font-size="10.00">+ RemoveTarget()</text>
<text text-anchor="start" x="8" y="-62.5" font-family="Helvetica,sans-Serif" font-size="10.00">&#45; Awake()</text>
<text text-anchor="start" x="8" y="-51.5" font-family="Helvetica,sans-Serif" font-size="10.00">&#45; Start()</text>
<text text-anchor="start" x="8" y="-40.5" font-family="Helvetica,sans-Serif" font-size="10.00">&#45; LateUpdate()</text>
<text text-anchor="start" x="8" y="-29.5" font-family="Helvetica,sans-Serif" font-size="10.00">&#45; GetTargetBounds()</text>
<text text-anchor="start" x="8" y="-18.5" font-family="Helvetica,sans-Serif" font-size="10.00">&#45; Move()</text>
<text text-anchor="start" x="8" y="-7.5" font-family="Helvetica,sans-Serif" font-size="10.00">&#45; Zoom()</text>
</g>
<!-- Node3 -->
<g id="node2" class="node"><title>Node3</title>
<polygon fill="white" stroke="#bfbfbf" points="25.5,-464.5 25.5,-521.5 108.5,-521.5 108.5,-464.5 25.5,-464.5"/>
<text text-anchor="middle" x="67" y="-509.5" font-family="Helvetica,sans-Serif" font-size="10.00">MonoBehaviour</text>
<polyline fill="none" stroke="#bfbfbf" points="25.5,-502.5 108.5,-502.5 "/>
<text text-anchor="middle" x="67" y="-490.5" font-family="Helvetica,sans-Serif" font-size="10.00"> </text>
<polyline fill="none" stroke="#bfbfbf" points="25.5,-483.5 108.5,-483.5 "/>
<text text-anchor="middle" x="67" y="-471.5" font-family="Helvetica,sans-Serif" font-size="10.00"> </text>
</g>
<!-- Node3&#45;&gt;Node2 -->
<g id="edge1" class="edge"><title>Node3&#45;&gt;Node2</title>
<path fill="none" stroke="midnightblue" d="M58.8851,-454.219C57.2938,-445.333 55.8543,-435.867 55,-427 48.4805,-359.332 47.5927,-283.098 48.4008,-222.634"/>
<polygon fill="none" stroke="midnightblue" points="55.4973,-455.14 60.7969,-464.314 62.375,-453.838 55.4973,-455.14"/>
</g>
<!-- Node4 -->
<g id="node3" class="node"><title>Node4</title>
<g id="a_node3"><a xlink:href="class_smooth_move_to_target.html" target="_top" xlink:title="Moves this script&#39;s object towards the target position while active. ">
<polygon fill="white" stroke="black" points="64.5,-270.5 64.5,-426.5 211.5,-426.5 211.5,-270.5 64.5,-270.5"/>
<text text-anchor="middle" x="138" y="-414.5" font-family="Helvetica,sans-Serif" font-size="10.00">SmoothMoveToTarget</text>
<polyline fill="none" stroke="black" points="64.5,-407.5 211.5,-407.5 "/>
<text text-anchor="start" x="72.5" y="-395.5" font-family="Helvetica,sans-Serif" font-size="10.00">+ smoothTime</text>
<text text-anchor="start" x="72.5" y="-384.5" font-family="Helvetica,sans-Serif" font-size="10.00">+ x</text>
<text text-anchor="start" x="72.5" y="-373.5" font-family="Helvetica,sans-Serif" font-size="10.00">+ y</text>
<text text-anchor="start" x="72.5" y="-362.5" font-family="Helvetica,sans-Serif" font-size="10.00">+ z</text>
<text text-anchor="start" x="72.5" y="-351.5" font-family="Helvetica,sans-Serif" font-size="10.00">+ disableWhenTargetReached</text>
<text text-anchor="start" x="72.5" y="-340.5" font-family="Helvetica,sans-Serif" font-size="10.00">+ targetReachedEvent</text>
<text text-anchor="start" x="72.5" y="-329.5" font-family="Helvetica,sans-Serif" font-size="10.00">&#45; targetPos</text>
<text text-anchor="start" x="72.5" y="-318.5" font-family="Helvetica,sans-Serif" font-size="10.00">&#45; targetSet</text>
<text text-anchor="start" x="72.5" y="-307.5" font-family="Helvetica,sans-Serif" font-size="10.00">&#45; curVelocity</text>
<polyline fill="none" stroke="black" points="64.5,-300.5 211.5,-300.5 "/>
<text text-anchor="start" x="72.5" y="-288.5" font-family="Helvetica,sans-Serif" font-size="10.00">+ SetTarget()</text>
<text text-anchor="start" x="72.5" y="-277.5" font-family="Helvetica,sans-Serif" font-size="10.00">&#45; FixedUpdate()</text>
</a>
</g>
</g>
<!-- Node3&#45;&gt;Node4 -->
<g id="edge3" class="edge"><title>Node3&#45;&gt;Node4</title>
<path fill="none" stroke="midnightblue" d="M85.4143,-455.042C89.7946,-446.25 94.6306,-436.544 99.5426,-426.686"/>
<polygon fill="none" stroke="midnightblue" points="82.185,-453.675 80.8581,-464.186 88.4504,-456.797 82.185,-453.675"/>
</g>
<!-- Node4&#45;&gt;Node2 -->
<g id="edge2" class="edge"><title>Node4&#45;&gt;Node2</title>
<path fill="none" stroke="#404040" d="M109.721,-270.227C105.448,-258.551 100.955,-246.272 96.44,-233.935"/>
<polygon fill="none" stroke="#404040" points="96.4177,-233.874 90.5993,-229.614 92.2936,-222.605 98.112,-226.864 96.4177,-233.874"/>
<text text-anchor="middle" x="130.5" y="-244" font-family="Helvetica,sans-Serif" font-size="10.00"> &#45;targetMover</text>
</g>
</g>
</svg>
