<?xml version="1.0" encoding="UTF-8" standalone="no"?>
<!DOCTYPE svg PUBLIC "-//W3C//DTD SVG 1.1//EN"
 "http://www.w3.org/Graphics/SVG/1.1/DTD/svg11.dtd">
<!-- Generated by graphviz version 2.38.0 (20140413.2041)
 -->
<!-- Title: LevelManager Pages: 1 -->
<svg width="535pt" height="668pt"
 viewBox="0.00 0.00 534.50 668.00" xmlns="http://www.w3.org/2000/svg" xmlns:xlink="http://www.w3.org/1999/xlink">
<g id="graph0" class="graph" transform="scale(1 1) rotate(0) translate(4 664)">
<title>LevelManager</title>
<polygon fill="white" stroke="none" points="-4,4 -4,-664 530.5,-664 530.5,4 -4,4"/>
<!-- Node2 -->
<g id="node1" class="node"><title>Node2</title>
<polygon fill="#bfbfbf" stroke="black" points="162.5,-0.5 162.5,-266.5 313.5,-266.5 313.5,-0.5 162.5,-0.5"/>
<text text-anchor="middle" x="238" y="-254.5" font-family="Helvetica,sans-Serif" font-size="10.00">LevelManager</text>
<polyline fill="none" stroke="black" points="162.5,-247.5 313.5,-247.5 "/>
<text text-anchor="start" x="170.5" y="-235.5" font-family="Helvetica,sans-Serif" font-size="10.00">+ levels</text>
<text text-anchor="start" x="170.5" y="-224.5" font-family="Helvetica,sans-Serif" font-size="10.00">+ levelSelectionChangedEvent</text>
<text text-anchor="start" x="170.5" y="-213.5" font-family="Helvetica,sans-Serif" font-size="10.00">+ allClientsFinishedLoading</text>
<text text-anchor="start" x="170.5" y="-202.5" font-family="Helvetica,sans-Serif" font-size="10.00">Event</text>
<text text-anchor="start" x="170.5" y="-191.5" font-family="Helvetica,sans-Serif" font-size="10.00">&#45; selectedLevelNetDataKey</text>
<polyline fill="none" stroke="black" points="162.5,-184.5 313.5,-184.5 "/>
<text text-anchor="start" x="170.5" y="-172.5" font-family="Helvetica,sans-Serif" font-size="10.00">+ LoadSelectedLevelSynced()</text>
<text text-anchor="start" x="170.5" y="-161.5" font-family="Helvetica,sans-Serif" font-size="10.00">+ EnsureMainMenuScene()</text>
<text text-anchor="start" x="170.5" y="-150.5" font-family="Helvetica,sans-Serif" font-size="10.00">+ FadeToSceneSynced()</text>
<text text-anchor="start" x="170.5" y="-139.5" font-family="Helvetica,sans-Serif" font-size="10.00">+ CheckConditionsFulfilled()</text>
<text text-anchor="start" x="170.5" y="-128.5" font-family="Helvetica,sans-Serif" font-size="10.00">+ SetSelected()</text>
<text text-anchor="start" x="170.5" y="-117.5" font-family="Helvetica,sans-Serif" font-size="10.00">+ GetCurrentLevel()</text>
<text text-anchor="start" x="170.5" y="-106.5" font-family="Helvetica,sans-Serif" font-size="10.00"># MyAwake()</text>
<text text-anchor="start" x="170.5" y="-95.5" font-family="Helvetica,sans-Serif" font-size="10.00">&#45; Start()</text>
<text text-anchor="start" x="170.5" y="-84.5" font-family="Helvetica,sans-Serif" font-size="10.00">&#45; OnFadedOut()</text>
<text text-anchor="start" x="170.5" y="-73.5" font-family="Helvetica,sans-Serif" font-size="10.00">&#45; OnSceneFinishedLoading()</text>
<text text-anchor="start" x="170.5" y="-62.5" font-family="Helvetica,sans-Serif" font-size="10.00">&#45; OnJoinedRoom()</text>
<text text-anchor="start" x="170.5" y="-51.5" font-family="Helvetica,sans-Serif" font-size="10.00">&#45; OnRoomPropertiesUpdate()</text>
<text text-anchor="start" x="170.5" y="-40.5" font-family="Helvetica,sans-Serif" font-size="10.00">&#45; OnClientPropertiesUpdate()</text>
<text text-anchor="start" x="170.5" y="-29.5" font-family="Helvetica,sans-Serif" font-size="10.00">&#45; CheckAllClientsHaveLoaded()</text>
<text text-anchor="start" x="170.5" y="-18.5" font-family="Helvetica,sans-Serif" font-size="10.00">&#45; UpdateSelectedLevelFromNet</text>
<text text-anchor="start" x="170.5" y="-7.5" font-family="Helvetica,sans-Serif" font-size="10.00">DataAndInvokeEvent()</text>
</g>
<!-- Node3 -->
<g id="node2" class="node"><title>Node3</title>
<g id="a_node2"><a xlink:href="class_mono_singleton.html" target="_top" xlink:title="{MonoSingleton\&lt; LevelManager \&gt;\n|# instance\l&#45; logEnabled\l|+ Get()\l# LogIfEnabled()\l# MyAwake()\l&#45; Awake()\l}">
<polygon fill="white" stroke="black" points="0,-314.5 0,-415.5 158,-415.5 158,-314.5 0,-314.5"/>
<text text-anchor="middle" x="79" y="-403.5" font-family="Helvetica,sans-Serif" font-size="10.00">MonoSingleton&lt; LevelManager &gt;</text>
<polyline fill="none" stroke="black" points="0,-396.5 158,-396.5 "/>
<text text-anchor="start" x="8" y="-384.5" font-family="Helvetica,sans-Serif" font-size="10.00"># instance</text>
<text text-anchor="start" x="8" y="-373.5" font-family="Helvetica,sans-Serif" font-size="10.00">&#45; logEnabled</text>
<polyline fill="none" stroke="black" points="0,-366.5 158,-366.5 "/>
<text text-anchor="start" x="8" y="-354.5" font-family="Helvetica,sans-Serif" font-size="10.00">+ Get()</text>
<text text-anchor="start" x="8" y="-343.5" font-family="Helvetica,sans-Serif" font-size="10.00"># LogIfEnabled()</text>
<text text-anchor="start" x="8" y="-332.5" font-family="Helvetica,sans-Serif" font-size="10.00"># MyAwake()</text>
<text text-anchor="start" x="8" y="-321.5" font-family="Helvetica,sans-Serif" font-size="10.00">&#45; Awake()</text>
</a>
</g>
</g>
<!-- Node3&#45;&gt;Node2 -->
<g id="edge1" class="edge"><title>Node3&#45;&gt;Node2</title>
<path fill="none" stroke="midnightblue" d="M119.024,-306.229C132.21,-287.197 147.338,-265.362 162.286,-243.785"/>
<polygon fill="none" stroke="midnightblue" points="116.123,-304.271 113.305,-314.484 121.877,-308.258 116.123,-304.271"/>
</g>
<!-- Node4 -->
<g id="node3" class="node"><title>Node4</title>
<g id="a_node3"><a xlink:href="classlevel_1_1_scene_reference.html" target="_top" xlink:title="A wrapper that provides the means to safely serialize Scene Asset References. ">
<polygon fill="white" stroke="black" points="223.5,-463.5 223.5,-564.5 336.5,-564.5 336.5,-463.5 223.5,-463.5"/>
<text text-anchor="middle" x="280" y="-552.5" font-family="Helvetica,sans-Serif" font-size="10.00">SceneReference</text>
<polyline fill="none" stroke="black" points="223.5,-545.5 336.5,-545.5 "/>
<text text-anchor="start" x="231.5" y="-533.5" font-family="Helvetica,sans-Serif" font-size="10.00">+ ScenePath</text>
<text text-anchor="start" x="231.5" y="-522.5" font-family="Helvetica,sans-Serif" font-size="10.00">&#45; scenePath</text>
<polyline fill="none" stroke="black" points="223.5,-515.5 336.5,-515.5 "/>
<text text-anchor="start" x="231.5" y="-503.5" font-family="Helvetica,sans-Serif" font-size="10.00">+ IsCurrentScene()</text>
<text text-anchor="start" x="231.5" y="-492.5" font-family="Helvetica,sans-Serif" font-size="10.00">+ OnBeforeSerialize()</text>
<text text-anchor="start" x="231.5" y="-481.5" font-family="Helvetica,sans-Serif" font-size="10.00">+ OnAfterDeserialize()</text>
<text text-anchor="start" x="231.5" y="-470.5" font-family="Helvetica,sans-Serif" font-size="10.00">+ operator string()</text>
</a>
</g>
</g>
<!-- Node4&#45;&gt;Node2 -->
<g id="edge2" class="edge"><title>Node4&#45;&gt;Node2</title>
<path fill="none" stroke="#404040" d="M278.709,-463.471C277.088,-417.179 273.544,-346.205 266,-285 265.749,-282.96 265.487,-280.906 265.215,-278.84"/>
<polygon fill="none" stroke="#404040" points="265.209,-278.791 260.424,-273.396 263.563,-266.904 268.348,-272.299 265.209,-278.791"/>
<text text-anchor="middle" x="316.5" y="-368" font-family="Helvetica,sans-Serif" font-size="10.00"> &#45;sceneToLoad</text>
<text text-anchor="middle" x="316.5" y="-357" font-family="Helvetica,sans-Serif" font-size="10.00">+mainMenuScene</text>
</g>
<!-- Node6 -->
<g id="node5" class="node"><title>Node6</title>
<g id="a_node5"><a xlink:href="classlevel_1_1_level.html" target="_top" xlink:title="Wraps info on each level to be accessed before the level is actually loaded. ">
<polygon fill="white" stroke="black" points="176.5,-325.5 176.5,-404.5 235.5,-404.5 235.5,-325.5 176.5,-325.5"/>
<text text-anchor="middle" x="206" y="-392.5" font-family="Helvetica,sans-Serif" font-size="10.00">Level</text>
<polyline fill="none" stroke="black" points="176.5,-385.5 235.5,-385.5 "/>
<text text-anchor="start" x="184.5" y="-373.5" font-family="Helvetica,sans-Serif" font-size="10.00">+ lvlName</text>
<text text-anchor="start" x="184.5" y="-362.5" font-family="Helvetica,sans-Serif" font-size="10.00">+ image</text>
<text text-anchor="start" x="184.5" y="-351.5" font-family="Helvetica,sans-Serif" font-size="10.00">+ spawns</text>
<polyline fill="none" stroke="black" points="176.5,-344.5 235.5,-344.5 "/>
<text text-anchor="middle" x="206" y="-332.5" font-family="Helvetica,sans-Serif" font-size="10.00"> </text>
</a>
</g>
</g>
<!-- Node4&#45;&gt;Node6 -->
<g id="edge6" class="edge"><title>Node4&#45;&gt;Node6</title>
<path fill="none" stroke="#404040" d="M240.606,-463.347C236.723,-457.346 233.085,-451.157 230,-445 225.526,-436.071 221.71,-426.151 218.525,-416.44"/>
<polygon fill="none" stroke="#404040" points="218.467,-416.253 212.885,-411.689 214.95,-404.78 220.533,-409.344 218.467,-416.253"/>
<text text-anchor="middle" x="248" y="-437" font-family="Helvetica,sans-Serif" font-size="10.00"> +scene</text>
</g>
<!-- Node5 -->
<g id="node4" class="node"><title>Node5</title>
<polygon fill="white" stroke="#bfbfbf" points="207,-602.5 207,-659.5 353,-659.5 353,-602.5 207,-602.5"/>
<text text-anchor="middle" x="280" y="-647.5" font-family="Helvetica,sans-Serif" font-size="10.00">ISerializationCallbackReceiver</text>
<polyline fill="none" stroke="#bfbfbf" points="207,-640.5 353,-640.5 "/>
<text text-anchor="middle" x="280" y="-628.5" font-family="Helvetica,sans-Serif" font-size="10.00"> </text>
<polyline fill="none" stroke="#bfbfbf" points="207,-621.5 353,-621.5 "/>
<text text-anchor="middle" x="280" y="-609.5" font-family="Helvetica,sans-Serif" font-size="10.00"> </text>
</g>
<!-- Node5&#45;&gt;Node4 -->
<g id="edge3" class="edge"><title>Node5&#45;&gt;Node4</title>
<path fill="none" stroke="midnightblue" d="M280,-592.187C280,-583.435 280,-573.99 280,-564.812"/>
<polygon fill="none" stroke="midnightblue" points="276.5,-592.455 280,-602.455 283.5,-592.455 276.5,-592.455"/>
</g>
<!-- Node6&#45;&gt;Node2 -->
<g id="edge4" class="edge"><title>Node6&#45;&gt;Node2</title>
<path fill="none" stroke="#404040" d="M200.645,-325.233C199.546,-315.694 198.557,-305.493 198,-296 197.664,-290.264 197.621,-284.445 197.829,-278.59"/>
<polygon fill="none" stroke="#404040" points="197.834,-278.511 194.221,-272.271 198.592,-266.535 202.205,-272.776 197.834,-278.511"/>
<text text-anchor="middle" x="232" y="-288" font-family="Helvetica,sans-Serif" font-size="10.00"> +selectedLevel</text>
</g>
<!-- Node7 -->
<g id="node6" class="node"><title>Node7</title>
<polygon fill="white" stroke="#bfbfbf" points="116.5,-485.5 116.5,-542.5 205.5,-542.5 205.5,-485.5 116.5,-485.5"/>
<text text-anchor="middle" x="161" y="-530.5" font-family="Helvetica,sans-Serif" font-size="10.00">ScriptableObject</text>
<polyline fill="none" stroke="#bfbfbf" points="116.5,-523.5 205.5,-523.5 "/>
<text text-anchor="middle" x="161" y="-511.5" font-family="Helvetica,sans-Serif" font-size="10.00"> </text>
<polyline fill="none" stroke="#bfbfbf" points="116.5,-504.5 205.5,-504.5 "/>
<text text-anchor="middle" x="161" y="-492.5" font-family="Helvetica,sans-Serif" font-size="10.00"> </text>
</g>
<!-- Node7&#45;&gt;Node6 -->
<g id="edge5" class="edge"><title>Node7&#45;&gt;Node6</title>
<path fill="none" stroke="midnightblue" d="M172.48,-475.498C179.126,-453.789 187.475,-426.516 194.178,-404.62"/>
<polygon fill="none" stroke="midnightblue" points="169.045,-474.764 169.464,-485.35 175.738,-476.813 169.045,-474.764"/>
</g>
<!-- Node8 -->
<g id="node7" class="node"><title>Node8</title>
<g id="a_node7"><a xlink:href="class_scene_fader.html" target="_top" xlink:title="{SceneFader\n|&#45; anim\l&#45; onFadeOutCompleteCallback\l|+ FadeOut()\l+ FadeIn()\l+ OnFadeComplete()\l&#45; Awake()\l}">
<polygon fill="white" stroke="black" points="377.5,-314.5 377.5,-415.5 526.5,-415.5 526.5,-314.5 377.5,-314.5"/>
<text text-anchor="middle" x="452" y="-403.5" font-family="Helvetica,sans-Serif" font-size="10.00">SceneFader</text>
<polyline fill="none" stroke="black" points="377.5,-396.5 526.5,-396.5 "/>
<text text-anchor="start" x="385.5" y="-384.5" font-family="Helvetica,sans-Serif" font-size="10.00">&#45; anim</text>
<text text-anchor="start" x="385.5" y="-373.5" font-family="Helvetica,sans-Serif" font-size="10.00">&#45; onFadeOutCompleteCallback</text>
<polyline fill="none" stroke="black" points="377.5,-366.5 526.5,-366.5 "/>
<text text-anchor="start" x="385.5" y="-354.5" font-family="Helvetica,sans-Serif" font-size="10.00">+ FadeOut()</text>
<text text-anchor="start" x="385.5" y="-343.5" font-family="Helvetica,sans-Serif" font-size="10.00">+ FadeIn()</text>
<text text-anchor="start" x="385.5" y="-332.5" font-family="Helvetica,sans-Serif" font-size="10.00">+ OnFadeComplete()</text>
<text text-anchor="start" x="385.5" y="-321.5" font-family="Helvetica,sans-Serif" font-size="10.00">&#45; Awake()</text>
</a>
</g>
</g>
<!-- Node8&#45;&gt;Node2 -->
<g id="edge7" class="edge"><title>Node8&#45;&gt;Node2</title>
<path fill="none" stroke="#404040" d="M405.829,-314.484C381.337,-288.219 350.479,-255.126 321.924,-224.502"/>
<polygon fill="none" stroke="#404040" points="321.727,-224.291 314.709,-222.631 313.543,-215.515 320.56,-217.175 321.727,-224.291"/>
<text text-anchor="middle" x="412" y="-288" font-family="Helvetica,sans-Serif" font-size="10.00"> &#45;sceneFader</text>
</g>
<!-- Node9 -->
<g id="node8" class="node"><title>Node9</title>
<polygon fill="white" stroke="#bfbfbf" points="410.5,-485.5 410.5,-542.5 493.5,-542.5 493.5,-485.5 410.5,-485.5"/>
<text text-anchor="middle" x="452" y="-530.5" font-family="Helvetica,sans-Serif" font-size="10.00">MonoBehaviour</text>
<polyline fill="none" stroke="#bfbfbf" points="410.5,-523.5 493.5,-523.5 "/>
<text text-anchor="middle" x="452" y="-511.5" font-family="Helvetica,sans-Serif" font-size="10.00"> </text>
<polyline fill="none" stroke="#bfbfbf" points="410.5,-504.5 493.5,-504.5 "/>
<text text-anchor="middle" x="452" y="-492.5" font-family="Helvetica,sans-Serif" font-size="10.00"> </text>
</g>
<!-- Node9&#45;&gt;Node8 -->
<g id="edge8" class="edge"><title>Node9&#45;&gt;Node8</title>
<path fill="none" stroke="midnightblue" d="M452,-475.151C452,-456.996 452,-435.011 452,-415.543"/>
<polygon fill="none" stroke="midnightblue" points="448.5,-475.35 452,-485.35 455.5,-475.35 448.5,-475.35"/>
</g>
</g>
</svg>
