<?xml version="1.0" encoding="UTF-8" standalone="no"?>
<!DOCTYPE svg PUBLIC "-//W3C//DTD SVG 1.1//EN"
 "http://www.w3.org/Graphics/SVG/1.1/DTD/svg11.dtd">
<!-- Generated by graphviz version 2.38.0 (20140413.2041)
 -->
<!-- Title: StateMachine Pages: 1 -->
<svg width="453pt" height="558pt"
 viewBox="0.00 0.00 452.50 558.00" xmlns="http://www.w3.org/2000/svg" xmlns:xlink="http://www.w3.org/1999/xlink">
<g id="graph0" class="graph" transform="scale(1 1) rotate(0) translate(4 554)">
<title>StateMachine</title>
<polygon fill="white" stroke="none" points="-4,4 -4,-554 448.5,-554 448.5,4 -4,4"/>
<!-- Node4 -->
<g id="node1" class="node"><title>Node4</title>
<polygon fill="#bfbfbf" stroke="black" points="243.5,-204.5 243.5,-349.5 373.5,-349.5 373.5,-204.5 243.5,-204.5"/>
<text text-anchor="middle" x="308.5" y="-337.5" font-family="Helvetica,sans-Serif" font-size="10.00">StateMachine</text>
<polyline fill="none" stroke="black" points="243.5,-330.5 373.5,-330.5 "/>
<text text-anchor="start" x="251.5" y="-318.5" font-family="Helvetica,sans-Serif" font-size="10.00">+ logEnabled</text>
<text text-anchor="start" x="251.5" y="-307.5" font-family="Helvetica,sans-Serif" font-size="10.00"># controller</text>
<text text-anchor="start" x="251.5" y="-296.5" font-family="Helvetica,sans-Serif" font-size="10.00">&#45; states</text>
<polyline fill="none" stroke="black" points="243.5,-289.5 373.5,-289.5 "/>
<text text-anchor="start" x="251.5" y="-277.5" font-family="Helvetica,sans-Serif" font-size="10.00">+ GetActiveState()</text>
<text text-anchor="start" x="251.5" y="-266.5" font-family="Helvetica,sans-Serif" font-size="10.00">+ TriggerTransition()</text>
<text text-anchor="start" x="251.5" y="-255.5" font-family="Helvetica,sans-Serif" font-size="10.00">+ TriggerTransition()</text>
<text text-anchor="start" x="251.5" y="-244.5" font-family="Helvetica,sans-Serif" font-size="10.00">+ TriggerTransition()</text>
<text text-anchor="start" x="251.5" y="-233.5" font-family="Helvetica,sans-Serif" font-size="10.00">+ AnnounceCurrentState()</text>
<text text-anchor="start" x="251.5" y="-222.5" font-family="Helvetica,sans-Serif" font-size="10.00"># MyAwake()</text>
<text text-anchor="start" x="251.5" y="-211.5" font-family="Helvetica,sans-Serif" font-size="10.00">&#45; Awake()</text>
</g>
<!-- Node8 -->
<g id="node5" class="node"><title>Node8</title>
<g id="a_node5"><a xlink:href="class_state.html" target="_top" xlink:title="Extended functionality for Unity SM Behaviours and makes them complete &#39;States&#39;. ">
<polygon fill="white" stroke="black" points="166.5,-0.5 166.5,-156.5 270.5,-156.5 270.5,-0.5 166.5,-0.5"/>
<text text-anchor="middle" x="218.5" y="-144.5" font-family="Helvetica,sans-Serif" font-size="10.00">State</text>
<polyline fill="none" stroke="black" points="166.5,-137.5 270.5,-137.5 "/>
<text text-anchor="start" x="174.5" y="-125.5" font-family="Helvetica,sans-Serif" font-size="10.00">+ name</text>
<text text-anchor="start" x="174.5" y="-114.5" font-family="Helvetica,sans-Serif" font-size="10.00">+ triggers</text>
<polyline fill="none" stroke="black" points="166.5,-107.5 270.5,-107.5 "/>
<text text-anchor="start" x="174.5" y="-95.5" font-family="Helvetica,sans-Serif" font-size="10.00">+ IsActiveState()</text>
<text text-anchor="start" x="174.5" y="-84.5" font-family="Helvetica,sans-Serif" font-size="10.00">+ Init()</text>
<text text-anchor="start" x="174.5" y="-73.5" font-family="Helvetica,sans-Serif" font-size="10.00">+ OnStateEnter()</text>
<text text-anchor="start" x="174.5" y="-62.5" font-family="Helvetica,sans-Serif" font-size="10.00">+ OnStateExit()</text>
<text text-anchor="start" x="174.5" y="-51.5" font-family="Helvetica,sans-Serif" font-size="10.00"># AddAutoListener()</text>
<text text-anchor="start" x="174.5" y="-40.5" font-family="Helvetica,sans-Serif" font-size="10.00"># TriggerTransition()</text>
<text text-anchor="start" x="174.5" y="-29.5" font-family="Helvetica,sans-Serif" font-size="10.00"># OnMyStateEnter()</text>
<text text-anchor="start" x="174.5" y="-18.5" font-family="Helvetica,sans-Serif" font-size="10.00"># OnMyStateExit()</text>
<text text-anchor="start" x="174.5" y="-7.5" font-family="Helvetica,sans-Serif" font-size="10.00"># OnMyStateInit()</text>
</a>
</g>
</g>
<!-- Node4&#45;&gt;Node8 -->
<g id="edge6" class="edge"><title>Node4&#45;&gt;Node8</title>
<path fill="none" stroke="#404040" d="M264.686,-204.465C261.427,-198.298 258.317,-192.089 255.5,-186 252.803,-180.171 250.19,-174.086 247.683,-167.908"/>
<polygon fill="none" stroke="#404040" points="247.676,-167.89 241.76,-163.766 243.291,-156.72 249.207,-160.843 247.676,-167.89"/>
<text text-anchor="middle" x="266.5" y="-178" font-family="Helvetica,sans-Serif" font-size="10.00"> #sm</text>
</g>
<!-- Node5 -->
<g id="node2" class="node"><title>Node5</title>
<polygon fill="white" stroke="#bfbfbf" points="233,-397.5 233,-454.5 316,-454.5 316,-397.5 233,-397.5"/>
<text text-anchor="middle" x="274.5" y="-442.5" font-family="Helvetica,sans-Serif" font-size="10.00">MonoBehaviour</text>
<polyline fill="none" stroke="#bfbfbf" points="233,-435.5 316,-435.5 "/>
<text text-anchor="middle" x="274.5" y="-423.5" font-family="Helvetica,sans-Serif" font-size="10.00"> </text>
<polyline fill="none" stroke="#bfbfbf" points="233,-416.5 316,-416.5 "/>
<text text-anchor="middle" x="274.5" y="-404.5" font-family="Helvetica,sans-Serif" font-size="10.00"> </text>
</g>
<!-- Node5&#45;&gt;Node4 -->
<g id="edge1" class="edge"><title>Node5&#45;&gt;Node4</title>
<path fill="none" stroke="midnightblue" d="M283.155,-387.582C285.845,-375.948 288.907,-362.71 291.95,-349.555"/>
<polygon fill="none" stroke="midnightblue" points="279.739,-386.819 280.895,-397.35 286.559,-388.396 279.739,-386.819"/>
</g>
<!-- Node6 -->
<g id="node3" class="node"><title>Node6</title>
<g id="a_node3"><a xlink:href="class_unity_string_event.html" target="_top" xlink:title="{UnityStringEvent\n||}">
<polygon fill="white" stroke="black" points="334,-397.5 334,-454.5 423,-454.5 423,-397.5 334,-397.5"/>
<text text-anchor="middle" x="378.5" y="-442.5" font-family="Helvetica,sans-Serif" font-size="10.00">UnityStringEvent</text>
<polyline fill="none" stroke="black" points="334,-435.5 423,-435.5 "/>
<text text-anchor="middle" x="378.5" y="-423.5" font-family="Helvetica,sans-Serif" font-size="10.00"> </text>
<polyline fill="none" stroke="black" points="334,-416.5 423,-416.5 "/>
<text text-anchor="middle" x="378.5" y="-404.5" font-family="Helvetica,sans-Serif" font-size="10.00"> </text>
</a>
</g>
</g>
<!-- Node6&#45;&gt;Node4 -->
<g id="edge2" class="edge"><title>Node6&#45;&gt;Node4</title>
<path fill="none" stroke="#404040" d="M365.334,-397.35C360.259,-386.694 354.166,-373.898 347.88,-360.699"/>
<polygon fill="none" stroke="#404040" points="347.733,-360.39 341.542,-356.692 342.574,-349.555 348.765,-353.253 347.733,-360.39"/>
<text text-anchor="middle" x="400" y="-371" font-family="Helvetica,sans-Serif" font-size="10.00"> +stateEnteredEvent</text>
</g>
<!-- Node7 -->
<g id="node4" class="node"><title>Node7</title>
<polygon fill="white" stroke="#bfbfbf" points="326,-492.5 326,-549.5 431,-549.5 431,-492.5 326,-492.5"/>
<text text-anchor="middle" x="378.5" y="-537.5" font-family="Helvetica,sans-Serif" font-size="10.00">UnityEvent&lt; string &gt;</text>
<polyline fill="none" stroke="#bfbfbf" points="326,-530.5 431,-530.5 "/>
<text text-anchor="middle" x="378.5" y="-518.5" font-family="Helvetica,sans-Serif" font-size="10.00"> </text>
<polyline fill="none" stroke="#bfbfbf" points="326,-511.5 431,-511.5 "/>
<text text-anchor="middle" x="378.5" y="-499.5" font-family="Helvetica,sans-Serif" font-size="10.00"> </text>
</g>
<!-- Node7&#45;&gt;Node6 -->
<g id="edge3" class="edge"><title>Node7&#45;&gt;Node6</title>
<path fill="none" stroke="midnightblue" d="M378.5,-482.235C378.5,-473.028 378.5,-463.346 378.5,-454.705"/>
<polygon fill="none" stroke="midnightblue" points="375,-482.349 378.5,-492.349 382,-482.349 375,-482.349"/>
</g>
<!-- Node8&#45;&gt;Node4 -->
<g id="edge4" class="edge"><title>Node8&#45;&gt;Node4</title>
<path fill="none" stroke="#404040" d="M270.565,-153.525C274.563,-160.621 278.285,-167.843 281.5,-175 284.038,-180.65 286.379,-186.588 288.531,-192.638"/>
<polygon fill="none" stroke="#404040" points="288.644,-192.977 294.335,-197.405 292.437,-204.362 286.745,-199.934 288.644,-192.977"/>
<text text-anchor="middle" x="314" y="-178" font-family="Helvetica,sans-Serif" font-size="10.00"> #activeState</text>
</g>
<!-- Node9 -->
<g id="node6" class="node"><title>Node9</title>
<polygon fill="white" stroke="#bfbfbf" points="0,-248.5 0,-305.5 119,-305.5 119,-248.5 0,-248.5"/>
<text text-anchor="middle" x="59.5" y="-293.5" font-family="Helvetica,sans-Serif" font-size="10.00">StateMachineBehaviour</text>
<polyline fill="none" stroke="#bfbfbf" points="0,-286.5 119,-286.5 "/>
<text text-anchor="middle" x="59.5" y="-274.5" font-family="Helvetica,sans-Serif" font-size="10.00"> </text>
<polyline fill="none" stroke="#bfbfbf" points="0,-267.5 119,-267.5 "/>
<text text-anchor="middle" x="59.5" y="-255.5" font-family="Helvetica,sans-Serif" font-size="10.00"> </text>
</g>
<!-- Node9&#45;&gt;Node8 -->
<g id="edge5" class="edge"><title>Node9&#45;&gt;Node8</title>
<path fill="none" stroke="midnightblue" d="M88.3883,-240.298C110.092,-213.476 140.411,-176.006 166.321,-143.985"/>
<polygon fill="none" stroke="midnightblue" points="85.513,-238.288 81.9436,-248.263 90.9547,-242.691 85.513,-238.288"/>
</g>
<!-- Node10 -->
<g id="node7" class="node"><title>Node10</title>
<g id="a_node7"><a xlink:href="class_listener_group.html" target="_top" xlink:title="Helper class to execute adding and removing on all held Listeners (Events + Callbacks). ">
<polygon fill="white" stroke="black" points="137.5,-232 137.5,-322 225.5,-322 225.5,-232 137.5,-232"/>
<text text-anchor="middle" x="181.5" y="-310" font-family="Helvetica,sans-Serif" font-size="10.00">ListenerGroup</text>
<polyline fill="none" stroke="black" points="137.5,-303 225.5,-303 "/>
<text text-anchor="start" x="145.5" y="-291" font-family="Helvetica,sans-Serif" font-size="10.00">&#45; heldListeners</text>
<polyline fill="none" stroke="black" points="137.5,-284 225.5,-284 "/>
<text text-anchor="start" x="145.5" y="-272" font-family="Helvetica,sans-Serif" font-size="10.00">+ Add()</text>
<text text-anchor="start" x="145.5" y="-261" font-family="Helvetica,sans-Serif" font-size="10.00">+ Add()</text>
<text text-anchor="start" x="145.5" y="-250" font-family="Helvetica,sans-Serif" font-size="10.00">+ ActivateAll()</text>
<text text-anchor="start" x="145.5" y="-239" font-family="Helvetica,sans-Serif" font-size="10.00">+ DeactivateAll()</text>
</a>
</g>
</g>
<!-- Node10&#45;&gt;Node8 -->
<g id="edge7" class="edge"><title>Node10&#45;&gt;Node8</title>
<path fill="none" stroke="#404040" d="M183.538,-231.993C184.85,-214.189 186.997,-193.508 190.5,-175 190.91,-172.834 191.348,-170.647 191.812,-168.446"/>
<polygon fill="none" stroke="#404040" points="191.847,-168.289 189.275,-161.552 194.504,-156.587 197.077,-163.323 191.847,-168.289"/>
<text text-anchor="middle" x="212" y="-178" font-family="Helvetica,sans-Serif" font-size="10.00"> &#45;listeners</text>
</g>
</g>
</svg>
