<?xml version="1.0" encoding="UTF-8" standalone="no"?>
<!DOCTYPE svg PUBLIC "-//W3C//DTD SVG 1.1//EN"
 "http://www.w3.org/Graphics/SVG/1.1/DTD/svg11.dtd">
<!-- Generated by graphviz version 2.38.0 (20140413.2041)
 -->
<!-- Title: UnitStatus Pages: 1 -->
<svg width="228pt" height="182pt"
 viewBox="0.00 0.00 228.00 182.00" xmlns="http://www.w3.org/2000/svg" xmlns:xlink="http://www.w3.org/1999/xlink">
<g id="graph0" class="graph" transform="scale(1 1) rotate(0) translate(4 178)">
<title>UnitStatus</title>
<polygon fill="white" stroke="none" points="-4,4 -4,-178 224,-178 224,4 -4,4"/>
<!-- Node0 -->
<g id="node1" class="node"><title>Node0</title>
<polygon fill="#bfbfbf" stroke="black" points="41,-0.5 41,-68.5 160,-68.5 160,-0.5 41,-0.5"/>
<text text-anchor="middle" x="100.5" y="-56.5" font-family="Helvetica,sans-Serif" font-size="10.00">UnitStatus</text>
<polyline fill="none" stroke="black" points="41,-49.5 160,-49.5 "/>
<text text-anchor="start" x="49" y="-37.5" font-family="Helvetica,sans-Serif" font-size="10.00">+ maxHp</text>
<polyline fill="none" stroke="black" points="41,-30.5 160,-30.5 "/>
<text text-anchor="start" x="49" y="-18.5" font-family="Helvetica,sans-Serif" font-size="10.00">+ AddStatusEffect()</text>
<text text-anchor="start" x="49" y="-7.5" font-family="Helvetica,sans-Serif" font-size="10.00">+ RemoveStatusEffect()</text>
</g>
<!-- Node1 -->
<g id="node2" class="node"><title>Node1</title>
<polygon fill="white" stroke="#bfbfbf" points="0,-111 0,-168 83,-168 83,-111 0,-111"/>
<text text-anchor="middle" x="41.5" y="-156" font-family="Helvetica,sans-Serif" font-size="10.00">MonoBehaviour</text>
<polyline fill="none" stroke="#bfbfbf" points="0,-149 83,-149 "/>
<text text-anchor="middle" x="41.5" y="-137" font-family="Helvetica,sans-Serif" font-size="10.00"> </text>
<polyline fill="none" stroke="#bfbfbf" points="0,-130 83,-130 "/>
<text text-anchor="middle" x="41.5" y="-118" font-family="Helvetica,sans-Serif" font-size="10.00"> </text>
</g>
<!-- Node1&#45;&gt;Node0 -->
<g id="edge1" class="edge"><title>Node1&#45;&gt;Node0</title>
<path fill="none" stroke="midnightblue" d="M62.3811,-102.047C68.6069,-91.1778 75.3941,-79.3289 81.4933,-68.6812"/>
<polygon fill="none" stroke="midnightblue" points="59.2444,-100.481 57.3109,-110.898 65.3185,-103.96 59.2444,-100.481"/>
</g>
<!-- Node2 -->
<g id="node3" class="node"><title>Node2</title>
<g id="a_node3"><a xlink:href="interfacemechanics_1_1_i_status_holder.html" target="_top" xlink:title="Interface for all Behaviours that shall be able to receive status effects. ">
<polygon fill="white" stroke="black" points="101,-105.5 101,-173.5 220,-173.5 220,-105.5 101,-105.5"/>
<text text-anchor="middle" x="160.5" y="-161.5" font-family="Helvetica,sans-Serif" font-size="10.00">IStatusHolder</text>
<polyline fill="none" stroke="black" points="101,-154.5 220,-154.5 "/>
<text text-anchor="middle" x="160.5" y="-142.5" font-family="Helvetica,sans-Serif" font-size="10.00"> </text>
<polyline fill="none" stroke="black" points="101,-135.5 220,-135.5 "/>
<text text-anchor="start" x="109" y="-123.5" font-family="Helvetica,sans-Serif" font-size="10.00">+ AddStatusEffect()</text>
<text text-anchor="start" x="109" y="-112.5" font-family="Helvetica,sans-Serif" font-size="10.00">+ RemoveStatusEffect()</text>
</a>
</g>
</g>
<!-- Node2&#45;&gt;Node0 -->
<g id="edge2" class="edge"><title>Node2&#45;&gt;Node0</title>
<path fill="none" stroke="midnightblue" d="M136.081,-96.5809C130.651,-87.2595 124.968,-77.504 119.778,-68.5947"/>
<polygon fill="none" stroke="midnightblue" points="133.128,-98.4641 141.185,-105.343 139.176,-94.9406 133.128,-98.4641"/>
</g>
</g>
</svg>
