<?xml version="1.0" encoding="UTF-8" standalone="no"?>
<!DOCTYPE svg PUBLIC "-//W3C//DTD SVG 1.1//EN"
 "http://www.w3.org/Graphics/SVG/1.1/DTD/svg11.dtd">
<!-- Generated by graphviz version 2.38.0 (20140413.2041)
 -->
<!-- Title: StatusEffect Pages: 1 -->
<svg width="206pt" height="303pt"
 viewBox="0.00 0.00 206.00 303.00" xmlns="http://www.w3.org/2000/svg" xmlns:xlink="http://www.w3.org/1999/xlink">
<g id="graph0" class="graph" transform="scale(1 1) rotate(0) translate(4 299)">
<title>StatusEffect</title>
<polygon fill="white" stroke="none" points="-4,4 -4,-299 202,-299 202,4 -4,4"/>
<!-- Node2 -->
<g id="node1" class="node"><title>Node2</title>
<polygon fill="#bfbfbf" stroke="black" points="56,-0.5 56,-79.5 141,-79.5 141,-0.5 56,-0.5"/>
<text text-anchor="middle" x="98.5" y="-67.5" font-family="Helvetica,sans-Serif" font-size="10.00">StatusEffect</text>
<polyline fill="none" stroke="black" points="56,-60.5 141,-60.5 "/>
<text text-anchor="start" x="64" y="-48.5" font-family="Helvetica,sans-Serif" font-size="10.00">+ offset</text>
<text text-anchor="start" x="64" y="-37.5" font-family="Helvetica,sans-Serif" font-size="10.00">+ multiplier</text>
<text text-anchor="start" x="64" y="-26.5" font-family="Helvetica,sans-Serif" font-size="10.00">+ duration</text>
<polyline fill="none" stroke="black" points="56,-19.5 141,-19.5 "/>
<text text-anchor="start" x="64" y="-7.5" font-family="Helvetica,sans-Serif" font-size="10.00">+ IsTemporary()</text>
</g>
<!-- Node3 -->
<g id="node2" class="node"><title>Node3</title>
<polygon fill="white" stroke="#bfbfbf" points="0,-182.5 0,-239.5 89,-239.5 89,-182.5 0,-182.5"/>
<text text-anchor="middle" x="44.5" y="-227.5" font-family="Helvetica,sans-Serif" font-size="10.00">ScriptableObject</text>
<polyline fill="none" stroke="#bfbfbf" points="0,-220.5 89,-220.5 "/>
<text text-anchor="middle" x="44.5" y="-208.5" font-family="Helvetica,sans-Serif" font-size="10.00"> </text>
<polyline fill="none" stroke="#bfbfbf" points="0,-201.5 89,-201.5 "/>
<text text-anchor="middle" x="44.5" y="-189.5" font-family="Helvetica,sans-Serif" font-size="10.00"> </text>
</g>
<!-- Node3&#45;&gt;Node2 -->
<g id="edge1" class="edge"><title>Node3&#45;&gt;Node2</title>
<path fill="none" stroke="midnightblue" d="M56.3954,-172.772C65.2296,-145.124 77.2445,-107.522 86.1787,-79.561"/>
<polygon fill="none" stroke="midnightblue" points="53.006,-171.88 53.2962,-182.471 59.6739,-174.011 53.006,-171.88"/>
</g>
<!-- Node4 -->
<g id="node3" class="node"><title>Node4</title>
<g id="a_node3"><a xlink:href="class_attribute.html" target="_top" xlink:title="{Attribute\n|+ name\l+ baseValue\l+ baseMultiplier\l+ value\l+ isSynced\l&#45; type\l&#45; initBaseValue\l&#45; tempEffects\l|+ AddEffect()\l+ RemoveEffect()\l# Attribute()\l&#45; Recalculate()\l}">
<polygon fill="white" stroke="black" points="107,-127.5 107,-294.5 198,-294.5 198,-127.5 107,-127.5"/>
<text text-anchor="middle" x="152.5" y="-282.5" font-family="Helvetica,sans-Serif" font-size="10.00">Attribute</text>
<polyline fill="none" stroke="black" points="107,-275.5 198,-275.5 "/>
<text text-anchor="start" x="115" y="-263.5" font-family="Helvetica,sans-Serif" font-size="10.00">+ name</text>
<text text-anchor="start" x="115" y="-252.5" font-family="Helvetica,sans-Serif" font-size="10.00">+ baseValue</text>
<text text-anchor="start" x="115" y="-241.5" font-family="Helvetica,sans-Serif" font-size="10.00">+ baseMultiplier</text>
<text text-anchor="start" x="115" y="-230.5" font-family="Helvetica,sans-Serif" font-size="10.00">+ value</text>
<text text-anchor="start" x="115" y="-219.5" font-family="Helvetica,sans-Serif" font-size="10.00">+ isSynced</text>
<text text-anchor="start" x="115" y="-208.5" font-family="Helvetica,sans-Serif" font-size="10.00">&#45; type</text>
<text text-anchor="start" x="115" y="-197.5" font-family="Helvetica,sans-Serif" font-size="10.00">&#45; initBaseValue</text>
<text text-anchor="start" x="115" y="-186.5" font-family="Helvetica,sans-Serif" font-size="10.00">&#45; tempEffects</text>
<polyline fill="none" stroke="black" points="107,-179.5 198,-179.5 "/>
<text text-anchor="start" x="115" y="-167.5" font-family="Helvetica,sans-Serif" font-size="10.00">+ AddEffect()</text>
<text text-anchor="start" x="115" y="-156.5" font-family="Helvetica,sans-Serif" font-size="10.00">+ RemoveEffect()</text>
<text text-anchor="start" x="115" y="-145.5" font-family="Helvetica,sans-Serif" font-size="10.00"># Attribute()</text>
<text text-anchor="start" x="115" y="-134.5" font-family="Helvetica,sans-Serif" font-size="10.00">&#45; Recalculate()</text>
</a>
</g>
</g>
<!-- Node4&#45;&gt;Node2 -->
<g id="edge2" class="edge"><title>Node4&#45;&gt;Node2</title>
<path fill="none" stroke="#404040" d="M126.133,-127.48C122.159,-115.043 118.166,-102.548 114.5,-91.0751"/>
<polygon fill="none" stroke="#404040" points="114.465,-90.9644 108.829,-86.4665 110.813,-79.5337 116.449,-84.0316 114.465,-90.9644"/>
<text text-anchor="middle" x="152.5" y="-101" font-family="Helvetica,sans-Serif" font-size="10.00"> +attributeType</text>
</g>
</g>
</svg>
