<?xml version="1.0" encoding="UTF-8" standalone="no"?>
<!DOCTYPE svg PUBLIC "-//W3C//DTD SVG 1.1//EN"
 "http://www.w3.org/Graphics/SVG/1.1/DTD/svg11.dtd">
<!-- Generated by graphviz version 2.38.0 (20140413.2041)
 -->
<!-- Title: ParallaxScroll Pages: 1 -->
<svg width="92pt" height="204pt"
 viewBox="0.00 0.00 92.00 204.00" xmlns="http://www.w3.org/2000/svg" xmlns:xlink="http://www.w3.org/1999/xlink">
<g id="graph0" class="graph" transform="scale(1 1) rotate(0) translate(4 200)">
<title>ParallaxScroll</title>
<polygon fill="white" stroke="none" points="-4,4 -4,-200 88,-200 88,4 -4,4"/>
<!-- Node2 -->
<g id="node1" class="node"><title>Node2</title>
<polygon fill="#bfbfbf" stroke="black" points="0,-0.5 0,-101.5 84,-101.5 84,-0.5 0,-0.5"/>
<text text-anchor="middle" x="42" y="-89.5" font-family="Helvetica,sans-Serif" font-size="10.00">ParallaxScroll</text>
<polyline fill="none" stroke="black" points="0,-82.5 84,-82.5 "/>
<text text-anchor="start" x="8" y="-70.5" font-family="Helvetica,sans-Serif" font-size="10.00">&#45; parallaxFactor</text>
<text text-anchor="start" x="8" y="-59.5" font-family="Helvetica,sans-Serif" font-size="10.00">&#45; cam</text>
<text text-anchor="start" x="8" y="-48.5" font-family="Helvetica,sans-Serif" font-size="10.00">&#45; camAtStart</text>
<text text-anchor="start" x="8" y="-37.5" font-family="Helvetica,sans-Serif" font-size="10.00">&#45; objAtStart</text>
<polyline fill="none" stroke="black" points="0,-30.5 84,-30.5 "/>
<text text-anchor="start" x="8" y="-18.5" font-family="Helvetica,sans-Serif" font-size="10.00">&#45; Awake()</text>
<text text-anchor="start" x="8" y="-7.5" font-family="Helvetica,sans-Serif" font-size="10.00">&#45; LateUpdate()</text>
</g>
<!-- Node3 -->
<g id="node2" class="node"><title>Node3</title>
<polygon fill="white" stroke="#bfbfbf" points="0.5,-138.5 0.5,-195.5 83.5,-195.5 83.5,-138.5 0.5,-138.5"/>
<text text-anchor="middle" x="42" y="-183.5" font-family="Helvetica,sans-Serif" font-size="10.00">MonoBehaviour</text>
<polyline fill="none" stroke="#bfbfbf" points="0.5,-176.5 83.5,-176.5 "/>
<text text-anchor="middle" x="42" y="-164.5" font-family="Helvetica,sans-Serif" font-size="10.00"> </text>
<polyline fill="none" stroke="#bfbfbf" points="0.5,-157.5 83.5,-157.5 "/>
<text text-anchor="middle" x="42" y="-145.5" font-family="Helvetica,sans-Serif" font-size="10.00"> </text>
</g>
<!-- Node3&#45;&gt;Node2 -->
<g id="edge1" class="edge"><title>Node3&#45;&gt;Node2</title>
<path fill="none" stroke="midnightblue" d="M42,-128.354C42,-119.796 42,-110.578 42,-101.608"/>
<polygon fill="none" stroke="midnightblue" points="38.5001,-128.404 42,-138.404 45.5001,-128.404 38.5001,-128.404"/>
</g>
</g>
</svg>
