<?xml version="1.0" encoding="UTF-8" standalone="no"?>
<!DOCTYPE svg PUBLIC "-//W3C//DTD SVG 1.1//EN"
 "http://www.w3.org/Graphics/SVG/1.1/DTD/svg11.dtd">
<!-- Generated by graphviz version 2.38.0 (20140413.2041)
 -->
<!-- Title: HBMenu2 Pages: 1 -->
<svg width="103pt" height="182pt"
 viewBox="0.00 0.00 103.00 182.00" xmlns="http://www.w3.org/2000/svg" xmlns:xlink="http://www.w3.org/1999/xlink">
<g id="graph0" class="graph" transform="scale(1 1) rotate(0) translate(4 178)">
<title>HBMenu2</title>
<polygon fill="white" stroke="none" points="-4,4 -4,-178 99,-178 99,4 -4,4"/>
<!-- Node0 -->
<g id="node1" class="node"><title>Node0</title>
<polygon fill="#bfbfbf" stroke="black" points="0,-0.5 0,-79.5 95,-79.5 95,-0.5 0,-0.5"/>
<text text-anchor="middle" x="47.5" y="-67.5" font-family="Helvetica,sans-Serif" font-size="10.00">HBMenu2</text>
<polyline fill="none" stroke="black" points="0,-60.5 95,-60.5 "/>
<text text-anchor="start" x="8" y="-48.5" font-family="Helvetica,sans-Serif" font-size="10.00">+ hbMenuUI</text>
<text text-anchor="start" x="8" y="-37.5" font-family="Helvetica,sans-Serif" font-size="10.00">&#45; player</text>
<polyline fill="none" stroke="black" points="0,-30.5 95,-30.5 "/>
<text text-anchor="start" x="8" y="-18.5" font-family="Helvetica,sans-Serif" font-size="10.00">+ OpenMenu()</text>
<text text-anchor="start" x="8" y="-7.5" font-family="Helvetica,sans-Serif" font-size="10.00">&#45; OnMouseDown()</text>
</g>
<!-- Node1 -->
<g id="node2" class="node"><title>Node1</title>
<polygon fill="white" stroke="#bfbfbf" points="6,-116.5 6,-173.5 89,-173.5 89,-116.5 6,-116.5"/>
<text text-anchor="middle" x="47.5" y="-161.5" font-family="Helvetica,sans-Serif" font-size="10.00">MonoBehaviour</text>
<polyline fill="none" stroke="#bfbfbf" points="6,-154.5 89,-154.5 "/>
<text text-anchor="middle" x="47.5" y="-142.5" font-family="Helvetica,sans-Serif" font-size="10.00"> </text>
<polyline fill="none" stroke="#bfbfbf" points="6,-135.5 89,-135.5 "/>
<text text-anchor="middle" x="47.5" y="-123.5" font-family="Helvetica,sans-Serif" font-size="10.00"> </text>
</g>
<!-- Node1&#45;&gt;Node0 -->
<g id="edge1" class="edge"><title>Node1&#45;&gt;Node0</title>
<path fill="none" stroke="midnightblue" d="M47.5,-106.156C47.5,-97.4733 47.5,-88.2318 47.5,-79.5205"/>
<polygon fill="none" stroke="midnightblue" points="44.0001,-106.398 47.5,-116.398 51.0001,-106.398 44.0001,-106.398"/>
</g>
</g>
</svg>
