<?xml version="1.0" encoding="UTF-8" standalone="no"?>
<!DOCTYPE svg PUBLIC "-//W3C//DTD SVG 1.1//EN"
 "http://www.w3.org/Graphics/SVG/1.1/DTD/svg11.dtd">
<!-- Generated by graphviz version 2.38.0 (20140413.2041)
 -->
<!-- Title: SceneReference Pages: 1 -->
<svg width="154pt" height="204pt"
 viewBox="0.00 0.00 154.00 204.00" xmlns="http://www.w3.org/2000/svg" xmlns:xlink="http://www.w3.org/1999/xlink">
<g id="graph0" class="graph" transform="scale(1 1) rotate(0) translate(4 200)">
<title>SceneReference</title>
<polygon fill="white" stroke="none" points="-4,4 -4,-200 150,-200 150,4 -4,4"/>
<!-- Node2 -->
<g id="node1" class="node"><title>Node2</title>
<polygon fill="#bfbfbf" stroke="black" points="16.5,-0.5 16.5,-101.5 129.5,-101.5 129.5,-0.5 16.5,-0.5"/>
<text text-anchor="middle" x="73" y="-89.5" font-family="Helvetica,sans-Serif" font-size="10.00">SceneReference</text>
<polyline fill="none" stroke="black" points="16.5,-82.5 129.5,-82.5 "/>
<text text-anchor="start" x="24.5" y="-70.5" font-family="Helvetica,sans-Serif" font-size="10.00">+ ScenePath</text>
<text text-anchor="start" x="24.5" y="-59.5" font-family="Helvetica,sans-Serif" font-size="10.00">&#45; scenePath</text>
<polyline fill="none" stroke="black" points="16.5,-52.5 129.5,-52.5 "/>
<text text-anchor="start" x="24.5" y="-40.5" font-family="Helvetica,sans-Serif" font-size="10.00">+ IsCurrentScene()</text>
<text text-anchor="start" x="24.5" y="-29.5" font-family="Helvetica,sans-Serif" font-size="10.00">+ OnBeforeSerialize()</text>
<text text-anchor="start" x="24.5" y="-18.5" font-family="Helvetica,sans-Serif" font-size="10.00">+ OnAfterDeserialize()</text>
<text text-anchor="start" x="24.5" y="-7.5" font-family="Helvetica,sans-Serif" font-size="10.00">+ operator string()</text>
</g>
<!-- Node3 -->
<g id="node2" class="node"><title>Node3</title>
<polygon fill="white" stroke="#bfbfbf" points="0,-138.5 0,-195.5 146,-195.5 146,-138.5 0,-138.5"/>
<text text-anchor="middle" x="73" y="-183.5" font-family="Helvetica,sans-Serif" font-size="10.00">ISerializationCallbackReceiver</text>
<polyline fill="none" stroke="#bfbfbf" points="0,-176.5 146,-176.5 "/>
<text text-anchor="middle" x="73" y="-164.5" font-family="Helvetica,sans-Serif" font-size="10.00"> </text>
<polyline fill="none" stroke="#bfbfbf" points="0,-157.5 146,-157.5 "/>
<text text-anchor="middle" x="73" y="-145.5" font-family="Helvetica,sans-Serif" font-size="10.00"> </text>
</g>
<!-- Node3&#45;&gt;Node2 -->
<g id="edge1" class="edge"><title>Node3&#45;&gt;Node2</title>
<path fill="none" stroke="midnightblue" d="M73,-128.354C73,-119.796 73,-110.578 73,-101.608"/>
<polygon fill="none" stroke="midnightblue" points="69.5001,-128.404 73,-138.404 76.5001,-128.404 69.5001,-128.404"/>
</g>
</g>
</svg>
