<?xml version="1.0" encoding="UTF-8" standalone="no"?>
<!DOCTYPE svg PUBLIC "-//W3C//DTD SVG 1.1//EN"
 "http://www.w3.org/Graphics/SVG/1.1/DTD/svg11.dtd">
<!-- Generated by graphviz version 2.38.0 (20140413.2041)
 -->
<!-- Title: Level Pages: 1 -->
<svg width="97pt" height="193pt"
 viewBox="0.00 0.00 97.00 193.00" xmlns="http://www.w3.org/2000/svg" xmlns:xlink="http://www.w3.org/1999/xlink">
<g id="graph0" class="graph" transform="scale(1 1) rotate(0) translate(4 189)">
<title>Level</title>
<polygon fill="white" stroke="none" points="-4,4 -4,-189 93,-189 93,4 -4,4"/>
<!-- Node0 -->
<g id="node1" class="node"><title>Node0</title>
<polygon fill="#bfbfbf" stroke="black" points="15,-0.5 15,-90.5 74,-90.5 74,-0.5 15,-0.5"/>
<text text-anchor="middle" x="44.5" y="-78.5" font-family="Helvetica,sans-Serif" font-size="10.00">Level</text>
<polyline fill="none" stroke="black" points="15,-71.5 74,-71.5 "/>
<text text-anchor="start" x="23" y="-59.5" font-family="Helvetica,sans-Serif" font-size="10.00">+ lvlName</text>
<text text-anchor="start" x="23" y="-48.5" font-family="Helvetica,sans-Serif" font-size="10.00">+ image</text>
<text text-anchor="start" x="23" y="-37.5" font-family="Helvetica,sans-Serif" font-size="10.00">+ scene</text>
<text text-anchor="start" x="23" y="-26.5" font-family="Helvetica,sans-Serif" font-size="10.00">+ spawns</text>
<polyline fill="none" stroke="black" points="15,-19.5 74,-19.5 "/>
<text text-anchor="middle" x="44.5" y="-7.5" font-family="Helvetica,sans-Serif" font-size="10.00"> </text>
</g>
<!-- Node1 -->
<g id="node2" class="node"><title>Node1</title>
<polygon fill="white" stroke="#bfbfbf" points="0,-127.5 0,-184.5 89,-184.5 89,-127.5 0,-127.5"/>
<text text-anchor="middle" x="44.5" y="-172.5" font-family="Helvetica,sans-Serif" font-size="10.00">ScriptableObject</text>
<polyline fill="none" stroke="#bfbfbf" points="0,-165.5 89,-165.5 "/>
<text text-anchor="middle" x="44.5" y="-153.5" font-family="Helvetica,sans-Serif" font-size="10.00"> </text>
<polyline fill="none" stroke="#bfbfbf" points="0,-146.5 89,-146.5 "/>
<text text-anchor="middle" x="44.5" y="-134.5" font-family="Helvetica,sans-Serif" font-size="10.00"> </text>
</g>
<!-- Node1&#45;&gt;Node0 -->
<g id="edge1" class="edge"><title>Node1&#45;&gt;Node0</title>
<path fill="none" stroke="midnightblue" d="M44.5,-117.214C44.5,-108.609 44.5,-99.3943 44.5,-90.5541"/>
<polygon fill="none" stroke="midnightblue" points="41.0001,-117.34 44.5,-127.34 48.0001,-117.34 41.0001,-117.34"/>
</g>
</g>
</svg>
