<?xml version="1.0" encoding="UTF-8" standalone="no"?>
<!DOCTYPE svg PUBLIC "-//W3C//DTD SVG 1.1//EN"
 "http://www.w3.org/Graphics/SVG/1.1/DTD/svg11.dtd">
<!-- Generated by graphviz version 2.38.0 (20140413.2041)
 -->
<!-- Title: Level Pages: 1 -->
<svg width="245pt" height="343pt"
 viewBox="0.00 0.00 244.50 343.00" xmlns="http://www.w3.org/2000/svg" xmlns:xlink="http://www.w3.org/1999/xlink">
<g id="graph0" class="graph" transform="scale(1 1) rotate(0) translate(4 339)">
<title>Level</title>
<polygon fill="white" stroke="none" points="-4,4 -4,-339 240.5,-339 240.5,4 -4,4"/>
<!-- Node2 -->
<g id="node1" class="node"><title>Node2</title>
<polygon fill="#bfbfbf" stroke="black" points="29,-0.5 29,-90.5 136,-90.5 136,-0.5 29,-0.5"/>
<text text-anchor="middle" x="82.5" y="-78.5" font-family="Helvetica,sans-Serif" font-size="10.00">Level</text>
<polyline fill="none" stroke="black" points="29,-71.5 136,-71.5 "/>
<text text-anchor="start" x="37" y="-59.5" font-family="Helvetica,sans-Serif" font-size="10.00">+ lvlName</text>
<text text-anchor="start" x="37" y="-48.5" font-family="Helvetica,sans-Serif" font-size="10.00">+ image</text>
<text text-anchor="start" x="37" y="-37.5" font-family="Helvetica,sans-Serif" font-size="10.00">+ spawns</text>
<text text-anchor="start" x="37" y="-26.5" font-family="Helvetica,sans-Serif" font-size="10.00">+ homeBaseSpawns</text>
<polyline fill="none" stroke="black" points="29,-19.5 136,-19.5 "/>
<text text-anchor="middle" x="82.5" y="-7.5" font-family="Helvetica,sans-Serif" font-size="10.00"> </text>
</g>
<!-- Node3 -->
<g id="node2" class="node"><title>Node3</title>
<polygon fill="white" stroke="#bfbfbf" points="0,-160.5 0,-217.5 89,-217.5 89,-160.5 0,-160.5"/>
<text text-anchor="middle" x="44.5" y="-205.5" font-family="Helvetica,sans-Serif" font-size="10.00">ScriptableObject</text>
<polyline fill="none" stroke="#bfbfbf" points="0,-198.5 89,-198.5 "/>
<text text-anchor="middle" x="44.5" y="-186.5" font-family="Helvetica,sans-Serif" font-size="10.00"> </text>
<polyline fill="none" stroke="#bfbfbf" points="0,-179.5 89,-179.5 "/>
<text text-anchor="middle" x="44.5" y="-167.5" font-family="Helvetica,sans-Serif" font-size="10.00"> </text>
</g>
<!-- Node3&#45;&gt;Node2 -->
<g id="edge1" class="edge"><title>Node3&#45;&gt;Node2</title>
<path fill="none" stroke="midnightblue" d="M54.5389,-150.618C59.4734,-132.244 65.4538,-109.975 70.6154,-90.7545"/>
<polygon fill="none" stroke="midnightblue" points="51.1304,-149.816 51.917,-160.381 57.8909,-151.631 51.1304,-149.816"/>
</g>
<!-- Node4 -->
<g id="node3" class="node"><title>Node4</title>
<g id="a_node3"><a xlink:href="classlevel_1_1_scene_reference.html" target="_top" xlink:title="A wrapper that provides the means to safely serialize Scene Asset References. ">
<polygon fill="white" stroke="black" points="107,-138.5 107,-239.5 220,-239.5 220,-138.5 107,-138.5"/>
<text text-anchor="middle" x="163.5" y="-227.5" font-family="Helvetica,sans-Serif" font-size="10.00">SceneReference</text>
<polyline fill="none" stroke="black" points="107,-220.5 220,-220.5 "/>
<text text-anchor="start" x="115" y="-208.5" font-family="Helvetica,sans-Serif" font-size="10.00">+ ScenePath</text>
<text text-anchor="start" x="115" y="-197.5" font-family="Helvetica,sans-Serif" font-size="10.00">&#45; scenePath</text>
<polyline fill="none" stroke="black" points="107,-190.5 220,-190.5 "/>
<text text-anchor="start" x="115" y="-178.5" font-family="Helvetica,sans-Serif" font-size="10.00">+ IsCurrentScene()</text>
<text text-anchor="start" x="115" y="-167.5" font-family="Helvetica,sans-Serif" font-size="10.00">+ OnBeforeSerialize()</text>
<text text-anchor="start" x="115" y="-156.5" font-family="Helvetica,sans-Serif" font-size="10.00">+ OnAfterDeserialize()</text>
<text text-anchor="start" x="115" y="-145.5" font-family="Helvetica,sans-Serif" font-size="10.00">+ operator string()</text>
</a>
</g>
</g>
<!-- Node4&#45;&gt;Node2 -->
<g id="edge2" class="edge"><title>Node4&#45;&gt;Node2</title>
<path fill="none" stroke="#404040" d="M134.942,-138.112C128.108,-126.173 120.776,-113.364 113.824,-101.22"/>
<polygon fill="none" stroke="#404040" points="113.796,-101.172 107.344,-97.952 107.835,-90.7576 114.287,-93.9775 113.796,-101.172"/>
<text text-anchor="middle" x="140.5" y="-112" font-family="Helvetica,sans-Serif" font-size="10.00"> +scene</text>
</g>
<!-- Node5 -->
<g id="node4" class="node"><title>Node5</title>
<polygon fill="white" stroke="#bfbfbf" points="90.5,-277.5 90.5,-334.5 236.5,-334.5 236.5,-277.5 90.5,-277.5"/>
<text text-anchor="middle" x="163.5" y="-322.5" font-family="Helvetica,sans-Serif" font-size="10.00">ISerializationCallbackReceiver</text>
<polyline fill="none" stroke="#bfbfbf" points="90.5,-315.5 236.5,-315.5 "/>
<text text-anchor="middle" x="163.5" y="-303.5" font-family="Helvetica,sans-Serif" font-size="10.00"> </text>
<polyline fill="none" stroke="#bfbfbf" points="90.5,-296.5 236.5,-296.5 "/>
<text text-anchor="middle" x="163.5" y="-284.5" font-family="Helvetica,sans-Serif" font-size="10.00"> </text>
</g>
<!-- Node5&#45;&gt;Node4 -->
<g id="edge3" class="edge"><title>Node5&#45;&gt;Node4</title>
<path fill="none" stroke="midnightblue" d="M163.5,-267.187C163.5,-258.435 163.5,-248.99 163.5,-239.812"/>
<polygon fill="none" stroke="midnightblue" points="160,-267.455 163.5,-277.455 167,-267.455 160,-267.455"/>
</g>
</g>
</svg>
