<?xml version="1.0" encoding="UTF-8" standalone="no"?>
<!DOCTYPE svg PUBLIC "-//W3C//DTD SVG 1.1//EN"
 "http://www.w3.org/Graphics/SVG/1.1/DTD/svg11.dtd">
<!-- Generated by graphviz version 2.38.0 (20140413.2041)
 -->
<!-- Title: Food Pages: 1 -->
<svg width="252pt" height="398pt"
 viewBox="0.00 0.00 251.50 398.00" xmlns="http://www.w3.org/2000/svg" xmlns:xlink="http://www.w3.org/1999/xlink">
<g id="graph0" class="graph" transform="scale(1 1) rotate(0) translate(4 394)">
<title>Food</title>
<polygon fill="white" stroke="none" points="-4,4 -4,-394 247.5,-394 247.5,4 -4,4"/>
<!-- Node2 -->
<g id="node1" class="node"><title>Node2</title>
<polygon fill="#bfbfbf" stroke="black" points="9,-0.5 9,-189.5 140,-189.5 140,-0.5 9,-0.5"/>
<text text-anchor="middle" x="74.5" y="-177.5" font-family="Helvetica,sans-Serif" font-size="10.00">Food</text>
<polyline fill="none" stroke="black" points="9,-170.5 140,-170.5 "/>
<text text-anchor="start" x="17" y="-158.5" font-family="Helvetica,sans-Serif" font-size="10.00">+ value</text>
<text text-anchor="start" x="17" y="-147.5" font-family="Helvetica,sans-Serif" font-size="10.00">+ weight</text>
<text text-anchor="start" x="17" y="-136.5" font-family="Helvetica,sans-Serif" font-size="10.00">+ totalStrengthNeeded</text>
<text text-anchor="start" x="17" y="-125.5" font-family="Helvetica,sans-Serif" font-size="10.00">+ curCarryStrength</text>
<text text-anchor="start" x="17" y="-114.5" font-family="Helvetica,sans-Serif" font-size="10.00">+ carrySlots</text>
<text text-anchor="start" x="17" y="-103.5" font-family="Helvetica,sans-Serif" font-size="10.00">+ destReachedEvent</text>
<text text-anchor="start" x="17" y="-92.5" font-family="Helvetica,sans-Serif" font-size="10.00">&#45; carriers</text>
<polyline fill="none" stroke="black" points="9,-85.5 140,-85.5 "/>
<text text-anchor="start" x="17" y="-73.5" font-family="Helvetica,sans-Serif" font-size="10.00">+ ReserveCarry()</text>
<text text-anchor="start" x="17" y="-62.5" font-family="Helvetica,sans-Serif" font-size="10.00">+ PickUp()</text>
<text text-anchor="start" x="17" y="-51.5" font-family="Helvetica,sans-Serif" font-size="10.00">+ Drop()</text>
<text text-anchor="start" x="17" y="-40.5" font-family="Helvetica,sans-Serif" font-size="10.00">+ HasFreeCarrySlot()</text>
<text text-anchor="start" x="17" y="-29.5" font-family="Helvetica,sans-Serif" font-size="10.00">+ IsFirstCarrier()</text>
<text text-anchor="start" x="17" y="-18.5" font-family="Helvetica,sans-Serif" font-size="10.00">+ GetCarrySpeedFactor()</text>
<text text-anchor="start" x="17" y="-7.5" font-family="Helvetica,sans-Serif" font-size="10.00">&#45; UpdateCarryStrengthBy()</text>
</g>
<!-- Node3 -->
<g id="node2" class="node"><title>Node3</title>
<polygon fill="white" stroke="#bfbfbf" points="0,-237.5 0,-294.5 83,-294.5 83,-237.5 0,-237.5"/>
<text text-anchor="middle" x="41.5" y="-282.5" font-family="Helvetica,sans-Serif" font-size="10.00">MonoBehaviour</text>
<polyline fill="none" stroke="#bfbfbf" points="0,-275.5 83,-275.5 "/>
<text text-anchor="middle" x="41.5" y="-263.5" font-family="Helvetica,sans-Serif" font-size="10.00"> </text>
<polyline fill="none" stroke="#bfbfbf" points="0,-256.5 83,-256.5 "/>
<text text-anchor="middle" x="41.5" y="-244.5" font-family="Helvetica,sans-Serif" font-size="10.00"> </text>
</g>
<!-- Node3&#45;&gt;Node2 -->
<g id="edge1" class="edge"><title>Node3&#45;&gt;Node2</title>
<path fill="none" stroke="midnightblue" d="M48.8189,-227.518C51.0433,-216.127 53.5944,-203.062 56.2061,-189.687"/>
<polygon fill="none" stroke="midnightblue" points="45.3569,-226.986 46.8755,-237.471 52.2271,-228.327 45.3569,-226.986"/>
</g>
<!-- Node4 -->
<g id="node3" class="node"><title>Node4</title>
<g id="a_node3"><a xlink:href="class_unity_float_event.html" target="_top" xlink:title="{UnityFloatEvent\n||}">
<polygon fill="white" stroke="black" points="101,-237.5 101,-294.5 186,-294.5 186,-237.5 101,-237.5"/>
<text text-anchor="middle" x="143.5" y="-282.5" font-family="Helvetica,sans-Serif" font-size="10.00">UnityFloatEvent</text>
<polyline fill="none" stroke="black" points="101,-275.5 186,-275.5 "/>
<text text-anchor="middle" x="143.5" y="-263.5" font-family="Helvetica,sans-Serif" font-size="10.00"> </text>
<polyline fill="none" stroke="black" points="101,-256.5 186,-256.5 "/>
<text text-anchor="middle" x="143.5" y="-244.5" font-family="Helvetica,sans-Serif" font-size="10.00"> </text>
</a>
</g>
</g>
<!-- Node4&#45;&gt;Node2 -->
<g id="edge2" class="edge"><title>Node4&#45;&gt;Node2</title>
<path fill="none" stroke="#404040" d="M132.26,-237.471C127.994,-227.022 122.84,-214.397 117.388,-201.044"/>
<polygon fill="none" stroke="#404040" points="117.287,-200.797 111.316,-196.754 112.751,-189.687 118.722,-193.73 117.287,-200.797"/>
<text text-anchor="middle" x="183" y="-211" font-family="Helvetica,sans-Serif" font-size="10.00"> +speedFactorChangeEvent</text>
</g>
<!-- Node5 -->
<g id="node4" class="node"><title>Node5</title>
<polygon fill="white" stroke="#bfbfbf" points="94,-332.5 94,-389.5 193,-389.5 193,-332.5 94,-332.5"/>
<text text-anchor="middle" x="143.5" y="-377.5" font-family="Helvetica,sans-Serif" font-size="10.00">UnityEvent&lt; float &gt;</text>
<polyline fill="none" stroke="#bfbfbf" points="94,-370.5 193,-370.5 "/>
<text text-anchor="middle" x="143.5" y="-358.5" font-family="Helvetica,sans-Serif" font-size="10.00"> </text>
<polyline fill="none" stroke="#bfbfbf" points="94,-351.5 193,-351.5 "/>
<text text-anchor="middle" x="143.5" y="-339.5" font-family="Helvetica,sans-Serif" font-size="10.00"> </text>
</g>
<!-- Node5&#45;&gt;Node4 -->
<g id="edge3" class="edge"><title>Node5&#45;&gt;Node4</title>
<path fill="none" stroke="midnightblue" d="M143.5,-322.235C143.5,-313.028 143.5,-303.346 143.5,-294.705"/>
<polygon fill="none" stroke="midnightblue" points="140,-322.349 143.5,-332.349 147,-322.349 140,-322.349"/>
</g>
</g>
</svg>
