<?xml version="1.0" encoding="UTF-8" standalone="no"?>
<!DOCTYPE svg PUBLIC "-//W3C//DTD SVG 1.1//EN"
 "http://www.w3.org/Graphics/SVG/1.1/DTD/svg11.dtd">
<!-- Generated by graphviz version 2.38.0 (20140413.2041)
 -->
<!-- Title: AutoGatherState Pages: 1 -->
<svg width="175pt" height="419pt"
 viewBox="0.00 0.00 175.00 419.00" xmlns="http://www.w3.org/2000/svg" xmlns:xlink="http://www.w3.org/1999/xlink">
<g id="graph0" class="graph" transform="scale(1 1) rotate(0) translate(4 415)">
<title>AutoGatherState</title>
<polygon fill="white" stroke="none" points="-4,4 -4,-415 171,-415 171,4 -4,4"/>
<!-- Node3 -->
<g id="node1" class="node"><title>Node3</title>
<polygon fill="#bfbfbf" stroke="black" points="31.5,-0.5 31.5,-57.5 135.5,-57.5 135.5,-0.5 31.5,-0.5"/>
<text text-anchor="middle" x="83.5" y="-45.5" font-family="Helvetica,sans-Serif" font-size="10.00">AutoGatherState</text>
<polyline fill="none" stroke="black" points="31.5,-38.5 135.5,-38.5 "/>
<text text-anchor="middle" x="83.5" y="-26.5" font-family="Helvetica,sans-Serif" font-size="10.00"> </text>
<polyline fill="none" stroke="black" points="31.5,-19.5 135.5,-19.5 "/>
<text text-anchor="start" x="39.5" y="-7.5" font-family="Helvetica,sans-Serif" font-size="10.00"># OnMyStateEnter()</text>
</g>
<!-- Node4 -->
<g id="node2" class="node"><title>Node4</title>
<g id="a_node2"><a xlink:href="classmechanics_1_1_unit_ai_base_state.html" target="_top" xlink:title="Offers a base state for Unit AI which can be interrupted by multiple conditions: ">
<polygon fill="white" stroke="black" points="21,-94.5 21,-173.5 146,-173.5 146,-94.5 21,-94.5"/>
<text text-anchor="middle" x="83.5" y="-161.5" font-family="Helvetica,sans-Serif" font-size="10.00">UnitAiBaseState</text>
<polyline fill="none" stroke="black" points="21,-154.5 146,-154.5 "/>
<text text-anchor="start" x="29" y="-142.5" font-family="Helvetica,sans-Serif" font-size="10.00">+ triggerOnBattleStart</text>
<text text-anchor="start" x="29" y="-131.5" font-family="Helvetica,sans-Serif" font-size="10.00">+ triggerOnBattleEnd</text>
<text text-anchor="start" x="29" y="-120.5" font-family="Helvetica,sans-Serif" font-size="10.00">+ triggerOnDmgReceived</text>
<polyline fill="none" stroke="black" points="21,-113.5 146,-113.5 "/>
<text text-anchor="start" x="29" y="-101.5" font-family="Helvetica,sans-Serif" font-size="10.00"># OnMyStateInit()</text>
</a>
</g>
</g>
<!-- Node4&#45;&gt;Node3 -->
<g id="edge1" class="edge"><title>Node4&#45;&gt;Node3</title>
<path fill="none" stroke="midnightblue" d="M83.5,-84.1628C83.5,-75.0404 83.5,-65.8063 83.5,-57.6095"/>
<polygon fill="none" stroke="midnightblue" points="80.0001,-84.3535 83.5,-94.3536 87.0001,-84.3536 80.0001,-84.3535"/>
</g>
<!-- Node5 -->
<g id="node3" class="node"><title>Node5</title>
<g id="a_node3"><a xlink:href="class_base_state.html" target="_top" xlink:title="{BaseState\&lt; UnitAiStateMachine \&gt;\n|+ name\l+ triggers\l# sm\l&#45; listeners\l|+ IsActiveState()\l+ GetName()\l+ GetTriggers()\l+ Init()\l+ OnStateEnter()\l+ OnStateExit()\l# AddAutoListener()\l# TriggerTransition()\l# OnMyStateEnter()\l# OnMyStateExit()\l# OnMyStateInit()\l}">
<polygon fill="white" stroke="black" points="0,-210.5 0,-410.5 167,-410.5 167,-210.5 0,-210.5"/>
<text text-anchor="middle" x="83.5" y="-398.5" font-family="Helvetica,sans-Serif" font-size="10.00">BaseState&lt; UnitAiStateMachine &gt;</text>
<polyline fill="none" stroke="black" points="0,-391.5 167,-391.5 "/>
<text text-anchor="start" x="8" y="-379.5" font-family="Helvetica,sans-Serif" font-size="10.00">+ name</text>
<text text-anchor="start" x="8" y="-368.5" font-family="Helvetica,sans-Serif" font-size="10.00">+ triggers</text>
<text text-anchor="start" x="8" y="-357.5" font-family="Helvetica,sans-Serif" font-size="10.00"># sm</text>
<text text-anchor="start" x="8" y="-346.5" font-family="Helvetica,sans-Serif" font-size="10.00">&#45; listeners</text>
<polyline fill="none" stroke="black" points="0,-339.5 167,-339.5 "/>
<text text-anchor="start" x="8" y="-327.5" font-family="Helvetica,sans-Serif" font-size="10.00">+ IsActiveState()</text>
<text text-anchor="start" x="8" y="-316.5" font-family="Helvetica,sans-Serif" font-size="10.00">+ GetName()</text>
<text text-anchor="start" x="8" y="-305.5" font-family="Helvetica,sans-Serif" font-size="10.00">+ GetTriggers()</text>
<text text-anchor="start" x="8" y="-294.5" font-family="Helvetica,sans-Serif" font-size="10.00">+ Init()</text>
<text text-anchor="start" x="8" y="-283.5" font-family="Helvetica,sans-Serif" font-size="10.00">+ OnStateEnter()</text>
<text text-anchor="start" x="8" y="-272.5" font-family="Helvetica,sans-Serif" font-size="10.00">+ OnStateExit()</text>
<text text-anchor="start" x="8" y="-261.5" font-family="Helvetica,sans-Serif" font-size="10.00"># AddAutoListener()</text>
<text text-anchor="start" x="8" y="-250.5" font-family="Helvetica,sans-Serif" font-size="10.00"># TriggerTransition()</text>
<text text-anchor="start" x="8" y="-239.5" font-family="Helvetica,sans-Serif" font-size="10.00"># OnMyStateEnter()</text>
<text text-anchor="start" x="8" y="-228.5" font-family="Helvetica,sans-Serif" font-size="10.00"># OnMyStateExit()</text>
<text text-anchor="start" x="8" y="-217.5" font-family="Helvetica,sans-Serif" font-size="10.00"># OnMyStateInit()</text>
</a>
</g>
</g>
<!-- Node5&#45;&gt;Node4 -->
<g id="edge2" class="edge"><title>Node5&#45;&gt;Node4</title>
<path fill="none" stroke="midnightblue" d="M83.5,-200.094C83.5,-190.826 83.5,-181.915 83.5,-173.819"/>
<polygon fill="none" stroke="midnightblue" points="80.0001,-200.27 83.5,-210.27 87.0001,-200.27 80.0001,-200.27"/>
</g>
</g>
</svg>
