<?xml version="1.0" encoding="UTF-8" standalone="no"?>
<!DOCTYPE svg PUBLIC "-//W3C//DTD SVG 1.1//EN"
 "http://www.w3.org/Graphics/SVG/1.1/DTD/svg11.dtd">
<!-- Generated by graphviz version 2.38.0 (20140413.2041)
 -->
<!-- Title: State Pages: 1 -->
<svg width="465pt" height="496pt"
 viewBox="0.00 0.00 464.50 496.00" xmlns="http://www.w3.org/2000/svg" xmlns:xlink="http://www.w3.org/1999/xlink">
<g id="graph0" class="graph" transform="scale(1 1) rotate(0) translate(4 492)">
<title>State</title>
<polygon fill="white" stroke="none" points="-4,4 -4,-492 460.5,-492 460.5,4 -4,4"/>
<!-- Node13 -->
<g id="node1" class="node"><title>Node13</title>
<polygon fill="#bfbfbf" stroke="black" points="246.5,-193.5 246.5,-349.5 350.5,-349.5 350.5,-193.5 246.5,-193.5"/>
<text text-anchor="middle" x="298.5" y="-337.5" font-family="Helvetica,sans-Serif" font-size="10.00">State</text>
<polyline fill="none" stroke="black" points="246.5,-330.5 350.5,-330.5 "/>
<text text-anchor="start" x="254.5" y="-318.5" font-family="Helvetica,sans-Serif" font-size="10.00">+ name</text>
<text text-anchor="start" x="254.5" y="-307.5" font-family="Helvetica,sans-Serif" font-size="10.00">+ triggers</text>
<polyline fill="none" stroke="black" points="246.5,-300.5 350.5,-300.5 "/>
<text text-anchor="start" x="254.5" y="-288.5" font-family="Helvetica,sans-Serif" font-size="10.00">+ IsActiveState()</text>
<text text-anchor="start" x="254.5" y="-277.5" font-family="Helvetica,sans-Serif" font-size="10.00">+ Init()</text>
<text text-anchor="start" x="254.5" y="-266.5" font-family="Helvetica,sans-Serif" font-size="10.00">+ OnStateEnter()</text>
<text text-anchor="start" x="254.5" y="-255.5" font-family="Helvetica,sans-Serif" font-size="10.00">+ OnStateExit()</text>
<text text-anchor="start" x="254.5" y="-244.5" font-family="Helvetica,sans-Serif" font-size="10.00"># AddAutoListener()</text>
<text text-anchor="start" x="254.5" y="-233.5" font-family="Helvetica,sans-Serif" font-size="10.00"># TriggerTransition()</text>
<text text-anchor="start" x="254.5" y="-222.5" font-family="Helvetica,sans-Serif" font-size="10.00"># OnMyStateEnter()</text>
<text text-anchor="start" x="254.5" y="-211.5" font-family="Helvetica,sans-Serif" font-size="10.00"># OnMyStateExit()</text>
<text text-anchor="start" x="254.5" y="-200.5" font-family="Helvetica,sans-Serif" font-size="10.00"># OnMyStateInit()</text>
</g>
<!-- Node15 -->
<g id="node3" class="node"><title>Node15</title>
<g id="a_node3"><a xlink:href="class_state_machine.html" target="_top" xlink:title="Common Base class for all state machines. ">
<polygon fill="white" stroke="black" points="128.5,-0.5 128.5,-145.5 258.5,-145.5 258.5,-0.5 128.5,-0.5"/>
<text text-anchor="middle" x="193.5" y="-133.5" font-family="Helvetica,sans-Serif" font-size="10.00">StateMachine</text>
<polyline fill="none" stroke="black" points="128.5,-126.5 258.5,-126.5 "/>
<text text-anchor="start" x="136.5" y="-114.5" font-family="Helvetica,sans-Serif" font-size="10.00">+ logEnabled</text>
<text text-anchor="start" x="136.5" y="-103.5" font-family="Helvetica,sans-Serif" font-size="10.00"># controller</text>
<text text-anchor="start" x="136.5" y="-92.5" font-family="Helvetica,sans-Serif" font-size="10.00">&#45; states</text>
<polyline fill="none" stroke="black" points="128.5,-85.5 258.5,-85.5 "/>
<text text-anchor="start" x="136.5" y="-73.5" font-family="Helvetica,sans-Serif" font-size="10.00">+ GetActiveState()</text>
<text text-anchor="start" x="136.5" y="-62.5" font-family="Helvetica,sans-Serif" font-size="10.00">+ TriggerTransition()</text>
<text text-anchor="start" x="136.5" y="-51.5" font-family="Helvetica,sans-Serif" font-size="10.00">+ TriggerTransition()</text>
<text text-anchor="start" x="136.5" y="-40.5" font-family="Helvetica,sans-Serif" font-size="10.00">+ TriggerTransition()</text>
<text text-anchor="start" x="136.5" y="-29.5" font-family="Helvetica,sans-Serif" font-size="10.00">+ AnnounceCurrentState()</text>
<text text-anchor="start" x="136.5" y="-18.5" font-family="Helvetica,sans-Serif" font-size="10.00"># MyAwake()</text>
<text text-anchor="start" x="136.5" y="-7.5" font-family="Helvetica,sans-Serif" font-size="10.00">&#45; Awake()</text>
</a>
</g>
</g>
<!-- Node13&#45;&gt;Node15 -->
<g id="edge6" class="edge"><title>Node13&#45;&gt;Node15</title>
<path fill="none" stroke="#404040" d="M256.395,-193.414C253.035,-187.19 249.704,-180.994 246.5,-175 243.24,-168.903 239.884,-162.59 236.518,-156.234"/>
<polygon fill="none" stroke="#404040" points="236.467,-156.136 230.127,-152.7 230.86,-145.527 237.2,-148.962 236.467,-156.136"/>
<text text-anchor="middle" x="275" y="-167" font-family="Helvetica,sans-Serif" font-size="10.00"> #activeState</text>
</g>
<!-- Node14 -->
<g id="node2" class="node"><title>Node14</title>
<polygon fill="white" stroke="#bfbfbf" points="231,-414 231,-471 350,-471 350,-414 231,-414"/>
<text text-anchor="middle" x="290.5" y="-459" font-family="Helvetica,sans-Serif" font-size="10.00">StateMachineBehaviour</text>
<polyline fill="none" stroke="#bfbfbf" points="231,-452 350,-452 "/>
<text text-anchor="middle" x="290.5" y="-440" font-family="Helvetica,sans-Serif" font-size="10.00"> </text>
<polyline fill="none" stroke="#bfbfbf" points="231,-433 350,-433 "/>
<text text-anchor="middle" x="290.5" y="-421" font-family="Helvetica,sans-Serif" font-size="10.00"> </text>
</g>
<!-- Node14&#45;&gt;Node13 -->
<g id="edge1" class="edge"><title>Node14&#45;&gt;Node13</title>
<path fill="none" stroke="midnightblue" d="M292.278,-403.936C293.038,-387.878 293.955,-368.508 294.849,-349.632"/>
<polygon fill="none" stroke="midnightblue" points="288.78,-403.817 291.803,-413.971 295.772,-404.148 288.78,-403.817"/>
</g>
<!-- Node15&#45;&gt;Node13 -->
<g id="edge2" class="edge"><title>Node15&#45;&gt;Node13</title>
<path fill="none" stroke="#404040" d="M258.758,-109.775C278.078,-123.925 296.888,-142.102 307.5,-164 310.118,-169.403 311.931,-175.142 313.1,-181.046"/>
<polygon fill="none" stroke="#404040" points="313.149,-181.434 317.866,-186.887 314.647,-193.34 309.929,-187.886 313.149,-181.434"/>
<text text-anchor="middle" x="323.5" y="-167" font-family="Helvetica,sans-Serif" font-size="10.00"> #sm</text>
</g>
<!-- Node16 -->
<g id="node4" class="node"><title>Node16</title>
<polygon fill="white" stroke="#bfbfbf" points="0,-243 0,-300 83,-300 83,-243 0,-243"/>
<text text-anchor="middle" x="41.5" y="-288" font-family="Helvetica,sans-Serif" font-size="10.00">MonoBehaviour</text>
<polyline fill="none" stroke="#bfbfbf" points="0,-281 83,-281 "/>
<text text-anchor="middle" x="41.5" y="-269" font-family="Helvetica,sans-Serif" font-size="10.00"> </text>
<polyline fill="none" stroke="#bfbfbf" points="0,-262 83,-262 "/>
<text text-anchor="middle" x="41.5" y="-250" font-family="Helvetica,sans-Serif" font-size="10.00"> </text>
</g>
<!-- Node16&#45;&gt;Node15 -->
<g id="edge3" class="edge"><title>Node16&#45;&gt;Node15</title>
<path fill="none" stroke="midnightblue" d="M63.5205,-234.148C71.9002,-220.927 81.7779,-206.036 91.5,-193 103.212,-177.295 116.405,-161.011 129.319,-145.716"/>
<polygon fill="none" stroke="midnightblue" points="60.323,-232.66 57.9789,-242.992 66.2547,-236.377 60.323,-232.66"/>
</g>
<!-- Node17 -->
<g id="node5" class="node"><title>Node17</title>
<g id="a_node5"><a xlink:href="class_unity_string_event.html" target="_top" xlink:title="{UnityStringEvent\n||}">
<polygon fill="white" stroke="black" points="101,-243 101,-300 190,-300 190,-243 101,-243"/>
<text text-anchor="middle" x="145.5" y="-288" font-family="Helvetica,sans-Serif" font-size="10.00">UnityStringEvent</text>
<polyline fill="none" stroke="black" points="101,-281 190,-281 "/>
<text text-anchor="middle" x="145.5" y="-269" font-family="Helvetica,sans-Serif" font-size="10.00"> </text>
<polyline fill="none" stroke="black" points="101,-262 190,-262 "/>
<text text-anchor="middle" x="145.5" y="-250" font-family="Helvetica,sans-Serif" font-size="10.00"> </text>
</a>
</g>
</g>
<!-- Node17&#45;&gt;Node15 -->
<g id="edge4" class="edge"><title>Node17&#45;&gt;Node15</title>
<path fill="none" stroke="#404040" d="M138.675,-242.833C134.48,-221.02 131.173,-190.042 138.5,-164 139.151,-161.686 139.88,-159.374 140.677,-157.067"/>
<polygon fill="none" stroke="#404040" points="140.788,-156.785 139.264,-149.737 145.184,-145.62 146.708,-152.668 140.788,-156.785"/>
<text text-anchor="middle" x="183" y="-167" font-family="Helvetica,sans-Serif" font-size="10.00"> +stateEnteredEvent</text>
</g>
<!-- Node18 -->
<g id="node6" class="node"><title>Node18</title>
<polygon fill="white" stroke="#bfbfbf" points="93,-414 93,-471 198,-471 198,-414 93,-414"/>
<text text-anchor="middle" x="145.5" y="-459" font-family="Helvetica,sans-Serif" font-size="10.00">UnityEvent&lt; string &gt;</text>
<polyline fill="none" stroke="#bfbfbf" points="93,-452 198,-452 "/>
<text text-anchor="middle" x="145.5" y="-440" font-family="Helvetica,sans-Serif" font-size="10.00"> </text>
<polyline fill="none" stroke="#bfbfbf" points="93,-433 198,-433 "/>
<text text-anchor="middle" x="145.5" y="-421" font-family="Helvetica,sans-Serif" font-size="10.00"> </text>
</g>
<!-- Node18&#45;&gt;Node17 -->
<g id="edge5" class="edge"><title>Node18&#45;&gt;Node17</title>
<path fill="none" stroke="midnightblue" d="M145.5,-403.828C145.5,-372.367 145.5,-328.248 145.5,-300.017"/>
<polygon fill="none" stroke="midnightblue" points="142,-403.971 145.5,-413.971 149,-403.971 142,-403.971"/>
</g>
<!-- Node19 -->
<g id="node7" class="node"><title>Node19</title>
<g id="a_node7"><a xlink:href="class_listener_group.html" target="_top" xlink:title="Helper class to execute adding and removing on all held Listeners (Events + Callbacks). ">
<polygon fill="white" stroke="black" points="368.5,-397.5 368.5,-487.5 456.5,-487.5 456.5,-397.5 368.5,-397.5"/>
<text text-anchor="middle" x="412.5" y="-475.5" font-family="Helvetica,sans-Serif" font-size="10.00">ListenerGroup</text>
<polyline fill="none" stroke="black" points="368.5,-468.5 456.5,-468.5 "/>
<text text-anchor="start" x="376.5" y="-456.5" font-family="Helvetica,sans-Serif" font-size="10.00">&#45; heldListeners</text>
<polyline fill="none" stroke="black" points="368.5,-449.5 456.5,-449.5 "/>
<text text-anchor="start" x="376.5" y="-437.5" font-family="Helvetica,sans-Serif" font-size="10.00">+ Add()</text>
<text text-anchor="start" x="376.5" y="-426.5" font-family="Helvetica,sans-Serif" font-size="10.00">+ Add()</text>
<text text-anchor="start" x="376.5" y="-415.5" font-family="Helvetica,sans-Serif" font-size="10.00">+ ActivateAll()</text>
<text text-anchor="start" x="376.5" y="-404.5" font-family="Helvetica,sans-Serif" font-size="10.00">+ DeactivateAll()</text>
</a>
</g>
</g>
<!-- Node19&#45;&gt;Node13 -->
<g id="edge7" class="edge"><title>Node19&#45;&gt;Node13</title>
<path fill="none" stroke="#404040" d="M382.548,-397.097C374.792,-385.599 366.166,-372.812 357.479,-359.934"/>
<polygon fill="none" stroke="#404040" points="357.225,-359.557 350.553,-356.82 350.514,-349.609 357.186,-352.346 357.225,-359.557"/>
<text text-anchor="middle" x="391" y="-371" font-family="Helvetica,sans-Serif" font-size="10.00"> &#45;listeners</text>
</g>
</g>
</svg>
