<?xml version="1.0" encoding="UTF-8" standalone="no"?>
<!DOCTYPE svg PUBLIC "-//W3C//DTD SVG 1.1//EN"
 "http://www.w3.org/Graphics/SVG/1.1/DTD/svg11.dtd">
<!-- Generated by graphviz version 2.38.0 (20140413.2041)
 -->
<!-- Title: StateMachine Pages: 1 -->
<svg width="284pt" height="430pt"
 viewBox="0.00 0.00 283.50 430.00" xmlns="http://www.w3.org/2000/svg" xmlns:xlink="http://www.w3.org/1999/xlink">
<g id="graph0" class="graph" transform="scale(1 1) rotate(0) translate(4 426)">
<title>StateMachine</title>
<polygon fill="white" stroke="none" points="-4,4 -4,-426 279.5,-426 279.5,4 -4,4"/>
<!-- Node0 -->
<g id="node1" class="node"><title>Node0</title>
<polygon fill="#bfbfbf" stroke="black" points="81,-160.5 81,-327.5 211,-327.5 211,-160.5 81,-160.5"/>
<text text-anchor="middle" x="146" y="-315.5" font-family="Helvetica,sans-Serif" font-size="10.00">StateMachine</text>
<polyline fill="none" stroke="black" points="81,-308.5 211,-308.5 "/>
<text text-anchor="start" x="89" y="-296.5" font-family="Helvetica,sans-Serif" font-size="10.00">+ logEnabled</text>
<text text-anchor="start" x="89" y="-285.5" font-family="Helvetica,sans-Serif" font-size="10.00">+ stateEnteredEvent</text>
<text text-anchor="start" x="89" y="-274.5" font-family="Helvetica,sans-Serif" font-size="10.00"># activeState</text>
<text text-anchor="start" x="89" y="-263.5" font-family="Helvetica,sans-Serif" font-size="10.00"># controller</text>
<text text-anchor="start" x="89" y="-252.5" font-family="Helvetica,sans-Serif" font-size="10.00">&#45; states</text>
<polyline fill="none" stroke="black" points="81,-245.5 211,-245.5 "/>
<text text-anchor="start" x="89" y="-233.5" font-family="Helvetica,sans-Serif" font-size="10.00">+ GetActiveState()</text>
<text text-anchor="start" x="89" y="-222.5" font-family="Helvetica,sans-Serif" font-size="10.00">+ TriggerTransition()</text>
<text text-anchor="start" x="89" y="-211.5" font-family="Helvetica,sans-Serif" font-size="10.00">+ TriggerTransition()</text>
<text text-anchor="start" x="89" y="-200.5" font-family="Helvetica,sans-Serif" font-size="10.00">+ TriggerTransition()</text>
<text text-anchor="start" x="89" y="-189.5" font-family="Helvetica,sans-Serif" font-size="10.00">+ AnnounceCurrentState()</text>
<text text-anchor="start" x="89" y="-178.5" font-family="Helvetica,sans-Serif" font-size="10.00"># MyAwake()</text>
<text text-anchor="start" x="89" y="-167.5" font-family="Helvetica,sans-Serif" font-size="10.00">&#45; Awake()</text>
</g>
<!-- Node2 -->
<g id="node3" class="node"><title>Node2</title>
<g id="a_node3"><a xlink:href="classmanagement_1_1_game_state_machine.html" target="_top" xlink:title="The GameStateMachine holds the overall program state, transitioning through menu, in&#45;game...">
<polygon fill="white" stroke="black" points="0,-17 0,-107 146,-107 146,-17 0,-17"/>
<text text-anchor="middle" x="73" y="-95" font-family="Helvetica,sans-Serif" font-size="10.00">GameStateMachine</text>
<polyline fill="none" stroke="black" points="0,-88 146,-88 "/>
<text text-anchor="start" x="8" y="-76" font-family="Helvetica,sans-Serif" font-size="10.00">+ transitionEvent</text>
<polyline fill="none" stroke="black" points="0,-69 146,-69 "/>
<text text-anchor="start" x="8" y="-57" font-family="Helvetica,sans-Serif" font-size="10.00">+ MatchStartup()</text>
<text text-anchor="start" x="8" y="-46" font-family="Helvetica,sans-Serif" font-size="10.00">+ GameOver()</text>
<text text-anchor="start" x="8" y="-35" font-family="Helvetica,sans-Serif" font-size="10.00"># MyAwake()</text>
<text text-anchor="start" x="8" y="-24" font-family="Helvetica,sans-Serif" font-size="10.00">&#45; TriggerNetworkedTransition()</text>
</a>
</g>
</g>
<!-- Node0&#45;&gt;Node2 -->
<g id="edge2" class="edge"><title>Node0&#45;&gt;Node2</title>
<path fill="none" stroke="midnightblue" d="M108.656,-150.919C102.493,-135.723 96.3627,-120.607 90.9674,-107.303"/>
<polygon fill="none" stroke="midnightblue" points="105.489,-152.424 112.491,-160.375 111.976,-149.793 105.489,-152.424"/>
</g>
<!-- Node3 -->
<g id="node4" class="node"><title>Node3</title>
<g id="a_node4"><a xlink:href="classnet_1_1_net_state_machine.html" target="_top" xlink:title="{NetStateMachine\n|+ netOverlayPrefab\l&#45; netOverlayInstance\l|+ IsMaster()\l+ GetCurStateName()\l+ GetNetOverlay()\l+ HideNetOverlay()\l# MyAwake()\l&#45; OnDisconnect()\l}">
<polygon fill="white" stroke="black" points="164.5,-0.5 164.5,-123.5 275.5,-123.5 275.5,-0.5 164.5,-0.5"/>
<text text-anchor="middle" x="220" y="-111.5" font-family="Helvetica,sans-Serif" font-size="10.00">NetStateMachine</text>
<polyline fill="none" stroke="black" points="164.5,-104.5 275.5,-104.5 "/>
<text text-anchor="start" x="172.5" y="-92.5" font-family="Helvetica,sans-Serif" font-size="10.00">+ netOverlayPrefab</text>
<text text-anchor="start" x="172.5" y="-81.5" font-family="Helvetica,sans-Serif" font-size="10.00">&#45; netOverlayInstance</text>
<polyline fill="none" stroke="black" points="164.5,-74.5 275.5,-74.5 "/>
<text text-anchor="start" x="172.5" y="-62.5" font-family="Helvetica,sans-Serif" font-size="10.00">+ IsMaster()</text>
<text text-anchor="start" x="172.5" y="-51.5" font-family="Helvetica,sans-Serif" font-size="10.00">+ GetCurStateName()</text>
<text text-anchor="start" x="172.5" y="-40.5" font-family="Helvetica,sans-Serif" font-size="10.00">+ GetNetOverlay()</text>
<text text-anchor="start" x="172.5" y="-29.5" font-family="Helvetica,sans-Serif" font-size="10.00">+ HideNetOverlay()</text>
<text text-anchor="start" x="172.5" y="-18.5" font-family="Helvetica,sans-Serif" font-size="10.00"># MyAwake()</text>
<text text-anchor="start" x="172.5" y="-7.5" font-family="Helvetica,sans-Serif" font-size="10.00">&#45; OnDisconnect()</text>
</a>
</g>
</g>
<!-- Node0&#45;&gt;Node3 -->
<g id="edge3" class="edge"><title>Node0&#45;&gt;Node3</title>
<path fill="none" stroke="midnightblue" d="M183.795,-151.067C187.624,-141.753 191.442,-132.466 195.084,-123.607"/>
<polygon fill="none" stroke="midnightblue" points="180.533,-149.796 179.968,-160.375 187.007,-152.457 180.533,-149.796"/>
</g>
<!-- Node1 -->
<g id="node2" class="node"><title>Node1</title>
<polygon fill="white" stroke="#bfbfbf" points="104.5,-364.5 104.5,-421.5 187.5,-421.5 187.5,-364.5 104.5,-364.5"/>
<text text-anchor="middle" x="146" y="-409.5" font-family="Helvetica,sans-Serif" font-size="10.00">MonoBehaviour</text>
<polyline fill="none" stroke="#bfbfbf" points="104.5,-402.5 187.5,-402.5 "/>
<text text-anchor="middle" x="146" y="-390.5" font-family="Helvetica,sans-Serif" font-size="10.00"> </text>
<polyline fill="none" stroke="#bfbfbf" points="104.5,-383.5 187.5,-383.5 "/>
<text text-anchor="middle" x="146" y="-371.5" font-family="Helvetica,sans-Serif" font-size="10.00"> </text>
</g>
<!-- Node1&#45;&gt;Node0 -->
<g id="edge1" class="edge"><title>Node1&#45;&gt;Node0</title>
<path fill="none" stroke="midnightblue" d="M146,-354.35C146,-346.08 146,-337.008 146,-327.738"/>
<polygon fill="none" stroke="midnightblue" points="142.5,-354.35 146,-364.35 149.5,-354.35 142.5,-354.35"/>
</g>
</g>
</svg>
