<?xml version="1.0" encoding="UTF-8" standalone="no"?>
<!DOCTYPE svg PUBLIC "-//W3C//DTD SVG 1.1//EN"
 "http://www.w3.org/Graphics/SVG/1.1/DTD/svg11.dtd">
<!-- Generated by graphviz version 2.38.0 (20140413.2041)
 -->
<!-- Title: State Pages: 1 -->
<svg width="1117pt" height="612pt"
 viewBox="0.00 0.00 1117.00 612.00" xmlns="http://www.w3.org/2000/svg" xmlns:xlink="http://www.w3.org/1999/xlink">
<g id="graph0" class="graph" transform="scale(1 1) rotate(0) translate(4 608)">
<title>State</title>
<polygon fill="white" stroke="none" points="-4,4 -4,-608 1113,-608 1113,4 -4,4"/>
<!-- Node0 -->
<g id="node1" class="node"><title>Node0</title>
<polygon fill="#bfbfbf" stroke="black" points="360,-309.5 360,-366.5 400,-366.5 400,-309.5 360,-309.5"/>
<text text-anchor="middle" x="380" y="-354.5" font-family="Helvetica,sans-Serif" font-size="10.00">State</text>
<polyline fill="none" stroke="black" points="360,-347.5 400,-347.5 "/>
<text text-anchor="middle" x="380" y="-335.5" font-family="Helvetica,sans-Serif" font-size="10.00"> </text>
<polyline fill="none" stroke="black" points="360,-328.5 400,-328.5 "/>
<text text-anchor="middle" x="380" y="-316.5" font-family="Helvetica,sans-Serif" font-size="10.00"> </text>
</g>
<!-- Node2 -->
<g id="node3" class="node"><title>Node2</title>
<g id="a_node3"><a xlink:href="class_command_behaviour.html" target="_top" xlink:title="A generic behaviour to trigger an event when entered. ">
<polygon fill="white" stroke="black" points="0,-182.5 0,-239.5 104,-239.5 104,-182.5 0,-182.5"/>
<text text-anchor="middle" x="52" y="-227.5" font-family="Helvetica,sans-Serif" font-size="10.00">CommandBehaviour</text>
<polyline fill="none" stroke="black" points="0,-220.5 104,-220.5 "/>
<text text-anchor="start" x="8" y="-208.5" font-family="Helvetica,sans-Serif" font-size="10.00">+ command</text>
<polyline fill="none" stroke="black" points="0,-201.5 104,-201.5 "/>
<text text-anchor="start" x="8" y="-189.5" font-family="Helvetica,sans-Serif" font-size="10.00"># OnMyStateEnter()</text>
</a>
</g>
</g>
<!-- Node0&#45;&gt;Node2 -->
<g id="edge2" class="edge"><title>Node0&#45;&gt;Node2</title>
<path fill="none" stroke="midnightblue" d="M349.758,-335.093C298.14,-330.718 191.051,-316.693 113,-273 98.1018,-264.66 84.3758,-251.651 73.7324,-239.786"/>
<polygon fill="none" stroke="midnightblue" points="349.657,-338.596 359.9,-335.888 350.204,-331.618 349.657,-338.596"/>
</g>
<!-- Node3 -->
<g id="node4" class="node"><title>Node3</title>
<g id="a_node4"><a xlink:href="classmanagement_1_1_game_over_state.html" target="_top" xlink:title="Behaviour to trigger transition to main menu state upon receiving the corresponding event...">
<polygon fill="white" stroke="black" points="122.5,-171.5 122.5,-250.5 241.5,-250.5 241.5,-171.5 122.5,-171.5"/>
<text text-anchor="middle" x="182" y="-238.5" font-family="Helvetica,sans-Serif" font-size="10.00">GameOverState</text>
<polyline fill="none" stroke="black" points="122.5,-231.5 241.5,-231.5 "/>
<text text-anchor="middle" x="182" y="-219.5" font-family="Helvetica,sans-Serif" font-size="10.00"> </text>
<polyline fill="none" stroke="black" points="122.5,-212.5 241.5,-212.5 "/>
<text text-anchor="start" x="130.5" y="-200.5" font-family="Helvetica,sans-Serif" font-size="10.00"># OnMyStateEnter()</text>
<text text-anchor="start" x="130.5" y="-189.5" font-family="Helvetica,sans-Serif" font-size="10.00"># OnMyStateExit()</text>
<text text-anchor="start" x="130.5" y="-178.5" font-family="Helvetica,sans-Serif" font-size="10.00">&#45; OnBackToMainMenu()</text>
</a>
</g>
</g>
<!-- Node0&#45;&gt;Node3 -->
<g id="edge3" class="edge"><title>Node0&#45;&gt;Node3</title>
<path fill="none" stroke="midnightblue" d="M350.603,-325.069C323.644,-313.523 283.145,-294.627 251,-273 241.183,-266.395 231.276,-258.512 222.151,-250.641"/>
<polygon fill="none" stroke="midnightblue" points="349.308,-328.321 359.882,-328.982 352.028,-321.871 349.308,-328.321"/>
</g>
<!-- Node4 -->
<g id="node5" class="node"><title>Node4</title>
<g id="a_node5"><a xlink:href="classmanagement_1_1_main_menu_state.html" target="_top" xlink:title="Triggers the Main Menu Scene and UI upon entering. ">
<polygon fill="white" stroke="black" points="260,-182.5 260,-239.5 364,-239.5 364,-182.5 260,-182.5"/>
<text text-anchor="middle" x="312" y="-227.5" font-family="Helvetica,sans-Serif" font-size="10.00">MainMenuState</text>
<polyline fill="none" stroke="black" points="260,-220.5 364,-220.5 "/>
<text text-anchor="middle" x="312" y="-208.5" font-family="Helvetica,sans-Serif" font-size="10.00"> </text>
<polyline fill="none" stroke="black" points="260,-201.5 364,-201.5 "/>
<text text-anchor="start" x="268" y="-189.5" font-family="Helvetica,sans-Serif" font-size="10.00"># OnMyStateEnter()</text>
</a>
</g>
</g>
<!-- Node0&#45;&gt;Node4 -->
<g id="edge4" class="edge"><title>Node0&#45;&gt;Node4</title>
<path fill="none" stroke="midnightblue" d="M360.08,-300.382C349.524,-280.977 336.769,-257.53 327.049,-239.664"/>
<polygon fill="none" stroke="midnightblue" points="357.055,-302.147 364.909,-309.258 363.204,-298.802 357.055,-302.147"/>
</g>
<!-- Node5 -->
<g id="node6" class="node"><title>Node5</title>
<g id="a_node6"><a xlink:href="classmanagement_1_1_match_init_state.html" target="_top" xlink:title="During Match Init every client is expected to load and player instances are created. ">
<polygon fill="white" stroke="black" points="382,-155 382,-267 516,-267 516,-155 382,-155"/>
<text text-anchor="middle" x="449" y="-255" font-family="Helvetica,sans-Serif" font-size="10.00">MatchInitState</text>
<polyline fill="none" stroke="black" points="382,-248 516,-248 "/>
<text text-anchor="start" x="390" y="-236" font-family="Helvetica,sans-Serif" font-size="10.00">+ initCountdown</text>
<text text-anchor="start" x="390" y="-225" font-family="Helvetica,sans-Serif" font-size="10.00">+ playerPrefab</text>
<text text-anchor="start" x="390" y="-214" font-family="Helvetica,sans-Serif" font-size="10.00">+ homeBasePrefab</text>
<polyline fill="none" stroke="black" points="382,-207 516,-207 "/>
<text text-anchor="start" x="390" y="-195" font-family="Helvetica,sans-Serif" font-size="10.00"># OnMyStateEnter()</text>
<text text-anchor="start" x="390" y="-184" font-family="Helvetica,sans-Serif" font-size="10.00"># OnMyStateExit()</text>
<text text-anchor="start" x="390" y="-173" font-family="Helvetica,sans-Serif" font-size="10.00">&#45; OnAllFinishedLoading()</text>
<text text-anchor="start" x="390" y="-162" font-family="Helvetica,sans-Serif" font-size="10.00">&#45; OnSpawnIndexAssigned()</text>
</a>
</g>
</g>
<!-- Node0&#45;&gt;Node5 -->
<g id="edge5" class="edge"><title>Node0&#45;&gt;Node5</title>
<path fill="none" stroke="midnightblue" d="M400.19,-300.424C405.953,-289.984 412.363,-278.371 418.593,-267.085"/>
<polygon fill="none" stroke="midnightblue" points="397.082,-298.812 395.313,-309.258 403.21,-302.195 397.082,-298.812"/>
</g>
<!-- Node6 -->
<g id="node7" class="node"><title>Node6</title>
<g id="a_node7"><a xlink:href="classmanagement_1_1_startup_state.html" target="_top" xlink:title="During the startup the managers can prepare a stable state. ">
<polygon fill="white" stroke="black" points="534,-166 534,-256 682,-256 682,-166 534,-166"/>
<text text-anchor="middle" x="608" y="-244" font-family="Helvetica,sans-Serif" font-size="10.00">StartupState</text>
<polyline fill="none" stroke="black" points="534,-237 682,-237 "/>
<text text-anchor="start" x="542" y="-225" font-family="Helvetica,sans-Serif" font-size="10.00">+ remainDurAfterStartupFinish</text>
<text text-anchor="start" x="542" y="-214" font-family="Helvetica,sans-Serif" font-size="10.00">+ netStateEnteredEvent</text>
<polyline fill="none" stroke="black" points="534,-207 682,-207 "/>
<text text-anchor="start" x="542" y="-195" font-family="Helvetica,sans-Serif" font-size="10.00"># OnMyStateEnter()</text>
<text text-anchor="start" x="542" y="-184" font-family="Helvetica,sans-Serif" font-size="10.00"># OnMyStateExit()</text>
<text text-anchor="start" x="542" y="-173" font-family="Helvetica,sans-Serif" font-size="10.00">&#45; OnNetSmStateEntered()</text>
</a>
</g>
</g>
<!-- Node0&#45;&gt;Node6 -->
<g id="edge6" class="edge"><title>Node0&#45;&gt;Node6</title>
<path fill="none" stroke="midnightblue" d="M409.848,-326.038C439.828,-314.523 486.915,-295.046 525,-273 533.822,-267.893 542.83,-262.037 551.504,-256.017"/>
<polygon fill="none" stroke="midnightblue" points="408.484,-322.812 400.374,-329.63 410.966,-329.357 408.484,-322.812"/>
</g>
<!-- Node7 -->
<g id="node8" class="node"><title>Node7</title>
<g id="a_node8"><a xlink:href="classnet_1_1_net_overlay_state.html" target="_top" xlink:title="{NetOverlayState\n|# netOverlayRef\l# netSM\l&#45; minVisibleTime\l&#45; timestampOfStateEntered\l|# TriggerTransitionWithMin\lVisibleTime()\l# OnOverlayStateEnter()\l# OnMyStateEnter()\l}">
<polygon fill="white" stroke="black" points="700.5,-149.5 700.5,-272.5 835.5,-272.5 835.5,-149.5 700.5,-149.5"/>
<text text-anchor="middle" x="768" y="-260.5" font-family="Helvetica,sans-Serif" font-size="10.00">NetOverlayState</text>
<polyline fill="none" stroke="black" points="700.5,-253.5 835.5,-253.5 "/>
<text text-anchor="start" x="708.5" y="-241.5" font-family="Helvetica,sans-Serif" font-size="10.00"># netOverlayRef</text>
<text text-anchor="start" x="708.5" y="-230.5" font-family="Helvetica,sans-Serif" font-size="10.00"># netSM</text>
<text text-anchor="start" x="708.5" y="-219.5" font-family="Helvetica,sans-Serif" font-size="10.00">&#45; minVisibleTime</text>
<text text-anchor="start" x="708.5" y="-208.5" font-family="Helvetica,sans-Serif" font-size="10.00">&#45; timestampOfStateEntered</text>
<polyline fill="none" stroke="black" points="700.5,-201.5 835.5,-201.5 "/>
<text text-anchor="start" x="708.5" y="-189.5" font-family="Helvetica,sans-Serif" font-size="10.00"># TriggerTransitionWithMin</text>
<text text-anchor="start" x="708.5" y="-178.5" font-family="Helvetica,sans-Serif" font-size="10.00">VisibleTime()</text>
<text text-anchor="start" x="708.5" y="-167.5" font-family="Helvetica,sans-Serif" font-size="10.00"># OnOverlayStateEnter()</text>
<text text-anchor="start" x="708.5" y="-156.5" font-family="Helvetica,sans-Serif" font-size="10.00"># OnMyStateEnter()</text>
</a>
</g>
</g>
<!-- Node0&#45;&gt;Node7 -->
<g id="edge7" class="edge"><title>Node0&#45;&gt;Node7</title>
<path fill="none" stroke="midnightblue" d="M410.503,-335.397C467.948,-331.388 595.024,-317.77 691,-273 694.091,-271.558 697.169,-269.969 700.218,-268.265"/>
<polygon fill="none" stroke="midnightblue" points="410.044,-331.919 400.291,-336.058 410.496,-338.904 410.044,-331.919"/>
</g>
<!-- Node1 -->
<g id="node2" class="node"><title>Node1</title>
<g id="a_node2"><a xlink:href="class_base_state.html" target="_top" xlink:title="{BaseState\&lt; StateMachine \&gt;\n|+ name\l+ triggers\l# sm\l&#45; listeners\l|+ IsActiveState()\l+ GetName()\l+ GetTriggers()\l+ Init()\l+ OnStateEnter()\l+ OnStateExit()\l# AddAutoListener()\l# TriggerTransition()\l# OnMyStateEnter()\l# OnMyStateExit()\l# OnMyStateInit()\l}">
<polygon fill="white" stroke="black" points="310,-403.5 310,-603.5 450,-603.5 450,-403.5 310,-403.5"/>
<text text-anchor="middle" x="380" y="-591.5" font-family="Helvetica,sans-Serif" font-size="10.00">BaseState&lt; StateMachine &gt;</text>
<polyline fill="none" stroke="black" points="310,-584.5 450,-584.5 "/>
<text text-anchor="start" x="318" y="-572.5" font-family="Helvetica,sans-Serif" font-size="10.00">+ name</text>
<text text-anchor="start" x="318" y="-561.5" font-family="Helvetica,sans-Serif" font-size="10.00">+ triggers</text>
<text text-anchor="start" x="318" y="-550.5" font-family="Helvetica,sans-Serif" font-size="10.00"># sm</text>
<text text-anchor="start" x="318" y="-539.5" font-family="Helvetica,sans-Serif" font-size="10.00">&#45; listeners</text>
<polyline fill="none" stroke="black" points="310,-532.5 450,-532.5 "/>
<text text-anchor="start" x="318" y="-520.5" font-family="Helvetica,sans-Serif" font-size="10.00">+ IsActiveState()</text>
<text text-anchor="start" x="318" y="-509.5" font-family="Helvetica,sans-Serif" font-size="10.00">+ GetName()</text>
<text text-anchor="start" x="318" y="-498.5" font-family="Helvetica,sans-Serif" font-size="10.00">+ GetTriggers()</text>
<text text-anchor="start" x="318" y="-487.5" font-family="Helvetica,sans-Serif" font-size="10.00">+ Init()</text>
<text text-anchor="start" x="318" y="-476.5" font-family="Helvetica,sans-Serif" font-size="10.00">+ OnStateEnter()</text>
<text text-anchor="start" x="318" y="-465.5" font-family="Helvetica,sans-Serif" font-size="10.00">+ OnStateExit()</text>
<text text-anchor="start" x="318" y="-454.5" font-family="Helvetica,sans-Serif" font-size="10.00"># AddAutoListener()</text>
<text text-anchor="start" x="318" y="-443.5" font-family="Helvetica,sans-Serif" font-size="10.00"># TriggerTransition()</text>
<text text-anchor="start" x="318" y="-432.5" font-family="Helvetica,sans-Serif" font-size="10.00"># OnMyStateEnter()</text>
<text text-anchor="start" x="318" y="-421.5" font-family="Helvetica,sans-Serif" font-size="10.00"># OnMyStateExit()</text>
<text text-anchor="start" x="318" y="-410.5" font-family="Helvetica,sans-Serif" font-size="10.00"># OnMyStateInit()</text>
</a>
</g>
</g>
<!-- Node1&#45;&gt;Node0 -->
<g id="edge1" class="edge"><title>Node1&#45;&gt;Node0</title>
<path fill="none" stroke="midnightblue" d="M380,-392.964C380,-383.366 380,-374.348 380,-366.533"/>
<polygon fill="none" stroke="midnightblue" points="376.5,-393.15 380,-403.15 383.5,-393.15 376.5,-393.15"/>
</g>
<!-- Node8 -->
<g id="node9" class="node"><title>Node8</title>
<g id="a_node9"><a xlink:href="classnet_1_1_connect_to_master_state.html" target="_top" xlink:title="This state is responsible for doing the first step to hosting: connecting to the Photon Master Server...">
<polygon fill="white" stroke="black" points="421,-17 421,-96 549,-96 549,-17 421,-17"/>
<text text-anchor="middle" x="485" y="-84" font-family="Helvetica,sans-Serif" font-size="10.00">ConnectToMasterState</text>
<polyline fill="none" stroke="black" points="421,-77 549,-77 "/>
<text text-anchor="middle" x="485" y="-65" font-family="Helvetica,sans-Serif" font-size="10.00"> </text>
<polyline fill="none" stroke="black" points="421,-58 549,-58 "/>
<text text-anchor="start" x="429" y="-46" font-family="Helvetica,sans-Serif" font-size="10.00"># OnMyStateInit()</text>
<text text-anchor="start" x="429" y="-35" font-family="Helvetica,sans-Serif" font-size="10.00"># OnOverlayStateEnter()</text>
<text text-anchor="start" x="429" y="-24" font-family="Helvetica,sans-Serif" font-size="10.00">&#45; OnConnectedToMaster()</text>
</a>
</g>
</g>
<!-- Node7&#45;&gt;Node8 -->
<g id="edge8" class="edge"><title>Node7&#45;&gt;Node8</title>
<path fill="none" stroke="midnightblue" d="M691.285,-149.144C691.19,-149.096 691.095,-149.048 691,-149 636.323,-121.421 612.949,-140.032 558,-113 548.572,-108.362 539.153,-102.426 530.365,-96.1703"/>
<polygon fill="none" stroke="midnightblue" points="689.649,-152.239 700.101,-153.975 693.013,-146.1 689.649,-152.239"/>
</g>
<!-- Node9 -->
<g id="node10" class="node"><title>Node9</title>
<g id="a_node10"><a xlink:href="classnet_1_1_disconnected_state.html" target="_top" xlink:title="This network behaviour is reached during startup and whenever a disconnect occurs for whatever reason...">
<polygon fill="white" stroke="black" points="567,-22.5 567,-90.5 689,-90.5 689,-22.5 567,-22.5"/>
<text text-anchor="middle" x="628" y="-78.5" font-family="Helvetica,sans-Serif" font-size="10.00">DisconnectedState</text>
<polyline fill="none" stroke="black" points="567,-71.5 689,-71.5 "/>
<text text-anchor="middle" x="628" y="-59.5" font-family="Helvetica,sans-Serif" font-size="10.00"> </text>
<polyline fill="none" stroke="black" points="567,-52.5 689,-52.5 "/>
<text text-anchor="start" x="575" y="-40.5" font-family="Helvetica,sans-Serif" font-size="10.00"># OnMyStateInit()</text>
<text text-anchor="start" x="575" y="-29.5" font-family="Helvetica,sans-Serif" font-size="10.00"># OnOverlayStateEnter()</text>
</a>
</g>
</g>
<!-- Node7&#45;&gt;Node9 -->
<g id="edge9" class="edge"><title>Node7&#45;&gt;Node9</title>
<path fill="none" stroke="midnightblue" d="M705.35,-141.756C689.112,-124.068 672.341,-105.8 658.583,-90.8136"/>
<polygon fill="none" stroke="midnightblue" points="702.925,-144.29 712.266,-149.29 708.082,-139.556 702.925,-144.29"/>
</g>
<!-- Node10 -->
<g id="node11" class="node"><title>Node10</title>
<g id="a_node11"><a xlink:href="classnet_1_1_host_new_room_state.html" target="_top" xlink:title="Responsible for creating and hosting a new room once connected to Master. ">
<polygon fill="white" stroke="black" points="707,-0.5 707,-112.5 829,-112.5 829,-0.5 707,-0.5"/>
<text text-anchor="middle" x="768" y="-100.5" font-family="Helvetica,sans-Serif" font-size="10.00">HostNewRoomState</text>
<polyline fill="none" stroke="black" points="707,-93.5 829,-93.5 "/>
<text text-anchor="start" x="715" y="-81.5" font-family="Helvetica,sans-Serif" font-size="10.00">+ mainPlayer</text>
<text text-anchor="start" x="715" y="-70.5" font-family="Helvetica,sans-Serif" font-size="10.00">&#45; numTries</text>
<polyline fill="none" stroke="black" points="707,-63.5 829,-63.5 "/>
<text text-anchor="start" x="715" y="-51.5" font-family="Helvetica,sans-Serif" font-size="10.00"># OnMyStateInit()</text>
<text text-anchor="start" x="715" y="-40.5" font-family="Helvetica,sans-Serif" font-size="10.00"># OnOverlayStateEnter()</text>
<text text-anchor="start" x="715" y="-29.5" font-family="Helvetica,sans-Serif" font-size="10.00">&#45; GetRoomName()</text>
<text text-anchor="start" x="715" y="-18.5" font-family="Helvetica,sans-Serif" font-size="10.00">&#45; OnHosting()</text>
<text text-anchor="start" x="715" y="-7.5" font-family="Helvetica,sans-Serif" font-size="10.00">&#45; OnHostingFailed()</text>
</a>
</g>
</g>
<!-- Node7&#45;&gt;Node10 -->
<g id="edge10" class="edge"><title>Node7&#45;&gt;Node10</title>
<path fill="none" stroke="midnightblue" d="M768,-139.246C768,-130.288 768,-121.228 768,-112.564"/>
<polygon fill="none" stroke="midnightblue" points="764.5,-139.29 768,-149.29 771.5,-139.29 764.5,-139.29"/>
</g>
<!-- Node11 -->
<g id="node12" class="node"><title>Node11</title>
<g id="a_node12"><a xlink:href="classnet_1_1_join_room_state.html" target="_top" xlink:title="State for joining an existing room. Needs to be connected to the Master Server of course...">
<polygon fill="white" stroke="black" points="847,-6 847,-107 969,-107 969,-6 847,-6"/>
<text text-anchor="middle" x="908" y="-95" font-family="Helvetica,sans-Serif" font-size="10.00">JoinRoomState</text>
<polyline fill="none" stroke="black" points="847,-88 969,-88 "/>
<text text-anchor="middle" x="908" y="-76" font-family="Helvetica,sans-Serif" font-size="10.00"> </text>
<polyline fill="none" stroke="black" points="847,-69 969,-69 "/>
<text text-anchor="start" x="855" y="-57" font-family="Helvetica,sans-Serif" font-size="10.00"># OnMyStateInit()</text>
<text text-anchor="start" x="855" y="-46" font-family="Helvetica,sans-Serif" font-size="10.00"># OnOverlayStateEnter()</text>
<text text-anchor="start" x="855" y="-35" font-family="Helvetica,sans-Serif" font-size="10.00">&#45; OnJoinedRoom()</text>
<text text-anchor="start" x="855" y="-24" font-family="Helvetica,sans-Serif" font-size="10.00">&#45; OnJoinedRoomFailed()</text>
<text text-anchor="start" x="855" y="-13" font-family="Helvetica,sans-Serif" font-size="10.00">&#45; OnCancelBtnPressed()</text>
</a>
</g>
</g>
<!-- Node7&#45;&gt;Node11 -->
<g id="edge11" class="edge"><title>Node7&#45;&gt;Node11</title>
<path fill="none" stroke="midnightblue" d="M830.694,-141.709C841.35,-130.101 852.235,-118.244 862.346,-107.23"/>
<polygon fill="none" stroke="midnightblue" points="827.918,-139.556 823.734,-149.29 833.075,-144.29 827.918,-139.556"/>
</g>
<!-- Node12 -->
<g id="node13" class="node"><title>Node12</title>
<g id="a_node13"><a xlink:href="classnet_1_1_leave_room_state.html" target="_top" xlink:title="A base behaviour to initialize and return the state&#39;s name. ">
<polygon fill="white" stroke="black" points="987,-22.5 987,-90.5 1109,-90.5 1109,-22.5 987,-22.5"/>
<text text-anchor="middle" x="1048" y="-78.5" font-family="Helvetica,sans-Serif" font-size="10.00">LeaveRoomState</text>
<polyline fill="none" stroke="black" points="987,-71.5 1109,-71.5 "/>
<text text-anchor="middle" x="1048" y="-59.5" font-family="Helvetica,sans-Serif" font-size="10.00"> </text>
<polyline fill="none" stroke="black" points="987,-52.5 1109,-52.5 "/>
<text text-anchor="start" x="995" y="-40.5" font-family="Helvetica,sans-Serif" font-size="10.00"># OnMyStateInit()</text>
<text text-anchor="start" x="995" y="-29.5" font-family="Helvetica,sans-Serif" font-size="10.00"># OnOverlayStateEnter()</text>
</a>
</g>
</g>
<!-- Node7&#45;&gt;Node12 -->
<g id="edge12" class="edge"><title>Node7&#45;&gt;Node12</title>
<path fill="none" stroke="midnightblue" d="M845.157,-179.587C885.867,-162.259 935.954,-138.868 978,-113 988.7,-106.417 999.636,-98.444 1009.59,-90.619"/>
<polygon fill="none" stroke="midnightblue" points="843.676,-176.413 835.822,-183.524 846.396,-182.863 843.676,-176.413"/>
</g>
</g>
</svg>
