<?xml version="1.0" encoding="UTF-8" standalone="no"?>
<!DOCTYPE svg PUBLIC "-//W3C//DTD SVG 1.1//EN"
 "http://www.w3.org/Graphics/SVG/1.1/DTD/svg11.dtd">
<!-- Generated by graphviz version 2.38.0 (20140413.2041)
 -->
<!-- Title: RandomTransitionState Pages: 1 -->
<svg width="127pt" height="204pt"
 viewBox="0.00 0.00 127.00 204.00" xmlns="http://www.w3.org/2000/svg" xmlns:xlink="http://www.w3.org/1999/xlink">
<g id="graph0" class="graph" transform="scale(1 1) rotate(0) translate(4 200)">
<title>RandomTransitionState</title>
<polygon fill="white" stroke="none" points="-4,4 -4,-200 123,-200 123,4 -4,4"/>
<!-- Node0 -->
<g id="node1" class="node"><title>Node0</title>
<polygon fill="#bfbfbf" stroke="black" points="0.5,-0.5 0.5,-101.5 118.5,-101.5 118.5,-0.5 0.5,-0.5"/>
<text text-anchor="middle" x="59.5" y="-89.5" font-family="Helvetica,sans-Serif" font-size="10.00">RandomTransitionState</text>
<polyline fill="none" stroke="black" points="0.5,-82.5 118.5,-82.5 "/>
<text text-anchor="start" x="8.5" y="-70.5" font-family="Helvetica,sans-Serif" font-size="10.00">+ minWait</text>
<text text-anchor="start" x="8.5" y="-59.5" font-family="Helvetica,sans-Serif" font-size="10.00">+ transitions</text>
<text text-anchor="start" x="8.5" y="-48.5" font-family="Helvetica,sans-Serif" font-size="10.00">&#45; maxWait</text>
<text text-anchor="start" x="8.5" y="-37.5" font-family="Helvetica,sans-Serif" font-size="10.00">&#45; transCountdown</text>
<polyline fill="none" stroke="black" points="0.5,-30.5 118.5,-30.5 "/>
<text text-anchor="start" x="8.5" y="-18.5" font-family="Helvetica,sans-Serif" font-size="10.00">+ OnStateEnter()</text>
<text text-anchor="start" x="8.5" y="-7.5" font-family="Helvetica,sans-Serif" font-size="10.00">+ OnStateUpdate()</text>
</g>
<!-- Node1 -->
<g id="node2" class="node"><title>Node1</title>
<polygon fill="white" stroke="#bfbfbf" points="0,-138.5 0,-195.5 119,-195.5 119,-138.5 0,-138.5"/>
<text text-anchor="middle" x="59.5" y="-183.5" font-family="Helvetica,sans-Serif" font-size="10.00">StateMachineBehaviour</text>
<polyline fill="none" stroke="#bfbfbf" points="0,-176.5 119,-176.5 "/>
<text text-anchor="middle" x="59.5" y="-164.5" font-family="Helvetica,sans-Serif" font-size="10.00"> </text>
<polyline fill="none" stroke="#bfbfbf" points="0,-157.5 119,-157.5 "/>
<text text-anchor="middle" x="59.5" y="-145.5" font-family="Helvetica,sans-Serif" font-size="10.00"> </text>
</g>
<!-- Node1&#45;&gt;Node0 -->
<g id="edge1" class="edge"><title>Node1&#45;&gt;Node0</title>
<path fill="none" stroke="midnightblue" d="M59.5,-128.354C59.5,-119.796 59.5,-110.578 59.5,-101.608"/>
<polygon fill="none" stroke="midnightblue" points="56.0001,-128.404 59.5,-138.404 63.0001,-128.404 56.0001,-128.404"/>
</g>
</g>
</svg>
