<?xml version="1.0" encoding="UTF-8" standalone="no"?>
<!DOCTYPE svg PUBLIC "-//W3C//DTD SVG 1.1//EN"
 "http://www.w3.org/Graphics/SVG/1.1/DTD/svg11.dtd">
<!-- Generated by graphviz version 2.38.0 (20140413.2041)
 -->
<!-- Title: UnityClientPropertiesUpdateEvent Pages: 1 -->
<svg width="193pt" height="182pt"
 viewBox="0.00 0.00 193.00 182.00" xmlns="http://www.w3.org/2000/svg" xmlns:xlink="http://www.w3.org/1999/xlink">
<g id="graph0" class="graph" transform="scale(1 1) rotate(0) translate(4 178)">
<title>UnityClientPropertiesUpdateEvent</title>
<polygon fill="white" stroke="none" points="-4,4 -4,-178 189,-178 189,4 -4,4"/>
<!-- Node2 -->
<g id="node1" class="node"><title>Node2</title>
<polygon fill="#bfbfbf" stroke="black" points="23,-0.5 23,-68.5 162,-68.5 162,-0.5 23,-0.5"/>
<text text-anchor="start" x="31" y="-56.5" font-family="Helvetica,sans-Serif" font-size="10.00">UnityClientPropertiesUpdate</text>
<text text-anchor="middle" x="92.5" y="-45.5" font-family="Helvetica,sans-Serif" font-size="10.00">Event</text>
<polyline fill="none" stroke="black" points="23,-38.5 162,-38.5 "/>
<text text-anchor="middle" x="92.5" y="-26.5" font-family="Helvetica,sans-Serif" font-size="10.00"> </text>
<polyline fill="none" stroke="black" points="23,-19.5 162,-19.5 "/>
<text text-anchor="middle" x="92.5" y="-7.5" font-family="Helvetica,sans-Serif" font-size="10.00"> </text>
</g>
<!-- Node3 -->
<g id="node2" class="node"><title>Node3</title>
<polygon fill="white" stroke="#bfbfbf" points="0,-105.5 0,-173.5 185,-173.5 185,-105.5 0,-105.5"/>
<text text-anchor="start" x="8" y="-161.5" font-family="Helvetica,sans-Serif" font-size="10.00">UnityEvent&lt; string,</text>
<text text-anchor="middle" x="92.5" y="-150.5" font-family="Helvetica,sans-Serif" font-size="10.00"> ExitGames.Client.Photon.Hashtable &gt;</text>
<polyline fill="none" stroke="#bfbfbf" points="0,-143.5 185,-143.5 "/>
<text text-anchor="middle" x="92.5" y="-131.5" font-family="Helvetica,sans-Serif" font-size="10.00"> </text>
<polyline fill="none" stroke="#bfbfbf" points="0,-124.5 185,-124.5 "/>
<text text-anchor="middle" x="92.5" y="-112.5" font-family="Helvetica,sans-Serif" font-size="10.00"> </text>
</g>
<!-- Node3&#45;&gt;Node2 -->
<g id="edge1" class="edge"><title>Node3&#45;&gt;Node2</title>
<path fill="none" stroke="midnightblue" d="M92.5,-95.1362C92.5,-86.256 92.5,-77.0447 92.5,-68.5947"/>
<polygon fill="none" stroke="midnightblue" points="89.0001,-95.3432 92.5,-105.343 96.0001,-95.3432 89.0001,-95.3432"/>
</g>
</g>
</svg>
