<?xml version="1.0" encoding="UTF-8" standalone="no"?>
<!DOCTYPE svg PUBLIC "-//W3C//DTD SVG 1.1//EN"
 "http://www.w3.org/Graphics/SVG/1.1/DTD/svg11.dtd">
<!-- Generated by graphviz version 2.38.0 (20140413.2041)
 -->
<!-- Title: Level Pages: 1 -->
<svg width="245pt" height="332pt"
 viewBox="0.00 0.00 244.50 332.00" xmlns="http://www.w3.org/2000/svg" xmlns:xlink="http://www.w3.org/1999/xlink">
<g id="graph0" class="graph" transform="scale(1 1) rotate(0) translate(4 328)">
<title>Level</title>
<polygon fill="white" stroke="none" points="-4,4 -4,-328 240.5,-328 240.5,4 -4,4"/>
<!-- Node2 -->
<g id="node1" class="node"><title>Node2</title>
<polygon fill="#bfbfbf" stroke="black" points="53,-0.5 53,-79.5 112,-79.5 112,-0.5 53,-0.5"/>
<text text-anchor="middle" x="82.5" y="-67.5" font-family="Helvetica,sans-Serif" font-size="10.00">Level</text>
<polyline fill="none" stroke="black" points="53,-60.5 112,-60.5 "/>
<text text-anchor="start" x="61" y="-48.5" font-family="Helvetica,sans-Serif" font-size="10.00">+ lvlName</text>
<text text-anchor="start" x="61" y="-37.5" font-family="Helvetica,sans-Serif" font-size="10.00">+ image</text>
<text text-anchor="start" x="61" y="-26.5" font-family="Helvetica,sans-Serif" font-size="10.00">+ spawns</text>
<polyline fill="none" stroke="black" points="53,-19.5 112,-19.5 "/>
<text text-anchor="middle" x="82.5" y="-7.5" font-family="Helvetica,sans-Serif" font-size="10.00"> </text>
</g>
<!-- Node3 -->
<g id="node2" class="node"><title>Node3</title>
<polygon fill="white" stroke="#bfbfbf" points="0,-149.5 0,-206.5 89,-206.5 89,-149.5 0,-149.5"/>
<text text-anchor="middle" x="44.5" y="-194.5" font-family="Helvetica,sans-Serif" font-size="10.00">ScriptableObject</text>
<polyline fill="none" stroke="#bfbfbf" points="0,-187.5 89,-187.5 "/>
<text text-anchor="middle" x="44.5" y="-175.5" font-family="Helvetica,sans-Serif" font-size="10.00"> </text>
<polyline fill="none" stroke="#bfbfbf" points="0,-168.5 89,-168.5 "/>
<text text-anchor="middle" x="44.5" y="-156.5" font-family="Helvetica,sans-Serif" font-size="10.00"> </text>
</g>
<!-- Node3&#45;&gt;Node2 -->
<g id="edge1" class="edge"><title>Node3&#45;&gt;Node2</title>
<path fill="none" stroke="midnightblue" d="M54.8888,-139.819C60.116,-121.111 66.446,-98.4563 71.7259,-79.5601"/>
<polygon fill="none" stroke="midnightblue" points="51.5101,-138.905 52.1899,-149.478 58.2519,-140.789 51.5101,-138.905"/>
</g>
<!-- Node4 -->
<g id="node3" class="node"><title>Node4</title>
<g id="a_node3"><a xlink:href="classlevel_1_1_scene_reference.html" target="_top" xlink:title="A wrapper that provides the means to safely serialize Scene Asset References. ">
<polygon fill="white" stroke="black" points="107,-127.5 107,-228.5 220,-228.5 220,-127.5 107,-127.5"/>
<text text-anchor="middle" x="163.5" y="-216.5" font-family="Helvetica,sans-Serif" font-size="10.00">SceneReference</text>
<polyline fill="none" stroke="black" points="107,-209.5 220,-209.5 "/>
<text text-anchor="start" x="115" y="-197.5" font-family="Helvetica,sans-Serif" font-size="10.00">+ ScenePath</text>
<text text-anchor="start" x="115" y="-186.5" font-family="Helvetica,sans-Serif" font-size="10.00">&#45; scenePath</text>
<polyline fill="none" stroke="black" points="107,-179.5 220,-179.5 "/>
<text text-anchor="start" x="115" y="-167.5" font-family="Helvetica,sans-Serif" font-size="10.00">+ IsCurrentScene()</text>
<text text-anchor="start" x="115" y="-156.5" font-family="Helvetica,sans-Serif" font-size="10.00">+ OnBeforeSerialize()</text>
<text text-anchor="start" x="115" y="-145.5" font-family="Helvetica,sans-Serif" font-size="10.00">+ OnAfterDeserialize()</text>
<text text-anchor="start" x="115" y="-134.5" font-family="Helvetica,sans-Serif" font-size="10.00">+ operator string()</text>
</a>
</g>
</g>
<!-- Node4&#45;&gt;Node2 -->
<g id="edge2" class="edge"><title>Node4&#45;&gt;Node2</title>
<path fill="none" stroke="#404040" d="M133.799,-127.131C126.605,-115.052 118.92,-102.15 111.748,-90.1073"/>
<polygon fill="none" stroke="#404040" points="111.742,-90.0972 105.235,-86.9891 105.601,-79.7873 112.108,-82.8954 111.742,-90.0972"/>
<text text-anchor="middle" x="140.5" y="-101" font-family="Helvetica,sans-Serif" font-size="10.00"> +scene</text>
</g>
<!-- Node5 -->
<g id="node4" class="node"><title>Node5</title>
<polygon fill="white" stroke="#bfbfbf" points="90.5,-266.5 90.5,-323.5 236.5,-323.5 236.5,-266.5 90.5,-266.5"/>
<text text-anchor="middle" x="163.5" y="-311.5" font-family="Helvetica,sans-Serif" font-size="10.00">ISerializationCallbackReceiver</text>
<polyline fill="none" stroke="#bfbfbf" points="90.5,-304.5 236.5,-304.5 "/>
<text text-anchor="middle" x="163.5" y="-292.5" font-family="Helvetica,sans-Serif" font-size="10.00"> </text>
<polyline fill="none" stroke="#bfbfbf" points="90.5,-285.5 236.5,-285.5 "/>
<text text-anchor="middle" x="163.5" y="-273.5" font-family="Helvetica,sans-Serif" font-size="10.00"> </text>
</g>
<!-- Node5&#45;&gt;Node4 -->
<g id="edge3" class="edge"><title>Node5&#45;&gt;Node4</title>
<path fill="none" stroke="midnightblue" d="M163.5,-256.187C163.5,-247.435 163.5,-237.99 163.5,-228.812"/>
<polygon fill="none" stroke="midnightblue" points="160,-256.455 163.5,-266.455 167,-256.455 160,-256.455"/>
</g>
</g>
</svg>
