<?xml version="1.0" encoding="UTF-8" standalone="no"?>
<!DOCTYPE svg PUBLIC "-//W3C//DTD SVG 1.1//EN"
 "http://www.w3.org/Graphics/SVG/1.1/DTD/svg11.dtd">
<!-- Generated by graphviz version 2.38.0 (20140413.2041)
 -->
<!-- Title: GameStateMachine Pages: 1 -->
<svg width="539pt" height="624pt"
 viewBox="0.00 0.00 539.00 624.00" xmlns="http://www.w3.org/2000/svg" xmlns:xlink="http://www.w3.org/1999/xlink">
<g id="graph0" class="graph" transform="scale(1 1) rotate(0) translate(4 620)">
<title>GameStateMachine</title>
<polygon fill="white" stroke="none" points="-4,4 -4,-620 535,-620 535,4 -4,4"/>
<!-- Node3 -->
<g id="node1" class="node"><title>Node3</title>
<polygon fill="#bfbfbf" stroke="black" points="361.5,-33.5 361.5,-123.5 507.5,-123.5 507.5,-33.5 361.5,-33.5"/>
<text text-anchor="middle" x="434.5" y="-111.5" font-family="Helvetica,sans-Serif" font-size="10.00">GameStateMachine</text>
<polyline fill="none" stroke="black" points="361.5,-104.5 507.5,-104.5 "/>
<text text-anchor="middle" x="434.5" y="-92.5" font-family="Helvetica,sans-Serif" font-size="10.00"> </text>
<polyline fill="none" stroke="black" points="361.5,-85.5 507.5,-85.5 "/>
<text text-anchor="start" x="369.5" y="-73.5" font-family="Helvetica,sans-Serif" font-size="10.00">+ MatchStartup()</text>
<text text-anchor="start" x="369.5" y="-62.5" font-family="Helvetica,sans-Serif" font-size="10.00">+ GameOver()</text>
<text text-anchor="start" x="369.5" y="-51.5" font-family="Helvetica,sans-Serif" font-size="10.00"># MyAwake()</text>
<text text-anchor="start" x="369.5" y="-40.5" font-family="Helvetica,sans-Serif" font-size="10.00">&#45; TriggerNetworkedTransition()</text>
</g>
<!-- Node4 -->
<g id="node2" class="node"><title>Node4</title>
<g id="a_node2"><a xlink:href="class_state_machine.html" target="_top" xlink:title="Common Base class for all state machines. ">
<polygon fill="white" stroke="black" points="243.5,-237.5 243.5,-382.5 373.5,-382.5 373.5,-237.5 243.5,-237.5"/>
<text text-anchor="middle" x="308.5" y="-370.5" font-family="Helvetica,sans-Serif" font-size="10.00">StateMachine</text>
<polyline fill="none" stroke="black" points="243.5,-363.5 373.5,-363.5 "/>
<text text-anchor="start" x="251.5" y="-351.5" font-family="Helvetica,sans-Serif" font-size="10.00">+ logEnabled</text>
<text text-anchor="start" x="251.5" y="-340.5" font-family="Helvetica,sans-Serif" font-size="10.00"># controller</text>
<text text-anchor="start" x="251.5" y="-329.5" font-family="Helvetica,sans-Serif" font-size="10.00">&#45; states</text>
<polyline fill="none" stroke="black" points="243.5,-322.5 373.5,-322.5 "/>
<text text-anchor="start" x="251.5" y="-310.5" font-family="Helvetica,sans-Serif" font-size="10.00">+ GetActiveState()</text>
<text text-anchor="start" x="251.5" y="-299.5" font-family="Helvetica,sans-Serif" font-size="10.00">+ TriggerTransition()</text>
<text text-anchor="start" x="251.5" y="-288.5" font-family="Helvetica,sans-Serif" font-size="10.00">+ TriggerTransition()</text>
<text text-anchor="start" x="251.5" y="-277.5" font-family="Helvetica,sans-Serif" font-size="10.00">+ TriggerTransition()</text>
<text text-anchor="start" x="251.5" y="-266.5" font-family="Helvetica,sans-Serif" font-size="10.00">+ AnnounceCurrentState()</text>
<text text-anchor="start" x="251.5" y="-255.5" font-family="Helvetica,sans-Serif" font-size="10.00"># MyAwake()</text>
<text text-anchor="start" x="251.5" y="-244.5" font-family="Helvetica,sans-Serif" font-size="10.00">&#45; Awake()</text>
</a>
</g>
</g>
<!-- Node4&#45;&gt;Node3 -->
<g id="edge1" class="edge"><title>Node4&#45;&gt;Node3</title>
<path fill="none" stroke="midnightblue" d="M352.704,-228.485C372.042,-193.262 393.982,-153.301 410.267,-123.639"/>
<polygon fill="none" stroke="midnightblue" points="349.594,-226.879 347.849,-237.329 355.73,-230.247 349.594,-226.879"/>
</g>
<!-- Node8 -->
<g id="node6" class="node"><title>Node8</title>
<g id="a_node6"><a xlink:href="class_state.html" target="_top" xlink:title="Extended functionality for Unity SM Behaviours and makes them complete &#39;States&#39;. ">
<polygon fill="white" stroke="black" points="164.5,-0.5 164.5,-156.5 268.5,-156.5 268.5,-0.5 164.5,-0.5"/>
<text text-anchor="middle" x="216.5" y="-144.5" font-family="Helvetica,sans-Serif" font-size="10.00">State</text>
<polyline fill="none" stroke="black" points="164.5,-137.5 268.5,-137.5 "/>
<text text-anchor="start" x="172.5" y="-125.5" font-family="Helvetica,sans-Serif" font-size="10.00">+ name</text>
<text text-anchor="start" x="172.5" y="-114.5" font-family="Helvetica,sans-Serif" font-size="10.00">+ triggers</text>
<polyline fill="none" stroke="black" points="164.5,-107.5 268.5,-107.5 "/>
<text text-anchor="start" x="172.5" y="-95.5" font-family="Helvetica,sans-Serif" font-size="10.00">+ IsActiveState()</text>
<text text-anchor="start" x="172.5" y="-84.5" font-family="Helvetica,sans-Serif" font-size="10.00">+ Init()</text>
<text text-anchor="start" x="172.5" y="-73.5" font-family="Helvetica,sans-Serif" font-size="10.00">+ OnStateEnter()</text>
<text text-anchor="start" x="172.5" y="-62.5" font-family="Helvetica,sans-Serif" font-size="10.00">+ OnStateExit()</text>
<text text-anchor="start" x="172.5" y="-51.5" font-family="Helvetica,sans-Serif" font-size="10.00"># AddAutoListener()</text>
<text text-anchor="start" x="172.5" y="-40.5" font-family="Helvetica,sans-Serif" font-size="10.00"># TriggerTransition()</text>
<text text-anchor="start" x="172.5" y="-29.5" font-family="Helvetica,sans-Serif" font-size="10.00"># OnMyStateEnter()</text>
<text text-anchor="start" x="172.5" y="-18.5" font-family="Helvetica,sans-Serif" font-size="10.00"># OnMyStateExit()</text>
<text text-anchor="start" x="172.5" y="-7.5" font-family="Helvetica,sans-Serif" font-size="10.00"># OnMyStateInit()</text>
</a>
</g>
</g>
<!-- Node4&#45;&gt;Node8 -->
<g id="edge7" class="edge"><title>Node4&#45;&gt;Node8</title>
<path fill="none" stroke="#404040" d="M273.622,-237.415C265.957,-220.703 258.15,-202.858 251.5,-186 249.237,-180.263 246.998,-174.315 244.811,-168.295"/>
<polygon fill="none" stroke="#404040" points="244.698,-167.975 238.92,-163.661 240.68,-156.668 246.458,-160.982 244.698,-167.975"/>
<text text-anchor="middle" x="262.5" y="-178" font-family="Helvetica,sans-Serif" font-size="10.00"> #sm</text>
</g>
<!-- Node5 -->
<g id="node3" class="node"><title>Node5</title>
<polygon fill="white" stroke="#bfbfbf" points="215,-463.5 215,-520.5 298,-520.5 298,-463.5 215,-463.5"/>
<text text-anchor="middle" x="256.5" y="-508.5" font-family="Helvetica,sans-Serif" font-size="10.00">MonoBehaviour</text>
<polyline fill="none" stroke="#bfbfbf" points="215,-501.5 298,-501.5 "/>
<text text-anchor="middle" x="256.5" y="-489.5" font-family="Helvetica,sans-Serif" font-size="10.00"> </text>
<polyline fill="none" stroke="#bfbfbf" points="215,-482.5 298,-482.5 "/>
<text text-anchor="middle" x="256.5" y="-470.5" font-family="Helvetica,sans-Serif" font-size="10.00"> </text>
</g>
<!-- Node5&#45;&gt;Node4 -->
<g id="edge2" class="edge"><title>Node5&#45;&gt;Node4</title>
<path fill="none" stroke="midnightblue" d="M267.362,-453.401C273.278,-432.922 280.799,-406.888 287.788,-382.696"/>
<polygon fill="none" stroke="midnightblue" points="263.924,-452.691 264.511,-463.269 270.649,-454.634 263.924,-452.691"/>
</g>
<!-- Node6 -->
<g id="node4" class="node"><title>Node6</title>
<g id="a_node4"><a xlink:href="class_unity_string_event.html" target="_top" xlink:title="{UnityStringEvent\n||}">
<polygon fill="white" stroke="black" points="316,-463.5 316,-520.5 405,-520.5 405,-463.5 316,-463.5"/>
<text text-anchor="middle" x="360.5" y="-508.5" font-family="Helvetica,sans-Serif" font-size="10.00">UnityStringEvent</text>
<polyline fill="none" stroke="black" points="316,-501.5 405,-501.5 "/>
<text text-anchor="middle" x="360.5" y="-489.5" font-family="Helvetica,sans-Serif" font-size="10.00"> </text>
<polyline fill="none" stroke="black" points="316,-482.5 405,-482.5 "/>
<text text-anchor="middle" x="360.5" y="-470.5" font-family="Helvetica,sans-Serif" font-size="10.00"> </text>
</a>
</g>
</g>
<!-- Node6&#45;&gt;Node4 -->
<g id="edge3" class="edge"><title>Node6&#45;&gt;Node4</title>
<path fill="none" stroke="#404040" d="M352.489,-463.269C347.127,-444.71 339.764,-419.222 332.595,-394.406"/>
<polygon fill="none" stroke="#404040" points="332.543,-394.225 327.035,-389.571 329.212,-382.696 334.72,-387.35 332.543,-394.225"/>
<text text-anchor="middle" x="392" y="-437" font-family="Helvetica,sans-Serif" font-size="10.00"> +stateEnteredEvent</text>
</g>
<!-- Node7 -->
<g id="node5" class="node"><title>Node7</title>
<polygon fill="white" stroke="#bfbfbf" points="308,-558.5 308,-615.5 413,-615.5 413,-558.5 308,-558.5"/>
<text text-anchor="middle" x="360.5" y="-603.5" font-family="Helvetica,sans-Serif" font-size="10.00">UnityEvent&lt; string &gt;</text>
<polyline fill="none" stroke="#bfbfbf" points="308,-596.5 413,-596.5 "/>
<text text-anchor="middle" x="360.5" y="-584.5" font-family="Helvetica,sans-Serif" font-size="10.00"> </text>
<polyline fill="none" stroke="#bfbfbf" points="308,-577.5 413,-577.5 "/>
<text text-anchor="middle" x="360.5" y="-565.5" font-family="Helvetica,sans-Serif" font-size="10.00"> </text>
</g>
<!-- Node7&#45;&gt;Node6 -->
<g id="edge4" class="edge"><title>Node7&#45;&gt;Node6</title>
<path fill="none" stroke="midnightblue" d="M360.5,-548.235C360.5,-539.028 360.5,-529.346 360.5,-520.705"/>
<polygon fill="none" stroke="midnightblue" points="357,-548.349 360.5,-558.349 364,-548.349 357,-548.349"/>
</g>
<!-- Node8&#45;&gt;Node4 -->
<g id="edge5" class="edge"><title>Node8&#45;&gt;Node4</title>
<path fill="none" stroke="#404040" d="M268.569,-156.211C271.841,-162.438 274.87,-168.743 277.5,-175 284.19,-190.918 289.575,-208.535 293.857,-225.622"/>
<polygon fill="none" stroke="#404040" points="293.867,-225.665 299.148,-230.575 296.648,-237.338 291.366,-232.428 293.867,-225.665"/>
<text text-anchor="middle" x="311" y="-178" font-family="Helvetica,sans-Serif" font-size="10.00"> #activeState</text>
</g>
<!-- Node9 -->
<g id="node7" class="node"><title>Node9</title>
<polygon fill="white" stroke="#bfbfbf" points="0,-281.5 0,-338.5 119,-338.5 119,-281.5 0,-281.5"/>
<text text-anchor="middle" x="59.5" y="-326.5" font-family="Helvetica,sans-Serif" font-size="10.00">StateMachineBehaviour</text>
<polyline fill="none" stroke="#bfbfbf" points="0,-319.5 119,-319.5 "/>
<text text-anchor="middle" x="59.5" y="-307.5" font-family="Helvetica,sans-Serif" font-size="10.00"> </text>
<polyline fill="none" stroke="#bfbfbf" points="0,-300.5 119,-300.5 "/>
<text text-anchor="middle" x="59.5" y="-288.5" font-family="Helvetica,sans-Serif" font-size="10.00"> </text>
</g>
<!-- Node9&#45;&gt;Node8 -->
<g id="edge6" class="edge"><title>Node9&#45;&gt;Node8</title>
<path fill="none" stroke="midnightblue" d="M83.0095,-272.565C96.2133,-252.27 113.088,-226.608 128.5,-204 139.98,-187.16 152.515,-169.186 164.433,-152.285"/>
<polygon fill="none" stroke="midnightblue" points="79.9162,-270.903 77.4055,-281.196 85.787,-274.715 79.9162,-270.903"/>
</g>
<!-- Node10 -->
<g id="node8" class="node"><title>Node10</title>
<g id="a_node8"><a xlink:href="class_listener_group.html" target="_top" xlink:title="Helper class to execute adding and removing on all held Listeners (Events + Callbacks). ">
<polygon fill="white" stroke="black" points="137.5,-265 137.5,-355 225.5,-355 225.5,-265 137.5,-265"/>
<text text-anchor="middle" x="181.5" y="-343" font-family="Helvetica,sans-Serif" font-size="10.00">ListenerGroup</text>
<polyline fill="none" stroke="black" points="137.5,-336 225.5,-336 "/>
<text text-anchor="start" x="145.5" y="-324" font-family="Helvetica,sans-Serif" font-size="10.00">&#45; heldListeners</text>
<polyline fill="none" stroke="black" points="137.5,-317 225.5,-317 "/>
<text text-anchor="start" x="145.5" y="-305" font-family="Helvetica,sans-Serif" font-size="10.00">+ Add()</text>
<text text-anchor="start" x="145.5" y="-294" font-family="Helvetica,sans-Serif" font-size="10.00">+ Add()</text>
<text text-anchor="start" x="145.5" y="-283" font-family="Helvetica,sans-Serif" font-size="10.00">+ ActivateAll()</text>
<text text-anchor="start" x="145.5" y="-272" font-family="Helvetica,sans-Serif" font-size="10.00">+ DeactivateAll()</text>
</a>
</g>
</g>
<!-- Node10&#45;&gt;Node8 -->
<g id="edge8" class="edge"><title>Node10&#45;&gt;Node8</title>
<path fill="none" stroke="#404040" d="M180.202,-264.94C180.155,-238.65 181.375,-204.709 186.5,-175 186.872,-172.846 187.279,-170.673 187.718,-168.488"/>
<polygon fill="none" stroke="#404040" points="187.728,-168.444 185.13,-161.717 190.341,-156.732 192.938,-163.459 187.728,-168.444"/>
<text text-anchor="middle" x="208" y="-178" font-family="Helvetica,sans-Serif" font-size="10.00"> &#45;listeners</text>
</g>
<!-- Node11 -->
<g id="node9" class="node"><title>Node11</title>
<g id="a_node9"><a xlink:href="classnet_1_1_net_event.html" target="_top" xlink:title="{NetEvent\&lt; StringNetData \&gt;\n|&#45; eventCode\l&#45; localEvent\l&#45; target\l&#45; defaultData\l&#45; reliable\l&#45; cachedForRoom\l&#45; hasDefaultData\l|+ NetEvent()\l+ NetEvent()\l+ AddListener()\l+ RemoveListener()\l+ Invoke()\l+ Invoke()\l+ OnEvent()\l&#45; ~NetEvent()\l&#45; GetSpecificTargetActorNr()\l}">
<polygon fill="white" stroke="black" points="392,-204.5 392,-415.5 531,-415.5 531,-204.5 392,-204.5"/>
<text text-anchor="middle" x="461.5" y="-403.5" font-family="Helvetica,sans-Serif" font-size="10.00">NetEvent&lt; StringNetData &gt;</text>
<polyline fill="none" stroke="black" points="392,-396.5 531,-396.5 "/>
<text text-anchor="start" x="400" y="-384.5" font-family="Helvetica,sans-Serif" font-size="10.00">&#45; eventCode</text>
<text text-anchor="start" x="400" y="-373.5" font-family="Helvetica,sans-Serif" font-size="10.00">&#45; localEvent</text>
<text text-anchor="start" x="400" y="-362.5" font-family="Helvetica,sans-Serif" font-size="10.00">&#45; target</text>
<text text-anchor="start" x="400" y="-351.5" font-family="Helvetica,sans-Serif" font-size="10.00">&#45; defaultData</text>
<text text-anchor="start" x="400" y="-340.5" font-family="Helvetica,sans-Serif" font-size="10.00">&#45; reliable</text>
<text text-anchor="start" x="400" y="-329.5" font-family="Helvetica,sans-Serif" font-size="10.00">&#45; cachedForRoom</text>
<text text-anchor="start" x="400" y="-318.5" font-family="Helvetica,sans-Serif" font-size="10.00">&#45; hasDefaultData</text>
<polyline fill="none" stroke="black" points="392,-311.5 531,-311.5 "/>
<text text-anchor="start" x="400" y="-299.5" font-family="Helvetica,sans-Serif" font-size="10.00">+ NetEvent()</text>
<text text-anchor="start" x="400" y="-288.5" font-family="Helvetica,sans-Serif" font-size="10.00">+ NetEvent()</text>
<text text-anchor="start" x="400" y="-277.5" font-family="Helvetica,sans-Serif" font-size="10.00">+ AddListener()</text>
<text text-anchor="start" x="400" y="-266.5" font-family="Helvetica,sans-Serif" font-size="10.00">+ RemoveListener()</text>
<text text-anchor="start" x="400" y="-255.5" font-family="Helvetica,sans-Serif" font-size="10.00">+ Invoke()</text>
<text text-anchor="start" x="400" y="-244.5" font-family="Helvetica,sans-Serif" font-size="10.00">+ Invoke()</text>
<text text-anchor="start" x="400" y="-233.5" font-family="Helvetica,sans-Serif" font-size="10.00">+ OnEvent()</text>
<text text-anchor="start" x="400" y="-222.5" font-family="Helvetica,sans-Serif" font-size="10.00">&#45; ~NetEvent()</text>
<text text-anchor="start" x="400" y="-211.5" font-family="Helvetica,sans-Serif" font-size="10.00">&#45; GetSpecificTargetActorNr()</text>
</a>
</g>
</g>
<!-- Node11&#45;&gt;Node3 -->
<g id="edge9" class="edge"><title>Node11&#45;&gt;Node3</title>
<path fill="none" stroke="#404040" d="M449.185,-204.324C446.408,-180.717 443.563,-156.537 441.126,-135.822"/>
<polygon fill="none" stroke="#404040" points="441.106,-135.651 436.432,-130.159 439.704,-123.733 444.378,-129.224 441.106,-135.651"/>
<text text-anchor="middle" x="483" y="-178" font-family="Helvetica,sans-Serif" font-size="10.00"> +transitionEvent</text>
</g>
</g>
</svg>
