<?xml version="1.0" encoding="UTF-8" standalone="no"?>
<!DOCTYPE svg PUBLIC "-//W3C//DTD SVG 1.1//EN"
 "http://www.w3.org/Graphics/SVG/1.1/DTD/svg11.dtd">
<!-- Generated by graphviz version 2.38.0 (20140413.2041)
 -->
<!-- Title: UnitAiStateMachine Pages: 1 -->
<svg width="149pt" height="518pt"
 viewBox="0.00 0.00 149.00 518.00" xmlns="http://www.w3.org/2000/svg" xmlns:xlink="http://www.w3.org/1999/xlink">
<g id="graph0" class="graph" transform="scale(1 1) rotate(0) translate(4 514)">
<title>UnitAiStateMachine</title>
<polygon fill="white" stroke="none" points="-4,4 -4,-514 145,-514 145,4 -4,4"/>
<!-- Node0 -->
<g id="node1" class="node"><title>Node0</title>
<polygon fill="#bfbfbf" stroke="black" points="0,-0.5 0,-200.5 141,-200.5 141,-0.5 0,-0.5"/>
<text text-anchor="middle" x="70.5" y="-188.5" font-family="Helvetica,sans-Serif" font-size="10.00">UnitAiStateMachine</text>
<polyline fill="none" stroke="black" points="0,-181.5 141,-181.5 "/>
<text text-anchor="start" x="8" y="-169.5" font-family="Helvetica,sans-Serif" font-size="10.00">+ gatherTargetSelector</text>
<text text-anchor="start" x="8" y="-158.5" font-family="Helvetica,sans-Serif" font-size="10.00">+ unit</text>
<text text-anchor="start" x="8" y="-147.5" font-family="Helvetica,sans-Serif" font-size="10.00">+ targetTracker</text>
<text text-anchor="start" x="8" y="-136.5" font-family="Helvetica,sans-Serif" font-size="10.00">+ dynamicMoveTarget</text>
<text text-anchor="start" x="8" y="-125.5" font-family="Helvetica,sans-Serif" font-size="10.00">+ staticMoveTarget</text>
<polyline fill="none" stroke="black" points="0,-118.5 141,-118.5 "/>
<text text-anchor="start" x="8" y="-106.5" font-family="Helvetica,sans-Serif" font-size="10.00">+ AttackOrderOn()</text>
<text text-anchor="start" x="8" y="-95.5" font-family="Helvetica,sans-Serif" font-size="10.00">+ AssistOrderOn()</text>
<text text-anchor="start" x="8" y="-84.5" font-family="Helvetica,sans-Serif" font-size="10.00">+ MoveOrderTo()</text>
<text text-anchor="start" x="8" y="-73.5" font-family="Helvetica,sans-Serif" font-size="10.00">+ AttackMoveOrderTo()</text>
<text text-anchor="start" x="8" y="-62.5" font-family="Helvetica,sans-Serif" font-size="10.00">+ GatherOrderOn()</text>
<text text-anchor="start" x="8" y="-51.5" font-family="Helvetica,sans-Serif" font-size="10.00">+ SetFollowTarget()</text>
<text text-anchor="start" x="8" y="-40.5" font-family="Helvetica,sans-Serif" font-size="10.00">+ SetTargetPosition()</text>
<text text-anchor="start" x="8" y="-29.5" font-family="Helvetica,sans-Serif" font-size="10.00">+ SetTargetPosition()</text>
<text text-anchor="start" x="8" y="-18.5" font-family="Helvetica,sans-Serif" font-size="10.00">+ TryToSetAsPickUpTarget()</text>
<text text-anchor="start" x="8" y="-7.5" font-family="Helvetica,sans-Serif" font-size="10.00"># MyAwake()</text>
</g>
<!-- Node1 -->
<g id="node2" class="node"><title>Node1</title>
<g id="a_node2"><a xlink:href="class_state_machine.html" target="_top" xlink:title="Common Base class for all state machines. ">
<polygon fill="white" stroke="black" points="5.5,-237.5 5.5,-415.5 135.5,-415.5 135.5,-237.5 5.5,-237.5"/>
<text text-anchor="middle" x="70.5" y="-403.5" font-family="Helvetica,sans-Serif" font-size="10.00">StateMachine</text>
<polyline fill="none" stroke="black" points="5.5,-396.5 135.5,-396.5 "/>
<text text-anchor="start" x="13.5" y="-384.5" font-family="Helvetica,sans-Serif" font-size="10.00">+ logEnabled</text>
<text text-anchor="start" x="13.5" y="-373.5" font-family="Helvetica,sans-Serif" font-size="10.00">+ stateEnteredEvent</text>
<text text-anchor="start" x="13.5" y="-362.5" font-family="Helvetica,sans-Serif" font-size="10.00">+ globalValidTriggers</text>
<text text-anchor="start" x="13.5" y="-351.5" font-family="Helvetica,sans-Serif" font-size="10.00"># activeState</text>
<text text-anchor="start" x="13.5" y="-340.5" font-family="Helvetica,sans-Serif" font-size="10.00"># controller</text>
<text text-anchor="start" x="13.5" y="-329.5" font-family="Helvetica,sans-Serif" font-size="10.00">&#45; states</text>
<polyline fill="none" stroke="black" points="5.5,-322.5 135.5,-322.5 "/>
<text text-anchor="start" x="13.5" y="-310.5" font-family="Helvetica,sans-Serif" font-size="10.00">+ GetActiveState()</text>
<text text-anchor="start" x="13.5" y="-299.5" font-family="Helvetica,sans-Serif" font-size="10.00">+ TriggerTransition()</text>
<text text-anchor="start" x="13.5" y="-288.5" font-family="Helvetica,sans-Serif" font-size="10.00">+ TriggerTransition()</text>
<text text-anchor="start" x="13.5" y="-277.5" font-family="Helvetica,sans-Serif" font-size="10.00">+ TriggerTransition()</text>
<text text-anchor="start" x="13.5" y="-266.5" font-family="Helvetica,sans-Serif" font-size="10.00">+ AnnounceCurrentState()</text>
<text text-anchor="start" x="13.5" y="-255.5" font-family="Helvetica,sans-Serif" font-size="10.00"># MyAwake()</text>
<text text-anchor="start" x="13.5" y="-244.5" font-family="Helvetica,sans-Serif" font-size="10.00">&#45; Awake()</text>
</a>
</g>
</g>
<!-- Node1&#45;&gt;Node0 -->
<g id="edge1" class="edge"><title>Node1&#45;&gt;Node0</title>
<path fill="none" stroke="midnightblue" d="M70.5,-227.09C70.5,-218.345 70.5,-209.488 70.5,-200.737"/>
<polygon fill="none" stroke="midnightblue" points="67.0001,-227.291 70.5,-237.291 74.0001,-227.291 67.0001,-227.291"/>
</g>
<!-- Node2 -->
<g id="node3" class="node"><title>Node2</title>
<polygon fill="white" stroke="#bfbfbf" points="29,-452.5 29,-509.5 112,-509.5 112,-452.5 29,-452.5"/>
<text text-anchor="middle" x="70.5" y="-497.5" font-family="Helvetica,sans-Serif" font-size="10.00">MonoBehaviour</text>
<polyline fill="none" stroke="#bfbfbf" points="29,-490.5 112,-490.5 "/>
<text text-anchor="middle" x="70.5" y="-478.5" font-family="Helvetica,sans-Serif" font-size="10.00"> </text>
<polyline fill="none" stroke="#bfbfbf" points="29,-471.5 112,-471.5 "/>
<text text-anchor="middle" x="70.5" y="-459.5" font-family="Helvetica,sans-Serif" font-size="10.00"> </text>
</g>
<!-- Node2&#45;&gt;Node1 -->
<g id="edge2" class="edge"><title>Node2&#45;&gt;Node1</title>
<path fill="none" stroke="midnightblue" d="M70.5,-442.374C70.5,-434.089 70.5,-424.977 70.5,-415.62"/>
<polygon fill="none" stroke="midnightblue" points="67.0001,-442.383 70.5,-452.383 74.0001,-442.383 67.0001,-442.383"/>
</g>
</g>
</svg>
