<?xml version="1.0" encoding="UTF-8" standalone="no"?>
<!DOCTYPE svg PUBLIC "-//W3C//DTD SVG 1.1//EN"
 "http://www.w3.org/Graphics/SVG/1.1/DTD/svg11.dtd">
<!-- Generated by graphviz version 2.38.0 (20140413.2041)
 -->
<!-- Title: CameraController Pages: 1 -->
<svg width="220pt" height="354pt"
 viewBox="0.00 0.00 219.50 354.00" xmlns="http://www.w3.org/2000/svg" xmlns:xlink="http://www.w3.org/1999/xlink">
<g id="graph0" class="graph" transform="scale(1 1) rotate(0) translate(4 350)">
<title>CameraController</title>
<polygon fill="white" stroke="none" points="-4,4 -4,-350 215.5,-350 215.5,4 -4,4"/>
<!-- Node2 -->
<g id="node1" class="node"><title>Node2</title>
<polygon fill="#bfbfbf" stroke="black" points="26.5,-0.5 26.5,-134.5 130.5,-134.5 130.5,-0.5 26.5,-0.5"/>
<text text-anchor="middle" x="78.5" y="-122.5" font-family="Helvetica,sans-Serif" font-size="10.00">CameraController</text>
<polyline fill="none" stroke="black" points="26.5,-115.5 130.5,-115.5 "/>
<text text-anchor="start" x="34.5" y="-103.5" font-family="Helvetica,sans-Serif" font-size="10.00">+ maxClamp</text>
<text text-anchor="start" x="34.5" y="-92.5" font-family="Helvetica,sans-Serif" font-size="10.00">+ minClamp</text>
<text text-anchor="start" x="34.5" y="-81.5" font-family="Helvetica,sans-Serif" font-size="10.00">+ dampingFOV</text>
<text text-anchor="start" x="34.5" y="-70.5" font-family="Helvetica,sans-Serif" font-size="10.00">&#45; zoom</text>
<text text-anchor="start" x="34.5" y="-59.5" font-family="Helvetica,sans-Serif" font-size="10.00">&#45; sensitivityDistance</text>
<text text-anchor="start" x="34.5" y="-48.5" font-family="Helvetica,sans-Serif" font-size="10.00">&#45; distance</text>
<polyline fill="none" stroke="black" points="26.5,-41.5 130.5,-41.5 "/>
<text text-anchor="start" x="34.5" y="-29.5" font-family="Helvetica,sans-Serif" font-size="10.00">&#45; Start()</text>
<text text-anchor="start" x="34.5" y="-18.5" font-family="Helvetica,sans-Serif" font-size="10.00">&#45; Update()</text>
<text text-anchor="start" x="34.5" y="-7.5" font-family="Helvetica,sans-Serif" font-size="10.00">&#45; LateUpdate()</text>
</g>
<!-- Node3 -->
<g id="node2" class="node"><title>Node3</title>
<polygon fill="white" stroke="#bfbfbf" points="0,-188 0,-245 83,-245 83,-188 0,-188"/>
<text text-anchor="middle" x="41.5" y="-233" font-family="Helvetica,sans-Serif" font-size="10.00">MonoBehaviour</text>
<polyline fill="none" stroke="#bfbfbf" points="0,-226 83,-226 "/>
<text text-anchor="middle" x="41.5" y="-214" font-family="Helvetica,sans-Serif" font-size="10.00"> </text>
<polyline fill="none" stroke="#bfbfbf" points="0,-207 83,-207 "/>
<text text-anchor="middle" x="41.5" y="-195" font-family="Helvetica,sans-Serif" font-size="10.00"> </text>
</g>
<!-- Node3&#45;&gt;Node2 -->
<g id="edge1" class="edge"><title>Node3&#45;&gt;Node2</title>
<path fill="none" stroke="midnightblue" d="M50.9891,-177.8C54.2935,-164.672 58.1054,-149.527 61.8186,-134.775"/>
<polygon fill="none" stroke="midnightblue" points="47.5062,-177.299 48.4594,-187.85 54.2945,-179.007 47.5062,-177.299"/>
</g>
<!-- Node4 -->
<g id="node3" class="node"><title>Node4</title>
<g id="a_node3"><a xlink:href="class_player.html" target="_top" xlink:title="{Player\n|+ nickName\l+ curPlayerReference\l|}">
<polygon fill="white" stroke="black" points="101.5,-182.5 101.5,-250.5 211.5,-250.5 211.5,-182.5 101.5,-182.5"/>
<text text-anchor="middle" x="156.5" y="-238.5" font-family="Helvetica,sans-Serif" font-size="10.00">Player</text>
<polyline fill="none" stroke="black" points="101.5,-231.5 211.5,-231.5 "/>
<text text-anchor="start" x="109.5" y="-219.5" font-family="Helvetica,sans-Serif" font-size="10.00">+ nickName</text>
<text text-anchor="start" x="109.5" y="-208.5" font-family="Helvetica,sans-Serif" font-size="10.00">+ curPlayerReference</text>
<polyline fill="none" stroke="black" points="101.5,-201.5 211.5,-201.5 "/>
<text text-anchor="middle" x="156.5" y="-189.5" font-family="Helvetica,sans-Serif" font-size="10.00"> </text>
</a>
</g>
</g>
<!-- Node4&#45;&gt;Node2 -->
<g id="edge2" class="edge"><title>Node4&#45;&gt;Node2</title>
<path fill="none" stroke="#404040" d="M138.801,-182.143C132.971,-171.158 126.226,-158.446 119.404,-145.588"/>
<polygon fill="none" stroke="#404040" points="119.297,-145.387 112.951,-141.962 113.672,-134.787 120.018,-138.212 119.297,-145.387"/>
<text text-anchor="middle" x="165" y="-156" font-family="Helvetica,sans-Serif" font-size="10.00"> +targetedPlayer</text>
</g>
<!-- Node5 -->
<g id="node4" class="node"><title>Node5</title>
<polygon fill="white" stroke="#bfbfbf" points="112,-288.5 112,-345.5 201,-345.5 201,-288.5 112,-288.5"/>
<text text-anchor="middle" x="156.5" y="-333.5" font-family="Helvetica,sans-Serif" font-size="10.00">ScriptableObject</text>
<polyline fill="none" stroke="#bfbfbf" points="112,-326.5 201,-326.5 "/>
<text text-anchor="middle" x="156.5" y="-314.5" font-family="Helvetica,sans-Serif" font-size="10.00"> </text>
<polyline fill="none" stroke="#bfbfbf" points="112,-307.5 201,-307.5 "/>
<text text-anchor="middle" x="156.5" y="-295.5" font-family="Helvetica,sans-Serif" font-size="10.00"> </text>
</g>
<!-- Node5&#45;&gt;Node4 -->
<g id="edge3" class="edge"><title>Node5&#45;&gt;Node4</title>
<path fill="none" stroke="midnightblue" d="M156.5,-278.007C156.5,-268.962 156.5,-259.383 156.5,-250.578"/>
<polygon fill="none" stroke="midnightblue" points="153,-278.3 156.5,-288.3 160,-278.3 153,-278.3"/>
</g>
</g>
</svg>
