<?xml version="1.0" encoding="UTF-8" standalone="no"?>
<!DOCTYPE svg PUBLIC "-//W3C//DTD SVG 1.1//EN"
 "http://www.w3.org/Graphics/SVG/1.1/DTD/svg11.dtd">
<!-- Generated by graphviz version 2.38.0 (20140413.2041)
 -->
<!-- Title: ParabolaMover Pages: 1 -->
<svg width="226pt" height="347pt"
 viewBox="0.00 0.00 225.50 347.00" xmlns="http://www.w3.org/2000/svg" xmlns:xlink="http://www.w3.org/1999/xlink">
<g id="graph0" class="graph" transform="scale(1 1) rotate(0) translate(4 343)">
<title>ParabolaMover</title>
<polygon fill="white" stroke="none" points="-4,4 -4,-343 221.5,-343 221.5,4 -4,4"/>
<!-- Node2 -->
<g id="node1" class="node"><title>Node2</title>
<polygon fill="#bfbfbf" stroke="black" points="36.5,-0.5 36.5,-156.5 164.5,-156.5 164.5,-0.5 36.5,-0.5"/>
<text text-anchor="middle" x="100.5" y="-144.5" font-family="Helvetica,sans-Serif" font-size="10.00">ParabolaMover</text>
<polyline fill="none" stroke="black" points="36.5,-137.5 164.5,-137.5 "/>
<text text-anchor="start" x="44.5" y="-125.5" font-family="Helvetica,sans-Serif" font-size="10.00">+ launchAngle</text>
<text text-anchor="start" x="44.5" y="-114.5" font-family="Helvetica,sans-Serif" font-size="10.00">+ animPlaybackSpeed</text>
<text text-anchor="start" x="44.5" y="-103.5" font-family="Helvetica,sans-Serif" font-size="10.00">&#45; target</text>
<text text-anchor="start" x="44.5" y="-92.5" font-family="Helvetica,sans-Serif" font-size="10.00">&#45; isTargetSet</text>
<text text-anchor="start" x="44.5" y="-81.5" font-family="Helvetica,sans-Serif" font-size="10.00">&#45; travelTime</text>
<text text-anchor="start" x="44.5" y="-70.5" font-family="Helvetica,sans-Serif" font-size="10.00">&#45; isMoving</text>
<polyline fill="none" stroke="black" points="36.5,-63.5 164.5,-63.5 "/>
<text text-anchor="start" x="44.5" y="-51.5" font-family="Helvetica,sans-Serif" font-size="10.00">+ SetTarget()</text>
<text text-anchor="start" x="44.5" y="-40.5" font-family="Helvetica,sans-Serif" font-size="10.00">+ GetTrajectorySamples()</text>
<text text-anchor="start" x="44.5" y="-29.5" font-family="Helvetica,sans-Serif" font-size="10.00">+ MoveUntilCollision()</text>
<text text-anchor="start" x="44.5" y="-18.5" font-family="Helvetica,sans-Serif" font-size="10.00">&#45; FixedUpdate()</text>
<text text-anchor="start" x="44.5" y="-7.5" font-family="Helvetica,sans-Serif" font-size="10.00">&#45; OnCollisionEnter()</text>
</g>
<!-- Node3 -->
<g id="node2" class="node"><title>Node3</title>
<polygon fill="white" stroke="#bfbfbf" points="0,-243 0,-300 83,-300 83,-243 0,-243"/>
<text text-anchor="middle" x="41.5" y="-288" font-family="Helvetica,sans-Serif" font-size="10.00">MonoBehaviour</text>
<polyline fill="none" stroke="#bfbfbf" points="0,-281 83,-281 "/>
<text text-anchor="middle" x="41.5" y="-269" font-family="Helvetica,sans-Serif" font-size="10.00"> </text>
<polyline fill="none" stroke="#bfbfbf" points="0,-262 83,-262 "/>
<text text-anchor="middle" x="41.5" y="-250" font-family="Helvetica,sans-Serif" font-size="10.00"> </text>
</g>
<!-- Node3&#45;&gt;Node2 -->
<g id="edge1" class="edge"><title>Node3&#45;&gt;Node2</title>
<path fill="none" stroke="midnightblue" d="M53.1064,-232.927C59.8139,-211.213 68.5049,-183.077 76.6094,-156.841"/>
<polygon fill="none" stroke="midnightblue" points="49.6865,-232.139 50.0791,-242.727 56.3747,-234.205 49.6865,-232.139"/>
</g>
<!-- Node4 -->
<g id="node3" class="node"><title>Node4</title>
<g id="a_node3"><a xlink:href="class_parabola_trajectory.html" target="_top" xlink:title="{ParabolaTrajectory\n|+ startAngleRad\l+ v0\l+ g\l+ isValid\l+ totalTravelTime\l+ origin\l+ dirToTargetInXZPlane\l|+ ParabolaTrajectory()\l+ GetAtTime()\l}">
<polygon fill="white" stroke="black" points="101.5,-204.5 101.5,-338.5 217.5,-338.5 217.5,-204.5 101.5,-204.5"/>
<text text-anchor="middle" x="159.5" y="-326.5" font-family="Helvetica,sans-Serif" font-size="10.00">ParabolaTrajectory</text>
<polyline fill="none" stroke="black" points="101.5,-319.5 217.5,-319.5 "/>
<text text-anchor="start" x="109.5" y="-307.5" font-family="Helvetica,sans-Serif" font-size="10.00">+ startAngleRad</text>
<text text-anchor="start" x="109.5" y="-296.5" font-family="Helvetica,sans-Serif" font-size="10.00">+ v0</text>
<text text-anchor="start" x="109.5" y="-285.5" font-family="Helvetica,sans-Serif" font-size="10.00">+ g</text>
<text text-anchor="start" x="109.5" y="-274.5" font-family="Helvetica,sans-Serif" font-size="10.00">+ isValid</text>
<text text-anchor="start" x="109.5" y="-263.5" font-family="Helvetica,sans-Serif" font-size="10.00">+ totalTravelTime</text>
<text text-anchor="start" x="109.5" y="-252.5" font-family="Helvetica,sans-Serif" font-size="10.00">+ origin</text>
<text text-anchor="start" x="109.5" y="-241.5" font-family="Helvetica,sans-Serif" font-size="10.00">+ dirToTargetInXZPlane</text>
<polyline fill="none" stroke="black" points="101.5,-234.5 217.5,-234.5 "/>
<text text-anchor="start" x="109.5" y="-222.5" font-family="Helvetica,sans-Serif" font-size="10.00">+ ParabolaTrajectory()</text>
<text text-anchor="start" x="109.5" y="-211.5" font-family="Helvetica,sans-Serif" font-size="10.00">+ GetAtTime()</text>
</a>
</g>
</g>
<!-- Node4&#45;&gt;Node2 -->
<g id="edge2" class="edge"><title>Node4&#45;&gt;Node2</title>
<path fill="none" stroke="#404040" d="M139.03,-204.234C135.449,-192.639 131.671,-180.409 127.937,-168.321"/>
<polygon fill="none" stroke="#404040" points="127.92,-168.267 122.328,-163.715 124.379,-156.802 129.971,-161.354 127.92,-168.267"/>
<text text-anchor="middle" x="156" y="-178" font-family="Helvetica,sans-Serif" font-size="10.00"> &#45;trajectory</text>
</g>
</g>
</svg>
