<?xml version="1.0" encoding="UTF-8" standalone="no"?>
<!DOCTYPE svg PUBLIC "-//W3C//DTD SVG 1.1//EN"
 "http://www.w3.org/Graphics/SVG/1.1/DTD/svg11.dtd">
<!-- Generated by graphviz version 2.38.0 (20140413.2041)
 -->
<!-- Title: AutoAttackState Pages: 1 -->
<svg width="175pt" height="441pt"
 viewBox="0.00 0.00 175.00 441.00" xmlns="http://www.w3.org/2000/svg" xmlns:xlink="http://www.w3.org/1999/xlink">
<g id="graph0" class="graph" transform="scale(1 1) rotate(0) translate(4 437)">
<title>AutoAttackState</title>
<polygon fill="white" stroke="none" points="-4,4 -4,-437 171,-437 171,4 -4,4"/>
<!-- Node0 -->
<g id="node1" class="node"><title>Node0</title>
<polygon fill="#bfbfbf" stroke="black" points="31.5,-0.5 31.5,-79.5 135.5,-79.5 135.5,-0.5 31.5,-0.5"/>
<text text-anchor="middle" x="83.5" y="-67.5" font-family="Helvetica,sans-Serif" font-size="10.00">AutoAttackState</text>
<polyline fill="none" stroke="black" points="31.5,-60.5 135.5,-60.5 "/>
<text text-anchor="start" x="39.5" y="-48.5" font-family="Helvetica,sans-Serif" font-size="10.00">&#45; pathfindingAI</text>
<polyline fill="none" stroke="black" points="31.5,-41.5 135.5,-41.5 "/>
<text text-anchor="start" x="39.5" y="-29.5" font-family="Helvetica,sans-Serif" font-size="10.00">+ OnStateUpdate()</text>
<text text-anchor="start" x="39.5" y="-18.5" font-family="Helvetica,sans-Serif" font-size="10.00"># OnMyStateEnter()</text>
<text text-anchor="start" x="39.5" y="-7.5" font-family="Helvetica,sans-Serif" font-size="10.00"># OnMyStateExit()</text>
</g>
<!-- Node1 -->
<g id="node2" class="node"><title>Node1</title>
<g id="a_node2"><a xlink:href="classmechanics_1_1_unit_ai_base_state.html" target="_top" xlink:title="Offers a base state for Unit AI which can be interrupted by multiple conditions: ">
<polygon fill="white" stroke="black" points="21,-116.5 21,-195.5 146,-195.5 146,-116.5 21,-116.5"/>
<text text-anchor="middle" x="83.5" y="-183.5" font-family="Helvetica,sans-Serif" font-size="10.00">UnitAiBaseState</text>
<polyline fill="none" stroke="black" points="21,-176.5 146,-176.5 "/>
<text text-anchor="start" x="29" y="-164.5" font-family="Helvetica,sans-Serif" font-size="10.00">+ triggerOnBattleStart</text>
<text text-anchor="start" x="29" y="-153.5" font-family="Helvetica,sans-Serif" font-size="10.00">+ triggerOnBattleEnd</text>
<text text-anchor="start" x="29" y="-142.5" font-family="Helvetica,sans-Serif" font-size="10.00">+ triggerOnDmgReceived</text>
<polyline fill="none" stroke="black" points="21,-135.5 146,-135.5 "/>
<text text-anchor="start" x="29" y="-123.5" font-family="Helvetica,sans-Serif" font-size="10.00"># OnMyStateInit()</text>
</a>
</g>
</g>
<!-- Node1&#45;&gt;Node0 -->
<g id="edge1" class="edge"><title>Node1&#45;&gt;Node0</title>
<path fill="none" stroke="midnightblue" d="M83.5,-106.146C83.5,-97.256 83.5,-88.0961 83.5,-79.5555"/>
<polygon fill="none" stroke="midnightblue" points="80.0001,-106.405 83.5,-116.405 87.0001,-106.405 80.0001,-106.405"/>
</g>
<!-- Node2 -->
<g id="node3" class="node"><title>Node2</title>
<g id="a_node3"><a xlink:href="class_base_state.html" target="_top" xlink:title="{BaseState\&lt; UnitAiStateMachine \&gt;\n|+ name\l+ triggers\l# sm\l&#45; listeners\l|+ IsActiveState()\l+ GetName()\l+ GetTriggers()\l+ Init()\l+ OnStateEnter()\l+ OnStateExit()\l# AddAutoListener()\l# TriggerTransition()\l# OnMyStateEnter()\l# OnMyStateExit()\l# OnMyStateInit()\l}">
<polygon fill="white" stroke="black" points="0,-232.5 0,-432.5 167,-432.5 167,-232.5 0,-232.5"/>
<text text-anchor="middle" x="83.5" y="-420.5" font-family="Helvetica,sans-Serif" font-size="10.00">BaseState&lt; UnitAiStateMachine &gt;</text>
<polyline fill="none" stroke="black" points="0,-413.5 167,-413.5 "/>
<text text-anchor="start" x="8" y="-401.5" font-family="Helvetica,sans-Serif" font-size="10.00">+ name</text>
<text text-anchor="start" x="8" y="-390.5" font-family="Helvetica,sans-Serif" font-size="10.00">+ triggers</text>
<text text-anchor="start" x="8" y="-379.5" font-family="Helvetica,sans-Serif" font-size="10.00"># sm</text>
<text text-anchor="start" x="8" y="-368.5" font-family="Helvetica,sans-Serif" font-size="10.00">&#45; listeners</text>
<polyline fill="none" stroke="black" points="0,-361.5 167,-361.5 "/>
<text text-anchor="start" x="8" y="-349.5" font-family="Helvetica,sans-Serif" font-size="10.00">+ IsActiveState()</text>
<text text-anchor="start" x="8" y="-338.5" font-family="Helvetica,sans-Serif" font-size="10.00">+ GetName()</text>
<text text-anchor="start" x="8" y="-327.5" font-family="Helvetica,sans-Serif" font-size="10.00">+ GetTriggers()</text>
<text text-anchor="start" x="8" y="-316.5" font-family="Helvetica,sans-Serif" font-size="10.00">+ Init()</text>
<text text-anchor="start" x="8" y="-305.5" font-family="Helvetica,sans-Serif" font-size="10.00">+ OnStateEnter()</text>
<text text-anchor="start" x="8" y="-294.5" font-family="Helvetica,sans-Serif" font-size="10.00">+ OnStateExit()</text>
<text text-anchor="start" x="8" y="-283.5" font-family="Helvetica,sans-Serif" font-size="10.00"># AddAutoListener()</text>
<text text-anchor="start" x="8" y="-272.5" font-family="Helvetica,sans-Serif" font-size="10.00"># TriggerTransition()</text>
<text text-anchor="start" x="8" y="-261.5" font-family="Helvetica,sans-Serif" font-size="10.00"># OnMyStateEnter()</text>
<text text-anchor="start" x="8" y="-250.5" font-family="Helvetica,sans-Serif" font-size="10.00"># OnMyStateExit()</text>
<text text-anchor="start" x="8" y="-239.5" font-family="Helvetica,sans-Serif" font-size="10.00"># OnMyStateInit()</text>
</a>
</g>
</g>
<!-- Node2&#45;&gt;Node1 -->
<g id="edge2" class="edge"><title>Node2&#45;&gt;Node1</title>
<path fill="none" stroke="midnightblue" d="M83.5,-222.094C83.5,-212.826 83.5,-203.915 83.5,-195.819"/>
<polygon fill="none" stroke="midnightblue" points="80.0001,-222.27 83.5,-232.27 87.0001,-222.27 80.0001,-222.27"/>
</g>
</g>
</svg>
