<?xml version="1.0" encoding="UTF-8" standalone="no"?>
<!DOCTYPE svg PUBLIC "-//W3C//DTD SVG 1.1//EN"
 "http://www.w3.org/Graphics/SVG/1.1/DTD/svg11.dtd">
<!-- Generated by graphviz version 2.38.0 (20140413.2041)
 -->
<!-- Title: Notes Pages: 1 -->
<svg width="91pt" height="160pt"
 viewBox="0.00 0.00 91.00 160.00" xmlns="http://www.w3.org/2000/svg" xmlns:xlink="http://www.w3.org/1999/xlink">
<g id="graph0" class="graph" transform="scale(1 1) rotate(0) translate(4 156)">
<title>Notes</title>
<polygon fill="white" stroke="none" points="-4,4 -4,-156 87,-156 87,4 -4,4"/>
<!-- Node2 -->
<g id="node1" class="node"><title>Node2</title>
<polygon fill="#bfbfbf" stroke="black" points="20.5,-0.5 20.5,-57.5 62.5,-57.5 62.5,-0.5 20.5,-0.5"/>
<text text-anchor="middle" x="41.5" y="-45.5" font-family="Helvetica,sans-Serif" font-size="10.00">Notes</text>
<polyline fill="none" stroke="black" points="20.5,-38.5 62.5,-38.5 "/>
<text text-anchor="start" x="28.5" y="-26.5" font-family="Helvetica,sans-Serif" font-size="10.00">+ text</text>
<polyline fill="none" stroke="black" points="20.5,-19.5 62.5,-19.5 "/>
<text text-anchor="middle" x="41.5" y="-7.5" font-family="Helvetica,sans-Serif" font-size="10.00"> </text>
</g>
<!-- Node3 -->
<g id="node2" class="node"><title>Node3</title>
<polygon fill="white" stroke="#bfbfbf" points="0,-94.5 0,-151.5 83,-151.5 83,-94.5 0,-94.5"/>
<text text-anchor="middle" x="41.5" y="-139.5" font-family="Helvetica,sans-Serif" font-size="10.00">MonoBehaviour</text>
<polyline fill="none" stroke="#bfbfbf" points="0,-132.5 83,-132.5 "/>
<text text-anchor="middle" x="41.5" y="-120.5" font-family="Helvetica,sans-Serif" font-size="10.00"> </text>
<polyline fill="none" stroke="#bfbfbf" points="0,-113.5 83,-113.5 "/>
<text text-anchor="middle" x="41.5" y="-101.5" font-family="Helvetica,sans-Serif" font-size="10.00"> </text>
</g>
<!-- Node3&#45;&gt;Node2 -->
<g id="edge1" class="edge"><title>Node3&#45;&gt;Node2</title>
<path fill="none" stroke="midnightblue" d="M34.8465,-84.2092C34.6349,-75.2929 34.7713,-65.9513 35.2558,-57.5836"/>
<polygon fill="none" stroke="midnightblue" points="31.357,-84.5451 35.2547,-94.397 38.3514,-84.2648 31.357,-84.5451"/>
</g>
<!-- Node3&#45;&gt;Node2 -->
<g id="edge2" class="edge"><title>Node3&#45;&gt;Node2</title>
<path fill="none" stroke="midnightblue" d="M48.1535,-84.2092C48.3651,-75.2929 48.2287,-65.9513 47.7442,-57.5836"/>
<polygon fill="none" stroke="midnightblue" points="44.6486,-84.2648 47.7453,-94.397 51.643,-84.5451 44.6486,-84.2648"/>
</g>
</g>
</svg>
