<?xml version="1.0" encoding="UTF-8" standalone="no"?>
<!DOCTYPE svg PUBLIC "-//W3C//DTD SVG 1.1//EN"
 "http://www.w3.org/Graphics/SVG/1.1/DTD/svg11.dtd">
<!-- Generated by graphviz version 2.38.0 (20140413.2041)
 -->
<!-- Title: NetManager Pages: 1 -->
<svg width="1084pt" height="1004pt"
 viewBox="0.00 0.00 1083.50 1004.00" xmlns="http://www.w3.org/2000/svg" xmlns:xlink="http://www.w3.org/1999/xlink">
<g id="graph0" class="graph" transform="scale(1 1) rotate(0) translate(4 1000)">
<title>NetManager</title>
<polygon fill="white" stroke="none" points="-4,4 -4,-1000 1079.5,-1000 1079.5,4 -4,4"/>
<!-- Node2 -->
<g id="node1" class="node"><title>Node2</title>
<polygon fill="#bfbfbf" stroke="black" points="592,-0.5 592,-321.5 727,-321.5 727,-0.5 592,-0.5"/>
<text text-anchor="middle" x="659.5" y="-309.5" font-family="Helvetica,sans-Serif" font-size="10.00">NetManager</text>
<polyline fill="none" stroke="black" points="592,-302.5 727,-302.5 "/>
<text text-anchor="start" x="600" y="-290.5" font-family="Helvetica,sans-Serif" font-size="10.00">+ logEnabled</text>
<text text-anchor="start" x="600" y="-279.5" font-family="Helvetica,sans-Serif" font-size="10.00">+ connectedToMasterEvent</text>
<text text-anchor="start" x="600" y="-268.5" font-family="Helvetica,sans-Serif" font-size="10.00">+ hostingEvent</text>
<text text-anchor="start" x="600" y="-257.5" font-family="Helvetica,sans-Serif" font-size="10.00">+ hostingFailedEvent</text>
<text text-anchor="start" x="600" y="-246.5" font-family="Helvetica,sans-Serif" font-size="10.00">+ joinedRoomEvent</text>
<text text-anchor="start" x="600" y="-235.5" font-family="Helvetica,sans-Serif" font-size="10.00">+ joinRoomFailedEvent</text>
<text text-anchor="start" x="600" y="-224.5" font-family="Helvetica,sans-Serif" font-size="10.00">+ leftRoomEvent</text>
<text text-anchor="start" x="600" y="-213.5" font-family="Helvetica,sans-Serif" font-size="10.00">+ disconnectEvent</text>
<text text-anchor="start" x="600" y="-202.5" font-family="Helvetica,sans-Serif" font-size="10.00">&#45; curRoomName</text>
<text text-anchor="start" x="600" y="-191.5" font-family="Helvetica,sans-Serif" font-size="10.00">&#45; offlineMode</text>
<text text-anchor="start" x="600" y="-180.5" font-family="Helvetica,sans-Serif" font-size="10.00">&#45; lastReturnCode</text>
<polyline fill="none" stroke="black" points="592,-173.5 727,-173.5 "/>
<text text-anchor="start" x="600" y="-161.5" font-family="Helvetica,sans-Serif" font-size="10.00">+ Awake()</text>
<text text-anchor="start" x="600" y="-150.5" font-family="Helvetica,sans-Serif" font-size="10.00">+ Start()</text>
<text text-anchor="start" x="600" y="-139.5" font-family="Helvetica,sans-Serif" font-size="10.00">+ IsMaster()</text>
<text text-anchor="start" x="600" y="-128.5" font-family="Helvetica,sans-Serif" font-size="10.00">+ Connect()</text>
<text text-anchor="start" x="600" y="-117.5" font-family="Helvetica,sans-Serif" font-size="10.00">+ Join()</text>
<text text-anchor="start" x="600" y="-106.5" font-family="Helvetica,sans-Serif" font-size="10.00">+ Destroy()</text>
<text text-anchor="start" x="600" y="-95.5" font-family="Helvetica,sans-Serif" font-size="10.00">+ GetLastReturnCode()</text>
<text text-anchor="start" x="600" y="-84.5" font-family="Helvetica,sans-Serif" font-size="10.00">+ OnConnectedToMaster()</text>
<text text-anchor="start" x="600" y="-73.5" font-family="Helvetica,sans-Serif" font-size="10.00">+ OnJoinedRoom()</text>
<text text-anchor="start" x="600" y="-62.5" font-family="Helvetica,sans-Serif" font-size="10.00">+ OnCreateRoomFailed()</text>
<text text-anchor="start" x="600" y="-51.5" font-family="Helvetica,sans-Serif" font-size="10.00">and 9 more...</text>
<text text-anchor="start" x="600" y="-40.5" font-family="Helvetica,sans-Serif" font-size="10.00">+ Get()</text>
<text text-anchor="start" x="600" y="-29.5" font-family="Helvetica,sans-Serif" font-size="10.00">+ GetStateMachine()</text>
<text text-anchor="start" x="600" y="-18.5" font-family="Helvetica,sans-Serif" font-size="10.00">+ GetCurState()</text>
<text text-anchor="start" x="600" y="-7.5" font-family="Helvetica,sans-Serif" font-size="10.00">&#45; Init()</text>
</g>
<!-- Node2&#45;&gt;Node2 -->
<g id="edge16" class="edge"><title>Node2&#45;&gt;Node2</title>
<path fill="none" stroke="#404040" d="M727.233,-193.648C737.798,-188.768 745,-177.885 745,-161 745,-150.183 742.044,-141.83 737.142,-135.939"/>
<polygon fill="none" stroke="#404040" points="736.761,-135.647 729.565,-135.175 727.233,-128.352 734.429,-128.824 736.761,-135.647"/>
<text text-anchor="middle" x="766.5" y="-158.5" font-family="Helvetica,sans-Serif" font-size="10.00"> &#45;instance</text>
</g>
<!-- Node3 -->
<g id="node2" class="node"><title>Node3</title>
<polygon fill="white" stroke="#bfbfbf" points="0,-457.5 0,-514.5 143,-514.5 143,-457.5 0,-457.5"/>
<text text-anchor="middle" x="71.5" y="-502.5" font-family="Helvetica,sans-Serif" font-size="10.00">MonoBehaviourPunCallbacks</text>
<polyline fill="none" stroke="#bfbfbf" points="0,-495.5 143,-495.5 "/>
<text text-anchor="middle" x="71.5" y="-483.5" font-family="Helvetica,sans-Serif" font-size="10.00"> </text>
<polyline fill="none" stroke="#bfbfbf" points="0,-476.5 143,-476.5 "/>
<text text-anchor="middle" x="71.5" y="-464.5" font-family="Helvetica,sans-Serif" font-size="10.00"> </text>
</g>
<!-- Node3&#45;&gt;Node2 -->
<g id="edge1" class="edge"><title>Node3&#45;&gt;Node2</title>
<path fill="none" stroke="midnightblue" d="M92.4163,-448.712C106.72,-426.484 127.414,-398.792 151.5,-380 289.404,-272.409 488.422,-207.522 591.645,-179.065"/>
<polygon fill="none" stroke="midnightblue" points="89.4149,-446.91 87.0651,-457.241 95.3445,-450.63 89.4149,-446.91"/>
</g>
<!-- Node4 -->
<g id="node3" class="node"><title>Node4</title>
<g id="a_node3"><a xlink:href="classnet_1_1_unity_client_properties_update_event.html" target="_top" xlink:title="{UnityClientPropertiesUpdate\lEvent\n||}">
<polygon fill="white" stroke="black" points="161,-452 161,-520 300,-520 300,-452 161,-452"/>
<text text-anchor="start" x="169" y="-508" font-family="Helvetica,sans-Serif" font-size="10.00">UnityClientPropertiesUpdate</text>
<text text-anchor="middle" x="230.5" y="-497" font-family="Helvetica,sans-Serif" font-size="10.00">Event</text>
<polyline fill="none" stroke="black" points="161,-490 300,-490 "/>
<text text-anchor="middle" x="230.5" y="-478" font-family="Helvetica,sans-Serif" font-size="10.00"> </text>
<polyline fill="none" stroke="black" points="161,-471 300,-471 "/>
<text text-anchor="middle" x="230.5" y="-459" font-family="Helvetica,sans-Serif" font-size="10.00"> </text>
</a>
</g>
</g>
<!-- Node4&#45;&gt;Node2 -->
<g id="edge2" class="edge"><title>Node4&#45;&gt;Node2</title>
<path fill="none" stroke="#404040" d="M252.187,-451.731C266.897,-430.256 287.436,-402.274 308.5,-380 387.071,-296.916 503.89,-232.775 580.858,-196.201"/>
<polygon fill="none" stroke="#404040" points="581.055,-196.108 584.784,-189.937 591.916,-191.006 588.186,-197.177 581.055,-196.108"/>
<text text-anchor="middle" x="415.5" y="-348.5" font-family="Helvetica,sans-Serif" font-size="10.00"> +clientPropertiesUpdateEvent</text>
</g>
<!-- Node5 -->
<g id="node4" class="node"><title>Node5</title>
<polygon fill="white" stroke="#bfbfbf" points="111,-689 111,-757 296,-757 296,-689 111,-689"/>
<text text-anchor="start" x="119" y="-745" font-family="Helvetica,sans-Serif" font-size="10.00">UnityEvent&lt; string,</text>
<text text-anchor="middle" x="203.5" y="-734" font-family="Helvetica,sans-Serif" font-size="10.00"> ExitGames.Client.Photon.Hashtable &gt;</text>
<polyline fill="none" stroke="#bfbfbf" points="111,-727 296,-727 "/>
<text text-anchor="middle" x="203.5" y="-715" font-family="Helvetica,sans-Serif" font-size="10.00"> </text>
<polyline fill="none" stroke="#bfbfbf" points="111,-708 296,-708 "/>
<text text-anchor="middle" x="203.5" y="-696" font-family="Helvetica,sans-Serif" font-size="10.00"> </text>
</g>
<!-- Node5&#45;&gt;Node4 -->
<g id="edge3" class="edge"><title>Node5&#45;&gt;Node4</title>
<path fill="none" stroke="midnightblue" d="M208.453,-678.893C213.719,-633.055 221.933,-561.56 226.708,-520.003"/>
<polygon fill="none" stroke="midnightblue" points="204.976,-678.494 207.311,-688.829 211.93,-679.294 204.976,-678.494"/>
</g>
<!-- Node6 -->
<g id="node5" class="node"><title>Node6</title>
<g id="a_node5"><a xlink:href="classnet_1_1_net_event.html" target="_top" xlink:title="{NetEvent\&lt; net.VoidNetData \&gt;\n|&#45; eventCode\l&#45; localEvent\l&#45; target\l&#45; defaultData\l&#45; reliable\l&#45; cachedForRoom\l&#45; hasDefaultData\l|+ NetEvent()\l+ NetEvent()\l+ AddListener()\l+ RemoveListener()\l+ Invoke()\l+ Invoke()\l+ OnEvent()\l&#45; ~NetEvent()\l&#45; GetSpecificTargetActorNr()\l}">
<polygon fill="white" stroke="black" points="318,-380.5 318,-591.5 463,-591.5 463,-380.5 318,-380.5"/>
<text text-anchor="middle" x="390.5" y="-579.5" font-family="Helvetica,sans-Serif" font-size="10.00">NetEvent&lt; net.VoidNetData &gt;</text>
<polyline fill="none" stroke="black" points="318,-572.5 463,-572.5 "/>
<text text-anchor="start" x="326" y="-560.5" font-family="Helvetica,sans-Serif" font-size="10.00">&#45; eventCode</text>
<text text-anchor="start" x="326" y="-549.5" font-family="Helvetica,sans-Serif" font-size="10.00">&#45; localEvent</text>
<text text-anchor="start" x="326" y="-538.5" font-family="Helvetica,sans-Serif" font-size="10.00">&#45; target</text>
<text text-anchor="start" x="326" y="-527.5" font-family="Helvetica,sans-Serif" font-size="10.00">&#45; defaultData</text>
<text text-anchor="start" x="326" y="-516.5" font-family="Helvetica,sans-Serif" font-size="10.00">&#45; reliable</text>
<text text-anchor="start" x="326" y="-505.5" font-family="Helvetica,sans-Serif" font-size="10.00">&#45; cachedForRoom</text>
<text text-anchor="start" x="326" y="-494.5" font-family="Helvetica,sans-Serif" font-size="10.00">&#45; hasDefaultData</text>
<polyline fill="none" stroke="black" points="318,-487.5 463,-487.5 "/>
<text text-anchor="start" x="326" y="-475.5" font-family="Helvetica,sans-Serif" font-size="10.00">+ NetEvent()</text>
<text text-anchor="start" x="326" y="-464.5" font-family="Helvetica,sans-Serif" font-size="10.00">+ NetEvent()</text>
<text text-anchor="start" x="326" y="-453.5" font-family="Helvetica,sans-Serif" font-size="10.00">+ AddListener()</text>
<text text-anchor="start" x="326" y="-442.5" font-family="Helvetica,sans-Serif" font-size="10.00">+ RemoveListener()</text>
<text text-anchor="start" x="326" y="-431.5" font-family="Helvetica,sans-Serif" font-size="10.00">+ Invoke()</text>
<text text-anchor="start" x="326" y="-420.5" font-family="Helvetica,sans-Serif" font-size="10.00">+ Invoke()</text>
<text text-anchor="start" x="326" y="-409.5" font-family="Helvetica,sans-Serif" font-size="10.00">+ OnEvent()</text>
<text text-anchor="start" x="326" y="-398.5" font-family="Helvetica,sans-Serif" font-size="10.00">&#45; ~NetEvent()</text>
<text text-anchor="start" x="326" y="-387.5" font-family="Helvetica,sans-Serif" font-size="10.00">&#45; GetSpecificTargetActorNr()</text>
</a>
</g>
</g>
<!-- Node6&#45;&gt;Node2 -->
<g id="edge4" class="edge"><title>Node6&#45;&gt;Node2</title>
<path fill="none" stroke="#404040" d="M463.157,-391.505C466.299,-387.607 469.423,-383.758 472.5,-380 508.544,-335.972 549.61,-287.88 584.059,-248.095"/>
<polygon fill="none" stroke="#404040" points="584.123,-248.022 585.031,-240.868 591.984,-238.955 591.076,-246.109 584.123,-248.022"/>
<text text-anchor="middle" x="565" y="-348.5" font-family="Helvetica,sans-Serif" font-size="10.00"> +backToMainMenuNetEvent</text>
</g>
<!-- Node7 -->
<g id="node6" class="node"><title>Node7</title>
<g id="a_node6"><a xlink:href="classnet_1_1_unity_string_event.html" target="_top" xlink:title="{UnityStringEvent\n||}">
<polygon fill="white" stroke="black" points="682,-843.5 682,-900.5 771,-900.5 771,-843.5 682,-843.5"/>
<text text-anchor="middle" x="726.5" y="-888.5" font-family="Helvetica,sans-Serif" font-size="10.00">UnityStringEvent</text>
<polyline fill="none" stroke="black" points="682,-881.5 771,-881.5 "/>
<text text-anchor="middle" x="726.5" y="-869.5" font-family="Helvetica,sans-Serif" font-size="10.00"> </text>
<polyline fill="none" stroke="black" points="682,-862.5 771,-862.5 "/>
<text text-anchor="middle" x="726.5" y="-850.5" font-family="Helvetica,sans-Serif" font-size="10.00"> </text>
</a>
</g>
</g>
<!-- Node7&#45;&gt;Node2 -->
<g id="edge5" class="edge"><title>Node7&#45;&gt;Node2</title>
<path fill="none" stroke="#404040" d="M729.081,-843.37C735.501,-768.337 749.847,-554.694 723.5,-380 721.203,-364.77 718.118,-349.115 714.538,-333.518"/>
<polygon fill="none" stroke="#404040" points="714.483,-333.285 709.205,-328.372 711.71,-321.61 716.988,-326.523 714.483,-333.285"/>
<text text-anchor="middle" x="797.5" y="-624" font-family="Helvetica,sans-Serif" font-size="10.00"> +clientEnteredRoomEvent</text>
<text text-anchor="middle" x="797.5" y="-613" font-family="Helvetica,sans-Serif" font-size="10.00">+clientLeftRoomEvent</text>
</g>
<!-- Node10 -->
<g id="node9" class="node"><title>Node10</title>
<g id="a_node9"><a xlink:href="class_state_machine.html" target="_top" xlink:title="Common Base class for all state machines. ">
<polygon fill="white" stroke="black" points="557.5,-650.5 557.5,-795.5 687.5,-795.5 687.5,-650.5 557.5,-650.5"/>
<text text-anchor="middle" x="622.5" y="-783.5" font-family="Helvetica,sans-Serif" font-size="10.00">StateMachine</text>
<polyline fill="none" stroke="black" points="557.5,-776.5 687.5,-776.5 "/>
<text text-anchor="start" x="565.5" y="-764.5" font-family="Helvetica,sans-Serif" font-size="10.00">+ logEnabled</text>
<text text-anchor="start" x="565.5" y="-753.5" font-family="Helvetica,sans-Serif" font-size="10.00"># controller</text>
<text text-anchor="start" x="565.5" y="-742.5" font-family="Helvetica,sans-Serif" font-size="10.00">&#45; states</text>
<polyline fill="none" stroke="black" points="557.5,-735.5 687.5,-735.5 "/>
<text text-anchor="start" x="565.5" y="-723.5" font-family="Helvetica,sans-Serif" font-size="10.00">+ GetActiveState()</text>
<text text-anchor="start" x="565.5" y="-712.5" font-family="Helvetica,sans-Serif" font-size="10.00">+ TriggerTransition()</text>
<text text-anchor="start" x="565.5" y="-701.5" font-family="Helvetica,sans-Serif" font-size="10.00">+ TriggerTransition()</text>
<text text-anchor="start" x="565.5" y="-690.5" font-family="Helvetica,sans-Serif" font-size="10.00">+ TriggerTransition()</text>
<text text-anchor="start" x="565.5" y="-679.5" font-family="Helvetica,sans-Serif" font-size="10.00">+ AnnounceCurrentState()</text>
<text text-anchor="start" x="565.5" y="-668.5" font-family="Helvetica,sans-Serif" font-size="10.00"># MyAwake()</text>
<text text-anchor="start" x="565.5" y="-657.5" font-family="Helvetica,sans-Serif" font-size="10.00">&#45; Awake()</text>
</a>
</g>
</g>
<!-- Node7&#45;&gt;Node10 -->
<g id="edge10" class="edge"><title>Node7&#45;&gt;Node10</title>
<path fill="none" stroke="#404040" d="M681.595,-856.261C666.361,-849.117 650.647,-838.976 640.5,-825 636.576,-819.595 633.415,-813.607 630.878,-807.321"/>
<polygon fill="none" stroke="#404040" points="630.808,-807.114 625.094,-802.716 626.956,-795.749 632.67,-800.147 630.808,-807.114"/>
<text text-anchor="middle" x="685" y="-817" font-family="Helvetica,sans-Serif" font-size="10.00"> +stateEnteredEvent</text>
</g>
<!-- Node8 -->
<g id="node7" class="node"><title>Node8</title>
<polygon fill="white" stroke="#bfbfbf" points="674,-938.5 674,-995.5 779,-995.5 779,-938.5 674,-938.5"/>
<text text-anchor="middle" x="726.5" y="-983.5" font-family="Helvetica,sans-Serif" font-size="10.00">UnityEvent&lt; string &gt;</text>
<polyline fill="none" stroke="#bfbfbf" points="674,-976.5 779,-976.5 "/>
<text text-anchor="middle" x="726.5" y="-964.5" font-family="Helvetica,sans-Serif" font-size="10.00"> </text>
<polyline fill="none" stroke="#bfbfbf" points="674,-957.5 779,-957.5 "/>
<text text-anchor="middle" x="726.5" y="-945.5" font-family="Helvetica,sans-Serif" font-size="10.00"> </text>
</g>
<!-- Node8&#45;&gt;Node7 -->
<g id="edge6" class="edge"><title>Node8&#45;&gt;Node7</title>
<path fill="none" stroke="midnightblue" d="M726.5,-928.235C726.5,-919.028 726.5,-909.346 726.5,-900.705"/>
<polygon fill="none" stroke="midnightblue" points="723,-928.349 726.5,-938.349 730,-928.349 723,-928.349"/>
</g>
<!-- Node9 -->
<g id="node8" class="node"><title>Node9</title>
<g id="a_node8"><a xlink:href="classnet_1_1_net_state_machine.html" target="_top" xlink:title="{NetStateMachine\n|+ netOverlayPrefab\l&#45; netOverlayInstance\l|+ IsMaster()\l+ GetCurStateName()\l+ GetNetOverlay()\l+ HideNetOverlay()\l# MyAwake()\l&#45; OnDisconnect()\l}">
<polygon fill="white" stroke="black" points="604,-424.5 604,-547.5 715,-547.5 715,-424.5 604,-424.5"/>
<text text-anchor="middle" x="659.5" y="-535.5" font-family="Helvetica,sans-Serif" font-size="10.00">NetStateMachine</text>
<polyline fill="none" stroke="black" points="604,-528.5 715,-528.5 "/>
<text text-anchor="start" x="612" y="-516.5" font-family="Helvetica,sans-Serif" font-size="10.00">+ netOverlayPrefab</text>
<text text-anchor="start" x="612" y="-505.5" font-family="Helvetica,sans-Serif" font-size="10.00">&#45; netOverlayInstance</text>
<polyline fill="none" stroke="black" points="604,-498.5 715,-498.5 "/>
<text text-anchor="start" x="612" y="-486.5" font-family="Helvetica,sans-Serif" font-size="10.00">+ IsMaster()</text>
<text text-anchor="start" x="612" y="-475.5" font-family="Helvetica,sans-Serif" font-size="10.00">+ GetCurStateName()</text>
<text text-anchor="start" x="612" y="-464.5" font-family="Helvetica,sans-Serif" font-size="10.00">+ GetNetOverlay()</text>
<text text-anchor="start" x="612" y="-453.5" font-family="Helvetica,sans-Serif" font-size="10.00">+ HideNetOverlay()</text>
<text text-anchor="start" x="612" y="-442.5" font-family="Helvetica,sans-Serif" font-size="10.00"># MyAwake()</text>
<text text-anchor="start" x="612" y="-431.5" font-family="Helvetica,sans-Serif" font-size="10.00">&#45; OnDisconnect()</text>
</a>
</g>
</g>
<!-- Node9&#45;&gt;Node2 -->
<g id="edge7" class="edge"><title>Node9&#45;&gt;Node2</title>
<path fill="none" stroke="#404040" d="M659.5,-424.246C659.5,-398.238 659.5,-366.427 659.5,-334.047"/>
<polygon fill="none" stroke="#404040" points="659.5,-333.62 655.5,-327.62 659.5,-321.62 663.5,-327.62 659.5,-333.62"/>
<text text-anchor="middle" x="677" y="-348.5" font-family="Helvetica,sans-Serif" font-size="10.00"> &#45;netSM</text>
</g>
<!-- Node10&#45;&gt;Node9 -->
<g id="edge8" class="edge"><title>Node10&#45;&gt;Node9</title>
<path fill="none" stroke="midnightblue" d="M662.327,-640.557C663.14,-637.698 663.87,-634.841 664.5,-632 670.556,-604.704 670.42,-573.819 668.323,-547.588"/>
<polygon fill="none" stroke="midnightblue" points="658.935,-639.675 659.263,-650.265 665.611,-641.782 658.935,-639.675"/>
</g>
<!-- Node12 -->
<g id="node11" class="node"><title>Node12</title>
<g id="a_node11"><a xlink:href="class_state.html" target="_top" xlink:title="Extended functionality for Unity SM Behaviours and makes them complete &#39;States&#39;. ">
<polygon fill="white" stroke="black" points="481.5,-408 481.5,-564 585.5,-564 585.5,-408 481.5,-408"/>
<text text-anchor="middle" x="533.5" y="-552" font-family="Helvetica,sans-Serif" font-size="10.00">State</text>
<polyline fill="none" stroke="black" points="481.5,-545 585.5,-545 "/>
<text text-anchor="start" x="489.5" y="-533" font-family="Helvetica,sans-Serif" font-size="10.00">+ name</text>
<text text-anchor="start" x="489.5" y="-522" font-family="Helvetica,sans-Serif" font-size="10.00">+ triggers</text>
<polyline fill="none" stroke="black" points="481.5,-515 585.5,-515 "/>
<text text-anchor="start" x="489.5" y="-503" font-family="Helvetica,sans-Serif" font-size="10.00">+ IsActiveState()</text>
<text text-anchor="start" x="489.5" y="-492" font-family="Helvetica,sans-Serif" font-size="10.00">+ Init()</text>
<text text-anchor="start" x="489.5" y="-481" font-family="Helvetica,sans-Serif" font-size="10.00">+ OnStateEnter()</text>
<text text-anchor="start" x="489.5" y="-470" font-family="Helvetica,sans-Serif" font-size="10.00">+ OnStateExit()</text>
<text text-anchor="start" x="489.5" y="-459" font-family="Helvetica,sans-Serif" font-size="10.00"># AddAutoListener()</text>
<text text-anchor="start" x="489.5" y="-448" font-family="Helvetica,sans-Serif" font-size="10.00"># TriggerTransition()</text>
<text text-anchor="start" x="489.5" y="-437" font-family="Helvetica,sans-Serif" font-size="10.00"># OnMyStateEnter()</text>
<text text-anchor="start" x="489.5" y="-426" font-family="Helvetica,sans-Serif" font-size="10.00"># OnMyStateExit()</text>
<text text-anchor="start" x="489.5" y="-415" font-family="Helvetica,sans-Serif" font-size="10.00"># OnMyStateInit()</text>
</a>
</g>
</g>
<!-- Node10&#45;&gt;Node12 -->
<g id="edge13" class="edge"><title>Node10&#45;&gt;Node12</title>
<path fill="none" stroke="#404040" d="M567.527,-650.438C564.149,-644.379 561.079,-638.195 558.5,-632 551.218,-614.506 546.057,-594.975 542.399,-576.058"/>
<polygon fill="none" stroke="#404040" points="542.367,-575.876 537.375,-570.673 540.258,-564.063 545.25,-569.267 542.367,-575.876"/>
<text text-anchor="middle" x="569.5" y="-618.5" font-family="Helvetica,sans-Serif" font-size="10.00"> #sm</text>
</g>
<!-- Node11 -->
<g id="node10" class="node"><title>Node11</title>
<polygon fill="white" stroke="#bfbfbf" points="565,-843.5 565,-900.5 648,-900.5 648,-843.5 565,-843.5"/>
<text text-anchor="middle" x="606.5" y="-888.5" font-family="Helvetica,sans-Serif" font-size="10.00">MonoBehaviour</text>
<polyline fill="none" stroke="#bfbfbf" points="565,-881.5 648,-881.5 "/>
<text text-anchor="middle" x="606.5" y="-869.5" font-family="Helvetica,sans-Serif" font-size="10.00"> </text>
<polyline fill="none" stroke="#bfbfbf" points="565,-862.5 648,-862.5 "/>
<text text-anchor="middle" x="606.5" y="-850.5" font-family="Helvetica,sans-Serif" font-size="10.00"> </text>
</g>
<!-- Node11&#45;&gt;Node10 -->
<g id="edge9" class="edge"><title>Node11&#45;&gt;Node10</title>
<path fill="none" stroke="midnightblue" d="M610.611,-833.229C611.868,-821.681 613.294,-808.577 614.712,-795.555"/>
<polygon fill="none" stroke="midnightblue" points="607.112,-833.03 609.509,-843.35 614.071,-833.788 607.112,-833.03"/>
</g>
<!-- Node12&#45;&gt;Node10 -->
<g id="edge11" class="edge"><title>Node12&#45;&gt;Node10</title>
<path fill="none" stroke="#404040" d="M566.386,-564.114C572.584,-579.256 578.88,-595.072 584.5,-610 588.01,-619.323 591.554,-629.135 594.994,-638.915"/>
<polygon fill="none" stroke="#404040" points="595.03,-639.019 600.78,-643.37 598.976,-650.351 593.225,-646 595.03,-639.019"/>
<text text-anchor="middle" x="621" y="-618.5" font-family="Helvetica,sans-Serif" font-size="10.00"> #activeState</text>
</g>
<!-- Node13 -->
<g id="node12" class="node"><title>Node13</title>
<polygon fill="white" stroke="#bfbfbf" points="314,-694.5 314,-751.5 433,-751.5 433,-694.5 314,-694.5"/>
<text text-anchor="middle" x="373.5" y="-739.5" font-family="Helvetica,sans-Serif" font-size="10.00">StateMachineBehaviour</text>
<polyline fill="none" stroke="#bfbfbf" points="314,-732.5 433,-732.5 "/>
<text text-anchor="middle" x="373.5" y="-720.5" font-family="Helvetica,sans-Serif" font-size="10.00"> </text>
<polyline fill="none" stroke="#bfbfbf" points="314,-713.5 433,-713.5 "/>
<text text-anchor="middle" x="373.5" y="-701.5" font-family="Helvetica,sans-Serif" font-size="10.00"> </text>
</g>
<!-- Node13&#45;&gt;Node12 -->
<g id="edge12" class="edge"><title>Node13&#45;&gt;Node12</title>
<path fill="none" stroke="midnightblue" d="M402.135,-686.296C422.303,-660.613 449.517,-624.855 471.5,-592 477.445,-583.115 483.457,-573.649 489.279,-564.178"/>
<polygon fill="none" stroke="midnightblue" points="399.295,-684.245 395.85,-694.264 404.791,-688.58 399.295,-684.245"/>
</g>
<!-- Node14 -->
<g id="node13" class="node"><title>Node14</title>
<g id="a_node13"><a xlink:href="class_listener_group.html" target="_top" xlink:title="Helper class to execute adding and removing on all held Listeners (Events + Callbacks). ">
<polygon fill="white" stroke="black" points="451.5,-678 451.5,-768 539.5,-768 539.5,-678 451.5,-678"/>
<text text-anchor="middle" x="495.5" y="-756" font-family="Helvetica,sans-Serif" font-size="10.00">ListenerGroup</text>
<polyline fill="none" stroke="black" points="451.5,-749 539.5,-749 "/>
<text text-anchor="start" x="459.5" y="-737" font-family="Helvetica,sans-Serif" font-size="10.00">&#45; heldListeners</text>
<polyline fill="none" stroke="black" points="451.5,-730 539.5,-730 "/>
<text text-anchor="start" x="459.5" y="-718" font-family="Helvetica,sans-Serif" font-size="10.00">+ Add()</text>
<text text-anchor="start" x="459.5" y="-707" font-family="Helvetica,sans-Serif" font-size="10.00">+ Add()</text>
<text text-anchor="start" x="459.5" y="-696" font-family="Helvetica,sans-Serif" font-size="10.00">+ ActivateAll()</text>
<text text-anchor="start" x="459.5" y="-685" font-family="Helvetica,sans-Serif" font-size="10.00">+ DeactivateAll()</text>
</a>
</g>
</g>
<!-- Node14&#45;&gt;Node12 -->
<g id="edge14" class="edge"><title>Node14&#45;&gt;Node12</title>
<path fill="none" stroke="#404040" d="M493.029,-677.888C492.599,-657.172 493.131,-632.205 496.5,-610 498.188,-598.873 500.649,-587.353 503.511,-576.027"/>
<polygon fill="none" stroke="#404040" points="503.541,-575.916 501.217,-569.09 506.625,-564.319 508.949,-571.146 503.541,-575.916"/>
<text text-anchor="middle" x="518" y="-618.5" font-family="Helvetica,sans-Serif" font-size="10.00"> &#45;listeners</text>
</g>
<!-- Node15 -->
<g id="node14" class="node"><title>Node15</title>
<g id="a_node14"><a xlink:href="classnet_1_1_net_event.html" target="_top" xlink:title="{NetEvent\&lt; net.IntNetData \&gt;\n|&#45; eventCode\l&#45; localEvent\l&#45; target\l&#45; defaultData\l&#45; reliable\l&#45; cachedForRoom\l&#45; hasDefaultData\l|+ NetEvent()\l+ NetEvent()\l+ AddListener()\l+ RemoveListener()\l+ Invoke()\l+ Invoke()\l+ OnEvent()\l&#45; ~NetEvent()\l&#45; GetSpecificTargetActorNr()\l}">
<polygon fill="white" stroke="black" points="772,-380.5 772,-591.5 911,-591.5 911,-380.5 772,-380.5"/>
<text text-anchor="middle" x="841.5" y="-579.5" font-family="Helvetica,sans-Serif" font-size="10.00">NetEvent&lt; net.IntNetData &gt;</text>
<polyline fill="none" stroke="black" points="772,-572.5 911,-572.5 "/>
<text text-anchor="start" x="780" y="-560.5" font-family="Helvetica,sans-Serif" font-size="10.00">&#45; eventCode</text>
<text text-anchor="start" x="780" y="-549.5" font-family="Helvetica,sans-Serif" font-size="10.00">&#45; localEvent</text>
<text text-anchor="start" x="780" y="-538.5" font-family="Helvetica,sans-Serif" font-size="10.00">&#45; target</text>
<text text-anchor="start" x="780" y="-527.5" font-family="Helvetica,sans-Serif" font-size="10.00">&#45; defaultData</text>
<text text-anchor="start" x="780" y="-516.5" font-family="Helvetica,sans-Serif" font-size="10.00">&#45; reliable</text>
<text text-anchor="start" x="780" y="-505.5" font-family="Helvetica,sans-Serif" font-size="10.00">&#45; cachedForRoom</text>
<text text-anchor="start" x="780" y="-494.5" font-family="Helvetica,sans-Serif" font-size="10.00">&#45; hasDefaultData</text>
<polyline fill="none" stroke="black" points="772,-487.5 911,-487.5 "/>
<text text-anchor="start" x="780" y="-475.5" font-family="Helvetica,sans-Serif" font-size="10.00">+ NetEvent()</text>
<text text-anchor="start" x="780" y="-464.5" font-family="Helvetica,sans-Serif" font-size="10.00">+ NetEvent()</text>
<text text-anchor="start" x="780" y="-453.5" font-family="Helvetica,sans-Serif" font-size="10.00">+ AddListener()</text>
<text text-anchor="start" x="780" y="-442.5" font-family="Helvetica,sans-Serif" font-size="10.00">+ RemoveListener()</text>
<text text-anchor="start" x="780" y="-431.5" font-family="Helvetica,sans-Serif" font-size="10.00">+ Invoke()</text>
<text text-anchor="start" x="780" y="-420.5" font-family="Helvetica,sans-Serif" font-size="10.00">+ Invoke()</text>
<text text-anchor="start" x="780" y="-409.5" font-family="Helvetica,sans-Serif" font-size="10.00">+ OnEvent()</text>
<text text-anchor="start" x="780" y="-398.5" font-family="Helvetica,sans-Serif" font-size="10.00">&#45; ~NetEvent()</text>
<text text-anchor="start" x="780" y="-387.5" font-family="Helvetica,sans-Serif" font-size="10.00">&#45; GetSpecificTargetActorNr()</text>
</a>
</g>
</g>
<!-- Node15&#45;&gt;Node2 -->
<g id="edge15" class="edge"><title>Node15&#45;&gt;Node2</title>
<path fill="none" stroke="#404040" d="M782.41,-380.131C766.695,-352.241 749.526,-321.771 733.137,-292.686"/>
<polygon fill="none" stroke="#404040" points="733.03,-292.495 726.599,-289.231 727.139,-282.04 733.569,-285.304 733.03,-292.495"/>
<text text-anchor="start" x="772.5" y="-354" font-family="Helvetica,sans-Serif" font-size="10.00"> +spawnIndexAssignmentNet</text>
<text text-anchor="middle" x="836" y="-343" font-family="Helvetica,sans-Serif" font-size="10.00">Event</text>
</g>
<!-- Node16 -->
<g id="node15" class="node"><title>Node16</title>
<g id="a_node15"><a xlink:href="classnet_1_1_unity_room_properties_update_event.html" target="_top" xlink:title="{UnityRoomPropertiesUpdate\lEvent\n||}">
<polygon fill="white" stroke="black" points="929.5,-452 929.5,-520 1069.5,-520 1069.5,-452 929.5,-452"/>
<text text-anchor="start" x="937.5" y="-508" font-family="Helvetica,sans-Serif" font-size="10.00">UnityRoomPropertiesUpdate</text>
<text text-anchor="middle" x="999.5" y="-497" font-family="Helvetica,sans-Serif" font-size="10.00">Event</text>
<polyline fill="none" stroke="black" points="929.5,-490 1069.5,-490 "/>
<text text-anchor="middle" x="999.5" y="-478" font-family="Helvetica,sans-Serif" font-size="10.00"> </text>
<polyline fill="none" stroke="black" points="929.5,-471 1069.5,-471 "/>
<text text-anchor="middle" x="999.5" y="-459" font-family="Helvetica,sans-Serif" font-size="10.00"> </text>
</a>
</g>
</g>
<!-- Node16&#45;&gt;Node2 -->
<g id="edge17" class="edge"><title>Node16&#45;&gt;Node2</title>
<path fill="none" stroke="#404040" d="M982.06,-451.795C964.752,-420.744 936.142,-374.16 903.5,-340 854.189,-288.396 788.331,-241.344 737.465,-208.593"/>
<polygon fill="none" stroke="#404040" points="737.293,-208.484 730.084,-208.63 727.176,-202.031 734.385,-201.885 737.293,-208.484"/>
<text text-anchor="middle" x="987.5" y="-348.5" font-family="Helvetica,sans-Serif" font-size="10.00"> +roomPropertiesUpdateEvent</text>
</g>
<!-- Node17 -->
<g id="node16" class="node"><title>Node17</title>
<polygon fill="white" stroke="#bfbfbf" points="923.5,-689 923.5,-757 1075.5,-757 1075.5,-689 923.5,-689"/>
<text text-anchor="start" x="931.5" y="-745" font-family="Helvetica,sans-Serif" font-size="10.00">UnityEvent&lt; ExitGames.Client.</text>
<text text-anchor="middle" x="999.5" y="-734" font-family="Helvetica,sans-Serif" font-size="10.00">Photon.Hashtable &gt;</text>
<polyline fill="none" stroke="#bfbfbf" points="923.5,-727 1075.5,-727 "/>
<text text-anchor="middle" x="999.5" y="-715" font-family="Helvetica,sans-Serif" font-size="10.00"> </text>
<polyline fill="none" stroke="#bfbfbf" points="923.5,-708 1075.5,-708 "/>
<text text-anchor="middle" x="999.5" y="-696" font-family="Helvetica,sans-Serif" font-size="10.00"> </text>
</g>
<!-- Node17&#45;&gt;Node16 -->
<g id="edge18" class="edge"><title>Node17&#45;&gt;Node16</title>
<path fill="none" stroke="midnightblue" d="M999.5,-678.604C999.5,-632.755 999.5,-561.473 999.5,-520.003"/>
<polygon fill="none" stroke="midnightblue" points="996,-678.829 999.5,-688.829 1003,-678.829 996,-678.829"/>
</g>
</g>
</svg>
