<?xml version="1.0" encoding="UTF-8" standalone="no"?>
<!DOCTYPE svg PUBLIC "-//W3C//DTD SVG 1.1//EN"
 "http://www.w3.org/Graphics/SVG/1.1/DTD/svg11.dtd">
<!-- Generated by graphviz version 2.38.0 (20140413.2041)
 -->
<!-- Title: selectionMainFunction Pages: 1 -->
<svg width="228pt" height="336pt"
 viewBox="0.00 0.00 228.00 336.00" xmlns="http://www.w3.org/2000/svg" xmlns:xlink="http://www.w3.org/1999/xlink">
<g id="graph0" class="graph" transform="scale(1 1) rotate(0) translate(4 332)">
<title>selectionMainFunction</title>
<polygon fill="white" stroke="none" points="-4,4 -4,-332 224,-332 224,4 -4,4"/>
<!-- Node2 -->
<g id="node1" class="node"><title>Node2</title>
<polygon fill="#bfbfbf" stroke="black" points="43.5,-0.5 43.5,-134.5 157.5,-134.5 157.5,-0.5 43.5,-0.5"/>
<text text-anchor="middle" x="100.5" y="-122.5" font-family="Helvetica,sans-Serif" font-size="10.00">selectionMainFunction</text>
<polyline fill="none" stroke="black" points="43.5,-115.5 157.5,-115.5 "/>
<text text-anchor="start" x="51.5" y="-103.5" font-family="Helvetica,sans-Serif" font-size="10.00">&#45; hit</text>
<text text-anchor="start" x="51.5" y="-92.5" font-family="Helvetica,sans-Serif" font-size="10.00">&#45; dragSelect</text>
<text text-anchor="start" x="51.5" y="-81.5" font-family="Helvetica,sans-Serif" font-size="10.00">&#45; results</text>
<text text-anchor="start" x="51.5" y="-70.5" font-family="Helvetica,sans-Serif" font-size="10.00">&#45; p1</text>
<text text-anchor="start" x="51.5" y="-59.5" font-family="Helvetica,sans-Serif" font-size="10.00">&#45; p2</text>
<text text-anchor="start" x="51.5" y="-48.5" font-family="Helvetica,sans-Serif" font-size="10.00">&#45; corners</text>
<polyline fill="none" stroke="black" points="43.5,-41.5 157.5,-41.5 "/>
<text text-anchor="start" x="51.5" y="-29.5" font-family="Helvetica,sans-Serif" font-size="10.00">&#45; Update()</text>
<text text-anchor="start" x="51.5" y="-18.5" font-family="Helvetica,sans-Serif" font-size="10.00">&#45; OnGUI()</text>
<text text-anchor="start" x="51.5" y="-7.5" font-family="Helvetica,sans-Serif" font-size="10.00">&#45; getCornerPoints()</text>
</g>
<!-- Node3 -->
<g id="node2" class="node"><title>Node3</title>
<polygon fill="white" stroke="#bfbfbf" points="0,-226.5 0,-283.5 83,-283.5 83,-226.5 0,-226.5"/>
<text text-anchor="middle" x="41.5" y="-271.5" font-family="Helvetica,sans-Serif" font-size="10.00">MonoBehaviour</text>
<polyline fill="none" stroke="#bfbfbf" points="0,-264.5 83,-264.5 "/>
<text text-anchor="middle" x="41.5" y="-252.5" font-family="Helvetica,sans-Serif" font-size="10.00"> </text>
<polyline fill="none" stroke="#bfbfbf" points="0,-245.5 83,-245.5 "/>
<text text-anchor="middle" x="41.5" y="-233.5" font-family="Helvetica,sans-Serif" font-size="10.00"> </text>
</g>
<!-- Node3&#45;&gt;Node2 -->
<g id="edge1" class="edge"><title>Node3&#45;&gt;Node2</title>
<path fill="none" stroke="midnightblue" d="M53.3801,-216.648C60.8541,-193.15 70.7096,-162.163 79.4745,-134.605"/>
<polygon fill="none" stroke="midnightblue" points="50.0286,-215.638 50.3329,-226.229 56.6993,-217.76 50.0286,-215.638"/>
</g>
<!-- Node4 -->
<g id="node3" class="node"><title>Node4</title>
<g id="a_node3"><a xlink:href="classselection_list_of_objects.html" target="_top" xlink:title="{selectionListOfObjects\n|+ selectedObjects\l+ highlightThickness\l+ highlightColor\l+ debugOutput\l&#45; renderer\l|+ addSelectedObject()\l+ addSelectedObjects()\l+ deselectObject()\l+ deselectAllObjects()\l&#45; highlightUnit()\l}">
<polygon fill="white" stroke="black" points="101,-182.5 101,-327.5 220,-327.5 220,-182.5 101,-182.5"/>
<text text-anchor="middle" x="160.5" y="-315.5" font-family="Helvetica,sans-Serif" font-size="10.00">selectionListOfObjects</text>
<polyline fill="none" stroke="black" points="101,-308.5 220,-308.5 "/>
<text text-anchor="start" x="109" y="-296.5" font-family="Helvetica,sans-Serif" font-size="10.00">+ selectedObjects</text>
<text text-anchor="start" x="109" y="-285.5" font-family="Helvetica,sans-Serif" font-size="10.00">+ highlightThickness</text>
<text text-anchor="start" x="109" y="-274.5" font-family="Helvetica,sans-Serif" font-size="10.00">+ highlightColor</text>
<text text-anchor="start" x="109" y="-263.5" font-family="Helvetica,sans-Serif" font-size="10.00">+ debugOutput</text>
<text text-anchor="start" x="109" y="-252.5" font-family="Helvetica,sans-Serif" font-size="10.00">&#45; renderer</text>
<polyline fill="none" stroke="black" points="101,-245.5 220,-245.5 "/>
<text text-anchor="start" x="109" y="-233.5" font-family="Helvetica,sans-Serif" font-size="10.00">+ addSelectedObject()</text>
<text text-anchor="start" x="109" y="-222.5" font-family="Helvetica,sans-Serif" font-size="10.00">+ addSelectedObjects()</text>
<text text-anchor="start" x="109" y="-211.5" font-family="Helvetica,sans-Serif" font-size="10.00">+ deselectObject()</text>
<text text-anchor="start" x="109" y="-200.5" font-family="Helvetica,sans-Serif" font-size="10.00">+ deselectAllObjects()</text>
<text text-anchor="start" x="109" y="-189.5" font-family="Helvetica,sans-Serif" font-size="10.00">&#45; highlightUnit()</text>
</a>
</g>
</g>
<!-- Node4&#45;&gt;Node2 -->
<g id="edge2" class="edge"><title>Node4&#45;&gt;Node2</title>
<path fill="none" stroke="#404040" d="M137.302,-182.281C133.494,-170.505 129.53,-158.252 125.676,-146.337"/>
<polygon fill="none" stroke="#404040" points="125.561,-145.981 119.909,-141.503 121.868,-134.564 127.521,-139.041 125.561,-145.981"/>
<text text-anchor="middle" x="169" y="-156" font-family="Helvetica,sans-Serif" font-size="10.00"> &#45;selectedObjects</text>
</g>
</g>
</svg>
