<?xml version="1.0" encoding="UTF-8" standalone="no"?>
<!DOCTYPE svg PUBLIC "-//W3C//DTD SVG 1.1//EN"
 "http://www.w3.org/Graphics/SVG/1.1/DTD/svg11.dtd">
<!-- Generated by graphviz version 2.38.0 (20140413.2041)
 -->
<!-- Title: HBMenu2 Pages: 1 -->
<svg width="220pt" height="459pt"
 viewBox="0.00 0.00 219.50 459.00" xmlns="http://www.w3.org/2000/svg" xmlns:xlink="http://www.w3.org/1999/xlink">
<g id="graph0" class="graph" transform="scale(1 1) rotate(0) translate(4 455)">
<title>HBMenu2</title>
<polygon fill="white" stroke="none" points="-4,4 -4,-455 215.5,-455 215.5,4 -4,4"/>
<!-- Node2 -->
<g id="node1" class="node"><title>Node2</title>
<polygon fill="#bfbfbf" stroke="black" points="20,-0.5 20,-68.5 115,-68.5 115,-0.5 20,-0.5"/>
<text text-anchor="middle" x="67.5" y="-56.5" font-family="Helvetica,sans-Serif" font-size="10.00">HBMenu2</text>
<polyline fill="none" stroke="black" points="20,-49.5 115,-49.5 "/>
<text text-anchor="start" x="28" y="-37.5" font-family="Helvetica,sans-Serif" font-size="10.00">+ hbMenuUI</text>
<polyline fill="none" stroke="black" points="20,-30.5 115,-30.5 "/>
<text text-anchor="start" x="28" y="-18.5" font-family="Helvetica,sans-Serif" font-size="10.00">+ OpenMenu()</text>
<text text-anchor="start" x="28" y="-7.5" font-family="Helvetica,sans-Serif" font-size="10.00">&#45; OnMouseDown()</text>
</g>
<!-- Node3 -->
<g id="node2" class="node"><title>Node3</title>
<polygon fill="white" stroke="#bfbfbf" points="0,-293 0,-350 83,-350 83,-293 0,-293"/>
<text text-anchor="middle" x="41.5" y="-338" font-family="Helvetica,sans-Serif" font-size="10.00">MonoBehaviour</text>
<polyline fill="none" stroke="#bfbfbf" points="0,-331 83,-331 "/>
<text text-anchor="middle" x="41.5" y="-319" font-family="Helvetica,sans-Serif" font-size="10.00"> </text>
<polyline fill="none" stroke="#bfbfbf" points="0,-312 83,-312 "/>
<text text-anchor="middle" x="41.5" y="-300" font-family="Helvetica,sans-Serif" font-size="10.00"> </text>
</g>
<!-- Node3&#45;&gt;Node2 -->
<g id="edge1" class="edge"><title>Node3&#45;&gt;Node2</title>
<path fill="none" stroke="midnightblue" d="M44.9491,-282.693C50.0686,-226.575 59.5963,-122.137 64.4651,-68.7667"/>
<polygon fill="none" stroke="midnightblue" points="41.4397,-282.637 44.0166,-292.914 48.4107,-283.273 41.4397,-282.637"/>
</g>
<!-- Node4 -->
<g id="node3" class="node"><title>Node4</title>
<g id="a_node3"><a xlink:href="class_player_controller.html" target="_top" xlink:title="{PlayerController\n|+ speed\l&#45; animator\l&#45; rb\l&#45; movement\l&#45; pv\l|&#45; Awake()\l&#45; Update()\l&#45; FixedUpdate()\l}">
<polygon fill="white" stroke="black" points="69.5,-116.5 69.5,-239.5 155.5,-239.5 155.5,-116.5 69.5,-116.5"/>
<text text-anchor="middle" x="112.5" y="-227.5" font-family="Helvetica,sans-Serif" font-size="10.00">PlayerController</text>
<polyline fill="none" stroke="black" points="69.5,-220.5 155.5,-220.5 "/>
<text text-anchor="start" x="77.5" y="-208.5" font-family="Helvetica,sans-Serif" font-size="10.00">+ speed</text>
<text text-anchor="start" x="77.5" y="-197.5" font-family="Helvetica,sans-Serif" font-size="10.00">&#45; animator</text>
<text text-anchor="start" x="77.5" y="-186.5" font-family="Helvetica,sans-Serif" font-size="10.00">&#45; rb</text>
<text text-anchor="start" x="77.5" y="-175.5" font-family="Helvetica,sans-Serif" font-size="10.00">&#45; movement</text>
<text text-anchor="start" x="77.5" y="-164.5" font-family="Helvetica,sans-Serif" font-size="10.00">&#45; pv</text>
<polyline fill="none" stroke="black" points="69.5,-157.5 155.5,-157.5 "/>
<text text-anchor="start" x="77.5" y="-145.5" font-family="Helvetica,sans-Serif" font-size="10.00">&#45; Awake()</text>
<text text-anchor="start" x="77.5" y="-134.5" font-family="Helvetica,sans-Serif" font-size="10.00">&#45; Update()</text>
<text text-anchor="start" x="77.5" y="-123.5" font-family="Helvetica,sans-Serif" font-size="10.00">&#45; FixedUpdate()</text>
</a>
</g>
</g>
<!-- Node3&#45;&gt;Node4 -->
<g id="edge3" class="edge"><title>Node3&#45;&gt;Node4</title>
<path fill="none" stroke="midnightblue" d="M59.8584,-283.912C66.6371,-270.403 74.5131,-254.706 82.0754,-239.635"/>
<polygon fill="none" stroke="midnightblue" points="56.7146,-282.374 55.3581,-292.881 62.9712,-285.513 56.7146,-282.374"/>
</g>
<!-- Node4&#45;&gt;Node2 -->
<g id="edge2" class="edge"><title>Node4&#45;&gt;Node2</title>
<path fill="none" stroke="#404040" d="M93.1548,-116.17C89.3006,-104.051 85.3203,-91.5351 81.6787,-80.084"/>
<polygon fill="none" stroke="#404040" points="81.6625,-80.0329 76.0322,-75.5274 78.0256,-68.5973 83.6559,-73.1028 81.6625,-80.0329"/>
<text text-anchor="middle" x="104" y="-90" font-family="Helvetica,sans-Serif" font-size="10.00"> &#45;player</text>
</g>
<!-- Node5 -->
<g id="node4" class="node"><title>Node5</title>
<g id="a_node4"><a xlink:href="class_player.html" target="_top" xlink:title="{Player\n|+ nickName\l+ curPlayerReference\l|}">
<polygon fill="white" stroke="black" points="101.5,-287.5 101.5,-355.5 211.5,-355.5 211.5,-287.5 101.5,-287.5"/>
<text text-anchor="middle" x="156.5" y="-343.5" font-family="Helvetica,sans-Serif" font-size="10.00">Player</text>
<polyline fill="none" stroke="black" points="101.5,-336.5 211.5,-336.5 "/>
<text text-anchor="start" x="109.5" y="-324.5" font-family="Helvetica,sans-Serif" font-size="10.00">+ nickName</text>
<text text-anchor="start" x="109.5" y="-313.5" font-family="Helvetica,sans-Serif" font-size="10.00">+ curPlayerReference</text>
<polyline fill="none" stroke="black" points="101.5,-306.5 211.5,-306.5 "/>
<text text-anchor="middle" x="156.5" y="-294.5" font-family="Helvetica,sans-Serif" font-size="10.00"> </text>
</a>
</g>
</g>
<!-- Node5&#45;&gt;Node4 -->
<g id="edge4" class="edge"><title>Node5&#45;&gt;Node4</title>
<path fill="none" stroke="#404040" d="M146.184,-287.325C142.8,-276.442 138.897,-263.89 134.973,-251.272"/>
<polygon fill="none" stroke="#404040" points="134.942,-251.172 129.341,-246.63 131.379,-239.713 136.98,-244.254 134.942,-251.172"/>
<text text-anchor="middle" x="157.5" y="-261" font-family="Helvetica,sans-Serif" font-size="10.00"> +player</text>
</g>
<!-- Node6 -->
<g id="node5" class="node"><title>Node6</title>
<polygon fill="white" stroke="#bfbfbf" points="112,-393.5 112,-450.5 201,-450.5 201,-393.5 112,-393.5"/>
<text text-anchor="middle" x="156.5" y="-438.5" font-family="Helvetica,sans-Serif" font-size="10.00">ScriptableObject</text>
<polyline fill="none" stroke="#bfbfbf" points="112,-431.5 201,-431.5 "/>
<text text-anchor="middle" x="156.5" y="-419.5" font-family="Helvetica,sans-Serif" font-size="10.00"> </text>
<polyline fill="none" stroke="#bfbfbf" points="112,-412.5 201,-412.5 "/>
<text text-anchor="middle" x="156.5" y="-400.5" font-family="Helvetica,sans-Serif" font-size="10.00"> </text>
</g>
<!-- Node6&#45;&gt;Node5 -->
<g id="edge5" class="edge"><title>Node6&#45;&gt;Node5</title>
<path fill="none" stroke="midnightblue" d="M156.5,-383.007C156.5,-373.962 156.5,-364.383 156.5,-355.578"/>
<polygon fill="none" stroke="midnightblue" points="153,-383.3 156.5,-393.3 160,-383.3 153,-383.3"/>
</g>
</g>
</svg>
