<?xml version="1.0" encoding="UTF-8" standalone="no"?>
<!DOCTYPE svg PUBLIC "-//W3C//DTD SVG 1.1//EN"
 "http://www.w3.org/Graphics/SVG/1.1/DTD/svg11.dtd">
<!-- Generated by graphviz version 2.38.0 (20140413.2041)
 -->
<!-- Title: GameEvent&lt; DataType &gt; Pages: 1 -->
<svg width="134pt" height="226pt"
 viewBox="0.00 0.00 134.00 226.00" xmlns="http://www.w3.org/2000/svg" xmlns:xlink="http://www.w3.org/1999/xlink">
<g id="graph0" class="graph" transform="scale(1 1) rotate(0) translate(4 222)">
<title>GameEvent&lt; DataType &gt;</title>
<polygon fill="white" stroke="none" points="-4,4 -4,-222 130,-222 130,4 -4,4"/>
<!-- Node0 -->
<g id="node1" class="node"><title>Node0</title>
<polygon fill="#bfbfbf" stroke="black" points="0,-0.5 0,-123.5 126,-123.5 126,-0.5 0,-0.5"/>
<text text-anchor="middle" x="63" y="-111.5" font-family="Helvetica,sans-Serif" font-size="10.00">GameEvent&lt; DataType &gt;</text>
<polyline fill="none" stroke="black" points="0,-104.5 126,-104.5 "/>
<text text-anchor="start" x="8" y="-92.5" font-family="Helvetica,sans-Serif" font-size="10.00">+ Event</text>
<text text-anchor="start" x="8" y="-81.5" font-family="Helvetica,sans-Serif" font-size="10.00">+ Event</text>
<polyline fill="none" stroke="black" points="0,-74.5 126,-74.5 "/>
<text text-anchor="start" x="8" y="-62.5" font-family="Helvetica,sans-Serif" font-size="10.00">+ Invoke()</text>
<text text-anchor="start" x="8" y="-51.5" font-family="Helvetica,sans-Serif" font-size="10.00">+ AddListener()</text>
<text text-anchor="start" x="8" y="-40.5" font-family="Helvetica,sans-Serif" font-size="10.00">+ RemovedListener()</text>
<text text-anchor="start" x="8" y="-29.5" font-family="Helvetica,sans-Serif" font-size="10.00">+ Invoke()</text>
<text text-anchor="start" x="8" y="-18.5" font-family="Helvetica,sans-Serif" font-size="10.00">+ AddListener()</text>
<text text-anchor="start" x="8" y="-7.5" font-family="Helvetica,sans-Serif" font-size="10.00">+ RemoveListener()</text>
</g>
<!-- Node1 -->
<g id="node2" class="node"><title>Node1</title>
<polygon fill="white" stroke="#bfbfbf" points="18.5,-160.5 18.5,-217.5 107.5,-217.5 107.5,-160.5 18.5,-160.5"/>
<text text-anchor="middle" x="63" y="-205.5" font-family="Helvetica,sans-Serif" font-size="10.00">ScriptableObject</text>
<polyline fill="none" stroke="#bfbfbf" points="18.5,-198.5 107.5,-198.5 "/>
<text text-anchor="middle" x="63" y="-186.5" font-family="Helvetica,sans-Serif" font-size="10.00"> </text>
<polyline fill="none" stroke="#bfbfbf" points="18.5,-179.5 107.5,-179.5 "/>
<text text-anchor="middle" x="63" y="-167.5" font-family="Helvetica,sans-Serif" font-size="10.00"> </text>
</g>
<!-- Node1&#45;&gt;Node0 -->
<g id="edge1" class="edge"><title>Node1&#45;&gt;Node0</title>
<path fill="none" stroke="midnightblue" d="M56.738,-150.099C56.3891,-141.739 56.2273,-132.68 56.2526,-123.672"/>
<polygon fill="none" stroke="midnightblue" points="53.2521,-150.459 57.28,-160.258 60.2422,-150.086 53.2521,-150.459"/>
</g>
<!-- Node1&#45;&gt;Node0 -->
<g id="edge2" class="edge"><title>Node1&#45;&gt;Node0</title>
<path fill="none" stroke="midnightblue" d="M69.262,-150.099C69.6109,-141.739 69.7727,-132.68 69.7474,-123.672"/>
<polygon fill="none" stroke="midnightblue" points="65.7578,-150.086 68.72,-160.258 72.7479,-150.459 65.7578,-150.086"/>
</g>
</g>
</svg>
