<?xml version="1.0" encoding="UTF-8" standalone="no"?>
<!DOCTYPE svg PUBLIC "-//W3C//DTD SVG 1.1//EN"
 "http://www.w3.org/Graphics/SVG/1.1/DTD/svg11.dtd">
<!-- Generated by graphviz version 2.38.0 (20140413.2041)
 -->
<!-- Title: selectionMainFunction Pages: 1 -->
<svg width="122pt" height="248pt"
 viewBox="0.00 0.00 122.00 248.00" xmlns="http://www.w3.org/2000/svg" xmlns:xlink="http://www.w3.org/1999/xlink">
<g id="graph0" class="graph" transform="scale(1 1) rotate(0) translate(4 244)">
<title>selectionMainFunction</title>
<polygon fill="white" stroke="none" points="-4,4 -4,-244 118,-244 118,4 -4,4"/>
<!-- Node0 -->
<g id="node1" class="node"><title>Node0</title>
<polygon fill="#bfbfbf" stroke="black" points="0,-0.5 0,-145.5 114,-145.5 114,-0.5 0,-0.5"/>
<text text-anchor="middle" x="57" y="-133.5" font-family="Helvetica,sans-Serif" font-size="10.00">selectionMainFunction</text>
<polyline fill="none" stroke="black" points="0,-126.5 114,-126.5 "/>
<text text-anchor="start" x="8" y="-114.5" font-family="Helvetica,sans-Serif" font-size="10.00">&#45; selectedObjects</text>
<text text-anchor="start" x="8" y="-103.5" font-family="Helvetica,sans-Serif" font-size="10.00">&#45; hit</text>
<text text-anchor="start" x="8" y="-92.5" font-family="Helvetica,sans-Serif" font-size="10.00">&#45; dragSelect</text>
<text text-anchor="start" x="8" y="-81.5" font-family="Helvetica,sans-Serif" font-size="10.00">&#45; results</text>
<text text-anchor="start" x="8" y="-70.5" font-family="Helvetica,sans-Serif" font-size="10.00">&#45; p1</text>
<text text-anchor="start" x="8" y="-59.5" font-family="Helvetica,sans-Serif" font-size="10.00">&#45; p2</text>
<text text-anchor="start" x="8" y="-48.5" font-family="Helvetica,sans-Serif" font-size="10.00">&#45; corners</text>
<polyline fill="none" stroke="black" points="0,-41.5 114,-41.5 "/>
<text text-anchor="start" x="8" y="-29.5" font-family="Helvetica,sans-Serif" font-size="10.00">&#45; Update()</text>
<text text-anchor="start" x="8" y="-18.5" font-family="Helvetica,sans-Serif" font-size="10.00">&#45; OnGUI()</text>
<text text-anchor="start" x="8" y="-7.5" font-family="Helvetica,sans-Serif" font-size="10.00">&#45; getCornerPoints()</text>
</g>
<!-- Node1 -->
<g id="node2" class="node"><title>Node1</title>
<polygon fill="white" stroke="#bfbfbf" points="15.5,-182.5 15.5,-239.5 98.5,-239.5 98.5,-182.5 15.5,-182.5"/>
<text text-anchor="middle" x="57" y="-227.5" font-family="Helvetica,sans-Serif" font-size="10.00">MonoBehaviour</text>
<polyline fill="none" stroke="#bfbfbf" points="15.5,-220.5 98.5,-220.5 "/>
<text text-anchor="middle" x="57" y="-208.5" font-family="Helvetica,sans-Serif" font-size="10.00"> </text>
<polyline fill="none" stroke="#bfbfbf" points="15.5,-201.5 98.5,-201.5 "/>
<text text-anchor="middle" x="57" y="-189.5" font-family="Helvetica,sans-Serif" font-size="10.00"> </text>
</g>
<!-- Node1&#45;&gt;Node0 -->
<g id="edge1" class="edge"><title>Node1&#45;&gt;Node0</title>
<path fill="none" stroke="midnightblue" d="M57,-172.356C57,-163.999 57,-154.872 57,-145.656"/>
<polygon fill="none" stroke="midnightblue" points="53.5001,-172.478 57,-182.478 60.5001,-172.478 53.5001,-172.478"/>
</g>
</g>
</svg>
