<?xml version="1.0" encoding="UTF-8" standalone="no"?>
<!DOCTYPE svg PUBLIC "-//W3C//DTD SVG 1.1//EN"
 "http://www.w3.org/Graphics/SVG/1.1/DTD/svg11.dtd">
<!-- Generated by graphviz version 2.38.0 (20140413.2041)
 -->
<!-- Title: LevelManager Pages: 1 -->
<svg width="575pt" height="668pt"
 viewBox="0.00 0.00 574.50 668.00" xmlns="http://www.w3.org/2000/svg" xmlns:xlink="http://www.w3.org/1999/xlink">
<g id="graph0" class="graph" transform="scale(1 1) rotate(0) translate(4 664)">
<title>LevelManager</title>
<polygon fill="white" stroke="none" points="-4,4 -4,-664 570.5,-664 570.5,4 -4,4"/>
<!-- Node2 -->
<g id="node1" class="node"><title>Node2</title>
<polygon fill="#bfbfbf" stroke="black" points="200.5,-0.5 200.5,-266.5 351.5,-266.5 351.5,-0.5 200.5,-0.5"/>
<text text-anchor="middle" x="276" y="-254.5" font-family="Helvetica,sans-Serif" font-size="10.00">LevelManager</text>
<polyline fill="none" stroke="black" points="200.5,-247.5 351.5,-247.5 "/>
<text text-anchor="start" x="208.5" y="-235.5" font-family="Helvetica,sans-Serif" font-size="10.00">+ levels</text>
<text text-anchor="start" x="208.5" y="-224.5" font-family="Helvetica,sans-Serif" font-size="10.00">+ levelSelectionChangedEvent</text>
<text text-anchor="start" x="208.5" y="-213.5" font-family="Helvetica,sans-Serif" font-size="10.00">+ allClientsFinishedLoading</text>
<text text-anchor="start" x="208.5" y="-202.5" font-family="Helvetica,sans-Serif" font-size="10.00">Event</text>
<text text-anchor="start" x="208.5" y="-191.5" font-family="Helvetica,sans-Serif" font-size="10.00">&#45; selectedLevelNetDataKey</text>
<polyline fill="none" stroke="black" points="200.5,-184.5 351.5,-184.5 "/>
<text text-anchor="start" x="208.5" y="-172.5" font-family="Helvetica,sans-Serif" font-size="10.00">+ LoadSelectedLevelSynced()</text>
<text text-anchor="start" x="208.5" y="-161.5" font-family="Helvetica,sans-Serif" font-size="10.00">+ EnsureMainMenuScene()</text>
<text text-anchor="start" x="208.5" y="-150.5" font-family="Helvetica,sans-Serif" font-size="10.00">+ FadeToSceneSynced()</text>
<text text-anchor="start" x="208.5" y="-139.5" font-family="Helvetica,sans-Serif" font-size="10.00">+ CheckConditionsFulfilled()</text>
<text text-anchor="start" x="208.5" y="-128.5" font-family="Helvetica,sans-Serif" font-size="10.00">+ SetSelected()</text>
<text text-anchor="start" x="208.5" y="-117.5" font-family="Helvetica,sans-Serif" font-size="10.00">+ GetCurrentLevel()</text>
<text text-anchor="start" x="208.5" y="-106.5" font-family="Helvetica,sans-Serif" font-size="10.00"># MyAwake()</text>
<text text-anchor="start" x="208.5" y="-95.5" font-family="Helvetica,sans-Serif" font-size="10.00">&#45; Start()</text>
<text text-anchor="start" x="208.5" y="-84.5" font-family="Helvetica,sans-Serif" font-size="10.00">&#45; OnFadedOut()</text>
<text text-anchor="start" x="208.5" y="-73.5" font-family="Helvetica,sans-Serif" font-size="10.00">&#45; OnSceneFinishedLoading()</text>
<text text-anchor="start" x="208.5" y="-62.5" font-family="Helvetica,sans-Serif" font-size="10.00">&#45; OnJoinedRoom()</text>
<text text-anchor="start" x="208.5" y="-51.5" font-family="Helvetica,sans-Serif" font-size="10.00">&#45; OnRoomPropertiesUpdate()</text>
<text text-anchor="start" x="208.5" y="-40.5" font-family="Helvetica,sans-Serif" font-size="10.00">&#45; OnClientPropertiesUpdate()</text>
<text text-anchor="start" x="208.5" y="-29.5" font-family="Helvetica,sans-Serif" font-size="10.00">&#45; CheckAllClientsHaveLoaded()</text>
<text text-anchor="start" x="208.5" y="-18.5" font-family="Helvetica,sans-Serif" font-size="10.00">&#45; UpdateSelectedLevelFromNet</text>
<text text-anchor="start" x="208.5" y="-7.5" font-family="Helvetica,sans-Serif" font-size="10.00">DataAndInvokeEvent()</text>
</g>
<!-- Node3 -->
<g id="node2" class="node"><title>Node3</title>
<g id="a_node2"><a xlink:href="class_mono_singleton.html" target="_top" xlink:title="{MonoSingleton\&lt; LevelManager \&gt;\n|# instance\l&#45; logEnabled\l|+ Get()\l# LogIfEnabled()\l# MyAwake()\l&#45; Awake()\l}">
<polygon fill="white" stroke="black" points="0,-314.5 0,-415.5 158,-415.5 158,-314.5 0,-314.5"/>
<text text-anchor="middle" x="79" y="-403.5" font-family="Helvetica,sans-Serif" font-size="10.00">MonoSingleton&lt; LevelManager &gt;</text>
<polyline fill="none" stroke="black" points="0,-396.5 158,-396.5 "/>
<text text-anchor="start" x="8" y="-384.5" font-family="Helvetica,sans-Serif" font-size="10.00"># instance</text>
<text text-anchor="start" x="8" y="-373.5" font-family="Helvetica,sans-Serif" font-size="10.00">&#45; logEnabled</text>
<polyline fill="none" stroke="black" points="0,-366.5 158,-366.5 "/>
<text text-anchor="start" x="8" y="-354.5" font-family="Helvetica,sans-Serif" font-size="10.00">+ Get()</text>
<text text-anchor="start" x="8" y="-343.5" font-family="Helvetica,sans-Serif" font-size="10.00"># LogIfEnabled()</text>
<text text-anchor="start" x="8" y="-332.5" font-family="Helvetica,sans-Serif" font-size="10.00"># MyAwake()</text>
<text text-anchor="start" x="8" y="-321.5" font-family="Helvetica,sans-Serif" font-size="10.00">&#45; Awake()</text>
</a>
</g>
</g>
<!-- Node3&#45;&gt;Node2 -->
<g id="edge1" class="edge"><title>Node3&#45;&gt;Node2</title>
<path fill="none" stroke="midnightblue" d="M128.115,-306.783C149.889,-281.416 176.008,-250.989 200.195,-222.811"/>
<polygon fill="none" stroke="midnightblue" points="125.361,-304.617 121.504,-314.484 130.673,-309.176 125.361,-304.617"/>
</g>
<!-- Node4 -->
<g id="node3" class="node"><title>Node4</title>
<g id="a_node3"><a xlink:href="classlevel_1_1_scene_reference.html" target="_top" xlink:title="A wrapper that provides the means to safely serialize Scene Asset References. ">
<polygon fill="white" stroke="black" points="263.5,-463.5 263.5,-564.5 376.5,-564.5 376.5,-463.5 263.5,-463.5"/>
<text text-anchor="middle" x="320" y="-552.5" font-family="Helvetica,sans-Serif" font-size="10.00">SceneReference</text>
<polyline fill="none" stroke="black" points="263.5,-545.5 376.5,-545.5 "/>
<text text-anchor="start" x="271.5" y="-533.5" font-family="Helvetica,sans-Serif" font-size="10.00">+ ScenePath</text>
<text text-anchor="start" x="271.5" y="-522.5" font-family="Helvetica,sans-Serif" font-size="10.00">&#45; scenePath</text>
<polyline fill="none" stroke="black" points="263.5,-515.5 376.5,-515.5 "/>
<text text-anchor="start" x="271.5" y="-503.5" font-family="Helvetica,sans-Serif" font-size="10.00">+ IsCurrentScene()</text>
<text text-anchor="start" x="271.5" y="-492.5" font-family="Helvetica,sans-Serif" font-size="10.00">+ OnBeforeSerialize()</text>
<text text-anchor="start" x="271.5" y="-481.5" font-family="Helvetica,sans-Serif" font-size="10.00">+ OnAfterDeserialize()</text>
<text text-anchor="start" x="271.5" y="-470.5" font-family="Helvetica,sans-Serif" font-size="10.00">+ operator string()</text>
</a>
</g>
</g>
<!-- Node4&#45;&gt;Node2 -->
<g id="edge2" class="edge"><title>Node4&#45;&gt;Node2</title>
<path fill="none" stroke="#404040" d="M318.89,-463.448C317.396,-417.14 313.936,-346.155 306,-285 305.735,-282.957 305.458,-280.899 305.171,-278.831"/>
<polygon fill="none" stroke="#404040" points="305.16,-278.753 300.332,-273.396 303.42,-266.88 308.248,-272.236 305.16,-278.753"/>
<text text-anchor="middle" x="356.5" y="-368" font-family="Helvetica,sans-Serif" font-size="10.00"> &#45;sceneToLoad</text>
<text text-anchor="middle" x="356.5" y="-357" font-family="Helvetica,sans-Serif" font-size="10.00">+mainMenuScene</text>
</g>
<!-- Node6 -->
<g id="node5" class="node"><title>Node6</title>
<g id="a_node5"><a xlink:href="classlevel_1_1_level.html" target="_top" xlink:title="Wraps info on each level to be accessed before the level is actually loaded. ">
<polygon fill="white" stroke="black" points="176.5,-320 176.5,-410 283.5,-410 283.5,-320 176.5,-320"/>
<text text-anchor="middle" x="230" y="-398" font-family="Helvetica,sans-Serif" font-size="10.00">Level</text>
<polyline fill="none" stroke="black" points="176.5,-391 283.5,-391 "/>
<text text-anchor="start" x="184.5" y="-379" font-family="Helvetica,sans-Serif" font-size="10.00">+ lvlName</text>
<text text-anchor="start" x="184.5" y="-368" font-family="Helvetica,sans-Serif" font-size="10.00">+ image</text>
<text text-anchor="start" x="184.5" y="-357" font-family="Helvetica,sans-Serif" font-size="10.00">+ spawns</text>
<text text-anchor="start" x="184.5" y="-346" font-family="Helvetica,sans-Serif" font-size="10.00">+ homeBaseSpawns</text>
<polyline fill="none" stroke="black" points="176.5,-339 283.5,-339 "/>
<text text-anchor="middle" x="230" y="-327" font-family="Helvetica,sans-Serif" font-size="10.00"> </text>
</a>
</g>
</g>
<!-- Node4&#45;&gt;Node6 -->
<g id="edge6" class="edge"><title>Node4&#45;&gt;Node6</title>
<path fill="none" stroke="#404040" d="M281.911,-463.141C277.745,-457.127 273.685,-450.991 270,-445 265.296,-437.352 260.657,-429.081 256.297,-420.87"/>
<polygon fill="none" stroke="#404040" points="256.271,-420.82 249.958,-417.336 250.745,-410.168 257.059,-413.652 256.271,-420.82"/>
<text text-anchor="middle" x="288" y="-437" font-family="Helvetica,sans-Serif" font-size="10.00"> +scene</text>
</g>
<!-- Node5 -->
<g id="node4" class="node"><title>Node5</title>
<polygon fill="white" stroke="#bfbfbf" points="247,-602.5 247,-659.5 393,-659.5 393,-602.5 247,-602.5"/>
<text text-anchor="middle" x="320" y="-647.5" font-family="Helvetica,sans-Serif" font-size="10.00">ISerializationCallbackReceiver</text>
<polyline fill="none" stroke="#bfbfbf" points="247,-640.5 393,-640.5 "/>
<text text-anchor="middle" x="320" y="-628.5" font-family="Helvetica,sans-Serif" font-size="10.00"> </text>
<polyline fill="none" stroke="#bfbfbf" points="247,-621.5 393,-621.5 "/>
<text text-anchor="middle" x="320" y="-609.5" font-family="Helvetica,sans-Serif" font-size="10.00"> </text>
</g>
<!-- Node5&#45;&gt;Node4 -->
<g id="edge3" class="edge"><title>Node5&#45;&gt;Node4</title>
<path fill="none" stroke="midnightblue" d="M320,-592.187C320,-583.435 320,-573.99 320,-564.812"/>
<polygon fill="none" stroke="midnightblue" points="316.5,-592.455 320,-602.455 323.5,-592.455 316.5,-592.455"/>
</g>
<!-- Node6&#45;&gt;Node2 -->
<g id="edge4" class="edge"><title>Node6&#45;&gt;Node2</title>
<path fill="none" stroke="#404040" d="M233.307,-319.967C234.48,-308.535 236.018,-296.269 238,-285 238.361,-282.947 238.735,-280.881 239.121,-278.804"/>
<polygon fill="none" stroke="#404040" points="239.162,-278.592 236.38,-271.939 241.451,-266.812 244.233,-273.465 239.162,-278.592"/>
<text text-anchor="middle" x="272" y="-288" font-family="Helvetica,sans-Serif" font-size="10.00"> +selectedLevel</text>
</g>
<!-- Node7 -->
<g id="node6" class="node"><title>Node7</title>
<polygon fill="white" stroke="#bfbfbf" points="156.5,-485.5 156.5,-542.5 245.5,-542.5 245.5,-485.5 156.5,-485.5"/>
<text text-anchor="middle" x="201" y="-530.5" font-family="Helvetica,sans-Serif" font-size="10.00">ScriptableObject</text>
<polyline fill="none" stroke="#bfbfbf" points="156.5,-523.5 245.5,-523.5 "/>
<text text-anchor="middle" x="201" y="-511.5" font-family="Helvetica,sans-Serif" font-size="10.00"> </text>
<polyline fill="none" stroke="#bfbfbf" points="156.5,-504.5 245.5,-504.5 "/>
<text text-anchor="middle" x="201" y="-492.5" font-family="Helvetica,sans-Serif" font-size="10.00"> </text>
</g>
<!-- Node7&#45;&gt;Node6 -->
<g id="edge5" class="edge"><title>Node7&#45;&gt;Node6</title>
<path fill="none" stroke="midnightblue" d="M208.411,-475.431C212.33,-455.57 217.164,-431.065 221.264,-410.282"/>
<polygon fill="none" stroke="midnightblue" points="204.956,-474.862 206.455,-485.35 211.824,-476.217 204.956,-474.862"/>
</g>
<!-- Node8 -->
<g id="node7" class="node"><title>Node8</title>
<g id="a_node7"><a xlink:href="class_scene_fader.html" target="_top" xlink:title="{SceneFader\n|&#45; anim\l&#45; onFadeOutCompleteCallback\l|+ FadeOut()\l+ FadeIn()\l+ OnFadeComplete()\l&#45; Awake()\l}">
<polygon fill="white" stroke="black" points="417.5,-314.5 417.5,-415.5 566.5,-415.5 566.5,-314.5 417.5,-314.5"/>
<text text-anchor="middle" x="492" y="-403.5" font-family="Helvetica,sans-Serif" font-size="10.00">SceneFader</text>
<polyline fill="none" stroke="black" points="417.5,-396.5 566.5,-396.5 "/>
<text text-anchor="start" x="425.5" y="-384.5" font-family="Helvetica,sans-Serif" font-size="10.00">&#45; anim</text>
<text text-anchor="start" x="425.5" y="-373.5" font-family="Helvetica,sans-Serif" font-size="10.00">&#45; onFadeOutCompleteCallback</text>
<polyline fill="none" stroke="black" points="417.5,-366.5 566.5,-366.5 "/>
<text text-anchor="start" x="425.5" y="-354.5" font-family="Helvetica,sans-Serif" font-size="10.00">+ FadeOut()</text>
<text text-anchor="start" x="425.5" y="-343.5" font-family="Helvetica,sans-Serif" font-size="10.00">+ FadeIn()</text>
<text text-anchor="start" x="425.5" y="-332.5" font-family="Helvetica,sans-Serif" font-size="10.00">+ OnFadeComplete()</text>
<text text-anchor="start" x="425.5" y="-321.5" font-family="Helvetica,sans-Serif" font-size="10.00">&#45; Awake()</text>
</a>
</g>
</g>
<!-- Node8&#45;&gt;Node2 -->
<g id="edge7" class="edge"><title>Node8&#45;&gt;Node2</title>
<path fill="none" stroke="#404040" d="M445.397,-314.484C420.564,-288.099 389.246,-254.824 360.313,-224.083"/>
<polygon fill="none" stroke="#404040" points="360.048,-223.801 353.023,-222.173 351.824,-215.063 358.849,-216.69 360.048,-223.801"/>
<text text-anchor="middle" x="452" y="-288" font-family="Helvetica,sans-Serif" font-size="10.00"> &#45;sceneFader</text>
</g>
<!-- Node9 -->
<g id="node8" class="node"><title>Node9</title>
<polygon fill="white" stroke="#bfbfbf" points="450.5,-485.5 450.5,-542.5 533.5,-542.5 533.5,-485.5 450.5,-485.5"/>
<text text-anchor="middle" x="492" y="-530.5" font-family="Helvetica,sans-Serif" font-size="10.00">MonoBehaviour</text>
<polyline fill="none" stroke="#bfbfbf" points="450.5,-523.5 533.5,-523.5 "/>
<text text-anchor="middle" x="492" y="-511.5" font-family="Helvetica,sans-Serif" font-size="10.00"> </text>
<polyline fill="none" stroke="#bfbfbf" points="450.5,-504.5 533.5,-504.5 "/>
<text text-anchor="middle" x="492" y="-492.5" font-family="Helvetica,sans-Serif" font-size="10.00"> </text>
</g>
<!-- Node9&#45;&gt;Node8 -->
<g id="edge8" class="edge"><title>Node9&#45;&gt;Node8</title>
<path fill="none" stroke="midnightblue" d="M492,-475.151C492,-456.996 492,-435.011 492,-415.543"/>
<polygon fill="none" stroke="midnightblue" points="488.5,-475.35 492,-485.35 495.5,-475.35 488.5,-475.35"/>
</g>
</g>
</svg>
