<?xml version="1.0" encoding="UTF-8" standalone="no"?>
<!DOCTYPE svg PUBLIC "-//W3C//DTD SVG 1.1//EN"
 "http://www.w3.org/Graphics/SVG/1.1/DTD/svg11.dtd">
<!-- Generated by graphviz version 2.38.0 (20140413.2041)
 -->
<!-- Title: BaseState&lt; SMType &gt; Pages: 1 -->
<svg width="334pt" height="336pt"
 viewBox="0.00 0.00 333.50 336.00" xmlns="http://www.w3.org/2000/svg" xmlns:xlink="http://www.w3.org/1999/xlink">
<g id="graph0" class="graph" transform="scale(1 1) rotate(0) translate(4 332)">
<title>BaseState&lt; SMType &gt;</title>
<polygon fill="white" stroke="none" points="-4,4 -4,-332 329.5,-332 329.5,4 -4,4"/>
<!-- Node3 -->
<g id="node1" class="node"><title>Node3</title>
<polygon fill="#bfbfbf" stroke="black" points="120.5,-0.5 120.5,-189.5 236.5,-189.5 236.5,-0.5 120.5,-0.5"/>
<text text-anchor="middle" x="178.5" y="-177.5" font-family="Helvetica,sans-Serif" font-size="10.00">BaseState&lt; SMType &gt;</text>
<polyline fill="none" stroke="black" points="120.5,-170.5 236.5,-170.5 "/>
<text text-anchor="start" x="128.5" y="-158.5" font-family="Helvetica,sans-Serif" font-size="10.00">+ name</text>
<text text-anchor="start" x="128.5" y="-147.5" font-family="Helvetica,sans-Serif" font-size="10.00">+ triggers</text>
<text text-anchor="start" x="128.5" y="-136.5" font-family="Helvetica,sans-Serif" font-size="10.00"># sm</text>
<polyline fill="none" stroke="black" points="120.5,-129.5 236.5,-129.5 "/>
<text text-anchor="start" x="128.5" y="-117.5" font-family="Helvetica,sans-Serif" font-size="10.00">+ IsActiveState()</text>
<text text-anchor="start" x="128.5" y="-106.5" font-family="Helvetica,sans-Serif" font-size="10.00">+ GetName()</text>
<text text-anchor="start" x="128.5" y="-95.5" font-family="Helvetica,sans-Serif" font-size="10.00">+ GetTriggers()</text>
<text text-anchor="start" x="128.5" y="-84.5" font-family="Helvetica,sans-Serif" font-size="10.00">+ Init()</text>
<text text-anchor="start" x="128.5" y="-73.5" font-family="Helvetica,sans-Serif" font-size="10.00">+ OnStateEnter()</text>
<text text-anchor="start" x="128.5" y="-62.5" font-family="Helvetica,sans-Serif" font-size="10.00">+ OnStateExit()</text>
<text text-anchor="start" x="128.5" y="-51.5" font-family="Helvetica,sans-Serif" font-size="10.00"># AddAutoListener()</text>
<text text-anchor="start" x="128.5" y="-40.5" font-family="Helvetica,sans-Serif" font-size="10.00"># TriggerTransition()</text>
<text text-anchor="start" x="128.5" y="-29.5" font-family="Helvetica,sans-Serif" font-size="10.00"># OnMyStateEnter()</text>
<text text-anchor="start" x="128.5" y="-18.5" font-family="Helvetica,sans-Serif" font-size="10.00"># OnMyStateExit()</text>
<text text-anchor="start" x="128.5" y="-7.5" font-family="Helvetica,sans-Serif" font-size="10.00"># OnMyStateInit()</text>
</g>
<!-- Node4 -->
<g id="node2" class="node"><title>Node4</title>
<polygon fill="white" stroke="#bfbfbf" points="0,-254 0,-311 119,-311 119,-254 0,-254"/>
<text text-anchor="middle" x="59.5" y="-299" font-family="Helvetica,sans-Serif" font-size="10.00">StateMachineBehaviour</text>
<polyline fill="none" stroke="#bfbfbf" points="0,-292 119,-292 "/>
<text text-anchor="middle" x="59.5" y="-280" font-family="Helvetica,sans-Serif" font-size="10.00"> </text>
<polyline fill="none" stroke="#bfbfbf" points="0,-273 119,-273 "/>
<text text-anchor="middle" x="59.5" y="-261" font-family="Helvetica,sans-Serif" font-size="10.00"> </text>
</g>
<!-- Node4&#45;&gt;Node3 -->
<g id="edge1" class="edge"><title>Node4&#45;&gt;Node3</title>
<path fill="none" stroke="midnightblue" d="M82.7505,-245.257C93.6264,-228.303 107.113,-207.28 120.499,-186.414"/>
<polygon fill="none" stroke="midnightblue" points="79.7692,-243.422 77.3155,-253.729 85.661,-247.202 79.7692,-243.422"/>
</g>
<!-- Node5 -->
<g id="node3" class="node"><title>Node5</title>
<g id="a_node3"><a xlink:href="interface_i_state.html" target="_top" xlink:title="{IState\n||+ GetName()\l+ GetTriggers()\l+ Init()\l}">
<polygon fill="white" stroke="black" points="137.5,-243 137.5,-322 219.5,-322 219.5,-243 137.5,-243"/>
<text text-anchor="middle" x="178.5" y="-310" font-family="Helvetica,sans-Serif" font-size="10.00">IState</text>
<polyline fill="none" stroke="black" points="137.5,-303 219.5,-303 "/>
<text text-anchor="middle" x="178.5" y="-291" font-family="Helvetica,sans-Serif" font-size="10.00"> </text>
<polyline fill="none" stroke="black" points="137.5,-284 219.5,-284 "/>
<text text-anchor="start" x="145.5" y="-272" font-family="Helvetica,sans-Serif" font-size="10.00">+ GetName()</text>
<text text-anchor="start" x="145.5" y="-261" font-family="Helvetica,sans-Serif" font-size="10.00">+ GetTriggers()</text>
<text text-anchor="start" x="145.5" y="-250" font-family="Helvetica,sans-Serif" font-size="10.00">+ Init()</text>
</a>
</g>
</g>
<!-- Node5&#45;&gt;Node3 -->
<g id="edge2" class="edge"><title>Node5&#45;&gt;Node3</title>
<path fill="none" stroke="midnightblue" d="M178.5,-232.415C178.5,-219.258 178.5,-204.582 178.5,-189.869"/>
<polygon fill="none" stroke="midnightblue" points="175,-232.613 178.5,-242.613 182,-232.613 175,-232.613"/>
</g>
<!-- Node6 -->
<g id="node4" class="node"><title>Node6</title>
<g id="a_node4"><a xlink:href="class_listener_group.html" target="_top" xlink:title="Helper class to execute adding and removing on all held Listeners (Events + Callbacks). ">
<polygon fill="white" stroke="black" points="237.5,-237.5 237.5,-327.5 325.5,-327.5 325.5,-237.5 237.5,-237.5"/>
<text text-anchor="middle" x="281.5" y="-315.5" font-family="Helvetica,sans-Serif" font-size="10.00">ListenerGroup</text>
<polyline fill="none" stroke="black" points="237.5,-308.5 325.5,-308.5 "/>
<text text-anchor="start" x="245.5" y="-296.5" font-family="Helvetica,sans-Serif" font-size="10.00">&#45; heldListeners</text>
<polyline fill="none" stroke="black" points="237.5,-289.5 325.5,-289.5 "/>
<text text-anchor="start" x="245.5" y="-277.5" font-family="Helvetica,sans-Serif" font-size="10.00">+ Add()</text>
<text text-anchor="start" x="245.5" y="-266.5" font-family="Helvetica,sans-Serif" font-size="10.00">+ Add()</text>
<text text-anchor="start" x="245.5" y="-255.5" font-family="Helvetica,sans-Serif" font-size="10.00">+ ActivateAll()</text>
<text text-anchor="start" x="245.5" y="-244.5" font-family="Helvetica,sans-Serif" font-size="10.00">+ DeactivateAll()</text>
</a>
</g>
</g>
<!-- Node6&#45;&gt;Node3 -->
<g id="edge3" class="edge"><title>Node6&#45;&gt;Node3</title>
<path fill="none" stroke="#404040" d="M256.829,-237.068C250.598,-225.847 243.641,-213.317 236.515,-200.483"/>
<polygon fill="none" stroke="#404040" points="236.326,-200.143 229.917,-196.84 230.501,-189.652 236.911,-192.956 236.326,-200.143"/>
<text text-anchor="middle" x="267" y="-211" font-family="Helvetica,sans-Serif" font-size="10.00"> &#45;listeners</text>
</g>
</g>
</svg>
