<?xml version="1.0" encoding="UTF-8" standalone="no"?>
<!DOCTYPE svg PUBLIC "-//W3C//DTD SVG 1.1//EN"
 "http://www.w3.org/Graphics/SVG/1.1/DTD/svg11.dtd">
<!-- Generated by graphviz version 2.38.0 (20140413.2041)
 -->
<!-- Title: NetStateMachine Pages: 1 -->
<svg width="138pt" height="430pt"
 viewBox="0.00 0.00 138.00 430.00" xmlns="http://www.w3.org/2000/svg" xmlns:xlink="http://www.w3.org/1999/xlink">
<g id="graph0" class="graph" transform="scale(1 1) rotate(0) translate(4 426)">
<title>NetStateMachine</title>
<polygon fill="white" stroke="none" points="-4,4 -4,-426 134,-426 134,4 -4,4"/>
<!-- Node0 -->
<g id="node1" class="node"><title>Node0</title>
<polygon fill="#bfbfbf" stroke="black" points="9.5,-0.5 9.5,-123.5 120.5,-123.5 120.5,-0.5 9.5,-0.5"/>
<text text-anchor="middle" x="65" y="-111.5" font-family="Helvetica,sans-Serif" font-size="10.00">NetStateMachine</text>
<polyline fill="none" stroke="black" points="9.5,-104.5 120.5,-104.5 "/>
<text text-anchor="start" x="17.5" y="-92.5" font-family="Helvetica,sans-Serif" font-size="10.00">+ netOverlayPrefab</text>
<text text-anchor="start" x="17.5" y="-81.5" font-family="Helvetica,sans-Serif" font-size="10.00">&#45; netOverlayInstance</text>
<polyline fill="none" stroke="black" points="9.5,-74.5 120.5,-74.5 "/>
<text text-anchor="start" x="17.5" y="-62.5" font-family="Helvetica,sans-Serif" font-size="10.00">+ IsMaster()</text>
<text text-anchor="start" x="17.5" y="-51.5" font-family="Helvetica,sans-Serif" font-size="10.00">+ GetCurStateName()</text>
<text text-anchor="start" x="17.5" y="-40.5" font-family="Helvetica,sans-Serif" font-size="10.00">+ GetNetOverlay()</text>
<text text-anchor="start" x="17.5" y="-29.5" font-family="Helvetica,sans-Serif" font-size="10.00">+ HideNetOverlay()</text>
<text text-anchor="start" x="17.5" y="-18.5" font-family="Helvetica,sans-Serif" font-size="10.00"># MyAwake()</text>
<text text-anchor="start" x="17.5" y="-7.5" font-family="Helvetica,sans-Serif" font-size="10.00">&#45; OnDisconnect()</text>
</g>
<!-- Node1 -->
<g id="node2" class="node"><title>Node1</title>
<g id="a_node2"><a xlink:href="class_state_machine.html" target="_top" xlink:title="Common Base class for all state machines. ">
<polygon fill="white" stroke="black" points="0,-160.5 0,-327.5 130,-327.5 130,-160.5 0,-160.5"/>
<text text-anchor="middle" x="65" y="-315.5" font-family="Helvetica,sans-Serif" font-size="10.00">StateMachine</text>
<polyline fill="none" stroke="black" points="0,-308.5 130,-308.5 "/>
<text text-anchor="start" x="8" y="-296.5" font-family="Helvetica,sans-Serif" font-size="10.00">+ logEnabled</text>
<text text-anchor="start" x="8" y="-285.5" font-family="Helvetica,sans-Serif" font-size="10.00">+ stateEnteredEvent</text>
<text text-anchor="start" x="8" y="-274.5" font-family="Helvetica,sans-Serif" font-size="10.00"># activeState</text>
<text text-anchor="start" x="8" y="-263.5" font-family="Helvetica,sans-Serif" font-size="10.00"># controller</text>
<text text-anchor="start" x="8" y="-252.5" font-family="Helvetica,sans-Serif" font-size="10.00">&#45; states</text>
<polyline fill="none" stroke="black" points="0,-245.5 130,-245.5 "/>
<text text-anchor="start" x="8" y="-233.5" font-family="Helvetica,sans-Serif" font-size="10.00">+ GetActiveState()</text>
<text text-anchor="start" x="8" y="-222.5" font-family="Helvetica,sans-Serif" font-size="10.00">+ TriggerTransition()</text>
<text text-anchor="start" x="8" y="-211.5" font-family="Helvetica,sans-Serif" font-size="10.00">+ TriggerTransition()</text>
<text text-anchor="start" x="8" y="-200.5" font-family="Helvetica,sans-Serif" font-size="10.00">+ TriggerTransition()</text>
<text text-anchor="start" x="8" y="-189.5" font-family="Helvetica,sans-Serif" font-size="10.00">+ AnnounceCurrentState()</text>
<text text-anchor="start" x="8" y="-178.5" font-family="Helvetica,sans-Serif" font-size="10.00"># MyAwake()</text>
<text text-anchor="start" x="8" y="-167.5" font-family="Helvetica,sans-Serif" font-size="10.00">&#45; Awake()</text>
</a>
</g>
</g>
<!-- Node1&#45;&gt;Node0 -->
<g id="edge1" class="edge"><title>Node1&#45;&gt;Node0</title>
<path fill="none" stroke="midnightblue" d="M65,-150.194C65,-141.173 65,-132.189 65,-123.607"/>
<polygon fill="none" stroke="midnightblue" points="61.5001,-150.375 65,-160.375 68.5001,-150.375 61.5001,-150.375"/>
</g>
<!-- Node2 -->
<g id="node3" class="node"><title>Node2</title>
<polygon fill="white" stroke="#bfbfbf" points="23.5,-364.5 23.5,-421.5 106.5,-421.5 106.5,-364.5 23.5,-364.5"/>
<text text-anchor="middle" x="65" y="-409.5" font-family="Helvetica,sans-Serif" font-size="10.00">MonoBehaviour</text>
<polyline fill="none" stroke="#bfbfbf" points="23.5,-402.5 106.5,-402.5 "/>
<text text-anchor="middle" x="65" y="-390.5" font-family="Helvetica,sans-Serif" font-size="10.00"> </text>
<polyline fill="none" stroke="#bfbfbf" points="23.5,-383.5 106.5,-383.5 "/>
<text text-anchor="middle" x="65" y="-371.5" font-family="Helvetica,sans-Serif" font-size="10.00"> </text>
</g>
<!-- Node2&#45;&gt;Node1 -->
<g id="edge2" class="edge"><title>Node2&#45;&gt;Node1</title>
<path fill="none" stroke="midnightblue" d="M65,-354.35C65,-346.08 65,-337.008 65,-327.738"/>
<polygon fill="none" stroke="midnightblue" points="61.5001,-354.35 65,-364.35 68.5001,-354.35 61.5001,-354.35"/>
</g>
</g>
</svg>
