<?xml version="1.0" encoding="UTF-8" standalone="no"?>
<!DOCTYPE svg PUBLIC "-//W3C//DTD SVG 1.1//EN"
 "http://www.w3.org/Graphics/SVG/1.1/DTD/svg11.dtd">
<!-- Generated by graphviz version 2.38.0 (20140413.2041)
 -->
<!-- Title: JoinRoomState Pages: 1 -->
<svg width="148pt" height="601pt"
 viewBox="0.00 0.00 148.00 601.00" xmlns="http://www.w3.org/2000/svg" xmlns:xlink="http://www.w3.org/1999/xlink">
<g id="graph0" class="graph" transform="scale(1 1) rotate(0) translate(4 597)">
<title>JoinRoomState</title>
<polygon fill="white" stroke="none" points="-4,4 -4,-597 144,-597 144,4 -4,4"/>
<!-- Node0 -->
<g id="node1" class="node"><title>Node0</title>
<polygon fill="#bfbfbf" stroke="black" points="9,-0.5 9,-101.5 131,-101.5 131,-0.5 9,-0.5"/>
<text text-anchor="middle" x="70" y="-89.5" font-family="Helvetica,sans-Serif" font-size="10.00">JoinRoomState</text>
<polyline fill="none" stroke="black" points="9,-82.5 131,-82.5 "/>
<text text-anchor="middle" x="70" y="-70.5" font-family="Helvetica,sans-Serif" font-size="10.00"> </text>
<polyline fill="none" stroke="black" points="9,-63.5 131,-63.5 "/>
<text text-anchor="start" x="17" y="-51.5" font-family="Helvetica,sans-Serif" font-size="10.00"># OnMyStateInit()</text>
<text text-anchor="start" x="17" y="-40.5" font-family="Helvetica,sans-Serif" font-size="10.00"># OnOverlayStateEnter()</text>
<text text-anchor="start" x="17" y="-29.5" font-family="Helvetica,sans-Serif" font-size="10.00">&#45; OnJoinedRoom()</text>
<text text-anchor="start" x="17" y="-18.5" font-family="Helvetica,sans-Serif" font-size="10.00">&#45; OnJoinedRoomFailed()</text>
<text text-anchor="start" x="17" y="-7.5" font-family="Helvetica,sans-Serif" font-size="10.00">&#45; OnCancelBtnPressed()</text>
</g>
<!-- Node1 -->
<g id="node2" class="node"><title>Node1</title>
<g id="a_node2"><a xlink:href="classnet_1_1_net_overlay_state.html" target="_top" xlink:title="{NetOverlayState\n|# netOverlayRef\l# netSM\l&#45; minVisibleTime\l&#45; timestampOfStateEntered\l|# TriggerTransitionWithMin\lVisibleTime()\l# OnOverlayStateEnter()\l# OnMyStateEnter()\l}">
<polygon fill="white" stroke="black" points="2.5,-138.5 2.5,-261.5 137.5,-261.5 137.5,-138.5 2.5,-138.5"/>
<text text-anchor="middle" x="70" y="-249.5" font-family="Helvetica,sans-Serif" font-size="10.00">NetOverlayState</text>
<polyline fill="none" stroke="black" points="2.5,-242.5 137.5,-242.5 "/>
<text text-anchor="start" x="10.5" y="-230.5" font-family="Helvetica,sans-Serif" font-size="10.00"># netOverlayRef</text>
<text text-anchor="start" x="10.5" y="-219.5" font-family="Helvetica,sans-Serif" font-size="10.00"># netSM</text>
<text text-anchor="start" x="10.5" y="-208.5" font-family="Helvetica,sans-Serif" font-size="10.00">&#45; minVisibleTime</text>
<text text-anchor="start" x="10.5" y="-197.5" font-family="Helvetica,sans-Serif" font-size="10.00">&#45; timestampOfStateEntered</text>
<polyline fill="none" stroke="black" points="2.5,-190.5 137.5,-190.5 "/>
<text text-anchor="start" x="10.5" y="-178.5" font-family="Helvetica,sans-Serif" font-size="10.00"># TriggerTransitionWithMin</text>
<text text-anchor="start" x="10.5" y="-167.5" font-family="Helvetica,sans-Serif" font-size="10.00">VisibleTime()</text>
<text text-anchor="start" x="10.5" y="-156.5" font-family="Helvetica,sans-Serif" font-size="10.00"># OnOverlayStateEnter()</text>
<text text-anchor="start" x="10.5" y="-145.5" font-family="Helvetica,sans-Serif" font-size="10.00"># OnMyStateEnter()</text>
</a>
</g>
</g>
<!-- Node1&#45;&gt;Node0 -->
<g id="edge1" class="edge"><title>Node1&#45;&gt;Node0</title>
<path fill="none" stroke="midnightblue" d="M70,-128.289C70,-119.323 70,-110.301 70,-101.758"/>
<polygon fill="none" stroke="midnightblue" points="66.5001,-128.361 70,-138.361 73.5001,-128.361 66.5001,-128.361"/>
</g>
<!-- Node2 -->
<g id="node3" class="node"><title>Node2</title>
<g id="a_node3"><a xlink:href="class_state.html" target="_top" xlink:title="Non&#45;template variant of the BaseState, expecting to be owned by a standard StateMachine. ">
<polygon fill="white" stroke="black" points="50,-298.5 50,-355.5 90,-355.5 90,-298.5 50,-298.5"/>
<text text-anchor="middle" x="70" y="-343.5" font-family="Helvetica,sans-Serif" font-size="10.00">State</text>
<polyline fill="none" stroke="black" points="50,-336.5 90,-336.5 "/>
<text text-anchor="middle" x="70" y="-324.5" font-family="Helvetica,sans-Serif" font-size="10.00"> </text>
<polyline fill="none" stroke="black" points="50,-317.5 90,-317.5 "/>
<text text-anchor="middle" x="70" y="-305.5" font-family="Helvetica,sans-Serif" font-size="10.00"> </text>
</a>
</g>
</g>
<!-- Node2&#45;&gt;Node1 -->
<g id="edge2" class="edge"><title>Node2&#45;&gt;Node1</title>
<path fill="none" stroke="midnightblue" d="M70,-288.099C70,-279.739 70,-270.68 70,-261.672"/>
<polygon fill="none" stroke="midnightblue" points="66.5001,-288.258 70,-298.258 73.5001,-288.258 66.5001,-288.258"/>
</g>
<!-- Node3 -->
<g id="node4" class="node"><title>Node3</title>
<g id="a_node4"><a xlink:href="class_base_state.html" target="_top" xlink:title="{BaseState\&lt; StateMachine \&gt;\n|+ name\l+ triggers\l# sm\l&#45; listeners\l|+ IsActiveState()\l+ GetName()\l+ GetTriggers()\l+ Init()\l+ OnStateEnter()\l+ OnStateExit()\l# AddAutoListener()\l# TriggerTransition()\l# OnMyStateEnter()\l# OnMyStateExit()\l# OnMyStateInit()\l}">
<polygon fill="white" stroke="black" points="0,-392.5 0,-592.5 140,-592.5 140,-392.5 0,-392.5"/>
<text text-anchor="middle" x="70" y="-580.5" font-family="Helvetica,sans-Serif" font-size="10.00">BaseState&lt; StateMachine &gt;</text>
<polyline fill="none" stroke="black" points="0,-573.5 140,-573.5 "/>
<text text-anchor="start" x="8" y="-561.5" font-family="Helvetica,sans-Serif" font-size="10.00">+ name</text>
<text text-anchor="start" x="8" y="-550.5" font-family="Helvetica,sans-Serif" font-size="10.00">+ triggers</text>
<text text-anchor="start" x="8" y="-539.5" font-family="Helvetica,sans-Serif" font-size="10.00"># sm</text>
<text text-anchor="start" x="8" y="-528.5" font-family="Helvetica,sans-Serif" font-size="10.00">&#45; listeners</text>
<polyline fill="none" stroke="black" points="0,-521.5 140,-521.5 "/>
<text text-anchor="start" x="8" y="-509.5" font-family="Helvetica,sans-Serif" font-size="10.00">+ IsActiveState()</text>
<text text-anchor="start" x="8" y="-498.5" font-family="Helvetica,sans-Serif" font-size="10.00">+ GetName()</text>
<text text-anchor="start" x="8" y="-487.5" font-family="Helvetica,sans-Serif" font-size="10.00">+ GetTriggers()</text>
<text text-anchor="start" x="8" y="-476.5" font-family="Helvetica,sans-Serif" font-size="10.00">+ Init()</text>
<text text-anchor="start" x="8" y="-465.5" font-family="Helvetica,sans-Serif" font-size="10.00">+ OnStateEnter()</text>
<text text-anchor="start" x="8" y="-454.5" font-family="Helvetica,sans-Serif" font-size="10.00">+ OnStateExit()</text>
<text text-anchor="start" x="8" y="-443.5" font-family="Helvetica,sans-Serif" font-size="10.00"># AddAutoListener()</text>
<text text-anchor="start" x="8" y="-432.5" font-family="Helvetica,sans-Serif" font-size="10.00"># TriggerTransition()</text>
<text text-anchor="start" x="8" y="-421.5" font-family="Helvetica,sans-Serif" font-size="10.00"># OnMyStateEnter()</text>
<text text-anchor="start" x="8" y="-410.5" font-family="Helvetica,sans-Serif" font-size="10.00"># OnMyStateExit()</text>
<text text-anchor="start" x="8" y="-399.5" font-family="Helvetica,sans-Serif" font-size="10.00"># OnMyStateInit()</text>
</a>
</g>
</g>
<!-- Node3&#45;&gt;Node2 -->
<g id="edge3" class="edge"><title>Node3&#45;&gt;Node2</title>
<path fill="none" stroke="midnightblue" d="M70,-381.964C70,-372.366 70,-363.348 70,-355.533"/>
<polygon fill="none" stroke="midnightblue" points="66.5001,-382.15 70,-392.15 73.5001,-382.15 66.5001,-382.15"/>
</g>
</g>
</svg>
