<?xml version="1.0" encoding="UTF-8" standalone="no"?>
<!DOCTYPE svg PUBLIC "-//W3C//DTD SVG 1.1//EN"
 "http://www.w3.org/Graphics/SVG/1.1/DTD/svg11.dtd">
<!-- Generated by graphviz version 2.38.0 (20140413.2041)
 -->
<!-- Title: GameStateMachine Pages: 1 -->
<svg width="154pt" height="408pt"
 viewBox="0.00 0.00 154.00 408.00" xmlns="http://www.w3.org/2000/svg" xmlns:xlink="http://www.w3.org/1999/xlink">
<g id="graph0" class="graph" transform="scale(1 1) rotate(0) translate(4 404)">
<title>GameStateMachine</title>
<polygon fill="white" stroke="none" points="-4,4 -4,-404 150,-404 150,4 -4,4"/>
<!-- Node0 -->
<g id="node1" class="node"><title>Node0</title>
<polygon fill="#bfbfbf" stroke="black" points="0,-0.5 0,-90.5 146,-90.5 146,-0.5 0,-0.5"/>
<text text-anchor="middle" x="73" y="-78.5" font-family="Helvetica,sans-Serif" font-size="10.00">GameStateMachine</text>
<polyline fill="none" stroke="black" points="0,-71.5 146,-71.5 "/>
<text text-anchor="start" x="8" y="-59.5" font-family="Helvetica,sans-Serif" font-size="10.00">+ transitionEvent</text>
<polyline fill="none" stroke="black" points="0,-52.5 146,-52.5 "/>
<text text-anchor="start" x="8" y="-40.5" font-family="Helvetica,sans-Serif" font-size="10.00">+ MatchStartup()</text>
<text text-anchor="start" x="8" y="-29.5" font-family="Helvetica,sans-Serif" font-size="10.00">+ GameOver()</text>
<text text-anchor="start" x="8" y="-18.5" font-family="Helvetica,sans-Serif" font-size="10.00"># MyAwake()</text>
<text text-anchor="start" x="8" y="-7.5" font-family="Helvetica,sans-Serif" font-size="10.00">&#45; TriggerNetworkedTransition()</text>
</g>
<!-- Node1 -->
<g id="node2" class="node"><title>Node1</title>
<g id="a_node2"><a xlink:href="class_state_machine.html" target="_top" xlink:title="Common Base class for all state machines. ">
<polygon fill="white" stroke="black" points="8,-127.5 8,-305.5 138,-305.5 138,-127.5 8,-127.5"/>
<text text-anchor="middle" x="73" y="-293.5" font-family="Helvetica,sans-Serif" font-size="10.00">StateMachine</text>
<polyline fill="none" stroke="black" points="8,-286.5 138,-286.5 "/>
<text text-anchor="start" x="16" y="-274.5" font-family="Helvetica,sans-Serif" font-size="10.00">+ logEnabled</text>
<text text-anchor="start" x="16" y="-263.5" font-family="Helvetica,sans-Serif" font-size="10.00">+ stateEnteredEvent</text>
<text text-anchor="start" x="16" y="-252.5" font-family="Helvetica,sans-Serif" font-size="10.00">+ globalValidTriggers</text>
<text text-anchor="start" x="16" y="-241.5" font-family="Helvetica,sans-Serif" font-size="10.00"># activeState</text>
<text text-anchor="start" x="16" y="-230.5" font-family="Helvetica,sans-Serif" font-size="10.00"># controller</text>
<text text-anchor="start" x="16" y="-219.5" font-family="Helvetica,sans-Serif" font-size="10.00">&#45; states</text>
<polyline fill="none" stroke="black" points="8,-212.5 138,-212.5 "/>
<text text-anchor="start" x="16" y="-200.5" font-family="Helvetica,sans-Serif" font-size="10.00">+ GetActiveState()</text>
<text text-anchor="start" x="16" y="-189.5" font-family="Helvetica,sans-Serif" font-size="10.00">+ TriggerTransition()</text>
<text text-anchor="start" x="16" y="-178.5" font-family="Helvetica,sans-Serif" font-size="10.00">+ TriggerTransition()</text>
<text text-anchor="start" x="16" y="-167.5" font-family="Helvetica,sans-Serif" font-size="10.00">+ TriggerTransition()</text>
<text text-anchor="start" x="16" y="-156.5" font-family="Helvetica,sans-Serif" font-size="10.00">+ AnnounceCurrentState()</text>
<text text-anchor="start" x="16" y="-145.5" font-family="Helvetica,sans-Serif" font-size="10.00"># MyAwake()</text>
<text text-anchor="start" x="16" y="-134.5" font-family="Helvetica,sans-Serif" font-size="10.00">&#45; Awake()</text>
</a>
</g>
</g>
<!-- Node1&#45;&gt;Node0 -->
<g id="edge1" class="edge"><title>Node1&#45;&gt;Node0</title>
<path fill="none" stroke="midnightblue" d="M73,-117.031C73,-107.869 73,-98.9325 73,-90.6682"/>
<polygon fill="none" stroke="midnightblue" points="69.5001,-117.04 73,-127.04 76.5001,-117.04 69.5001,-117.04"/>
</g>
<!-- Node2 -->
<g id="node3" class="node"><title>Node2</title>
<polygon fill="white" stroke="#bfbfbf" points="31.5,-342.5 31.5,-399.5 114.5,-399.5 114.5,-342.5 31.5,-342.5"/>
<text text-anchor="middle" x="73" y="-387.5" font-family="Helvetica,sans-Serif" font-size="10.00">MonoBehaviour</text>
<polyline fill="none" stroke="#bfbfbf" points="31.5,-380.5 114.5,-380.5 "/>
<text text-anchor="middle" x="73" y="-368.5" font-family="Helvetica,sans-Serif" font-size="10.00"> </text>
<polyline fill="none" stroke="#bfbfbf" points="31.5,-361.5 114.5,-361.5 "/>
<text text-anchor="middle" x="73" y="-349.5" font-family="Helvetica,sans-Serif" font-size="10.00"> </text>
</g>
<!-- Node2&#45;&gt;Node1 -->
<g id="edge2" class="edge"><title>Node2&#45;&gt;Node1</title>
<path fill="none" stroke="midnightblue" d="M73,-332.374C73,-324.089 73,-314.977 73,-305.62"/>
<polygon fill="none" stroke="midnightblue" points="69.5001,-332.383 73,-342.383 76.5001,-332.383 69.5001,-332.383"/>
</g>
</g>
</svg>
