<?xml version="1.0" encoding="UTF-8" standalone="no"?>
<!DOCTYPE svg PUBLIC "-//W3C//DTD SVG 1.1//EN"
 "http://www.w3.org/Graphics/SVG/1.1/DTD/svg11.dtd">
<!-- Generated by graphviz version 2.38.0 (20140413.2041)
 -->
<!-- Title: StateMachine Pages: 1 -->
<svg width="562pt" height="518pt"
 viewBox="0.00 0.00 561.50 518.00" xmlns="http://www.w3.org/2000/svg" xmlns:xlink="http://www.w3.org/1999/xlink">
<g id="graph0" class="graph" transform="scale(1 1) rotate(0) translate(4 514)">
<title>StateMachine</title>
<polygon fill="white" stroke="none" points="-4,4 -4,-514 557.5,-514 557.5,4 -4,4"/>
<!-- Node0 -->
<g id="node1" class="node"><title>Node0</title>
<polygon fill="#bfbfbf" stroke="black" points="217,-237.5 217,-415.5 347,-415.5 347,-237.5 217,-237.5"/>
<text text-anchor="middle" x="282" y="-403.5" font-family="Helvetica,sans-Serif" font-size="10.00">StateMachine</text>
<polyline fill="none" stroke="black" points="217,-396.5 347,-396.5 "/>
<text text-anchor="start" x="225" y="-384.5" font-family="Helvetica,sans-Serif" font-size="10.00">+ logEnabled</text>
<text text-anchor="start" x="225" y="-373.5" font-family="Helvetica,sans-Serif" font-size="10.00">+ stateEnteredEvent</text>
<text text-anchor="start" x="225" y="-362.5" font-family="Helvetica,sans-Serif" font-size="10.00">+ globalValidTriggers</text>
<text text-anchor="start" x="225" y="-351.5" font-family="Helvetica,sans-Serif" font-size="10.00"># activeState</text>
<text text-anchor="start" x="225" y="-340.5" font-family="Helvetica,sans-Serif" font-size="10.00"># controller</text>
<text text-anchor="start" x="225" y="-329.5" font-family="Helvetica,sans-Serif" font-size="10.00">&#45; states</text>
<polyline fill="none" stroke="black" points="217,-322.5 347,-322.5 "/>
<text text-anchor="start" x="225" y="-310.5" font-family="Helvetica,sans-Serif" font-size="10.00">+ GetActiveState()</text>
<text text-anchor="start" x="225" y="-299.5" font-family="Helvetica,sans-Serif" font-size="10.00">+ TriggerTransition()</text>
<text text-anchor="start" x="225" y="-288.5" font-family="Helvetica,sans-Serif" font-size="10.00">+ TriggerTransition()</text>
<text text-anchor="start" x="225" y="-277.5" font-family="Helvetica,sans-Serif" font-size="10.00">+ TriggerTransition()</text>
<text text-anchor="start" x="225" y="-266.5" font-family="Helvetica,sans-Serif" font-size="10.00">+ AnnounceCurrentState()</text>
<text text-anchor="start" x="225" y="-255.5" font-family="Helvetica,sans-Serif" font-size="10.00"># MyAwake()</text>
<text text-anchor="start" x="225" y="-244.5" font-family="Helvetica,sans-Serif" font-size="10.00">&#45; Awake()</text>
</g>
<!-- Node2 -->
<g id="node3" class="node"><title>Node2</title>
<g id="a_node3"><a xlink:href="classmanagement_1_1_game_state_machine.html" target="_top" xlink:title="The GameStateMachine holds the overall program state, transitioning through menu, in&#45;game...">
<polygon fill="white" stroke="black" points="0,-55.5 0,-145.5 146,-145.5 146,-55.5 0,-55.5"/>
<text text-anchor="middle" x="73" y="-133.5" font-family="Helvetica,sans-Serif" font-size="10.00">GameStateMachine</text>
<polyline fill="none" stroke="black" points="0,-126.5 146,-126.5 "/>
<text text-anchor="start" x="8" y="-114.5" font-family="Helvetica,sans-Serif" font-size="10.00">+ transitionEvent</text>
<polyline fill="none" stroke="black" points="0,-107.5 146,-107.5 "/>
<text text-anchor="start" x="8" y="-95.5" font-family="Helvetica,sans-Serif" font-size="10.00">+ MatchStartup()</text>
<text text-anchor="start" x="8" y="-84.5" font-family="Helvetica,sans-Serif" font-size="10.00">+ GameOver()</text>
<text text-anchor="start" x="8" y="-73.5" font-family="Helvetica,sans-Serif" font-size="10.00"># MyAwake()</text>
<text text-anchor="start" x="8" y="-62.5" font-family="Helvetica,sans-Serif" font-size="10.00">&#45; TriggerNetworkedTransition()</text>
</a>
</g>
</g>
<!-- Node0&#45;&gt;Node2 -->
<g id="edge2" class="edge"><title>Node0&#45;&gt;Node2</title>
<path fill="none" stroke="midnightblue" d="M209.531,-257.062C191.343,-239.184 172.136,-219.68 155,-201 138.96,-183.515 122.145,-163.451 107.946,-145.941"/>
<polygon fill="none" stroke="midnightblue" points="207.117,-259.597 216.712,-264.09 212.013,-254.594 207.117,-259.597"/>
</g>
<!-- Node3 -->
<g id="node4" class="node"><title>Node3</title>
<g id="a_node4"><a xlink:href="classnet_1_1_net_state_machine.html" target="_top" xlink:title="{NetStateMachine\n|+ netOverlayPrefab\l&#45; netOverlayInstance\l|+ IsMaster()\l+ GetCurStateName()\l+ GetNetOverlay()\l+ HideNetOverlay()\l# MyAwake()\l&#45; OnDisconnect()\l}">
<polygon fill="white" stroke="black" points="164.5,-39 164.5,-162 275.5,-162 275.5,-39 164.5,-39"/>
<text text-anchor="middle" x="220" y="-150" font-family="Helvetica,sans-Serif" font-size="10.00">NetStateMachine</text>
<polyline fill="none" stroke="black" points="164.5,-143 275.5,-143 "/>
<text text-anchor="start" x="172.5" y="-131" font-family="Helvetica,sans-Serif" font-size="10.00">+ netOverlayPrefab</text>
<text text-anchor="start" x="172.5" y="-120" font-family="Helvetica,sans-Serif" font-size="10.00">&#45; netOverlayInstance</text>
<polyline fill="none" stroke="black" points="164.5,-113 275.5,-113 "/>
<text text-anchor="start" x="172.5" y="-101" font-family="Helvetica,sans-Serif" font-size="10.00">+ IsMaster()</text>
<text text-anchor="start" x="172.5" y="-90" font-family="Helvetica,sans-Serif" font-size="10.00">+ GetCurStateName()</text>
<text text-anchor="start" x="172.5" y="-79" font-family="Helvetica,sans-Serif" font-size="10.00">+ GetNetOverlay()</text>
<text text-anchor="start" x="172.5" y="-68" font-family="Helvetica,sans-Serif" font-size="10.00">+ HideNetOverlay()</text>
<text text-anchor="start" x="172.5" y="-57" font-family="Helvetica,sans-Serif" font-size="10.00"># MyAwake()</text>
<text text-anchor="start" x="172.5" y="-46" font-family="Helvetica,sans-Serif" font-size="10.00">&#45; OnDisconnect()</text>
</a>
</g>
</g>
<!-- Node0&#45;&gt;Node3 -->
<g id="edge3" class="edge"><title>Node0&#45;&gt;Node3</title>
<path fill="none" stroke="midnightblue" d="M254.865,-227.465C248.701,-205.196 242.33,-182.178 236.748,-162.008"/>
<polygon fill="none" stroke="midnightblue" points="251.544,-228.587 257.585,-237.291 258.29,-226.719 251.544,-228.587"/>
</g>
<!-- Node4 -->
<g id="node5" class="node"><title>Node4</title>
<g id="a_node5"><a xlink:href="classui_1_1_main_menu_s_m.html" target="_top" xlink:title="{MainMenuSM\n|+ mainPage\l+ settingsPage\l+ PlayButton\l+ JoinButton\l+ disconnectButton\l|+ InterpretInput()\l# MyAwake()\l}">
<polygon fill="white" stroke="black" points="293.5,-44.5 293.5,-156.5 394.5,-156.5 394.5,-44.5 293.5,-44.5"/>
<text text-anchor="middle" x="344" y="-144.5" font-family="Helvetica,sans-Serif" font-size="10.00">MainMenuSM</text>
<polyline fill="none" stroke="black" points="293.5,-137.5 394.5,-137.5 "/>
<text text-anchor="start" x="301.5" y="-125.5" font-family="Helvetica,sans-Serif" font-size="10.00">+ mainPage</text>
<text text-anchor="start" x="301.5" y="-114.5" font-family="Helvetica,sans-Serif" font-size="10.00">+ settingsPage</text>
<text text-anchor="start" x="301.5" y="-103.5" font-family="Helvetica,sans-Serif" font-size="10.00">+ PlayButton</text>
<text text-anchor="start" x="301.5" y="-92.5" font-family="Helvetica,sans-Serif" font-size="10.00">+ JoinButton</text>
<text text-anchor="start" x="301.5" y="-81.5" font-family="Helvetica,sans-Serif" font-size="10.00">+ disconnectButton</text>
<polyline fill="none" stroke="black" points="293.5,-74.5 394.5,-74.5 "/>
<text text-anchor="start" x="301.5" y="-62.5" font-family="Helvetica,sans-Serif" font-size="10.00">+ InterpretInput()</text>
<text text-anchor="start" x="301.5" y="-51.5" font-family="Helvetica,sans-Serif" font-size="10.00"># MyAwake()</text>
</a>
</g>
</g>
<!-- Node0&#45;&gt;Node4 -->
<g id="edge4" class="edge"><title>Node0&#45;&gt;Node4</title>
<path fill="none" stroke="midnightblue" d="M309.168,-227.343C315.871,-203.126 322.817,-178.031 328.726,-156.683"/>
<polygon fill="none" stroke="midnightblue" points="305.709,-226.719 306.415,-237.291 312.456,-228.587 305.709,-226.719"/>
</g>
<!-- Node5 -->
<g id="node6" class="node"><title>Node5</title>
<g id="a_node6"><a xlink:href="class_unit_ai_state_machine.html" target="_top" xlink:title="{UnitAiStateMachine\n|+ gatherTargetSelector\l+ unit\l+ targetTracker\l+ dynamicMoveTarget\l+ staticMoveTarget\l|+ AttackOrderOn()\l+ AssistOrderOn()\l+ MoveOrderTo()\l+ AttackMoveOrderTo()\l+ GatherOrderOn()\l+ SetFollowTarget()\l+ SetTargetPosition()\l+ SetTargetPosition()\l+ TryToSetAsPickUpTarget()\l# MyAwake()\l}">
<polygon fill="white" stroke="black" points="412.5,-0.5 412.5,-200.5 553.5,-200.5 553.5,-0.5 412.5,-0.5"/>
<text text-anchor="middle" x="483" y="-188.5" font-family="Helvetica,sans-Serif" font-size="10.00">UnitAiStateMachine</text>
<polyline fill="none" stroke="black" points="412.5,-181.5 553.5,-181.5 "/>
<text text-anchor="start" x="420.5" y="-169.5" font-family="Helvetica,sans-Serif" font-size="10.00">+ gatherTargetSelector</text>
<text text-anchor="start" x="420.5" y="-158.5" font-family="Helvetica,sans-Serif" font-size="10.00">+ unit</text>
<text text-anchor="start" x="420.5" y="-147.5" font-family="Helvetica,sans-Serif" font-size="10.00">+ targetTracker</text>
<text text-anchor="start" x="420.5" y="-136.5" font-family="Helvetica,sans-Serif" font-size="10.00">+ dynamicMoveTarget</text>
<text text-anchor="start" x="420.5" y="-125.5" font-family="Helvetica,sans-Serif" font-size="10.00">+ staticMoveTarget</text>
<polyline fill="none" stroke="black" points="412.5,-118.5 553.5,-118.5 "/>
<text text-anchor="start" x="420.5" y="-106.5" font-family="Helvetica,sans-Serif" font-size="10.00">+ AttackOrderOn()</text>
<text text-anchor="start" x="420.5" y="-95.5" font-family="Helvetica,sans-Serif" font-size="10.00">+ AssistOrderOn()</text>
<text text-anchor="start" x="420.5" y="-84.5" font-family="Helvetica,sans-Serif" font-size="10.00">+ MoveOrderTo()</text>
<text text-anchor="start" x="420.5" y="-73.5" font-family="Helvetica,sans-Serif" font-size="10.00">+ AttackMoveOrderTo()</text>
<text text-anchor="start" x="420.5" y="-62.5" font-family="Helvetica,sans-Serif" font-size="10.00">+ GatherOrderOn()</text>
<text text-anchor="start" x="420.5" y="-51.5" font-family="Helvetica,sans-Serif" font-size="10.00">+ SetFollowTarget()</text>
<text text-anchor="start" x="420.5" y="-40.5" font-family="Helvetica,sans-Serif" font-size="10.00">+ SetTargetPosition()</text>
<text text-anchor="start" x="420.5" y="-29.5" font-family="Helvetica,sans-Serif" font-size="10.00">+ SetTargetPosition()</text>
<text text-anchor="start" x="420.5" y="-18.5" font-family="Helvetica,sans-Serif" font-size="10.00">+ TryToSetAsPickUpTarget()</text>
<text text-anchor="start" x="420.5" y="-7.5" font-family="Helvetica,sans-Serif" font-size="10.00"># MyAwake()</text>
</a>
</g>
</g>
<!-- Node0&#45;&gt;Node5 -->
<g id="edge5" class="edge"><title>Node0&#45;&gt;Node5</title>
<path fill="none" stroke="midnightblue" d="M354.349,-254.215C371.008,-237.108 388.405,-218.669 404,-201 406.773,-197.858 409.57,-194.634 412.372,-191.358"/>
<polygon fill="none" stroke="midnightblue" points="351.753,-251.863 347.262,-261.459 356.757,-256.759 351.753,-251.863"/>
</g>
<!-- Node1 -->
<g id="node2" class="node"><title>Node1</title>
<polygon fill="white" stroke="#bfbfbf" points="240.5,-452.5 240.5,-509.5 323.5,-509.5 323.5,-452.5 240.5,-452.5"/>
<text text-anchor="middle" x="282" y="-497.5" font-family="Helvetica,sans-Serif" font-size="10.00">MonoBehaviour</text>
<polyline fill="none" stroke="#bfbfbf" points="240.5,-490.5 323.5,-490.5 "/>
<text text-anchor="middle" x="282" y="-478.5" font-family="Helvetica,sans-Serif" font-size="10.00"> </text>
<polyline fill="none" stroke="#bfbfbf" points="240.5,-471.5 323.5,-471.5 "/>
<text text-anchor="middle" x="282" y="-459.5" font-family="Helvetica,sans-Serif" font-size="10.00"> </text>
</g>
<!-- Node1&#45;&gt;Node0 -->
<g id="edge1" class="edge"><title>Node1&#45;&gt;Node0</title>
<path fill="none" stroke="midnightblue" d="M282,-442.374C282,-434.089 282,-424.977 282,-415.62"/>
<polygon fill="none" stroke="midnightblue" points="278.5,-442.383 282,-452.383 285.5,-442.383 278.5,-442.383"/>
</g>
</g>
</svg>
