<?xml version="1.0" encoding="UTF-8" standalone="no"?>
<!DOCTYPE svg PUBLIC "-//W3C//DTD SVG 1.1//EN"
 "http://www.w3.org/Graphics/SVG/1.1/DTD/svg11.dtd">
<!-- Generated by graphviz version 2.38.0 (20140413.2041)
 -->
<!-- Title: GameManager Pages: 1 -->
<svg width="572pt" height="901pt"
 viewBox="0.00 0.00 572.00 901.00" xmlns="http://www.w3.org/2000/svg" xmlns:xlink="http://www.w3.org/1999/xlink">
<g id="graph0" class="graph" transform="scale(1 1) rotate(0) translate(4 897)">
<title>GameManager</title>
<polygon fill="white" stroke="none" points="-4,4 -4,-897 568,-897 568,4 -4,4"/>
<!-- Node2 -->
<g id="node1" class="node"><title>Node2</title>
<polygon fill="#bfbfbf" stroke="black" points="120,-0.5 120,-101.5 263,-101.5 263,-0.5 120,-0.5"/>
<text text-anchor="middle" x="191.5" y="-89.5" font-family="Helvetica,sans-Serif" font-size="10.00">GameManager</text>
<polyline fill="none" stroke="black" points="120,-82.5 263,-82.5 "/>
<text text-anchor="start" x="128" y="-70.5" font-family="Helvetica,sans-Serif" font-size="10.00">&#45; gameVersion</text>
<polyline fill="none" stroke="black" points="120,-63.5 263,-63.5 "/>
<text text-anchor="start" x="128" y="-51.5" font-family="Helvetica,sans-Serif" font-size="10.00">+ QuitGame()</text>
<text text-anchor="start" x="128" y="-40.5" font-family="Helvetica,sans-Serif" font-size="10.00">+ GetStateMachine()</text>
<text text-anchor="start" x="128" y="-29.5" font-family="Helvetica,sans-Serif" font-size="10.00">+ GetVersion()</text>
<text text-anchor="start" x="128" y="-18.5" font-family="Helvetica,sans-Serif" font-size="10.00"># MyAwake()</text>
<text text-anchor="start" x="128" y="-7.5" font-family="Helvetica,sans-Serif" font-size="10.00">&#45; OnMainMenuStateEntered()</text>
</g>
<!-- Node3 -->
<g id="node2" class="node"><title>Node3</title>
<g id="a_node2"><a xlink:href="class_mono_singleton.html" target="_top" xlink:title="{MonoSingleton\&lt; GameManager \&gt;\n|# instance\l&#45; logEnabled\l|+ Get()\l# LogIfEnabled()\l# MyAwake()\l&#45; Awake()\l}">
<polygon fill="white" stroke="black" points="0,-149.5 0,-250.5 163,-250.5 163,-149.5 0,-149.5"/>
<text text-anchor="middle" x="81.5" y="-238.5" font-family="Helvetica,sans-Serif" font-size="10.00">MonoSingleton&lt; GameManager &gt;</text>
<polyline fill="none" stroke="black" points="0,-231.5 163,-231.5 "/>
<text text-anchor="start" x="8" y="-219.5" font-family="Helvetica,sans-Serif" font-size="10.00"># instance</text>
<text text-anchor="start" x="8" y="-208.5" font-family="Helvetica,sans-Serif" font-size="10.00">&#45; logEnabled</text>
<polyline fill="none" stroke="black" points="0,-201.5 163,-201.5 "/>
<text text-anchor="start" x="8" y="-189.5" font-family="Helvetica,sans-Serif" font-size="10.00">+ Get()</text>
<text text-anchor="start" x="8" y="-178.5" font-family="Helvetica,sans-Serif" font-size="10.00"># LogIfEnabled()</text>
<text text-anchor="start" x="8" y="-167.5" font-family="Helvetica,sans-Serif" font-size="10.00"># MyAwake()</text>
<text text-anchor="start" x="8" y="-156.5" font-family="Helvetica,sans-Serif" font-size="10.00">&#45; Awake()</text>
</a>
</g>
</g>
<!-- Node3&#45;&gt;Node2 -->
<g id="edge1" class="edge"><title>Node3&#45;&gt;Node2</title>
<path fill="none" stroke="midnightblue" d="M124.745,-141.209C134.514,-128.154 144.802,-114.405 154.297,-101.716"/>
<polygon fill="none" stroke="midnightblue" points="121.93,-139.129 118.741,-149.233 127.535,-143.323 121.93,-139.129"/>
</g>
<!-- Node4 -->
<g id="node3" class="node"><title>Node4</title>
<g id="a_node3"><a xlink:href="classmanagement_1_1_game_state_machine.html" target="_top" xlink:title="The GameStateMachine holds the overall program state, transitioning through menu, in&#45;game...">
<polygon fill="white" stroke="black" points="277.5,-155 277.5,-245 423.5,-245 423.5,-155 277.5,-155"/>
<text text-anchor="middle" x="350.5" y="-233" font-family="Helvetica,sans-Serif" font-size="10.00">GameStateMachine</text>
<polyline fill="none" stroke="black" points="277.5,-226 423.5,-226 "/>
<text text-anchor="middle" x="350.5" y="-214" font-family="Helvetica,sans-Serif" font-size="10.00"> </text>
<polyline fill="none" stroke="black" points="277.5,-207 423.5,-207 "/>
<text text-anchor="start" x="285.5" y="-195" font-family="Helvetica,sans-Serif" font-size="10.00">+ MatchStartup()</text>
<text text-anchor="start" x="285.5" y="-184" font-family="Helvetica,sans-Serif" font-size="10.00">+ GameOver()</text>
<text text-anchor="start" x="285.5" y="-173" font-family="Helvetica,sans-Serif" font-size="10.00"># MyAwake()</text>
<text text-anchor="start" x="285.5" y="-162" font-family="Helvetica,sans-Serif" font-size="10.00">&#45; TriggerNetworkedTransition()</text>
</a>
</g>
</g>
<!-- Node4&#45;&gt;Node2 -->
<g id="edge2" class="edge"><title>Node4&#45;&gt;Node2</title>
<path fill="none" stroke="#404040" d="M302.795,-154.895C287.513,-140.767 270.355,-124.903 254.171,-109.941"/>
<polygon fill="none" stroke="#404040" points="254.11,-109.885 246.989,-108.749 245.299,-101.739 252.42,-102.875 254.11,-109.885"/>
<text text-anchor="middle" x="299.5" y="-123" font-family="Helvetica,sans-Serif" font-size="10.00"> &#45;gameSM</text>
</g>
<!-- Node5 -->
<g id="node4" class="node"><title>Node5</title>
<g id="a_node4"><a xlink:href="class_state_machine.html" target="_top" xlink:title="Common Base class for all state machines. ">
<polygon fill="white" stroke="black" points="407.5,-326 407.5,-482 537.5,-482 537.5,-326 407.5,-326"/>
<text text-anchor="middle" x="472.5" y="-470" font-family="Helvetica,sans-Serif" font-size="10.00">StateMachine</text>
<polyline fill="none" stroke="black" points="407.5,-463 537.5,-463 "/>
<text text-anchor="start" x="415.5" y="-451" font-family="Helvetica,sans-Serif" font-size="10.00">+ logEnabled</text>
<text text-anchor="start" x="415.5" y="-440" font-family="Helvetica,sans-Serif" font-size="10.00">+ globalValidTriggers</text>
<text text-anchor="start" x="415.5" y="-429" font-family="Helvetica,sans-Serif" font-size="10.00"># controller</text>
<text text-anchor="start" x="415.5" y="-418" font-family="Helvetica,sans-Serif" font-size="10.00">&#45; states</text>
<polyline fill="none" stroke="black" points="407.5,-411 537.5,-411 "/>
<text text-anchor="start" x="415.5" y="-399" font-family="Helvetica,sans-Serif" font-size="10.00">+ GetActiveState()</text>
<text text-anchor="start" x="415.5" y="-388" font-family="Helvetica,sans-Serif" font-size="10.00">+ TriggerTransition()</text>
<text text-anchor="start" x="415.5" y="-377" font-family="Helvetica,sans-Serif" font-size="10.00">+ TriggerTransition()</text>
<text text-anchor="start" x="415.5" y="-366" font-family="Helvetica,sans-Serif" font-size="10.00">+ TriggerTransition()</text>
<text text-anchor="start" x="415.5" y="-355" font-family="Helvetica,sans-Serif" font-size="10.00">+ AnnounceCurrentState()</text>
<text text-anchor="start" x="415.5" y="-344" font-family="Helvetica,sans-Serif" font-size="10.00"># MyAwake()</text>
<text text-anchor="start" x="415.5" y="-333" font-family="Helvetica,sans-Serif" font-size="10.00">&#45; Awake()</text>
</a>
</g>
</g>
<!-- Node5&#45;&gt;Node4 -->
<g id="edge3" class="edge"><title>Node5&#45;&gt;Node4</title>
<path fill="none" stroke="midnightblue" d="M441.836,-316.178C434.556,-299.934 426.075,-283.515 416.5,-269 411.064,-260.76 404.551,-252.648 397.764,-245.055"/>
<polygon fill="none" stroke="midnightblue" points="438.783,-317.934 445.983,-325.706 445.202,-315.14 438.783,-317.934"/>
</g>
<!-- Node6 -->
<g id="node5" class="node"><title>Node6</title>
<polygon fill="white" stroke="#bfbfbf" points="481,-568.5 481,-625.5 564,-625.5 564,-568.5 481,-568.5"/>
<text text-anchor="middle" x="522.5" y="-613.5" font-family="Helvetica,sans-Serif" font-size="10.00">MonoBehaviour</text>
<polyline fill="none" stroke="#bfbfbf" points="481,-606.5 564,-606.5 "/>
<text text-anchor="middle" x="522.5" y="-594.5" font-family="Helvetica,sans-Serif" font-size="10.00"> </text>
<polyline fill="none" stroke="#bfbfbf" points="481,-587.5 564,-587.5 "/>
<text text-anchor="middle" x="522.5" y="-575.5" font-family="Helvetica,sans-Serif" font-size="10.00"> </text>
</g>
<!-- Node6&#45;&gt;Node5 -->
<g id="edge4" class="edge"><title>Node6&#45;&gt;Node5</title>
<path fill="none" stroke="midnightblue" d="M512.664,-558.427C506.98,-536.713 499.614,-508.577 492.746,-482.341"/>
<polygon fill="none" stroke="midnightblue" points="509.311,-559.439 515.23,-568.227 516.083,-557.667 509.311,-559.439"/>
</g>
<!-- Node7 -->
<g id="node6" class="node"><title>Node7</title>
<g id="a_node6"><a xlink:href="interface_i_state.html" target="_top" xlink:title="{IState\n||+ GetName()\l+ GetTriggers()\l+ Init()\l}">
<polygon fill="white" stroke="black" points="380.5,-557.5 380.5,-636.5 462.5,-636.5 462.5,-557.5 380.5,-557.5"/>
<text text-anchor="middle" x="421.5" y="-624.5" font-family="Helvetica,sans-Serif" font-size="10.00">IState</text>
<polyline fill="none" stroke="black" points="380.5,-617.5 462.5,-617.5 "/>
<text text-anchor="middle" x="421.5" y="-605.5" font-family="Helvetica,sans-Serif" font-size="10.00"> </text>
<polyline fill="none" stroke="black" points="380.5,-598.5 462.5,-598.5 "/>
<text text-anchor="start" x="388.5" y="-586.5" font-family="Helvetica,sans-Serif" font-size="10.00">+ GetName()</text>
<text text-anchor="start" x="388.5" y="-575.5" font-family="Helvetica,sans-Serif" font-size="10.00">+ GetTriggers()</text>
<text text-anchor="start" x="388.5" y="-564.5" font-family="Helvetica,sans-Serif" font-size="10.00">+ Init()</text>
</a>
</g>
</g>
<!-- Node7&#45;&gt;Node5 -->
<g id="edge5" class="edge"><title>Node7&#45;&gt;Node5</title>
<path fill="none" stroke="#404040" d="M431.821,-557.348C436.728,-538.969 442.815,-516.173 448.772,-493.862"/>
<polygon fill="none" stroke="#404040" points="448.773,-493.859 446.456,-487.03 451.869,-482.265 454.186,-489.094 448.773,-493.859"/>
<text text-anchor="middle" x="467" y="-531" font-family="Helvetica,sans-Serif" font-size="10.00"> #activeState</text>
</g>
<!-- Node8 -->
<g id="node7" class="node"><title>Node8</title>
<g id="a_node7"><a xlink:href="class_game_string_event.html" target="_top" xlink:title="{GameStringEvent\n||}">
<polygon fill="white" stroke="black" points="221.5,-568.5 221.5,-625.5 313.5,-625.5 313.5,-568.5 221.5,-568.5"/>
<text text-anchor="middle" x="267.5" y="-613.5" font-family="Helvetica,sans-Serif" font-size="10.00">GameStringEvent</text>
<polyline fill="none" stroke="black" points="221.5,-606.5 313.5,-606.5 "/>
<text text-anchor="middle" x="267.5" y="-594.5" font-family="Helvetica,sans-Serif" font-size="10.00"> </text>
<polyline fill="none" stroke="black" points="221.5,-587.5 313.5,-587.5 "/>
<text text-anchor="middle" x="267.5" y="-575.5" font-family="Helvetica,sans-Serif" font-size="10.00"> </text>
</a>
</g>
</g>
<!-- Node8&#45;&gt;Node2 -->
<g id="edge10" class="edge"><title>Node8&#45;&gt;Node2</title>
<path fill="none" stroke="#404040" d="M257.865,-568.36C252.27,-551.618 245.383,-529.749 240.5,-510 215.556,-409.126 209.459,-383.333 198.5,-280 192.551,-223.905 191.055,-159.647 190.898,-113.676"/>
<polygon fill="none" stroke="#404040" points="190.898,-113.514 186.893,-107.517 190.887,-101.514 194.893,-107.51 190.898,-113.514"/>
<text text-anchor="middle" x="266.5" y="-272" font-family="Helvetica,sans-Serif" font-size="10.00"> +mainMenuStateEnteredEvent</text>
</g>
<!-- Node8&#45;&gt;Node5 -->
<g id="edge6" class="edge"><title>Node8&#45;&gt;Node5</title>
<path fill="none" stroke="#404040" d="M293.554,-568.2C307.575,-554.551 325.8,-538.771 344.5,-528 366.422,-515.373 378.198,-525.094 398.5,-510 405.698,-504.648 412.461,-498.387 418.747,-491.633"/>
<polygon fill="none" stroke="#404040" points="419.128,-491.197 420.062,-484.046 427.021,-482.158 426.088,-489.308 419.128,-491.197"/>
<text text-anchor="middle" x="389" y="-531" font-family="Helvetica,sans-Serif" font-size="10.00"> +stateEnteredEvent</text>
</g>
<!-- Node9 -->
<g id="node8" class="node"><title>Node9</title>
<g id="a_node8"><a xlink:href="class_game_event.html" target="_top" xlink:title="{GameEvent\&lt; string \&gt;\n|+ Event\l+ Event\l|+ Invoke()\l+ Invoke()\l+ AddListener()\l+ AddListener()\l+ RemovedListener()\l+ RemoveListener()\l}">
<polygon fill="white" stroke="black" points="213,-674.5 213,-797.5 322,-797.5 322,-674.5 213,-674.5"/>
<text text-anchor="middle" x="267.5" y="-785.5" font-family="Helvetica,sans-Serif" font-size="10.00">GameEvent&lt; string &gt;</text>
<polyline fill="none" stroke="black" points="213,-778.5 322,-778.5 "/>
<text text-anchor="start" x="221" y="-766.5" font-family="Helvetica,sans-Serif" font-size="10.00">+ Event</text>
<text text-anchor="start" x="221" y="-755.5" font-family="Helvetica,sans-Serif" font-size="10.00">+ Event</text>
<polyline fill="none" stroke="black" points="213,-748.5 322,-748.5 "/>
<text text-anchor="start" x="221" y="-736.5" font-family="Helvetica,sans-Serif" font-size="10.00">+ Invoke()</text>
<text text-anchor="start" x="221" y="-725.5" font-family="Helvetica,sans-Serif" font-size="10.00">+ Invoke()</text>
<text text-anchor="start" x="221" y="-714.5" font-family="Helvetica,sans-Serif" font-size="10.00">+ AddListener()</text>
<text text-anchor="start" x="221" y="-703.5" font-family="Helvetica,sans-Serif" font-size="10.00">+ AddListener()</text>
<text text-anchor="start" x="221" y="-692.5" font-family="Helvetica,sans-Serif" font-size="10.00">+ RemovedListener()</text>
<text text-anchor="start" x="221" y="-681.5" font-family="Helvetica,sans-Serif" font-size="10.00">+ RemoveListener()</text>
</a>
</g>
</g>
<!-- Node9&#45;&gt;Node8 -->
<g id="edge7" class="edge"><title>Node9&#45;&gt;Node8</title>
<path fill="none" stroke="midnightblue" d="M267.5,-663.792C267.5,-650.288 267.5,-636.924 267.5,-625.804"/>
<polygon fill="none" stroke="midnightblue" points="264,-664.112 267.5,-674.112 271,-664.112 264,-664.112"/>
</g>
<!-- Node10 -->
<g id="node9" class="node"><title>Node10</title>
<polygon fill="white" stroke="#bfbfbf" points="223,-835.5 223,-892.5 312,-892.5 312,-835.5 223,-835.5"/>
<text text-anchor="middle" x="267.5" y="-880.5" font-family="Helvetica,sans-Serif" font-size="10.00">ScriptableObject</text>
<polyline fill="none" stroke="#bfbfbf" points="223,-873.5 312,-873.5 "/>
<text text-anchor="middle" x="267.5" y="-861.5" font-family="Helvetica,sans-Serif" font-size="10.00"> </text>
<polyline fill="none" stroke="#bfbfbf" points="223,-854.5 312,-854.5 "/>
<text text-anchor="middle" x="267.5" y="-842.5" font-family="Helvetica,sans-Serif" font-size="10.00"> </text>
</g>
<!-- Node10&#45;&gt;Node9 -->
<g id="edge8" class="edge"><title>Node10&#45;&gt;Node9</title>
<path fill="none" stroke="midnightblue" d="M267.5,-825.182C267.5,-816.491 267.5,-807.033 267.5,-797.646"/>
<polygon fill="none" stroke="midnightblue" points="264,-825.349 267.5,-835.349 271,-825.349 264,-825.349"/>
</g>
<!-- Node11 -->
<g id="node10" class="node"><title>Node11</title>
<g id="a_node10"><a xlink:href="classnet_1_1_net_event.html" target="_top" xlink:title="{NetEvent\&lt; StringNetData \&gt;\n|&#45; eventCode\l&#45; localEvent\l&#45; target\l&#45; defaultData\l&#45; reliable\l&#45; cachedForRoom\l&#45; hasDefaultData\l|+ NetEvent()\l+ NetEvent()\l+ AddListener()\l+ RemoveListener()\l+ Invoke()\l+ Invoke()\l+ OnEvent()\l&#45; ~NetEvent()\l&#45; GetSpecificTargetActorNr()\l}">
<polygon fill="white" stroke="black" points="250,-298.5 250,-509.5 389,-509.5 389,-298.5 250,-298.5"/>
<text text-anchor="middle" x="319.5" y="-497.5" font-family="Helvetica,sans-Serif" font-size="10.00">NetEvent&lt; StringNetData &gt;</text>
<polyline fill="none" stroke="black" points="250,-490.5 389,-490.5 "/>
<text text-anchor="start" x="258" y="-478.5" font-family="Helvetica,sans-Serif" font-size="10.00">&#45; eventCode</text>
<text text-anchor="start" x="258" y="-467.5" font-family="Helvetica,sans-Serif" font-size="10.00">&#45; localEvent</text>
<text text-anchor="start" x="258" y="-456.5" font-family="Helvetica,sans-Serif" font-size="10.00">&#45; target</text>
<text text-anchor="start" x="258" y="-445.5" font-family="Helvetica,sans-Serif" font-size="10.00">&#45; defaultData</text>
<text text-anchor="start" x="258" y="-434.5" font-family="Helvetica,sans-Serif" font-size="10.00">&#45; reliable</text>
<text text-anchor="start" x="258" y="-423.5" font-family="Helvetica,sans-Serif" font-size="10.00">&#45; cachedForRoom</text>
<text text-anchor="start" x="258" y="-412.5" font-family="Helvetica,sans-Serif" font-size="10.00">&#45; hasDefaultData</text>
<polyline fill="none" stroke="black" points="250,-405.5 389,-405.5 "/>
<text text-anchor="start" x="258" y="-393.5" font-family="Helvetica,sans-Serif" font-size="10.00">+ NetEvent()</text>
<text text-anchor="start" x="258" y="-382.5" font-family="Helvetica,sans-Serif" font-size="10.00">+ NetEvent()</text>
<text text-anchor="start" x="258" y="-371.5" font-family="Helvetica,sans-Serif" font-size="10.00">+ AddListener()</text>
<text text-anchor="start" x="258" y="-360.5" font-family="Helvetica,sans-Serif" font-size="10.00">+ RemoveListener()</text>
<text text-anchor="start" x="258" y="-349.5" font-family="Helvetica,sans-Serif" font-size="10.00">+ Invoke()</text>
<text text-anchor="start" x="258" y="-338.5" font-family="Helvetica,sans-Serif" font-size="10.00">+ Invoke()</text>
<text text-anchor="start" x="258" y="-327.5" font-family="Helvetica,sans-Serif" font-size="10.00">+ OnEvent()</text>
<text text-anchor="start" x="258" y="-316.5" font-family="Helvetica,sans-Serif" font-size="10.00">&#45; ~NetEvent()</text>
<text text-anchor="start" x="258" y="-305.5" font-family="Helvetica,sans-Serif" font-size="10.00">&#45; GetSpecificTargetActorNr()</text>
</a>
</g>
</g>
<!-- Node11&#45;&gt;Node4 -->
<g id="edge9" class="edge"><title>Node11&#45;&gt;Node4</title>
<path fill="none" stroke="#404040" d="M335.545,-298.45C337.717,-284.297 339.875,-270.237 341.847,-257.384"/>
<polygon fill="none" stroke="#404040" points="341.856,-257.328 338.812,-250.79 343.676,-245.466 346.719,-252.004 341.856,-257.328"/>
<text text-anchor="middle" x="376" y="-272" font-family="Helvetica,sans-Serif" font-size="10.00"> +transitionEvent</text>
</g>
</g>
</svg>
