<?xml version="1.0" encoding="UTF-8" standalone="no"?>
<!DOCTYPE svg PUBLIC "-//W3C//DTD SVG 1.1//EN"
 "http://www.w3.org/Graphics/SVG/1.1/DTD/svg11.dtd">
<!-- Generated by graphviz version 2.38.0 (20140413.2041)
 -->
<!-- Title: NetOverlayState Pages: 1 -->
<svg width="696pt" height="612pt"
 viewBox="0.00 0.00 696.00 612.00" xmlns="http://www.w3.org/2000/svg" xmlns:xlink="http://www.w3.org/1999/xlink">
<g id="graph0" class="graph" transform="scale(1 1) rotate(0) translate(4 608)">
<title>NetOverlayState</title>
<polygon fill="white" stroke="none" points="-4,4 -4,-608 692,-608 692,4 -4,4"/>
<!-- Node0 -->
<g id="node1" class="node"><title>Node0</title>
<polygon fill="#bfbfbf" stroke="black" points="279.5,-149.5 279.5,-272.5 414.5,-272.5 414.5,-149.5 279.5,-149.5"/>
<text text-anchor="middle" x="347" y="-260.5" font-family="Helvetica,sans-Serif" font-size="10.00">NetOverlayState</text>
<polyline fill="none" stroke="black" points="279.5,-253.5 414.5,-253.5 "/>
<text text-anchor="start" x="287.5" y="-241.5" font-family="Helvetica,sans-Serif" font-size="10.00"># netOverlayRef</text>
<text text-anchor="start" x="287.5" y="-230.5" font-family="Helvetica,sans-Serif" font-size="10.00"># netSM</text>
<text text-anchor="start" x="287.5" y="-219.5" font-family="Helvetica,sans-Serif" font-size="10.00">&#45; minVisibleTime</text>
<text text-anchor="start" x="287.5" y="-208.5" font-family="Helvetica,sans-Serif" font-size="10.00">&#45; timestampOfStateEntered</text>
<polyline fill="none" stroke="black" points="279.5,-201.5 414.5,-201.5 "/>
<text text-anchor="start" x="287.5" y="-189.5" font-family="Helvetica,sans-Serif" font-size="10.00"># TriggerTransitionWithMin</text>
<text text-anchor="start" x="287.5" y="-178.5" font-family="Helvetica,sans-Serif" font-size="10.00">VisibleTime()</text>
<text text-anchor="start" x="287.5" y="-167.5" font-family="Helvetica,sans-Serif" font-size="10.00"># OnOverlayStateEnter()</text>
<text text-anchor="start" x="287.5" y="-156.5" font-family="Helvetica,sans-Serif" font-size="10.00"># OnMyStateEnter()</text>
</g>
<!-- Node3 -->
<g id="node4" class="node"><title>Node3</title>
<g id="a_node4"><a xlink:href="classnet_1_1_connect_to_master_state.html" target="_top" xlink:title="This state is responsible for doing the first step to hosting: connecting to the Photon Master Server...">
<polygon fill="white" stroke="black" points="0,-17 0,-96 128,-96 128,-17 0,-17"/>
<text text-anchor="middle" x="64" y="-84" font-family="Helvetica,sans-Serif" font-size="10.00">ConnectToMasterState</text>
<polyline fill="none" stroke="black" points="0,-77 128,-77 "/>
<text text-anchor="middle" x="64" y="-65" font-family="Helvetica,sans-Serif" font-size="10.00"> </text>
<polyline fill="none" stroke="black" points="0,-58 128,-58 "/>
<text text-anchor="start" x="8" y="-46" font-family="Helvetica,sans-Serif" font-size="10.00"># OnMyStateInit()</text>
<text text-anchor="start" x="8" y="-35" font-family="Helvetica,sans-Serif" font-size="10.00"># OnOverlayStateEnter()</text>
<text text-anchor="start" x="8" y="-24" font-family="Helvetica,sans-Serif" font-size="10.00">&#45; OnConnectedToMaster()</text>
</a>
</g>
</g>
<!-- Node0&#45;&gt;Node3 -->
<g id="edge3" class="edge"><title>Node0&#45;&gt;Node3</title>
<path fill="none" stroke="midnightblue" d="M270.055,-179.239C229.404,-161.813 179.307,-138.439 137,-113 128.541,-107.913 119.897,-102.035 111.655,-96.0475"/>
<polygon fill="none" stroke="midnightblue" points="268.802,-182.51 279.374,-183.202 271.541,-176.068 268.802,-182.51"/>
</g>
<!-- Node4 -->
<g id="node5" class="node"><title>Node4</title>
<g id="a_node5"><a xlink:href="classnet_1_1_disconnected_state.html" target="_top" xlink:title="This network behaviour is reached during startup and whenever a disconnect occurs for whatever reason...">
<polygon fill="white" stroke="black" points="146,-22.5 146,-90.5 268,-90.5 268,-22.5 146,-22.5"/>
<text text-anchor="middle" x="207" y="-78.5" font-family="Helvetica,sans-Serif" font-size="10.00">DisconnectedState</text>
<polyline fill="none" stroke="black" points="146,-71.5 268,-71.5 "/>
<text text-anchor="middle" x="207" y="-59.5" font-family="Helvetica,sans-Serif" font-size="10.00"> </text>
<polyline fill="none" stroke="black" points="146,-52.5 268,-52.5 "/>
<text text-anchor="start" x="154" y="-40.5" font-family="Helvetica,sans-Serif" font-size="10.00"># OnMyStateInit()</text>
<text text-anchor="start" x="154" y="-29.5" font-family="Helvetica,sans-Serif" font-size="10.00"># OnOverlayStateEnter()</text>
</a>
</g>
</g>
<!-- Node0&#45;&gt;Node4 -->
<g id="edge4" class="edge"><title>Node0&#45;&gt;Node4</title>
<path fill="none" stroke="midnightblue" d="M284.35,-141.756C268.112,-124.068 251.341,-105.8 237.583,-90.8136"/>
<polygon fill="none" stroke="midnightblue" points="281.925,-144.29 291.266,-149.29 287.082,-139.556 281.925,-144.29"/>
</g>
<!-- Node5 -->
<g id="node6" class="node"><title>Node5</title>
<g id="a_node6"><a xlink:href="classnet_1_1_host_new_room_state.html" target="_top" xlink:title="Responsible for creating and hosting a new room once connected to Master. ">
<polygon fill="white" stroke="black" points="286,-0.5 286,-112.5 408,-112.5 408,-0.5 286,-0.5"/>
<text text-anchor="middle" x="347" y="-100.5" font-family="Helvetica,sans-Serif" font-size="10.00">HostNewRoomState</text>
<polyline fill="none" stroke="black" points="286,-93.5 408,-93.5 "/>
<text text-anchor="start" x="294" y="-81.5" font-family="Helvetica,sans-Serif" font-size="10.00">+ mainPlayer</text>
<text text-anchor="start" x="294" y="-70.5" font-family="Helvetica,sans-Serif" font-size="10.00">&#45; numTries</text>
<polyline fill="none" stroke="black" points="286,-63.5 408,-63.5 "/>
<text text-anchor="start" x="294" y="-51.5" font-family="Helvetica,sans-Serif" font-size="10.00"># OnMyStateInit()</text>
<text text-anchor="start" x="294" y="-40.5" font-family="Helvetica,sans-Serif" font-size="10.00"># OnOverlayStateEnter()</text>
<text text-anchor="start" x="294" y="-29.5" font-family="Helvetica,sans-Serif" font-size="10.00">&#45; GetRoomName()</text>
<text text-anchor="start" x="294" y="-18.5" font-family="Helvetica,sans-Serif" font-size="10.00">&#45; OnHosting()</text>
<text text-anchor="start" x="294" y="-7.5" font-family="Helvetica,sans-Serif" font-size="10.00">&#45; OnHostingFailed()</text>
</a>
</g>
</g>
<!-- Node0&#45;&gt;Node5 -->
<g id="edge5" class="edge"><title>Node0&#45;&gt;Node5</title>
<path fill="none" stroke="midnightblue" d="M347,-139.246C347,-130.288 347,-121.228 347,-112.564"/>
<polygon fill="none" stroke="midnightblue" points="343.5,-139.29 347,-149.29 350.5,-139.29 343.5,-139.29"/>
</g>
<!-- Node6 -->
<g id="node7" class="node"><title>Node6</title>
<g id="a_node7"><a xlink:href="classnet_1_1_join_room_state.html" target="_top" xlink:title="State for joining an existing room. Needs to be connected to the Master Server of course...">
<polygon fill="white" stroke="black" points="426,-6 426,-107 548,-107 548,-6 426,-6"/>
<text text-anchor="middle" x="487" y="-95" font-family="Helvetica,sans-Serif" font-size="10.00">JoinRoomState</text>
<polyline fill="none" stroke="black" points="426,-88 548,-88 "/>
<text text-anchor="middle" x="487" y="-76" font-family="Helvetica,sans-Serif" font-size="10.00"> </text>
<polyline fill="none" stroke="black" points="426,-69 548,-69 "/>
<text text-anchor="start" x="434" y="-57" font-family="Helvetica,sans-Serif" font-size="10.00"># OnMyStateInit()</text>
<text text-anchor="start" x="434" y="-46" font-family="Helvetica,sans-Serif" font-size="10.00"># OnOverlayStateEnter()</text>
<text text-anchor="start" x="434" y="-35" font-family="Helvetica,sans-Serif" font-size="10.00">&#45; OnJoinedRoom()</text>
<text text-anchor="start" x="434" y="-24" font-family="Helvetica,sans-Serif" font-size="10.00">&#45; OnJoinedRoomFailed()</text>
<text text-anchor="start" x="434" y="-13" font-family="Helvetica,sans-Serif" font-size="10.00">&#45; OnCancelBtnPressed()</text>
</a>
</g>
</g>
<!-- Node0&#45;&gt;Node6 -->
<g id="edge6" class="edge"><title>Node0&#45;&gt;Node6</title>
<path fill="none" stroke="midnightblue" d="M409.694,-141.709C420.35,-130.101 431.235,-118.244 441.346,-107.23"/>
<polygon fill="none" stroke="midnightblue" points="406.918,-139.556 402.734,-149.29 412.075,-144.29 406.918,-139.556"/>
</g>
<!-- Node7 -->
<g id="node8" class="node"><title>Node7</title>
<g id="a_node8"><a xlink:href="classnet_1_1_leave_room_state.html" target="_top" xlink:title="A base behaviour to initialize and return the state&#39;s name. ">
<polygon fill="white" stroke="black" points="566,-22.5 566,-90.5 688,-90.5 688,-22.5 566,-22.5"/>
<text text-anchor="middle" x="627" y="-78.5" font-family="Helvetica,sans-Serif" font-size="10.00">LeaveRoomState</text>
<polyline fill="none" stroke="black" points="566,-71.5 688,-71.5 "/>
<text text-anchor="middle" x="627" y="-59.5" font-family="Helvetica,sans-Serif" font-size="10.00"> </text>
<polyline fill="none" stroke="black" points="566,-52.5 688,-52.5 "/>
<text text-anchor="start" x="574" y="-40.5" font-family="Helvetica,sans-Serif" font-size="10.00"># OnMyStateInit()</text>
<text text-anchor="start" x="574" y="-29.5" font-family="Helvetica,sans-Serif" font-size="10.00"># OnOverlayStateEnter()</text>
</a>
</g>
</g>
<!-- Node0&#45;&gt;Node7 -->
<g id="edge7" class="edge"><title>Node0&#45;&gt;Node7</title>
<path fill="none" stroke="midnightblue" d="M424.157,-179.587C464.867,-162.259 514.954,-138.868 557,-113 567.7,-106.417 578.636,-98.444 588.589,-90.619"/>
<polygon fill="none" stroke="midnightblue" points="422.676,-176.413 414.822,-183.524 425.396,-182.863 422.676,-176.413"/>
</g>
<!-- Node1 -->
<g id="node2" class="node"><title>Node1</title>
<g id="a_node2"><a xlink:href="class_state.html" target="_top" xlink:title="Non&#45;template variant of the BaseState, expecting to be owned by a standard StateMachine. ">
<polygon fill="white" stroke="black" points="327,-309.5 327,-366.5 367,-366.5 367,-309.5 327,-309.5"/>
<text text-anchor="middle" x="347" y="-354.5" font-family="Helvetica,sans-Serif" font-size="10.00">State</text>
<polyline fill="none" stroke="black" points="327,-347.5 367,-347.5 "/>
<text text-anchor="middle" x="347" y="-335.5" font-family="Helvetica,sans-Serif" font-size="10.00"> </text>
<polyline fill="none" stroke="black" points="327,-328.5 367,-328.5 "/>
<text text-anchor="middle" x="347" y="-316.5" font-family="Helvetica,sans-Serif" font-size="10.00"> </text>
</a>
</g>
</g>
<!-- Node1&#45;&gt;Node0 -->
<g id="edge1" class="edge"><title>Node1&#45;&gt;Node0</title>
<path fill="none" stroke="midnightblue" d="M347,-299.099C347,-290.739 347,-281.68 347,-272.672"/>
<polygon fill="none" stroke="midnightblue" points="343.5,-299.258 347,-309.258 350.5,-299.258 343.5,-299.258"/>
</g>
<!-- Node2 -->
<g id="node3" class="node"><title>Node2</title>
<g id="a_node3"><a xlink:href="class_base_state.html" target="_top" xlink:title="{BaseState\&lt; StateMachine \&gt;\n|+ name\l+ triggers\l# sm\l&#45; listeners\l|+ IsActiveState()\l+ GetName()\l+ GetTriggers()\l+ Init()\l+ OnStateEnter()\l+ OnStateExit()\l# AddAutoListener()\l# TriggerTransition()\l# OnMyStateEnter()\l# OnMyStateExit()\l# OnMyStateInit()\l}">
<polygon fill="white" stroke="black" points="277,-403.5 277,-603.5 417,-603.5 417,-403.5 277,-403.5"/>
<text text-anchor="middle" x="347" y="-591.5" font-family="Helvetica,sans-Serif" font-size="10.00">BaseState&lt; StateMachine &gt;</text>
<polyline fill="none" stroke="black" points="277,-584.5 417,-584.5 "/>
<text text-anchor="start" x="285" y="-572.5" font-family="Helvetica,sans-Serif" font-size="10.00">+ name</text>
<text text-anchor="start" x="285" y="-561.5" font-family="Helvetica,sans-Serif" font-size="10.00">+ triggers</text>
<text text-anchor="start" x="285" y="-550.5" font-family="Helvetica,sans-Serif" font-size="10.00"># sm</text>
<text text-anchor="start" x="285" y="-539.5" font-family="Helvetica,sans-Serif" font-size="10.00">&#45; listeners</text>
<polyline fill="none" stroke="black" points="277,-532.5 417,-532.5 "/>
<text text-anchor="start" x="285" y="-520.5" font-family="Helvetica,sans-Serif" font-size="10.00">+ IsActiveState()</text>
<text text-anchor="start" x="285" y="-509.5" font-family="Helvetica,sans-Serif" font-size="10.00">+ GetName()</text>
<text text-anchor="start" x="285" y="-498.5" font-family="Helvetica,sans-Serif" font-size="10.00">+ GetTriggers()</text>
<text text-anchor="start" x="285" y="-487.5" font-family="Helvetica,sans-Serif" font-size="10.00">+ Init()</text>
<text text-anchor="start" x="285" y="-476.5" font-family="Helvetica,sans-Serif" font-size="10.00">+ OnStateEnter()</text>
<text text-anchor="start" x="285" y="-465.5" font-family="Helvetica,sans-Serif" font-size="10.00">+ OnStateExit()</text>
<text text-anchor="start" x="285" y="-454.5" font-family="Helvetica,sans-Serif" font-size="10.00"># AddAutoListener()</text>
<text text-anchor="start" x="285" y="-443.5" font-family="Helvetica,sans-Serif" font-size="10.00"># TriggerTransition()</text>
<text text-anchor="start" x="285" y="-432.5" font-family="Helvetica,sans-Serif" font-size="10.00"># OnMyStateEnter()</text>
<text text-anchor="start" x="285" y="-421.5" font-family="Helvetica,sans-Serif" font-size="10.00"># OnMyStateExit()</text>
<text text-anchor="start" x="285" y="-410.5" font-family="Helvetica,sans-Serif" font-size="10.00"># OnMyStateInit()</text>
</a>
</g>
</g>
<!-- Node2&#45;&gt;Node1 -->
<g id="edge2" class="edge"><title>Node2&#45;&gt;Node1</title>
<path fill="none" stroke="midnightblue" d="M347,-392.964C347,-383.366 347,-374.348 347,-366.533"/>
<polygon fill="none" stroke="midnightblue" points="343.5,-393.15 347,-403.15 350.5,-393.15 343.5,-393.15"/>
</g>
</g>
</svg>
