<?xml version="1.0" encoding="UTF-8" standalone="no"?>
<!DOCTYPE svg PUBLIC "-//W3C//DTD SVG 1.1//EN"
 "http://www.w3.org/Graphics/SVG/1.1/DTD/svg11.dtd">
<!-- Generated by graphviz version 2.38.0 (20140413.2041)
 -->
<!-- Title: UnitStatus Pages: 1 -->
<svg width="331pt" height="398pt"
 viewBox="0.00 0.00 331.00 398.00" xmlns="http://www.w3.org/2000/svg" xmlns:xlink="http://www.w3.org/1999/xlink">
<g id="graph0" class="graph" transform="scale(1 1) rotate(0) translate(4 394)">
<title>UnitStatus</title>
<polygon fill="white" stroke="none" points="-4,4 -4,-394 327,-394 327,4 -4,4"/>
<!-- Node3 -->
<g id="node1" class="node"><title>Node3</title>
<polygon fill="#bfbfbf" stroke="black" points="101,-0.5 101,-68.5 220,-68.5 220,-0.5 101,-0.5"/>
<text text-anchor="middle" x="160.5" y="-56.5" font-family="Helvetica,sans-Serif" font-size="10.00">UnitStatus</text>
<polyline fill="none" stroke="black" points="101,-49.5 220,-49.5 "/>
<text text-anchor="middle" x="160.5" y="-37.5" font-family="Helvetica,sans-Serif" font-size="10.00"> </text>
<polyline fill="none" stroke="black" points="101,-30.5 220,-30.5 "/>
<text text-anchor="start" x="109" y="-18.5" font-family="Helvetica,sans-Serif" font-size="10.00">+ AddStatusEffect()</text>
<text text-anchor="start" x="109" y="-7.5" font-family="Helvetica,sans-Serif" font-size="10.00">+ RemoveStatusEffect()</text>
</g>
<!-- Node4 -->
<g id="node2" class="node"><title>Node4</title>
<polygon fill="white" stroke="#bfbfbf" points="0,-122 0,-179 83,-179 83,-122 0,-122"/>
<text text-anchor="middle" x="41.5" y="-167" font-family="Helvetica,sans-Serif" font-size="10.00">MonoBehaviour</text>
<polyline fill="none" stroke="#bfbfbf" points="0,-160 83,-160 "/>
<text text-anchor="middle" x="41.5" y="-148" font-family="Helvetica,sans-Serif" font-size="10.00"> </text>
<polyline fill="none" stroke="#bfbfbf" points="0,-141 83,-141 "/>
<text text-anchor="middle" x="41.5" y="-129" font-family="Helvetica,sans-Serif" font-size="10.00"> </text>
</g>
<!-- Node4&#45;&gt;Node3 -->
<g id="edge1" class="edge"><title>Node4&#45;&gt;Node3</title>
<path fill="none" stroke="midnightblue" d="M77.6309,-114.887C93.0015,-100.162 110.846,-83.0679 126.03,-68.5214"/>
<polygon fill="none" stroke="midnightblue" points="75.1065,-112.459 70.3066,-121.904 79.949,-117.513 75.1065,-112.459"/>
</g>
<!-- Node5 -->
<g id="node3" class="node"><title>Node5</title>
<g id="a_node3"><a xlink:href="interfacemechanics_1_1_i_status_holder.html" target="_top" xlink:title="Interface for all Behaviours that shall be able to receive status effects. ">
<polygon fill="white" stroke="black" points="101,-116.5 101,-184.5 220,-184.5 220,-116.5 101,-116.5"/>
<text text-anchor="middle" x="160.5" y="-172.5" font-family="Helvetica,sans-Serif" font-size="10.00">IStatusHolder</text>
<polyline fill="none" stroke="black" points="101,-165.5 220,-165.5 "/>
<text text-anchor="middle" x="160.5" y="-153.5" font-family="Helvetica,sans-Serif" font-size="10.00"> </text>
<polyline fill="none" stroke="black" points="101,-146.5 220,-146.5 "/>
<text text-anchor="start" x="109" y="-134.5" font-family="Helvetica,sans-Serif" font-size="10.00">+ AddStatusEffect()</text>
<text text-anchor="start" x="109" y="-123.5" font-family="Helvetica,sans-Serif" font-size="10.00">+ RemoveStatusEffect()</text>
</a>
</g>
</g>
<!-- Node5&#45;&gt;Node3 -->
<g id="edge2" class="edge"><title>Node5&#45;&gt;Node3</title>
<path fill="none" stroke="midnightblue" d="M160.5,-106.06C160.5,-93.644 160.5,-80.3162 160.5,-68.6243"/>
<polygon fill="none" stroke="midnightblue" points="157,-106.22 160.5,-116.22 164,-106.22 157,-106.22"/>
</g>
<!-- Node6 -->
<g id="node4" class="node"><title>Node6</title>
<g id="a_node4"><a xlink:href="class_int_attribute.html" target="_top" xlink:title="Variant of an Attribute expecting and returning int values. ">
<polygon fill="white" stroke="black" points="238,-122 238,-179 317,-179 317,-122 238,-122"/>
<text text-anchor="middle" x="277.5" y="-167" font-family="Helvetica,sans-Serif" font-size="10.00">IntAttribute</text>
<polyline fill="none" stroke="black" points="238,-160 317,-160 "/>
<text text-anchor="middle" x="277.5" y="-148" font-family="Helvetica,sans-Serif" font-size="10.00"> </text>
<polyline fill="none" stroke="black" points="238,-141 317,-141 "/>
<text text-anchor="start" x="246" y="-129" font-family="Helvetica,sans-Serif" font-size="10.00">+ IntAttribute()</text>
</a>
</g>
</g>
<!-- Node6&#45;&gt;Node3 -->
<g id="edge3" class="edge"><title>Node6&#45;&gt;Node3</title>
<path fill="none" stroke="#404040" d="M249.178,-121.904C235.383,-108.463 218.506,-92.0187 203.192,-77.0969"/>
<polygon fill="none" stroke="#404040" points="202.985,-76.8958 195.896,-75.5735 194.39,-68.5214 201.479,-69.8436 202.985,-76.8958"/>
<text text-anchor="middle" x="242.5" y="-90" font-family="Helvetica,sans-Serif" font-size="10.00"> +maxHp</text>
</g>
<!-- Node7 -->
<g id="node5" class="node"><title>Node7</title>
<g id="a_node5"><a xlink:href="class_attribute.html" target="_top" xlink:title="{Attribute\n|+ name\l+ baseValue\l+ baseMultiplier\l+ value\l+ isSynced\l&#45; type\l&#45; initBaseValue\l&#45; tempEffects\l|+ AddEffect()\l+ RemoveEffect()\l# Attribute()\l&#45; Recalculate()\l}">
<polygon fill="white" stroke="black" points="232,-222.5 232,-389.5 323,-389.5 323,-222.5 232,-222.5"/>
<text text-anchor="middle" x="277.5" y="-377.5" font-family="Helvetica,sans-Serif" font-size="10.00">Attribute</text>
<polyline fill="none" stroke="black" points="232,-370.5 323,-370.5 "/>
<text text-anchor="start" x="240" y="-358.5" font-family="Helvetica,sans-Serif" font-size="10.00">+ name</text>
<text text-anchor="start" x="240" y="-347.5" font-family="Helvetica,sans-Serif" font-size="10.00">+ baseValue</text>
<text text-anchor="start" x="240" y="-336.5" font-family="Helvetica,sans-Serif" font-size="10.00">+ baseMultiplier</text>
<text text-anchor="start" x="240" y="-325.5" font-family="Helvetica,sans-Serif" font-size="10.00">+ value</text>
<text text-anchor="start" x="240" y="-314.5" font-family="Helvetica,sans-Serif" font-size="10.00">+ isSynced</text>
<text text-anchor="start" x="240" y="-303.5" font-family="Helvetica,sans-Serif" font-size="10.00">&#45; type</text>
<text text-anchor="start" x="240" y="-292.5" font-family="Helvetica,sans-Serif" font-size="10.00">&#45; initBaseValue</text>
<text text-anchor="start" x="240" y="-281.5" font-family="Helvetica,sans-Serif" font-size="10.00">&#45; tempEffects</text>
<polyline fill="none" stroke="black" points="232,-274.5 323,-274.5 "/>
<text text-anchor="start" x="240" y="-262.5" font-family="Helvetica,sans-Serif" font-size="10.00">+ AddEffect()</text>
<text text-anchor="start" x="240" y="-251.5" font-family="Helvetica,sans-Serif" font-size="10.00">+ RemoveEffect()</text>
<text text-anchor="start" x="240" y="-240.5" font-family="Helvetica,sans-Serif" font-size="10.00"># Attribute()</text>
<text text-anchor="start" x="240" y="-229.5" font-family="Helvetica,sans-Serif" font-size="10.00">&#45; Recalculate()</text>
</a>
</g>
</g>
<!-- Node7&#45;&gt;Node6 -->
<g id="edge4" class="edge"><title>Node7&#45;&gt;Node6</title>
<path fill="none" stroke="midnightblue" d="M277.5,-212.238C277.5,-200.249 277.5,-188.806 277.5,-179.151"/>
<polygon fill="none" stroke="midnightblue" points="274,-212.409 277.5,-222.409 281,-212.409 274,-212.409"/>
</g>
</g>
</svg>
