<?xml version="1.0" encoding="UTF-8" standalone="no"?>
<!DOCTYPE svg PUBLIC "-//W3C//DTD SVG 1.1//EN"
 "http://www.w3.org/Graphics/SVG/1.1/DTD/svg11.dtd">
<!-- Generated by graphviz version 2.38.0 (20140413.2041)
 -->
<!-- Title: Graphical Class Hierarchy Pages: 1 -->
<svg width="393pt" height="902pt"
 viewBox="0.00 0.00 393.00 902.00" xmlns="http://www.w3.org/2000/svg" xmlns:xlink="http://www.w3.org/1999/xlink">
<g id="graph0" class="graph" transform="scale(1 1) rotate(0) translate(4 898)">
<title>Graphical Class Hierarchy</title>
<polygon fill="white" stroke="none" points="-4,4 -4,-898 389,-898 389,4 -4,4"/>
<!-- Node82 -->
<g id="node1" class="node"><title>Node82</title>
<polygon fill="white" stroke="#bfbfbf" points="0,-874.5 0,-893.5 84,-893.5 84,-874.5 0,-874.5"/>
<text text-anchor="middle" x="42" y="-881.5" font-family="Helvetica,sans-Serif" font-size="10.00">IPunObservable</text>
</g>
<!-- Node59 -->
<g id="node2" class="node"><title>Node59</title>
<g id="a_node2"><a xlink:href="classmechanics_1_1_destructible.html" target="_top" xlink:title="Destructibles have hit points and are affected by damage sources. ">
<polygon fill="white" stroke="black" points="149,-874.5 149,-893.5 217,-893.5 217,-874.5 149,-874.5"/>
<text text-anchor="middle" x="183" y="-881.5" font-family="Helvetica,sans-Serif" font-size="10.00">Destructible</text>
</a>
</g>
</g>
<!-- Node82&#45;&gt;Node59 -->
<g id="edge1" class="edge"><title>Node82&#45;&gt;Node59</title>
<path fill="none" stroke="midnightblue" d="M94.5175,-884C112.732,-884 132.716,-884 148.98,-884"/>
<polygon fill="midnightblue" stroke="midnightblue" points="94.3283,-880.5 84.3282,-884 94.3282,-887.5 94.3283,-880.5"/>
</g>
<!-- Node79 -->
<g id="node3" class="node"><title>Node79</title>
<g id="a_node3"><a xlink:href="interfacemechanics_1_1_i_status_holder.html" target="_top" xlink:title="Interface for all Behaviours that shall be able to receive status effects. ">
<polygon fill="white" stroke="black" points="4.5,-836.5 4.5,-855.5 79.5,-855.5 79.5,-836.5 4.5,-836.5"/>
<text text-anchor="middle" x="42" y="-843.5" font-family="Helvetica,sans-Serif" font-size="10.00">IStatusHolder</text>
</a>
</g>
</g>
<!-- Node60 -->
<g id="node4" class="node"><title>Node60</title>
<g id="a_node4"><a xlink:href="classmechanics_1_1_unit_status.html" target="_top" xlink:title="UnitStatus">
<polygon fill="white" stroke="black" points="152,-836.5 152,-855.5 214,-855.5 214,-836.5 152,-836.5"/>
<text text-anchor="middle" x="183" y="-843.5" font-family="Helvetica,sans-Serif" font-size="10.00">UnitStatus</text>
</a>
</g>
</g>
<!-- Node79&#45;&gt;Node60 -->
<g id="edge2" class="edge"><title>Node79&#45;&gt;Node60</title>
<path fill="none" stroke="midnightblue" d="M89.6228,-846C110.139,-846 133.65,-846 151.818,-846"/>
<polygon fill="midnightblue" stroke="midnightblue" points="89.5206,-842.5 79.5206,-846 89.5206,-849.5 89.5206,-842.5"/>
</g>
<!-- Node50 -->
<g id="node5" class="node"><title>Node50</title>
<polygon fill="white" stroke="#bfbfbf" points="0.5,-437.5 0.5,-456.5 83.5,-456.5 83.5,-437.5 0.5,-437.5"/>
<text text-anchor="middle" x="42" y="-444.5" font-family="Helvetica,sans-Serif" font-size="10.00">MonoBehaviour</text>
</g>
<!-- Node50&#45;&gt;Node59 -->
<g id="edge11" class="edge"><title>Node50&#45;&gt;Node59</title>
<path fill="none" stroke="midnightblue" d="M44.0036,-467.101C48.146,-542.15 66.2995,-804.728 120,-865 127.339,-873.238 138.145,-877.953 148.688,-880.635"/>
<polygon fill="midnightblue" stroke="midnightblue" points="47.4783,-466.527 43.4558,-456.726 40.4881,-466.897 47.4783,-466.527"/>
</g>
<!-- Node50&#45;&gt;Node60 -->
<g id="edge12" class="edge"><title>Node50&#45;&gt;Node60</title>
<path fill="none" stroke="midnightblue" d="M44.3713,-466.619C49.6462,-536.616 70.8432,-772.804 120,-827 128.169,-836.006 140.48,-840.795 151.984,-843.322"/>
<polygon fill="midnightblue" stroke="midnightblue" points="47.854,-466.253 43.6363,-456.533 40.8725,-466.761 47.854,-466.253"/>
</g>
<!-- Node0 -->
<g id="node6" class="node"><title>Node0</title>
<g id="a_node6"><a xlink:href="class_camera_controller.html" target="_top" xlink:title="CameraController">
<polygon fill="white" stroke="black" points="137,-570.5 137,-589.5 229,-589.5 229,-570.5 137,-570.5"/>
<text text-anchor="middle" x="183" y="-577.5" font-family="Helvetica,sans-Serif" font-size="10.00">CameraController</text>
</a>
</g>
</g>
<!-- Node50&#45;&gt;Node0 -->
<g id="edge3" class="edge"><title>Node50&#45;&gt;Node0</title>
<path fill="none" stroke="midnightblue" d="M50.8304,-465.83C62.3091,-491.156 86.0836,-535.903 120,-561 125.249,-564.884 131.302,-567.983 137.525,-570.454"/>
<polygon fill="midnightblue" stroke="midnightblue" points="53.9978,-464.338 46.7917,-456.571 47.5815,-467.136 53.9978,-464.338"/>
</g>
<!-- Node52 -->
<g id="node7" class="node"><title>Node52</title>
<g id="a_node7"><a xlink:href="classeditor_1_1_missing_references_finder.html" target="_top" xlink:title="A helper editor script for finding missing references to objects. ">
<polygon fill="white" stroke="black" points="120,-532.5 120,-551.5 246,-551.5 246,-532.5 120,-532.5"/>
<text text-anchor="middle" x="183" y="-539.5" font-family="Helvetica,sans-Serif" font-size="10.00">MissingReferencesFinder</text>
</a>
</g>
</g>
<!-- Node50&#45;&gt;Node52 -->
<g id="edge4" class="edge"><title>Node50&#45;&gt;Node52</title>
<path fill="none" stroke="midnightblue" d="M56.6774,-464.794C70.7916,-482.005 94.3167,-507.67 120,-523 126.38,-526.808 133.592,-529.916 140.781,-532.431"/>
<polygon fill="midnightblue" stroke="midnightblue" points="59.1647,-462.299 50.1929,-456.664 53.6922,-466.664 59.1647,-462.299"/>
</g>
<!-- Node53 -->
<g id="node8" class="node"><title>Node53</title>
<g id="a_node8"><a xlink:href="class_h_b_menu2.html" target="_top" xlink:title="HBMenu2">
<polygon fill="white" stroke="black" points="153.5,-494.5 153.5,-513.5 212.5,-513.5 212.5,-494.5 153.5,-494.5"/>
<text text-anchor="middle" x="183" y="-501.5" font-family="Helvetica,sans-Serif" font-size="10.00">HBMenu2</text>
</a>
</g>
</g>
<!-- Node50&#45;&gt;Node53 -->
<g id="edge5" class="edge"><title>Node50&#45;&gt;Node53</title>
<path fill="none" stroke="midnightblue" d="M69.3578,-461.324C84.0103,-468.95 102.724,-478.142 120,-485 130.673,-489.237 142.683,-493.114 153.271,-496.245"/>
<polygon fill="midnightblue" stroke="midnightblue" points="70.8487,-458.153 60.3714,-456.579 67.5804,-464.344 70.8487,-458.153"/>
</g>
<!-- Node54 -->
<g id="node9" class="node"><title>Node54</title>
<g id="a_node9"><a xlink:href="class_homebase_controller.html" target="_top" xlink:title="HomebaseController">
<polygon fill="white" stroke="black" points="131,-456.5 131,-475.5 235,-475.5 235,-456.5 131,-456.5"/>
<text text-anchor="middle" x="183" y="-463.5" font-family="Helvetica,sans-Serif" font-size="10.00">HomebaseController</text>
</a>
</g>
</g>
<!-- Node50&#45;&gt;Node54 -->
<g id="edge6" class="edge"><title>Node50&#45;&gt;Node54</title>
<path fill="none" stroke="midnightblue" d="M93.5771,-453.913C105.759,-455.579 118.78,-457.358 130.982,-459.026"/>
<polygon fill="midnightblue" stroke="midnightblue" points="93.9601,-450.433 83.5782,-452.547 93.012,-457.369 93.9601,-450.433"/>
</g>
<!-- Node55 -->
<g id="node10" class="node"><title>Node55</title>
<g id="a_node10"><a xlink:href="class_homebase_menu.html" target="_top" xlink:title="HomebaseMenu">
<polygon fill="white" stroke="black" points="139.5,-418.5 139.5,-437.5 226.5,-437.5 226.5,-418.5 139.5,-418.5"/>
<text text-anchor="middle" x="183" y="-425.5" font-family="Helvetica,sans-Serif" font-size="10.00">HomebaseMenu</text>
</a>
</g>
</g>
<!-- Node50&#45;&gt;Node55 -->
<g id="edge7" class="edge"><title>Node50&#45;&gt;Node55</title>
<path fill="none" stroke="midnightblue" d="M93.6798,-440.073C108.615,-438.031 124.803,-435.818 139.192,-433.851"/>
<polygon fill="midnightblue" stroke="midnightblue" points="93.012,-436.631 83.5782,-441.453 93.9601,-443.567 93.012,-436.631"/>
</g>
<!-- Node56 -->
<g id="node11" class="node"><title>Node56</title>
<g id="a_node11"><a xlink:href="classlevel_1_1_death_zone.html" target="_top" xlink:title="Hits destructibles touching it. ">
<polygon fill="white" stroke="black" points="151.5,-380.5 151.5,-399.5 214.5,-399.5 214.5,-380.5 151.5,-380.5"/>
<text text-anchor="middle" x="183" y="-387.5" font-family="Helvetica,sans-Serif" font-size="10.00">DeathZone</text>
</a>
</g>
</g>
<!-- Node50&#45;&gt;Node56 -->
<g id="edge8" class="edge"><title>Node50&#45;&gt;Node56</title>
<path fill="none" stroke="midnightblue" d="M69.3578,-432.676C84.0103,-425.05 102.724,-415.858 120,-409 130.045,-405.012 141.275,-401.343 151.389,-398.315"/>
<polygon fill="midnightblue" stroke="midnightblue" points="67.5804,-429.656 60.3714,-437.421 70.8487,-435.847 67.5804,-429.656"/>
</g>
<!-- Node57 -->
<g id="node12" class="node"><title>Node57</title>
<g id="a_node12"><a xlink:href="class_main_game_overlay.html" target="_top" xlink:title="MainGameOverlay">
<polygon fill="white" stroke="black" points="135,-342.5 135,-361.5 231,-361.5 231,-342.5 135,-342.5"/>
<text text-anchor="middle" x="183" y="-349.5" font-family="Helvetica,sans-Serif" font-size="10.00">MainGameOverlay</text>
</a>
</g>
</g>
<!-- Node50&#45;&gt;Node57 -->
<g id="edge9" class="edge"><title>Node50&#45;&gt;Node57</title>
<path fill="none" stroke="midnightblue" d="M56.6774,-429.206C70.7916,-411.995 94.3167,-386.33 120,-371 126.38,-367.192 133.592,-364.084 140.781,-361.569"/>
<polygon fill="midnightblue" stroke="midnightblue" points="53.6922,-427.336 50.1929,-437.336 59.1647,-431.701 53.6922,-427.336"/>
</g>
<!-- Node58 -->
<g id="node13" class="node"><title>Node58</title>
<g id="a_node13"><a xlink:href="classmechanics_1_1_collision_effector.html" target="_top" xlink:title="A StatusEffect CollisionEffector applies its listed effects to a Collider2D touching it...">
<polygon fill="white" stroke="black" points="140,-304.5 140,-323.5 226,-323.5 226,-304.5 140,-304.5"/>
<text text-anchor="middle" x="183" y="-311.5" font-family="Helvetica,sans-Serif" font-size="10.00">CollisionEffector</text>
</a>
</g>
</g>
<!-- Node50&#45;&gt;Node58 -->
<g id="edge10" class="edge"><title>Node50&#45;&gt;Node58</title>
<path fill="none" stroke="midnightblue" d="M50.8304,-428.17C62.3091,-402.844 86.0836,-358.097 120,-333 125.882,-328.647 132.775,-325.28 139.785,-322.678"/>
<polygon fill="midnightblue" stroke="midnightblue" points="47.5815,-426.864 46.7917,-437.429 53.9978,-429.662 47.5815,-426.864"/>
</g>
<!-- Node61 -->
<g id="node14" class="node"><title>Node61</title>
<g id="a_node14"><a xlink:href="class_mono_singleton.html" target="_top" xlink:title="A base class for all our singletons, which are mainly management behaviours. ">
<polygon fill="white" stroke="black" points="131,-266.5 131,-285.5 235,-285.5 235,-266.5 131,-266.5"/>
<text text-anchor="middle" x="183" y="-273.5" font-family="Helvetica,sans-Serif" font-size="10.00">MonoSingleton&lt; T &gt;</text>
</a>
</g>
</g>
<!-- Node50&#45;&gt;Node61 -->
<g id="edge13" class="edge"><title>Node50&#45;&gt;Node61</title>
<path fill="none" stroke="midnightblue" d="M47.6719,-427.101C56.3164,-394.659 77.8897,-330.443 120,-295 124.651,-291.085 130.099,-287.977 135.8,-285.508"/>
<polygon fill="midnightblue" stroke="midnightblue" points="44.189,-426.6 45.141,-437.151 50.977,-428.309 44.189,-426.6"/>
</g>
<!-- Node62 -->
<g id="node15" class="node"><title>Node62</title>
<g id="a_node15"><a xlink:href="class_multi_cam_target.html" target="_top" xlink:title="Tries to register the object this is attached to upon start to the main camera&#39;s MultiTargetCamera sc...">
<polygon fill="white" stroke="black" points="140.5,-228.5 140.5,-247.5 225.5,-247.5 225.5,-228.5 140.5,-228.5"/>
<text text-anchor="middle" x="183" y="-235.5" font-family="Helvetica,sans-Serif" font-size="10.00">MultiCamTarget</text>
</a>
</g>
</g>
<!-- Node50&#45;&gt;Node62 -->
<g id="edge14" class="edge"><title>Node50&#45;&gt;Node62</title>
<path fill="none" stroke="midnightblue" d="M45.4075,-427.134C51.129,-388.649 69.0991,-303.623 120,-257 125.728,-251.753 132.873,-247.954 140.254,-245.204"/>
<polygon fill="midnightblue" stroke="midnightblue" points="41.8788,-427.11 44.0022,-437.49 48.8152,-428.051 41.8788,-427.11"/>
</g>
<!-- Node63 -->
<g id="node16" class="node"><title>Node63</title>
<g id="a_node16"><a xlink:href="class_multi_target_camera.html" target="_top" xlink:title="Camera automation script to follow all objects with the MultiCamTarget script attached. ">
<polygon fill="white" stroke="black" points="134,-190.5 134,-209.5 232,-209.5 232,-190.5 134,-190.5"/>
<text text-anchor="middle" x="183" y="-197.5" font-family="Helvetica,sans-Serif" font-size="10.00">MultiTargetCamera</text>
</a>
</g>
</g>
<!-- Node50&#45;&gt;Node63 -->
<g id="edge15" class="edge"><title>Node50&#45;&gt;Node63</title>
<path fill="none" stroke="midnightblue" d="M43.8764,-426.875C46.8967,-382.79 60.3235,-277.009 120,-219 123.956,-215.155 128.668,-212.086 133.704,-209.636"/>
<polygon fill="midnightblue" stroke="midnightblue" points="40.3662,-426.954 43.2904,-437.137 47.3548,-427.353 40.3662,-426.954"/>
</g>
<!-- Node64 -->
<g id="node17" class="node"><title>Node64</title>
<g id="a_node17"><a xlink:href="classnet_1_1_photon_destructor.html" target="_top" xlink:title="Provides an RPC target for things to be destroyed by the master. ">
<polygon fill="white" stroke="black" points="137,-152.5 137,-171.5 229,-171.5 229,-152.5 137,-152.5"/>
<text text-anchor="middle" x="183" y="-159.5" font-family="Helvetica,sans-Serif" font-size="10.00">PhotonDestructor</text>
</a>
</g>
</g>
<!-- Node50&#45;&gt;Node64 -->
<g id="edge16" class="edge"><title>Node50&#45;&gt;Node64</title>
<path fill="none" stroke="midnightblue" d="M42.7226,-427.281C43.1406,-378.473 51.1471,-250.935 120,-181 124.739,-176.187 130.662,-172.586 136.955,-169.893"/>
<polygon fill="midnightblue" stroke="midnightblue" points="39.2228,-427.438 42.7409,-437.431 46.2227,-427.425 39.2228,-427.438"/>
</g>
<!-- Node65 -->
<g id="node18" class="node"><title>Node65</title>
<g id="a_node18"><a xlink:href="class_parabola_mover.html" target="_top" xlink:title="ParabolaMover">
<polygon fill="white" stroke="black" points="143,-114.5 143,-133.5 223,-133.5 223,-114.5 143,-114.5"/>
<text text-anchor="middle" x="183" y="-121.5" font-family="Helvetica,sans-Serif" font-size="10.00">ParabolaMover</text>
</a>
</g>
</g>
<!-- Node50&#45;&gt;Node65 -->
<g id="edge17" class="edge"><title>Node50&#45;&gt;Node65</title>
<path fill="none" stroke="midnightblue" d="M45.4801,-427.123C53.4367,-366.39 80.1508,-184.864 120,-143 126.132,-136.558 134.384,-132.283 142.863,-129.45"/>
<polygon fill="midnightblue" stroke="midnightblue" points="41.9767,-426.926 44.1769,-437.29 48.9199,-427.816 41.9767,-426.926"/>
</g>
<!-- Node66 -->
<g id="node19" class="node"><title>Node66</title>
<g id="a_node19"><a xlink:href="class_player_controller.html" target="_top" xlink:title="PlayerController">
<polygon fill="white" stroke="black" points="140,-76.5 140,-95.5 226,-95.5 226,-76.5 140,-76.5"/>
<text text-anchor="middle" x="183" y="-83.5" font-family="Helvetica,sans-Serif" font-size="10.00">PlayerController</text>
</a>
</g>
</g>
<!-- Node50&#45;&gt;Node66 -->
<g id="edge18" class="edge"><title>Node50&#45;&gt;Node66</title>
<path fill="none" stroke="midnightblue" d="M44.8624,-427.264C51.4241,-361.763 75.508,-153.004 120,-105 125.357,-99.2201 132.42,-95.1806 139.855,-92.3617"/>
<polygon fill="midnightblue" stroke="midnightblue" points="41.3565,-427.155 43.8693,-437.447 48.3234,-427.834 41.3565,-427.155"/>
</g>
<!-- Node67 -->
<g id="node20" class="node"><title>Node67</title>
<g id="a_node20"><a xlink:href="class_scene_fader.html" target="_top" xlink:title="SceneFader">
<polygon fill="white" stroke="black" points="148.5,-38.5 148.5,-57.5 217.5,-57.5 217.5,-38.5 148.5,-38.5"/>
<text text-anchor="middle" x="183" y="-45.5" font-family="Helvetica,sans-Serif" font-size="10.00">SceneFader</text>
</a>
</g>
</g>
<!-- Node50&#45;&gt;Node67 -->
<g id="edge19" class="edge"><title>Node50&#45;&gt;Node67</title>
<path fill="none" stroke="midnightblue" d="M44.3713,-427.381C49.6462,-357.384 70.8432,-121.196 120,-67 127.337,-58.9113 138.015,-54.2245 148.449,-51.5229"/>
<polygon fill="midnightblue" stroke="midnightblue" points="40.8725,-427.239 43.6363,-437.467 47.854,-427.747 40.8725,-427.239"/>
</g>
<!-- Node68 -->
<g id="node21" class="node"><title>Node68</title>
<g id="a_node21"><a xlink:href="class_smooth_move_to_target.html" target="_top" xlink:title="Moves this script&#39;s object towards the target position while active. ">
<polygon fill="white" stroke="black" points="128,-0.5 128,-19.5 238,-19.5 238,-0.5 128,-0.5"/>
<text text-anchor="middle" x="183" y="-7.5" font-family="Helvetica,sans-Serif" font-size="10.00">SmoothMoveToTarget</text>
</a>
</g>
</g>
<!-- Node50&#45;&gt;Node68 -->
<g id="edge20" class="edge"><title>Node50&#45;&gt;Node68</title>
<path fill="none" stroke="midnightblue" d="M44.0036,-426.899C48.146,-351.85 66.2995,-89.2724 120,-29 123.445,-25.1334 127.654,-22.0429 132.241,-19.5744"/>
<polygon fill="midnightblue" stroke="midnightblue" points="40.4881,-427.103 43.4558,-437.274 47.4783,-427.473 40.4881,-427.103"/>
</g>
<!-- Node69 -->
<g id="node22" class="node"><title>Node69</title>
<g id="a_node22"><a xlink:href="class_state_machine.html" target="_top" xlink:title="Common Base class for all state machines. ">
<polygon fill="white" stroke="black" points="144.5,-798.5 144.5,-817.5 221.5,-817.5 221.5,-798.5 144.5,-798.5"/>
<text text-anchor="middle" x="183" y="-805.5" font-family="Helvetica,sans-Serif" font-size="10.00">StateMachine</text>
</a>
</g>
</g>
<!-- Node50&#45;&gt;Node69 -->
<g id="edge21" class="edge"><title>Node50&#45;&gt;Node69</title>
<path fill="none" stroke="midnightblue" d="M44.8624,-466.736C51.4241,-532.237 75.508,-740.996 120,-789 126.428,-795.936 135.313,-800.366 144.351,-803.187"/>
<polygon fill="midnightblue" stroke="midnightblue" points="48.3234,-466.166 43.8693,-456.553 41.3565,-466.845 48.3234,-466.166"/>
</g>
<!-- Node72 -->
<g id="node25" class="node"><title>Node72</title>
<g id="a_node25"><a xlink:href="classui_1_1_main_menu.html" target="_top" xlink:title="MainMenu">
<polygon fill="white" stroke="black" points="152,-760.5 152,-779.5 214,-779.5 214,-760.5 152,-760.5"/>
<text text-anchor="middle" x="183" y="-767.5" font-family="Helvetica,sans-Serif" font-size="10.00">MainMenu</text>
</a>
</g>
</g>
<!-- Node50&#45;&gt;Node72 -->
<g id="edge24" class="edge"><title>Node50&#45;&gt;Node72</title>
<path fill="none" stroke="midnightblue" d="M45.4801,-466.877C53.4367,-527.61 80.1508,-709.136 120,-751 128.305,-759.725 140.499,-764.476 151.88,-767.05"/>
<polygon fill="midnightblue" stroke="midnightblue" points="48.9199,-466.184 44.1769,-456.71 41.9767,-467.074 48.9199,-466.184"/>
</g>
<!-- Node73 -->
<g id="node26" class="node"><title>Node73</title>
<g id="a_node26"><a xlink:href="classui_1_1_paused_menu.html" target="_top" xlink:title="PausedMenu">
<polygon fill="white" stroke="black" points="146,-722.5 146,-741.5 220,-741.5 220,-722.5 146,-722.5"/>
<text text-anchor="middle" x="183" y="-729.5" font-family="Helvetica,sans-Serif" font-size="10.00">PausedMenu</text>
</a>
</g>
</g>
<!-- Node50&#45;&gt;Node73 -->
<g id="edge25" class="edge"><title>Node50&#45;&gt;Node73</title>
<path fill="none" stroke="midnightblue" d="M42.7226,-466.719C43.1406,-515.527 51.1471,-643.065 120,-713 126.95,-720.06 136.449,-724.511 145.922,-727.313"/>
<polygon fill="midnightblue" stroke="midnightblue" points="46.2227,-466.575 42.7409,-456.569 39.2228,-466.562 46.2227,-466.575"/>
</g>
<!-- Node74 -->
<g id="node27" class="node"><title>Node74</title>
<g id="a_node27"><a xlink:href="classui_1_1_settings_menu.html" target="_top" xlink:title="SettingsMenu">
<polygon fill="white" stroke="black" points="144.5,-684.5 144.5,-703.5 221.5,-703.5 221.5,-684.5 144.5,-684.5"/>
<text text-anchor="middle" x="183" y="-691.5" font-family="Helvetica,sans-Serif" font-size="10.00">SettingsMenu</text>
</a>
</g>
</g>
<!-- Node50&#45;&gt;Node74 -->
<g id="edge26" class="edge"><title>Node50&#45;&gt;Node74</title>
<path fill="none" stroke="midnightblue" d="M43.8764,-467.125C46.8967,-511.21 60.3235,-616.991 120,-675 126.619,-681.435 135.36,-685.696 144.183,-688.517"/>
<polygon fill="midnightblue" stroke="midnightblue" points="47.3548,-466.647 43.2904,-456.863 40.3662,-467.046 47.3548,-466.647"/>
</g>
<!-- Node75 -->
<g id="node28" class="node"><title>Node75</title>
<g id="a_node28"><a xlink:href="classui_1_1_std_dialog.html" target="_top" xlink:title="A standard dialog handler, for use with a standard prefab. ">
<polygon fill="white" stroke="black" points="153.5,-646.5 153.5,-665.5 212.5,-665.5 212.5,-646.5 153.5,-646.5"/>
<text text-anchor="middle" x="183" y="-653.5" font-family="Helvetica,sans-Serif" font-size="10.00">StdDialog</text>
</a>
</g>
</g>
<!-- Node50&#45;&gt;Node75 -->
<g id="edge27" class="edge"><title>Node50&#45;&gt;Node75</title>
<path fill="none" stroke="midnightblue" d="M45.4075,-466.866C51.129,-505.351 69.0991,-590.377 120,-637 129.132,-645.365 141.863,-650.049 153.415,-652.671"/>
<polygon fill="midnightblue" stroke="midnightblue" points="48.8152,-465.949 44.0022,-456.51 41.8788,-466.89 48.8152,-465.949"/>
</g>
<!-- Node76 -->
<g id="node29" class="node"><title>Node76</title>
<g id="a_node29"><a xlink:href="class_unity_template_projects_1_1_simple_camera_controller.html" target="_top" xlink:title="SimpleCameraController">
<polygon fill="white" stroke="black" points="122,-608.5 122,-627.5 244,-627.5 244,-608.5 122,-608.5"/>
<text text-anchor="middle" x="183" y="-615.5" font-family="Helvetica,sans-Serif" font-size="10.00">SimpleCameraController</text>
</a>
</g>
</g>
<!-- Node50&#45;&gt;Node76 -->
<g id="edge28" class="edge"><title>Node50&#45;&gt;Node76</title>
<path fill="none" stroke="midnightblue" d="M47.6719,-466.899C56.3164,-499.341 77.8897,-563.557 120,-599 124.651,-602.915 130.099,-606.023 135.8,-608.492"/>
<polygon fill="midnightblue" stroke="midnightblue" points="50.977,-465.691 45.141,-456.849 44.189,-467.4 50.977,-465.691"/>
</g>
<!-- Node70 -->
<g id="node23" class="node"><title>Node70</title>
<g id="a_node23"><a xlink:href="classmanagement_1_1_game_state_machine.html" target="_top" xlink:title="The GameStateMachine holds the overall program state, transitioning through menu, in&#45;game...">
<polygon fill="white" stroke="black" points="282,-817.5 282,-836.5 385,-836.5 385,-817.5 282,-817.5"/>
<text text-anchor="middle" x="333.5" y="-824.5" font-family="Helvetica,sans-Serif" font-size="10.00">GameStateMachine</text>
</a>
</g>
</g>
<!-- Node69&#45;&gt;Node70 -->
<g id="edge22" class="edge"><title>Node69&#45;&gt;Node70</title>
<path fill="none" stroke="midnightblue" d="M232.017,-814.144C247.938,-816.181 265.705,-818.454 281.82,-820.516"/>
<polygon fill="midnightblue" stroke="midnightblue" points="232.22,-810.641 221.857,-812.844 231.332,-817.585 232.22,-810.641"/>
</g>
<!-- Node71 -->
<g id="node24" class="node"><title>Node71</title>
<g id="a_node24"><a xlink:href="classnet_1_1_net_state_machine.html" target="_top" xlink:title="NetStateMachine">
<polygon fill="white" stroke="black" points="287.5,-779.5 287.5,-798.5 379.5,-798.5 379.5,-779.5 287.5,-779.5"/>
<text text-anchor="middle" x="333.5" y="-786.5" font-family="Helvetica,sans-Serif" font-size="10.00">NetStateMachine</text>
</a>
</g>
</g>
<!-- Node69&#45;&gt;Node71 -->
<g id="edge23" class="edge"><title>Node69&#45;&gt;Node71</title>
<path fill="none" stroke="midnightblue" d="M232.008,-801.858C249.762,-799.586 269.813,-797.021 287.309,-794.782"/>
<polygon fill="midnightblue" stroke="midnightblue" points="231.332,-798.415 221.857,-803.156 232.22,-805.359 231.332,-798.415"/>
</g>
</g>
</svg>
