<?xml version="1.0" encoding="UTF-8" standalone="no"?>
<!DOCTYPE svg PUBLIC "-//W3C//DTD SVG 1.1//EN"
 "http://www.w3.org/Graphics/SVG/1.1/DTD/svg11.dtd">
<!-- Generated by graphviz version 2.38.0 (20140413.2041)
 -->
<!-- Title: Graphical Class Hierarchy Pages: 1 -->
<svg width="387pt" height="256pt"
 viewBox="0.00 0.00 387.00 256.00" xmlns="http://www.w3.org/2000/svg" xmlns:xlink="http://www.w3.org/1999/xlink">
<g id="graph0" class="graph" transform="scale(1 1) rotate(0) translate(4 252)">
<title>Graphical Class Hierarchy</title>
<polygon fill="white" stroke="none" points="-4,4 -4,-252 383,-252 383,4 -4,4"/>
<!-- Node17 -->
<g id="node1" class="node"><title>Node17</title>
<polygon fill="white" stroke="#bfbfbf" points="0,-114.5 0,-133.5 89,-133.5 89,-114.5 0,-114.5"/>
<text text-anchor="middle" x="44.5" y="-121.5" font-family="Helvetica,sans-Serif" font-size="10.00">ScriptableObject</text>
</g>
<!-- Node0 -->
<g id="node2" class="node"><title>Node0</title>
<g id="a_node2"><a xlink:href="class_game_event.html" target="_top" xlink:title="GameEvent\&lt; DataType \&gt;">
<polygon fill="white" stroke="black" points="125,-228.5 125,-247.5 251,-247.5 251,-228.5 125,-228.5"/>
<text text-anchor="middle" x="188" y="-235.5" font-family="Helvetica,sans-Serif" font-size="10.00">GameEvent&lt; DataType &gt;</text>
</a>
</g>
</g>
<!-- Node17&#45;&gt;Node0 -->
<g id="edge1" class="edge"><title>Node17&#45;&gt;Node0</title>
<path fill="none" stroke="midnightblue" d="M56.286,-142.459C69.737,-163.901 94.6937,-198.897 125,-219 130.817,-222.858 137.452,-225.962 144.169,-228.451"/>
<polygon fill="midnightblue" stroke="midnightblue" points="59.1237,-140.389 50.9376,-133.663 53.1426,-144.025 59.1237,-140.389"/>
</g>
<!-- Node19 -->
<g id="node3" class="node"><title>Node19</title>
<g id="a_node3"><a xlink:href="class_game_event.html" target="_top" xlink:title="GameEvent\&lt; string \&gt;">
<polygon fill="white" stroke="black" points="133.5,-190.5 133.5,-209.5 242.5,-209.5 242.5,-190.5 133.5,-190.5"/>
<text text-anchor="middle" x="188" y="-197.5" font-family="Helvetica,sans-Serif" font-size="10.00">GameEvent&lt; string &gt;</text>
</a>
</g>
</g>
<!-- Node17&#45;&gt;Node19 -->
<g id="edge2" class="edge"><title>Node17&#45;&gt;Node19</title>
<path fill="none" stroke="midnightblue" d="M64.0899,-140.008C79.5299,-152.62 102.527,-169.874 125,-181 132.466,-184.696 140.796,-187.843 148.867,-190.45"/>
<polygon fill="midnightblue" stroke="midnightblue" points="66.2629,-137.263 56.3409,-133.548 61.7804,-142.64 66.2629,-137.263"/>
</g>
<!-- Node21 -->
<g id="node5" class="node"><title>Node21</title>
<g id="a_node5"><a xlink:href="class_game_settings.html" target="_top" xlink:title="Wraps game&#45;wide settings into one asset, modifyable from the editor. ">
<polygon fill="white" stroke="black" points="148.5,-152.5 148.5,-171.5 227.5,-171.5 227.5,-152.5 148.5,-152.5"/>
<text text-anchor="middle" x="188" y="-159.5" font-family="Helvetica,sans-Serif" font-size="10.00">GameSettings</text>
</a>
</g>
</g>
<!-- Node17&#45;&gt;Node21 -->
<g id="edge4" class="edge"><title>Node17&#45;&gt;Node21</title>
<path fill="none" stroke="midnightblue" d="M91.101,-136.246C110.605,-141.484 133.04,-147.509 151.305,-152.414"/>
<polygon fill="midnightblue" stroke="midnightblue" points="91.772,-132.802 81.2064,-133.589 89.9564,-139.563 91.772,-132.802"/>
</g>
<!-- Node22 -->
<g id="node6" class="node"><title>Node22</title>
<g id="a_node6"><a xlink:href="classlevel_1_1_level.html" target="_top" xlink:title="Wraps info on each level to be accessed before the level is actually loaded. ">
<polygon fill="white" stroke="black" points="169,-114.5 169,-133.5 207,-133.5 207,-114.5 169,-114.5"/>
<text text-anchor="middle" x="188" y="-121.5" font-family="Helvetica,sans-Serif" font-size="10.00">Level</text>
</a>
</g>
</g>
<!-- Node17&#45;&gt;Node22 -->
<g id="edge5" class="edge"><title>Node17&#45;&gt;Node22</title>
<path fill="none" stroke="midnightblue" d="M99.408,-124C123.935,-124 151.328,-124 168.844,-124"/>
<polygon fill="midnightblue" stroke="midnightblue" points="99.1093,-120.5 89.1093,-124 99.1092,-127.5 99.1093,-120.5"/>
</g>
<!-- Node23 -->
<g id="node7" class="node"><title>Node23</title>
<g id="a_node7"><a xlink:href="class_player.html" target="_top" xlink:title="Player">
<polygon fill="white" stroke="black" points="166,-76.5 166,-95.5 210,-95.5 210,-76.5 166,-76.5"/>
<text text-anchor="middle" x="188" y="-83.5" font-family="Helvetica,sans-Serif" font-size="10.00">Player</text>
</a>
</g>
</g>
<!-- Node17&#45;&gt;Node23 -->
<g id="edge6" class="edge"><title>Node17&#45;&gt;Node23</title>
<path fill="none" stroke="midnightblue" d="M90.9207,-111.802C116.056,-105.052 146.106,-96.9821 165.826,-91.6864"/>
<polygon fill="midnightblue" stroke="midnightblue" points="89.9564,-108.437 81.2064,-114.411 91.772,-115.198 89.9564,-108.437"/>
</g>
<!-- Node24 -->
<g id="node8" class="node"><title>Node24</title>
<g id="a_node8"><a xlink:href="class_status_effect.html" target="_top" xlink:title="A general Status Effect which is applied to a Attribute of a Character. ">
<polygon fill="white" stroke="black" points="153,-38.5 153,-57.5 223,-57.5 223,-38.5 153,-38.5"/>
<text text-anchor="middle" x="188" y="-45.5" font-family="Helvetica,sans-Serif" font-size="10.00">StatusEffect</text>
</a>
</g>
</g>
<!-- Node17&#45;&gt;Node24 -->
<g id="edge7" class="edge"><title>Node17&#45;&gt;Node24</title>
<path fill="none" stroke="midnightblue" d="M64.0899,-107.992C79.5299,-95.38 102.527,-78.1259 125,-67 133.677,-62.7044 143.521,-59.1506 152.769,-56.3251"/>
<polygon fill="midnightblue" stroke="midnightblue" points="61.7804,-105.36 56.3409,-114.452 66.2629,-110.737 61.7804,-105.36"/>
</g>
<!-- Node25 -->
<g id="node9" class="node"><title>Node25</title>
<g id="a_node9"><a xlink:href="class_unit_info.html" target="_top" xlink:title="UnitInfo">
<polygon fill="white" stroke="black" points="163.5,-0.5 163.5,-19.5 212.5,-19.5 212.5,-0.5 163.5,-0.5"/>
<text text-anchor="middle" x="188" y="-7.5" font-family="Helvetica,sans-Serif" font-size="10.00">UnitInfo</text>
</a>
</g>
</g>
<!-- Node17&#45;&gt;Node25 -->
<g id="edge8" class="edge"><title>Node17&#45;&gt;Node25</title>
<path fill="none" stroke="midnightblue" d="M56.286,-105.541C69.737,-84.0989 94.6937,-49.1026 125,-29 136.446,-21.4079 151.063,-16.7369 163.23,-13.9271"/>
<polygon fill="midnightblue" stroke="midnightblue" points="53.1426,-103.975 50.9376,-114.337 59.1237,-107.611 53.1426,-103.975"/>
</g>
<!-- Node20 -->
<g id="node4" class="node"><title>Node20</title>
<g id="a_node4"><a xlink:href="class_game_string_event.html" target="_top" xlink:title="GameStringEvent">
<polygon fill="white" stroke="black" points="287,-190.5 287,-209.5 379,-209.5 379,-190.5 287,-190.5"/>
<text text-anchor="middle" x="333" y="-197.5" font-family="Helvetica,sans-Serif" font-size="10.00">GameStringEvent</text>
</a>
</g>
</g>
<!-- Node19&#45;&gt;Node20 -->
<g id="edge3" class="edge"><title>Node19&#45;&gt;Node20</title>
<path fill="none" stroke="midnightblue" d="M252.698,-200C264.243,-200 276.062,-200 286.932,-200"/>
<polygon fill="midnightblue" stroke="midnightblue" points="252.655,-196.5 242.655,-200 252.655,-203.5 252.655,-196.5"/>
</g>
</g>
</svg>
