<?xml version="1.0" encoding="UTF-8" standalone="no"?>
<!DOCTYPE svg PUBLIC "-//W3C//DTD SVG 1.1//EN"
 "http://www.w3.org/Graphics/SVG/1.1/DTD/svg11.dtd">
<!-- Generated by graphviz version 2.38.0 (20140413.2041)
 -->
<!-- Title: Graphical Class Hierarchy Pages: 1 -->
<svg width="192pt" height="104pt"
 viewBox="0.00 0.00 192.00 104.00" xmlns="http://www.w3.org/2000/svg" xmlns:xlink="http://www.w3.org/1999/xlink">
<g id="graph0" class="graph" transform="scale(1 1) rotate(0) translate(4 100)">
<title>Graphical Class Hierarchy</title>
<polygon fill="white" stroke="none" points="-4,4 -4,-100 188,-100 188,4 -4,4"/>
<!-- Node0 -->
<g id="node1" class="node"><title>Node0</title>
<g id="a_node1"><a xlink:href="interface_i_net_data_pkg.html" target="_top" xlink:title="Interface to be used by all datatypes which shall be sent via a net::NetEvent. ">
<polygon fill="white" stroke="black" points="0,-38.5 0,-57.5 71,-57.5 71,-38.5 0,-38.5"/>
<text text-anchor="middle" x="35.5" y="-45.5" font-family="Helvetica,sans-Serif" font-size="10.00">INetDataPkg</text>
</a>
</g>
</g>
<!-- Node1 -->
<g id="node2" class="node"><title>Node1</title>
<g id="a_node2"><a xlink:href="structnet_1_1_int_net_data.html" target="_top" xlink:title="Wraps an integer into a data package applicable for use with NetEvent. ">
<polygon fill="white" stroke="black" points="114.5,-76.5 114.5,-95.5 176.5,-95.5 176.5,-76.5 114.5,-76.5"/>
<text text-anchor="middle" x="145.5" y="-83.5" font-family="Helvetica,sans-Serif" font-size="10.00">IntNetData</text>
</a>
</g>
</g>
<!-- Node0&#45;&gt;Node1 -->
<g id="edge1" class="edge"><title>Node0&#45;&gt;Node1</title>
<path fill="none" stroke="midnightblue" d="M73.3672,-60.9718C87.7558,-66.0344 103.955,-71.7341 117.256,-76.4141"/>
<polygon fill="midnightblue" stroke="midnightblue" points="74.3478,-57.6065 63.753,-57.589 72.0244,-64.2097 74.3478,-57.6065"/>
</g>
<!-- Node2 -->
<g id="node3" class="node"><title>Node2</title>
<g id="a_node3"><a xlink:href="structnet_1_1_string_net_data.html" target="_top" xlink:title="Wraps a string into a data package applicable for use with NetEvent. ">
<polygon fill="white" stroke="black" points="107,-38.5 107,-57.5 184,-57.5 184,-38.5 107,-38.5"/>
<text text-anchor="middle" x="145.5" y="-45.5" font-family="Helvetica,sans-Serif" font-size="10.00">StringNetData</text>
</a>
</g>
</g>
<!-- Node0&#45;&gt;Node2 -->
<g id="edge2" class="edge"><title>Node0&#45;&gt;Node2</title>
<path fill="none" stroke="midnightblue" d="M81.3742,-48C89.8335,-48 98.6005,-48 106.812,-48"/>
<polygon fill="midnightblue" stroke="midnightblue" points="81.2664,-44.5001 71.2664,-48 81.2663,-51.5001 81.2664,-44.5001"/>
</g>
<!-- Node3 -->
<g id="node4" class="node"><title>Node3</title>
<g id="a_node4"><a xlink:href="structnet_1_1_void_net_data.html" target="_top" xlink:title="Wraps no data, so is used to flag only that a specific NetEvent was invoked. ">
<polygon fill="white" stroke="black" points="110,-0.5 110,-19.5 181,-19.5 181,-0.5 110,-0.5"/>
<text text-anchor="middle" x="145.5" y="-7.5" font-family="Helvetica,sans-Serif" font-size="10.00">VoidNetData</text>
</a>
</g>
</g>
<!-- Node0&#45;&gt;Node3 -->
<g id="edge3" class="edge"><title>Node0&#45;&gt;Node3</title>
<path fill="none" stroke="midnightblue" d="M73.3672,-35.0282C87.7558,-29.9656 103.955,-24.2659 117.256,-19.5859"/>
<polygon fill="midnightblue" stroke="midnightblue" points="72.0244,-31.7903 63.753,-38.411 74.3478,-38.3935 72.0244,-31.7903"/>
</g>
</g>
</svg>
