<?xml version="1.0" encoding="UTF-8" standalone="no"?>
<!DOCTYPE svg PUBLIC "-//W3C//DTD SVG 1.1//EN"
 "http://www.w3.org/Graphics/SVG/1.1/DTD/svg11.dtd">
<!-- Generated by graphviz version 2.38.0 (20140413.2041)
 -->
<!-- Title: Graphical Class Hierarchy Pages: 1 -->
<svg width="401pt" height="1377pt"
 viewBox="0.00 0.00 401.00 1377.00" xmlns="http://www.w3.org/2000/svg" xmlns:xlink="http://www.w3.org/1999/xlink">
<g id="graph0" class="graph" transform="scale(1 1) rotate(0) translate(4 1373)">
<title>Graphical Class Hierarchy</title>
<polygon fill="white" stroke="none" points="-4,4 -4,-1373 397,-1373 397,4 -4,4"/>
<!-- Node91 -->
<g id="node1" class="node"><title>Node91</title>
<polygon fill="white" stroke="#bfbfbf" points="0,-1349.5 0,-1368.5 84,-1368.5 84,-1349.5 0,-1349.5"/>
<text text-anchor="middle" x="42" y="-1356.5" font-family="Helvetica,sans-Serif" font-size="10.00">IPunObservable</text>
</g>
<!-- Node60 -->
<g id="node2" class="node"><title>Node60</title>
<g id="a_node2"><a xlink:href="classmechanics_1_1_destructible.html" target="_top" xlink:title="Destructibles have hit points and are affected by damage sources. ">
<polygon fill="white" stroke="black" points="153,-1349.5 153,-1368.5 221,-1368.5 221,-1349.5 153,-1349.5"/>
<text text-anchor="middle" x="187" y="-1356.5" font-family="Helvetica,sans-Serif" font-size="10.00">Destructible</text>
</a>
</g>
</g>
<!-- Node91&#45;&gt;Node60 -->
<g id="edge1" class="edge"><title>Node91&#45;&gt;Node60</title>
<path fill="none" stroke="midnightblue" d="M94.5949,-1359C114.026,-1359 135.589,-1359 152.89,-1359"/>
<polygon fill="midnightblue" stroke="midnightblue" points="94.3616,-1355.5 84.3615,-1359 94.3615,-1362.5 94.3616,-1355.5"/>
</g>
<!-- Node87 -->
<g id="node3" class="node"><title>Node87</title>
<g id="a_node3"><a xlink:href="interfacemechanics_1_1_i_status_holder.html" target="_top" xlink:title="Interface for all Behaviours that shall be able to receive status effects. ">
<polygon fill="white" stroke="black" points="4.5,-1311.5 4.5,-1330.5 79.5,-1330.5 79.5,-1311.5 4.5,-1311.5"/>
<text text-anchor="middle" x="42" y="-1318.5" font-family="Helvetica,sans-Serif" font-size="10.00">IStatusHolder</text>
</a>
</g>
</g>
<!-- Node62 -->
<g id="node4" class="node"><title>Node62</title>
<g id="a_node4"><a xlink:href="classmechanics_1_1_unit_status.html" target="_top" xlink:title="UnitStatus">
<polygon fill="white" stroke="black" points="156,-1311.5 156,-1330.5 218,-1330.5 218,-1311.5 156,-1311.5"/>
<text text-anchor="middle" x="187" y="-1318.5" font-family="Helvetica,sans-Serif" font-size="10.00">UnitStatus</text>
</a>
</g>
</g>
<!-- Node87&#45;&gt;Node62 -->
<g id="edge2" class="edge"><title>Node87&#45;&gt;Node62</title>
<path fill="none" stroke="midnightblue" d="M90.0918,-1321C111.636,-1321 136.539,-1321 155.569,-1321"/>
<polygon fill="midnightblue" stroke="midnightblue" points="89.8261,-1317.5 79.8261,-1321 89.826,-1324.5 89.8261,-1317.5"/>
</g>
<!-- Node45 -->
<g id="node5" class="node"><title>Node45</title>
<polygon fill="white" stroke="#bfbfbf" points="0.5,-703.5 0.5,-722.5 83.5,-722.5 83.5,-703.5 0.5,-703.5"/>
<text text-anchor="middle" x="42" y="-710.5" font-family="Helvetica,sans-Serif" font-size="10.00">MonoBehaviour</text>
</g>
<!-- Node45&#45;&gt;Node60 -->
<g id="edge17" class="edge"><title>Node45&#45;&gt;Node60</title>
<path fill="none" stroke="midnightblue" d="M42.6164,-732.547C41.1413,-828.137 39.4556,-1245.6 120,-1340 128.126,-1349.52 140.689,-1354.43 152.683,-1356.91"/>
<polygon fill="midnightblue" stroke="midnightblue" points="46.1162,-732.587 42.7897,-722.528 39.1172,-732.466 46.1162,-732.587"/>
</g>
<!-- Node45&#45;&gt;Node62 -->
<g id="edge19" class="edge"><title>Node45&#45;&gt;Node62</title>
<path fill="none" stroke="midnightblue" d="M42.7852,-733.096C42.2011,-826.115 44.3938,-1214.08 120,-1302 128.863,-1312.31 142.92,-1317.2 155.788,-1319.46"/>
<polygon fill="midnightblue" stroke="midnightblue" points="46.2872,-732.854 42.8698,-722.826 39.2874,-732.796 46.2872,-732.854"/>
</g>
<!-- Node0 -->
<g id="node6" class="node"><title>Node0</title>
<g id="a_node6"><a xlink:href="classbackground_loop.html" target="_top" xlink:title="backgroundLoop">
<polygon fill="white" stroke="black" points="143,-1045.5 143,-1064.5 231,-1064.5 231,-1045.5 143,-1045.5"/>
<text text-anchor="middle" x="187" y="-1052.5" font-family="Helvetica,sans-Serif" font-size="10.00">backgroundLoop</text>
</a>
</g>
</g>
<!-- Node45&#45;&gt;Node0 -->
<g id="edge3" class="edge"><title>Node45&#45;&gt;Node0</title>
<path fill="none" stroke="midnightblue" d="M45.1282,-732.893C52.2872,-796.201 77.4641,-991.449 120,-1036 126.175,-1042.47 134.397,-1046.78 142.937,-1049.64"/>
<polygon fill="midnightblue" stroke="midnightblue" points="48.5763,-732.23 44.001,-722.674 41.6185,-732.997 48.5763,-732.23"/>
</g>
<!-- Node47 -->
<g id="node7" class="node"><title>Node47</title>
<g id="a_node7"><a xlink:href="class_basic_camera_follow.html" target="_top" xlink:title="BasicCameraFollow">
<polygon fill="white" stroke="black" points="135.5,-1007.5 135.5,-1026.5 238.5,-1026.5 238.5,-1007.5 135.5,-1007.5"/>
<text text-anchor="middle" x="187" y="-1014.5" font-family="Helvetica,sans-Serif" font-size="10.00">BasicCameraFollow</text>
</a>
</g>
</g>
<!-- Node45&#45;&gt;Node47 -->
<g id="edge4" class="edge"><title>Node45&#45;&gt;Node47</title>
<path fill="none" stroke="midnightblue" d="M42.1901,-732.811C41.2216,-784.155 45.9848,-922.759 120,-998 124.348,-1002.42 129.653,-1005.83 135.346,-1008.45"/>
<polygon fill="midnightblue" stroke="midnightblue" points="45.6912,-732.82 42.4807,-722.724 38.6941,-732.619 45.6912,-732.82"/>
</g>
<!-- Node48 -->
<g id="node8" class="node"><title>Node48</title>
<g id="a_node8"><a xlink:href="class_bootstrapper.html" target="_top" xlink:title="Bootstrapper">
<polygon fill="white" stroke="black" points="151,-969.5 151,-988.5 223,-988.5 223,-969.5 151,-969.5"/>
<text text-anchor="middle" x="187" y="-976.5" font-family="Helvetica,sans-Serif" font-size="10.00">Bootstrapper</text>
</a>
</g>
</g>
<!-- Node45&#45;&gt;Node48 -->
<g id="edge5" class="edge"><title>Node45&#45;&gt;Node48</title>
<path fill="none" stroke="midnightblue" d="M43.1781,-732.94C44.7083,-779.571 55.1787,-896.583 120,-960 128.267,-968.088 139.745,-972.775 150.814,-975.477"/>
<polygon fill="midnightblue" stroke="midnightblue" points="46.6715,-732.598 42.954,-722.676 39.6732,-732.751 46.6715,-732.598"/>
</g>
<!-- Node49 -->
<g id="node9" class="node"><title>Node49</title>
<g id="a_node9"><a xlink:href="class_camera_controller.html" target="_top" xlink:title="CameraController">
<polygon fill="white" stroke="black" points="141,-931.5 141,-950.5 233,-950.5 233,-931.5 141,-931.5"/>
<text text-anchor="middle" x="187" y="-938.5" font-family="Helvetica,sans-Serif" font-size="10.00">CameraController</text>
</a>
</g>
</g>
<!-- Node45&#45;&gt;Node49 -->
<g id="edge6" class="edge"><title>Node45&#45;&gt;Node49</title>
<path fill="none" stroke="midnightblue" d="M44.4672,-732.646C48.6189,-773.899 64.0885,-870.012 120,-922 125.851,-927.44 133.159,-931.334 140.763,-934.118"/>
<polygon fill="midnightblue" stroke="midnightblue" points="47.9414,-732.199 43.5721,-722.547 40.9688,-732.817 47.9414,-732.199"/>
</g>
<!-- Node50 -->
<g id="node10" class="node"><title>Node50</title>
<g id="a_node10"><a xlink:href="classeditor_1_1_missing_references_finder.html" target="_top" xlink:title="A helper editor script for finding missing references to objects. ">
<polygon fill="white" stroke="black" points="124,-893.5 124,-912.5 250,-912.5 250,-893.5 124,-893.5"/>
<text text-anchor="middle" x="187" y="-900.5" font-family="Helvetica,sans-Serif" font-size="10.00">MissingReferencesFinder</text>
</a>
</g>
</g>
<!-- Node45&#45;&gt;Node50 -->
<g id="edge7" class="edge"><title>Node45&#45;&gt;Node50</title>
<path fill="none" stroke="midnightblue" d="M46.3487,-732.937C53.397,-768.608 73.1515,-843.405 120,-884 124.506,-887.904 129.769,-891.008 135.322,-893.475"/>
<polygon fill="midnightblue" stroke="midnightblue" points="49.7398,-732.025 44.4885,-722.823 42.8553,-733.292 49.7398,-732.025"/>
</g>
<!-- Node51 -->
<g id="node11" class="node"><title>Node51</title>
<g id="a_node11"><a xlink:href="class_h_b_menu2.html" target="_top" xlink:title="HBMenu2">
<polygon fill="white" stroke="black" points="157.5,-855.5 157.5,-874.5 216.5,-874.5 216.5,-855.5 157.5,-855.5"/>
<text text-anchor="middle" x="187" y="-862.5" font-family="Helvetica,sans-Serif" font-size="10.00">HBMenu2</text>
</a>
</g>
</g>
<!-- Node45&#45;&gt;Node51 -->
<g id="edge8" class="edge"><title>Node45&#45;&gt;Node51</title>
<path fill="none" stroke="midnightblue" d="M49.0262,-732.528C59.0142,-761.629 81.7795,-816.143 120,-846 130.712,-854.368 144.972,-859.051 157.495,-861.671"/>
<polygon fill="midnightblue" stroke="midnightblue" points="52.2545,-731.139 45.8183,-722.723 45.6015,-733.316 52.2545,-731.139"/>
</g>
<!-- Node52 -->
<g id="node12" class="node"><title>Node52</title>
<g id="a_node12"><a xlink:href="class_hide_tilemap_collider_on_play.html" target="_top" xlink:title="HideTilemapColliderOnPlay">
<polygon fill="white" stroke="black" points="120,-817.5 120,-836.5 254,-836.5 254,-817.5 120,-817.5"/>
<text text-anchor="middle" x="187" y="-824.5" font-family="Helvetica,sans-Serif" font-size="10.00">HideTilemapColliderOnPlay</text>
</a>
</g>
</g>
<!-- Node45&#45;&gt;Node52 -->
<g id="edge9" class="edge"><title>Node45&#45;&gt;Node52</title>
<path fill="none" stroke="midnightblue" d="M53.2471,-731.555C66.0824,-753.09 90.0688,-788.176 120,-808 125.865,-811.885 132.533,-814.988 139.321,-817.464"/>
<polygon fill="midnightblue" stroke="midnightblue" points="56.1793,-729.633 48.1531,-722.717 50.1146,-733.129 56.1793,-729.633"/>
</g>
<!-- Node53 -->
<g id="node13" class="node"><title>Node53</title>
<g id="a_node13"><a xlink:href="class_homebase_controller.html" target="_top" xlink:title="HomebaseController">
<polygon fill="white" stroke="black" points="135,-779.5 135,-798.5 239,-798.5 239,-779.5 135,-779.5"/>
<text text-anchor="middle" x="187" y="-786.5" font-family="Helvetica,sans-Serif" font-size="10.00">HomebaseController</text>
</a>
</g>
</g>
<!-- Node45&#45;&gt;Node53 -->
<g id="edge10" class="edge"><title>Node45&#45;&gt;Node53</title>
<path fill="none" stroke="midnightblue" d="M61.5404,-729.714C76.4095,-742.346 98.3094,-759.287 120,-770 127.59,-773.749 136.047,-776.88 144.306,-779.447"/>
<polygon fill="midnightblue" stroke="midnightblue" points="63.4951,-726.775 53.6528,-722.853 58.9011,-732.057 63.4951,-726.775"/>
</g>
<!-- Node54 -->
<g id="node14" class="node"><title>Node54</title>
<g id="a_node14"><a xlink:href="class_homebase_menu.html" target="_top" xlink:title="HomebaseMenu">
<polygon fill="white" stroke="black" points="143.5,-741.5 143.5,-760.5 230.5,-760.5 230.5,-741.5 143.5,-741.5"/>
<text text-anchor="middle" x="187" y="-748.5" font-family="Helvetica,sans-Serif" font-size="10.00">HomebaseMenu</text>
</a>
</g>
</g>
<!-- Node45&#45;&gt;Node54 -->
<g id="edge11" class="edge"><title>Node45&#45;&gt;Node54</title>
<path fill="none" stroke="midnightblue" d="M88.8133,-725.174C108.587,-730.429 131.384,-736.487 149.927,-741.414"/>
<polygon fill="midnightblue" stroke="midnightblue" points="89.6484,-721.775 79.0849,-722.589 87.8506,-728.54 89.6484,-721.775"/>
</g>
<!-- Node55 -->
<g id="node15" class="node"><title>Node55</title>
<g id="a_node15"><a xlink:href="classlevel_1_1_death_zone.html" target="_top" xlink:title="Hits destructibles touching it. ">
<polygon fill="white" stroke="black" points="155.5,-703.5 155.5,-722.5 218.5,-722.5 218.5,-703.5 155.5,-703.5"/>
<text text-anchor="middle" x="187" y="-710.5" font-family="Helvetica,sans-Serif" font-size="10.00">DeathZone</text>
</a>
</g>
</g>
<!-- Node45&#45;&gt;Node55 -->
<g id="edge12" class="edge"><title>Node45&#45;&gt;Node55</title>
<path fill="none" stroke="midnightblue" d="M93.7653,-713C114.326,-713 137.39,-713 155.312,-713"/>
<polygon fill="midnightblue" stroke="midnightblue" points="93.5956,-709.5 83.5956,-713 93.5955,-716.5 93.5956,-709.5"/>
</g>
<!-- Node56 -->
<g id="node16" class="node"><title>Node56</title>
<g id="a_node16"><a xlink:href="class_main_game_overlay.html" target="_top" xlink:title="MainGameOverlay">
<polygon fill="white" stroke="black" points="139,-665.5 139,-684.5 235,-684.5 235,-665.5 139,-665.5"/>
<text text-anchor="middle" x="187" y="-672.5" font-family="Helvetica,sans-Serif" font-size="10.00">MainGameOverlay</text>
</a>
</g>
</g>
<!-- Node45&#45;&gt;Node56 -->
<g id="edge13" class="edge"><title>Node45&#45;&gt;Node56</title>
<path fill="none" stroke="midnightblue" d="M88.8133,-700.826C108.587,-695.571 131.384,-689.513 149.927,-684.586"/>
<polygon fill="midnightblue" stroke="midnightblue" points="87.8506,-697.46 79.0849,-703.411 89.6484,-704.225 87.8506,-697.46"/>
</g>
<!-- Node57 -->
<g id="node17" class="node"><title>Node57</title>
<g id="a_node17"><a xlink:href="class_math_unit_tests.html" target="_top" xlink:title="MathUnitTests">
<polygon fill="white" stroke="black" points="147,-627.5 147,-646.5 227,-646.5 227,-627.5 147,-627.5"/>
<text text-anchor="middle" x="187" y="-634.5" font-family="Helvetica,sans-Serif" font-size="10.00">MathUnitTests</text>
</a>
</g>
</g>
<!-- Node45&#45;&gt;Node57 -->
<g id="edge14" class="edge"><title>Node45&#45;&gt;Node57</title>
<path fill="none" stroke="midnightblue" d="M61.5404,-696.286C76.4095,-683.654 98.3094,-666.713 120,-656 128.339,-651.881 137.723,-648.509 146.742,-645.81"/>
<polygon fill="midnightblue" stroke="midnightblue" points="58.9011,-693.943 53.6528,-703.147 63.4951,-699.225 58.9011,-693.943"/>
</g>
<!-- Node58 -->
<g id="node18" class="node"><title>Node58</title>
<g id="a_node18"><a xlink:href="classmechanics_1_1_attack_target_tracker.html" target="_top" xlink:title="This is to implement the target selection, as described here: Target Selection. ">
<polygon fill="white" stroke="black" points="135,-589.5 135,-608.5 239,-608.5 239,-589.5 135,-589.5"/>
<text text-anchor="middle" x="187" y="-596.5" font-family="Helvetica,sans-Serif" font-size="10.00">AttackTargetTracker</text>
</a>
</g>
</g>
<!-- Node45&#45;&gt;Node58 -->
<g id="edge15" class="edge"><title>Node45&#45;&gt;Node58</title>
<path fill="none" stroke="midnightblue" d="M53.2471,-694.445C66.0824,-672.91 90.0688,-637.824 120,-618 125.865,-614.115 132.533,-611.012 139.321,-608.536"/>
<polygon fill="midnightblue" stroke="midnightblue" points="50.1146,-692.871 48.1531,-703.283 56.1793,-696.367 50.1146,-692.871"/>
</g>
<!-- Node59 -->
<g id="node19" class="node"><title>Node59</title>
<g id="a_node19"><a xlink:href="classmechanics_1_1_collision_effector.html" target="_top" xlink:title="A StatusEffect CollisionEffector applies its listed effects to a Collider2D touching it...">
<polygon fill="white" stroke="black" points="144,-551.5 144,-570.5 230,-570.5 230,-551.5 144,-551.5"/>
<text text-anchor="middle" x="187" y="-558.5" font-family="Helvetica,sans-Serif" font-size="10.00">CollisionEffector</text>
</a>
</g>
</g>
<!-- Node45&#45;&gt;Node59 -->
<g id="edge16" class="edge"><title>Node45&#45;&gt;Node59</title>
<path fill="none" stroke="midnightblue" d="M49.0262,-693.472C59.0142,-664.371 81.7795,-609.857 120,-580 126.953,-574.568 135.402,-570.689 143.9,-567.919"/>
<polygon fill="midnightblue" stroke="midnightblue" points="45.6015,-692.684 45.8183,-703.277 52.2545,-694.861 45.6015,-692.684"/>
</g>
<!-- Node61 -->
<g id="node20" class="node"><title>Node61</title>
<g id="a_node20"><a xlink:href="classmechanics_1_1_food.html" target="_top" xlink:title="Food">
<polygon fill="white" stroke="black" points="168,-513.5 168,-532.5 206,-532.5 206,-513.5 168,-513.5"/>
<text text-anchor="middle" x="187" y="-520.5" font-family="Helvetica,sans-Serif" font-size="10.00">Food</text>
</a>
</g>
</g>
<!-- Node45&#45;&gt;Node61 -->
<g id="edge18" class="edge"><title>Node45&#45;&gt;Node61</title>
<path fill="none" stroke="midnightblue" d="M46.3487,-693.063C53.397,-657.392 73.1515,-582.595 120,-542 133.337,-530.444 153.312,-525.899 167.792,-524.121"/>
<polygon fill="midnightblue" stroke="midnightblue" points="42.8553,-692.708 44.4885,-703.177 49.7398,-693.975 42.8553,-692.708"/>
</g>
<!-- Node63 -->
<g id="node21" class="node"><title>Node63</title>
<g id="a_node21"><a xlink:href="class_mono_singleton.html" target="_top" xlink:title="A base class for all our singletons, which are mainly management behaviours. ">
<polygon fill="white" stroke="black" points="135,-475.5 135,-494.5 239,-494.5 239,-475.5 135,-475.5"/>
<text text-anchor="middle" x="187" y="-482.5" font-family="Helvetica,sans-Serif" font-size="10.00">MonoSingleton&lt; T &gt;</text>
</a>
</g>
</g>
<!-- Node45&#45;&gt;Node63 -->
<g id="edge20" class="edge"><title>Node45&#45;&gt;Node63</title>
<path fill="none" stroke="midnightblue" d="M44.4672,-693.354C48.6189,-652.101 64.0885,-555.988 120,-504 124.279,-500.022 129.338,-496.87 134.721,-494.374"/>
<polygon fill="midnightblue" stroke="midnightblue" points="40.9688,-693.183 43.5721,-703.453 47.9414,-693.801 40.9688,-693.183"/>
</g>
<!-- Node64 -->
<g id="node22" class="node"><title>Node64</title>
<g id="a_node22"><a xlink:href="class_multi_cam_target.html" target="_top" xlink:title="Tries to register the object this is attached to upon start to the main camera&#39;s MultiTargetCamera sc...">
<polygon fill="white" stroke="black" points="144.5,-437.5 144.5,-456.5 229.5,-456.5 229.5,-437.5 144.5,-437.5"/>
<text text-anchor="middle" x="187" y="-444.5" font-family="Helvetica,sans-Serif" font-size="10.00">MultiCamTarget</text>
</a>
</g>
</g>
<!-- Node45&#45;&gt;Node64 -->
<g id="edge21" class="edge"><title>Node45&#45;&gt;Node64</title>
<path fill="none" stroke="midnightblue" d="M43.1781,-693.06C44.7083,-646.429 55.1787,-529.417 120,-466 126.648,-459.496 135.372,-455.191 144.29,-452.35"/>
<polygon fill="midnightblue" stroke="midnightblue" points="39.6732,-693.249 42.954,-703.324 46.6715,-693.402 39.6732,-693.249"/>
</g>
<!-- Node65 -->
<g id="node23" class="node"><title>Node65</title>
<g id="a_node23"><a xlink:href="class_multi_target_camera.html" target="_top" xlink:title="Camera automation script to follow all objects with the MultiCamTarget script attached. ">
<polygon fill="white" stroke="black" points="138,-399.5 138,-418.5 236,-418.5 236,-399.5 138,-399.5"/>
<text text-anchor="middle" x="187" y="-406.5" font-family="Helvetica,sans-Serif" font-size="10.00">MultiTargetCamera</text>
</a>
</g>
</g>
<!-- Node45&#45;&gt;Node65 -->
<g id="edge22" class="edge"><title>Node45&#45;&gt;Node65</title>
<path fill="none" stroke="midnightblue" d="M42.1901,-693.189C41.2216,-641.845 45.9848,-503.241 120,-428 125.017,-422.9 131.308,-419.147 138,-416.389"/>
<polygon fill="midnightblue" stroke="midnightblue" points="38.6941,-693.381 42.4807,-703.276 45.6912,-693.18 38.6941,-693.381"/>
</g>
<!-- Node66 -->
<g id="node24" class="node"><title>Node66</title>
<g id="a_node24"><a xlink:href="classnet_1_1_photon_destructor.html" target="_top" xlink:title="Provides an RPC target for things to be destroyed by the master. ">
<polygon fill="white" stroke="black" points="141,-361.5 141,-380.5 233,-380.5 233,-361.5 141,-361.5"/>
<text text-anchor="middle" x="187" y="-368.5" font-family="Helvetica,sans-Serif" font-size="10.00">PhotonDestructor</text>
</a>
</g>
</g>
<!-- Node45&#45;&gt;Node66 -->
<g id="edge23" class="edge"><title>Node45&#45;&gt;Node66</title>
<path fill="none" stroke="midnightblue" d="M45.1282,-693.107C52.2872,-629.799 77.4641,-434.551 120,-390 125.681,-384.049 133.095,-379.926 140.894,-377.078"/>
<polygon fill="midnightblue" stroke="midnightblue" points="41.6185,-693.003 44.001,-703.326 48.5763,-693.77 41.6185,-693.003"/>
</g>
<!-- Node67 -->
<g id="node25" class="node"><title>Node67</title>
<g id="a_node25"><a xlink:href="class_notes.html" target="_top" xlink:title="Notes">
<polygon fill="white" stroke="black" points="166,-323.5 166,-342.5 208,-342.5 208,-323.5 166,-323.5"/>
<text text-anchor="middle" x="187" y="-330.5" font-family="Helvetica,sans-Serif" font-size="10.00">Notes</text>
</a>
</g>
</g>
<!-- Node45&#45;&gt;Node67 -->
<g id="edge24" class="edge"><title>Node45&#45;&gt;Node67</title>
<path fill="none" stroke="midnightblue" d="M44.5954,-693.025C50.4341,-624.829 72.8066,-402.626 120,-352 131.708,-339.441 151.127,-334.999 165.878,-333.516"/>
<polygon fill="midnightblue" stroke="midnightblue" points="41.0858,-692.996 43.7464,-703.252 48.0618,-693.576 41.0858,-692.996"/>
</g>
<!-- Node68 -->
<g id="node26" class="node"><title>Node68</title>
<g id="a_node26"><a xlink:href="class_parabola_mover.html" target="_top" xlink:title="ParabolaMover">
<polygon fill="white" stroke="black" points="147,-285.5 147,-304.5 227,-304.5 227,-285.5 147,-285.5"/>
<text text-anchor="middle" x="187" y="-292.5" font-family="Helvetica,sans-Serif" font-size="10.00">ParabolaMover</text>
</a>
</g>
</g>
<!-- Node45&#45;&gt;Node68 -->
<g id="edge25" class="edge"><title>Node45&#45;&gt;Node68</title>
<path fill="none" stroke="midnightblue" d="M44.1363,-693.307C48.7029,-620.922 68.0399,-370.841 120,-314 126.999,-306.343 136.864,-301.697 146.838,-298.898"/>
<polygon fill="midnightblue" stroke="midnightblue" points="40.6396,-693.148 43.5275,-703.342 47.6268,-693.572 40.6396,-693.148"/>
</g>
<!-- Node69 -->
<g id="node27" class="node"><title>Node69</title>
<g id="a_node27"><a xlink:href="class_parallax_scroll.html" target="_top" xlink:title="Parallax scrolling script which should fit to the object drawing layer. ">
<polygon fill="white" stroke="black" points="148.5,-247.5 148.5,-266.5 225.5,-266.5 225.5,-247.5 148.5,-247.5"/>
<text text-anchor="middle" x="187" y="-254.5" font-family="Helvetica,sans-Serif" font-size="10.00">ParallaxScroll</text>
</a>
</g>
</g>
<!-- Node45&#45;&gt;Node69 -->
<g id="edge26" class="edge"><title>Node45&#45;&gt;Node69</title>
<path fill="none" stroke="midnightblue" d="M43.7912,-692.95C47.2374,-615.752 63.4063,-338.928 120,-276 127.335,-267.844 137.922,-263.096 148.477,-260.36"/>
<polygon fill="midnightblue" stroke="midnightblue" points="40.2833,-693.065 43.3573,-703.204 47.277,-693.361 40.2833,-693.065"/>
</g>
<!-- Node70 -->
<g id="node28" class="node"><title>Node70</title>
<g id="a_node28"><a xlink:href="class_player_controller.html" target="_top" xlink:title="PlayerController">
<polygon fill="white" stroke="black" points="144,-209.5 144,-228.5 230,-228.5 230,-209.5 144,-209.5"/>
<text text-anchor="middle" x="187" y="-216.5" font-family="Helvetica,sans-Serif" font-size="10.00">PlayerController</text>
</a>
</g>
</g>
<!-- Node45&#45;&gt;Node70 -->
<g id="edge27" class="edge"><title>Node45&#45;&gt;Node70</title>
<path fill="none" stroke="midnightblue" d="M43.4852,-692.803C45.8506,-611.223 58.7073,-307.099 120,-238 126.251,-230.953 134.929,-226.446 143.941,-223.582"/>
<polygon fill="midnightblue" stroke="midnightblue" points="39.9766,-693.08 43.2078,-703.17 46.9741,-693.267 39.9766,-693.08"/>
</g>
<!-- Node71 -->
<g id="node29" class="node"><title>Node71</title>
<g id="a_node29"><a xlink:href="class_scene_fader.html" target="_top" xlink:title="SceneFader">
<polygon fill="white" stroke="black" points="152.5,-171.5 152.5,-190.5 221.5,-190.5 221.5,-171.5 152.5,-171.5"/>
<text text-anchor="middle" x="187" y="-178.5" font-family="Helvetica,sans-Serif" font-size="10.00">SceneFader</text>
</a>
</g>
</g>
<!-- Node45&#45;&gt;Node71 -->
<g id="edge28" class="edge"><title>Node45&#45;&gt;Node71</title>
<path fill="none" stroke="midnightblue" d="M43.213,-693.115C44.5265,-608.02 53.8771,-275.43 120,-200 128.174,-190.675 140.6,-185.791 152.473,-183.278"/>
<polygon fill="midnightblue" stroke="midnightblue" points="39.7119,-693.186 43.0781,-703.232 46.7112,-693.28 39.7119,-693.186"/>
</g>
<!-- Node72 -->
<g id="node30" class="node"><title>Node72</title>
<g id="a_node30"><a xlink:href="classselection_main_function.html" target="_top" xlink:title="selectionMainFunction">
<polygon fill="white" stroke="black" points="130,-133.5 130,-152.5 244,-152.5 244,-133.5 130,-133.5"/>
<text text-anchor="middle" x="187" y="-140.5" font-family="Helvetica,sans-Serif" font-size="10.00">selectionMainFunction</text>
</a>
</g>
</g>
<!-- Node45&#45;&gt;Node72 -->
<g id="edge29" class="edge"><title>Node45&#45;&gt;Node72</title>
<path fill="none" stroke="midnightblue" d="M42.9845,-693.361C43.3135,-604.846 49.0471,-243.773 120,-162 123.36,-158.127 127.454,-155.02 131.939,-152.529"/>
<polygon fill="midnightblue" stroke="midnightblue" points="39.4845,-693.377 42.9673,-703.383 46.4845,-693.389 39.4845,-693.377"/>
</g>
<!-- Node73 -->
<g id="node31" class="node"><title>Node73</title>
<g id="a_node31"><a xlink:href="class_smooth_move_to_target.html" target="_top" xlink:title="Moves this script&#39;s object towards the target position while active. ">
<polygon fill="white" stroke="black" points="132,-95.5 132,-114.5 242,-114.5 242,-95.5 132,-95.5"/>
<text text-anchor="middle" x="187" y="-102.5" font-family="Helvetica,sans-Serif" font-size="10.00">SmoothMoveToTarget</text>
</a>
</g>
</g>
<!-- Node45&#45;&gt;Node73 -->
<g id="edge30" class="edge"><title>Node45&#45;&gt;Node73</title>
<path fill="none" stroke="midnightblue" d="M42.7852,-692.904C42.2011,-599.885 44.3938,-211.919 120,-124 123.343,-120.113 127.425,-116.995 131.904,-114.498"/>
<polygon fill="midnightblue" stroke="midnightblue" points="39.2874,-693.204 42.8698,-703.174 46.2872,-693.146 39.2874,-693.204"/>
</g>
<!-- Node74 -->
<g id="node32" class="node"><title>Node74</title>
<g id="a_node32"><a xlink:href="class_state_machine.html" target="_top" xlink:title="Common Base class for all state machines. ">
<polygon fill="white" stroke="black" points="148.5,-57.5 148.5,-76.5 225.5,-76.5 225.5,-57.5 148.5,-57.5"/>
<text text-anchor="middle" x="187" y="-64.5" font-family="Helvetica,sans-Serif" font-size="10.00">StateMachine</text>
</a>
</g>
</g>
<!-- Node45&#45;&gt;Node74 -->
<g id="edge31" class="edge"><title>Node45&#45;&gt;Node74</title>
<path fill="none" stroke="midnightblue" d="M42.6164,-693.453C41.1413,-597.863 39.4556,-180.403 120,-86 127.12,-77.6549 137.646,-72.8539 148.211,-70.1276"/>
<polygon fill="midnightblue" stroke="midnightblue" points="39.1172,-693.534 42.7897,-703.472 46.1162,-693.413 39.1172,-693.534"/>
</g>
<!-- Node79 -->
<g id="node37" class="node"><title>Node79</title>
<g id="a_node37"><a xlink:href="classui_1_1_paused_menu.html" target="_top" xlink:title="PausedMenu">
<polygon fill="white" stroke="black" points="150,-1273.5 150,-1292.5 224,-1292.5 224,-1273.5 150,-1273.5"/>
<text text-anchor="middle" x="187" y="-1280.5" font-family="Helvetica,sans-Serif" font-size="10.00">PausedMenu</text>
</a>
</g>
</g>
<!-- Node45&#45;&gt;Node79 -->
<g id="edge36" class="edge"><title>Node45&#45;&gt;Node79</title>
<path fill="none" stroke="midnightblue" d="M42.9845,-732.639C43.3135,-821.154 49.0471,-1182.23 120,-1264 127.502,-1272.65 138.659,-1277.48 149.674,-1280.14"/>
<polygon fill="midnightblue" stroke="midnightblue" points="46.4845,-732.611 42.9673,-722.617 39.4845,-732.623 46.4845,-732.611"/>
</g>
<!-- Node80 -->
<g id="node38" class="node"><title>Node80</title>
<g id="a_node38"><a xlink:href="classui_1_1_settings_menu.html" target="_top" xlink:title="SettingsMenu">
<polygon fill="white" stroke="black" points="148.5,-1235.5 148.5,-1254.5 225.5,-1254.5 225.5,-1235.5 148.5,-1235.5"/>
<text text-anchor="middle" x="187" y="-1242.5" font-family="Helvetica,sans-Serif" font-size="10.00">SettingsMenu</text>
</a>
</g>
</g>
<!-- Node45&#45;&gt;Node80 -->
<g id="edge37" class="edge"><title>Node45&#45;&gt;Node80</title>
<path fill="none" stroke="midnightblue" d="M43.213,-732.885C44.5265,-817.98 53.8771,-1150.57 120,-1226 127.231,-1234.25 137.789,-1239.02 148.348,-1241.75"/>
<polygon fill="midnightblue" stroke="midnightblue" points="46.7112,-732.72 43.0781,-722.768 39.7119,-732.814 46.7112,-732.72"/>
</g>
<!-- Node81 -->
<g id="node39" class="node"><title>Node81</title>
<g id="a_node39"><a xlink:href="classui_1_1_std_dialog.html" target="_top" xlink:title="A standard dialog handler, for use with a standard prefab. ">
<polygon fill="white" stroke="black" points="157.5,-1197.5 157.5,-1216.5 216.5,-1216.5 216.5,-1197.5 157.5,-1197.5"/>
<text text-anchor="middle" x="187" y="-1204.5" font-family="Helvetica,sans-Serif" font-size="10.00">StdDialog</text>
</a>
</g>
</g>
<!-- Node45&#45;&gt;Node81 -->
<g id="edge38" class="edge"><title>Node45&#45;&gt;Node81</title>
<path fill="none" stroke="midnightblue" d="M43.4852,-733.197C45.8506,-814.777 58.7073,-1118.9 120,-1188 129.337,-1198.53 144.089,-1203.38 157.28,-1205.56"/>
<polygon fill="midnightblue" stroke="midnightblue" points="46.9741,-732.733 43.2078,-722.83 39.9766,-732.92 46.9741,-732.733"/>
</g>
<!-- Node82 -->
<g id="node40" class="node"><title>Node82</title>
<g id="a_node40"><a xlink:href="class_unit.html" target="_top" xlink:title="Unit">
<polygon fill="white" stroke="black" points="170,-1159.5 170,-1178.5 204,-1178.5 204,-1159.5 170,-1159.5"/>
<text text-anchor="middle" x="187" y="-1166.5" font-family="Helvetica,sans-Serif" font-size="10.00">Unit</text>
</a>
</g>
</g>
<!-- Node45&#45;&gt;Node82 -->
<g id="edge39" class="edge"><title>Node45&#45;&gt;Node82</title>
<path fill="none" stroke="midnightblue" d="M43.7912,-733.05C47.2374,-810.248 63.4063,-1087.07 120,-1150 132.598,-1164.01 154.786,-1167.96 169.928,-1168.94"/>
<polygon fill="midnightblue" stroke="midnightblue" points="47.277,-732.639 43.3573,-722.796 40.2833,-732.935 47.277,-732.639"/>
</g>
<!-- Node83 -->
<g id="node41" class="node"><title>Node83</title>
<g id="a_node41"><a xlink:href="class_unit_sprite_animator.html" target="_top" xlink:title="Triggers the Sprite Animator depending on actual current movement. ">
<polygon fill="white" stroke="black" points="138,-1121.5 138,-1140.5 236,-1140.5 236,-1121.5 138,-1121.5"/>
<text text-anchor="middle" x="187" y="-1128.5" font-family="Helvetica,sans-Serif" font-size="10.00">UnitSpriteAnimator</text>
</a>
</g>
</g>
<!-- Node45&#45;&gt;Node83 -->
<g id="edge40" class="edge"><title>Node45&#45;&gt;Node83</title>
<path fill="none" stroke="midnightblue" d="M44.1363,-732.693C48.7029,-805.078 68.0399,-1055.16 120,-1112 124.907,-1117.37 131.224,-1121.26 137.998,-1124.07"/>
<polygon fill="midnightblue" stroke="midnightblue" points="47.6268,-732.428 43.5275,-722.658 40.6396,-732.852 47.6268,-732.428"/>
</g>
<!-- Node84 -->
<g id="node42" class="node"><title>Node84</title>
<g id="a_node42"><a xlink:href="class_unity_template_projects_1_1_simple_camera_controller.html" target="_top" xlink:title="SimpleCameraController">
<polygon fill="white" stroke="black" points="126,-1083.5 126,-1102.5 248,-1102.5 248,-1083.5 126,-1083.5"/>
<text text-anchor="middle" x="187" y="-1090.5" font-family="Helvetica,sans-Serif" font-size="10.00">SimpleCameraController</text>
</a>
</g>
</g>
<!-- Node45&#45;&gt;Node84 -->
<g id="edge41" class="edge"><title>Node45&#45;&gt;Node84</title>
<path fill="none" stroke="midnightblue" d="M44.5954,-732.975C50.4341,-801.171 72.8066,-1023.37 120,-1074 123.577,-1077.84 127.875,-1080.92 132.539,-1083.39"/>
<polygon fill="midnightblue" stroke="midnightblue" points="48.0618,-732.424 43.7464,-722.748 41.0858,-733.004 48.0618,-732.424"/>
</g>
<!-- Node75 -->
<g id="node33" class="node"><title>Node75</title>
<g id="a_node33"><a xlink:href="classmanagement_1_1_game_state_machine.html" target="_top" xlink:title="The GameStateMachine holds the overall program state, transitioning through menu, in&#45;game...">
<polygon fill="white" stroke="black" points="290,-114.5 290,-133.5 393,-133.5 393,-114.5 290,-114.5"/>
<text text-anchor="middle" x="341.5" y="-121.5" font-family="Helvetica,sans-Serif" font-size="10.00">GameStateMachine</text>
</a>
</g>
</g>
<!-- Node74&#45;&gt;Node75 -->
<g id="edge32" class="edge"><title>Node74&#45;&gt;Node75</title>
<path fill="none" stroke="midnightblue" d="M235.572,-79.4218C241.838,-81.4276 248.121,-83.6316 254,-86 270.781,-92.7603 273.501,-97.5777 290,-105 297.432,-108.343 305.645,-111.609 313.25,-114.463"/>
<polygon fill="midnightblue" stroke="midnightblue" points="236.386,-76.011 225.8,-76.4379 234.342,-82.7058 236.386,-76.011"/>
</g>
<!-- Node76 -->
<g id="node34" class="node"><title>Node76</title>
<g id="a_node34"><a xlink:href="classnet_1_1_net_state_machine.html" target="_top" xlink:title="NetStateMachine">
<polygon fill="white" stroke="black" points="295.5,-76.5 295.5,-95.5 387.5,-95.5 387.5,-76.5 295.5,-76.5"/>
<text text-anchor="middle" x="341.5" y="-83.5" font-family="Helvetica,sans-Serif" font-size="10.00">NetStateMachine</text>
</a>
</g>
</g>
<!-- Node74&#45;&gt;Node76 -->
<g id="edge33" class="edge"><title>Node74&#45;&gt;Node76</title>
<path fill="none" stroke="midnightblue" d="M235.669,-72.939C254.727,-75.3135 276.571,-78.0351 295.369,-80.3771"/>
<polygon fill="midnightblue" stroke="midnightblue" points="236.053,-69.4599 225.697,-71.6966 235.187,-76.4062 236.053,-69.4599"/>
</g>
<!-- Node77 -->
<g id="node35" class="node"><title>Node77</title>
<g id="a_node35"><a xlink:href="classui_1_1_main_menu_s_m.html" target="_top" xlink:title="MainMenuSM">
<polygon fill="white" stroke="black" points="303,-38.5 303,-57.5 380,-57.5 380,-38.5 303,-38.5"/>
<text text-anchor="middle" x="341.5" y="-45.5" font-family="Helvetica,sans-Serif" font-size="10.00">MainMenuSM</text>
</a>
</g>
</g>
<!-- Node74&#45;&gt;Node77 -->
<g id="edge34" class="edge"><title>Node74&#45;&gt;Node77</title>
<path fill="none" stroke="midnightblue" d="M235.695,-61.0577C257.382,-58.3557 282.67,-55.205 302.973,-52.6755"/>
<polygon fill="midnightblue" stroke="midnightblue" points="235.187,-57.5938 225.697,-62.3034 236.053,-64.5401 235.187,-57.5938"/>
</g>
<!-- Node78 -->
<g id="node36" class="node"><title>Node78</title>
<g id="a_node36"><a xlink:href="class_unit_ai_state_machine.html" target="_top" xlink:title="UnitAiStateMachine">
<polygon fill="white" stroke="black" points="290,-0.5 290,-19.5 393,-19.5 393,-0.5 290,-0.5"/>
<text text-anchor="middle" x="341.5" y="-7.5" font-family="Helvetica,sans-Serif" font-size="10.00">UnitAiStateMachine</text>
</a>
</g>
</g>
<!-- Node74&#45;&gt;Node78 -->
<g id="edge35" class="edge"><title>Node74&#45;&gt;Node78</title>
<path fill="none" stroke="midnightblue" d="M222.956,-53.9345C250.987,-43.4572 289.68,-28.9949 314.892,-19.5716"/>
<polygon fill="midnightblue" stroke="midnightblue" points="221.667,-50.6798 213.525,-57.4595 224.118,-57.2368 221.667,-50.6798"/>
</g>
</g>
</svg>
