<?xml version="1.0" encoding="UTF-8" standalone="no"?>
<!DOCTYPE svg PUBLIC "-//W3C//DTD SVG 1.1//EN"
 "http://www.w3.org/Graphics/SVG/1.1/DTD/svg11.dtd">
<!-- Generated by graphviz version 2.38.0 (20140413.2041)
 -->
<!-- Title: Graphical Class Hierarchy Pages: 1 -->
<svg width="425pt" height="180pt"
 viewBox="0.00 0.00 425.00 180.00" xmlns="http://www.w3.org/2000/svg" xmlns:xlink="http://www.w3.org/1999/xlink">
<g id="graph0" class="graph" transform="scale(1 1) rotate(0) translate(4 176)">
<title>Graphical Class Hierarchy</title>
<polygon fill="white" stroke="none" points="-4,4 -4,-176 421,-176 421,4 -4,4"/>
<!-- Node0 -->
<g id="node1" class="node"><title>Node0</title>
<g id="a_node1"><a xlink:href="class_base_state.html" target="_top" xlink:title="BaseState\&lt; UnitAiStateMachine \&gt;">
<polygon fill="white" stroke="black" points="0,-76.5 0,-95.5 167,-95.5 167,-76.5 0,-76.5"/>
<text text-anchor="middle" x="83.5" y="-83.5" font-family="Helvetica,sans-Serif" font-size="10.00">BaseState&lt; UnitAiStateMachine &gt;</text>
</a>
</g>
</g>
<!-- Node1 -->
<g id="node2" class="node"><title>Node1</title>
<g id="a_node2"><a xlink:href="classmechanics_1_1_unit_ai_base_state.html" target="_top" xlink:title="Offers a base state for Unit AI which can be interrupted by multiple conditions: ">
<polygon fill="white" stroke="black" points="203,-76.5 203,-95.5 292,-95.5 292,-76.5 203,-76.5"/>
<text text-anchor="middle" x="247.5" y="-83.5" font-family="Helvetica,sans-Serif" font-size="10.00">UnitAiBaseState</text>
</a>
</g>
</g>
<!-- Node0&#45;&gt;Node1 -->
<g id="edge1" class="edge"><title>Node0&#45;&gt;Node1</title>
<path fill="none" stroke="midnightblue" d="M177.452,-86C186.303,-86 194.96,-86 202.987,-86"/>
<polygon fill="midnightblue" stroke="midnightblue" points="177.398,-82.5001 167.398,-86 177.398,-89.5001 177.398,-82.5001"/>
</g>
<!-- Node2 -->
<g id="node3" class="node"><title>Node2</title>
<g id="a_node3"><a xlink:href="classmechanics_1_1_auto_attack_state.html" target="_top" xlink:title="Realizes an &quot;auto attack&quot; behaviour, needed to realize guarding and attack move behaviours described ...">
<polygon fill="white" stroke="black" points="328,-152.5 328,-171.5 417,-171.5 417,-152.5 328,-152.5"/>
<text text-anchor="middle" x="372.5" y="-159.5" font-family="Helvetica,sans-Serif" font-size="10.00">AutoAttackState</text>
</a>
</g>
</g>
<!-- Node1&#45;&gt;Node2 -->
<g id="edge2" class="edge"><title>Node1&#45;&gt;Node2</title>
<path fill="none" stroke="midnightblue" d="M267.991,-101.748C283.627,-113.937 306.449,-130.749 328,-143 334.018,-146.421 340.77,-149.643 347.127,-152.428"/>
<polygon fill="midnightblue" stroke="midnightblue" points="270.113,-98.9644 260.097,-95.5109 265.773,-104.457 270.113,-98.9644"/>
</g>
<!-- Node3 -->
<g id="node4" class="node"><title>Node3</title>
<g id="a_node4"><a xlink:href="classmechanics_1_1_auto_gather_state.html" target="_top" xlink:title="Transitionary state for decision whether and what to gather. ">
<polygon fill="white" stroke="black" points="328,-114.5 328,-133.5 417,-133.5 417,-114.5 328,-114.5"/>
<text text-anchor="middle" x="372.5" y="-121.5" font-family="Helvetica,sans-Serif" font-size="10.00">AutoGatherState</text>
</a>
</g>
</g>
<!-- Node1&#45;&gt;Node3 -->
<g id="edge3" class="edge"><title>Node1&#45;&gt;Node3</title>
<path fill="none" stroke="midnightblue" d="M289.545,-98.6804C306.164,-103.815 325.032,-109.644 340.472,-114.414"/>
<polygon fill="midnightblue" stroke="midnightblue" points="290.126,-95.1968 279.538,-95.589 288.059,-101.885 290.126,-95.1968"/>
</g>
<!-- Node4 -->
<g id="node5" class="node"><title>Node4</title>
<g id="a_node5"><a xlink:href="classmechanics_1_1_deliver_state.html" target="_top" xlink:title="Implements parts of the Gather behaviour, where the food is picked up, transported and then dropped...">
<polygon fill="white" stroke="black" points="338.5,-76.5 338.5,-95.5 406.5,-95.5 406.5,-76.5 338.5,-76.5"/>
<text text-anchor="middle" x="372.5" y="-83.5" font-family="Helvetica,sans-Serif" font-size="10.00">DeliverState</text>
</a>
</g>
</g>
<!-- Node1&#45;&gt;Node4 -->
<g id="edge4" class="edge"><title>Node1&#45;&gt;Node4</title>
<path fill="none" stroke="midnightblue" d="M302.364,-86C314.618,-86 327.283,-86 338.371,-86"/>
<polygon fill="midnightblue" stroke="midnightblue" points="302.212,-82.5001 292.212,-86 302.211,-89.5001 302.212,-82.5001"/>
</g>
<!-- Node5 -->
<g id="node6" class="node"><title>Node5</title>
<g id="a_node6"><a xlink:href="classmechanics_1_1_idle_state.html" target="_top" xlink:title="Realizes the &quot;Idle&quot; behaviour of units, for requirements, see Idle concept. ">
<polygon fill="white" stroke="black" points="345,-38.5 345,-57.5 400,-57.5 400,-38.5 345,-38.5"/>
<text text-anchor="middle" x="372.5" y="-45.5" font-family="Helvetica,sans-Serif" font-size="10.00">IdleState</text>
</a>
</g>
</g>
<!-- Node1&#45;&gt;Node5 -->
<g id="edge5" class="edge"><title>Node1&#45;&gt;Node5</title>
<path fill="none" stroke="midnightblue" d="M289.322,-73.3883C307.525,-67.7645 328.464,-61.2957 344.65,-56.2952"/>
<polygon fill="midnightblue" stroke="midnightblue" points="288.059,-70.1151 279.538,-76.411 290.126,-76.8032 288.059,-70.1151"/>
</g>
<!-- Node6 -->
<g id="node7" class="node"><title>Node6</title>
<g id="a_node7"><a xlink:href="classmechanics_1_1_move_state.html" target="_top" xlink:title="Can be used for all kinds of movement. ">
<polygon fill="white" stroke="black" points="341.5,-0.5 341.5,-19.5 403.5,-19.5 403.5,-0.5 341.5,-0.5"/>
<text text-anchor="middle" x="372.5" y="-7.5" font-family="Helvetica,sans-Serif" font-size="10.00">MoveState</text>
</a>
</g>
</g>
<!-- Node1&#45;&gt;Node6 -->
<g id="edge6" class="edge"><title>Node1&#45;&gt;Node6</title>
<path fill="none" stroke="midnightblue" d="M267.991,-70.2517C283.627,-58.0632 306.449,-41.2513 328,-29 334.018,-25.5789 340.77,-22.3572 347.127,-19.5725"/>
<polygon fill="midnightblue" stroke="midnightblue" points="265.773,-67.5432 260.097,-76.4891 270.113,-73.0356 265.773,-67.5432"/>
</g>
</g>
</svg>
