<?xml version="1.0" encoding="UTF-8" standalone="no"?>
<!DOCTYPE svg PUBLIC "-//W3C//DTD SVG 1.1//EN"
 "http://www.w3.org/Graphics/SVG/1.1/DTD/svg11.dtd">
<!-- Generated by graphviz version 2.38.0 (20140413.2041)
 -->
<!-- Title: Graphical Class Hierarchy Pages: 1 -->
<svg width="230pt" height="66pt"
 viewBox="0.00 0.00 230.00 66.00" xmlns="http://www.w3.org/2000/svg" xmlns:xlink="http://www.w3.org/1999/xlink">
<g id="graph0" class="graph" transform="scale(1 1) rotate(0) translate(4 62)">
<title>Graphical Class Hierarchy</title>
<polygon fill="white" stroke="none" points="-4,4 -4,-62 226,-62 226,4 -4,4"/>
<!-- Node28 -->
<g id="node1" class="node"><title>Node28</title>
<polygon fill="white" stroke="#bfbfbf" points="0,-19.5 0,-38.5 90,-38.5 90,-19.5 0,-19.5"/>
<text text-anchor="middle" x="45" y="-26.5" font-family="Helvetica,sans-Serif" font-size="10.00">PropertyAttribute</text>
</g>
<!-- Node0 -->
<g id="node2" class="node"><title>Node0</title>
<g id="a_node2"><a xlink:href="class_help_attribute.html" target="_top" xlink:title="HelpAttribute">
<polygon fill="white" stroke="black" points="137.5,-38.5 137.5,-57.5 210.5,-57.5 210.5,-38.5 137.5,-38.5"/>
<text text-anchor="middle" x="174" y="-45.5" font-family="Helvetica,sans-Serif" font-size="10.00">HelpAttribute</text>
</a>
</g>
</g>
<!-- Node28&#45;&gt;Node0 -->
<g id="edge1" class="edge"><title>Node28&#45;&gt;Node0</title>
<path fill="none" stroke="midnightblue" d="M100.043,-37.0851C112.673,-38.9748 125.815,-40.9408 137.407,-42.6751"/>
<polygon fill="midnightblue" stroke="midnightblue" points="100.47,-33.6102 90.062,-35.592 99.4341,-40.5331 100.47,-33.6102"/>
</g>
<!-- Node30 -->
<g id="node3" class="node"><title>Node30</title>
<g id="a_node3"><a xlink:href="class_read_only_attribute.html" target="_top" xlink:title="Defines the ReadOnly attribute or property. ">
<polygon fill="white" stroke="black" points="126,-0.5 126,-19.5 222,-19.5 222,-0.5 126,-0.5"/>
<text text-anchor="middle" x="174" y="-7.5" font-family="Helvetica,sans-Serif" font-size="10.00">ReadOnlyAttribute</text>
</a>
</g>
</g>
<!-- Node28&#45;&gt;Node30 -->
<g id="edge2" class="edge"><title>Node28&#45;&gt;Node30</title>
<path fill="none" stroke="midnightblue" d="M100.043,-20.9149C108.672,-19.6239 117.539,-18.2973 125.988,-17.0334"/>
<polygon fill="midnightblue" stroke="midnightblue" points="99.4341,-17.4669 90.062,-22.408 100.47,-24.3898 99.4341,-17.4669"/>
</g>
</g>
</svg>
