<?xml version="1.0" encoding="UTF-8" standalone="no"?>
<!DOCTYPE svg PUBLIC "-//W3C//DTD SVG 1.1//EN"
 "http://www.w3.org/Graphics/SVG/1.1/DTD/svg11.dtd">
<!-- Generated by graphviz version 2.38.0 (20140413.2041)
 -->
<!-- Title: Graphical Class Hierarchy Pages: 1 -->
<svg width="212pt" height="180pt"
 viewBox="0.00 0.00 212.00 180.00" xmlns="http://www.w3.org/2000/svg" xmlns:xlink="http://www.w3.org/1999/xlink">
<g id="graph0" class="graph" transform="scale(1 1) rotate(0) translate(4 176)">
<title>Graphical Class Hierarchy</title>
<polygon fill="white" stroke="none" points="-4,4 -4,-176 208,-176 208,4 -4,4"/>
<!-- Node26 -->
<g id="node1" class="node"><title>Node26</title>
<polygon fill="white" stroke="#bfbfbf" points="0,-76.5 0,-95.5 89,-95.5 89,-76.5 0,-76.5"/>
<text text-anchor="middle" x="44.5" y="-83.5" font-family="Helvetica,sans-Serif" font-size="10.00">ScriptableObject</text>
</g>
<!-- Node0 -->
<g id="node2" class="node"><title>Node0</title>
<g id="a_node2"><a xlink:href="class_game_settings.html" target="_top" xlink:title="Wraps game&#45;wide settings into one asset, modifyable from the editor. ">
<polygon fill="white" stroke="black" points="125,-152.5 125,-171.5 204,-171.5 204,-152.5 125,-152.5"/>
<text text-anchor="middle" x="164.5" y="-159.5" font-family="Helvetica,sans-Serif" font-size="10.00">GameSettings</text>
</a>
</g>
</g>
<!-- Node26&#45;&gt;Node0 -->
<g id="edge1" class="edge"><title>Node26&#45;&gt;Node0</title>
<path fill="none" stroke="midnightblue" d="M65.4259,-101.681C81.1423,-113.701 103.863,-130.323 125,-143 130.497,-146.297 136.646,-149.523 142.388,-152.354"/>
<polygon fill="midnightblue" stroke="midnightblue" points="67.5222,-98.8775 57.4698,-95.5307 63.241,-104.416 67.5222,-98.8775"/>
</g>
<!-- Node28 -->
<g id="node3" class="node"><title>Node28</title>
<g id="a_node3"><a xlink:href="classlevel_1_1_level.html" target="_top" xlink:title="Wraps info on each level to be accessed before the level is actually loaded. ">
<polygon fill="white" stroke="black" points="145.5,-114.5 145.5,-133.5 183.5,-133.5 183.5,-114.5 145.5,-114.5"/>
<text text-anchor="middle" x="164.5" y="-121.5" font-family="Helvetica,sans-Serif" font-size="10.00">Level</text>
</a>
</g>
</g>
<!-- Node26&#45;&gt;Node28 -->
<g id="edge2" class="edge"><title>Node26&#45;&gt;Node28</title>
<path fill="none" stroke="midnightblue" d="M84.9932,-98.7182C105.467,-105.312 129.473,-113.042 145.498,-118.203"/>
<polygon fill="midnightblue" stroke="midnightblue" points="85.8679,-95.3229 75.2764,-95.589 83.7221,-101.986 85.8679,-95.3229"/>
</g>
<!-- Node29 -->
<g id="node4" class="node"><title>Node29</title>
<g id="a_node4"><a xlink:href="class_player.html" target="_top" xlink:title="Player">
<polygon fill="white" stroke="black" points="142.5,-76.5 142.5,-95.5 186.5,-95.5 186.5,-76.5 142.5,-76.5"/>
<text text-anchor="middle" x="164.5" y="-83.5" font-family="Helvetica,sans-Serif" font-size="10.00">Player</text>
</a>
</g>
</g>
<!-- Node26&#45;&gt;Node29 -->
<g id="edge3" class="edge"><title>Node26&#45;&gt;Node29</title>
<path fill="none" stroke="midnightblue" d="M99.4662,-86C114.609,-86 130.197,-86 142.202,-86"/>
<polygon fill="midnightblue" stroke="midnightblue" points="99.1036,-82.5001 89.1036,-86 99.1036,-89.5001 99.1036,-82.5001"/>
</g>
<!-- Node30 -->
<g id="node5" class="node"><title>Node30</title>
<g id="a_node5"><a xlink:href="class_status_effect.html" target="_top" xlink:title="A general Status Effect which is applied to a Attribute of a Character. ">
<polygon fill="white" stroke="black" points="129.5,-38.5 129.5,-57.5 199.5,-57.5 199.5,-38.5 129.5,-38.5"/>
<text text-anchor="middle" x="164.5" y="-45.5" font-family="Helvetica,sans-Serif" font-size="10.00">StatusEffect</text>
</a>
</g>
</g>
<!-- Node26&#45;&gt;Node30 -->
<g id="edge4" class="edge"><title>Node26&#45;&gt;Node30</title>
<path fill="none" stroke="midnightblue" d="M84.8761,-73.3196C100.82,-68.1852 118.921,-62.3559 133.733,-57.5859"/>
<polygon fill="midnightblue" stroke="midnightblue" points="83.7221,-70.0141 75.2764,-76.411 85.8679,-76.6771 83.7221,-70.0141"/>
</g>
<!-- Node31 -->
<g id="node6" class="node"><title>Node31</title>
<g id="a_node6"><a xlink:href="class_unit.html" target="_top" xlink:title="Unit">
<polygon fill="white" stroke="black" points="147.5,-0.5 147.5,-19.5 181.5,-19.5 181.5,-0.5 147.5,-0.5"/>
<text text-anchor="middle" x="164.5" y="-7.5" font-family="Helvetica,sans-Serif" font-size="10.00">Unit</text>
</a>
</g>
</g>
<!-- Node26&#45;&gt;Node31 -->
<g id="edge5" class="edge"><title>Node26&#45;&gt;Node31</title>
<path fill="none" stroke="midnightblue" d="M65.4259,-70.3191C81.1423,-58.2988 103.863,-41.6767 125,-29 132.159,-24.7063 140.423,-20.5328 147.455,-17.1963"/>
<polygon fill="midnightblue" stroke="midnightblue" points="63.241,-67.5842 57.4698,-76.4693 67.5222,-73.1225 63.241,-67.5842"/>
</g>
</g>
</svg>
