<?xml version="1.0" encoding="UTF-8" standalone="no"?>
<!DOCTYPE svg PUBLIC "-//W3C//DTD SVG 1.1//EN"
 "http://www.w3.org/Graphics/SVG/1.1/DTD/svg11.dtd">
<!-- Generated by graphviz version 2.38.0 (20140413.2041)
 -->
<!-- Title: Graphical Class Hierarchy Pages: 1 -->
<svg width="247pt" height="252pt"
 viewBox="0.00 0.00 247.00 251.50" xmlns="http://www.w3.org/2000/svg" xmlns:xlink="http://www.w3.org/1999/xlink">
<g id="graph0" class="graph" transform="scale(1 1) rotate(0) translate(4 247.5)">
<title>Graphical Class Hierarchy</title>
<polygon fill="white" stroke="none" points="-4,4 -4,-247.5 243,-247.5 243,4 -4,4"/>
<!-- Node3 -->
<g id="node1" class="node"><title>Node3</title>
<polygon fill="white" stroke="#bfbfbf" points="0,-98.5 0,-117.5 63,-117.5 63,-98.5 0,-98.5"/>
<text text-anchor="middle" x="31.5" y="-105.5" font-family="Helvetica,sans-Serif" font-size="10.00">UnityEvent</text>
</g>
<!-- Node0 -->
<g id="node2" class="node"><title>Node0</title>
<g id="a_node2"><a xlink:href="classnet_1_1_net_event_1_1_unity_event_with_cust_type.html" target="_top" xlink:title="It is somehow necessary to create this and get rid of the template parameter. ">
<polygon fill="white" stroke="black" points="100.5,-213 100.5,-243 237.5,-243 237.5,-213 100.5,-213"/>
<text text-anchor="start" x="108.5" y="-231" font-family="Helvetica,sans-Serif" font-size="10.00">NetEvent&lt; NetDataType</text>
<text text-anchor="middle" x="169" y="-220" font-family="Helvetica,sans-Serif" font-size="10.00"> &gt;.UnityEventWithCustType</text>
</a>
</g>
</g>
<!-- Node3&#45;&gt;Node0 -->
<g id="edge1" class="edge"><title>Node3&#45;&gt;Node0</title>
<path fill="none" stroke="midnightblue" d="M40.9934,-126.796C51.6351,-148.346 71.8263,-183.348 99,-204 103.443,-207.377 108.397,-210.302 113.555,-212.83"/>
<polygon fill="midnightblue" stroke="midnightblue" points="44.1164,-125.213 36.6662,-117.68 37.7926,-128.215 44.1164,-125.213"/>
</g>
<!-- Node5 -->
<g id="node3" class="node"><title>Node5</title>
<g id="a_node3"><a xlink:href="classnet_1_1_unity_client_properties_update_event.html" target="_top" xlink:title="UnityClientPropertiesUpdate\lEvent">
<polygon fill="white" stroke="black" points="99.5,-164 99.5,-194 238.5,-194 238.5,-164 99.5,-164"/>
<text text-anchor="start" x="107.5" y="-182" font-family="Helvetica,sans-Serif" font-size="10.00">UnityClientPropertiesUpdate</text>
<text text-anchor="middle" x="169" y="-171" font-family="Helvetica,sans-Serif" font-size="10.00">Event</text>
</a>
</g>
</g>
<!-- Node3&#45;&gt;Node5 -->
<g id="edge2" class="edge"><title>Node3&#45;&gt;Node5</title>
<path fill="none" stroke="midnightblue" d="M52.1504,-124.113C64.9176,-134.004 82.2472,-146.385 99,-155 105.316,-158.248 112.171,-161.224 119.026,-163.891"/>
<polygon fill="midnightblue" stroke="midnightblue" points="54.1158,-121.204 44.1037,-117.739 49.7694,-126.692 54.1158,-121.204"/>
</g>
<!-- Node6 -->
<g id="node4" class="node"><title>Node6</title>
<g id="a_node4"><a xlink:href="classnet_1_1_unity_room_properties_update_event.html" target="_top" xlink:title="UnityRoomPropertiesUpdate\lEvent">
<polygon fill="white" stroke="black" points="99,-115 99,-145 239,-145 239,-115 99,-115"/>
<text text-anchor="start" x="107" y="-133" font-family="Helvetica,sans-Serif" font-size="10.00">UnityRoomPropertiesUpdate</text>
<text text-anchor="middle" x="169" y="-122" font-family="Helvetica,sans-Serif" font-size="10.00">Event</text>
</a>
</g>
</g>
<!-- Node3&#45;&gt;Node6 -->
<g id="edge3" class="edge"><title>Node3&#45;&gt;Node6</title>
<path fill="none" stroke="midnightblue" d="M73.1988,-114.608C81.3552,-115.932 90.1375,-117.358 98.9491,-118.789"/>
<polygon fill="midnightblue" stroke="midnightblue" points="73.6787,-111.14 63.247,-112.992 72.5568,-118.05 73.6787,-111.14"/>
</g>
<!-- Node7 -->
<g id="node5" class="node"><title>Node7</title>
<g id="a_node5"><a xlink:href="classnet_1_1_unity_string_event.html" target="_top" xlink:title="UnityStringEvent">
<polygon fill="white" stroke="black" points="124.5,-76.5 124.5,-95.5 213.5,-95.5 213.5,-76.5 124.5,-76.5"/>
<text text-anchor="middle" x="169" y="-83.5" font-family="Helvetica,sans-Serif" font-size="10.00">UnityStringEvent</text>
</a>
</g>
</g>
<!-- Node3&#45;&gt;Node7 -->
<g id="edge4" class="edge"><title>Node3&#45;&gt;Node7</title>
<path fill="none" stroke="midnightblue" d="M73.4113,-101.358C89.4774,-98.749 107.945,-95.7506 124.275,-93.0993"/>
<polygon fill="midnightblue" stroke="midnightblue" points="72.5568,-97.9504 63.247,-103.008 73.6787,-104.86 72.5568,-97.9504"/>
</g>
<!-- Node8 -->
<g id="node6" class="node"><title>Node8</title>
<g id="a_node6"><a xlink:href="class_unity_float_event.html" target="_top" xlink:title="UnityFloatEvent">
<polygon fill="white" stroke="black" points="126.5,-38.5 126.5,-57.5 211.5,-57.5 211.5,-38.5 126.5,-38.5"/>
<text text-anchor="middle" x="169" y="-45.5" font-family="Helvetica,sans-Serif" font-size="10.00">UnityFloatEvent</text>
</a>
</g>
</g>
<!-- Node3&#45;&gt;Node8 -->
<g id="edge5" class="edge"><title>Node3&#45;&gt;Node8</title>
<path fill="none" stroke="midnightblue" d="M54.0669,-92.5255C66.6805,-84.0422 83.1891,-73.8832 99,-67 107.658,-63.2307 117.257,-60.0249 126.474,-57.3802"/>
<polygon fill="midnightblue" stroke="midnightblue" points="51.8842,-89.779 45.6364,-98.3356 55.8565,-95.5428 51.8842,-89.779"/>
</g>
<!-- Node9 -->
<g id="node7" class="node"><title>Node9</title>
<g id="a_node7"><a xlink:href="class_unity_string_event.html" target="_top" xlink:title="UnityStringEvent">
<polygon fill="white" stroke="black" points="124.5,-0.5 124.5,-19.5 213.5,-19.5 213.5,-0.5 124.5,-0.5"/>
<text text-anchor="middle" x="169" y="-7.5" font-family="Helvetica,sans-Serif" font-size="10.00">UnityStringEvent</text>
</a>
</g>
</g>
<!-- Node3&#45;&gt;Node9 -->
<g id="edge6" class="edge"><title>Node3&#45;&gt;Node9</title>
<path fill="none" stroke="midnightblue" d="M43.4678,-89.3528C55.0428,-71.2876 74.9294,-44.4251 99,-29 106.637,-24.1062 115.529,-20.4584 124.339,-17.7439"/>
<polygon fill="midnightblue" stroke="midnightblue" points="40.1864,-88.0061 37.9186,-98.3554 46.1453,-91.6792 40.1864,-88.0061"/>
</g>
</g>
</svg>
