<?xml version="1.0" encoding="UTF-8" standalone="no"?>
<!DOCTYPE svg PUBLIC "-//W3C//DTD SVG 1.1//EN"
 "http://www.w3.org/Graphics/SVG/1.1/DTD/svg11.dtd">
<!-- Generated by graphviz version 2.38.0 (20140413.2041)
 -->
<!-- Title: Graphical Class Hierarchy Pages: 1 -->
<svg width="172pt" height="66pt"
 viewBox="0.00 0.00 172.00 66.00" xmlns="http://www.w3.org/2000/svg" xmlns:xlink="http://www.w3.org/1999/xlink">
<g id="graph0" class="graph" transform="scale(1 1) rotate(0) translate(4 62)">
<title>Graphical Class Hierarchy</title>
<polygon fill="white" stroke="none" points="-4,4 -4,-62 168,-62 168,4 -4,4"/>
<!-- Node0 -->
<g id="node1" class="node"><title>Node0</title>
<g id="a_node1"><a xlink:href="class_attribute.html" target="_top" xlink:title="Attribute">
<polygon fill="white" stroke="black" points="0,-19.5 0,-38.5 53,-38.5 53,-19.5 0,-19.5"/>
<text text-anchor="middle" x="26.5" y="-26.5" font-family="Helvetica,sans-Serif" font-size="10.00">Attribute</text>
</a>
</g>
</g>
<!-- Node1 -->
<g id="node2" class="node"><title>Node1</title>
<g id="a_node2"><a xlink:href="class_float_attribute.html" target="_top" xlink:title="Variant of an Attribute expecting and returning float values. ">
<polygon fill="white" stroke="black" points="89,-38.5 89,-57.5 164,-57.5 164,-38.5 89,-38.5"/>
<text text-anchor="middle" x="126.5" y="-45.5" font-family="Helvetica,sans-Serif" font-size="10.00">FloatAttribute</text>
</a>
</g>
</g>
<!-- Node0&#45;&gt;Node1 -->
<g id="edge1" class="edge"><title>Node0&#45;&gt;Node1</title>
<path fill="none" stroke="midnightblue" d="M63.1174,-35.9054C71.4981,-37.5303 80.4446,-39.2648 88.8691,-40.8981"/>
<polygon fill="midnightblue" stroke="midnightblue" points="63.7317,-32.4594 53.2483,-33.992 62.3993,-39.3315 63.7317,-32.4594"/>
</g>
<!-- Node2 -->
<g id="node3" class="node"><title>Node2</title>
<g id="a_node3"><a xlink:href="class_int_attribute.html" target="_top" xlink:title="Variant of an Attribute expecting and returning int values. ">
<polygon fill="white" stroke="black" points="94.5,-0.5 94.5,-19.5 158.5,-19.5 158.5,-0.5 94.5,-0.5"/>
<text text-anchor="middle" x="126.5" y="-7.5" font-family="Helvetica,sans-Serif" font-size="10.00">IntAttribute</text>
</a>
</g>
</g>
<!-- Node0&#45;&gt;Node2 -->
<g id="edge2" class="edge"><title>Node0&#45;&gt;Node2</title>
<path fill="none" stroke="midnightblue" d="M63.1174,-22.0946C73.3401,-20.1126 84.4044,-17.9675 94.3365,-16.0419"/>
<polygon fill="midnightblue" stroke="midnightblue" points="62.3993,-18.6685 53.2483,-24.008 63.7317,-25.5406 62.3993,-18.6685"/>
</g>
</g>
</svg>
