<?xml version="1.0" encoding="UTF-8" standalone="no"?>
<!DOCTYPE svg PUBLIC "-//W3C//DTD SVG 1.1//EN"
 "http://www.w3.org/Graphics/SVG/1.1/DTD/svg11.dtd">
<!-- Generated by graphviz version 2.38.0 (20140413.2041)
 -->
<!-- Title: Graphical Class Hierarchy Pages: 1 -->
<svg width="515pt" height="294pt"
 viewBox="0.00 0.00 515.00 294.00" xmlns="http://www.w3.org/2000/svg" xmlns:xlink="http://www.w3.org/1999/xlink">
<g id="graph0" class="graph" transform="scale(1 1) rotate(0) translate(4 290)">
<title>Graphical Class Hierarchy</title>
<polygon fill="white" stroke="none" points="-4,4 -4,-290 511,-290 511,4 -4,4"/>
<!-- Node0 -->
<g id="node1" class="node"><title>Node0</title>
<g id="a_node1"><a xlink:href="class_base_state.html" target="_top" xlink:title="BaseState\&lt; StateMachine \&gt;">
<polygon fill="white" stroke="black" points="0,-171.5 0,-190.5 140,-190.5 140,-171.5 0,-171.5"/>
<text text-anchor="middle" x="70" y="-178.5" font-family="Helvetica,sans-Serif" font-size="10.00">BaseState&lt; StateMachine &gt;</text>
</a>
</g>
</g>
<!-- Node1 -->
<g id="node2" class="node"><title>Node1</title>
<g id="a_node2"><a xlink:href="class_state.html" target="_top" xlink:title="Non&#45;template variant of the BaseState, expecting to be owned by a standard StateMachine. ">
<polygon fill="white" stroke="black" points="176,-171.5 176,-190.5 216,-190.5 216,-171.5 176,-171.5"/>
<text text-anchor="middle" x="196" y="-178.5" font-family="Helvetica,sans-Serif" font-size="10.00">State</text>
</a>
</g>
</g>
<!-- Node0&#45;&gt;Node1 -->
<g id="edge1" class="edge"><title>Node0&#45;&gt;Node1</title>
<path fill="none" stroke="midnightblue" d="M150.547,-181C159.867,-181 168.612,-181 175.837,-181"/>
<polygon fill="midnightblue" stroke="midnightblue" points="150.251,-177.5 140.251,-181 150.251,-184.5 150.251,-177.5"/>
</g>
<!-- Node2 -->
<g id="node3" class="node"><title>Node2</title>
<g id="a_node3"><a xlink:href="class_command_behaviour.html" target="_top" xlink:title="A generic behaviour to trigger an event when entered. ">
<polygon fill="white" stroke="black" points="252,-266.5 252,-285.5 355,-285.5 355,-266.5 252,-266.5"/>
<text text-anchor="middle" x="303.5" y="-273.5" font-family="Helvetica,sans-Serif" font-size="10.00">CommandBehaviour</text>
</a>
</g>
</g>
<!-- Node1&#45;&gt;Node2 -->
<g id="edge2" class="edge"><title>Node1&#45;&gt;Node2</title>
<path fill="none" stroke="midnightblue" d="M206.318,-199.567C215.734,-216.63 231.764,-241.549 252,-257 256.988,-260.809 262.825,-263.925 268.723,-266.451"/>
<polygon fill="midnightblue" stroke="midnightblue" points="209.324,-197.765 201.557,-190.559 203.136,-201.036 209.324,-197.765"/>
</g>
<!-- Node3 -->
<g id="node4" class="node"><title>Node3</title>
<g id="a_node4"><a xlink:href="classmanagement_1_1_game_over_state.html" target="_top" xlink:title="Behaviour to trigger transition to main menu state upon receiving the corresponding event...">
<polygon fill="white" stroke="black" points="260.5,-228.5 260.5,-247.5 346.5,-247.5 346.5,-228.5 260.5,-228.5"/>
<text text-anchor="middle" x="303.5" y="-235.5" font-family="Helvetica,sans-Serif" font-size="10.00">GameOverState</text>
</a>
</g>
</g>
<!-- Node1&#45;&gt;Node3 -->
<g id="edge3" class="edge"><title>Node1&#45;&gt;Node3</title>
<path fill="none" stroke="midnightblue" d="M217.251,-196.768C227.327,-204.143 239.912,-212.672 252,-219 258.722,-222.519 266.246,-225.713 273.392,-228.436"/>
<polygon fill="midnightblue" stroke="midnightblue" points="219.218,-193.868 209.118,-190.668 215.018,-199.468 219.218,-193.868"/>
</g>
<!-- Node4 -->
<g id="node5" class="node"><title>Node4</title>
<g id="a_node5"><a xlink:href="classmanagement_1_1_main_menu_state.html" target="_top" xlink:title="Triggers the Main Menu Scene and UI upon entering. ">
<polygon fill="white" stroke="black" points="261,-190.5 261,-209.5 346,-209.5 346,-190.5 261,-190.5"/>
<text text-anchor="middle" x="303.5" y="-197.5" font-family="Helvetica,sans-Serif" font-size="10.00">MainMenuState</text>
</a>
</g>
</g>
<!-- Node1&#45;&gt;Node4 -->
<g id="edge4" class="edge"><title>Node1&#45;&gt;Node4</title>
<path fill="none" stroke="midnightblue" d="M226.428,-186.3C237.128,-188.227 249.43,-190.442 260.979,-192.522"/>
<polygon fill="midnightblue" stroke="midnightblue" points="226.812,-182.813 216.35,-184.485 225.572,-189.702 226.812,-182.813"/>
</g>
<!-- Node5 -->
<g id="node6" class="node"><title>Node5</title>
<g id="a_node6"><a xlink:href="classmanagement_1_1_match_init_state.html" target="_top" xlink:title="During Match Init every client is expected to load and player instances are created. ">
<polygon fill="white" stroke="black" points="263.5,-152.5 263.5,-171.5 343.5,-171.5 343.5,-152.5 263.5,-152.5"/>
<text text-anchor="middle" x="303.5" y="-159.5" font-family="Helvetica,sans-Serif" font-size="10.00">MatchInitState</text>
</a>
</g>
</g>
<!-- Node1&#45;&gt;Node5 -->
<g id="edge5" class="edge"><title>Node1&#45;&gt;Node5</title>
<path fill="none" stroke="midnightblue" d="M226.237,-175.735C237.659,-173.678 250.93,-171.287 263.169,-169.083"/>
<polygon fill="midnightblue" stroke="midnightblue" points="225.572,-172.298 216.35,-177.515 226.812,-179.187 225.572,-172.298"/>
</g>
<!-- Node6 -->
<g id="node7" class="node"><title>Node6</title>
<g id="a_node7"><a xlink:href="classmanagement_1_1_startup_state.html" target="_top" xlink:title="During the startup the managers can prepare a stable state. ">
<polygon fill="white" stroke="black" points="268,-114.5 268,-133.5 339,-133.5 339,-114.5 268,-114.5"/>
<text text-anchor="middle" x="303.5" y="-121.5" font-family="Helvetica,sans-Serif" font-size="10.00">StartupState</text>
</a>
</g>
</g>
<!-- Node1&#45;&gt;Node6 -->
<g id="edge6" class="edge"><title>Node1&#45;&gt;Node6</title>
<path fill="none" stroke="midnightblue" d="M217.251,-165.232C227.327,-157.857 239.912,-149.328 252,-143 258.722,-139.481 266.246,-136.287 273.392,-133.564"/>
<polygon fill="midnightblue" stroke="midnightblue" points="215.018,-162.532 209.118,-171.332 219.218,-168.132 215.018,-162.532"/>
</g>
<!-- Node7 -->
<g id="node8" class="node"><title>Node7</title>
<g id="a_node8"><a xlink:href="classnet_1_1_net_overlay_state.html" target="_top" xlink:title="NetOverlayState">
<polygon fill="white" stroke="black" points="260,-76.5 260,-95.5 347,-95.5 347,-76.5 260,-76.5"/>
<text text-anchor="middle" x="303.5" y="-83.5" font-family="Helvetica,sans-Serif" font-size="10.00">NetOverlayState</text>
</a>
</g>
</g>
<!-- Node1&#45;&gt;Node7 -->
<g id="edge7" class="edge"><title>Node1&#45;&gt;Node7</title>
<path fill="none" stroke="midnightblue" d="M206.318,-162.433C215.734,-145.37 231.764,-120.451 252,-105 256.988,-101.191 262.825,-98.0747 268.723,-95.549"/>
<polygon fill="midnightblue" stroke="midnightblue" points="203.136,-160.964 201.557,-171.441 209.324,-164.235 203.136,-160.964"/>
</g>
<!-- Node8 -->
<g id="node9" class="node"><title>Node8</title>
<g id="a_node9"><a xlink:href="classnet_1_1_connect_to_master_state.html" target="_top" xlink:title="This state is responsible for doing the first step to hosting: connecting to the Photon Master Server...">
<polygon fill="white" stroke="black" points="391,-152.5 391,-171.5 507,-171.5 507,-152.5 391,-152.5"/>
<text text-anchor="middle" x="449" y="-159.5" font-family="Helvetica,sans-Serif" font-size="10.00">ConnectToMasterState</text>
</a>
</g>
</g>
<!-- Node7&#45;&gt;Node8 -->
<g id="edge8" class="edge"><title>Node7&#45;&gt;Node8</title>
<path fill="none" stroke="midnightblue" d="M345.768,-99.6986C348.984,-101.311 352.103,-103.076 355,-105 374.381,-117.869 371.377,-130.503 391,-143 396.983,-146.81 403.809,-149.937 410.608,-152.474"/>
<polygon fill="midnightblue" stroke="midnightblue" points="347.111,-96.4647 336.555,-95.5548 344.239,-102.849 347.111,-96.4647"/>
</g>
<!-- Node9 -->
<g id="node10" class="node"><title>Node9</title>
<g id="a_node10"><a xlink:href="classnet_1_1_disconnected_state.html" target="_top" xlink:title="This network behaviour is reached during startup and whenever a disconnect occurs for whatever reason...">
<polygon fill="white" stroke="black" points="399.5,-114.5 399.5,-133.5 498.5,-133.5 498.5,-114.5 399.5,-114.5"/>
<text text-anchor="middle" x="449" y="-121.5" font-family="Helvetica,sans-Serif" font-size="10.00">DisconnectedState</text>
</a>
</g>
</g>
<!-- Node7&#45;&gt;Node9 -->
<g id="edge9" class="edge"><title>Node7&#45;&gt;Node9</title>
<path fill="none" stroke="midnightblue" d="M350.473,-98.1742C370.316,-103.429 393.193,-109.487 411.8,-114.414"/>
<polygon fill="midnightblue" stroke="midnightblue" points="351.274,-94.7655 340.711,-95.589 349.482,-101.532 351.274,-94.7655"/>
</g>
<!-- Node10 -->
<g id="node11" class="node"><title>Node10</title>
<g id="a_node11"><a xlink:href="classnet_1_1_host_new_room_state.html" target="_top" xlink:title="Responsible for creating and hosting a new room once connected to Master. ">
<polygon fill="white" stroke="black" points="397,-76.5 397,-95.5 501,-95.5 501,-76.5 397,-76.5"/>
<text text-anchor="middle" x="449" y="-83.5" font-family="Helvetica,sans-Serif" font-size="10.00">HostNewRoomState</text>
</a>
</g>
</g>
<!-- Node7&#45;&gt;Node10 -->
<g id="edge10" class="edge"><title>Node7&#45;&gt;Node10</title>
<path fill="none" stroke="midnightblue" d="M357.307,-86C370.233,-86 384.041,-86 396.886,-86"/>
<polygon fill="midnightblue" stroke="midnightblue" points="357.166,-82.5001 347.166,-86 357.166,-89.5001 357.166,-82.5001"/>
</g>
<!-- Node11 -->
<g id="node12" class="node"><title>Node11</title>
<g id="a_node12"><a xlink:href="classnet_1_1_join_room_state.html" target="_top" xlink:title="State for joining an existing room. Needs to be connected to the Master Server of course...">
<polygon fill="white" stroke="black" points="407.5,-38.5 407.5,-57.5 490.5,-57.5 490.5,-38.5 407.5,-38.5"/>
<text text-anchor="middle" x="449" y="-45.5" font-family="Helvetica,sans-Serif" font-size="10.00">JoinRoomState</text>
</a>
</g>
</g>
<!-- Node7&#45;&gt;Node11 -->
<g id="edge11" class="edge"><title>Node7&#45;&gt;Node11</title>
<path fill="none" stroke="midnightblue" d="M350.473,-73.8258C370.316,-68.5713 393.193,-62.5134 411.8,-57.5859"/>
<polygon fill="midnightblue" stroke="midnightblue" points="349.482,-70.4677 340.711,-76.411 351.274,-77.2345 349.482,-70.4677"/>
</g>
<!-- Node12 -->
<g id="node13" class="node"><title>Node12</title>
<g id="a_node13"><a xlink:href="classnet_1_1_leave_room_state.html" target="_top" xlink:title="A base behaviour to initialize and return the state&#39;s name. ">
<polygon fill="white" stroke="black" points="404,-0.5 404,-19.5 494,-19.5 494,-0.5 404,-0.5"/>
<text text-anchor="middle" x="449" y="-7.5" font-family="Helvetica,sans-Serif" font-size="10.00">LeaveRoomState</text>
</a>
</g>
</g>
<!-- Node7&#45;&gt;Node12 -->
<g id="edge12" class="edge"><title>Node7&#45;&gt;Node12</title>
<path fill="none" stroke="midnightblue" d="M324.853,-70.3786C341.83,-57.9041 367.03,-40.6438 391,-29 398.412,-25.3993 406.678,-22.2116 414.564,-19.5248"/>
<polygon fill="midnightblue" stroke="midnightblue" points="322.694,-67.6229 316.775,-76.4106 326.882,-73.2318 322.694,-67.6229"/>
</g>
</g>
</svg>
