<?xml version="1.0" encoding="UTF-8" standalone="no"?>
<!DOCTYPE svg PUBLIC "-//W3C//DTD SVG 1.1//EN"
 "http://www.w3.org/Graphics/SVG/1.1/DTD/svg11.dtd">
<!-- Generated by graphviz version 2.38.0 (20140413.2041)
 -->
<!-- Title: Graphical Class Hierarchy Pages: 1 -->
<svg width="282pt" height="104pt"
 viewBox="0.00 0.00 282.00 104.00" xmlns="http://www.w3.org/2000/svg" xmlns:xlink="http://www.w3.org/1999/xlink">
<g id="graph0" class="graph" transform="scale(1 1) rotate(0) translate(4 100)">
<title>Graphical Class Hierarchy</title>
<polygon fill="white" stroke="none" points="-4,4 -4,-100 278,-100 278,4 -4,4"/>
<!-- Node88 -->
<g id="node1" class="node"><title>Node88</title>
<g id="a_node1"><a xlink:href="interface_i_state.html" target="_top" xlink:title="IState">
<polygon fill="white" stroke="black" points="38.5,-76.5 38.5,-95.5 80.5,-95.5 80.5,-76.5 38.5,-76.5"/>
<text text-anchor="middle" x="59.5" y="-83.5" font-family="Helvetica,sans-Serif" font-size="10.00">IState</text>
</a>
</g>
</g>
<!-- Node0 -->
<g id="node2" class="node"><title>Node0</title>
<g id="a_node2"><a xlink:href="class_base_state.html" target="_top" xlink:title="Extended functionality for Unity SM Behaviours and makes them complete &#39;States&#39;. ">
<polygon fill="white" stroke="black" points="156.5,-76.5 156.5,-95.5 272.5,-95.5 272.5,-76.5 156.5,-76.5"/>
<text text-anchor="middle" x="214.5" y="-83.5" font-family="Helvetica,sans-Serif" font-size="10.00">BaseState&lt; SMType &gt;</text>
</a>
</g>
</g>
<!-- Node88&#45;&gt;Node0 -->
<g id="edge1" class="edge"><title>Node88&#45;&gt;Node0</title>
<path fill="none" stroke="midnightblue" d="M90.7547,-86C109.428,-86 133.986,-86 156.226,-86"/>
<polygon fill="midnightblue" stroke="midnightblue" points="90.5021,-82.5001 80.5021,-86 90.502,-89.5001 90.5021,-82.5001"/>
</g>
<!-- Node11 -->
<g id="node3" class="node"><title>Node11</title>
<polygon fill="white" stroke="#bfbfbf" points="0,-38.5 0,-57.5 119,-57.5 119,-38.5 0,-38.5"/>
<text text-anchor="middle" x="59.5" y="-45.5" font-family="Helvetica,sans-Serif" font-size="10.00">StateMachineBehaviour</text>
</g>
<!-- Node11&#45;&gt;Node0 -->
<g id="edge2" class="edge"><title>Node11&#45;&gt;Node0</title>
<path fill="none" stroke="midnightblue" d="M108.977,-60.04C130.352,-65.3488 155.113,-71.4988 175.169,-76.4799"/>
<polygon fill="midnightblue" stroke="midnightblue" points="109.657,-56.6027 99.1084,-57.589 107.97,-63.3963 109.657,-56.6027"/>
</g>
<!-- Node13 -->
<g id="node4" class="node"><title>Node13</title>
<g id="a_node4"><a xlink:href="class_event_on_enter_behaviour.html" target="_top" xlink:title="EventOnEnterBehaviour">
<polygon fill="white" stroke="black" points="155,-38.5 155,-57.5 274,-57.5 274,-38.5 155,-38.5"/>
<text text-anchor="middle" x="214.5" y="-45.5" font-family="Helvetica,sans-Serif" font-size="10.00">EventOnEnterBehaviour</text>
</a>
</g>
</g>
<!-- Node11&#45;&gt;Node13 -->
<g id="edge3" class="edge"><title>Node11&#45;&gt;Node13</title>
<path fill="none" stroke="midnightblue" d="M129.493,-48C137.993,-48 146.617,-48 154.941,-48"/>
<polygon fill="midnightblue" stroke="midnightblue" points="129.216,-44.5001 119.216,-48 129.216,-51.5001 129.216,-44.5001"/>
</g>
<!-- Node14 -->
<g id="node5" class="node"><title>Node14</title>
<g id="a_node5"><a xlink:href="class_random_transition_state.html" target="_top" xlink:title="Provides a state which triggers a random transition randomly within a time interval. ">
<polygon fill="white" stroke="black" points="155.5,-0.5 155.5,-19.5 273.5,-19.5 273.5,-0.5 155.5,-0.5"/>
<text text-anchor="middle" x="214.5" y="-7.5" font-family="Helvetica,sans-Serif" font-size="10.00">RandomTransitionState</text>
</a>
</g>
</g>
<!-- Node11&#45;&gt;Node14 -->
<g id="edge4" class="edge"><title>Node11&#45;&gt;Node14</title>
<path fill="none" stroke="midnightblue" d="M108.977,-35.96C130.352,-30.6512 155.113,-24.5012 175.169,-19.5201"/>
<polygon fill="midnightblue" stroke="midnightblue" points="107.97,-32.6037 99.1084,-38.411 109.657,-39.3973 107.97,-32.6037"/>
</g>
</g>
</svg>
