<?xml version="1.0" encoding="UTF-8" standalone="no"?>
<!DOCTYPE svg PUBLIC "-//W3C//DTD SVG 1.1//EN"
 "http://www.w3.org/Graphics/SVG/1.1/DTD/svg11.dtd">
<!-- Generated by graphviz version 2.38.0 (20140413.2041)
 -->
<!-- Title: Graphical Class Hierarchy Pages: 1 -->
<svg width="282pt" height="66pt"
 viewBox="0.00 0.00 282.00 66.00" xmlns="http://www.w3.org/2000/svg" xmlns:xlink="http://www.w3.org/1999/xlink">
<g id="graph0" class="graph" transform="scale(1 1) rotate(0) translate(4 62)">
<title>Graphical Class Hierarchy</title>
<polygon fill="white" stroke="none" points="-4,4 -4,-62 278,-62 278,4 -4,4"/>
<!-- Node131 -->
<g id="node1" class="node"><title>Node131</title>
<g id="a_node1"><a xlink:href="class_base_state.html" target="_top" xlink:title="BaseState\&lt; MainMenuSM \&gt;">
<polygon fill="white" stroke="black" points="0,-38.5 0,-57.5 140,-57.5 140,-38.5 0,-38.5"/>
<text text-anchor="middle" x="70" y="-45.5" font-family="Helvetica,sans-Serif" font-size="10.00">BaseState&lt; MainMenuSM &gt;</text>
</a>
</g>
</g>
<!-- Node1 -->
<g id="node2" class="node"><title>Node1</title>
<g id="a_node2"><a xlink:href="classui_1_1_main_page_state.html" target="_top" xlink:title="Behaviour of the main page of the MainMenuSM, responsible for reacting to button inputs. ">
<polygon fill="white" stroke="black" points="183.5,-38.5 183.5,-57.5 266.5,-57.5 266.5,-38.5 183.5,-38.5"/>
<text text-anchor="middle" x="225" y="-45.5" font-family="Helvetica,sans-Serif" font-size="10.00">MainPageState</text>
</a>
</g>
</g>
<!-- Node131&#45;&gt;Node1 -->
<g id="edge1" class="edge"><title>Node131&#45;&gt;Node1</title>
<path fill="none" stroke="midnightblue" d="M150.362,-48C161.774,-48 173.101,-48 183.325,-48"/>
<polygon fill="midnightblue" stroke="midnightblue" points="150.337,-44.5001 140.337,-48 150.337,-51.5001 150.337,-44.5001"/>
</g>
<!-- Node2 -->
<g id="node3" class="node"><title>Node2</title>
<g id="a_node3"><a xlink:href="classui_1_1_settings_page_state.html" target="_top" xlink:title="SettingsPageState">
<polygon fill="white" stroke="black" points="176,-0.5 176,-19.5 274,-19.5 274,-0.5 176,-0.5"/>
<text text-anchor="middle" x="225" y="-7.5" font-family="Helvetica,sans-Serif" font-size="10.00">SettingsPageState</text>
</a>
</g>
</g>
<!-- Node131&#45;&gt;Node2 -->
<g id="edge2" class="edge"><title>Node131&#45;&gt;Node2</title>
<path fill="none" stroke="midnightblue" d="M119.477,-35.96C140.852,-30.6512 165.613,-24.5012 185.669,-19.5201"/>
<polygon fill="midnightblue" stroke="midnightblue" points="118.47,-32.6037 109.608,-38.411 120.157,-39.3973 118.47,-32.6037"/>
</g>
<!-- Node0 -->
<g id="node4" class="node"><title>Node0</title>
<g id="a_node4"><a xlink:href="interfaceui_1_1_i_page_state.html" target="_top" xlink:title="IPageState">
<polygon fill="white" stroke="black" points="37.5,-0.5 37.5,-19.5 102.5,-19.5 102.5,-0.5 37.5,-0.5"/>
<text text-anchor="middle" x="70" y="-7.5" font-family="Helvetica,sans-Serif" font-size="10.00">IPageState</text>
</a>
</g>
</g>
<!-- Node0&#45;&gt;Node1 -->
<g id="edge3" class="edge"><title>Node0&#45;&gt;Node1</title>
<path fill="none" stroke="midnightblue" d="M112.43,-20.2897C135.206,-25.9467 163.277,-32.9183 185.563,-38.4535"/>
<polygon fill="midnightblue" stroke="midnightblue" points="113.251,-16.8873 102.702,-17.8736 111.563,-23.6809 113.251,-16.8873"/>
</g>
<!-- Node0&#45;&gt;Node2 -->
<g id="edge4" class="edge"><title>Node0&#45;&gt;Node2</title>
<path fill="none" stroke="midnightblue" d="M112.791,-10C132.262,-10 155.54,-10 175.756,-10"/>
<polygon fill="midnightblue" stroke="midnightblue" points="112.702,-6.5001 102.702,-10 112.702,-13.5001 112.702,-6.5001"/>
</g>
</g>
</svg>
