<?xml version="1.0" encoding="UTF-8" standalone="no"?>
<!DOCTYPE svg PUBLIC "-//W3C//DTD SVG 1.1//EN"
 "http://www.w3.org/Graphics/SVG/1.1/DTD/svg11.dtd">
<!-- Generated by graphviz version 2.38.0 (20140413.2041)
 -->
<!-- Title: Graphical Class Hierarchy Pages: 1 -->
<svg width="573pt" height="294pt"
 viewBox="0.00 0.00 573.00 294.00" xmlns="http://www.w3.org/2000/svg" xmlns:xlink="http://www.w3.org/1999/xlink">
<g id="graph0" class="graph" transform="scale(1 1) rotate(0) translate(4 290)">
<title>Graphical Class Hierarchy</title>
<polygon fill="white" stroke="none" points="-4,4 -4,-290 569,-290 569,4 -4,4"/>
<!-- Node11 -->
<g id="node1" class="node"><title>Node11</title>
<polygon fill="white" stroke="#bfbfbf" points="0,-209.5 0,-228.5 119,-228.5 119,-209.5 0,-209.5"/>
<text text-anchor="middle" x="59.5" y="-216.5" font-family="Helvetica,sans-Serif" font-size="10.00">StateMachineBehaviour</text>
</g>
<!-- Node0 -->
<g id="node2" class="node"><title>Node0</title>
<g id="a_node2"><a xlink:href="class_event_on_enter_behaviour.html" target="_top" xlink:title="EventOnEnterBehaviour">
<polygon fill="white" stroke="black" points="155,-247.5 155,-266.5 274,-266.5 274,-247.5 155,-247.5"/>
<text text-anchor="middle" x="214.5" y="-254.5" font-family="Helvetica,sans-Serif" font-size="10.00">EventOnEnterBehaviour</text>
</a>
</g>
</g>
<!-- Node11&#45;&gt;Node0 -->
<g id="edge1" class="edge"><title>Node11&#45;&gt;Node0</title>
<path fill="none" stroke="midnightblue" d="M108.977,-231.04C130.352,-236.349 155.113,-242.499 175.169,-247.48"/>
<polygon fill="midnightblue" stroke="midnightblue" points="109.657,-227.603 99.1084,-228.589 107.97,-234.396 109.657,-227.603"/>
</g>
<!-- Node13 -->
<g id="node3" class="node"><title>Node13</title>
<g id="a_node3"><a xlink:href="class_random_transition_state.html" target="_top" xlink:title="Provides a state which triggers a random transition randomly within a time interval. ">
<polygon fill="white" stroke="black" points="155.5,-209.5 155.5,-228.5 273.5,-228.5 273.5,-209.5 155.5,-209.5"/>
<text text-anchor="middle" x="214.5" y="-216.5" font-family="Helvetica,sans-Serif" font-size="10.00">RandomTransitionState</text>
</a>
</g>
</g>
<!-- Node11&#45;&gt;Node13 -->
<g id="edge2" class="edge"><title>Node11&#45;&gt;Node13</title>
<path fill="none" stroke="midnightblue" d="M129.358,-219C138.073,-219 146.922,-219 155.446,-219"/>
<polygon fill="midnightblue" stroke="midnightblue" points="129.216,-215.5 119.216,-219 129.216,-222.5 129.216,-215.5"/>
</g>
<!-- Node14 -->
<g id="node4" class="node"><title>Node14</title>
<g id="a_node4"><a xlink:href="class_state.html" target="_top" xlink:title="Extended functionality for Unity SM Behaviours and makes them complete &#39;States&#39;. ">
<polygon fill="white" stroke="black" points="194.5,-171.5 194.5,-190.5 234.5,-190.5 234.5,-171.5 194.5,-171.5"/>
<text text-anchor="middle" x="214.5" y="-178.5" font-family="Helvetica,sans-Serif" font-size="10.00">State</text>
</a>
</g>
</g>
<!-- Node11&#45;&gt;Node14 -->
<g id="edge3" class="edge"><title>Node11&#45;&gt;Node14</title>
<path fill="none" stroke="midnightblue" d="M109.068,-206.937C138.052,-199.739 173.235,-191 194.47,-185.726"/>
<polygon fill="midnightblue" stroke="midnightblue" points="107.97,-203.604 99.1084,-209.411 109.657,-210.397 107.97,-203.604"/>
</g>
<!-- Node15 -->
<g id="node5" class="node"><title>Node15</title>
<g id="a_node5"><a xlink:href="class_command_behaviour.html" target="_top" xlink:title="A generic behaviour to trigger an event when entered. ">
<polygon fill="white" stroke="black" points="310,-266.5 310,-285.5 413,-285.5 413,-266.5 310,-266.5"/>
<text text-anchor="middle" x="361.5" y="-273.5" font-family="Helvetica,sans-Serif" font-size="10.00">CommandBehaviour</text>
</a>
</g>
</g>
<!-- Node14&#45;&gt;Node15 -->
<g id="edge4" class="edge"><title>Node14&#45;&gt;Node15</title>
<path fill="none" stroke="midnightblue" d="M244.744,-186.25C254.756,-189.097 265.553,-193.434 274,-200 297.657,-218.389 286.771,-238.074 310,-257 314.72,-260.846 320.299,-263.964 325.997,-266.475"/>
<polygon fill="midnightblue" stroke="midnightblue" points="245.271,-182.776 234.725,-183.792 243.603,-189.574 245.271,-182.776"/>
</g>
<!-- Node16 -->
<g id="node6" class="node"><title>Node16</title>
<g id="a_node6"><a xlink:href="classmanagement_1_1_game_over_state.html" target="_top" xlink:title="Behaviour to trigger transition to main menu state upon receiving the corresponding event...">
<polygon fill="white" stroke="black" points="318.5,-228.5 318.5,-247.5 404.5,-247.5 404.5,-228.5 318.5,-228.5"/>
<text text-anchor="middle" x="361.5" y="-235.5" font-family="Helvetica,sans-Serif" font-size="10.00">GameOverState</text>
</a>
</g>
</g>
<!-- Node14&#45;&gt;Node16 -->
<g id="edge5" class="edge"><title>Node14&#45;&gt;Node16</title>
<path fill="none" stroke="midnightblue" d="M244.364,-189.293C253.925,-192.325 264.537,-196.001 274,-200 290.665,-207.042 293.501,-211.578 310,-219 317.432,-222.343 325.645,-225.609 333.25,-228.463"/>
<polygon fill="midnightblue" stroke="midnightblue" points="245.092,-185.855 234.505,-186.271 243.041,-192.548 245.092,-185.855"/>
</g>
<!-- Node17 -->
<g id="node7" class="node"><title>Node17</title>
<g id="a_node7"><a xlink:href="classmanagement_1_1_main_menu_state.html" target="_top" xlink:title="Triggers the Main Menu Scene and UI upon entering. ">
<polygon fill="white" stroke="black" points="319,-190.5 319,-209.5 404,-209.5 404,-190.5 319,-190.5"/>
<text text-anchor="middle" x="361.5" y="-197.5" font-family="Helvetica,sans-Serif" font-size="10.00">MainMenuState</text>
</a>
</g>
</g>
<!-- Node14&#45;&gt;Node17 -->
<g id="edge6" class="edge"><title>Node14&#45;&gt;Node17</title>
<path fill="none" stroke="midnightblue" d="M244.803,-184.84C266.073,-187.627 295.15,-191.437 318.833,-194.54"/>
<polygon fill="midnightblue" stroke="midnightblue" points="245.125,-181.352 234.755,-183.523 244.215,-188.293 245.125,-181.352"/>
</g>
<!-- Node18 -->
<g id="node8" class="node"><title>Node18</title>
<g id="a_node8"><a xlink:href="classmanagement_1_1_match_init_state.html" target="_top" xlink:title="During Match Init every client is expected to load and player instances are created. ">
<polygon fill="white" stroke="black" points="321.5,-152.5 321.5,-171.5 401.5,-171.5 401.5,-152.5 321.5,-152.5"/>
<text text-anchor="middle" x="361.5" y="-159.5" font-family="Helvetica,sans-Serif" font-size="10.00">MatchInitState</text>
</a>
</g>
</g>
<!-- Node14&#45;&gt;Node18 -->
<g id="edge7" class="edge"><title>Node14&#45;&gt;Node18</title>
<path fill="none" stroke="midnightblue" d="M244.815,-177.159C266.802,-174.278 297.127,-170.304 321.212,-167.148"/>
<polygon fill="midnightblue" stroke="midnightblue" points="244.215,-173.707 234.755,-178.477 245.125,-180.648 244.215,-173.707"/>
</g>
<!-- Node19 -->
<g id="node9" class="node"><title>Node19</title>
<g id="a_node9"><a xlink:href="classmanagement_1_1_startup_state.html" target="_top" xlink:title="During the startup the managers can prepare a stable state. ">
<polygon fill="white" stroke="black" points="326,-114.5 326,-133.5 397,-133.5 397,-114.5 326,-114.5"/>
<text text-anchor="middle" x="361.5" y="-121.5" font-family="Helvetica,sans-Serif" font-size="10.00">StartupState</text>
</a>
</g>
</g>
<!-- Node14&#45;&gt;Node19 -->
<g id="edge8" class="edge"><title>Node14&#45;&gt;Node19</title>
<path fill="none" stroke="midnightblue" d="M244.06,-169.321C262.773,-161.718 287.79,-151.643 310,-143 318.031,-139.875 326.812,-136.542 334.767,-133.554"/>
<polygon fill="midnightblue" stroke="midnightblue" points="242.577,-166.146 234.635,-173.159 245.217,-172.629 242.577,-166.146"/>
</g>
<!-- Node20 -->
<g id="node10" class="node"><title>Node20</title>
<g id="a_node10"><a xlink:href="classnet_1_1_net_overlay_state.html" target="_top" xlink:title="NetOverlayState">
<polygon fill="white" stroke="black" points="318,-76.5 318,-95.5 405,-95.5 405,-76.5 318,-76.5"/>
<text text-anchor="middle" x="361.5" y="-83.5" font-family="Helvetica,sans-Serif" font-size="10.00">NetOverlayState</text>
</a>
</g>
</g>
<!-- Node14&#45;&gt;Node20 -->
<g id="edge9" class="edge"><title>Node14&#45;&gt;Node20</title>
<path fill="none" stroke="midnightblue" d="M232.62,-164.403C250.663,-147.624 280.506,-121.832 310,-105 316.346,-101.378 323.513,-98.2 330.412,-95.5307"/>
<polygon fill="midnightblue" stroke="midnightblue" points="230.067,-162.001 225.204,-171.414 234.875,-167.088 230.067,-162.001"/>
</g>
<!-- Node21 -->
<g id="node11" class="node"><title>Node21</title>
<g id="a_node11"><a xlink:href="classnet_1_1_connect_to_master_state.html" target="_top" xlink:title="This state is responsible for doing the first step to hosting: connecting to the Photon Master Server...">
<polygon fill="white" stroke="black" points="449,-152.5 449,-171.5 565,-171.5 565,-152.5 449,-152.5"/>
<text text-anchor="middle" x="507" y="-159.5" font-family="Helvetica,sans-Serif" font-size="10.00">ConnectToMasterState</text>
</a>
</g>
</g>
<!-- Node20&#45;&gt;Node21 -->
<g id="edge10" class="edge"><title>Node20&#45;&gt;Node21</title>
<path fill="none" stroke="midnightblue" d="M403.768,-99.6986C406.984,-101.311 410.103,-103.076 413,-105 432.381,-117.869 429.377,-130.503 449,-143 454.983,-146.81 461.809,-149.937 468.608,-152.474"/>
<polygon fill="midnightblue" stroke="midnightblue" points="405.111,-96.4647 394.555,-95.5548 402.239,-102.849 405.111,-96.4647"/>
</g>
<!-- Node22 -->
<g id="node12" class="node"><title>Node22</title>
<g id="a_node12"><a xlink:href="classnet_1_1_disconnected_state.html" target="_top" xlink:title="This network behaviour is reached during startup and whenever a disconnect occurs for whatever reason...">
<polygon fill="white" stroke="black" points="457.5,-114.5 457.5,-133.5 556.5,-133.5 556.5,-114.5 457.5,-114.5"/>
<text text-anchor="middle" x="507" y="-121.5" font-family="Helvetica,sans-Serif" font-size="10.00">DisconnectedState</text>
</a>
</g>
</g>
<!-- Node20&#45;&gt;Node22 -->
<g id="edge11" class="edge"><title>Node20&#45;&gt;Node22</title>
<path fill="none" stroke="midnightblue" d="M408.473,-98.1742C428.316,-103.429 451.193,-109.487 469.8,-114.414"/>
<polygon fill="midnightblue" stroke="midnightblue" points="409.274,-94.7655 398.711,-95.589 407.482,-101.532 409.274,-94.7655"/>
</g>
<!-- Node23 -->
<g id="node13" class="node"><title>Node23</title>
<g id="a_node13"><a xlink:href="classnet_1_1_host_new_room_state.html" target="_top" xlink:title="Responsible for creating and hosting a new room once connected to Master. ">
<polygon fill="white" stroke="black" points="455,-76.5 455,-95.5 559,-95.5 559,-76.5 455,-76.5"/>
<text text-anchor="middle" x="507" y="-83.5" font-family="Helvetica,sans-Serif" font-size="10.00">HostNewRoomState</text>
</a>
</g>
</g>
<!-- Node20&#45;&gt;Node23 -->
<g id="edge12" class="edge"><title>Node20&#45;&gt;Node23</title>
<path fill="none" stroke="midnightblue" d="M415.307,-86C428.233,-86 442.041,-86 454.886,-86"/>
<polygon fill="midnightblue" stroke="midnightblue" points="415.166,-82.5001 405.166,-86 415.166,-89.5001 415.166,-82.5001"/>
</g>
<!-- Node24 -->
<g id="node14" class="node"><title>Node24</title>
<g id="a_node14"><a xlink:href="classnet_1_1_join_room_state.html" target="_top" xlink:title="State for joining an existing room. Needs to be connected to the Master Server of course...">
<polygon fill="white" stroke="black" points="465.5,-38.5 465.5,-57.5 548.5,-57.5 548.5,-38.5 465.5,-38.5"/>
<text text-anchor="middle" x="507" y="-45.5" font-family="Helvetica,sans-Serif" font-size="10.00">JoinRoomState</text>
</a>
</g>
</g>
<!-- Node20&#45;&gt;Node24 -->
<g id="edge13" class="edge"><title>Node20&#45;&gt;Node24</title>
<path fill="none" stroke="midnightblue" d="M408.473,-73.8258C428.316,-68.5713 451.193,-62.5134 469.8,-57.5859"/>
<polygon fill="midnightblue" stroke="midnightblue" points="407.482,-70.4677 398.711,-76.411 409.274,-77.2345 407.482,-70.4677"/>
</g>
<!-- Node25 -->
<g id="node15" class="node"><title>Node25</title>
<g id="a_node15"><a xlink:href="classnet_1_1_leave_room_state.html" target="_top" xlink:title="A base behaviour to initialize and return the state&#39;s name. ">
<polygon fill="white" stroke="black" points="462,-0.5 462,-19.5 552,-19.5 552,-0.5 462,-0.5"/>
<text text-anchor="middle" x="507" y="-7.5" font-family="Helvetica,sans-Serif" font-size="10.00">LeaveRoomState</text>
</a>
</g>
</g>
<!-- Node20&#45;&gt;Node25 -->
<g id="edge14" class="edge"><title>Node20&#45;&gt;Node25</title>
<path fill="none" stroke="midnightblue" d="M382.853,-70.3786C399.83,-57.9041 425.03,-40.6438 449,-29 456.412,-25.3993 464.678,-22.2116 472.564,-19.5248"/>
<polygon fill="midnightblue" stroke="midnightblue" points="380.694,-67.6229 374.775,-76.4106 384.882,-73.2318 380.694,-67.6229"/>
</g>
</g>
</svg>
