<?xml version="1.0" encoding="UTF-8" standalone="no"?>
<!DOCTYPE svg PUBLIC "-//W3C//DTD SVG 1.1//EN"
 "http://www.w3.org/Graphics/SVG/1.1/DTD/svg11.dtd">
<!-- Generated by graphviz version 2.38.0 (20140413.2041)
 -->
<!-- Title: IPageState Pages: 1 -->
<svg width="262pt" height="182pt"
 viewBox="0.00 0.00 262.00 182.00" xmlns="http://www.w3.org/2000/svg" xmlns:xlink="http://www.w3.org/1999/xlink">
<g id="graph0" class="graph" transform="scale(1 1) rotate(0) translate(4 178)">
<title>IPageState</title>
<polygon fill="white" stroke="none" points="-4,4 -4,-178 258,-178 258,4 -4,4"/>
<!-- Node0 -->
<g id="node1" class="node"><title>Node0</title>
<polygon fill="#bfbfbf" stroke="black" points="93,-116.5 93,-173.5 181,-173.5 181,-116.5 93,-116.5"/>
<text text-anchor="middle" x="137" y="-161.5" font-family="Helvetica,sans-Serif" font-size="10.00">IPageState</text>
<polyline fill="none" stroke="black" points="93,-154.5 181,-154.5 "/>
<text text-anchor="middle" x="137" y="-142.5" font-family="Helvetica,sans-Serif" font-size="10.00"> </text>
<polyline fill="none" stroke="black" points="93,-135.5 181,-135.5 "/>
<text text-anchor="start" x="101" y="-123.5" font-family="Helvetica,sans-Serif" font-size="10.00">+ InterpretInput()</text>
</g>
<!-- Node1 -->
<g id="node2" class="node"><title>Node1</title>
<g id="a_node2"><a xlink:href="classui_1_1_main_page_state.html" target="_top" xlink:title="Behaviour of the main page of the MainMenuSM, responsible for reacting to button inputs. ">
<polygon fill="white" stroke="black" points="0,-0.5 0,-79.5 138,-79.5 138,-0.5 0,-0.5"/>
<text text-anchor="middle" x="69" y="-67.5" font-family="Helvetica,sans-Serif" font-size="10.00">MainPageState</text>
<polyline fill="none" stroke="black" points="0,-60.5 138,-60.5 "/>
<text text-anchor="middle" x="69" y="-48.5" font-family="Helvetica,sans-Serif" font-size="10.00"> </text>
<polyline fill="none" stroke="black" points="0,-41.5 138,-41.5 "/>
<text text-anchor="start" x="8" y="-29.5" font-family="Helvetica,sans-Serif" font-size="10.00">+ InterpretInput()</text>
<text text-anchor="start" x="8" y="-18.5" font-family="Helvetica,sans-Serif" font-size="10.00"># OnMyStateInit()</text>
<text text-anchor="start" x="8" y="-7.5" font-family="Helvetica,sans-Serif" font-size="10.00">&#45; SetPlayJoinButtonVisible()</text>
</a>
</g>
</g>
<!-- Node0&#45;&gt;Node1 -->
<g id="edge1" class="edge"><title>Node0&#45;&gt;Node1</title>
<path fill="none" stroke="midnightblue" d="M113.145,-107.866C107.089,-98.6942 100.561,-88.8062 94.431,-79.5205"/>
<polygon fill="none" stroke="midnightblue" points="110.347,-109.981 118.777,-116.398 116.189,-106.124 110.347,-109.981"/>
</g>
<!-- Node2 -->
<g id="node3" class="node"><title>Node2</title>
<g id="a_node3"><a xlink:href="classui_1_1_settings_page_state.html" target="_top" xlink:title="{SettingsPageState\n||+ InterpretInput()\l}">
<polygon fill="white" stroke="black" points="156,-11.5 156,-68.5 254,-68.5 254,-11.5 156,-11.5"/>
<text text-anchor="middle" x="205" y="-56.5" font-family="Helvetica,sans-Serif" font-size="10.00">SettingsPageState</text>
<polyline fill="none" stroke="black" points="156,-49.5 254,-49.5 "/>
<text text-anchor="middle" x="205" y="-37.5" font-family="Helvetica,sans-Serif" font-size="10.00"> </text>
<polyline fill="none" stroke="black" points="156,-30.5 254,-30.5 "/>
<text text-anchor="start" x="164" y="-18.5" font-family="Helvetica,sans-Serif" font-size="10.00">+ InterpretInput()</text>
</a>
</g>
</g>
<!-- Node0&#45;&gt;Node2 -->
<g id="edge2" class="edge"><title>Node0&#45;&gt;Node2</title>
<path fill="none" stroke="midnightblue" d="M160.916,-107.774C169.395,-94.931 178.794,-80.695 186.727,-68.6783"/>
<polygon fill="none" stroke="midnightblue" points="157.811,-106.124 155.223,-116.398 163.653,-109.981 157.811,-106.124"/>
</g>
</g>
</svg>
