<?xml version="1.0" encoding="UTF-8" standalone="no"?>
<!DOCTYPE svg PUBLIC "-//W3C//DTD SVG 1.1//EN"
 "http://www.w3.org/Graphics/SVG/1.1/DTD/svg11.dtd">
<!-- Generated by graphviz version 2.38.0 (20140413.2041)
 -->
<!-- Title: IStatusHolder Pages: 1 -->
<svg width="127pt" height="182pt"
 viewBox="0.00 0.00 127.00 182.00" xmlns="http://www.w3.org/2000/svg" xmlns:xlink="http://www.w3.org/1999/xlink">
<g id="graph0" class="graph" transform="scale(1 1) rotate(0) translate(4 178)">
<title>IStatusHolder</title>
<polygon fill="white" stroke="none" points="-4,4 -4,-178 123,-178 123,4 -4,4"/>
<!-- Node0 -->
<g id="node1" class="node"><title>Node0</title>
<polygon fill="#bfbfbf" stroke="black" points="0,-105.5 0,-173.5 119,-173.5 119,-105.5 0,-105.5"/>
<text text-anchor="middle" x="59.5" y="-161.5" font-family="Helvetica,sans-Serif" font-size="10.00">IStatusHolder</text>
<polyline fill="none" stroke="black" points="0,-154.5 119,-154.5 "/>
<text text-anchor="middle" x="59.5" y="-142.5" font-family="Helvetica,sans-Serif" font-size="10.00"> </text>
<polyline fill="none" stroke="black" points="0,-135.5 119,-135.5 "/>
<text text-anchor="start" x="8" y="-123.5" font-family="Helvetica,sans-Serif" font-size="10.00">+ AddStatusEffect()</text>
<text text-anchor="start" x="8" y="-112.5" font-family="Helvetica,sans-Serif" font-size="10.00">+ RemoveStatusEffect()</text>
</g>
<!-- Node1 -->
<g id="node2" class="node"><title>Node1</title>
<g id="a_node2"><a xlink:href="classmechanics_1_1_unit_status.html" target="_top" xlink:title="{UnitStatus\n|+ maxHp\l|+ AddStatusEffect()\l+ RemoveStatusEffect()\l}">
<polygon fill="white" stroke="black" points="0,-0.5 0,-68.5 119,-68.5 119,-0.5 0,-0.5"/>
<text text-anchor="middle" x="59.5" y="-56.5" font-family="Helvetica,sans-Serif" font-size="10.00">UnitStatus</text>
<polyline fill="none" stroke="black" points="0,-49.5 119,-49.5 "/>
<text text-anchor="start" x="8" y="-37.5" font-family="Helvetica,sans-Serif" font-size="10.00">+ maxHp</text>
<polyline fill="none" stroke="black" points="0,-30.5 119,-30.5 "/>
<text text-anchor="start" x="8" y="-18.5" font-family="Helvetica,sans-Serif" font-size="10.00">+ AddStatusEffect()</text>
<text text-anchor="start" x="8" y="-7.5" font-family="Helvetica,sans-Serif" font-size="10.00">+ RemoveStatusEffect()</text>
</a>
</g>
</g>
<!-- Node0&#45;&gt;Node1 -->
<g id="edge1" class="edge"><title>Node0&#45;&gt;Node1</title>
<path fill="none" stroke="midnightblue" d="M59.5,-95.1362C59.5,-86.256 59.5,-77.0447 59.5,-68.5947"/>
<polygon fill="none" stroke="midnightblue" points="56.0001,-95.3432 59.5,-105.343 63.0001,-95.3432 56.0001,-95.3432"/>
</g>
</g>
</svg>
