<?xml version="1.0" encoding="UTF-8" standalone="no"?>
<!DOCTYPE svg PUBLIC "-//W3C//DTD SVG 1.1//EN"
 "http://www.w3.org/Graphics/SVG/1.1/DTD/svg11.dtd">
<!-- Generated by graphviz version 2.38.0 (20140413.2041)
 -->
<!-- Title: INetDataPkg Pages: 1 -->
<svg width="287pt" height="193pt"
 viewBox="0.00 0.00 287.00 193.00" xmlns="http://www.w3.org/2000/svg" xmlns:xlink="http://www.w3.org/1999/xlink">
<g id="graph0" class="graph" transform="scale(1 1) rotate(0) translate(4 189)">
<title>INetDataPkg</title>
<polygon fill="white" stroke="none" points="-4,4 -4,-189 283,-189 283,4 -4,4"/>
<!-- Node0 -->
<g id="node1" class="node"><title>Node0</title>
<polygon fill="#bfbfbf" stroke="black" points="105,-116.5 105,-184.5 178,-184.5 178,-116.5 105,-116.5"/>
<text text-anchor="middle" x="141.5" y="-172.5" font-family="Helvetica,sans-Serif" font-size="10.00">INetDataPkg</text>
<polyline fill="none" stroke="black" points="105,-165.5 178,-165.5 "/>
<text text-anchor="middle" x="141.5" y="-153.5" font-family="Helvetica,sans-Serif" font-size="10.00"> </text>
<polyline fill="none" stroke="black" points="105,-146.5 178,-146.5 "/>
<text text-anchor="start" x="113" y="-134.5" font-family="Helvetica,sans-Serif" font-size="10.00">+ ToRaw()</text>
<text text-anchor="start" x="113" y="-123.5" font-family="Helvetica,sans-Serif" font-size="10.00">+ FromRaw()</text>
</g>
<!-- Node1 -->
<g id="node2" class="node"><title>Node1</title>
<g id="a_node2"><a xlink:href="structnet_1_1_int_net_data.html" target="_top" xlink:title="Wraps an integer into a data package applicable for use with NetEvent. ">
<polygon fill="white" stroke="black" points="0,-0.5 0,-79.5 77,-79.5 77,-0.5 0,-0.5"/>
<text text-anchor="middle" x="38.5" y="-67.5" font-family="Helvetica,sans-Serif" font-size="10.00">IntNetData</text>
<polyline fill="none" stroke="black" points="0,-60.5 77,-60.5 "/>
<text text-anchor="start" x="8" y="-48.5" font-family="Helvetica,sans-Serif" font-size="10.00">+ data</text>
<polyline fill="none" stroke="black" points="0,-41.5 77,-41.5 "/>
<text text-anchor="start" x="8" y="-29.5" font-family="Helvetica,sans-Serif" font-size="10.00">+ IntNetData()</text>
<text text-anchor="start" x="8" y="-18.5" font-family="Helvetica,sans-Serif" font-size="10.00">+ ToRaw()</text>
<text text-anchor="start" x="8" y="-7.5" font-family="Helvetica,sans-Serif" font-size="10.00">+ FromRaw()</text>
</a>
</g>
</g>
<!-- Node0&#45;&gt;Node1 -->
<g id="edge1" class="edge"><title>Node0&#45;&gt;Node1</title>
<path fill="none" stroke="midnightblue" d="M102.904,-108.843C93.8277,-99.2821 84.1799,-89.1192 75.1901,-79.6493"/>
<polygon fill="none" stroke="midnightblue" points="100.614,-111.514 110.037,-116.357 105.69,-106.695 100.614,-111.514"/>
</g>
<!-- Node2 -->
<g id="node3" class="node"><title>Node2</title>
<g id="a_node3"><a xlink:href="structnet_1_1_string_net_data.html" target="_top" xlink:title="Wraps a string into a data package applicable for use with NetEvent. ">
<polygon fill="white" stroke="black" points="95.5,-0.5 95.5,-79.5 187.5,-79.5 187.5,-0.5 95.5,-0.5"/>
<text text-anchor="middle" x="141.5" y="-67.5" font-family="Helvetica,sans-Serif" font-size="10.00">StringNetData</text>
<polyline fill="none" stroke="black" points="95.5,-60.5 187.5,-60.5 "/>
<text text-anchor="start" x="103.5" y="-48.5" font-family="Helvetica,sans-Serif" font-size="10.00">+ data</text>
<polyline fill="none" stroke="black" points="95.5,-41.5 187.5,-41.5 "/>
<text text-anchor="start" x="103.5" y="-29.5" font-family="Helvetica,sans-Serif" font-size="10.00">+ StringNetData()</text>
<text text-anchor="start" x="103.5" y="-18.5" font-family="Helvetica,sans-Serif" font-size="10.00">+ ToRaw()</text>
<text text-anchor="start" x="103.5" y="-7.5" font-family="Helvetica,sans-Serif" font-size="10.00">+ FromRaw()</text>
</a>
</g>
</g>
<!-- Node0&#45;&gt;Node2 -->
<g id="edge2" class="edge"><title>Node0&#45;&gt;Node2</title>
<path fill="none" stroke="midnightblue" d="M141.5,-106.274C141.5,-97.4764 141.5,-88.2753 141.5,-79.6493"/>
<polygon fill="none" stroke="midnightblue" points="138,-106.357 141.5,-116.357 145,-106.357 138,-106.357"/>
</g>
<!-- Node3 -->
<g id="node4" class="node"><title>Node3</title>
<g id="a_node4"><a xlink:href="structnet_1_1_void_net_data.html" target="_top" xlink:title="Wraps no data, so is used to flag only that a specific NetEvent was invoked. ">
<polygon fill="white" stroke="black" points="206,-6 206,-74 279,-74 279,-6 206,-6"/>
<text text-anchor="middle" x="242.5" y="-62" font-family="Helvetica,sans-Serif" font-size="10.00">VoidNetData</text>
<polyline fill="none" stroke="black" points="206,-55 279,-55 "/>
<text text-anchor="middle" x="242.5" y="-43" font-family="Helvetica,sans-Serif" font-size="10.00"> </text>
<polyline fill="none" stroke="black" points="206,-36 279,-36 "/>
<text text-anchor="start" x="214" y="-24" font-family="Helvetica,sans-Serif" font-size="10.00">+ ToRaw()</text>
<text text-anchor="start" x="214" y="-13" font-family="Helvetica,sans-Serif" font-size="10.00">+ FromRaw()</text>
</a>
</g>
</g>
<!-- Node0&#45;&gt;Node3 -->
<g id="edge3" class="edge"><title>Node0&#45;&gt;Node3</title>
<path fill="none" stroke="midnightblue" d="M179.204,-108.996C189.843,-97.5675 201.292,-85.2682 211.489,-74.314"/>
<polygon fill="none" stroke="midnightblue" points="176.604,-106.653 172.352,-116.357 181.728,-111.422 176.604,-106.653"/>
</g>
</g>
</svg>
