<?xml version="1.0" encoding="UTF-8" standalone="no"?>
<!DOCTYPE svg PUBLIC "-//W3C//DTD SVG 1.1//EN"
 "http://www.w3.org/Graphics/SVG/1.1/DTD/svg11.dtd">
<!-- Generated by graphviz version 2.38.0 (20140413.2041)
 -->
<!-- Title: VoidNetData Pages: 1 -->
<svg width="81pt" height="182pt"
 viewBox="0.00 0.00 81.00 182.00" xmlns="http://www.w3.org/2000/svg" xmlns:xlink="http://www.w3.org/1999/xlink">
<g id="graph0" class="graph" transform="scale(1 1) rotate(0) translate(4 178)">
<title>VoidNetData</title>
<polygon fill="white" stroke="none" points="-4,4 -4,-178 77,-178 77,4 -4,4"/>
<!-- Node0 -->
<g id="node1" class="node"><title>Node0</title>
<polygon fill="#bfbfbf" stroke="black" points="0,-0.5 0,-68.5 73,-68.5 73,-0.5 0,-0.5"/>
<text text-anchor="middle" x="36.5" y="-56.5" font-family="Helvetica,sans-Serif" font-size="10.00">VoidNetData</text>
<polyline fill="none" stroke="black" points="0,-49.5 73,-49.5 "/>
<text text-anchor="middle" x="36.5" y="-37.5" font-family="Helvetica,sans-Serif" font-size="10.00"> </text>
<polyline fill="none" stroke="black" points="0,-30.5 73,-30.5 "/>
<text text-anchor="start" x="8" y="-18.5" font-family="Helvetica,sans-Serif" font-size="10.00">+ ToRaw()</text>
<text text-anchor="start" x="8" y="-7.5" font-family="Helvetica,sans-Serif" font-size="10.00">+ FromRaw()</text>
</g>
<!-- Node1 -->
<g id="node2" class="node"><title>Node1</title>
<g id="a_node2"><a xlink:href="interface_i_net_data_pkg.html" target="_top" xlink:title="Interface to be used by all datatypes which shall be sent via a net::NetEvent. ">
<polygon fill="white" stroke="black" points="0,-105.5 0,-173.5 73,-173.5 73,-105.5 0,-105.5"/>
<text text-anchor="middle" x="36.5" y="-161.5" font-family="Helvetica,sans-Serif" font-size="10.00">INetDataPkg</text>
<polyline fill="none" stroke="black" points="0,-154.5 73,-154.5 "/>
<text text-anchor="middle" x="36.5" y="-142.5" font-family="Helvetica,sans-Serif" font-size="10.00"> </text>
<polyline fill="none" stroke="black" points="0,-135.5 73,-135.5 "/>
<text text-anchor="start" x="8" y="-123.5" font-family="Helvetica,sans-Serif" font-size="10.00">+ ToRaw()</text>
<text text-anchor="start" x="8" y="-112.5" font-family="Helvetica,sans-Serif" font-size="10.00">+ FromRaw()</text>
</a>
</g>
</g>
<!-- Node1&#45;&gt;Node0 -->
<g id="edge1" class="edge"><title>Node1&#45;&gt;Node0</title>
<path fill="none" stroke="midnightblue" d="M36.5,-95.1362C36.5,-86.256 36.5,-77.0447 36.5,-68.5947"/>
<polygon fill="none" stroke="midnightblue" points="33.0001,-95.3432 36.5,-105.343 40.0001,-95.3432 33.0001,-95.3432"/>
</g>
</g>
</svg>
