<?xml version="1.0" encoding="UTF-8" standalone="no"?>
<!DOCTYPE svg PUBLIC "-//W3C//DTD SVG 1.1//EN"
 "http://www.w3.org/Graphics/SVG/1.1/DTD/svg11.dtd">
<!-- Generated by graphviz version 2.38.0 (20140413.2041)
 -->
<!-- Title: IntNetData Pages: 1 -->
<svg width="85pt" height="193pt"
 viewBox="0.00 0.00 85.00 193.00" xmlns="http://www.w3.org/2000/svg" xmlns:xlink="http://www.w3.org/1999/xlink">
<g id="graph0" class="graph" transform="scale(1 1) rotate(0) translate(4 189)">
<title>IntNetData</title>
<polygon fill="white" stroke="none" points="-4,4 -4,-189 81,-189 81,4 -4,4"/>
<!-- Node0 -->
<g id="node1" class="node"><title>Node0</title>
<polygon fill="#bfbfbf" stroke="black" points="0,-0.5 0,-79.5 77,-79.5 77,-0.5 0,-0.5"/>
<text text-anchor="middle" x="38.5" y="-67.5" font-family="Helvetica,sans-Serif" font-size="10.00">IntNetData</text>
<polyline fill="none" stroke="black" points="0,-60.5 77,-60.5 "/>
<text text-anchor="start" x="8" y="-48.5" font-family="Helvetica,sans-Serif" font-size="10.00">+ data</text>
<polyline fill="none" stroke="black" points="0,-41.5 77,-41.5 "/>
<text text-anchor="start" x="8" y="-29.5" font-family="Helvetica,sans-Serif" font-size="10.00">+ IntNetData()</text>
<text text-anchor="start" x="8" y="-18.5" font-family="Helvetica,sans-Serif" font-size="10.00">+ ToRaw()</text>
<text text-anchor="start" x="8" y="-7.5" font-family="Helvetica,sans-Serif" font-size="10.00">+ FromRaw()</text>
</g>
<!-- Node1 -->
<g id="node2" class="node"><title>Node1</title>
<g id="a_node2"><a xlink:href="interface_i_net_data_pkg.html" target="_top" xlink:title="Interface to be used by all datatypes which shall be sent via a net::NetEvent. ">
<polygon fill="white" stroke="black" points="2,-116.5 2,-184.5 75,-184.5 75,-116.5 2,-116.5"/>
<text text-anchor="middle" x="38.5" y="-172.5" font-family="Helvetica,sans-Serif" font-size="10.00">INetDataPkg</text>
<polyline fill="none" stroke="black" points="2,-165.5 75,-165.5 "/>
<text text-anchor="middle" x="38.5" y="-153.5" font-family="Helvetica,sans-Serif" font-size="10.00"> </text>
<polyline fill="none" stroke="black" points="2,-146.5 75,-146.5 "/>
<text text-anchor="start" x="10" y="-134.5" font-family="Helvetica,sans-Serif" font-size="10.00">+ ToRaw()</text>
<text text-anchor="start" x="10" y="-123.5" font-family="Helvetica,sans-Serif" font-size="10.00">+ FromRaw()</text>
</a>
</g>
</g>
<!-- Node1&#45;&gt;Node0 -->
<g id="edge1" class="edge"><title>Node1&#45;&gt;Node0</title>
<path fill="none" stroke="midnightblue" d="M38.5,-106.274C38.5,-97.4764 38.5,-88.2753 38.5,-79.6493"/>
<polygon fill="none" stroke="midnightblue" points="35.0001,-106.357 38.5,-116.357 42.0001,-106.357 35.0001,-106.357"/>
</g>
</g>
</svg>
